<?xml version="1.0" encoding="UTF-8"?>
<!-- generated by map2svg: github.com/fracai/marathon-svg -->
<svg xmlns="http://www.w3.org/2000/svg" xmlns:xlink="http://www.w3.org/1999/xlink" version="1.1"
    viewBox="-187.5 -156.25 546.875 406.25">
<link xmlns="http://www.w3.org/1999/xhtml" rel="stylesheet" href="../resources/css/styles.css" type="text/css" />
<style id="dynamic-style" />
<g id="background-grid">
<defs>
<pattern id="grid_minor" width="3.125" height="3.125" patternUnits="userSpaceOnUse">
<path d="M 3.125 0 L 0 0 0 3.125" fill="none" class="grid_minor" />
</pattern>
<pattern id="grid_major" width="31.25" height="31.25" patternUnits="userSpaceOnUse">
<rect width="31.25" height="31.25" fill="url(#grid_minor)"/>
<path d="M 31.25 0 L 0 0 0 31.25" fill="none" class="grid_major" />
</pattern>
</defs>
<rect x="-1000" y="-1000" width="2000" height="2000" fill="url(#grid_major)" />
<line x1="0" y1="1000" x2="0" y2="-1000" class="grid_origin" />
<line x1="1000" y1="0" x2="-1000" y2="0" class="grid_origin" />
<!-- end group: "background-grid" -->
</g>
<g id="polygons">
<polygon points="109.375,156.25 125.0,156.25 125.0,171.875 109.375,171.875" id="poly_6" class="plain" />
<polygon points="156.25,187.5 203.125,187.5 187.5,218.75 156.25,218.75" id="poly_8" class="plain" />
<polygon points="203.125,187.5 218.75,187.5 234.375,218.75 187.5,218.75" id="poly_9" class="plain" />
<polygon points="203.125,171.875 218.75,171.875 218.75,187.5 203.125,187.5" id="poly_10" class="plain" />
<polygon points="218.75,187.5 250.0,187.5 250.0,218.75 234.375,218.75" id="poly_11" class="plain" />
<polygon points="250.0,187.5 281.25,171.875 281.25,218.75 250.0,218.75" id="poly_12" class="plain" />
<polygon points="250.0,140.625 281.25,156.25 281.25,171.875 250.0,187.5" id="poly_13" class="plain" />
<polygon points="281.25,156.25 296.875,156.25 296.875,171.875 281.25,171.875" id="poly_14" class="plain" />
<polygon points="296.875,156.25 304.6875,156.25 304.6875,171.875 296.875,171.875" id="poly_15" class="platform" />
<polygon points="304.6875,156.25 320.3125,156.25 320.3125,171.875 304.6875,171.875" id="poly_16" class="plain" />
<polygon points="250.0,140.625 250.0,125.0 281.25,140.625 281.25,156.25" id="poly_17" class="plain" />
<polygon points="250.0,109.375 281.25,93.75 281.25,140.625 250.0,125.0" id="poly_18" class="plain" />
<polygon points="234.375,109.375 250.0,109.375 250.0,125.0 234.375,125.0" id="poly_19" class="plain" />
<polygon points="218.75,46.875 234.375,46.875 234.375,62.5 218.75,62.5" id="poly_24" class="plain" />
<polygon points="226.5625,109.375 234.375,109.375 234.375,125.0 226.5625,125.0" id="poly_25" class="platform" />
<polygon points="250.0,93.75 281.25,93.75 250.0,109.375" id="poly_26" class="plain" />
<polygon points="218.75,109.375 226.5625,109.375 226.5625,125.0 218.75,125.0" id="poly_27" class="plain" />
<polygon points="101.5625,156.25 109.375,156.25 109.375,171.875 101.5625,171.875" id="poly_50" class="platform" />
<polygon points="85.9375,156.25 101.5625,156.25 101.5625,171.875 85.9375,171.875" id="poly_51" class="plain" />
<polygon points="203.125,164.0625 218.75,164.0625 218.75,171.875 203.125,171.875" id="poly_52" class="platform" />
<polygon points="203.125,148.4375 218.75,148.4375 218.75,164.0625 203.125,164.0625" id="poly_53" class="plain" />
<polygon points="125.0,140.625 156.25,140.625 125.0,156.25" id="poly_4" class="plain" />
<polygon points="125.0,156.25 156.25,140.625 156.25,187.5 125.0,171.875" id="poly_5" class="plain" />
<polygon points="125.0,171.875 156.25,187.5 156.25,218.75 125.0,218.75" id="poly_7" class="plain" />
<polygon points="234.375,62.5 281.25,62.5 281.25,93.75 250.0,93.75" id="poly_20" class="plain" />
<polygon points="218.75,62.5 234.375,62.5 250.0,93.75 203.125,93.75" id="poly_21" class="plain" />
<polygon points="203.125,62.5 218.75,62.5 203.125,93.75" id="poly_22" class="plain" />
<polygon points="203.125,109.375 218.75,109.375 218.75,125.0 203.125,125.0" id="poly_28" class="plain" />
<polygon points="125.0,125.0 156.25,125.0 156.25,140.625 125.0,140.625" id="poly_3" class="plain" />
<polygon points="187.5,62.5 203.125,62.5 203.125,93.75 187.5,93.75" id="poly_23" class="plain" />
<polygon points="203.125,101.5625 218.75,101.5625 218.75,109.375 203.125,109.375" id="poly_29" class="plain" />
<polygon points="320.3125,156.25 328.125,156.25 328.125,171.875 320.3125,171.875" id="poly_103" class="plain" />
<polygon points="78.125,156.25 85.9375,156.25 85.9375,171.875 78.125,171.875" id="poly_104" class="plain" />
<polygon points="125.0,62.5 187.5,62.5 187.5,93.75 187.5,125.0 156.25,125.0 125.0,125.0" id="poly_0" class="plain" />
<polygon points="203.125,93.75 218.75,93.75 218.75,101.5625 203.125,101.5625" id="poly_30" class="plain" />
<polygon points="-31.25,140.625 -15.625,140.625 -15.625,156.25 -31.25,156.25" id="poly_68" class="plain" />
<polygon points="0.0,156.25 0.0,140.625 46.875,140.625 68.9697265625,162.7197265625 68.9697265625,187.5 0.0,187.5" id="poly_70" class="plain" />
<polygon points="46.875,140.625 49.62158203125,137.847900390625 71.71630859375,159.942626953125 68.9697265625,162.7197265625" id="poly_71" class="platform" />
<polygon points="49.62158203125,137.847900390625 49.560546875,125.0 85.9375,125.0 85.9375,144.83642578125 71.71630859375,159.942626953125" id="poly_72" class="plain" />
<polygon points="-31.25,156.25 -15.625,156.25 0.0,187.5 -46.69189453125,187.5" id="poly_67" class="plain" />
<polygon points="-15.625,156.25 0.0,156.25 0.0,187.5" id="poly_69" class="plain" />
<polygon points="-62.5,156.25 -31.25,156.25 -46.69189453125,187.5 -62.5,187.5" id="poly_75" class="plain" />
<polygon points="67.718505859375,8.819580078125 92.34619140625,-10.406494140625 120.330810546875,-24.322509765625 156.25,-31.25 187.5,15.625 187.5,62.5 125.0,62.5" id="poly_1" class="plain" />
<polygon points="156.25,-31.25 187.5,-31.25 187.5,-15.625 187.5,15.625" id="poly_2" class="plain" />
<polygon points="203.125,85.9375 218.75,85.9375 218.75,93.75 203.125,93.75" id="poly_31" class="plain" />
<polygon points="49.163818359375,33.966064453125 67.718505859375,8.819580078125 125.0,62.5 38.421630859375,63.323974609375" id="poly_73" class="plain" />
<polygon points="31.25,93.75 38.421630859375,63.323974609375 125.0,62.5 125.0,125.0 85.9375,125.0 49.560546875,125.0 31.25,125.0" id="poly_74" class="plain" />
<polygon points="-78.125,156.25 -62.5,156.25 -62.5,187.5 -77.606201171875,187.5" id="poly_76" class="plain" />
<polygon points="203.125,78.125 218.75,78.125 218.75,85.9375 203.125,85.9375" id="poly_32" class="plain" />
<polygon points="-93.75,156.25 -78.125,156.25 -77.606201171875,187.5 -93.75,187.5" id="poly_77" class="plain" />
<polygon points="203.125,70.3125 218.75,70.3125 218.75,78.125 203.125,78.125" id="poly_33" class="plain" />
<polygon points="0.0,-46.875 31.25,-31.25 17.39501953125,-13.97705078125 -24.383544921875,-13.641357421875" id="poly_60" class="plain" />
<polygon points="-35.614013671875,0.06103515625 -24.383544921875,-13.641357421875 17.39501953125,-13.97705078125 -25.81787109375,40.10009765625" id="poly_61" class="plain" />
<polygon points="-125.0,109.375 -93.75,125.0 -109.375,140.625 -140.625,140.625 -156.25,125.0" id="poly_62" class="plain" />
<polygon points="-109.375,140.625 -93.75,125.0 -93.75,156.25 -93.75,187.5 -109.375,171.875" id="poly_63" class="plain" />
<polygon points="-156.25,125.0 -140.625,140.625 -140.625,171.875 -156.25,187.5" id="poly_64" class="plain" />
<polygon points="-140.625,171.875 -109.375,171.875 -93.75,187.5 -125.0,203.125 -156.25,187.5" id="poly_65" class="plain" />
<polygon points="-75.439453125,48.736572265625 -35.614013671875,0.06103515625 -25.81787109375,40.10009765625 -65.338134765625,89.447021484375 -68.7255859375,75.8056640625" id="poly_99" class="plain" />
<polygon points="-75.439453125,48.736572265625 -68.7255859375,75.8056640625 -89.935302734375,104.583740234375 -118.95751953125,101.9287109375" id="poly_100" class="plain" />
<polygon points="-68.7255859375,75.8056640625 -65.338134765625,89.447021484375 -78.277587890625,105.65185546875 -89.935302734375,104.583740234375" id="poly_101" class="plain" />
<polygon points="-125.0,109.375 -118.95751953125,101.9287109375 -89.935302734375,104.583740234375 -78.277587890625,105.65185546875 -93.75,125.0" id="poly_102" class="plain" />
<polygon points="203.125,62.5 218.75,62.5 218.75,70.3125 203.125,70.3125" id="poly_34" class="plain" />
<polygon points="-140.625,140.625 -109.375,140.625 -109.375,171.875 -140.625,171.875" id="poly_66" class="plain" />
<polygon points="0.0,-109.375 31.25,-109.375 31.25,-78.125 0.0,-46.875" id="poly_82" class="plain" />
<polygon points="31.25,-78.125 46.875,-78.125 62.5,-78.125 78.125,-78.125 31.25,-31.25 0.0,-46.875" id="poly_83" class="plain" />
<polygon points="-35.70556640625,-21.97265625 -24.383544921875,-13.641357421875 -35.614013671875,0.06103515625 -40.283203125,-4.57763671875" id="poly_84" class="plain" />
<polygon points="203.125,54.6875 218.75,54.6875 218.75,62.5 203.125,62.5" id="poly_35" class="plain" />
<polygon points="31.25,-109.375 46.875,-109.375 46.875,-78.125 31.25,-78.125" id="poly_81" class="plain" />
<polygon points="0.0,93.75 31.25,93.75 31.25,125.0 0.0,125.0" id="poly_49" class="platform" />
<polygon points="-50.35400390625,-22.88818359375 -35.70556640625,-21.97265625 -40.283203125,-4.57763671875 -45.7763671875,-5.4931640625" id="poly_85" class="plain" />
<polygon points="203.125,46.875 218.75,46.875 218.75,54.6875 203.125,54.6875" id="poly_36" class="plain" />
<polygon points="46.875,-109.375 62.5,-109.375 62.5,-78.125 46.875,-78.125" id="poly_80" class="plain" />
<polygon points="-62.255859375,-15.56396484375 -50.35400390625,-22.88818359375 -45.7763671875,-5.4931640625 -52.18505859375,-2.74658203125" id="poly_86" class="plain" />
<polygon points="203.125,39.0625 218.75,39.0625 218.75,46.875 203.125,46.875" id="poly_37" class="plain" />
<polygon points="62.5,-109.375 78.125,-109.375 78.125,-78.125 62.5,-78.125" id="poly_79" class="plain" />
<polygon points="-65.338134765625,89.447021484375 -54.01611328125,98.876953125 -66.83349609375,114.44091796875 -78.277587890625,105.65185546875" id="poly_97" class="plain" />
<polygon points="-54.01611328125,98.876953125 -41.19873046875,109.86328125 -54.01611328125,125.42724609375 -66.83349609375,114.44091796875" id="poly_98" class="plain" />
<polygon points="93.75,-78.125 109.375,-78.125 109.375,-62.5 93.75,-62.5" id="poly_59" class="plain" />
<polygon points="203.125,31.25 218.75,31.25 218.75,39.0625 203.125,39.0625" id="poly_40" class="plain" />
<polygon points="125.0,-109.375 140.625,-109.375 140.625,-78.125 109.375,-78.125" id="poly_57" class="plain" />
<polygon points="78.125,-109.375 125.0,-109.375 109.375,-78.125 93.75,-78.125" id="poly_58" class="plain" />
<polygon points="78.125,-109.375 93.75,-78.125 78.125,-78.125" id="poly_78" class="plain" />
<polygon points="-62.255859375,-15.56396484375 -52.18505859375,-2.74658203125 -53.7109375,5.4931640625 -70.49560546875,-2.74658203125" id="poly_87" class="plain" />
<polygon points="156.25,-62.5 187.5,-62.5 187.5,-31.25 156.25,-31.25" id="poly_42" class="plain" />
<polygon points="110.9619140625,-57.12890625 156.25,-62.5 156.25,-31.25 120.330810546875,-24.322509765625" id="poly_43" class="plain" />
<polygon points="73.6083984375,-39.55078125 110.9619140625,-57.12890625 120.330810546875,-24.322509765625 92.34619140625,-10.406494140625" id="poly_44" class="plain" />
<polygon points="42.29736328125,-14.739990234375 73.6083984375,-39.55078125 92.34619140625,-10.406494140625 67.718505859375,8.819580078125" id="poly_45" class="plain" />
<polygon points="42.29736328125,-14.739990234375 67.718505859375,8.819580078125 49.163818359375,33.966064453125 16.66259765625,19.866943359375" id="poly_46" class="plain" />
<polygon points="16.66259765625,19.866943359375 49.163818359375,33.966064453125 38.421630859375,63.323974609375 4.486083984375,58.319091796875" id="poly_47" class="plain" />
<polygon points="4.486083984375,58.319091796875 38.421630859375,63.323974609375 31.25,93.75 0.0,93.75" id="poly_48" class="plain" />
<polygon points="156.25,-74.21875 187.5,-74.21875 187.5,-62.5 156.25,-62.5" id="poly_54" class="plain" />
<polygon points="156.25,-78.125 187.5,-78.125 187.5,-74.21875 156.25,-74.21875" id="poly_55" class="platform" />
<polygon points="140.625,-109.375 140.625,-125.0 187.5,-125.0 187.5,-78.125 156.25,-78.125 140.625,-78.125" id="poly_56" class="plain" />
<polygon points="203.125,23.4375 218.75,23.4375 218.75,31.25 203.125,31.25" id="poly_39" class="plain" />
<polygon points="-70.49560546875,-2.74658203125 -53.7109375,5.4931640625 -54.3212890625,9.765625 -72.32666015625,10.986328125" id="poly_88" class="plain" />
<polygon points="203.125,15.625 218.75,15.625 218.75,23.4375 203.125,23.4375" id="poly_38" class="plain" />
<polygon points="-72.32666015625,10.986328125 -54.3212890625,9.765625 -53.1005859375,15.2587890625 -69.580078125,25.634765625" id="poly_89" class="plain" />
<polygon points="187.5,-15.625 203.125,-15.625 218.75,0.0 218.75,15.625 203.125,15.625 187.5,15.625" id="poly_41" class="plain" />
<polygon points="-53.1005859375,15.2587890625 -48.2177734375,28.076171875 -61.34033203125,38.4521484375 -69.580078125,25.634765625" id="poly_90" class="plain" />
<polygon points="-48.2177734375,28.076171875 -39.6728515625,38.4521484375 -53.7109375,49.4384765625 -61.34033203125,38.4521484375" id="poly_91" class="plain" />
<polygon points="-53.7109375,49.4384765625 -39.6728515625,38.4521484375 -32.3486328125,50.048828125 -48.2177734375,59.814453125" id="poly_92" class="plain" />
<polygon points="-48.2177734375,59.814453125 -32.3486328125,50.048828125 -27.4658203125,64.697265625 -45.10498046875,70.159912109375" id="poly_93" class="plain" />
<polygon points="-45.10498046875,70.159912109375 -27.4658203125,64.697265625 -26.2451171875,81.1767578125 -43.3349609375,77.5146484375" id="poly_94" class="plain" />
<polygon points="-43.3349609375,77.5146484375 -26.2451171875,81.1767578125 -32.3486328125,98.2666015625 -46.38671875,88.5009765625" id="poly_95" class="plain" />
<polygon points="-54.01611328125,98.876953125 -46.38671875,88.5009765625 -32.3486328125,98.2666015625 -41.19873046875,109.86328125" id="poly_96" class="plain" />
<!-- end group: "polygons" -->
</g>
<g id="borders">
<g id="border_plain">
<line x1="156.25" y1="-62.5" x2="187.5" y2="-62.5" id="line_13" class="plain" />
<line x1="156.25" y1="-31.25" x2="156.25" y2="-62.5" id="line_18" class="plain" />
<line x1="120.330810546875" y1="-24.322509765625" x2="110.9619140625" y2="-57.12890625" id="line_19" class="plain" />
<line x1="92.34619140625" y1="-10.406494140625" x2="73.6083984375" y2="-39.55078125" id="line_20" class="plain" />
<line x1="67.718505859375" y1="8.819580078125" x2="42.29736328125" y2="-14.739990234375" id="line_21" class="plain" />
<line x1="49.163818359375" y1="33.966064453125" x2="16.66259765625" y2="19.866943359375" id="line_22" class="plain" />
<line x1="38.421630859375" y1="63.323974609375" x2="4.486083984375" y2="58.319091796875" id="line_23" class="plain" />
<line x1="203.125" y1="93.75" x2="218.75" y2="62.5" id="line_33" class="plain" />
<line x1="250.0" y1="93.75" x2="234.375" y2="62.5" id="line_34" class="plain" />
<line x1="156.25" y1="140.625" x2="125.0" y2="156.25" id="line_39" class="plain" />
<line x1="156.25" y1="187.5" x2="125.0" y2="171.875" id="line_40" class="plain" />
<line x1="281.25" y1="156.25" x2="281.25" y2="171.875" id="line_52" class="plain" />
<line x1="250.0" y1="140.625" x2="281.25" y2="156.25" id="line_53" class="plain" />
<line x1="250.0" y1="187.5" x2="281.25" y2="171.875" id="line_55" class="plain" />
<line x1="203.125" y1="187.5" x2="187.5" y2="218.75" id="line_63" class="plain" />
<line x1="203.125" y1="187.5" x2="218.75" y2="187.5" id="line_64" class="plain" />
<line x1="218.75" y1="187.5" x2="234.375" y2="218.75" id="line_65" class="plain" />
<line x1="250.0" y1="187.5" x2="250.0" y2="218.75" id="line_73" class="plain" />
<line x1="125.0" y1="62.5" x2="67.718505859375" y2="8.819580078125" id="line_82" class="plain" />
<line x1="250.0" y1="125.0" x2="250.0" y2="109.375" id="line_83" class="plain" />
<line x1="250.0" y1="109.375" x2="281.25" y2="93.75" id="line_84" class="plain" />
<line x1="250.0" y1="125.0" x2="281.25" y2="140.625" id="line_87" class="plain" />
<line x1="156.25" y1="-31.25" x2="187.5" y2="15.625" id="line_104" class="plain" />
<line x1="-125.0" y1="109.375" x2="-93.75" y2="125.0" id="line_166" class="plain" />
<line x1="-54.01611328125" y1="98.876953125" x2="-66.83349609375" y2="114.44091796875" id="line_169" class="plain" />
<line x1="-15.625" y1="156.25" x2="0.0" y2="187.5" id="line_248" class="plain" />
<line x1="-46.69189453125" y1="187.5" x2="-31.25" y2="156.25" id="line_250" class="plain" />
<line x1="-65.338134765625" y1="89.447021484375" x2="-68.7255859375" y2="75.8056640625" id="line_253" class="plain" />
<line x1="-89.935302734375" y1="104.583740234375" x2="-118.95751953125" y2="101.9287109375" id="line_255" class="plain" />
<line x1="17.39501953125" y1="-13.97705078125" x2="-24.383544921875" y2="-13.641357421875" id="line_257" class="plain" />
<line x1="-25.81787109375" y1="40.10009765625" x2="-35.614013671875" y2="0.06103515625" id="line_259" class="plain" />
<line x1="109.375" y1="-78.125" x2="125.0" y2="-109.375" id="line_274" class="plain" />
<line x1="93.75" y1="-78.125" x2="78.125" y2="-109.375" id="line_276" class="plain" />
<line x1="-140.625" y1="140.625" x2="-156.25" y2="125.0" id="line_279" class="plain" />
<line x1="-93.75" y1="125.0" x2="-109.375" y2="140.625" id="line_280" class="plain" />
<line x1="-140.625" y1="171.875" x2="-156.25" y2="187.5" id="line_281" class="plain" />
<line x1="-93.75" y1="187.5" x2="-109.375" y2="171.875" id="line_282" class="plain" />
<line x1="125.0" y1="62.5" x2="38.421630859375" y2="63.323974609375" id="line_283" class="plain" />
<line x1="31.25" y1="-78.125" x2="0.0" y2="-46.875" id="line_302" class="plain" />
<line x1="-78.277587890625" y1="105.65185546875" x2="-89.935302734375" y2="104.583740234375" id="line_303" class="plain" />
<line x1="-68.7255859375" y1="75.8056640625" x2="-75.439453125" y2="48.736572265625" id="line_304" class="plain" />
<line x1="-68.7255859375" y1="75.8056640625" x2="-89.935302734375" y2="104.583740234375" id="line_305" class="plain" />
<!-- end group: "border_plain" -->
</g>
<g id="border_ceiling">
<line x1="125.0" y1="171.875" x2="125.0" y2="156.25" id="line_68" class="ceiling" />
<line x1="218.75" y1="62.5" x2="234.375" y2="62.5" id="line_69" class="ceiling" />
<line x1="156.25" y1="187.5" x2="156.25" y2="218.75" id="line_71" class="ceiling" />
<line x1="281.25" y1="93.75" x2="250.0" y2="93.75" id="line_75" class="ceiling" />
<line x1="218.75" y1="125.0" x2="218.75" y2="109.375" id="line_134" class="ceiling" />
<line x1="0.0" y1="-46.875" x2="31.25" y2="-31.25" id="line_164" class="ceiling" />
<line x1="49.560546875" y1="125.0" x2="85.9375" y2="125.0" id="line_227" class="ceiling" />
<line x1="-31.25" y1="156.25" x2="-15.625" y2="156.25" id="line_243" class="ceiling" />
<line x1="0.0" y1="156.25" x2="0.0" y2="187.5" id="line_251" class="ceiling" />
<line x1="-140.625" y1="171.875" x2="-109.375" y2="171.875" id="line_264" class="ceiling" />
<line x1="-140.625" y1="140.625" x2="-140.625" y2="171.875" id="line_265" class="ceiling" />
<line x1="-109.375" y1="140.625" x2="-140.625" y2="140.625" id="line_266" class="ceiling" />
<line x1="-109.375" y1="171.875" x2="-109.375" y2="140.625" id="line_267" class="ceiling" />
<line x1="109.375" y1="-78.125" x2="93.75" y2="-78.125" id="line_278" class="ceiling" />
<!-- end group: "border_ceiling" -->
</g>
<g id="border_elevation">
<line x1="38.421630859375" y1="63.323974609375" x2="31.25" y2="93.75" id="line_1" class="elevation" />
<line x1="49.163818359375" y1="33.966064453125" x2="38.421630859375" y2="63.323974609375" id="line_2" class="elevation" />
<line x1="67.718505859375" y1="8.819580078125" x2="49.163818359375" y2="33.966064453125" id="line_3" class="elevation" />
<line x1="67.718505859375" y1="8.819580078125" x2="92.34619140625" y2="-10.406494140625" id="line_4" class="elevation" />
<line x1="92.34619140625" y1="-10.406494140625" x2="120.330810546875" y2="-24.322509765625" id="line_5" class="elevation" />
<line x1="120.330810546875" y1="-24.322509765625" x2="156.25" y2="-31.25" id="line_6" class="elevation" />
<line x1="156.25" y1="-31.25" x2="187.5" y2="-31.25" id="line_7" class="elevation" />
<line x1="156.25" y1="125.0" x2="125.0" y2="125.0" id="line_42" class="elevation" />
<line x1="187.5" y1="62.5" x2="187.5" y2="93.75" id="line_44" class="elevation" />
<line x1="203.125" y1="93.75" x2="203.125" y2="62.5" id="line_77" class="elevation" />
<line x1="156.25" y1="140.625" x2="125.0" y2="140.625" id="line_79" class="elevation" />
<line x1="125.0" y1="125.0" x2="125.0" y2="62.5" id="line_80" class="elevation" />
<line x1="125.0" y1="62.5" x2="187.5" y2="62.5" id="line_81" class="elevation" />
<line x1="320.3125" y1="156.25" x2="320.3125" y2="171.875" id="line_94" class="elevation" />
<line x1="187.5" y1="-15.625" x2="187.5" y2="15.625" id="line_99" class="elevation" />
<line x1="203.125" y1="46.875" x2="218.75" y2="46.875" id="line_106" class="elevation" />
<line x1="203.125" y1="54.6875" x2="218.75" y2="54.6875" id="line_114" class="elevation" />
<line x1="203.125" y1="62.5" x2="218.75" y2="62.5" id="line_116" class="elevation" />
<line x1="203.125" y1="70.3125" x2="218.75" y2="70.3125" id="line_118" class="elevation" />
<line x1="203.125" y1="78.125" x2="218.75" y2="78.125" id="line_120" class="elevation" />
<line x1="203.125" y1="85.9375" x2="218.75" y2="85.9375" id="line_122" class="elevation" />
<line x1="203.125" y1="93.75" x2="218.75" y2="93.75" id="line_124" class="elevation" />
<line x1="203.125" y1="101.5625" x2="218.75" y2="101.5625" id="line_130" class="elevation" />
<line x1="203.125" y1="109.375" x2="218.75" y2="109.375" id="line_132" class="elevation" />
<line x1="203.125" y1="39.0625" x2="218.75" y2="39.0625" id="line_140" class="elevation" />
<line x1="203.125" y1="15.625" x2="218.75" y2="15.625" id="line_142" class="elevation" />
<line x1="218.75" y1="31.25" x2="203.125" y2="31.25" id="line_144" class="elevation" />
<line x1="218.75" y1="23.4375" x2="203.125" y2="23.4375" id="line_148" class="elevation" />
<line x1="85.9375" y1="171.875" x2="85.9375" y2="156.25" id="line_155" class="elevation" />
<line x1="-78.277587890625" y1="105.65185546875" x2="-65.338134765625" y2="89.447021484375" id="line_167" class="elevation" />
<line x1="-41.19873046875" y1="109.86328125" x2="-54.01611328125" y2="98.876953125" id="line_173" class="elevation" />
<line x1="-35.614013671875" y1="0.06103515625" x2="-24.383544921875" y2="-13.641357421875" id="line_186" class="elevation" />
<line x1="-40.283203125" y1="-4.57763671875" x2="-35.70556640625" y2="-21.97265625" id="line_201" class="elevation" />
<line x1="-45.7763671875" y1="-5.4931640625" x2="-50.35400390625" y2="-22.88818359375" id="line_202" class="elevation" />
<line x1="-52.18505859375" y1="-2.74658203125" x2="-62.255859375" y2="-15.56396484375" id="line_203" class="elevation" />
<line x1="-53.7109375" y1="5.4931640625" x2="-70.49560546875" y2="-2.74658203125" id="line_204" class="elevation" />
<line x1="-53.1005859375" y1="15.2587890625" x2="-69.580078125" y2="25.634765625" id="line_205" class="elevation" />
<line x1="-48.2177734375" y1="28.076171875" x2="-61.34033203125" y2="38.4521484375" id="line_206" class="elevation" />
<line x1="-39.6728515625" y1="38.4521484375" x2="-53.7109375" y2="49.4384765625" id="line_207" class="elevation" />
<line x1="-32.3486328125" y1="98.2666015625" x2="-46.38671875" y2="88.5009765625" id="line_208" class="elevation" />
<line x1="-26.2451171875" y1="81.1767578125" x2="-43.3349609375" y2="77.5146484375" id="line_209" class="elevation" />
<line x1="-54.3212890625" y1="9.765625" x2="-72.32666015625" y2="10.986328125" id="line_211" class="elevation" />
<line x1="-32.3486328125" y1="50.048828125" x2="-48.2177734375" y2="59.814453125" id="line_212" class="elevation" />
<line x1="-27.4658203125" y1="64.697265625" x2="-45.10498046875" y2="70.159912109375" id="line_214" class="elevation" />
<line x1="140.625" y1="-78.125" x2="140.625" y2="-109.375" id="line_216" class="elevation" />
<line x1="-93.75" y1="156.25" x2="-93.75" y2="187.5" id="line_263" class="elevation" />
<line x1="-77.606201171875" y1="187.5" x2="-78.125" y2="156.25" id="line_286" class="elevation" />
<line x1="-62.5" y1="187.5" x2="-62.5" y2="156.25" id="line_289" class="elevation" />
<line x1="78.125" y1="-78.125" x2="78.125" y2="-109.375" id="line_292" class="elevation" />
<line x1="78.125" y1="-78.125" x2="62.5" y2="-78.125" id="line_293" class="elevation" />
<line x1="62.5" y1="-78.125" x2="46.875" y2="-78.125" id="line_294" class="elevation" />
<line x1="46.875" y1="-78.125" x2="31.25" y2="-78.125" id="line_295" class="elevation" />
<line x1="62.5" y1="-78.125" x2="62.5" y2="-109.375" id="line_297" class="elevation" />
<line x1="46.875" y1="-78.125" x2="46.875" y2="-109.375" id="line_299" class="elevation" />
<line x1="31.25" y1="-78.125" x2="31.25" y2="-109.375" id="line_301" class="elevation" />
<!-- end group: "border_elevation" -->
</g>
<g id="border_solid">
<line x1="31.25" y1="93.75" x2="31.25" y2="125.0" id="line_0" class="solid" />
<line x1="31.25" y1="125.0" x2="0.0" y2="125.0" id="line_8" class="solid" />
<line x1="0.0" y1="125.0" x2="0.0" y2="93.75" id="line_9" class="solid" />
<line x1="31.25" y1="93.75" x2="0.0" y2="93.75" id="line_10" class="solid" />
<line x1="0.0" y1="93.75" x2="4.486083984375" y2="58.319091796875" id="line_11" class="solid" />
<line x1="187.5" y1="-62.5" x2="187.5" y2="-31.25" id="line_12" class="solid" />
<line x1="4.486083984375" y1="58.319091796875" x2="16.66259765625" y2="19.866943359375" id="line_14" class="solid" />
<line x1="16.66259765625" y1="19.866943359375" x2="42.29736328125" y2="-14.739990234375" id="line_15" class="solid" />
<line x1="42.29736328125" y1="-14.739990234375" x2="73.6083984375" y2="-39.55078125" id="line_16" class="solid" />
<line x1="73.6083984375" y1="-39.55078125" x2="110.9619140625" y2="-57.12890625" id="line_17" class="solid" />
<line x1="203.125" y1="93.75" x2="187.5" y2="93.75" id="line_24" class="solid" />
<line x1="187.5" y1="93.75" x2="187.5" y2="125.0" id="line_25" class="solid" />
<line x1="187.5" y1="125.0" x2="156.25" y2="125.0" id="line_26" class="solid" />
<line x1="156.25" y1="125.0" x2="156.25" y2="140.625" id="line_27" class="solid" />
<line x1="125.0" y1="156.25" x2="125.0" y2="140.625" id="line_28" class="solid" />
<line x1="187.5" y1="62.5" x2="203.125" y2="62.5" id="line_29" class="solid" />
<line x1="218.75" y1="62.5" x2="218.75" y2="46.875" id="line_30" class="solid" />
<line x1="218.75" y1="46.875" x2="234.375" y2="46.875" id="line_31" class="solid" />
<line x1="234.375" y1="46.875" x2="234.375" y2="62.5" id="line_32" class="solid" />
<line x1="250.0" y1="93.75" x2="203.125" y2="93.75" id="line_35" class="solid" />
<line x1="109.375" y1="156.25" x2="125.0" y2="156.25" id="line_36" class="solid" />
<line x1="109.375" y1="171.875" x2="109.375" y2="156.25" id="line_37" class="solid" />
<line x1="125.0" y1="171.875" x2="109.375" y2="171.875" id="line_38" class="solid" />
<line x1="156.25" y1="140.625" x2="156.25" y2="187.5" id="line_41" class="solid" />
<line x1="125.0" y1="125.0" x2="85.9375" y2="125.0" id="line_43" class="solid" />
<line x1="125.0" y1="218.75" x2="125.0" y2="171.875" id="line_45" class="solid" />
<line x1="156.25" y1="218.75" x2="125.0" y2="218.75" id="line_46" class="solid" />
<line x1="156.25" y1="187.5" x2="203.125" y2="187.5" id="line_47" class="solid" />
<line x1="234.375" y1="62.5" x2="281.25" y2="62.5" id="line_48" class="solid" />
<line x1="281.25" y1="62.5" x2="281.25" y2="93.75" id="line_49" class="solid" />
<line x1="250.0" y1="109.375" x2="250.0" y2="93.75" id="line_50" class="solid" />
<line x1="250.0" y1="187.5" x2="250.0" y2="140.625" id="line_51" class="solid" />
<line x1="281.25" y1="171.875" x2="281.25" y2="218.75" id="line_54" class="solid" />
<line x1="281.25" y1="156.25" x2="296.875" y2="156.25" id="line_56" class="solid" />
<line x1="296.875" y1="156.25" x2="296.875" y2="171.875" id="line_57" class="solid" />
<line x1="296.875" y1="171.875" x2="281.25" y2="171.875" id="line_58" class="solid" />
<line x1="203.125" y1="187.5" x2="203.125" y2="171.875" id="line_59" class="solid" />
<line x1="203.125" y1="171.875" x2="218.75" y2="171.875" id="line_60" class="solid" />
<line x1="218.75" y1="171.875" x2="218.75" y2="187.5" id="line_61" class="solid" />
<line x1="234.375" y1="218.75" x2="187.5" y2="218.75" id="line_62" class="solid" />
<line x1="218.75" y1="187.5" x2="250.0" y2="187.5" id="line_66" class="solid" />
<line x1="250.0" y1="218.75" x2="234.375" y2="218.75" id="line_67" class="solid" />
<line x1="187.5" y1="218.75" x2="156.25" y2="218.75" id="line_70" class="solid" />
<line x1="281.25" y1="218.75" x2="250.0" y2="218.75" id="line_72" class="solid" />
<line x1="281.25" y1="93.75" x2="281.25" y2="140.625" id="line_74" class="solid" />
<line x1="203.125" y1="62.5" x2="218.75" y2="62.5" id="line_76" class="solid" />
<line x1="125.0" y1="140.625" x2="125.0" y2="125.0" id="line_78" class="solid" />
<line x1="250.0" y1="140.625" x2="250.0" y2="125.0" id="line_85" class="solid" />
<line x1="281.25" y1="140.625" x2="281.25" y2="156.25" id="line_86" class="solid" />
<line x1="234.375" y1="109.375" x2="250.0" y2="109.375" id="line_88" class="solid" />
<line x1="234.375" y1="125.0" x2="234.375" y2="109.375" id="line_89" class="solid" />
<line x1="250.0" y1="125.0" x2="234.375" y2="125.0" id="line_90" class="solid" />
<line x1="110.9619140625" y1="-57.12890625" x2="156.25" y2="-62.5" id="line_91" class="solid" />
<line x1="187.5" y1="-31.25" x2="187.5" y2="-15.625" id="line_92" class="solid" />
<line x1="296.875" y1="156.25" x2="304.6875" y2="156.25" id="line_93" class="solid" />
<line x1="304.6875" y1="171.875" x2="296.875" y2="171.875" id="line_95" class="solid" />
<line x1="304.6875" y1="156.25" x2="320.3125" y2="156.25" id="line_96" class="solid" />
<line x1="320.3125" y1="171.875" x2="304.6875" y2="171.875" id="line_97" class="solid" />
<line x1="304.6875" y1="156.25" x2="304.6875" y2="171.875" id="line_98" class="solid" />
<line x1="187.5" y1="15.625" x2="187.5" y2="62.5" id="line_100" class="solid" />
<line x1="226.5625" y1="109.375" x2="234.375" y2="109.375" id="line_101" class="solid" />
<line x1="226.5625" y1="125.0" x2="226.5625" y2="109.375" id="line_102" class="solid" />
<line x1="234.375" y1="125.0" x2="226.5625" y2="125.0" id="line_103" class="solid" />
<line x1="203.125" y1="54.6875" x2="203.125" y2="46.875" id="line_105" class="solid" />
<line x1="218.75" y1="46.875" x2="218.75" y2="54.6875" id="line_107" class="solid" />
<line x1="218.75" y1="54.6875" x2="218.75" y2="62.5" id="line_108" class="solid" />
<line x1="218.75" y1="62.5" x2="218.75" y2="70.3125" id="line_109" class="solid" />
<line x1="218.75" y1="70.3125" x2="218.75" y2="78.125" id="line_110" class="solid" />
<line x1="218.75" y1="78.125" x2="218.75" y2="85.9375" id="line_111" class="solid" />
<line x1="218.75" y1="85.9375" x2="218.75" y2="93.75" id="line_112" class="solid" />
<line x1="203.125" y1="62.5" x2="203.125" y2="54.6875" id="line_113" class="solid" />
<line x1="203.125" y1="70.3125" x2="203.125" y2="62.5" id="line_115" class="solid" />
<line x1="203.125" y1="78.125" x2="203.125" y2="70.3125" id="line_117" class="solid" />
<line x1="203.125" y1="85.9375" x2="203.125" y2="78.125" id="line_119" class="solid" />
<line x1="203.125" y1="93.75" x2="203.125" y2="85.9375" id="line_121" class="solid" />
<line x1="203.125" y1="101.5625" x2="203.125" y2="93.75" id="line_123" class="solid" />
<line x1="218.75" y1="125.0" x2="203.125" y2="125.0" id="line_125" class="solid" />
<line x1="218.75" y1="109.375" x2="226.5625" y2="109.375" id="line_126" class="solid" />
<line x1="218.75" y1="101.5625" x2="218.75" y2="109.375" id="line_127" class="solid" />
<line x1="218.75" y1="93.75" x2="218.75" y2="101.5625" id="line_128" class="solid" />
<line x1="203.125" y1="109.375" x2="203.125" y2="101.5625" id="line_129" class="solid" />
<line x1="203.125" y1="125.0" x2="203.125" y2="109.375" id="line_131" class="solid" />
<line x1="226.5625" y1="125.0" x2="218.75" y2="125.0" id="line_133" class="solid" />
<line x1="203.125" y1="-15.625" x2="218.75" y2="0.0" id="line_135" class="solid" />
<line x1="187.5" y1="-15.625" x2="203.125" y2="-15.625" id="line_136" class="solid" />
<line x1="203.125" y1="39.0625" x2="203.125" y2="31.25" id="line_137" class="solid" />
<line x1="218.75" y1="39.0625" x2="218.75" y2="46.875" id="line_138" class="solid" />
<line x1="203.125" y1="46.875" x2="203.125" y2="39.0625" id="line_139" class="solid" />
<line x1="218.75" y1="15.625" x2="218.75" y2="23.4375" id="line_141" class="solid" />
<line x1="203.125" y1="31.25" x2="203.125" y2="23.4375" id="line_143" class="solid" />
<line x1="218.75" y1="31.25" x2="218.75" y2="39.0625" id="line_145" class="solid" />
<line x1="218.75" y1="23.4375" x2="218.75" y2="31.25" id="line_146" class="solid" />
<line x1="203.125" y1="23.4375" x2="203.125" y2="15.625" id="line_147" class="solid" />
<line x1="203.125" y1="15.625" x2="187.5" y2="15.625" id="line_149" class="solid" />
<line x1="218.75" y1="0.0" x2="218.75" y2="15.625" id="line_150" class="solid" />
<line x1="101.5625" y1="156.25" x2="109.375" y2="156.25" id="line_151" class="solid" />
<line x1="101.5625" y1="171.875" x2="101.5625" y2="156.25" id="line_152" class="solid" />
<line x1="109.375" y1="171.875" x2="101.5625" y2="171.875" id="line_153" class="solid" />
<line x1="101.5625" y1="171.875" x2="85.9375" y2="171.875" id="line_154" class="solid" />
<line x1="85.9375" y1="156.25" x2="101.5625" y2="156.25" id="line_156" class="solid" />
<line x1="203.125" y1="171.875" x2="203.125" y2="164.0625" id="line_157" class="solid" />
<line x1="203.125" y1="164.0625" x2="218.75" y2="164.0625" id="line_158" class="solid" />
<line x1="218.75" y1="164.0625" x2="218.75" y2="171.875" id="line_159" class="solid" />
<line x1="203.125" y1="164.0625" x2="203.125" y2="148.4375" id="line_160" class="solid" />
<line x1="203.125" y1="148.4375" x2="218.75" y2="148.4375" id="line_161" class="solid" />
<line x1="218.75" y1="148.4375" x2="218.75" y2="164.0625" id="line_162" class="solid" />
<line x1="-78.277587890625" y1="105.65185546875" x2="-93.75" y2="125.0" id="line_163" class="solid" />
<line x1="-24.383544921875" y1="-13.641357421875" x2="0.0" y2="-46.875" id="line_165" class="solid" />
<line x1="-66.83349609375" y1="114.44091796875" x2="-78.277587890625" y2="105.65185546875" id="line_168" class="solid" />
<line x1="-65.338134765625" y1="89.447021484375" x2="-54.01611328125" y2="98.876953125" id="line_170" class="solid" />
<line x1="-54.01611328125" y1="125.42724609375" x2="-66.83349609375" y2="114.44091796875" id="line_171" class="solid" />
<line x1="-41.19873046875" y1="109.86328125" x2="-54.01611328125" y2="125.42724609375" id="line_172" class="solid" />
<line x1="-54.01611328125" y1="98.876953125" x2="-46.38671875" y2="88.5009765625" id="line_174" class="solid" />
<line x1="-46.38671875" y1="88.5009765625" x2="-43.3349609375" y2="77.5146484375" id="line_175" class="solid" />
<line x1="-25.81787109375" y1="40.10009765625" x2="-65.338134765625" y2="89.447021484375" id="line_176" class="solid" />
<line x1="-43.3349609375" y1="77.5146484375" x2="-45.10498046875" y2="70.159912109375" id="line_177" class="solid" />
<line x1="-48.2177734375" y1="59.814453125" x2="-53.7109375" y2="49.4384765625" id="line_178" class="solid" />
<line x1="-53.7109375" y1="49.4384765625" x2="-61.34033203125" y2="38.4521484375" id="line_179" class="solid" />
<line x1="-61.34033203125" y1="38.4521484375" x2="-69.580078125" y2="25.634765625" id="line_180" class="solid" />
<line x1="-69.580078125" y1="25.634765625" x2="-72.32666015625" y2="10.986328125" id="line_181" class="solid" />
<line x1="-72.32666015625" y1="10.986328125" x2="-70.49560546875" y2="-2.74658203125" id="line_182" class="solid" />
<line x1="-70.49560546875" y1="-2.74658203125" x2="-62.255859375" y2="-15.56396484375" id="line_183" class="solid" />
<line x1="-62.255859375" y1="-15.56396484375" x2="-50.35400390625" y2="-22.88818359375" id="line_184" class="solid" />
<line x1="-50.35400390625" y1="-22.88818359375" x2="-35.70556640625" y2="-21.97265625" id="line_185" class="solid" />
<line x1="-35.70556640625" y1="-21.97265625" x2="-24.383544921875" y2="-13.641357421875" id="line_187" class="solid" />
<line x1="-75.439453125" y1="48.736572265625" x2="-35.614013671875" y2="0.06103515625" id="line_188" class="solid" />
<line x1="-35.614013671875" y1="0.06103515625" x2="-40.283203125" y2="-4.57763671875" id="line_189" class="solid" />
<line x1="-40.283203125" y1="-4.57763671875" x2="-45.7763671875" y2="-5.4931640625" id="line_190" class="solid" />
<line x1="-45.7763671875" y1="-5.4931640625" x2="-52.18505859375" y2="-2.74658203125" id="line_191" class="solid" />
<line x1="-52.18505859375" y1="-2.74658203125" x2="-53.7109375" y2="5.4931640625" id="line_192" class="solid" />
<line x1="-53.7109375" y1="5.4931640625" x2="-54.3212890625" y2="9.765625" id="line_193" class="solid" />
<line x1="-53.1005859375" y1="15.2587890625" x2="-48.2177734375" y2="28.076171875" id="line_194" class="solid" />
<line x1="-48.2177734375" y1="28.076171875" x2="-39.6728515625" y2="38.4521484375" id="line_195" class="solid" />
<line x1="-39.6728515625" y1="38.4521484375" x2="-32.3486328125" y2="50.048828125" id="line_196" class="solid" />
<line x1="-32.3486328125" y1="50.048828125" x2="-27.4658203125" y2="64.697265625" id="line_197" class="solid" />
<line x1="-27.4658203125" y1="64.697265625" x2="-26.2451171875" y2="81.1767578125" id="line_198" class="solid" />
<line x1="-26.2451171875" y1="81.1767578125" x2="-32.3486328125" y2="98.2666015625" id="line_199" class="solid" />
<line x1="-32.3486328125" y1="98.2666015625" x2="-41.19873046875" y2="109.86328125" id="line_200" class="solid" />
<line x1="-54.3212890625" y1="9.765625" x2="-53.1005859375" y2="15.2587890625" id="line_210" class="solid" />
<line x1="-45.10498046875" y1="70.159912109375" x2="-48.2177734375" y2="59.814453125" id="line_213" class="solid" />
<line x1="156.25" y1="-78.125" x2="140.625" y2="-78.125" id="line_215" class="solid" />
<line x1="140.625" y1="-125.0" x2="187.5" y2="-125.0" id="line_217" class="solid" />
<line x1="187.5" y1="-125.0" x2="187.5" y2="-78.125" id="line_218" class="solid" />
<line x1="0.0" y1="140.625" x2="46.875" y2="140.625" id="line_219" class="solid" />
<line x1="68.9697265625" y1="187.5" x2="0.0" y2="187.5" id="line_220" class="solid" />
<line x1="140.625" y1="-109.375" x2="140.625" y2="-125.0" id="line_221" class="solid" />
<line x1="0.0" y1="187.5" x2="-46.69189453125" y2="187.5" id="line_222" class="solid" />
<line x1="0.0" y1="156.25" x2="0.0" y2="140.625" id="line_223" class="solid" />
<line x1="-15.625" y1="156.25" x2="0.0" y2="156.25" id="line_224" class="solid" />
<line x1="-93.75" y1="125.0" x2="-93.75" y2="156.25" id="line_225" class="solid" />
<line x1="49.560546875" y1="125.0" x2="31.25" y2="125.0" id="line_226" class="solid" />
<line x1="46.875" y1="140.625" x2="68.9697265625" y2="162.7197265625" id="line_228" class="solid" />
<line x1="71.71630859375" y1="159.942626953125" x2="68.9697265625" y2="162.7197265625" id="line_229" class="solid" />
<line x1="46.875" y1="140.625" x2="49.62158203125" y2="137.847900390625" id="line_230" class="solid" />
<line x1="49.62158203125" y1="137.847900390625" x2="71.71630859375" y2="159.942626953125" id="line_231" class="solid" />
<line x1="68.9697265625" y1="162.7197265625" x2="68.9697265625" y2="187.5" id="line_232" class="solid" />
<line x1="49.62158203125" y1="137.847900390625" x2="49.560546875" y2="125.0" id="line_233" class="solid" />
<line x1="85.9375" y1="144.83642578125" x2="71.71630859375" y2="159.942626953125" id="line_234" class="solid" />
<line x1="85.9375" y1="125.0" x2="85.9375" y2="144.83642578125" id="line_235" class="solid" />
<line x1="140.625" y1="-78.125" x2="109.375" y2="-78.125" id="line_236" class="solid" />
<line x1="187.5" y1="-78.125" x2="187.5" y2="-74.21875" id="line_237" class="solid" />
<line x1="156.25" y1="-78.125" x2="187.5" y2="-78.125" id="line_238" class="solid" />
<line x1="156.25" y1="-62.5" x2="156.25" y2="-74.21875" id="line_239" class="solid" />
<line x1="156.25" y1="-74.21875" x2="156.25" y2="-78.125" id="line_240" class="solid" />
<line x1="187.5" y1="-74.21875" x2="187.5" y2="-62.5" id="line_241" class="solid" />
<line x1="156.25" y1="-74.21875" x2="187.5" y2="-74.21875" id="line_242" class="solid" />
<line x1="-15.625" y1="140.625" x2="-15.625" y2="156.25" id="line_244" class="solid" />
<line x1="-31.25" y1="140.625" x2="-15.625" y2="140.625" id="line_245" class="solid" />
<line x1="-93.75" y1="156.25" x2="-78.125" y2="156.25" id="line_246" class="solid" />
<line x1="-31.25" y1="156.25" x2="-31.25" y2="140.625" id="line_247" class="solid" />
<line x1="-46.69189453125" y1="187.5" x2="-62.5" y2="187.5" id="line_249" class="solid" />
<line x1="-118.95751953125" y1="101.9287109375" x2="-75.439453125" y2="48.736572265625" id="line_252" class="solid" />
<line x1="-125.0" y1="109.375" x2="-118.95751953125" y2="101.9287109375" id="line_254" class="solid" />
<line x1="31.25" y1="-31.25" x2="17.39501953125" y2="-13.97705078125" id="line_256" class="solid" />
<line x1="17.39501953125" y1="-13.97705078125" x2="-25.81787109375" y2="40.10009765625" id="line_258" class="solid" />
<line x1="-156.25" y1="125.0" x2="-125.0" y2="109.375" id="line_260" class="solid" />
<line x1="-156.25" y1="187.5" x2="-156.25" y2="125.0" id="line_261" class="solid" />
<line x1="-93.75" y1="187.5" x2="-125.0" y2="203.125" id="line_262" class="solid" />
<line x1="-125.0" y1="203.125" x2="-156.25" y2="187.5" id="line_268" class="solid" />
<line x1="125.0" y1="-109.375" x2="140.625" y2="-109.375" id="line_269" class="solid" />
<line x1="93.75" y1="-78.125" x2="78.125" y2="-78.125" id="line_270" class="solid" />
<line x1="93.75" y1="-62.5" x2="93.75" y2="-78.125" id="line_271" class="solid" />
<line x1="109.375" y1="-62.5" x2="93.75" y2="-62.5" id="line_272" class="solid" />
<line x1="109.375" y1="-78.125" x2="109.375" y2="-62.5" id="line_273" class="solid" />
<line x1="78.125" y1="-109.375" x2="125.0" y2="-109.375" id="line_275" class="solid" />
<line x1="0.0" y1="-46.875" x2="0.0" y2="-109.375" id="line_277" class="solid" />
<line x1="-78.125" y1="156.25" x2="-62.5" y2="156.25" id="line_284" class="solid" />
<line x1="-77.606201171875" y1="187.5" x2="-93.75" y2="187.5" id="line_285" class="solid" />
<line x1="-62.5" y1="187.5" x2="-77.606201171875" y2="187.5" id="line_287" class="solid" />
<line x1="-62.5" y1="156.25" x2="-31.25" y2="156.25" id="line_288" class="solid" />
<line x1="0.0" y1="-109.375" x2="31.25" y2="-109.375" id="line_290" class="solid" />
<line x1="78.125" y1="-78.125" x2="31.25" y2="-31.25" id="line_291" class="solid" />
<line x1="62.5" y1="-109.375" x2="78.125" y2="-109.375" id="line_296" class="solid" />
<line x1="46.875" y1="-109.375" x2="62.5" y2="-109.375" id="line_298" class="solid" />
<line x1="31.25" y1="-109.375" x2="46.875" y2="-109.375" id="line_300" class="solid" />
<line x1="320.3125" y1="156.25" x2="328.125" y2="156.25" id="line_306" class="solid" />
<line x1="328.125" y1="156.25" x2="328.125" y2="171.875" id="line_307" class="solid" />
<line x1="328.125" y1="171.875" x2="320.3125" y2="171.875" id="line_308" class="solid" />
<line x1="78.125" y1="156.25" x2="85.9375" y2="156.25" id="line_309" class="solid" />
<line x1="78.125" y1="171.875" x2="78.125" y2="156.25" id="line_310" class="solid" />
<line x1="85.9375" y1="171.875" x2="78.125" y2="171.875" id="line_311" class="solid" />
<!-- end group: "border_solid" -->
</g>
<!-- end group: "borders" -->
</g>
<g id="panel_light_switch_lines">
<g id="panel_light_switch_lines_s282">
<g id="panel_light_switch_line_group_poly_s282_p0">
<line x1="78.125" y1="164.0625" x2="161.43798828125" y2="98.93798828125" id="panel_light_switch_border_s282_p0" class="light_switch_border" />
<use xlink:href="../resources/svg/common.svg#arrow" x="161.43798828125" y="98.93798828125" id="panel_light_switch_head_s282_p0" class="light_switch_line" transform="rotate(-38.01420568227843 161.43798828125 98.93798828125)" />
<line x1="78.125" y1="164.0625" x2="161.43798828125" y2="98.93798828125" id="panel_light_switch_line_s282_p0" class="light_switch_line" />
<!-- end group: "panel_light_switch_line_group_poly_s282_p0" -->
</g>
<g id="panel_light_switch_line_group_poly_s282_p1">
<line x1="78.125" y1="164.0625" x2="133.7890625" y2="11.90185546875" id="panel_light_switch_border_s282_p1" class="light_switch_border" />
<use xlink:href="../resources/svg/common.svg#arrow" x="133.7890625" y="11.90185546875" id="panel_light_switch_head_s282_p1" class="light_switch_line" transform="rotate(-69.90625196357912 133.7890625 11.90185546875)" />
<line x1="78.125" y1="164.0625" x2="133.7890625" y2="11.90185546875" id="panel_light_switch_line_s282_p1" class="light_switch_line" />
<!-- end group: "panel_light_switch_line_group_poly_s282_p1" -->
</g>
<g id="panel_light_switch_line_group_poly_s282_p2">
<line x1="78.125" y1="164.0625" x2="179.6875" y2="-15.625" id="panel_light_switch_border_s282_p2" class="light_switch_border" />
<use xlink:href="../resources/svg/common.svg#arrow" x="179.6875" y="-15.625" id="panel_light_switch_head_s282_p2" class="light_switch_line" transform="rotate(-60.52411099675425 179.6875 -15.625)" />
<line x1="78.125" y1="164.0625" x2="179.6875" y2="-15.625" id="panel_light_switch_line_s282_p2" class="light_switch_line" />
<!-- end group: "panel_light_switch_line_group_poly_s282_p2" -->
</g>
<g id="panel_light_switch_line_group_poly_s282_p71">
<line x1="78.125" y1="164.0625" x2="59.295654296875" y2="150.2685546875" id="panel_light_switch_border_s282_p71" class="light_switch_border" />
<use xlink:href="../resources/svg/common.svg#arrow" x="59.295654296875" y="150.2685546875" id="panel_light_switch_head_s282_p71" class="light_switch_line" transform="rotate(-143.77435305641387 59.295654296875 150.2685546875)" />
<line x1="78.125" y1="164.0625" x2="59.295654296875" y2="150.2685546875" id="panel_light_switch_line_s282_p71" class="light_switch_line" />
<!-- end group: "panel_light_switch_line_group_poly_s282_p71" -->
</g>
<g id="panel_light_switch_line_group_poly_s282_p72">
<line x1="78.125" y1="164.0625" x2="68.54248046875" y2="138.519287109375" id="panel_light_switch_border_s282_p72" class="light_switch_border" />
<use xlink:href="../resources/svg/common.svg#arrow" x="68.54248046875" y="138.519287109375" id="panel_light_switch_head_s282_p72" class="light_switch_line" transform="rotate(-110.56354663084109 68.54248046875 138.519287109375)" />
<line x1="78.125" y1="164.0625" x2="68.54248046875" y2="138.519287109375" id="panel_light_switch_line_s282_p72" class="light_switch_line" />
<!-- end group: "panel_light_switch_line_group_poly_s282_p72" -->
</g>
<g id="panel_light_switch_line_group_poly_s282_p73">
<line x1="78.125" y1="164.0625" x2="70.068359375" y2="42.144775390625" id="panel_light_switch_border_s282_p73" class="light_switch_border" />
<use xlink:href="../resources/svg/common.svg#arrow" x="70.068359375" y="42.144775390625" id="panel_light_switch_head_s282_p73" class="light_switch_line" transform="rotate(-93.78075725039754 70.068359375 42.144775390625)" />
<line x1="78.125" y1="164.0625" x2="70.068359375" y2="42.144775390625" id="panel_light_switch_line_s282_p73" class="light_switch_line" />
<!-- end group: "panel_light_switch_line_group_poly_s282_p73" -->
</g>
<g id="panel_light_switch_line_group_poly_s282_p74">
<line x1="78.125" y1="164.0625" x2="69.488525390625" y2="102.783203125" id="panel_light_switch_border_s282_p74" class="light_switch_border" />
<use xlink:href="../resources/svg/common.svg#arrow" x="69.488525390625" y="102.783203125" id="panel_light_switch_head_s282_p74" class="light_switch_line" transform="rotate(-98.02221587542485 69.488525390625 102.783203125)" />
<line x1="78.125" y1="164.0625" x2="69.488525390625" y2="102.783203125" id="panel_light_switch_line_s282_p74" class="light_switch_line" />
<!-- end group: "panel_light_switch_line_group_poly_s282_p74" -->
</g>
<!-- end group: "panel_light_switch_lines_s282" -->
</g>
<g id="panel_light_switch_lines_s286">
<g id="panel_light_switch_line_group_poly_s286_p42">
<line x1="328.125" y1="164.0625" x2="171.875" y2="-46.875" id="panel_light_switch_border_s286_p42" class="light_switch_border" />
<use xlink:href="../resources/svg/common.svg#arrow" x="171.875" y="-46.875" id="panel_light_switch_head_s286_p42" class="light_switch_line" transform="rotate(-126.52885536698516 171.875 -46.875)" />
<line x1="328.125" y1="164.0625" x2="171.875" y2="-46.875" id="panel_light_switch_line_s286_p42" class="light_switch_line" />
<!-- end group: "panel_light_switch_line_group_poly_s286_p42" -->
</g>
<g id="panel_light_switch_line_group_poly_s286_p43">
<line x1="328.125" y1="164.0625" x2="135.92529296875" y2="-43.792724609375" id="panel_light_switch_border_s286_p43" class="light_switch_border" />
<use xlink:href="../resources/svg/common.svg#arrow" x="135.92529296875" y="-43.792724609375" id="panel_light_switch_head_s286_p43" class="light_switch_line" transform="rotate(-132.758963734076 135.92529296875 -43.792724609375)" />
<line x1="328.125" y1="164.0625" x2="135.92529296875" y2="-43.792724609375" id="panel_light_switch_line_s286_p43" class="light_switch_line" />
<!-- end group: "panel_light_switch_line_group_poly_s286_p43" -->
</g>
<g id="panel_light_switch_line_group_poly_s286_p44">
<line x1="328.125" y1="164.0625" x2="99.30419921875" y2="-32.8369140625" id="panel_light_switch_border_s286_p44" class="light_switch_border" />
<use xlink:href="../resources/svg/common.svg#arrow" x="99.30419921875" y="-32.8369140625" id="panel_light_switch_head_s286_p44" class="light_switch_line" transform="rotate(-139.28813226484712 99.30419921875 -32.8369140625)" />
<line x1="328.125" y1="164.0625" x2="99.30419921875" y2="-32.8369140625" id="panel_light_switch_line_s286_p44" class="light_switch_line" />
<!-- end group: "panel_light_switch_line_group_poly_s286_p44" -->
</g>
<g id="panel_light_switch_line_group_poly_s286_p45">
<line x1="328.125" y1="164.0625" x2="68.9697265625" y2="-13.946533203125" id="panel_light_switch_border_s286_p45" class="light_switch_border" />
<use xlink:href="../resources/svg/common.svg#arrow" x="68.9697265625" y="-13.946533203125" id="panel_light_switch_head_s286_p45" class="light_switch_line" transform="rotate(-145.5155370278099 68.9697265625 -13.946533203125)" />
<line x1="328.125" y1="164.0625" x2="68.9697265625" y2="-13.946533203125" id="panel_light_switch_line_s286_p45" class="light_switch_line" />
<!-- end group: "panel_light_switch_line_group_poly_s286_p45" -->
</g>
<g id="panel_light_switch_line_group_poly_s286_p46">
<line x1="328.125" y1="164.0625" x2="43.9453125" y2="11.962890625" id="panel_light_switch_border_s286_p46" class="light_switch_border" />
<use xlink:href="../resources/svg/common.svg#arrow" x="43.9453125" y="11.962890625" id="panel_light_switch_head_s286_p46" class="light_switch_line" transform="rotate(-151.8432696422341 43.9453125 11.962890625)" />
<line x1="328.125" y1="164.0625" x2="43.9453125" y2="11.962890625" id="panel_light_switch_line_s286_p46" class="light_switch_line" />
<!-- end group: "panel_light_switch_line_group_poly_s286_p46" -->
</g>
<g id="panel_light_switch_line_group_poly_s286_p47">
<line x1="328.125" y1="164.0625" x2="27.16064453125" y2="43.853759765625" id="panel_light_switch_border_s286_p47" class="light_switch_border" />
<use xlink:href="../resources/svg/common.svg#arrow" x="27.16064453125" y="43.853759765625" id="panel_light_switch_head_s286_p47" class="light_switch_line" transform="rotate(-158.22764516608322 27.16064453125 43.853759765625)" />
<line x1="328.125" y1="164.0625" x2="27.16064453125" y2="43.853759765625" id="panel_light_switch_line_s286_p47" class="light_switch_line" />
<!-- end group: "panel_light_switch_line_group_poly_s286_p47" -->
</g>
<g id="panel_light_switch_line_group_poly_s286_p48">
<line x1="328.125" y1="164.0625" x2="18.524169921875" y2="77.2705078125" id="panel_light_switch_border_s286_p48" class="light_switch_border" />
<use xlink:href="../resources/svg/common.svg#arrow" x="18.524169921875" y="77.2705078125" id="panel_light_switch_head_s286_p48" class="light_switch_line" transform="rotate(-164.3399489594253 18.524169921875 77.2705078125)" />
<line x1="328.125" y1="164.0625" x2="18.524169921875" y2="77.2705078125" id="panel_light_switch_line_s286_p48" class="light_switch_line" />
<!-- end group: "panel_light_switch_line_group_poly_s286_p48" -->
</g>
<g id="panel_light_switch_line_group_poly_s286_p49">
<line x1="328.125" y1="164.0625" x2="15.625" y2="109.375" id="panel_light_switch_border_s286_p49" class="light_switch_border" />
<use xlink:href="../resources/svg/common.svg#arrow" x="15.625" y="109.375" id="panel_light_switch_head_s286_p49" class="light_switch_line" transform="rotate(-170.0737544933483 15.625 109.375)" />
<line x1="328.125" y1="164.0625" x2="15.625" y2="109.375" id="panel_light_switch_line_s286_p49" class="light_switch_line" />
<!-- end group: "panel_light_switch_line_group_poly_s286_p49" -->
</g>
<g id="panel_light_switch_line_group_poly_s286_p54">
<line x1="328.125" y1="164.0625" x2="171.875" y2="-68.359375" id="panel_light_switch_border_s286_p54" class="light_switch_border" />
<use xlink:href="../resources/svg/common.svg#arrow" x="171.875" y="-68.359375" id="panel_light_switch_head_s286_p54" class="light_switch_line" transform="rotate(-123.91171353643924 171.875 -68.359375)" />
<line x1="328.125" y1="164.0625" x2="171.875" y2="-68.359375" id="panel_light_switch_line_s286_p54" class="light_switch_line" />
<!-- end group: "panel_light_switch_line_group_poly_s286_p54" -->
</g>
<g id="panel_light_switch_line_group_poly_s286_p55">
<line x1="328.125" y1="164.0625" x2="171.875" y2="-76.171875" id="panel_light_switch_border_s286_p55" class="light_switch_border" />
<use xlink:href="../resources/svg/common.svg#arrow" x="171.875" y="-76.171875" id="panel_light_switch_head_s286_p55" class="light_switch_line" transform="rotate(-123.04023777806923 171.875 -76.171875)" />
<line x1="328.125" y1="164.0625" x2="171.875" y2="-76.171875" id="panel_light_switch_line_s286_p55" class="light_switch_line" />
<!-- end group: "panel_light_switch_line_group_poly_s286_p55" -->
</g>
<!-- end group: "panel_light_switch_lines_s286" -->
</g>
<!-- end group: "panel_light_switch_lines" -->
</g>
<g id="objects">
<g id="objects_item">
<use xlink:href="../resources/svg/common.svg#item" x="270.56884765625" y="210.968017578125" id="object_0" class="item item-5" />
<use xlink:href="../resources/svg/common.svg#item" x="-124.8779296875" y="157.04345703125" id="object_1" class="item item-5" />
<use xlink:href="../resources/svg/common.svg#item" x="176.910400390625" y="-114.471435546875" id="object_2" class="item item-5" />
<use xlink:href="../resources/svg/common.svg#item" x="210.968017578125" y="154.205322265625" id="object_3" class="item item-11" />
<use xlink:href="../resources/svg/common.svg#item" x="50.140380859375" y="-9.46044921875" id="object_4" class="item item-3" />
<use xlink:href="../resources/svg/common.svg#item" x="-23.4375" y="144.53125" id="object_5" class="item item-17" />
<use xlink:href="../resources/svg/common.svg#item" x="100.5859375" y="-64.453125" id="object_6" class="item item-12" />
<use xlink:href="../resources/svg/common.svg#item" x="224.609375" y="48.828125" id="object_7" class="item item-10" />
<use xlink:href="../resources/svg/common.svg#item" x="-53.7109375" y="113.28125" id="object_16" class="item item-8" />
<!-- end group: "objects_item" -->
</g>
<g id="objects_player">
<use xlink:href="../resources/svg/common.svg#monster" x="162.109375" y="117.1875" id="object_8" class="player" transform="rotate(180.0 162.109375 117.1875)" />
<use xlink:href="../resources/svg/common.svg#monster" x="179.6875" y="105.46875" id="object_9" class="player" transform="rotate(270.0 179.6875 105.46875)" />
<use xlink:href="../resources/svg/common.svg#monster" x="130.859375" y="211.9140625" id="object_10" class="player" transform="rotate(312.1875 130.859375 211.9140625)" />
<use xlink:href="../resources/svg/common.svg#monster" x="275.390625" y="68.359375" id="object_11" class="player" transform="rotate(135.703125 275.390625 68.359375)" />
<use xlink:href="../resources/svg/common.svg#monster" x="172.8515625" y="-46.875" id="object_12" class="player" transform="rotate(90.0 172.8515625 -46.875)" />
<use xlink:href="../resources/svg/common.svg#monster" x="-102.5390625" y="109.375" id="object_13" class="player" transform="rotate(319.21875 -102.5390625 109.375)" />
<use xlink:href="../resources/svg/common.svg#monster" x="39.0625" y="-65.4296875" id="object_14" class="player" transform="rotate(137.8125 39.0625 -65.4296875)" />
<use xlink:href="../resources/svg/common.svg#monster" x="46.875" y="169.921875" id="object_15" class="player" transform="rotate(180.0 46.875 169.921875)" />
<!-- end group: "objects_player" -->
</g>
<!-- end group: "objects" -->
</g>
<g id="panels">
<use xlink:href="../resources/svg/common.svg#panel" x="78.125" y="164.0625" id="side_282" class="panel-light_switch" onmouseover="m_over('side_282');" onmouseout="m_out('side_282');" />
<use xlink:href="../resources/svg/common.svg#panel" x="328.125" y="164.0625" id="side_286" class="panel-light_switch" onmouseover="m_over('side_286');" onmouseout="m_out('side_286');" />
<!-- end group: "panels" -->
</g>

<script xlink:href="../resources/js/level.js" ></script>
</svg>