<?xml version="1.0" encoding="UTF-8"?>
<!-- generated by map2svg: github.com/fracai/marathon-svg -->
<svg xmlns="http://www.w3.org/2000/svg" xmlns:xlink="http://www.w3.org/1999/xlink" version="1.1"
    viewBox="-250.0 312.5 1250.0 664.0625">
<link xmlns="http://www.w3.org/1999/xhtml" rel="stylesheet" href="../resources/css/styles.css" type="text/css" />
<style id="dynamic-style" />
<g id="background-grid">
<defs>
<pattern id="grid_minor" width="3.125" height="3.125" patternUnits="userSpaceOnUse">
<path d="M 3.125 0 L 0 0 0 3.125" fill="none" class="grid_minor" />
</pattern>
<pattern id="grid_major" width="31.25" height="31.25" patternUnits="userSpaceOnUse">
<rect width="31.25" height="31.25" fill="url(#grid_minor)"/>
<path d="M 31.25 0 L 0 0 0 31.25" fill="none" class="grid_major" />
</pattern>
</defs>
<rect x="-1000" y="-1000" width="2000" height="2000" fill="url(#grid_major)" />
<line x1="0" y1="1000" x2="0" y2="-1000" class="grid_origin" />
<line x1="1000" y1="0" x2="-1000" y2="0" class="grid_origin" />
<!-- end group: "background-grid" -->
</g>
<g id="polygons">
<polygon points="343.75,593.75 375.0,562.5 437.5,562.5 468.75,593.75 468.75,656.25 437.5,687.5 375.0,687.5 343.75,656.25" id="poly_5" class="plain" />
<polygon points="312.5,343.75 500.0,343.75 437.5,562.5 375.0,562.5" id="poly_0" class="plain" />
<polygon points="375.0,687.5 437.5,687.5 500.0,906.25 312.5,906.25" id="poly_28" class="plain" />
<polygon points="500.0,343.75 687.5,531.25 468.75,593.75 437.5,562.5" id="poly_1" class="plain" />
<polygon points="437.5,687.5 468.75,656.25 687.5,718.75 500.0,906.25" id="poly_2" class="plain" />
<polygon points="125.0,718.75 343.75,656.25 375.0,687.5 312.5,906.25" id="poly_3" class="plain" />
<polygon points="312.5,343.75 375.0,562.5 343.75,593.75 125.0,531.25" id="poly_4" class="plain" />
<polygon points="121.09375,609.375 124.8779296875,609.283447265625 124.8779296875,640.5029296875 121.09375,640.625" id="poly_6" class="plain" />
<polygon points="117.1875,609.375 121.09375,609.375 121.09375,640.625 117.1875,640.625" id="poly_7" class="platform" />
<polygon points="691.40625,609.375 695.3125,609.375 695.3125,640.625 691.40625,640.625" id="poly_8" class="platform" />
<polygon points="687.5,609.375 691.40625,609.375 691.40625,640.625 687.5,640.228271484375" id="poly_9" class="plain" />
<polygon points="-195.3125,445.3125 -148.4375,421.875 -85.9375,468.75 -93.75,529.296875 -119.140625,546.875 -193.359375,518.5546875" id="poly_11" class="plain" />
<polygon points="-119.140625,546.875 -93.75,529.296875 -11.71875,609.375 -46.875,617.1875" id="poly_12" class="plain" />
<polygon points="-46.875,617.1875 -11.71875,609.375 -11.71875,640.625 -46.875,632.8125" id="poly_13" class="plain" />
<polygon points="-46.875,632.8125 -11.71875,640.625 -93.75,718.75 -117.1875,698.2421875" id="poly_14" class="plain" />
<polygon points="-11.71875,609.375 117.1875,609.375 117.1875,640.625 -11.71875,640.625" id="poly_15" class="plain" />
<polygon points="874.0234375,472.65625 939.453125,435.546875 985.3515625,470.703125 961.9140625,537.109375 902.34375,550.78125 875.0,531.25" id="poly_16" class="plain" />
<polygon points="875.0,531.25 902.34375,550.78125 828.125,617.1875 789.0625,609.375" id="poly_17" class="plain" />
<polygon points="789.0625,609.375 828.125,617.1875 828.125,632.8125 789.0625,640.625" id="poly_18" class="plain" />
<polygon points="695.3125,609.375 789.0625,609.375 789.0625,640.625 695.3125,640.625" id="poly_19" class="plain" />
<polygon points="789.0625,640.625 828.125,632.8125 892.578125,685.546875 870.1171875,712.890625" id="poly_20" class="plain" />
<polygon points="870.1171875,712.890625 892.578125,685.546875 950.1953125,694.3359375 980.46875,757.8125 937.5,800.78125 878.90625,772.4609375" id="poly_21" class="plain" />
<polygon points="-183.59375,703.125 -117.1875,698.2421875 -93.75,718.75 -93.75,781.25 -152.34375,812.5 -172.91259765625,800.59814453125 -197.662353515625,781.524658203125 -214.84375,765.625" id="poly_22" class="plain" />
<polygon points="-201.019287109375,783.50830078125 -197.662353515625,781.524658203125 -172.91259765625,800.59814453125 -176.20849609375,802.490234375" id="poly_23" class="platform" />
<polygon points="-201.019287109375,783.50830078125 -176.20849609375,802.490234375 -199.21875,824.21875 -218.75,824.21875" id="poly_24" class="plain" />
<polygon points="-218.75,824.21875 -199.21875,824.21875 -199.21875,925.78125 -218.75,945.3125" id="poly_25" class="plain" />
<polygon points="-199.21875,925.78125 31.25,925.78125 50.78125,945.3125 -218.75,945.3125" id="poly_26" class="plain" />
<polygon points="468.75,593.75 687.5,531.25 687.5,609.375 687.5,640.228271484375 687.5,718.75 468.75,656.25" id="poly_10" class="plain" />
<polygon points="31.25,925.78125 31.25,898.4375 50.78125,898.4375 50.78125,945.3125" id="poly_27" class="plain" />
<polygon points="124.8779296875,609.283447265625 125.0,531.25 343.75,593.75 343.75,656.25 124.8779296875,640.5029296875" id="poly_42" class="plain" />
<polygon points="124.8779296875,640.5029296875 343.75,656.25 125.0,718.75 124.755859375,687.43896484375 124.755859375,667.78564453125" id="poly_43" class="plain" />
<polygon points="31.25,882.8125 50.78125,882.8125 50.78125,898.4375 31.25,898.4375" id="poly_39" class="plain" />
<polygon points="31.25,867.1875 50.78125,867.1875 50.78125,882.8125 31.25,882.8125" id="poly_38" class="plain" />
<polygon points="31.25,851.5625 50.78125,851.5625 50.78125,867.1875 31.25,867.1875" id="poly_37" class="plain" />
<polygon points="31.25,835.9375 50.78125,835.9375 50.78125,851.5625 31.25,851.5625" id="poly_36" class="plain" />
<polygon points="31.25,820.3125 50.78125,820.3125 50.78125,835.9375 31.25,835.9375" id="poly_35" class="plain" />
<polygon points="31.25,804.6875 50.78125,804.6875 50.78125,820.3125 31.25,820.3125" id="poly_34" class="plain" />
<polygon points="31.25,789.0625 50.78125,789.0625 50.78125,804.6875 31.25,804.6875" id="poly_33" class="plain" />
<polygon points="31.25,773.4375 50.78125,773.4375 50.78125,789.0625 31.25,789.0625" id="poly_32" class="plain" />
<polygon points="31.25,757.8125 50.78125,757.8125 50.78125,773.4375 31.25,773.4375" id="poly_31" class="plain" />
<polygon points="101.5625,667.96875 105.46875,667.96875 105.46875,687.5 101.5625,687.5" id="poly_29" class="platform" />
<polygon points="31.25,667.96875 101.5625,667.96875 101.5625,687.5 50.78125,687.5" id="poly_30" class="plain" />
<polygon points="31.25,667.96875 50.78125,687.5 50.78125,757.8125 31.25,757.8125" id="poly_40" class="plain" />
<polygon points="105.46875,667.96875 124.755859375,667.78564453125 124.755859375,687.43896484375 105.46875,687.5" id="poly_41" class="plain" />
<!-- end group: "polygons" -->
</g>
<g id="borders">
<g id="border_plain">
<line x1="-93.75" y1="718.75" x2="-117.1875" y2="698.2421875" id="line_48" class="plain" />
<line x1="-11.71875" y1="640.625" x2="-46.875" y2="632.8125" id="line_53" class="plain" />
<line x1="-11.71875" y1="609.375" x2="-46.875" y2="617.1875" id="line_54" class="plain" />
<line x1="-11.71875" y1="609.375" x2="-11.71875" y2="640.625" id="line_55" class="plain" />
<line x1="-93.75" y1="529.296875" x2="-119.140625" y2="546.875" id="line_56" class="plain" />
<line x1="892.578125" y1="685.546875" x2="870.1171875" y2="712.890625" id="line_67" class="plain" />
<line x1="828.125" y1="632.8125" x2="789.0625" y2="640.625" id="line_68" class="plain" />
<line x1="828.125" y1="617.1875" x2="789.0625" y2="609.375" id="line_69" class="plain" />
<line x1="789.0625" y1="640.625" x2="789.0625" y2="609.375" id="line_70" class="plain" />
<line x1="902.34375" y1="550.78125" x2="875.0" y2="531.25" id="line_71" class="plain" />
<line x1="-199.21875" y1="925.78125" x2="-218.75" y2="945.3125" id="line_107" class="plain" />
<line x1="-199.21875" y1="824.21875" x2="-218.75" y2="824.21875" id="line_108" class="plain" />
<line x1="50.78125" y1="687.5" x2="31.25" y2="667.96875" id="line_118" class="plain" />
<line x1="343.75" y1="656.25" x2="124.8779296875" y2="640.5029296875" id="line_141" class="plain" />
<!-- end group: "border_plain" -->
</g>
<g id="border_ceiling">
<line x1="124.8779296875" y1="609.283447265625" x2="124.8779296875" y2="640.5029296875" id="line_26" class="ceiling" />
<line x1="687.5" y1="640.228271484375" x2="687.5" y2="609.375" id="line_33" class="ceiling" />
<line x1="31.25" y1="925.78125" x2="50.78125" y2="945.3125" id="line_106" class="ceiling" />
<!-- end group: "border_ceiling" -->
</g>
<g id="border_elevation">
<line x1="468.75" y1="593.75" x2="468.75" y2="656.25" id="line_7" class="elevation" />
<line x1="468.75" y1="593.75" x2="437.5" y2="562.5" id="line_8" class="elevation" />
<line x1="437.5" y1="562.5" x2="375.0" y2="562.5" id="line_9" class="elevation" />
<line x1="375.0" y1="562.5" x2="343.75" y2="593.75" id="line_10" class="elevation" />
<line x1="343.75" y1="656.25" x2="343.75" y2="593.75" id="line_11" class="elevation" />
<line x1="343.75" y1="656.25" x2="375.0" y2="687.5" id="line_12" class="elevation" />
<line x1="437.5" y1="687.5" x2="375.0" y2="687.5" id="line_13" class="elevation" />
<line x1="437.5" y1="687.5" x2="468.75" y2="656.25" id="line_14" class="elevation" />
<line x1="500.0" y1="343.75" x2="437.5" y2="562.5" id="line_15" class="elevation" />
<line x1="687.5" y1="531.25" x2="468.75" y2="593.75" id="line_16" class="elevation" />
<line x1="468.75" y1="656.25" x2="687.5" y2="718.75" id="line_17" class="elevation" />
<line x1="500.0" y1="906.25" x2="437.5" y2="687.5" id="line_18" class="elevation" />
<line x1="375.0" y1="687.5" x2="312.5" y2="906.25" id="line_19" class="elevation" />
<line x1="125.0" y1="718.75" x2="343.75" y2="656.25" id="line_20" class="elevation" />
<line x1="375.0" y1="562.5" x2="312.5" y2="343.75" id="line_21" class="elevation" />
<line x1="343.75" y1="593.75" x2="125.0" y2="531.25" id="line_22" class="elevation" />
<line x1="31.25" y1="757.8125" x2="50.78125" y2="757.8125" id="line_93" class="elevation" />
<line x1="50.78125" y1="773.4375" x2="31.25" y2="773.4375" id="line_94" class="elevation" />
<line x1="50.78125" y1="789.0625" x2="31.25" y2="789.0625" id="line_95" class="elevation" />
<line x1="50.78125" y1="804.6875" x2="31.25" y2="804.6875" id="line_96" class="elevation" />
<line x1="50.78125" y1="820.3125" x2="31.25" y2="820.3125" id="line_97" class="elevation" />
<line x1="50.78125" y1="835.9375" x2="31.25" y2="835.9375" id="line_98" class="elevation" />
<line x1="50.78125" y1="851.5625" x2="31.25" y2="851.5625" id="line_99" class="elevation" />
<line x1="50.78125" y1="867.1875" x2="31.25" y2="867.1875" id="line_100" class="elevation" />
<line x1="50.78125" y1="882.8125" x2="31.25" y2="882.8125" id="line_101" class="elevation" />
<line x1="31.25" y1="898.4375" x2="50.78125" y2="898.4375" id="line_103" class="elevation" />
<line x1="124.755859375" y1="667.78564453125" x2="124.755859375" y2="687.43896484375" id="line_112" class="elevation" />
<!-- end group: "border_elevation" -->
</g>
<g id="border_solid">
<line x1="312.5" y1="343.75" x2="500.0" y2="343.75" id="line_0" class="solid" />
<line x1="500.0" y1="343.75" x2="687.5" y2="531.25" id="line_1" class="solid" />
<line x1="687.5" y1="531.25" x2="687.5" y2="609.375" id="line_2" class="solid" />
<line x1="687.5" y1="718.75" x2="500.0" y2="906.25" id="line_3" class="solid" />
<line x1="125.0" y1="531.25" x2="312.5" y2="343.75" id="line_4" class="solid" />
<line x1="125.0" y1="718.75" x2="124.755859375" y2="687.43896484375" id="line_5" class="solid" />
<line x1="312.5" y1="906.25" x2="125.0" y2="718.75" id="line_6" class="solid" />
<line x1="124.8779296875" y1="609.283447265625" x2="125.0" y2="531.25" id="line_23" class="solid" />
<line x1="121.09375" y1="609.375" x2="124.8779296875" y2="609.283447265625" id="line_24" class="solid" />
<line x1="121.09375" y1="640.625" x2="121.09375" y2="609.375" id="line_25" class="solid" />
<line x1="124.8779296875" y1="640.5029296875" x2="121.09375" y2="640.625" id="line_27" class="solid" />
<line x1="117.1875" y1="609.375" x2="121.09375" y2="609.375" id="line_28" class="solid" />
<line x1="117.1875" y1="640.625" x2="117.1875" y2="609.375" id="line_29" class="solid" />
<line x1="121.09375" y1="640.625" x2="117.1875" y2="640.625" id="line_30" class="solid" />
<line x1="-11.71875" y1="609.375" x2="117.1875" y2="609.375" id="line_31" class="solid" />
<line x1="117.1875" y1="640.625" x2="-11.71875" y2="640.625" id="line_32" class="solid" />
<line x1="687.5" y1="609.375" x2="691.40625" y2="609.375" id="line_34" class="solid" />
<line x1="691.40625" y1="640.625" x2="691.40625" y2="609.375" id="line_35" class="solid" />
<line x1="687.5" y1="640.228271484375" x2="687.5" y2="718.75" id="line_36" class="solid" />
<line x1="691.40625" y1="640.625" x2="687.5" y2="640.228271484375" id="line_37" class="solid" />
<line x1="695.3125" y1="640.625" x2="691.40625" y2="640.625" id="line_38" class="solid" />
<line x1="695.3125" y1="609.375" x2="695.3125" y2="640.625" id="line_39" class="solid" />
<line x1="691.40625" y1="609.375" x2="695.3125" y2="609.375" id="line_40" class="solid" />
<line x1="695.3125" y1="609.375" x2="789.0625" y2="609.375" id="line_41" class="solid" />
<line x1="789.0625" y1="640.625" x2="695.3125" y2="640.625" id="line_42" class="solid" />
<line x1="-93.75" y1="529.296875" x2="-11.71875" y2="609.375" id="line_43" class="solid" />
<line x1="-11.71875" y1="640.625" x2="-93.75" y2="718.75" id="line_44" class="solid" />
<line x1="-46.875" y1="617.1875" x2="-119.140625" y2="546.875" id="line_45" class="solid" />
<line x1="-117.1875" y1="698.2421875" x2="-46.875" y2="632.8125" id="line_46" class="solid" />
<line x1="-46.875" y1="632.8125" x2="-46.875" y2="617.1875" id="line_47" class="solid" />
<line x1="-93.75" y1="718.75" x2="-93.75" y2="781.25" id="line_49" class="solid" />
<line x1="-93.75" y1="781.25" x2="-152.34375" y2="812.5" id="line_50" class="solid" />
<line x1="-214.84375" y1="765.625" x2="-183.59375" y2="703.125" id="line_51" class="solid" />
<line x1="-183.59375" y1="703.125" x2="-117.1875" y2="698.2421875" id="line_52" class="solid" />
<line x1="-119.140625" y1="546.875" x2="-193.359375" y2="518.5546875" id="line_57" class="solid" />
<line x1="-85.9375" y1="468.75" x2="-93.75" y2="529.296875" id="line_58" class="solid" />
<line x1="-193.359375" y1="518.5546875" x2="-195.3125" y2="445.3125" id="line_59" class="solid" />
<line x1="-195.3125" y1="445.3125" x2="-148.4375" y2="421.875" id="line_60" class="solid" />
<line x1="-148.4375" y1="421.875" x2="-85.9375" y2="468.75" id="line_61" class="solid" />
<line x1="789.0625" y1="609.375" x2="875.0" y2="531.25" id="line_62" class="solid" />
<line x1="870.1171875" y1="712.890625" x2="789.0625" y2="640.625" id="line_63" class="solid" />
<line x1="828.125" y1="632.8125" x2="892.578125" y2="685.546875" id="line_64" class="solid" />
<line x1="828.125" y1="617.1875" x2="828.125" y2="632.8125" id="line_65" class="solid" />
<line x1="902.34375" y1="550.78125" x2="828.125" y2="617.1875" id="line_66" class="solid" />
<line x1="878.90625" y1="772.4609375" x2="870.1171875" y2="712.890625" id="line_72" class="solid" />
<line x1="892.578125" y1="685.546875" x2="950.1953125" y2="694.3359375" id="line_73" class="solid" />
<line x1="950.1953125" y1="694.3359375" x2="980.46875" y2="757.8125" id="line_74" class="solid" />
<line x1="937.5" y1="800.78125" x2="878.90625" y2="772.4609375" id="line_75" class="solid" />
<line x1="980.46875" y1="757.8125" x2="937.5" y2="800.78125" id="line_76" class="solid" />
<line x1="875.0" y1="531.25" x2="874.0234375" y2="472.65625" id="line_77" class="solid" />
<line x1="874.0234375" y1="472.65625" x2="939.453125" y2="435.546875" id="line_78" class="solid" />
<line x1="939.453125" y1="435.546875" x2="985.3515625" y2="470.703125" id="line_79" class="solid" />
<line x1="985.3515625" y1="470.703125" x2="961.9140625" y2="537.109375" id="line_80" class="solid" />
<line x1="961.9140625" y1="537.109375" x2="902.34375" y2="550.78125" id="line_81" class="solid" />
<line x1="-197.662353515625" y1="781.524658203125" x2="-214.84375" y2="765.625" id="line_82" class="solid" />
<line x1="-172.91259765625" y1="800.59814453125" x2="-197.662353515625" y2="781.524658203125" id="line_83" class="solid" />
<line x1="-152.34375" y1="812.5" x2="-172.91259765625" y2="800.59814453125" id="line_84" class="solid" />
<line x1="-201.019287109375" y1="783.50830078125" x2="-197.662353515625" y2="781.524658203125" id="line_85" class="solid" />
<line x1="-176.20849609375" y1="802.490234375" x2="-201.019287109375" y2="783.50830078125" id="line_86" class="solid" />
<line x1="-172.91259765625" y1="800.59814453125" x2="-176.20849609375" y2="802.490234375" id="line_87" class="solid" />
<line x1="-218.75" y1="945.3125" x2="-218.75" y2="824.21875" id="line_88" class="solid" />
<line x1="50.78125" y1="945.3125" x2="-218.75" y2="945.3125" id="line_89" class="solid" />
<line x1="-199.21875" y1="824.21875" x2="-199.21875" y2="925.78125" id="line_90" class="solid" />
<line x1="-176.20849609375" y1="802.490234375" x2="-199.21875" y2="824.21875" id="line_91" class="solid" />
<line x1="-218.75" y1="824.21875" x2="-201.019287109375" y2="783.50830078125" id="line_92" class="solid" />
<line x1="31.25" y1="925.78125" x2="31.25" y2="898.4375" id="line_102" class="solid" />
<line x1="-199.21875" y1="925.78125" x2="31.25" y2="925.78125" id="line_104" class="solid" />
<line x1="50.78125" y1="898.4375" x2="50.78125" y2="945.3125" id="line_105" class="solid" />
<line x1="500.0" y1="906.25" x2="312.5" y2="906.25" id="line_109" class="solid" />
<line x1="124.755859375" y1="667.78564453125" x2="124.8779296875" y2="640.5029296875" id="line_110" class="solid" />
<line x1="105.46875" y1="667.96875" x2="105.46875" y2="687.5" id="line_111" class="solid" />
<line x1="101.5625" y1="667.96875" x2="105.46875" y2="667.96875" id="line_113" class="solid" />
<line x1="101.5625" y1="687.5" x2="101.5625" y2="667.96875" id="line_114" class="solid" />
<line x1="105.46875" y1="687.5" x2="101.5625" y2="687.5" id="line_115" class="solid" />
<line x1="31.25" y1="667.96875" x2="101.5625" y2="667.96875" id="line_116" class="solid" />
<line x1="101.5625" y1="687.5" x2="50.78125" y2="687.5" id="line_117" class="solid" />
<line x1="50.78125" y1="882.8125" x2="50.78125" y2="898.4375" id="line_119" class="solid" />
<line x1="50.78125" y1="867.1875" x2="50.78125" y2="882.8125" id="line_120" class="solid" />
<line x1="50.78125" y1="851.5625" x2="50.78125" y2="867.1875" id="line_121" class="solid" />
<line x1="50.78125" y1="835.9375" x2="50.78125" y2="851.5625" id="line_122" class="solid" />
<line x1="31.25" y1="898.4375" x2="31.25" y2="882.8125" id="line_123" class="solid" />
<line x1="31.25" y1="882.8125" x2="31.25" y2="867.1875" id="line_124" class="solid" />
<line x1="31.25" y1="867.1875" x2="31.25" y2="851.5625" id="line_125" class="solid" />
<line x1="31.25" y1="851.5625" x2="31.25" y2="835.9375" id="line_126" class="solid" />
<line x1="50.78125" y1="820.3125" x2="50.78125" y2="835.9375" id="line_127" class="solid" />
<line x1="50.78125" y1="804.6875" x2="50.78125" y2="820.3125" id="line_128" class="solid" />
<line x1="50.78125" y1="789.0625" x2="50.78125" y2="804.6875" id="line_129" class="solid" />
<line x1="50.78125" y1="773.4375" x2="50.78125" y2="789.0625" id="line_130" class="solid" />
<line x1="31.25" y1="835.9375" x2="31.25" y2="820.3125" id="line_131" class="solid" />
<line x1="31.25" y1="820.3125" x2="31.25" y2="804.6875" id="line_132" class="solid" />
<line x1="31.25" y1="804.6875" x2="31.25" y2="789.0625" id="line_133" class="solid" />
<line x1="31.25" y1="789.0625" x2="31.25" y2="773.4375" id="line_134" class="solid" />
<line x1="31.25" y1="773.4375" x2="31.25" y2="757.8125" id="line_135" class="solid" />
<line x1="50.78125" y1="757.8125" x2="50.78125" y2="773.4375" id="line_136" class="solid" />
<line x1="31.25" y1="757.8125" x2="31.25" y2="667.96875" id="line_137" class="solid" />
<line x1="50.78125" y1="687.5" x2="50.78125" y2="757.8125" id="line_138" class="solid" />
<line x1="105.46875" y1="667.96875" x2="124.755859375" y2="667.78564453125" id="line_139" class="solid" />
<line x1="124.755859375" y1="687.43896484375" x2="105.46875" y2="687.5" id="line_140" class="solid" />
<!-- end group: "border_solid" -->
</g>
<!-- end group: "borders" -->
</g>
<g id="objects">
<g id="objects_item">
<use xlink:href="../resources/svg/common.svg#item" x="411.62109375" y="401.3671875" id="object_0" class="item item-8" transform="rotate(92.8125 411.62109375 401.3671875)" />
<use xlink:href="../resources/svg/common.svg#item" x="379.39453125" y="590.33203125" id="object_1" class="item item-6" transform="rotate(54.84375 379.39453125 590.33203125)" />
<use xlink:href="../resources/svg/common.svg#item" x="364.74609375" y="609.375" id="object_2" class="item item-6" transform="rotate(345.9375 364.74609375 609.375)" />
<use xlink:href="../resources/svg/common.svg#item" x="383.7890625" y="654.78515625" id="object_3" class="item item-7" transform="rotate(345.9375 383.7890625 654.78515625)" />
<use xlink:href="../resources/svg/common.svg#item" x="418.9453125" y="663.57421875" id="object_4" class="item item-7" transform="rotate(345.9375 418.9453125 663.57421875)" />
<use xlink:href="../resources/svg/common.svg#item" x="437.98828125" y="625.48828125" id="object_5" class="item item-9" transform="rotate(345.9375 437.98828125 625.48828125)" />
<use xlink:href="../resources/svg/common.svg#item" x="601.5625" y="621.09375" id="object_7" class="item item-5" />
<use xlink:href="../resources/svg/common.svg#item" x="-98.052978515625" y="700.37841796875" id="object_9" class="item item-5" transform="rotate(315.0 -98.052978515625 700.37841796875)" />
<use xlink:href="../resources/svg/common.svg#item" x="-64.27001953125" y="575.958251953125" id="object_10" class="item item-5" transform="rotate(213.046875 -64.27001953125 575.958251953125)" />
<use xlink:href="../resources/svg/common.svg#item" x="69.2138671875" y="625.396728515625" id="object_11" class="item item-8" transform="rotate(213.046875 69.2138671875 625.396728515625)" />
<use xlink:href="../resources/svg/common.svg#item" x="851.98974609375" y="571.83837890625" id="object_14" class="item item-5" transform="rotate(300.234375 851.98974609375 571.83837890625)" />
<use xlink:href="../resources/svg/common.svg#item" x="829.742431640625" y="658.355712890625" id="object_15" class="item item-5" transform="rotate(35.15625 829.742431640625 658.355712890625)" />
<use xlink:href="../resources/svg/common.svg#item" x="736.63330078125" y="620.452880859375" id="object_16" class="item item-8" transform="rotate(35.15625 736.63330078125 620.452880859375)" />
<use xlink:href="../resources/svg/common.svg#item" x="-164.0625" y="464.35546875" id="object_17" class="item item-9" transform="rotate(351.5625 -164.0625 464.35546875)" />
<use xlink:href="../resources/svg/common.svg#item" x="-124.51171875" y="462.890625" id="object_18" class="item item-6" transform="rotate(351.5625 -124.51171875 462.890625)" />
<use xlink:href="../resources/svg/common.svg#item" x="-131.8359375" y="505.37109375" id="object_19" class="item item-7" transform="rotate(351.5625 -131.8359375 505.37109375)" />
<use xlink:href="../resources/svg/common.svg#item" x="896.484375" y="503.90625" id="object_20" class="item item-6" transform="rotate(351.5625 896.484375 503.90625)" />
<use xlink:href="../resources/svg/common.svg#item" x="905.2734375" y="525.87890625" id="object_21" class="item item-7" transform="rotate(351.5625 905.2734375 525.87890625)" />
<use xlink:href="../resources/svg/common.svg#item" x="914.0625" y="495.1171875" id="object_22" class="item item-9" transform="rotate(351.5625 914.0625 495.1171875)" />
<use xlink:href="../resources/svg/common.svg#item" x="918.45703125" y="704.58984375" id="object_23" class="item item-6" transform="rotate(351.5625 918.45703125 704.58984375)" />
<use xlink:href="../resources/svg/common.svg#item" x="895.01953125" y="717.7734375" id="object_24" class="item item-7" transform="rotate(351.5625 895.01953125 717.7734375)" />
<use xlink:href="../resources/svg/common.svg#item" x="895.01953125" y="741.2109375" id="object_25" class="item item-9" transform="rotate(351.5625 895.01953125 741.2109375)" />
<use xlink:href="../resources/svg/common.svg#item" x="411.62109375" y="597.65625" id="object_26" class="item item-9" transform="rotate(54.84375 411.62109375 597.65625)" />
<use xlink:href="../resources/svg/common.svg#item" x="-167.8466796875" y="735.16845703125" id="object_28" class="item item-6" transform="rotate(319.21875 -167.8466796875 735.16845703125)" />
<use xlink:href="../resources/svg/common.svg#item" x="-129.241943359375" y="733.489990234375" id="object_29" class="item item-7" transform="rotate(319.21875 -129.241943359375 733.489990234375)" />
<use xlink:href="../resources/svg/common.svg#item" x="-117.49267578125" y="767.059326171875" id="object_30" class="item item-9" transform="rotate(319.21875 -117.49267578125 767.059326171875)" />
<use xlink:href="../resources/svg/common.svg#item" x="406.463623046875" y="812.347412109375" id="object_31" class="item item-8" transform="rotate(180.0 406.463623046875 812.347412109375)" />
<!-- end group: "objects_item" -->
</g>
<g id="objects_player">
<use xlink:href="../resources/svg/common.svg#monster" x="664.0625" y="621.09375" id="object_6" class="player" transform="rotate(180.0 664.0625 621.09375)" />
<use xlink:href="../resources/svg/common.svg#monster" x="-141.7236328125" y="484.4970703125" id="object_8" class="player" transform="rotate(31.640625 -141.7236328125 484.4970703125)" />
<use xlink:href="../resources/svg/common.svg#monster" x="934.38720703125" y="513.336181640625" id="object_12" class="player" transform="rotate(141.328125 934.38720703125 513.336181640625)" />
<use xlink:href="../resources/svg/common.svg#monster" x="935.211181640625" y="757.232666015625" id="object_13" class="player" transform="rotate(226.40625 935.211181640625 757.232666015625)" />
<use xlink:href="../resources/svg/common.svg#monster" x="-172.882080078125" y="777.130126953125" id="object_27" class="player" transform="rotate(319.21875 -172.882080078125 777.130126953125)" />
<use xlink:href="../resources/svg/common.svg#monster" x="162.109375" y="623.046875" id="object_32" class="player" transform="rotate(357.890625 162.109375 623.046875)" />
<use xlink:href="../resources/svg/common.svg#monster" x="408.203125" y="367.1875" id="object_33" class="player" transform="rotate(95.625 408.203125 367.1875)" />
<use xlink:href="../resources/svg/common.svg#monster" x="419.921875" y="878.90625" id="object_34" class="player" transform="rotate(270.0 419.921875 878.90625)" />
<!-- end group: "objects_player" -->
</g>
<!-- end group: "objects" -->
</g>
<g id="panels">
<!-- end group: "panels" -->
</g>

<script xlink:href="../resources/js/level.js" ></script>
</svg>