<?xml version="1.0" encoding="UTF-8"?>
<!-- generated by map2svg: github.com/fracai/marathon-svg -->
<svg xmlns="http://www.w3.org/2000/svg" xmlns:xlink="http://www.w3.org/1999/xlink" version="1.1"
    viewBox="-109.375 -296.875 515.625 515.625">
<link xmlns="http://www.w3.org/1999/xhtml" rel="stylesheet" href="../resources/css/styles.css" type="text/css" />
<style id="dynamic-style" />
<g id="background-grid">
<defs>
<pattern id="grid_minor" width="3.125" height="3.125" patternUnits="userSpaceOnUse">
<path d="M 3.125 0 L 0 0 0 3.125" fill="none" class="grid_minor" />
</pattern>
<pattern id="grid_major" width="31.25" height="31.25" patternUnits="userSpaceOnUse">
<rect width="31.25" height="31.25" fill="url(#grid_minor)"/>
<path d="M 31.25 0 L 0 0 0 31.25" fill="none" class="grid_major" />
</pattern>
</defs>
<rect x="-1000" y="-1000" width="2000" height="2000" fill="url(#grid_major)" />
<line x1="0" y1="1000" x2="0" y2="-1000" class="grid_origin" />
<line x1="1000" y1="0" x2="-1000" y2="0" class="grid_origin" />
<!-- end group: "background-grid" -->
</g>
<g id="polygons">
<polygon points="210.9375,-265.625 222.65625,-265.625 230.46875,-250.0 203.125,-250.0" id="poly_31" class="teleporter" />
<polygon points="-78.125,-101.5625 -62.5,-109.375 -62.5,-82.03125 -78.125,-89.84375" id="poly_32" class="teleporter" />
<polygon points="-62.5,-250.0 62.5,-250.0 62.5,-187.5 0.0,-187.5" id="poly_0" class="plain" />
<polygon points="-62.5,-250.0 0.0,-187.5 0.0,-125.0 -62.5,-109.375" id="poly_1" class="plain" />
<polygon points="0.0,-125.0 62.5,-125.0 125.0,-125.0 187.5,-125.0 187.5,-62.5 125.0,-62.5 62.5,-62.5 0.0,-62.5" id="poly_2" class="plain" />
<polygon points="62.5,-187.5 125.0,-187.5 125.0,-125.0 62.5,-125.0" id="poly_3" class="plain" />
<polygon points="187.5,-187.5 250.396728515625,-187.225341796875 250.0,-125.0 187.5,-125.0" id="poly_4" class="plain" />
<polygon points="230.46875,-250.0 375.0,-250.0 312.5,-187.5 250.396728515625,-187.225341796875" id="poly_5" class="plain" />
<polygon points="312.5,-187.5 375.0,-250.0 375.0,-109.375 312.5,-125.0" id="poly_6" class="plain" />
<polygon points="187.5,-62.5 250.0,-62.5 250.0,0.0 250.0,62.5 187.5,61.5234375 187.5,0.0" id="poly_7" class="plain" />
<polygon points="250.0,0.0 312.5,0.0 312.5,62.5 250.0,62.5" id="poly_8" class="plain" />
<polygon points="62.5,62.5 62.5,0.0 125.0,61.5234375 125.0,125.0 125.0,187.5 62.5,125.0" id="poly_9" class="plain" />
<polygon points="62.5,-62.5 125.0,-62.5 125.0,0.0 62.5,0.0" id="poly_10" class="plain" />
<polygon points="62.5,0.0 125.0,0.0 187.5,0.0 187.5,61.5234375 125.0,61.5234375" id="poly_11" class="plain" />
<polygon points="-62.5,-109.375 0.0,-125.0 0.0,-62.5 -62.5,-82.03125" id="poly_12" class="plain" />
<polygon points="187.5,61.5234375 250.0,62.5 250.1220703125,78.18603515625 250.1220703125,109.31396484375 250.0,125.0 187.5,125.0" id="poly_13" class="plain" />
<polygon points="0.0,0.0 62.5,0.0 62.5,62.5 46.875,62.5 15.625,62.5 0.0,62.5" id="poly_14" class="plain" />
<polygon points="-62.5,-82.03125 0.0,-62.5 0.0,0.0 0.0,62.5 0.0,125.0 -62.5,125.0" id="poly_15" class="plain" />
<polygon points="203.125,-250.0 230.46875,-250.0 250.396728515625,-187.225341796875 187.5,-187.5" id="poly_16" class="plain" />
<polygon points="124.969482421875,-250.0 203.125,-250.0 187.5,-187.5 125.0,-187.5" id="poly_17" class="plain" />
<polygon points="62.5,-250.0 124.969482421875,-250.0 125.0,-187.5 62.5,-187.5" id="poly_18" class="plain" />
<polygon points="310.1806640625,78.18603515625 312.5,62.5 375.0,62.5 375.0,125.0 310.72998046875,124.8779296875 309.99755859375,109.31396484375" id="poly_21" class="plain" />
<polygon points="-62.5,125.0 0.0,125.0 0.0,187.5 -62.5,187.5" id="poly_22" class="plain" />
<polygon points="187.5,-125.0 250.0,-125.0 312.5,-125.0 312.5,-62.5 250.0,-62.5 187.5,-62.5" id="poly_25" class="plain" />
<polygon points="312.5,-125.0 375.0,-109.375 375.0,-78.125 312.5,-62.5" id="poly_26" class="plain" />
<polygon points="125.0,125.0 187.5,125.0 250.0,125.0 250.0,187.5 125.0,187.5" id="poly_27" class="plain" />
<polygon points="0.0,125.0 15.625,125.0 46.875,125.0 62.5,125.0 125.0,187.5 0.0,187.5" id="poly_28" class="plain" />
<polygon points="250.0,125.0 310.72998046875,124.8779296875 375.0,125.0 375.0,187.5 250.0,187.5" id="poly_29" class="plain" />
<polygon points="312.5,0.0 312.5,-62.5 375.0,-78.125 375.0,62.5 312.5,62.5" id="poly_30" class="plain" />
<polygon points="250.1220703125,78.18603515625 273.4375,78.125 289.0625,78.125 310.1806640625,78.18603515625 309.99755859375,109.31396484375 250.1220703125,109.31396484375" id="poly_19" class="plain" />
<polygon points="15.625,62.5 46.875,62.5 46.875,85.9375 46.875,101.5625 46.875,125.0 15.625,125.0" id="poly_23" class="plain" />
<polygon points="273.4375,70.3125 289.0625,70.3125 289.0625,78.125 273.4375,78.125" id="poly_20" class="plain" />
<polygon points="46.875,85.9375 54.6875,85.9375 54.6875,101.5625 46.875,101.5625" id="poly_24" class="plain" />
<!-- end group: "polygons" -->
</g>
<g id="borders">
<g id="border_unconnected">
<line x1="125.701904296875" y1="-186.767578125" x2="124.0234375" y2="-186.767578125" id="line_88" class="unconnected" />
<!-- end group: "border_unconnected" -->
</g>
<g id="border_plain">
<line x1="62.5" y1="-250.0" x2="62.5" y2="-187.5" id="line_40" class="plain" />
<line x1="0.0" y1="-187.5" x2="-62.5" y2="-250.0" id="line_41" class="plain" />
<line x1="0.0" y1="-125.0" x2="-62.5" y2="-109.375" id="line_42" class="plain" />
<line x1="0.0" y1="-62.5" x2="0.0" y2="-125.0" id="line_43" class="plain" />
<line x1="125.0" y1="-62.5" x2="62.5" y2="-62.5" id="line_44" class="plain" />
<line x1="62.5" y1="-125.0" x2="125.0" y2="-125.0" id="line_45" class="plain" />
<line x1="187.5" y1="-125.0" x2="187.5" y2="-62.5" id="line_46" class="plain" />
<line x1="250.0" y1="-125.0" x2="187.5" y2="-125.0" id="line_47" class="plain" />
<line x1="187.5" y1="-62.5" x2="250.0" y2="-62.5" id="line_48" class="plain" />
<line x1="375.0" y1="-78.125" x2="312.5" y2="-62.5" id="line_50" class="plain" />
<line x1="375.0" y1="-109.375" x2="312.5" y2="-125.0" id="line_51" class="plain" />
<line x1="62.5" y1="-187.5" x2="125.0" y2="-187.5" id="line_52" class="plain" />
<line x1="187.5" y1="-187.5" x2="250.396728515625" y2="-187.225341796875" id="line_53" class="plain" />
<line x1="375.0" y1="-250.0" x2="312.5" y2="-187.5" id="line_54" class="plain" />
<line x1="250.396728515625" y1="-187.225341796875" x2="230.46875" y2="-250.0" id="line_55" class="plain" />
<line x1="125.0" y1="0.0" x2="62.5" y2="0.0" id="line_56" class="plain" />
<line x1="62.5" y1="62.5" x2="62.5" y2="0.0" id="line_57" class="plain" />
<line x1="0.0" y1="62.5" x2="0.0" y2="0.0" id="line_58" class="plain" />
<line x1="0.0" y1="125.0" x2="-62.5" y2="125.0" id="line_59" class="plain" />
<line x1="125.0" y1="187.5" x2="62.5" y2="125.0" id="line_60" class="plain" />
<line x1="125.0" y1="125.0" x2="125.0" y2="187.5" id="line_61" class="plain" />
<line x1="62.5" y1="0.0" x2="125.0" y2="61.5234375" id="line_62" class="plain" />
<line x1="187.5" y1="61.5234375" x2="187.5" y2="0.0" id="line_63" class="plain" />
<line x1="250.0" y1="62.5" x2="187.5" y2="61.5234375" id="line_64" class="plain" />
<line x1="250.0" y1="0.0" x2="250.0" y2="62.5" id="line_65" class="plain" />
<line x1="312.5" y1="0.0" x2="312.5" y2="62.5" id="line_66" class="plain" />
<line x1="312.5" y1="62.5" x2="375.0" y2="62.5" id="line_67" class="plain" />
<line x1="375.0" y1="125.0" x2="310.72998046875" y2="124.8779296875" id="line_69" class="plain" />
<line x1="250.0" y1="125.0" x2="250.0" y2="187.5" id="line_70" class="plain" />
<line x1="250.0" y1="125.0" x2="187.5" y2="125.0" id="line_71" class="plain" />
<line x1="0.0" y1="-62.5" x2="-62.5" y2="-82.03125" id="line_77" class="plain" />
<line x1="125.0" y1="-187.5" x2="124.969482421875" y2="-250.0" id="line_90" class="plain" />
<line x1="187.5" y1="-187.5" x2="203.125" y2="-250.0" id="line_91" class="plain" />
<line x1="0.0" y1="125.0" x2="0.0" y2="187.5" id="line_109" class="plain" />
<line x1="312.5" y1="-125.0" x2="312.5" y2="-62.5" id="line_110" class="plain" />
<!-- end group: "border_plain" -->
</g>
<g id="border_ceiling">
<line x1="203.125" y1="-250.0" x2="230.46875" y2="-250.0" id="line_36" class="ceiling" />
<line x1="-62.5" y1="-82.03125" x2="-62.5" y2="-109.375" id="line_76" class="ceiling" />
<!-- end group: "border_ceiling" -->
</g>
<g id="border_elevation">
<line x1="250.1220703125" y1="78.18603515625" x2="250.1220703125" y2="109.31396484375" id="line_75" class="elevation" />
<line x1="46.875" y1="125.0" x2="15.625" y2="125.0" id="line_83" class="elevation" />
<line x1="46.875" y1="62.5" x2="15.625" y2="62.5" id="line_86" class="elevation" />
<line x1="273.4375" y1="78.125" x2="289.0625" y2="78.125" id="line_95" class="elevation" />
<line x1="310.1806640625" y1="78.18603515625" x2="309.99755859375" y2="109.31396484375" id="line_98" class="elevation" />
<line x1="46.875" y1="85.9375" x2="46.875" y2="101.5625" id="line_101" class="elevation" />
<!-- end group: "border_elevation" -->
</g>
<g id="border_solid">
<line x1="0.0" y1="-62.5" x2="0.0" y2="0.0" id="line_0" class="solid" />
<line x1="62.5" y1="-62.5" x2="0.0" y2="-62.5" id="line_1" class="solid" />
<line x1="62.5" y1="0.0" x2="62.5" y2="-62.5" id="line_2" class="solid" />
<line x1="0.0" y1="0.0" x2="62.5" y2="0.0" id="line_3" class="solid" />
<line x1="0.0" y1="62.5" x2="0.0" y2="125.0" id="line_4" class="solid" />
<line x1="62.5" y1="125.0" x2="62.5" y2="62.5" id="line_5" class="solid" />
<line x1="125.0" y1="61.5234375" x2="125.0" y2="125.0" id="line_6" class="solid" />
<line x1="125.0" y1="125.0" x2="187.5" y2="125.0" id="line_7" class="solid" />
<line x1="187.5" y1="125.0" x2="187.5" y2="61.5234375" id="line_8" class="solid" />
<line x1="187.5" y1="61.5234375" x2="125.0" y2="61.5234375" id="line_9" class="solid" />
<line x1="125.0" y1="-62.5" x2="125.0" y2="0.0" id="line_10" class="solid" />
<line x1="187.5" y1="-62.5" x2="125.0" y2="-62.5" id="line_11" class="solid" />
<line x1="187.5" y1="0.0" x2="187.5" y2="-62.5" id="line_12" class="solid" />
<line x1="125.0" y1="0.0" x2="187.5" y2="0.0" id="line_13" class="solid" />
<line x1="0.0" y1="-187.5" x2="0.0" y2="-125.0" id="line_14" class="solid" />
<line x1="62.5" y1="-187.5" x2="0.0" y2="-187.5" id="line_15" class="solid" />
<line x1="62.5" y1="-125.0" x2="62.5" y2="-187.5" id="line_16" class="solid" />
<line x1="0.0" y1="-125.0" x2="62.5" y2="-125.0" id="line_17" class="solid" />
<line x1="125.0" y1="-187.5" x2="125.0" y2="-125.0" id="line_18" class="solid" />
<line x1="187.5" y1="-187.5" x2="125.0" y2="-187.5" id="line_19" class="solid" />
<line x1="187.5" y1="-125.0" x2="187.5" y2="-187.5" id="line_20" class="solid" />
<line x1="125.0" y1="-125.0" x2="187.5" y2="-125.0" id="line_21" class="solid" />
<line x1="250.396728515625" y1="-187.225341796875" x2="250.0" y2="-125.0" id="line_22" class="solid" />
<line x1="312.5" y1="-187.5" x2="250.396728515625" y2="-187.225341796875" id="line_23" class="solid" />
<line x1="312.5" y1="-125.0" x2="312.5" y2="-187.5" id="line_24" class="solid" />
<line x1="250.0" y1="-125.0" x2="312.5" y2="-125.0" id="line_25" class="solid" />
<line x1="250.0" y1="-62.5" x2="250.0" y2="0.0" id="line_26" class="solid" />
<line x1="312.5" y1="-62.5" x2="250.0" y2="-62.5" id="line_27" class="solid" />
<line x1="312.5" y1="0.0" x2="312.5" y2="-62.5" id="line_28" class="solid" />
<line x1="250.0" y1="0.0" x2="312.5" y2="0.0" id="line_29" class="solid" />
<line x1="312.5" y1="62.5" x2="250.0" y2="62.5" id="line_30" class="solid" />
<line x1="250.0" y1="125.0" x2="310.72998046875" y2="124.8779296875" id="line_31" class="solid" />
<line x1="-62.5" y1="187.5" x2="-62.5" y2="125.0" id="line_32" class="solid" />
<line x1="375.0" y1="125.0" x2="375.0" y2="187.5" id="line_33" class="solid" />
<line x1="375.0" y1="-250.0" x2="375.0" y2="-109.375" id="line_34" class="solid" />
<line x1="230.46875" y1="-250.0" x2="375.0" y2="-250.0" id="line_35" class="solid" />
<line x1="62.5" y1="-250.0" x2="124.969482421875" y2="-250.0" id="line_37" class="solid" />
<line x1="-62.5" y1="-250.0" x2="62.5" y2="-250.0" id="line_38" class="solid" />
<line x1="-62.5" y1="-109.375" x2="-62.5" y2="-250.0" id="line_39" class="solid" />
<line x1="375.0" y1="-109.375" x2="375.0" y2="-78.125" id="line_49" class="solid" />
<line x1="375.0" y1="62.5" x2="375.0" y2="125.0" id="line_68" class="solid" />
<line x1="250.0" y1="62.5" x2="250.1220703125" y2="78.18603515625" id="line_72" class="solid" />
<line x1="250.1220703125" y1="78.18603515625" x2="273.4375" y2="78.125" id="line_73" class="solid" />
<line x1="250.1220703125" y1="109.31396484375" x2="250.0" y2="125.0" id="line_74" class="solid" />
<line x1="-78.125" y1="-101.5625" x2="-62.5" y2="-109.375" id="line_78" class="solid" />
<line x1="-78.125" y1="-89.84375" x2="-78.125" y2="-101.5625" id="line_79" class="solid" />
<line x1="-62.5" y1="-82.03125" x2="-78.125" y2="-89.84375" id="line_80" class="solid" />
<line x1="15.625" y1="62.5" x2="0.0" y2="62.5" id="line_81" class="solid" />
<line x1="15.625" y1="125.0" x2="15.625" y2="62.5" id="line_82" class="solid" />
<line x1="46.875" y1="62.5" x2="46.875" y2="85.9375" id="line_84" class="solid" />
<line x1="62.5" y1="62.5" x2="46.875" y2="62.5" id="line_85" class="solid" />
<line x1="-62.5" y1="125.0" x2="-62.5" y2="-82.03125" id="line_87" class="solid" />
<line x1="124.969482421875" y1="-250.0" x2="203.125" y2="-250.0" id="line_89" class="solid" />
<line x1="273.4375" y1="78.125" x2="273.4375" y2="70.3125" id="line_92" class="solid" />
<line x1="273.4375" y1="70.3125" x2="289.0625" y2="70.3125" id="line_93" class="solid" />
<line x1="289.0625" y1="70.3125" x2="289.0625" y2="78.125" id="line_94" class="solid" />
<line x1="289.0625" y1="78.125" x2="310.1806640625" y2="78.18603515625" id="line_96" class="solid" />
<line x1="310.1806640625" y1="78.18603515625" x2="312.5" y2="62.5" id="line_97" class="solid" />
<line x1="310.72998046875" y1="124.8779296875" x2="309.99755859375" y2="109.31396484375" id="line_99" class="solid" />
<line x1="309.99755859375" y1="109.31396484375" x2="250.1220703125" y2="109.31396484375" id="line_100" class="solid" />
<line x1="46.875" y1="85.9375" x2="54.6875" y2="85.9375" id="line_102" class="solid" />
<line x1="54.6875" y1="85.9375" x2="54.6875" y2="101.5625" id="line_103" class="solid" />
<line x1="46.875" y1="101.5625" x2="46.875" y2="125.0" id="line_104" class="solid" />
<line x1="54.6875" y1="101.5625" x2="46.875" y2="101.5625" id="line_105" class="solid" />
<line x1="46.875" y1="125.0" x2="62.5" y2="125.0" id="line_106" class="solid" />
<line x1="0.0" y1="125.0" x2="15.625" y2="125.0" id="line_107" class="solid" />
<line x1="0.0" y1="187.5" x2="-62.5" y2="187.5" id="line_108" class="solid" />
<line x1="125.0" y1="187.5" x2="0.0" y2="187.5" id="line_111" class="solid" />
<line x1="250.0" y1="187.5" x2="125.0" y2="187.5" id="line_112" class="solid" />
<line x1="375.0" y1="187.5" x2="250.0" y2="187.5" id="line_113" class="solid" />
<line x1="375.0" y1="-78.125" x2="375.0" y2="62.5" id="line_114" class="solid" />
<line x1="203.125" y1="-250.0" x2="210.9375" y2="-265.625" id="line_115" class="solid" />
<line x1="210.9375" y1="-265.625" x2="222.65625" y2="-265.625" id="line_116" class="solid" />
<line x1="222.65625" y1="-265.625" x2="230.46875" y2="-250.0" id="line_117" class="solid" />
<!-- end group: "border_solid" -->
</g>
<!-- end group: "borders" -->
</g>
<g id="poly_teleporter_lines">
<g id="panel_teleporter_lines_p31">
<g id="panel_teleporter_line_group_poly_p31_p23">
<line x1="216.796875" y1="-257.8125" x2="36.43798828125" y2="93.75" id="panel_teleporter_border_p31_p23" class="teleporter_border" />
<use xlink:href="../resources/svg/common.svg#arrow" x="36.43798828125" y="93.75" id="panel_teleporter_head_p31_p23" class="teleporter_line" transform="rotate(117.15876857329057 36.43798828125 93.75)" />
<line x1="216.796875" y1="-257.8125" x2="36.43798828125" y2="93.75" id="panel_teleporter_line_p31_p23" class="teleporter_line" />
<!-- end group: "panel_teleporter_line_group_poly_p31_p23" -->
</g>
<!-- end group: "panel_teleporter_lines_p31" -->
</g>
<g id="panel_teleporter_lines_p32">
<g id="panel_teleporter_line_group_poly_p32_p19">
<line x1="-70.3125" y1="-95.703125" x2="280.487060546875" y2="88.531494140625" id="panel_teleporter_border_p32_p19" class="teleporter_border" />
<use xlink:href="../resources/svg/common.svg#arrow" x="280.487060546875" y="88.531494140625" id="panel_teleporter_head_p32_p19" class="teleporter_line" transform="rotate(27.707775454126224 280.487060546875 88.531494140625)" />
<line x1="-70.3125" y1="-95.703125" x2="280.487060546875" y2="88.531494140625" id="panel_teleporter_line_p32_p19" class="teleporter_line" />
<!-- end group: "panel_teleporter_line_group_poly_p32_p19" -->
</g>
<!-- end group: "panel_teleporter_lines_p32" -->
</g>
<!-- end group: "poly_teleporter_lines" -->
</g>
<g id="panel_light_switch_lines">
<g id="panel_light_switch_lines_s50">
<g id="panel_light_switch_line_group_poly_s50_p1">
<line x1="54.6875" y1="93.75" x2="-31.25" y2="-167.96875" id="panel_light_switch_border_s50_p1" class="light_switch_border" />
<use xlink:href="../resources/svg/common.svg#arrow" x="-31.25" y="-167.96875" id="panel_light_switch_head_s50_p1" class="light_switch_line" transform="rotate(-108.17801879841849 -31.25 -167.96875)" />
<line x1="54.6875" y1="93.75" x2="-31.25" y2="-167.96875" id="panel_light_switch_line_s50_p1" class="light_switch_line" />
<!-- end group: "panel_light_switch_line_group_poly_s50_p1" -->
</g>
<g id="panel_light_switch_line_group_poly_s50_p9">
<line x1="54.6875" y1="93.75" x2="93.75" y2="93.56689453125" id="panel_light_switch_border_s50_p9" class="light_switch_border" />
<use xlink:href="../resources/svg/common.svg#arrow" x="93.75" y="93.56689453125" id="panel_light_switch_head_s50_p9" class="light_switch_line" transform="rotate(-0.26857199939902543 93.75 93.56689453125)" />
<line x1="54.6875" y1="93.75" x2="93.75" y2="93.56689453125" id="panel_light_switch_line_s50_p9" class="light_switch_line" />
<!-- end group: "panel_light_switch_line_group_poly_s50_p9" -->
</g>
<g id="panel_light_switch_line_group_poly_s50_p10">
<line x1="54.6875" y1="93.75" x2="93.75" y2="-31.25" id="panel_light_switch_border_s50_p10" class="light_switch_border" />
<use xlink:href="../resources/svg/common.svg#arrow" x="93.75" y="-31.25" id="panel_light_switch_head_s50_p10" class="light_switch_line" transform="rotate(-72.64597536373867 93.75 -31.25)" />
<line x1="54.6875" y1="93.75" x2="93.75" y2="-31.25" id="panel_light_switch_line_s50_p10" class="light_switch_line" />
<!-- end group: "panel_light_switch_line_group_poly_s50_p10" -->
</g>
<g id="panel_light_switch_line_group_poly_s50_p11">
<line x1="54.6875" y1="93.75" x2="137.481689453125" y2="24.59716796875" id="panel_light_switch_border_s50_p11" class="light_switch_border" />
<use xlink:href="../resources/svg/common.svg#arrow" x="137.481689453125" y="24.59716796875" id="panel_light_switch_head_s50_p11" class="light_switch_line" transform="rotate(-39.86990637256181 137.481689453125 24.59716796875)" />
<line x1="54.6875" y1="93.75" x2="137.481689453125" y2="24.59716796875" id="panel_light_switch_line_s50_p11" class="light_switch_line" />
<!-- end group: "panel_light_switch_line_group_poly_s50_p11" -->
</g>
<g id="panel_light_switch_line_group_poly_s50_p12">
<line x1="54.6875" y1="93.75" x2="-31.25" y2="-94.7265625" id="panel_light_switch_border_s50_p12" class="light_switch_border" />
<use xlink:href="../resources/svg/common.svg#arrow" x="-31.25" y="-94.7265625" id="panel_light_switch_head_s50_p12" class="light_switch_line" transform="rotate(-114.5110196497258 -31.25 -94.7265625)" />
<line x1="54.6875" y1="93.75" x2="-31.25" y2="-94.7265625" id="panel_light_switch_line_s50_p12" class="light_switch_line" />
<!-- end group: "panel_light_switch_line_group_poly_s50_p12" -->
</g>
<g id="panel_light_switch_line_group_poly_s50_p14">
<line x1="54.6875" y1="93.75" x2="31.25" y2="41.656494140625" id="panel_light_switch_border_s50_p14" class="light_switch_border" />
<use xlink:href="../resources/svg/common.svg#arrow" x="31.25" y="41.656494140625" id="panel_light_switch_head_s50_p14" class="light_switch_line" transform="rotate(-114.22355825427316 31.25 41.656494140625)" />
<line x1="54.6875" y1="93.75" x2="31.25" y2="41.656494140625" id="panel_light_switch_line_s50_p14" class="light_switch_line" />
<!-- end group: "panel_light_switch_line_group_poly_s50_p14" -->
</g>
<g id="panel_light_switch_line_group_poly_s50_p15">
<line x1="54.6875" y1="93.75" x2="-20.81298828125" y2="27.984619140625" id="panel_light_switch_border_s50_p15" class="light_switch_border" />
<use xlink:href="../resources/svg/common.svg#arrow" x="-20.81298828125" y="27.984619140625" id="panel_light_switch_head_s50_p15" class="light_switch_line" transform="rotate(-138.94221267158065 -20.81298828125 27.984619140625)" />
<line x1="54.6875" y1="93.75" x2="-20.81298828125" y2="27.984619140625" id="panel_light_switch_line_s50_p15" class="light_switch_line" />
<!-- end group: "panel_light_switch_line_group_poly_s50_p15" -->
</g>
<g id="panel_light_switch_line_group_poly_s50_p22">
<line x1="54.6875" y1="93.75" x2="-31.25" y2="156.25" id="panel_light_switch_border_s50_p22" class="light_switch_border" />
<use xlink:href="../resources/svg/common.svg#arrow" x="-31.25" y="156.25" id="panel_light_switch_head_s50_p22" class="light_switch_line" transform="rotate(143.9726266148964 -31.25 156.25)" />
<line x1="54.6875" y1="93.75" x2="-31.25" y2="156.25" id="panel_light_switch_line_s50_p22" class="light_switch_line" />
<!-- end group: "panel_light_switch_line_group_poly_s50_p22" -->
</g>
<g id="panel_light_switch_line_group_poly_s50_p23">
<line x1="54.6875" y1="93.75" x2="36.43798828125" y2="93.75" id="panel_light_switch_border_s50_p23" class="light_switch_border" />
<use xlink:href="../resources/svg/common.svg#arrow" x="36.43798828125" y="93.75" id="panel_light_switch_head_s50_p23" class="light_switch_line" transform="rotate(180.0 36.43798828125 93.75)" />
<line x1="54.6875" y1="93.75" x2="36.43798828125" y2="93.75" id="panel_light_switch_line_s50_p23" class="light_switch_line" />
<!-- end group: "panel_light_switch_line_group_poly_s50_p23" -->
</g>
<g id="panel_light_switch_line_group_poly_s50_p24">
<line x1="54.6875" y1="93.75" x2="50.78125" y2="93.75" id="panel_light_switch_border_s50_p24" class="light_switch_border" />
<use xlink:href="../resources/svg/common.svg#arrow" x="50.78125" y="93.75" id="panel_light_switch_head_s50_p24" class="light_switch_line" transform="rotate(180.0 50.78125 93.75)" />
<line x1="54.6875" y1="93.75" x2="50.78125" y2="93.75" id="panel_light_switch_line_s50_p24" class="light_switch_line" />
<!-- end group: "panel_light_switch_line_group_poly_s50_p24" -->
</g>
<g id="panel_light_switch_line_group_poly_s50_p27">
<line x1="54.6875" y1="93.75" x2="187.5" y2="149.993896484375" id="panel_light_switch_border_s50_p27" class="light_switch_border" />
<use xlink:href="../resources/svg/common.svg#arrow" x="187.5" y="149.993896484375" id="panel_light_switch_head_s50_p27" class="light_switch_line" transform="rotate(22.951853900233054 187.5 149.993896484375)" />
<line x1="54.6875" y1="93.75" x2="187.5" y2="149.993896484375" id="panel_light_switch_line_s50_p27" class="light_switch_line" />
<!-- end group: "panel_light_switch_line_group_poly_s50_p27" -->
</g>
<g id="panel_light_switch_line_group_poly_s50_p28">
<line x1="54.6875" y1="93.75" x2="41.656494140625" y2="145.81298828125" id="panel_light_switch_border_s50_p28" class="light_switch_border" />
<use xlink:href="../resources/svg/common.svg#arrow" x="41.656494140625" y="145.81298828125" id="panel_light_switch_head_s50_p28" class="light_switch_line" transform="rotate(104.05204702000485 41.656494140625 145.81298828125)" />
<line x1="54.6875" y1="93.75" x2="41.656494140625" y2="145.81298828125" id="panel_light_switch_line_s50_p28" class="light_switch_line" />
<!-- end group: "panel_light_switch_line_group_poly_s50_p28" -->
</g>
<!-- end group: "panel_light_switch_lines_s50" -->
</g>
<g id="panel_light_switch_lines_s74">
<g id="panel_light_switch_line_group_poly_s74_p0">
<line x1="281.25" y1="70.3125" x2="15.625" y2="-218.75" id="panel_light_switch_border_s74_p0" class="light_switch_border" />
<use xlink:href="../resources/svg/common.svg#arrow" x="15.625" y="-218.75" id="panel_light_switch_head_s74_p0" class="light_switch_line" transform="rotate(-132.58049078334366 15.625 -218.75)" />
<line x1="281.25" y1="70.3125" x2="15.625" y2="-218.75" id="panel_light_switch_line_s74_p0" class="light_switch_line" />
<!-- end group: "panel_light_switch_line_group_poly_s74_p0" -->
</g>
<g id="panel_light_switch_line_group_poly_s74_p3">
<line x1="281.25" y1="70.3125" x2="93.75" y2="-156.25" id="panel_light_switch_border_s74_p3" class="light_switch_border" />
<use xlink:href="../resources/svg/common.svg#arrow" x="93.75" y="-156.25" id="panel_light_switch_head_s74_p3" class="light_switch_line" transform="rotate(-129.61068824002658 93.75 -156.25)" />
<line x1="281.25" y1="70.3125" x2="93.75" y2="-156.25" id="panel_light_switch_line_s74_p3" class="light_switch_line" />
<!-- end group: "panel_light_switch_line_group_poly_s74_p3" -->
</g>
<g id="panel_light_switch_line_group_poly_s74_p5">
<line x1="281.25" y1="70.3125" x2="292.083740234375" y2="-218.658447265625" id="panel_light_switch_border_s74_p5" class="light_switch_border" />
<use xlink:href="../resources/svg/common.svg#arrow" x="292.083740234375" y="-218.658447265625" id="panel_light_switch_head_s74_p5" class="light_switch_line" transform="rotate(-87.85294328035852 292.083740234375 -218.658447265625)" />
<line x1="281.25" y1="70.3125" x2="292.083740234375" y2="-218.658447265625" id="panel_light_switch_line_s74_p5" class="light_switch_line" />
<!-- end group: "panel_light_switch_line_group_poly_s74_p5" -->
</g>
<g id="panel_light_switch_line_group_poly_s74_p6">
<line x1="281.25" y1="70.3125" x2="343.75" y2="-167.96875" id="panel_light_switch_border_s74_p6" class="light_switch_border" />
<use xlink:href="../resources/svg/common.svg#arrow" x="343.75" y="-167.96875" id="panel_light_switch_head_s74_p6" class="light_switch_line" transform="rotate(-75.3026807204881 343.75 -167.96875)" />
<line x1="281.25" y1="70.3125" x2="343.75" y2="-167.96875" id="panel_light_switch_line_s74_p6" class="light_switch_line" />
<!-- end group: "panel_light_switch_line_group_poly_s74_p6" -->
</g>
<g id="panel_light_switch_line_group_poly_s74_p8">
<line x1="281.25" y1="70.3125" x2="281.25" y2="31.25" id="panel_light_switch_border_s74_p8" class="light_switch_border" />
<use xlink:href="../resources/svg/common.svg#arrow" x="281.25" y="31.25" id="panel_light_switch_head_s74_p8" class="light_switch_line" transform="rotate(-90.0 281.25 31.25)" />
<line x1="281.25" y1="70.3125" x2="281.25" y2="31.25" id="panel_light_switch_line_s74_p8" class="light_switch_line" />
<!-- end group: "panel_light_switch_line_group_poly_s74_p8" -->
</g>
<g id="panel_light_switch_line_group_poly_s74_p13">
<line x1="281.25" y1="70.3125" x2="229.18701171875" y2="93.56689453125" id="panel_light_switch_border_s74_p13" class="light_switch_border" />
<use xlink:href="../resources/svg/common.svg#arrow" x="229.18701171875" y="93.56689453125" id="panel_light_switch_head_s74_p13" class="light_switch_line" transform="rotate(155.93165001646935 229.18701171875 93.56689453125)" />
<line x1="281.25" y1="70.3125" x2="229.18701171875" y2="93.56689453125" id="panel_light_switch_line_s74_p13" class="light_switch_line" />
<!-- end group: "panel_light_switch_line_group_poly_s74_p13" -->
</g>
<g id="panel_light_switch_line_group_poly_s74_p16">
<line x1="281.25" y1="70.3125" x2="217.864990234375" y2="-218.658447265625" id="panel_light_switch_border_s74_p16" class="light_switch_border" />
<use xlink:href="../resources/svg/common.svg#arrow" x="217.864990234375" y="-218.658447265625" id="panel_light_switch_head_s74_p16" class="light_switch_line" transform="rotate(-102.37174554613777 217.864990234375 -218.658447265625)" />
<line x1="281.25" y1="70.3125" x2="217.864990234375" y2="-218.658447265625" id="panel_light_switch_line_s74_p16" class="light_switch_line" />
<!-- end group: "panel_light_switch_line_group_poly_s74_p16" -->
</g>
<g id="panel_light_switch_line_group_poly_s74_p17">
<line x1="281.25" y1="70.3125" x2="160.125732421875" y2="-218.75" id="panel_light_switch_border_s74_p17" class="light_switch_border" />
<use xlink:href="../resources/svg/common.svg#arrow" x="160.125732421875" y="-218.75" id="panel_light_switch_head_s74_p17" class="light_switch_line" transform="rotate(-112.73487778077079 160.125732421875 -218.75)" />
<line x1="281.25" y1="70.3125" x2="160.125732421875" y2="-218.75" id="panel_light_switch_line_s74_p17" class="light_switch_line" />
<!-- end group: "panel_light_switch_line_group_poly_s74_p17" -->
</g>
<g id="panel_light_switch_line_group_poly_s74_p18">
<line x1="281.25" y1="70.3125" x2="93.719482421875" y2="-218.75" id="panel_light_switch_border_s74_p18" class="light_switch_border" />
<use xlink:href="../resources/svg/common.svg#arrow" x="93.719482421875" y="-218.75" id="panel_light_switch_head_s74_p18" class="light_switch_line" transform="rotate(-122.97366129754276 93.719482421875 -218.75)" />
<line x1="281.25" y1="70.3125" x2="93.719482421875" y2="-218.75" id="panel_light_switch_line_s74_p18" class="light_switch_line" />
<!-- end group: "panel_light_switch_line_group_poly_s74_p18" -->
</g>
<g id="panel_light_switch_line_group_poly_s74_p19">
<line x1="281.25" y1="70.3125" x2="280.487060546875" y2="88.531494140625" id="panel_light_switch_border_s74_p19" class="light_switch_border" />
<use xlink:href="../resources/svg/common.svg#arrow" x="280.487060546875" y="88.531494140625" id="panel_light_switch_head_s74_p19" class="light_switch_line" transform="rotate(92.39791973832696 280.487060546875 88.531494140625)" />
<line x1="281.25" y1="70.3125" x2="280.487060546875" y2="88.531494140625" id="panel_light_switch_line_s74_p19" class="light_switch_line" />
<!-- end group: "panel_light_switch_line_group_poly_s74_p19" -->
</g>
<g id="panel_light_switch_line_group_poly_s74_p20">
<line x1="281.25" y1="70.3125" x2="281.25" y2="74.21875" id="panel_light_switch_border_s74_p20" class="light_switch_border" />
<use xlink:href="../resources/svg/common.svg#arrow" x="281.25" y="74.21875" id="panel_light_switch_head_s74_p20" class="light_switch_line" transform="rotate(90.0 281.25 74.21875)" />
<line x1="281.25" y1="70.3125" x2="281.25" y2="74.21875" id="panel_light_switch_line_s74_p20" class="light_switch_line" />
<!-- end group: "panel_light_switch_line_group_poly_s74_p20" -->
</g>
<g id="panel_light_switch_line_group_poly_s74_p21">
<line x1="281.25" y1="70.3125" x2="332.21435546875" y2="93.719482421875" id="panel_light_switch_border_s74_p21" class="light_switch_border" />
<use xlink:href="../resources/svg/common.svg#arrow" x="332.21435546875" y="93.719482421875" id="panel_light_switch_head_s74_p21" class="light_switch_line" transform="rotate(24.668440585909842 332.21435546875 93.719482421875)" />
<line x1="281.25" y1="70.3125" x2="332.21435546875" y2="93.719482421875" id="panel_light_switch_line_s74_p21" class="light_switch_line" />
<!-- end group: "panel_light_switch_line_group_poly_s74_p21" -->
</g>
<g id="panel_light_switch_line_group_poly_s74_p26">
<line x1="281.25" y1="70.3125" x2="343.75" y2="-93.75" id="panel_light_switch_border_s74_p26" class="light_switch_border" />
<use xlink:href="../resources/svg/common.svg#arrow" x="343.75" y="-93.75" id="panel_light_switch_head_s74_p26" class="light_switch_line" transform="rotate(-69.14554196042165 343.75 -93.75)" />
<line x1="281.25" y1="70.3125" x2="343.75" y2="-93.75" id="panel_light_switch_line_s74_p26" class="light_switch_line" />
<!-- end group: "panel_light_switch_line_group_poly_s74_p26" -->
</g>
<g id="panel_light_switch_line_group_poly_s74_p29">
<line x1="281.25" y1="70.3125" x2="312.1337890625" y2="149.96337890625" id="panel_light_switch_border_s74_p29" class="light_switch_border" />
<use xlink:href="../resources/svg/common.svg#arrow" x="312.1337890625" y="149.96337890625" id="panel_light_switch_head_s74_p29" class="light_switch_line" transform="rotate(68.806722427626 312.1337890625 149.96337890625)" />
<line x1="281.25" y1="70.3125" x2="312.1337890625" y2="149.96337890625" id="panel_light_switch_line_s74_p29" class="light_switch_line" />
<!-- end group: "panel_light_switch_line_group_poly_s74_p29" -->
</g>
<g id="panel_light_switch_line_group_poly_s74_p30">
<line x1="281.25" y1="70.3125" x2="337.493896484375" y2="-3.11279296875" id="panel_light_switch_border_s74_p30" class="light_switch_border" />
<use xlink:href="../resources/svg/common.svg#arrow" x="337.493896484375" y="-3.11279296875" id="panel_light_switch_head_s74_p30" class="light_switch_line" transform="rotate(-52.547825162915835 337.493896484375 -3.11279296875)" />
<line x1="281.25" y1="70.3125" x2="337.493896484375" y2="-3.11279296875" id="panel_light_switch_line_s74_p30" class="light_switch_line" />
<!-- end group: "panel_light_switch_line_group_poly_s74_p30" -->
</g>
<!-- end group: "panel_light_switch_lines_s74" -->
</g>
<!-- end group: "panel_light_switch_lines" -->
</g>
<g id="objects">
<g id="objects_item">
<use xlink:href="../resources/svg/common.svg#item" x="97.65625" y="-33.203125" id="object_0" class="item item-4" transform="rotate(11.25 97.65625 -33.203125)" />
<use xlink:href="../resources/svg/common.svg#item" x="218.75" y="-29.296875" id="object_1" class="item item-6" transform="rotate(11.25 218.75 -29.296875)" />
<use xlink:href="../resources/svg/common.svg#item" x="99.609375" y="91.796875" id="object_2" class="item item-7" transform="rotate(11.25 99.609375 91.796875)" />
<use xlink:href="../resources/svg/common.svg#item" x="91.796875" y="-157.2265625" id="object_6" class="item item-5" transform="rotate(2.109375 91.796875 -157.2265625)" />
<use xlink:href="../resources/svg/common.svg#item" x="155.731201171875" y="-215.33203125" id="object_7" class="item item-5" transform="rotate(11.25 155.731201171875 -215.33203125)" />
<use xlink:href="../resources/svg/common.svg#item" x="-30.76171875" y="7.6904296875" id="object_8" class="item item-3" transform="rotate(11.25 -30.76171875 7.6904296875)" />
<use xlink:href="../resources/svg/common.svg#item" x="280.975341796875" y="93.658447265625" id="object_9" class="item item-8" transform="rotate(316.40625 280.975341796875 93.658447265625)" />
<use xlink:href="../resources/svg/common.svg#item" x="27.191162109375" y="92.987060546875" id="object_11" class="item item-15" transform="rotate(316.40625 27.191162109375 92.987060546875)" />
<use xlink:href="../resources/svg/common.svg#item" x="210.9375" y="-95.703125" id="object_22" class="item item-1" />
<use xlink:href="../resources/svg/common.svg#item" x="15.625" y="-89.84375" id="object_23" class="item item-1" />
<use xlink:href="../resources/svg/common.svg#item" x="22.4609375" y="30.2734375" id="object_24" class="item item-1" />
<use xlink:href="../resources/svg/common.svg#item" x="31.25" y="-214.84375" id="object_25" class="item item-1" />
<use xlink:href="../resources/svg/common.svg#item" x="277.34375" y="-88.8671875" id="object_26" class="item item-1" />
<use xlink:href="../resources/svg/common.svg#item" x="218.75" y="160.15625" id="object_27" class="item item-1" />
<!-- end group: "objects_item" -->
</g>
<g id="objects_monster">
<use xlink:href="../resources/svg/common.svg#monster" x="-48.828125" y="-92.7734375" id="object_16" class="monster monster-20" transform="rotate(353.671875 -48.828125 -92.7734375)" />
<use xlink:href="../resources/svg/common.svg#monster" x="327.1484375" y="35.15625" id="object_17" class="monster monster-20" transform="rotate(173.671875 327.1484375 35.15625)" />
<use xlink:href="../resources/svg/common.svg#monster" x="212.890625" y="147.4609375" id="object_18" class="monster monster-32" transform="rotate(279.140625 212.890625 147.4609375)" />
<use xlink:href="../resources/svg/common.svg#monster" x="98.6328125" y="-201.171875" id="object_19" class="monster monster-27" transform="rotate(93.515625 98.6328125 -201.171875)" />
<use xlink:href="../resources/svg/common.svg#monster" x="214.84375" y="-209.9609375" id="object_20" class="monster monster-30" transform="rotate(95.625 214.84375 -209.9609375)" />
<use xlink:href="../resources/svg/common.svg#monster" x="-32.2265625" y="30.2734375" id="object_21" class="monster monster-30" transform="rotate(6.328125 -32.2265625 30.2734375)" />
<!-- end group: "objects_monster" -->
</g>
<g id="objects_player">
<use xlink:href="../resources/svg/common.svg#monster" x="356.4453125" y="-213.8671875" id="object_3" class="player" transform="rotate(123.75 356.4453125 -213.8671875)" />
<use xlink:href="../resources/svg/common.svg#monster" x="-39.0625" y="-210.9375" id="object_4" class="player" transform="rotate(33.046875 -39.0625 -210.9375)" />
<use xlink:href="../resources/svg/common.svg#monster" x="153.3203125" y="-90.8203125" id="object_5" class="player" transform="rotate(2.109375 153.3203125 -90.8203125)" />
<use xlink:href="../resources/svg/common.svg#monster" x="-42.29736328125" y="163.14697265625" id="object_10" class="player" transform="rotate(316.40625 -42.29736328125 163.14697265625)" />
<use xlink:href="../resources/svg/common.svg#monster" x="345.703125" y="166.015625" id="object_12" class="player" transform="rotate(218.671875 345.703125 166.015625)" />
<use xlink:href="../resources/svg/common.svg#monster" x="113.28125" y="-89.84375" id="object_13" class="player" transform="rotate(177.890625 113.28125 -89.84375)" />
<use xlink:href="../resources/svg/common.svg#monster" x="136.71875" y="33.203125" id="object_14" class="player" transform="rotate(185.625 136.71875 33.203125)" />
<use xlink:href="../resources/svg/common.svg#monster" x="167.96875" y="33.203125" id="object_15" class="player" />
<!-- end group: "objects_player" -->
</g>
<!-- end group: "objects" -->
</g>
<g id="panels">
<use xlink:href="../resources/svg/common.svg#panel" x="54.6875" y="93.75" id="side_50" class="panel-light_switch" onmouseover="m_over('side_50');" onmouseout="m_out('side_50');" />
<use xlink:href="../resources/svg/common.svg#panel" x="281.25" y="70.3125" id="side_74" class="panel-light_switch" onmouseover="m_over('side_74');" onmouseout="m_out('side_74');" />
<!-- end group: "panels" -->
</g>

<script xlink:href="../resources/js/level.js" ></script>
</svg>