<?xml version="1.0" encoding="UTF-8"?>
<!-- generated by map2svg: github.com/fracai/marathon-svg -->
<svg xmlns="http://www.w3.org/2000/svg" xmlns:xlink="http://www.w3.org/1999/xlink" version="1.1"
    viewBox="-343.75 -62.5 1296.875 984.375">
<link xmlns="http://www.w3.org/1999/xhtml" rel="stylesheet" href="../resources/css/styles.css" type="text/css" />
<style id="dynamic-style" />
<g id="background-grid">
<defs>
<pattern id="grid_minor" width="3.125" height="3.125" patternUnits="userSpaceOnUse">
<path d="M 3.125 0 L 0 0 0 3.125" fill="none" class="grid_minor" />
</pattern>
<pattern id="grid_major" width="31.25" height="31.25" patternUnits="userSpaceOnUse">
<rect width="31.25" height="31.25" fill="url(#grid_minor)"/>
<path d="M 31.25 0 L 0 0 0 31.25" fill="none" class="grid_major" />
</pattern>
</defs>
<rect x="-1000" y="-1000" width="2000" height="2000" fill="url(#grid_major)" />
<line x1="0" y1="1000" x2="0" y2="-1000" class="grid_origin" />
<line x1="1000" y1="0" x2="-1000" y2="0" class="grid_origin" />
<!-- end group: "background-grid" -->
</g>
<g id="polygons">
<polygon points="456.23779296875,400.08544921875 463.8671875,401.3671875 458.0078125,439.453125 450.62255859375,437.98828125" id="poly_86" class="platform" />
<polygon points="463.8671875,401.3671875 515.13671875,402.34375 507.8125,449.70703125 458.0078125,439.453125" id="poly_87" class="plain" />
<polygon points="191.83349609375,347.7783203125 276.85546875,347.7783203125 276.85546875,430.23681640625 191.83349609375,430.23681640625" id="poly_12" class="plain" />
<polygon points="343.32275390625,327.08740234375 415.008544921875,327.08740234375 442.19970703125,356.5673828125 456.23779296875,400.08544921875 450.62255859375,437.98828125 436.58447265625,463.2568359375 405.82275390625,467.71240234375 343.32275390625,467.71240234375" id="poly_19" class="plain" />
<polygon points="342.529296875,312.80517578125 402.557373046875,312.80517578125 415.008544921875,327.08740234375 343.32275390625,327.08740234375" id="poly_20" class="plain" />
<polygon points="11.505126953125,207.58056640625 118.865966796875,185.302734375 22.125244140625,219.024658203125" id="poly_22" class="plain" />
<polygon points="10.833740234375,261.077880859375 22.125244140625,250.274658203125 118.865966796875,312.80517578125" id="poly_23" class="plain" />
<polygon points="22.125244140625,219.024658203125 118.865966796875,185.302734375 118.865966796875,312.80517578125 22.125244140625,250.274658203125" id="poly_24" class="plain" />
<polygon points="210.9375,107.666015625 272.4609375,107.666015625 316.40625,284.1796875 168.9453125,284.1796875" id="poly_25" class="plain" />
<polygon points="168.9453125,284.1796875 316.40625,284.1796875 277.557373046875,312.80517578125 196.990966796875,312.80517578125" id="poly_26" class="plain" />
<polygon points="316.40625,284.1796875 342.529296875,312.80517578125 277.557373046875,312.80517578125" id="poly_27" class="plain" />
<polygon points="118.865966796875,185.302734375 210.9375,107.666015625 168.9453125,284.1796875 118.865966796875,312.80517578125" id="poly_28" class="plain" />
<polygon points="168.9453125,284.1796875 196.990966796875,312.80517578125 118.865966796875,312.80517578125" id="poly_29" class="plain" />
<polygon points="272.4609375,107.666015625 402.557373046875,187.80517578125 316.40625,284.1796875" id="poly_90" class="plain" />
<polygon points="402.557373046875,187.80517578125 402.557373046875,312.80517578125 342.529296875,312.80517578125 316.40625,284.1796875" id="poly_91" class="plain" />
<polygon points="187.5,343.75 281.25,343.75 276.85546875,347.7783203125 191.83349609375,347.7783203125" id="poly_13" class="plain" />
<polygon points="187.5,343.75 191.83349609375,347.7783203125 191.83349609375,430.23681640625 187.5,434.50927734375" id="poly_14" class="plain" />
<polygon points="191.83349609375,430.23681640625 276.85546875,430.23681640625 281.25,434.50927734375 187.5,434.50927734375" id="poly_15" class="plain" />
<polygon points="276.85546875,347.7783203125 281.25,343.75 281.25,434.50927734375 276.85546875,430.23681640625" id="poly_16" class="plain" />
<polygon points="281.25,343.75 343.32275390625,327.08740234375 343.32275390625,467.71240234375 281.25,434.50927734375" id="poly_17" class="plain" />
<polygon points="155.82275390625,327.08740234375 343.32275390625,327.08740234375 281.25,343.75 187.5,343.75" id="poly_18" class="plain" />
<polygon points="202.1484375,467.71240234375 221.160888671875,467.71240234375 221.160888671875,617.767333984375 202.1484375,617.767333984375" id="poly_30" class="plain" />
<polygon points="155.82275390625,327.08740234375 187.5,343.75 171.44775390625,358.33740234375 155.82275390625,358.33740234375" id="poly_32" class="plain" />
<polygon points="171.44775390625,389.58740234375 171.44775390625,373.96240234375 171.44775390625,358.33740234375 187.5,343.75 187.5,434.50927734375 171.44775390625,436.46240234375 171.44775390625,420.83740234375 171.44775390625,405.21240234375" id="poly_33" class="plain" />
<polygon points="155.82275390625,373.96240234375 171.44775390625,373.96240234375 171.44775390625,389.58740234375 155.82275390625,389.58740234375" id="poly_34" class="plain" />
<polygon points="155.82275390625,405.21240234375 171.44775390625,405.21240234375 171.44775390625,420.83740234375 155.82275390625,420.83740234375" id="poly_35" class="plain" />
<polygon points="171.44775390625,436.46240234375 187.5,434.50927734375 155.82275390625,467.71240234375" id="poly_36" class="plain" />
<polygon points="155.82275390625,436.46240234375 171.44775390625,436.46240234375 155.82275390625,467.71240234375" id="poly_37" class="plain" />
<polygon points="187.5,434.50927734375 281.25,434.50927734375 343.32275390625,467.71240234375 332.21435546875,467.71240234375 221.160888671875,467.71240234375 202.1484375,467.71240234375 155.82275390625,467.71240234375" id="poly_74" class="plain" />
<polygon points="214.2333984375,78.0029296875 269.1650390625,78.0029296875 272.4609375,107.666015625 210.9375,107.666015625" id="poly_0" class="plain" />
<polygon points="-30.76171875,218.6279296875 -19.744873046875,207.58056640625 11.505126953125,207.58056640625 22.125244140625,219.024658203125 22.125244140625,250.274658203125 10.833740234375,261.077880859375 -20.416259765625,261.077880859375 -30.76171875,249.93896484375" id="poly_21" class="plain" />
<polygon points="202.1484375,617.767333984375 221.160888671875,617.767333984375 221.160888671875,623.96240234375 202.1484375,623.96240234375" id="poly_31" class="plain" />
<polygon points="216.4306640625,57.12890625 266.9677734375,57.12890625 269.1650390625,78.0029296875 214.2333984375,78.0029296875" id="poly_1" class="plain" />
<polygon points="218.6279296875,36.2548828125 264.7705078125,36.2548828125 266.9677734375,57.12890625 216.4306640625,57.12890625" id="poly_2" class="plain" />
<polygon points="220.3369140625,15.869140625 262.451171875,15.869140625 264.7705078125,36.2548828125 218.6279296875,36.2548828125" id="poly_3" class="plain" />
<polygon points="187.5,-31.25 296.875,-31.25 296.875,15.625 262.451171875,15.869140625 220.3369140625,15.869140625 187.5,15.625" id="poly_103" class="plain" />
<polygon points="140.625,-31.25 187.5,-31.25 187.5,15.625 140.625,15.625" id="poly_7" class="plain" />
<polygon points="296.875,-31.25 343.75,-31.25 343.75,15.625 296.875,15.625" id="poly_11" class="plain" />
<polygon points="140.625,15.625 187.5,15.625 187.5,31.25 140.625,31.25" id="poly_4" class="plain" />
<polygon points="296.875,15.625 343.75,15.625 343.75,31.25 296.875,31.25" id="poly_10" class="plain" />
<polygon points="140.625,31.25 187.5,31.25 187.5,46.875 140.625,46.875" id="poly_5" class="plain" />
<polygon points="296.875,31.25 343.75,31.25 343.75,46.875 296.875,46.875" id="poly_8" class="plain" />
<polygon points="140.625,46.875 187.5,46.875 189.697265625,61.5234375 140.625,62.5" id="poly_6" class="plain" />
<polygon points="296.875,46.875 343.75,46.875 343.75,62.5 293.51806640625,61.5234375" id="poly_9" class="plain" />
<polygon points="293.51806640625,61.5234375 343.75,62.5 343.75,78.125 294.7998046875,76.904296875" id="poly_127" class="plain" />
<polygon points="140.625,62.5 189.697265625,61.5234375 188.41552734375,76.904296875 140.625,78.125" id="poly_128" class="plain" />
<polygon points="189.697265625,61.5234375 293.51806640625,61.5234375 294.7998046875,76.904296875 188.41552734375,76.904296875" id="poly_129" class="plain" />
<polygon points="140.625,78.125 188.41552734375,76.904296875 294.7998046875,76.904296875 343.75,78.125 343.75,93.75 140.625,93.75" id="poly_130" class="plain" />
<polygon points="140.625,93.75 343.75,93.75 343.75,109.375 140.625,109.375" id="poly_108" class="plain" />
<polygon points="140.625,109.375 343.75,109.375 343.75,125.0 140.625,125.0" id="poly_107" class="plain" />
<polygon points="140.625,125.0 343.75,125.0 343.75,140.625 140.625,140.625" id="poly_106" class="plain" />
<polygon points="195.3125,453.125 226.5625,453.125 226.5625,457.03125 195.3125,457.03125" id="poly_38" class="plain" />
<polygon points="195.3125,457.03125 226.5625,457.03125 226.5625,460.9375 195.3125,460.9375" id="poly_83" class="platform" />
<polygon points="195.3125,460.9375 226.5625,460.9375 226.5625,468.75 195.3125,468.75" id="poly_84" class="plain" />
<polygon points="820.3125,726.5625 835.9375,726.5625 835.9375,734.375 820.3125,734.375" id="poly_131" class="platform" />
<polygon points="820.3125,710.9375 835.9375,710.9375 835.9375,726.5625 820.3125,726.5625" id="poly_132" class="teleporter" />
<polygon points="285.33935546875,565.185546875 316.58935546875,565.185546875 316.58935546875,568.267822265625 285.33935546875,568.267822265625" id="poly_54" class="plain" />
<polygon points="285.33935546875,599.517822265625 316.58935546875,599.517822265625 316.58935546875,602.23388671875 285.33935546875,602.23388671875" id="poly_56" class="plain" />
<polygon points="285.33935546875,633.48388671875 316.58935546875,633.48388671875 316.58935546875,636.474609375 285.33935546875,636.474609375" id="poly_58" class="plain" />
<polygon points="285.33935546875,736.2060546875 316.58935546875,736.2060546875 316.58935546875,739.19677734375 285.33935546875,739.19677734375" id="poly_59" class="plain" />
<polygon points="285.33935546875,701.96533203125 316.58935546875,701.96533203125 316.58935546875,704.9560546875 285.33935546875,704.9560546875" id="poly_61" class="plain" />
<polygon points="285.33935546875,667.724609375 316.58935546875,667.724609375 316.58935546875,670.71533203125 285.33935546875,670.71533203125" id="poly_64" class="plain" />
<polygon points="56.640625,234.2529296875 62.347412109375,234.2529296875 62.347412109375,328.0029296875 56.640625,328.0029296875" id="poly_39" class="plain" />
<polygon points="269.71435546875,568.267822265625 285.33935546875,568.267822265625 316.58935546875,568.267822265625 332.21435546875,568.267822265625 332.21435546875,599.517822265625 316.58935546875,599.517822265625 285.33935546875,599.517822265625 269.71435546875,599.517822265625" id="poly_55" class="plain" />
<polygon points="269.71435546875,602.23388671875 285.33935546875,602.23388671875 316.58935546875,602.23388671875 332.21435546875,602.23388671875 332.21435546875,633.48388671875 316.58935546875,633.48388671875 285.33935546875,633.48388671875 269.71435546875,633.48388671875" id="poly_57" class="plain" />
<polygon points="269.71435546875,704.9560546875 285.33935546875,704.9560546875 316.58935546875,704.9560546875 332.21435546875,704.9560546875 332.21435546875,736.2060546875 316.58935546875,736.2060546875 285.33935546875,736.2060546875 269.71435546875,736.2060546875" id="poly_60" class="plain" />
<polygon points="269.71435546875,670.71533203125 285.33935546875,670.71533203125 316.58935546875,670.71533203125 332.21435546875,670.71533203125 332.21435546875,701.96533203125 316.58935546875,701.96533203125 285.33935546875,701.96533203125 269.71435546875,701.96533203125" id="poly_62" class="plain" />
<polygon points="269.71435546875,636.474609375 285.33935546875,636.474609375 316.58935546875,636.474609375 332.21435546875,636.474609375 332.21435546875,667.724609375 316.58935546875,667.724609375 285.33935546875,667.724609375 269.71435546875,667.724609375" id="poly_63" class="plain" />
<polygon points="496.09375,468.75 629.08935546875,492.1875 535.33935546875,523.4375 496.09375,500.0" id="poly_69" class="plain" />
<polygon points="379.08935546875,679.6875 425.96435546875,679.6875 425.96435546875,804.6875 379.08935546875,804.6875" id="poly_70" class="plain" />
<polygon points="441.58935546875,679.6875 441.58935546875,648.4375 472.83935546875,648.4375 472.83935546875,726.5625 441.58935546875,726.5625" id="poly_71" class="plain" />
<polygon points="535.33935546875,523.4375 629.08935546875,492.1875 629.08935546875,673.828125 535.33935546875,673.828125" id="poly_72" class="plain" />
<polygon points="425.96435546875,804.6875 535.33935546875,804.6875 535.33935546875,835.9375 425.96435546875,835.9375" id="poly_73" class="plain" />
<polygon points="332.03125,468.75 496.09375,468.75 496.09375,500.0 332.03125,500.0" id="poly_75" class="plain" />
<polygon points="535.33935546875,673.828125 629.08935546875,673.828125 629.08935546875,804.6875 535.33935546875,804.6875" id="poly_76" class="plain" />
<polygon points="535.33935546875,804.6875 629.08935546875,804.6875 629.08935546875,835.9375 535.33935546875,835.9375" id="poly_77" class="plain" />
<polygon points="379.08935546875,804.6875 425.96435546875,804.6875 425.96435546875,835.9375 379.08935546875,835.9375" id="poly_78" class="plain" />
<polygon points="269.71435546875,804.6875 332.21435546875,804.6875 379.08935546875,804.6875 379.08935546875,835.9375 269.71435546875,835.9375" id="poly_79" class="plain" />
<polygon points="379.08935546875,648.4375 425.96435546875,648.4375 425.96435546875,679.6875 379.08935546875,679.6875" id="poly_80" class="plain" />
<polygon points="425.96435546875,648.4375 441.58935546875,648.4375 441.58935546875,679.6875 425.96435546875,679.6875" id="poly_81" class="plain" />
<polygon points="269.53125,468.75 332.03125,468.75 332.03125,500.0 269.53125,500.0" id="poly_82" class="plain" />
<polygon points="175.78125,468.75 195.3125,468.75 226.5625,468.75 269.53125,468.75 269.53125,500.0 175.78125,500.0" id="poly_85" class="plain" />
<polygon points="379.08935546875,835.9375 425.96435546875,835.9375 425.9033203125,841.1865234375 379.0283203125,841.1865234375" id="poly_88" class="platform" />
<polygon points="379.0283203125,841.1865234375 425.9033203125,841.1865234375 425.9033203125,871.2158203125 379.0283203125,871.2158203125" id="poly_89" class="plain" />
<polygon points="269.53125,500.0 332.03125,500.0 332.21435546875,565.185546875 316.58935546875,565.185546875 285.33935546875,565.185546875 269.71435546875,565.185546875" id="poly_92" class="plain" />
<polygon points="269.71435546875,739.19677734375 285.33935546875,739.19677734375 316.58935546875,739.19677734375 332.21435546875,739.19677734375 332.21435546875,804.6875 269.71435546875,804.6875" id="poly_93" class="plain" />
<polygon points="62.347412109375,234.2529296875 231.8115234375,234.0087890625 296.875,328.125 187.5,328.125 62.347412109375,328.0029296875" id="poly_102" class="plain" />
<polygon points="343.75,140.625 452.972412109375,234.2529296875 452.1484375,328.125 296.875,328.125 231.8115234375,234.0087890625 231.8115234375,202.1484375" id="poly_104" class="plain" />
<polygon points="140.625,140.625 343.75,140.625 231.8115234375,202.1484375 140.625,202.1484375" id="poly_105" class="plain" />
<polygon points="187.5,328.125 296.875,328.125 296.875,425.78125 226.5625,425.78125 195.3125,425.78125 187.5,425.78125" id="poly_109" class="plain" />
<polygon points="195.3125,425.78125 226.5625,425.78125 226.5625,453.125 195.3125,453.125" id="poly_110" class="plain" />
<polygon points="812.5,750.0 820.3125,750.0 835.9375,750.0 851.5625,750.0 851.5625,875.0 835.9375,875.0 820.3125,875.0 812.5,875.0" id="poly_111" class="plain" />
<polygon points="851.5625,750.0 867.1875,750.0 906.25,789.0625 906.25,804.6875 906.25,820.3125 906.25,835.9375 867.1875,875.0 851.5625,875.0" id="poly_112" class="plain" />
<polygon points="867.1875,750.0 882.8125,750.0 898.4375,750.0 906.25,750.0 906.25,757.8125 906.25,773.4375 906.25,789.0625" id="poly_113" class="plain" />
<polygon points="906.25,835.9375 906.25,851.5625 906.25,867.1875 906.25,875.0 898.4375,875.0 882.8125,875.0 867.1875,875.0" id="poly_114" class="plain" />
<polygon points="820.3125,875.0 835.9375,875.0 835.9375,890.625 820.3125,890.625" id="poly_115" class="plain" />
<polygon points="851.5625,875.0 867.1875,875.0 867.1875,890.625 851.5625,890.625" id="poly_116" class="plain" />
<polygon points="882.8125,875.0 898.4375,875.0 898.4375,890.625 882.8125,890.625" id="poly_117" class="plain" />
<polygon points="906.25,851.5625 921.875,851.5625 921.875,867.1875 906.25,867.1875" id="poly_118" class="plain" />
<polygon points="906.25,820.3125 921.875,820.3125 921.875,835.9375 906.25,835.9375" id="poly_119" class="plain" />
<polygon points="906.25,789.0625 921.875,789.0625 921.875,804.6875 906.25,804.6875" id="poly_120" class="plain" />
<polygon points="906.25,757.8125 921.875,757.8125 921.875,773.4375 906.25,773.4375" id="poly_121" class="plain" />
<polygon points="882.8125,734.375 898.4375,734.375 898.4375,750.0 882.8125,750.0" id="poly_122" class="plain" />
<polygon points="851.5625,734.375 867.1875,734.375 867.1875,750.0 851.5625,750.0" id="poly_123" class="plain" />
<polygon points="820.3125,734.375 835.9375,734.375 835.9375,750.0 820.3125,750.0" id="poly_124" class="plain" />
<polygon points="750.0,750.0 812.5,750.0 812.5,875.0 750.0,875.0 750.0,835.9375 750.0,804.6875" id="poly_125" class="plain" />
<polygon points="629.08935546875,804.6875 750.0,804.6875 750.0,835.9375 629.08935546875,835.9375" id="poly_126" class="plain" />
<polygon points="-76.416015625,119.20166015625 -48.492431640625,119.20166015625 -16.021728515625,119.20166015625 17.76123046875,119.20166015625 56.640625,234.2529296875 -159.7900390625,233.2763671875" id="poly_98" class="plain" />
<polygon points="-159.7900390625,233.2763671875 56.640625,234.2529296875 56.640625,328.0029296875 17.4560546875,365.234375 -87.95166015625,365.234375 -160.125732421875,324.27978515625" id="poly_99" class="plain" />
<polygon points="56.640625,328.0029296875 61.4013671875,342.803955078125 17.4560546875,365.234375" id="poly_44" class="plain" />
<polygon points="61.4013671875,342.803955078125 67.3828125,361.328125 17.4560546875,365.234375" id="poly_45" class="plain" />
<polygon points="17.4560546875,365.234375 67.3828125,361.328125 61.03515625,380.340576171875" id="poly_46" class="plain" />
<polygon points="17.4560546875,365.234375 61.03515625,380.340576171875 55.6640625,396.484375" id="poly_47" class="plain" />
<polygon points="17.4560546875,365.234375 55.6640625,396.484375 36.529541015625,408.233642578125" id="poly_48" class="plain" />
<polygon points="17.39501953125,372.9248046875 17.4560546875,365.234375 36.529541015625,408.233642578125 17.578125,419.921875" id="poly_49" class="plain" />
<polygon points="-90.8203125,373.046875 17.39501953125,372.9248046875 17.578125,419.921875 -91.796875,419.921875" id="poly_43" class="plain" />
<polygon points="-253.41796875,263.671875 -250.0,263.671875 -250.0,294.921875 -253.41796875,294.921875" id="poly_53" class="platform" />
<polygon points="-250.0,263.671875 -250.0,232.421875 -167.694091796875,233.2763671875 -167.816162109375,327.69775390625 -250.0,326.171875 -250.0,294.921875" id="poly_68" class="plain" />
<polygon points="-284.11865234375,232.421875 -253.41796875,232.421875 -253.41796875,263.671875 -253.41796875,294.921875 -253.41796875,326.171875 -284.11865234375,326.171875 -284.11865234375,294.921875 -284.11865234375,263.671875" id="poly_94" class="plain" />
<polygon points="-250.0,326.171875 -167.816162109375,327.69775390625 -90.8203125,373.046875 -91.796875,419.921875" id="poly_96" class="plain" />
<polygon points="-312.5,263.671875 -284.11865234375,263.671875 -284.11865234375,294.921875 -312.5,294.921875" id="poly_51" class="platform" />
<polygon points="-167.694091796875,233.2763671875 -159.7900390625,233.2763671875 -160.125732421875,324.27978515625 -167.816162109375,327.69775390625" id="poly_40" class="plain" />
<polygon points="-167.816162109375,327.69775390625 -160.125732421875,324.27978515625 -87.95166015625,365.234375 -90.8203125,373.046875" id="poly_41" class="plain" />
<polygon points="-87.95166015625,365.234375 17.4560546875,365.234375 17.39501953125,372.9248046875 -90.8203125,373.046875" id="poly_42" class="plain" />
<polygon points="-312.5,232.421875 -284.11865234375,232.421875 -284.11865234375,263.671875 -312.5,263.671875" id="poly_50" class="plain" />
<polygon points="-312.5,294.921875 -284.11865234375,294.921875 -284.11865234375,326.171875 -312.5,326.171875" id="poly_52" class="plain" />
<polygon points="-91.888427734375,424.041748046875 17.578125,423.52294921875 16.4794921875,450.98876953125 -92.28515625,450.98876953125" id="poly_65" class="plain" />
<polygon points="-312.5,326.171875 -284.11865234375,326.171875 -253.41796875,326.171875 -252.685546875,329.04052734375 -250.67138671875,361.2060546875" id="poly_66" class="plain" />
<polygon points="-257.293701171875,199.0966796875 -253.7841796875,228.515625 -253.41796875,232.421875 -284.11865234375,232.421875 -312.5,232.421875" id="poly_67" class="plain" />
<polygon points="-250.67138671875,361.2060546875 -252.685546875,329.04052734375 -91.888427734375,424.041748046875 -92.28515625,450.98876953125" id="poly_97" class="plain" />
<polygon points="-77.45361328125,90.63720703125 18.6767578125,90.63720703125 17.852783203125,115.05126953125 -16.021728515625,115.3564453125 -48.492431640625,115.3564453125 -76.47705078125,115.142822265625" id="poly_100" class="plain" />
<polygon points="-77.45361328125,90.63720703125 -76.47705078125,115.142822265625 -253.7841796875,228.515625 -257.293701171875,199.0966796875" id="poly_101" class="plain" />
<polygon points="-48.492431640625,115.3564453125 -16.021728515625,115.3564453125 -16.021728515625,119.20166015625 -48.492431640625,119.20166015625" id="poly_95" class="plain" />
<!-- end group: "polygons" -->
</g>
<g id="borders">
<g id="border_unconnected">
<line x1="17.578125" y1="419.921875" x2="17.578125" y2="423.52294921875" id="line_179" class="unconnected" />
<line x1="-76.47705078125" y1="115.142822265625" x2="-76.416015625" y2="119.20166015625" id="line_349" class="unconnected" />
<!-- end group: "border_unconnected" -->
</g>
<g id="border_landscape_">
<line x1="221.160888671875" y1="623.96240234375" x2="202.1484375" y2="623.96240234375" id="line_114" class="landscape_" />
<!-- end group: "border_landscape_" -->
</g>
<g id="border_plain">
<line x1="342.529296875" y1="312.80517578125" x2="402.557373046875" y2="312.80517578125" id="line_45" class="plain" />
<line x1="168.9453125" y1="284.1796875" x2="210.9375" y2="107.666015625" id="line_46" class="plain" />
<line x1="316.40625" y1="284.1796875" x2="277.557373046875" y2="312.80517578125" id="line_48" class="plain" />
<line x1="296.875" y1="328.125" x2="187.5" y2="328.125" id="line_57" class="plain" />
<line x1="187.5" y1="343.75" x2="281.25" y2="343.75" id="line_63" class="plain" />
<line x1="281.25" y1="343.75" x2="276.85546875" y2="347.7783203125" id="line_65" class="plain" />
<line x1="191.83349609375" y1="347.7783203125" x2="187.5" y2="343.75" id="line_66" class="plain" />
<line x1="187.5" y1="434.50927734375" x2="187.5" y2="343.75" id="line_67" class="plain" />
<line x1="191.83349609375" y1="430.23681640625" x2="191.83349609375" y2="347.7783203125" id="line_68" class="plain" />
<line x1="191.83349609375" y1="430.23681640625" x2="187.5" y2="434.50927734375" id="line_69" class="plain" />
<line x1="281.25" y1="343.75" x2="281.25" y2="434.50927734375" id="line_71" class="plain" />
<line x1="281.25" y1="434.50927734375" x2="187.5" y2="434.50927734375" id="line_72" class="plain" />
<line x1="276.85546875" y1="430.23681640625" x2="281.25" y2="434.50927734375" id="line_74" class="plain" />
<line x1="187.5" y1="343.75" x2="155.82275390625" y2="327.08740234375" id="line_86" class="plain" />
<line x1="187.5" y1="434.50927734375" x2="155.82275390625" y2="467.71240234375" id="line_87" class="plain" />
<line x1="343.32275390625" y1="467.71240234375" x2="281.25" y2="434.50927734375" id="line_88" class="plain" />
<line x1="281.25" y1="343.75" x2="343.32275390625" y2="327.08740234375" id="line_89" class="plain" />
<line x1="343.32275390625" y1="327.08740234375" x2="415.008544921875" y2="327.08740234375" id="line_91" class="plain" />
<line x1="22.125244140625" y1="250.274658203125" x2="118.865966796875" y2="312.80517578125" id="line_101" class="plain" />
<line x1="118.865966796875" y1="185.302734375" x2="22.125244140625" y2="219.024658203125" id="line_102" class="plain" />
<line x1="118.865966796875" y1="185.302734375" x2="118.865966796875" y2="312.80517578125" id="line_104" class="plain" />
<line x1="196.990966796875" y1="312.80517578125" x2="168.9453125" y2="284.1796875" id="line_105" class="plain" />
<line x1="272.4609375" y1="107.666015625" x2="316.40625" y2="284.1796875" id="line_106" class="plain" />
<line x1="316.40625" y1="284.1796875" x2="168.9453125" y2="284.1796875" id="line_107" class="plain" />
<line x1="316.40625" y1="284.1796875" x2="342.529296875" y2="312.80517578125" id="line_108" class="plain" />
<line x1="168.9453125" y1="284.1796875" x2="118.865966796875" y2="312.80517578125" id="line_109" class="plain" />
<line x1="202.1484375" y1="467.71240234375" x2="221.160888671875" y2="467.71240234375" id="line_112" class="plain" />
<line x1="171.44775390625" y1="389.58740234375" x2="171.44775390625" y2="373.96240234375" id="line_131" class="plain" />
<line x1="171.44775390625" y1="420.83740234375" x2="171.44775390625" y2="405.21240234375" id="line_132" class="plain" />
<line x1="187.5" y1="434.50927734375" x2="171.44775390625" y2="436.46240234375" id="line_133" class="plain" />
<line x1="187.5" y1="343.75" x2="171.44775390625" y2="358.33740234375" id="line_134" class="plain" />
<line x1="155.82275390625" y1="467.71240234375" x2="171.44775390625" y2="436.46240234375" id="line_135" class="plain" />
<line x1="62.347412109375" y1="234.2529296875" x2="62.347412109375" y2="328.0029296875" id="line_146" class="plain" />
<line x1="-160.125732421875" y1="324.27978515625" x2="-167.816162109375" y2="327.69775390625" id="line_158" class="plain" />
<line x1="-87.95166015625" y1="365.234375" x2="-90.8203125" y2="373.046875" id="line_159" class="plain" />
<line x1="-91.796875" y1="419.921875" x2="-90.8203125" y2="373.046875" id="line_164" class="plain" />
<line x1="-284.11865234375" y1="326.171875" x2="-312.5" y2="326.171875" id="line_176" class="plain" />
<line x1="-312.5" y1="232.421875" x2="-284.11865234375" y2="232.421875" id="line_192" class="plain" />
<line x1="496.09375" y1="500.0" x2="496.09375" y2="468.75" id="line_202" class="plain" />
<line x1="332.03125" y1="500.0" x2="269.53125" y2="500.0" id="line_203" class="plain" />
<line x1="269.71435546875" y1="804.6875" x2="332.21435546875" y2="804.6875" id="line_256" class="plain" />
<line x1="-92.28515625" y1="450.98876953125" x2="-91.888427734375" y2="424.041748046875" id="line_265" class="plain" />
<line x1="-252.685546875" y1="329.04052734375" x2="-250.67138671875" y2="361.2060546875" id="line_269" class="plain" />
<line x1="-257.293701171875" y1="199.0966796875" x2="-253.7841796875" y2="228.515625" id="line_272" class="plain" />
<line x1="-167.816162109375" y1="327.69775390625" x2="-250.0" y2="326.171875" id="line_276" class="plain" />
<line x1="441.58935546875" y1="679.6875" x2="441.58935546875" y2="648.4375" id="line_291" class="plain" />
<line x1="379.08935546875" y1="679.6875" x2="425.96435546875" y2="679.6875" id="line_293" class="plain" />
<line x1="425.96435546875" y1="804.6875" x2="379.08935546875" y2="804.6875" id="line_294" class="plain" />
<line x1="535.33935546875" y1="804.6875" x2="535.33935546875" y2="835.9375" id="line_296" class="plain" />
<line x1="629.08935546875" y1="492.1875" x2="535.33935546875" y2="523.4375" id="line_299" class="plain" />
<line x1="425.96435546875" y1="835.9375" x2="425.96435546875" y2="804.6875" id="line_301" class="plain" />
<line x1="629.08935546875" y1="673.828125" x2="535.33935546875" y2="673.828125" id="line_304" class="plain" />
<line x1="332.03125" y1="500.0" x2="332.03125" y2="468.75" id="line_308" class="plain" />
<line x1="379.08935546875" y1="835.9375" x2="379.08935546875" y2="804.6875" id="line_310" class="plain" />
<line x1="425.96435546875" y1="648.4375" x2="425.96435546875" y2="679.6875" id="line_312" class="plain" />
<line x1="629.08935546875" y1="804.6875" x2="629.08935546875" y2="835.9375" id="line_313" class="plain" />
<line x1="629.08935546875" y1="804.6875" x2="535.33935546875" y2="804.6875" id="line_314" class="plain" />
<line x1="269.53125" y1="500.0" x2="269.53125" y2="468.75" id="line_316" class="plain" />
<line x1="402.557373046875" y1="187.80517578125" x2="316.40625" y2="284.1796875" id="line_334" class="plain" />
<line x1="-76.47705078125" y1="115.142822265625" x2="-77.45361328125" y2="90.63720703125" id="line_346" class="plain" />
<line x1="56.640625" y1="234.2529296875" x2="-159.7900390625" y2="233.2763671875" id="line_348" class="plain" />
<line x1="231.8115234375" y1="234.0087890625" x2="296.875" y2="328.125" id="line_357" class="plain" />
<line x1="231.8115234375" y1="202.1484375" x2="343.75" y2="140.625" id="line_361" class="plain" />
<line x1="226.5625" y1="425.78125" x2="195.3125" y2="425.78125" id="line_370" class="plain" />
<line x1="812.5" y1="875.0" x2="812.5" y2="750.0" id="line_375" class="plain" />
<line x1="750.0" y1="835.9375" x2="750.0" y2="804.6875" id="line_378" class="plain" />
<line x1="906.25" y1="757.8125" x2="906.25" y2="773.4375" id="line_422" class="plain" />
<line x1="906.25" y1="789.0625" x2="906.25" y2="804.6875" id="line_423" class="plain" />
<line x1="906.25" y1="820.3125" x2="906.25" y2="835.9375" id="line_424" class="plain" />
<line x1="906.25" y1="851.5625" x2="906.25" y2="867.1875" id="line_425" class="plain" />
<line x1="898.4375" y1="875.0" x2="882.8125" y2="875.0" id="line_426" class="plain" />
<line x1="867.1875" y1="875.0" x2="851.5625" y2="875.0" id="line_427" class="plain" />
<line x1="835.9375" y1="875.0" x2="820.3125" y2="875.0" id="line_428" class="plain" />
<line x1="882.8125" y1="750.0" x2="898.4375" y2="750.0" id="line_429" class="plain" />
<line x1="851.5625" y1="750.0" x2="867.1875" y2="750.0" id="line_430" class="plain" />
<line x1="820.3125" y1="750.0" x2="835.9375" y2="750.0" id="line_431" class="plain" />
<line x1="867.1875" y1="750.0" x2="906.25" y2="789.0625" id="line_432" class="plain" />
<line x1="906.25" y1="835.9375" x2="867.1875" y2="875.0" id="line_433" class="plain" />
<line x1="851.5625" y1="750.0" x2="851.5625" y2="875.0" id="line_434" class="plain" />
<line x1="294.7998046875" y1="76.904296875" x2="293.51806640625" y2="61.5234375" id="line_436" class="plain" />
<line x1="189.697265625" y1="61.5234375" x2="188.41552734375" y2="76.904296875" id="line_438" class="plain" />
<!-- end group: "border_plain" -->
</g>
<g id="border_ceiling">
<line x1="272.4609375" y1="107.666015625" x2="210.9375" y2="107.666015625" id="line_0" class="ceiling" />
<line x1="191.83349609375" y1="347.7783203125" x2="276.85546875" y2="347.7783203125" id="line_64" class="ceiling" />
<line x1="276.85546875" y1="347.7783203125" x2="276.85546875" y2="430.23681640625" id="line_70" class="ceiling" />
<line x1="276.85546875" y1="430.23681640625" x2="191.83349609375" y2="430.23681640625" id="line_73" class="ceiling" />
<line x1="343.32275390625" y1="327.08740234375" x2="343.32275390625" y2="467.71240234375" id="line_85" class="ceiling" />
<line x1="195.3125" y1="453.125" x2="226.5625" y2="453.125" id="line_137" class="ceiling" />
<line x1="226.5625" y1="468.75" x2="195.3125" y2="468.75" id="line_145" class="ceiling" />
<line x1="56.640625" y1="328.0029296875" x2="56.640625" y2="234.2529296875" id="line_148" class="ceiling" />
<line x1="285.33935546875" y1="565.185546875" x2="316.58935546875" y2="565.185546875" id="line_205" class="ceiling" />
<line x1="316.58935546875" y1="568.267822265625" x2="285.33935546875" y2="568.267822265625" id="line_208" class="ceiling" />
<line x1="316.58935546875" y1="602.23388671875" x2="285.33935546875" y2="602.23388671875" id="line_215" class="ceiling" />
<line x1="316.58935546875" y1="599.517822265625" x2="285.33935546875" y2="599.517822265625" id="line_218" class="ceiling" />
<line x1="316.58935546875" y1="633.48388671875" x2="285.33935546875" y2="633.48388671875" id="line_225" class="ceiling" />
<line x1="316.58935546875" y1="636.474609375" x2="285.33935546875" y2="636.474609375" id="line_229" class="ceiling" />
<line x1="285.33935546875" y1="670.71533203125" x2="316.58935546875" y2="670.71533203125" id="line_234" class="ceiling" />
<line x1="285.33935546875" y1="701.96533203125" x2="316.58935546875" y2="701.96533203125" id="line_238" class="ceiling" />
<line x1="285.33935546875" y1="704.9560546875" x2="316.58935546875" y2="704.9560546875" id="line_242" class="ceiling" />
<line x1="316.58935546875" y1="739.19677734375" x2="285.33935546875" y2="739.19677734375" id="line_250" class="ceiling" />
<line x1="285.33935546875" y1="736.2060546875" x2="316.58935546875" y2="736.2060546875" id="line_254" class="ceiling" />
<line x1="316.58935546875" y1="667.724609375" x2="285.33935546875" y2="667.724609375" id="line_260" class="ceiling" />
<!-- end group: "border_ceiling" -->
</g>
<g id="border_elevation">
<line x1="216.4306640625" y1="57.12890625" x2="266.9677734375" y2="57.12890625" id="line_7" class="elevation" />
<line x1="218.6279296875" y1="36.2548828125" x2="264.7705078125" y2="36.2548828125" id="line_10" class="elevation" />
<line x1="214.2333984375" y1="78.0029296875" x2="269.1650390625" y2="78.0029296875" id="line_11" class="elevation" />
<line x1="220.3369140625" y1="15.869140625" x2="262.451171875" y2="15.869140625" id="line_15" class="elevation" />
<line x1="187.5" y1="31.25" x2="140.625" y2="31.25" id="line_17" class="elevation" />
<line x1="140.625" y1="15.625" x2="187.5" y2="15.625" id="line_18" class="elevation" />
<line x1="187.5" y1="46.875" x2="140.625" y2="46.875" id="line_21" class="elevation" />
<line x1="189.697265625" y1="61.5234375" x2="140.625" y2="62.5" id="line_24" class="elevation" />
<line x1="187.5" y1="-31.25" x2="187.5" y2="15.625" id="line_27" class="elevation" />
<line x1="343.75" y1="62.5" x2="293.51806640625" y2="61.5234375" id="line_28" class="elevation" />
<line x1="343.75" y1="46.875" x2="296.875" y2="46.875" id="line_31" class="elevation" />
<line x1="296.875" y1="31.25" x2="343.75" y2="31.25" id="line_34" class="elevation" />
<line x1="296.875" y1="15.625" x2="343.75" y2="15.625" id="line_38" class="elevation" />
<line x1="296.875" y1="15.625" x2="296.875" y2="-31.25" id="line_40" class="elevation" />
<line x1="11.505126953125" y1="207.58056640625" x2="22.125244140625" y2="219.024658203125" id="line_94" class="elevation" />
<line x1="22.125244140625" y1="219.024658203125" x2="22.125244140625" y2="250.274658203125" id="line_95" class="elevation" />
<line x1="22.125244140625" y1="250.274658203125" x2="10.833740234375" y2="261.077880859375" id="line_96" class="elevation" />
<line x1="221.160888671875" y1="617.767333984375" x2="202.1484375" y2="617.767333984375" id="line_117" class="elevation" />
<line x1="-159.7900390625" y1="233.2763671875" x2="-160.125732421875" y2="324.27978515625" id="line_150" class="elevation" />
<line x1="-87.95166015625" y1="365.234375" x2="17.4560546875" y2="365.234375" id="line_151" class="elevation" />
<line x1="17.4560546875" y1="365.234375" x2="56.640625" y2="328.0029296875" id="line_152" class="elevation" />
<line x1="-160.125732421875" y1="324.27978515625" x2="-87.95166015625" y2="365.234375" id="line_153" class="elevation" />
<line x1="-167.816162109375" y1="327.69775390625" x2="-167.694091796875" y2="233.2763671875" id="line_154" class="elevation" />
<line x1="-90.8203125" y1="373.046875" x2="-167.816162109375" y2="327.69775390625" id="line_155" class="elevation" />
<line x1="17.39501953125" y1="372.9248046875" x2="-90.8203125" y2="373.046875" id="line_156" class="elevation" />
<line x1="17.4560546875" y1="365.234375" x2="17.39501953125" y2="372.9248046875" id="line_160" class="elevation" />
<line x1="17.39501953125" y1="372.9248046875" x2="17.578125" y2="419.921875" id="line_165" class="elevation" />
<line x1="61.4013671875" y1="342.803955078125" x2="17.4560546875" y2="365.234375" id="line_169" class="elevation" />
<line x1="67.3828125" y1="361.328125" x2="17.4560546875" y2="365.234375" id="line_170" class="elevation" />
<line x1="61.03515625" y1="380.340576171875" x2="17.4560546875" y2="365.234375" id="line_172" class="elevation" />
<line x1="55.6640625" y1="396.484375" x2="17.4560546875" y2="365.234375" id="line_173" class="elevation" />
<line x1="36.529541015625" y1="408.233642578125" x2="17.4560546875" y2="365.234375" id="line_175" class="elevation" />
<line x1="-284.11865234375" y1="232.421875" x2="-284.11865234375" y2="263.671875" id="line_193" class="elevation" />
<line x1="-284.11865234375" y1="326.171875" x2="-253.41796875" y2="326.171875" id="line_194" class="elevation" />
<line x1="-284.11865234375" y1="294.921875" x2="-284.11865234375" y2="326.171875" id="line_195" class="elevation" />
<line x1="-253.41796875" y1="232.421875" x2="-284.11865234375" y2="232.421875" id="line_196" class="elevation" />
<line x1="-16.021728515625" y1="119.20166015625" x2="-48.492431640625" y2="119.20166015625" id="line_275" class="elevation" />
<line x1="-48.492431640625" y1="115.3564453125" x2="-16.021728515625" y2="115.3564453125" id="line_343" class="elevation" />
<line x1="140.625" y1="140.625" x2="343.75" y2="140.625" id="line_360" class="elevation" />
<line x1="140.625" y1="125.0" x2="343.75" y2="125.0" id="line_362" class="elevation" />
<line x1="140.625" y1="109.375" x2="343.75" y2="109.375" id="line_363" class="elevation" />
<line x1="140.625" y1="93.75" x2="343.75" y2="93.75" id="line_364" class="elevation" />
<line x1="188.41552734375" y1="76.904296875" x2="140.625" y2="78.125" id="line_365" class="elevation" />
<line x1="343.75" y1="78.125" x2="294.7998046875" y2="76.904296875" id="line_435" class="elevation" />
<line x1="294.7998046875" y1="76.904296875" x2="188.41552734375" y2="76.904296875" id="line_437" class="elevation" />
<!-- end group: "border_elevation" -->
</g>
<g id="border_solid">
<line x1="210.9375" y1="107.666015625" x2="214.2333984375" y2="78.0029296875" id="line_1" class="solid" />
<line x1="269.1650390625" y1="78.0029296875" x2="272.4609375" y2="107.666015625" id="line_2" class="solid" />
<line x1="214.2333984375" y1="78.0029296875" x2="216.4306640625" y2="57.12890625" id="line_3" class="solid" />
<line x1="266.9677734375" y1="57.12890625" x2="269.1650390625" y2="78.0029296875" id="line_4" class="solid" />
<line x1="216.4306640625" y1="57.12890625" x2="218.6279296875" y2="36.2548828125" id="line_5" class="solid" />
<line x1="264.7705078125" y1="36.2548828125" x2="266.9677734375" y2="57.12890625" id="line_6" class="solid" />
<line x1="218.6279296875" y1="36.2548828125" x2="220.3369140625" y2="15.869140625" id="line_8" class="solid" />
<line x1="262.451171875" y1="15.869140625" x2="264.7705078125" y2="36.2548828125" id="line_9" class="solid" />
<line x1="140.625" y1="-31.25" x2="187.5" y2="-31.25" id="line_12" class="solid" />
<line x1="140.625" y1="15.625" x2="140.625" y2="-31.25" id="line_13" class="solid" />
<line x1="220.3369140625" y1="15.869140625" x2="187.5" y2="15.625" id="line_14" class="solid" />
<line x1="140.625" y1="31.25" x2="140.625" y2="15.625" id="line_16" class="solid" />
<line x1="187.5" y1="15.625" x2="187.5" y2="31.25" id="line_19" class="solid" />
<line x1="140.625" y1="46.875" x2="140.625" y2="31.25" id="line_20" class="solid" />
<line x1="187.5" y1="31.25" x2="187.5" y2="46.875" id="line_22" class="solid" />
<line x1="140.625" y1="62.5" x2="140.625" y2="46.875" id="line_23" class="solid" />
<line x1="187.5" y1="46.875" x2="189.697265625" y2="61.5234375" id="line_25" class="solid" />
<line x1="140.625" y1="78.125" x2="140.625" y2="62.5" id="line_26" class="solid" />
<line x1="343.75" y1="62.5" x2="343.75" y2="78.125" id="line_29" class="solid" />
<line x1="293.51806640625" y1="61.5234375" x2="296.875" y2="46.875" id="line_30" class="solid" />
<line x1="343.75" y1="46.875" x2="343.75" y2="62.5" id="line_32" class="solid" />
<line x1="296.875" y1="46.875" x2="296.875" y2="31.25" id="line_33" class="solid" />
<line x1="343.75" y1="31.25" x2="343.75" y2="46.875" id="line_35" class="solid" />
<line x1="296.875" y1="31.25" x2="296.875" y2="15.625" id="line_36" class="solid" />
<line x1="343.75" y1="15.625" x2="343.75" y2="31.25" id="line_37" class="solid" />
<line x1="296.875" y1="15.625" x2="262.451171875" y2="15.869140625" id="line_39" class="solid" />
<line x1="296.875" y1="-31.25" x2="343.75" y2="-31.25" id="line_41" class="solid" />
<line x1="343.75" y1="-31.25" x2="343.75" y2="15.625" id="line_42" class="solid" />
<line x1="272.4609375" y1="107.666015625" x2="402.557373046875" y2="187.80517578125" id="line_43" class="solid" />
<line x1="402.557373046875" y1="187.80517578125" x2="402.557373046875" y2="312.80517578125" id="line_44" class="solid" />
<line x1="277.557373046875" y1="312.80517578125" x2="196.990966796875" y2="312.80517578125" id="line_47" class="solid" />
<line x1="189.697265625" y1="61.5234375" x2="293.51806640625" y2="61.5234375" id="line_49" class="solid" />
<line x1="140.625" y1="93.75" x2="140.625" y2="78.125" id="line_50" class="solid" />
<line x1="343.75" y1="78.125" x2="343.75" y2="93.75" id="line_51" class="solid" />
<line x1="140.625" y1="109.375" x2="140.625" y2="93.75" id="line_52" class="solid" />
<line x1="343.75" y1="93.75" x2="343.75" y2="109.375" id="line_53" class="solid" />
<line x1="140.625" y1="125.0" x2="140.625" y2="109.375" id="line_54" class="solid" />
<line x1="343.75" y1="109.375" x2="343.75" y2="125.0" id="line_55" class="solid" />
<line x1="187.5" y1="328.125" x2="62.347412109375" y2="328.0029296875" id="line_56" class="solid" />
<line x1="452.1484375" y1="328.125" x2="296.875" y2="328.125" id="line_58" class="solid" />
<line x1="452.972412109375" y1="234.2529296875" x2="452.1484375" y2="328.125" id="line_59" class="solid" />
<line x1="343.75" y1="125.0" x2="343.75" y2="140.625" id="line_60" class="solid" />
<line x1="118.865966796875" y1="185.302734375" x2="210.9375" y2="107.666015625" id="line_61" class="solid" />
<line x1="196.990966796875" y1="312.80517578125" x2="118.865966796875" y2="312.80517578125" id="line_62" class="solid" />
<line x1="155.82275390625" y1="327.08740234375" x2="343.32275390625" y2="327.08740234375" id="line_75" class="solid" />
<line x1="343.32275390625" y1="467.71240234375" x2="332.21435546875" y2="467.71240234375" id="line_76" class="solid" />
<line x1="402.557373046875" y1="312.80517578125" x2="415.008544921875" y2="327.08740234375" id="line_77" class="solid" />
<line x1="442.19970703125" y1="356.5673828125" x2="456.23779296875" y2="400.08544921875" id="line_78" class="solid" />
<line x1="456.23779296875" y1="400.08544921875" x2="450.62255859375" y2="437.98828125" id="line_79" class="solid" />
<line x1="450.62255859375" y1="437.98828125" x2="436.58447265625" y2="463.2568359375" id="line_80" class="solid" />
<line x1="436.58447265625" y1="463.2568359375" x2="405.82275390625" y2="467.71240234375" id="line_81" class="solid" />
<line x1="342.529296875" y1="312.80517578125" x2="277.557373046875" y2="312.80517578125" id="line_82" class="solid" />
<line x1="343.32275390625" y1="327.08740234375" x2="342.529296875" y2="312.80517578125" id="line_83" class="solid" />
<line x1="405.82275390625" y1="467.71240234375" x2="343.32275390625" y2="467.71240234375" id="line_84" class="solid" />
<line x1="415.008544921875" y1="327.08740234375" x2="442.19970703125" y2="356.5673828125" id="line_90" class="solid" />
<line x1="-30.76171875" y1="218.6279296875" x2="-19.744873046875" y2="207.58056640625" id="line_92" class="solid" />
<line x1="-19.744873046875" y1="207.58056640625" x2="11.505126953125" y2="207.58056640625" id="line_93" class="solid" />
<line x1="10.833740234375" y1="261.077880859375" x2="-20.416259765625" y2="261.077880859375" id="line_97" class="solid" />
<line x1="-20.416259765625" y1="261.077880859375" x2="-30.76171875" y2="249.93896484375" id="line_98" class="solid" />
<line x1="-30.76171875" y1="249.93896484375" x2="-30.76171875" y2="218.6279296875" id="line_99" class="solid" />
<line x1="118.865966796875" y1="312.80517578125" x2="10.833740234375" y2="261.077880859375" id="line_100" class="solid" />
<line x1="11.505126953125" y1="207.58056640625" x2="118.865966796875" y2="185.302734375" id="line_103" class="solid" />
<line x1="202.1484375" y1="467.71240234375" x2="155.82275390625" y2="467.71240234375" id="line_110" class="solid" />
<line x1="202.1484375" y1="617.767333984375" x2="202.1484375" y2="467.71240234375" id="line_111" class="solid" />
<line x1="221.160888671875" y1="467.71240234375" x2="221.160888671875" y2="617.767333984375" id="line_113" class="solid" />
<line x1="202.1484375" y1="623.96240234375" x2="202.1484375" y2="617.767333984375" id="line_115" class="solid" />
<line x1="221.160888671875" y1="617.767333984375" x2="221.160888671875" y2="623.96240234375" id="line_116" class="solid" />
<line x1="155.82275390625" y1="358.33740234375" x2="155.82275390625" y2="327.08740234375" id="line_118" class="solid" />
<line x1="171.44775390625" y1="358.33740234375" x2="155.82275390625" y2="358.33740234375" id="line_119" class="solid" />
<line x1="171.44775390625" y1="373.96240234375" x2="171.44775390625" y2="358.33740234375" id="line_120" class="solid" />
<line x1="155.82275390625" y1="373.96240234375" x2="171.44775390625" y2="373.96240234375" id="line_121" class="solid" />
<line x1="155.82275390625" y1="389.58740234375" x2="155.82275390625" y2="373.96240234375" id="line_122" class="solid" />
<line x1="171.44775390625" y1="389.58740234375" x2="155.82275390625" y2="389.58740234375" id="line_123" class="solid" />
<line x1="171.44775390625" y1="405.21240234375" x2="171.44775390625" y2="389.58740234375" id="line_124" class="solid" />
<line x1="155.82275390625" y1="405.21240234375" x2="171.44775390625" y2="405.21240234375" id="line_125" class="solid" />
<line x1="155.82275390625" y1="420.83740234375" x2="155.82275390625" y2="405.21240234375" id="line_126" class="solid" />
<line x1="171.44775390625" y1="420.83740234375" x2="155.82275390625" y2="420.83740234375" id="line_127" class="solid" />
<line x1="171.44775390625" y1="436.46240234375" x2="171.44775390625" y2="420.83740234375" id="line_128" class="solid" />
<line x1="155.82275390625" y1="436.46240234375" x2="171.44775390625" y2="436.46240234375" id="line_129" class="solid" />
<line x1="155.82275390625" y1="467.71240234375" x2="155.82275390625" y2="436.46240234375" id="line_130" class="solid" />
<line x1="195.3125" y1="453.125" x2="195.3125" y2="425.78125" id="line_136" class="solid" />
<line x1="226.5625" y1="425.78125" x2="226.5625" y2="453.125" id="line_138" class="solid" />
<line x1="195.3125" y1="457.03125" x2="195.3125" y2="453.125" id="line_139" class="solid" />
<line x1="226.5625" y1="457.03125" x2="195.3125" y2="457.03125" id="line_140" class="solid" />
<line x1="226.5625" y1="453.125" x2="226.5625" y2="457.03125" id="line_141" class="solid" />
<line x1="226.5625" y1="457.03125" x2="226.5625" y2="460.9375" id="line_142" class="solid" />
<line x1="175.78125" y1="500.0" x2="175.78125" y2="468.75" id="line_143" class="solid" />
<line x1="269.53125" y1="500.0" x2="175.78125" y2="500.0" id="line_144" class="solid" />
<line x1="56.640625" y1="234.2529296875" x2="62.347412109375" y2="234.2529296875" id="line_147" class="solid" />
<line x1="62.347412109375" y1="328.0029296875" x2="56.640625" y2="328.0029296875" id="line_149" class="solid" />
<line x1="-167.694091796875" y1="233.2763671875" x2="-159.7900390625" y2="233.2763671875" id="line_157" class="solid" />
<line x1="17.578125" y1="419.921875" x2="-91.796875" y2="419.921875" id="line_161" class="solid" />
<line x1="55.6640625" y1="396.484375" x2="36.529541015625" y2="408.233642578125" id="line_162" class="solid" />
<line x1="-250.0" y1="232.421875" x2="-167.694091796875" y2="233.2763671875" id="line_163" class="solid" />
<line x1="56.640625" y1="328.0029296875" x2="61.4013671875" y2="342.803955078125" id="line_166" class="solid" />
<line x1="67.3828125" y1="361.328125" x2="61.03515625" y2="380.340576171875" id="line_167" class="solid" />
<line x1="61.4013671875" y1="342.803955078125" x2="67.3828125" y2="361.328125" id="line_168" class="solid" />
<line x1="61.03515625" y1="380.340576171875" x2="55.6640625" y2="396.484375" id="line_171" class="solid" />
<line x1="36.529541015625" y1="408.233642578125" x2="17.578125" y2="419.921875" id="line_174" class="solid" />
<line x1="-92.28515625" y1="450.98876953125" x2="-250.67138671875" y2="361.2060546875" id="line_177" class="solid" />
<line x1="16.4794921875" y1="450.98876953125" x2="-92.28515625" y2="450.98876953125" id="line_178" class="solid" />
<line x1="-312.5" y1="232.421875" x2="-257.293701171875" y2="199.0966796875" id="line_180" class="solid" />
<line x1="-77.45361328125" y1="90.63720703125" x2="18.6767578125" y2="90.63720703125" id="line_181" class="solid" />
<line x1="18.6767578125" y1="90.63720703125" x2="17.852783203125" y2="115.05126953125" id="line_182" class="solid" />
<line x1="-250.0" y1="263.671875" x2="-250.0" y2="232.421875" id="line_183" class="solid" />
<line x1="-312.5" y1="326.171875" x2="-312.5" y2="294.921875" id="line_184" class="solid" />
<line x1="-312.5" y1="263.671875" x2="-312.5" y2="232.421875" id="line_185" class="solid" />
<line x1="-312.5" y1="294.921875" x2="-312.5" y2="263.671875" id="line_186" class="solid" />
<line x1="-250.0" y1="263.671875" x2="-250.0" y2="294.921875" id="line_187" class="solid" />
<line x1="-284.11865234375" y1="263.671875" x2="-312.5" y2="263.671875" id="line_188" class="solid" />
<line x1="-250.0" y1="326.171875" x2="-250.0" y2="294.921875" id="line_189" class="solid" />
<line x1="-284.11865234375" y1="294.921875" x2="-312.5" y2="294.921875" id="line_190" class="solid" />
<line x1="-284.11865234375" y1="263.671875" x2="-284.11865234375" y2="294.921875" id="line_191" class="solid" />
<line x1="-253.41796875" y1="263.671875" x2="-250.0" y2="263.671875" id="line_197" class="solid" />
<line x1="-253.41796875" y1="232.421875" x2="-253.41796875" y2="263.671875" id="line_198" class="solid" />
<line x1="-250.0" y1="294.921875" x2="-253.41796875" y2="294.921875" id="line_199" class="solid" />
<line x1="-253.41796875" y1="294.921875" x2="-253.41796875" y2="263.671875" id="line_200" class="solid" />
<line x1="-253.41796875" y1="294.921875" x2="-253.41796875" y2="326.171875" id="line_201" class="solid" />
<line x1="285.33935546875" y1="565.185546875" x2="269.71435546875" y2="565.185546875" id="line_204" class="solid" />
<line x1="332.21435546875" y1="565.185546875" x2="316.58935546875" y2="565.185546875" id="line_206" class="solid" />
<line x1="269.71435546875" y1="568.267822265625" x2="285.33935546875" y2="568.267822265625" id="line_207" class="solid" />
<line x1="316.58935546875" y1="568.267822265625" x2="332.21435546875" y2="568.267822265625" id="line_209" class="solid" />
<line x1="316.58935546875" y1="565.185546875" x2="316.58935546875" y2="568.267822265625" id="line_210" class="solid" />
<line x1="285.33935546875" y1="568.267822265625" x2="285.33935546875" y2="565.185546875" id="line_211" class="solid" />
<line x1="269.71435546875" y1="599.517822265625" x2="269.71435546875" y2="568.267822265625" id="line_212" class="solid" />
<line x1="496.09375" y1="500.0" x2="332.03125" y2="500.0" id="line_213" class="solid" />
<line x1="269.71435546875" y1="602.23388671875" x2="285.33935546875" y2="602.23388671875" id="line_214" class="solid" />
<line x1="316.58935546875" y1="602.23388671875" x2="332.21435546875" y2="602.23388671875" id="line_216" class="solid" />
<line x1="285.33935546875" y1="599.517822265625" x2="269.71435546875" y2="599.517822265625" id="line_217" class="solid" />
<line x1="332.21435546875" y1="599.517822265625" x2="316.58935546875" y2="599.517822265625" id="line_219" class="solid" />
<line x1="332.21435546875" y1="568.267822265625" x2="332.21435546875" y2="599.517822265625" id="line_220" class="solid" />
<line x1="316.58935546875" y1="599.517822265625" x2="316.58935546875" y2="602.23388671875" id="line_221" class="solid" />
<line x1="285.33935546875" y1="602.23388671875" x2="285.33935546875" y2="599.517822265625" id="line_222" class="solid" />
<line x1="269.71435546875" y1="633.48388671875" x2="269.71435546875" y2="602.23388671875" id="line_223" class="solid" />
<line x1="285.33935546875" y1="633.48388671875" x2="269.71435546875" y2="633.48388671875" id="line_224" class="solid" />
<line x1="332.21435546875" y1="633.48388671875" x2="316.58935546875" y2="633.48388671875" id="line_226" class="solid" />
<line x1="332.21435546875" y1="602.23388671875" x2="332.21435546875" y2="633.48388671875" id="line_227" class="solid" />
<line x1="269.71435546875" y1="636.474609375" x2="285.33935546875" y2="636.474609375" id="line_228" class="solid" />
<line x1="316.58935546875" y1="636.474609375" x2="332.21435546875" y2="636.474609375" id="line_230" class="solid" />
<line x1="316.58935546875" y1="633.48388671875" x2="316.58935546875" y2="636.474609375" id="line_231" class="solid" />
<line x1="285.33935546875" y1="636.474609375" x2="285.33935546875" y2="633.48388671875" id="line_232" class="solid" />
<line x1="269.71435546875" y1="670.71533203125" x2="285.33935546875" y2="670.71533203125" id="line_233" class="solid" />
<line x1="316.58935546875" y1="670.71533203125" x2="332.21435546875" y2="670.71533203125" id="line_235" class="solid" />
<line x1="269.71435546875" y1="701.96533203125" x2="269.71435546875" y2="670.71533203125" id="line_236" class="solid" />
<line x1="285.33935546875" y1="701.96533203125" x2="269.71435546875" y2="701.96533203125" id="line_237" class="solid" />
<line x1="332.21435546875" y1="701.96533203125" x2="316.58935546875" y2="701.96533203125" id="line_239" class="solid" />
<line x1="332.21435546875" y1="670.71533203125" x2="332.21435546875" y2="701.96533203125" id="line_240" class="solid" />
<line x1="269.71435546875" y1="704.9560546875" x2="285.33935546875" y2="704.9560546875" id="line_241" class="solid" />
<line x1="316.58935546875" y1="704.9560546875" x2="332.21435546875" y2="704.9560546875" id="line_243" class="solid" />
<line x1="316.58935546875" y1="701.96533203125" x2="316.58935546875" y2="704.9560546875" id="line_244" class="solid" />
<line x1="285.33935546875" y1="704.9560546875" x2="285.33935546875" y2="701.96533203125" id="line_245" class="solid" />
<line x1="269.71435546875" y1="736.2060546875" x2="269.71435546875" y2="704.9560546875" id="line_246" class="solid" />
<line x1="285.33935546875" y1="736.2060546875" x2="269.71435546875" y2="736.2060546875" id="line_247" class="solid" />
<line x1="332.21435546875" y1="704.9560546875" x2="332.21435546875" y2="736.2060546875" id="line_248" class="solid" />
<line x1="269.71435546875" y1="739.19677734375" x2="285.33935546875" y2="739.19677734375" id="line_249" class="solid" />
<line x1="316.58935546875" y1="739.19677734375" x2="332.21435546875" y2="739.19677734375" id="line_251" class="solid" />
<line x1="332.21435546875" y1="736.2060546875" x2="316.58935546875" y2="736.2060546875" id="line_252" class="solid" />
<line x1="316.58935546875" y1="736.2060546875" x2="316.58935546875" y2="739.19677734375" id="line_253" class="solid" />
<line x1="285.33935546875" y1="739.19677734375" x2="285.33935546875" y2="736.2060546875" id="line_255" class="solid" />
<line x1="269.71435546875" y1="667.724609375" x2="269.71435546875" y2="636.474609375" id="line_257" class="solid" />
<line x1="332.21435546875" y1="667.724609375" x2="316.58935546875" y2="667.724609375" id="line_258" class="solid" />
<line x1="332.21435546875" y1="636.474609375" x2="332.21435546875" y2="667.724609375" id="line_259" class="solid" />
<line x1="316.58935546875" y1="667.724609375" x2="316.58935546875" y2="670.71533203125" id="line_261" class="solid" />
<line x1="285.33935546875" y1="667.724609375" x2="269.71435546875" y2="667.724609375" id="line_262" class="solid" />
<line x1="285.33935546875" y1="670.71533203125" x2="285.33935546875" y2="667.724609375" id="line_263" class="solid" />
<line x1="-253.41796875" y1="326.171875" x2="-252.685546875" y2="329.04052734375" id="line_264" class="solid" />
<line x1="17.578125" y1="423.52294921875" x2="16.4794921875" y2="450.98876953125" id="line_266" class="solid" />
<line x1="-91.888427734375" y1="424.041748046875" x2="17.578125" y2="423.52294921875" id="line_267" class="solid" />
<line x1="-250.67138671875" y1="361.2060546875" x2="-312.5" y2="326.171875" id="line_268" class="solid" />
<line x1="-253.7841796875" y1="228.515625" x2="-253.41796875" y2="232.421875" id="line_270" class="solid" />
<line x1="-257.293701171875" y1="199.0966796875" x2="-77.45361328125" y2="90.63720703125" id="line_271" class="solid" />
<line x1="-16.021728515625" y1="119.20166015625" x2="17.76123046875" y2="119.20166015625" id="line_273" class="solid" />
<line x1="-76.416015625" y1="119.20166015625" x2="-48.492431640625" y2="119.20166015625" id="line_274" class="solid" />
<line x1="269.71435546875" y1="835.9375" x2="269.71435546875" y2="804.6875" id="line_277" class="solid" />
<line x1="535.33935546875" y1="835.9375" x2="425.96435546875" y2="835.9375" id="line_278" class="solid" />
<line x1="332.21435546875" y1="804.6875" x2="379.08935546875" y2="804.6875" id="line_279" class="solid" />
<line x1="379.08935546875" y1="804.6875" x2="379.08935546875" y2="679.6875" id="line_280" class="solid" />
<line x1="379.08935546875" y1="648.4375" x2="425.96435546875" y2="648.4375" id="line_281" class="solid" />
<line x1="472.83935546875" y1="648.4375" x2="472.83935546875" y2="726.5625" id="line_282" class="solid" />
<line x1="472.83935546875" y1="726.5625" x2="441.58935546875" y2="726.5625" id="line_283" class="solid" />
<line x1="441.58935546875" y1="726.5625" x2="441.58935546875" y2="679.6875" id="line_284" class="solid" />
<line x1="441.58935546875" y1="679.6875" x2="425.96435546875" y2="679.6875" id="line_285" class="solid" />
<line x1="425.96435546875" y1="679.6875" x2="425.96435546875" y2="804.6875" id="line_286" class="solid" />
<line x1="425.96435546875" y1="804.6875" x2="535.33935546875" y2="804.6875" id="line_287" class="solid" />
<line x1="535.33935546875" y1="804.6875" x2="535.33935546875" y2="673.828125" id="line_288" class="solid" />
<line x1="535.33935546875" y1="523.4375" x2="496.09375" y2="500.0" id="line_289" class="solid" />
<line x1="441.58935546875" y1="648.4375" x2="472.83935546875" y2="648.4375" id="line_290" class="solid" />
<line x1="379.08935546875" y1="679.6875" x2="379.08935546875" y2="648.4375" id="line_292" class="solid" />
<line x1="629.08935546875" y1="835.9375" x2="535.33935546875" y2="835.9375" id="line_295" class="solid" />
<line x1="629.08935546875" y1="492.1875" x2="629.08935546875" y2="673.828125" id="line_297" class="solid" />
<line x1="496.09375" y1="468.75" x2="629.08935546875" y2="492.1875" id="line_298" class="solid" />
<line x1="425.96435546875" y1="835.9375" x2="379.08935546875" y2="835.9375" id="line_300" class="solid" />
<line x1="535.33935546875" y1="673.828125" x2="535.33935546875" y2="523.4375" id="line_302" class="solid" />
<line x1="629.08935546875" y1="673.828125" x2="629.08935546875" y2="804.6875" id="line_303" class="solid" />
<line x1="332.21435546875" y1="467.71240234375" x2="221.160888671875" y2="467.71240234375" id="line_305" class="solid" />
<line x1="226.5625" y1="468.75" x2="269.53125" y2="468.75" id="line_306" class="solid" />
<line x1="332.03125" y1="468.75" x2="496.09375" y2="468.75" id="line_307" class="solid" />
<line x1="379.08935546875" y1="835.9375" x2="269.71435546875" y2="835.9375" id="line_309" class="solid" />
<line x1="425.96435546875" y1="648.4375" x2="441.58935546875" y2="648.4375" id="line_311" class="solid" />
<line x1="269.53125" y1="468.75" x2="332.03125" y2="468.75" id="line_315" class="solid" />
<line x1="175.78125" y1="468.75" x2="195.3125" y2="468.75" id="line_317" class="solid" />
<line x1="195.3125" y1="460.9375" x2="195.3125" y2="457.03125" id="line_318" class="solid" />
<line x1="195.3125" y1="468.75" x2="195.3125" y2="460.9375" id="line_319" class="solid" />
<line x1="226.5625" y1="460.9375" x2="226.5625" y2="468.75" id="line_320" class="solid" />
<line x1="226.5625" y1="460.9375" x2="195.3125" y2="460.9375" id="line_321" class="solid" />
<line x1="456.23779296875" y1="400.08544921875" x2="463.8671875" y2="401.3671875" id="line_322" class="solid" />
<line x1="458.0078125" y1="439.453125" x2="450.62255859375" y2="437.98828125" id="line_323" class="solid" />
<line x1="463.8671875" y1="401.3671875" x2="458.0078125" y2="439.453125" id="line_324" class="solid" />
<line x1="463.8671875" y1="401.3671875" x2="515.13671875" y2="402.34375" id="line_325" class="solid" />
<line x1="515.13671875" y1="402.34375" x2="507.8125" y2="449.70703125" id="line_326" class="solid" />
<line x1="507.8125" y1="449.70703125" x2="458.0078125" y2="439.453125" id="line_327" class="solid" />
<line x1="379.0283203125" y1="841.1865234375" x2="379.08935546875" y2="835.9375" id="line_328" class="solid" />
<line x1="425.9033203125" y1="841.1865234375" x2="379.0283203125" y2="841.1865234375" id="line_329" class="solid" />
<line x1="425.96435546875" y1="835.9375" x2="425.9033203125" y2="841.1865234375" id="line_330" class="solid" />
<line x1="425.9033203125" y1="841.1865234375" x2="425.9033203125" y2="871.2158203125" id="line_331" class="solid" />
<line x1="425.9033203125" y1="871.2158203125" x2="379.0283203125" y2="871.2158203125" id="line_332" class="solid" />
<line x1="379.0283203125" y1="871.2158203125" x2="379.0283203125" y2="841.1865234375" id="line_333" class="solid" />
<line x1="269.71435546875" y1="565.185546875" x2="269.53125" y2="500.0" id="line_335" class="solid" />
<line x1="332.03125" y1="500.0" x2="332.21435546875" y2="565.185546875" id="line_336" class="solid" />
<line x1="332.21435546875" y1="739.19677734375" x2="332.21435546875" y2="804.6875" id="line_337" class="solid" />
<line x1="269.71435546875" y1="804.6875" x2="269.71435546875" y2="739.19677734375" id="line_338" class="solid" />
<line x1="-252.685546875" y1="329.04052734375" x2="-91.888427734375" y2="424.041748046875" id="line_339" class="solid" />
<line x1="-91.796875" y1="419.921875" x2="-250.0" y2="326.171875" id="line_340" class="solid" />
<line x1="17.76123046875" y1="119.20166015625" x2="56.640625" y2="234.2529296875" id="line_341" class="solid" />
<line x1="-48.492431640625" y1="119.20166015625" x2="-48.492431640625" y2="115.3564453125" id="line_342" class="solid" />
<line x1="-16.021728515625" y1="115.3564453125" x2="-16.021728515625" y2="119.20166015625" id="line_344" class="solid" />
<line x1="17.852783203125" y1="115.05126953125" x2="-16.021728515625" y2="115.3564453125" id="line_345" class="solid" />
<line x1="-159.7900390625" y1="233.2763671875" x2="-76.416015625" y2="119.20166015625" id="line_347" class="solid" />
<line x1="-48.492431640625" y1="115.3564453125" x2="-76.47705078125" y2="115.142822265625" id="line_350" class="solid" />
<line x1="-76.47705078125" y1="115.142822265625" x2="-253.7841796875" y2="228.515625" id="line_351" class="solid" />
<line x1="187.5" y1="-31.25" x2="296.875" y2="-31.25" id="line_352" class="solid" />
<line x1="62.347412109375" y1="234.2529296875" x2="231.8115234375" y2="234.0087890625" id="line_353" class="solid" />
<line x1="140.625" y1="202.1484375" x2="140.625" y2="140.625" id="line_354" class="solid" />
<line x1="231.8115234375" y1="202.1484375" x2="140.625" y2="202.1484375" id="line_355" class="solid" />
<line x1="231.8115234375" y1="234.0087890625" x2="231.8115234375" y2="202.1484375" id="line_356" class="solid" />
<line x1="140.625" y1="140.625" x2="140.625" y2="125.0" id="line_358" class="solid" />
<line x1="343.75" y1="140.625" x2="452.972412109375" y2="234.2529296875" id="line_359" class="solid" />
<line x1="187.5" y1="425.78125" x2="187.5" y2="328.125" id="line_366" class="solid" />
<line x1="296.875" y1="328.125" x2="296.875" y2="425.78125" id="line_367" class="solid" />
<line x1="195.3125" y1="425.78125" x2="187.5" y2="425.78125" id="line_368" class="solid" />
<line x1="296.875" y1="425.78125" x2="226.5625" y2="425.78125" id="line_369" class="solid" />
<line x1="629.08935546875" y1="804.6875" x2="750.0" y2="804.6875" id="line_371" class="solid" />
<line x1="750.0" y1="835.9375" x2="629.08935546875" y2="835.9375" id="line_372" class="solid" />
<line x1="750.0" y1="804.6875" x2="750.0" y2="750.0" id="line_373" class="solid" />
<line x1="750.0" y1="750.0" x2="812.5" y2="750.0" id="line_374" class="solid" />
<line x1="812.5" y1="875.0" x2="750.0" y2="875.0" id="line_376" class="solid" />
<line x1="750.0" y1="875.0" x2="750.0" y2="835.9375" id="line_377" class="solid" />
<line x1="812.5" y1="750.0" x2="820.3125" y2="750.0" id="line_379" class="solid" />
<line x1="820.3125" y1="750.0" x2="820.3125" y2="734.375" id="line_380" class="solid" />
<line x1="820.3125" y1="734.375" x2="835.9375" y2="734.375" id="line_381" class="solid" />
<line x1="835.9375" y1="734.375" x2="835.9375" y2="750.0" id="line_382" class="solid" />
<line x1="835.9375" y1="750.0" x2="851.5625" y2="750.0" id="line_383" class="solid" />
<line x1="851.5625" y1="750.0" x2="851.5625" y2="734.375" id="line_384" class="solid" />
<line x1="851.5625" y1="734.375" x2="867.1875" y2="734.375" id="line_385" class="solid" />
<line x1="867.1875" y1="734.375" x2="867.1875" y2="750.0" id="line_386" class="solid" />
<line x1="867.1875" y1="750.0" x2="882.8125" y2="750.0" id="line_387" class="solid" />
<line x1="882.8125" y1="750.0" x2="882.8125" y2="734.375" id="line_388" class="solid" />
<line x1="882.8125" y1="734.375" x2="898.4375" y2="734.375" id="line_389" class="solid" />
<line x1="898.4375" y1="734.375" x2="898.4375" y2="750.0" id="line_390" class="solid" />
<line x1="898.4375" y1="750.0" x2="906.25" y2="750.0" id="line_391" class="solid" />
<line x1="906.25" y1="750.0" x2="906.25" y2="757.8125" id="line_392" class="solid" />
<line x1="906.25" y1="757.8125" x2="921.875" y2="757.8125" id="line_393" class="solid" />
<line x1="921.875" y1="757.8125" x2="921.875" y2="773.4375" id="line_394" class="solid" />
<line x1="921.875" y1="773.4375" x2="906.25" y2="773.4375" id="line_395" class="solid" />
<line x1="906.25" y1="773.4375" x2="906.25" y2="789.0625" id="line_396" class="solid" />
<line x1="906.25" y1="789.0625" x2="921.875" y2="789.0625" id="line_397" class="solid" />
<line x1="921.875" y1="789.0625" x2="921.875" y2="804.6875" id="line_398" class="solid" />
<line x1="921.875" y1="804.6875" x2="906.25" y2="804.6875" id="line_399" class="solid" />
<line x1="906.25" y1="804.6875" x2="906.25" y2="820.3125" id="line_400" class="solid" />
<line x1="906.25" y1="820.3125" x2="921.875" y2="820.3125" id="line_401" class="solid" />
<line x1="921.875" y1="820.3125" x2="921.875" y2="835.9375" id="line_402" class="solid" />
<line x1="921.875" y1="835.9375" x2="906.25" y2="835.9375" id="line_403" class="solid" />
<line x1="906.25" y1="835.9375" x2="906.25" y2="851.5625" id="line_404" class="solid" />
<line x1="906.25" y1="851.5625" x2="921.875" y2="851.5625" id="line_405" class="solid" />
<line x1="921.875" y1="851.5625" x2="921.875" y2="867.1875" id="line_406" class="solid" />
<line x1="921.875" y1="867.1875" x2="906.25" y2="867.1875" id="line_407" class="solid" />
<line x1="906.25" y1="867.1875" x2="906.25" y2="875.0" id="line_408" class="solid" />
<line x1="906.25" y1="875.0" x2="898.4375" y2="875.0" id="line_409" class="solid" />
<line x1="898.4375" y1="875.0" x2="898.4375" y2="890.625" id="line_410" class="solid" />
<line x1="898.4375" y1="890.625" x2="882.8125" y2="890.625" id="line_411" class="solid" />
<line x1="882.8125" y1="890.625" x2="882.8125" y2="875.0" id="line_412" class="solid" />
<line x1="882.8125" y1="875.0" x2="867.1875" y2="875.0" id="line_413" class="solid" />
<line x1="867.1875" y1="875.0" x2="867.1875" y2="890.625" id="line_414" class="solid" />
<line x1="867.1875" y1="890.625" x2="851.5625" y2="890.625" id="line_415" class="solid" />
<line x1="851.5625" y1="890.625" x2="851.5625" y2="875.0" id="line_416" class="solid" />
<line x1="851.5625" y1="875.0" x2="835.9375" y2="875.0" id="line_417" class="solid" />
<line x1="835.9375" y1="875.0" x2="835.9375" y2="890.625" id="line_418" class="solid" />
<line x1="835.9375" y1="890.625" x2="820.3125" y2="890.625" id="line_419" class="solid" />
<line x1="820.3125" y1="890.625" x2="820.3125" y2="875.0" id="line_420" class="solid" />
<line x1="820.3125" y1="875.0" x2="812.5" y2="875.0" id="line_421" class="solid" />
<line x1="835.9375" y1="726.5625" x2="835.9375" y2="734.375" id="line_439" class="solid" />
<line x1="820.3125" y1="726.5625" x2="835.9375" y2="726.5625" id="line_440" class="solid" />
<line x1="820.3125" y1="734.375" x2="820.3125" y2="726.5625" id="line_441" class="solid" />
<line x1="835.9375" y1="710.9375" x2="835.9375" y2="726.5625" id="line_442" class="solid" />
<line x1="820.3125" y1="710.9375" x2="835.9375" y2="710.9375" id="line_443" class="solid" />
<line x1="820.3125" y1="726.5625" x2="820.3125" y2="710.9375" id="line_444" class="solid" />
<!-- end group: "border_solid" -->
</g>
<!-- end group: "borders" -->
</g>
<g id="poly_teleporter_lines">
<g id="panel_teleporter_lines_p132">
<g id="panel_teleporter_line_group_poly_p132_p66">
<line x1="828.125" y1="718.75" x2="-270.660400390625" y2="333.740234375" id="panel_teleporter_border_p132_p66" class="teleporter_border" />
<use xlink:href="../resources/svg/common.svg#arrow" x="-270.660400390625" y="333.740234375" id="panel_teleporter_head_p132_p66" class="teleporter_line" transform="rotate(-160.6897545550641 -270.660400390625 333.740234375)" />
<line x1="828.125" y1="718.75" x2="-270.660400390625" y2="333.740234375" id="panel_teleporter_line_p132_p66" class="teleporter_line" />
<!-- end group: "panel_teleporter_line_group_poly_p132_p66" -->
</g>
<!-- end group: "panel_teleporter_lines_p132" -->
</g>
<!-- end group: "poly_teleporter_lines" -->
</g>
<g id="objects">
<g id="objects_item">
<use xlink:href="../resources/svg/common.svg#item" x="-5.859375" y="232.421875" id="object_0" class="item item-5" transform="rotate(357.890625 -5.859375 232.421875)" />
<use xlink:href="../resources/svg/common.svg#item" x="402.34375" y="439.453125" id="object_1" class="item item-5" transform="rotate(225.0 402.34375 439.453125)" />
<use xlink:href="../resources/svg/common.svg#item" x="210.9375" y="593.75" id="object_2" class="item item-15" transform="rotate(263.671875 210.9375 593.75)" />
<use xlink:href="../resources/svg/common.svg#item" x="324.21875" y="617.1875" id="object_3" class="item item-3" transform="rotate(220.078125 324.21875 617.1875)" />
<use xlink:href="../resources/svg/common.svg#item" x="-27.34375" y="437.5" id="object_4" class="item item-8" transform="rotate(175.78125 -27.34375 437.5)" />
<use xlink:href="../resources/svg/common.svg#item" x="613.28125" y="775.390625" id="object_5" class="item item-5" transform="rotate(222.1875 613.28125 775.390625)" />
<use xlink:href="../resources/svg/common.svg#item" x="455.01708984375" y="710.0830078125" id="object_6" class="item item-5" transform="rotate(277.03125 455.01708984375 710.0830078125)" />
<use xlink:href="../resources/svg/common.svg#item" x="491.69921875" y="422.8515625" id="object_10" class="item item-10" transform="rotate(198.984375 491.69921875 422.8515625)" />
<use xlink:href="../resources/svg/common.svg#item" x="401.7333984375" y="859.4970703125" id="object_11" class="item item-11" transform="rotate(267.1875 401.7333984375 859.4970703125)" />
<use xlink:href="../resources/svg/common.svg#item" x="275.390625" y="718.75" id="object_12" class="item item-12" transform="rotate(1.40625 275.390625 718.75)" />
<use xlink:href="../resources/svg/common.svg#item" x="427.734375" y="306.640625" id="object_18" class="item item-5" transform="rotate(85.78125 427.734375 306.640625)" />
<use xlink:href="../resources/svg/common.svg#item" x="3.90625" y="136.71875" id="object_19" class="item item-5" transform="rotate(137.109375 3.90625 136.71875)" />
<use xlink:href="../resources/svg/common.svg#item" x="873.046875" y="771.484375" id="object_20" class="item item-3" transform="rotate(137.109375 873.046875 771.484375)" />
<use xlink:href="../resources/svg/common.svg#item" x="-27.34375" y="286.1328125" id="object_21" class="item item-1" />
<use xlink:href="../resources/svg/common.svg#item" x="394.53125" y="485.3515625" id="object_22" class="item item-1" />
<use xlink:href="../resources/svg/common.svg#item" x="890.625" y="882.8125" id="object_23" class="item item-1" />
<use xlink:href="../resources/svg/common.svg#item" x="162.109375" y="380.859375" id="object_24" class="item item-1" />
<!-- end group: "objects_item" -->
</g>
<g id="objects_player">
<use xlink:href="../resources/svg/common.svg#monster" x="402.34375" y="660.15625" id="object_7" class="player" transform="rotate(83.671875 402.34375 660.15625)" />
<use xlink:href="../resources/svg/common.svg#monster" x="608.3984375" y="599.609375" id="object_8" class="player" transform="rotate(132.890625 608.3984375 599.609375)" />
<use xlink:href="../resources/svg/common.svg#monster" x="207.03125" y="390.625" id="object_9" class="player" transform="rotate(347.34375 207.03125 390.625)" />
<use xlink:href="../resources/svg/common.svg#monster" x="60.546875" y="238.28125" id="object_13" class="player" transform="rotate(349.453125 60.546875 238.28125)" />
<use xlink:href="../resources/svg/common.svg#monster" x="880.859375" y="808.59375" id="object_14" class="player" transform="rotate(193.359375 880.859375 808.59375)" />
<use xlink:href="../resources/svg/common.svg#monster" x="398.4375" y="240.234375" id="object_15" class="player" transform="rotate(173.671875 398.4375 240.234375)" />
<use xlink:href="../resources/svg/common.svg#monster" x="-138.671875" y="283.203125" id="object_16" class="player" transform="rotate(358.59375 -138.671875 283.203125)" />
<use xlink:href="../resources/svg/common.svg#monster" x="236.328125" y="-23.4375" id="object_17" class="player" transform="rotate(85.78125 236.328125 -23.4375)" />
<!-- end group: "objects_player" -->
</g>
<!-- end group: "objects" -->
</g>
<g id="panels">
<!-- end group: "panels" -->
</g>

<script xlink:href="../resources/js/level.js" ></script>
</svg>