<?xml version="1.0" encoding="UTF-8"?>
<!-- generated by map2svg: github.com/fracai/marathon-svg -->
<svg xmlns="http://www.w3.org/2000/svg" xmlns:xlink="http://www.w3.org/1999/xlink" version="1.1"
    viewBox="-33.203125 -102.5390625 583.984375 541.9921875">
<link xmlns="http://www.w3.org/1999/xhtml" rel="stylesheet" href="../resources/css/styles.css" type="text/css" />
<style id="dynamic-style" />
<g id="background-grid">
<defs>
<pattern id="grid_minor" width="3.125" height="3.125" patternUnits="userSpaceOnUse">
<path d="M 3.125 0 L 0 0 0 3.125" fill="none" class="grid_minor" />
</pattern>
<pattern id="grid_major" width="31.25" height="31.25" patternUnits="userSpaceOnUse">
<rect width="31.25" height="31.25" fill="url(#grid_minor)"/>
<path d="M 31.25 0 L 0 0 0 31.25" fill="none" class="grid_major" />
</pattern>
</defs>
<rect x="-1000" y="-1000" width="2000" height="2000" fill="url(#grid_major)" />
<line x1="0" y1="1000" x2="0" y2="-1000" class="grid_origin" />
<line x1="1000" y1="0" x2="-1000" y2="0" class="grid_origin" />
<!-- end group: "background-grid" -->
</g>
<g id="polygons">
<polygon points="300.72021484375,105.40771484375 311.8896484375,93.994140625 322.57080078125,104.3701171875 310.97412109375,115.966796875" id="poly_69" class="teleporter" />
<polygon points="307.6171875,54.6875 314.453125,49.8046875 335.9375,73.2421875 328.125,76.171875" id="poly_30" class="plain" />
<polygon points="260.7421875,54.6875 307.6171875,54.6875 328.125,76.171875 311.8896484375,93.994140625" id="poly_68" class="plain" />
<polygon points="269.53125,108.3984375 300.72021484375,105.40771484375 286.1328125,121.09375 278.3203125,115.234375" id="poly_70" class="plain" />
<polygon points="257.8125,97.65625 260.7421875,54.6875 311.8896484375,93.994140625 300.72021484375,105.40771484375 269.53125,108.3984375" id="poly_71" class="plain" />
<polygon points="349.609375,7.8125 392.578125,-0.9765625 387.451171875,47.821044921875 335.9375,73.2421875 314.453125,49.8046875" id="poly_28" class="plain" />
<polygon points="257.8125,97.65625 269.53125,108.3984375 259.918212890625,120.269775390625 252.9296875,115.234375" id="poly_6" class="plain" />
<polygon points="269.53125,108.3984375 278.3203125,115.234375 266.78466796875,127.13623046875 259.918212890625,120.269775390625" id="poly_7" class="plain" />
<polygon points="278.3203125,115.234375 286.1328125,121.09375 273.4375,133.7890625 266.78466796875,127.13623046875" id="poly_8" class="plain" />
<polygon points="273.4375,133.7890625 286.1328125,121.09375 295.8984375,129.8828125 281.707763671875,142.08984375" id="poly_5" class="plain" />
<polygon points="281.707763671875,142.08984375 295.8984375,129.8828125 304.6875,141.6015625 288.9404296875,149.35302734375" id="poly_4" class="plain" />
<polygon points="288.9404296875,149.35302734375 304.6875,141.6015625 307.6171875,156.25 288.9404296875,160.186767578125" id="poly_3" class="plain" />
<polygon points="288.9404296875,160.186767578125 307.6171875,156.25 306.640625,170.8984375 288.9404296875,170.867919921875" id="poly_2" class="plain" />
<polygon points="288.9404296875,170.867919921875 306.640625,170.8984375 307.6171875,183.59375 288.9404296875,183.59375" id="poly_1" class="plain" />
<polygon points="288.9404296875,183.59375 307.6171875,183.59375 306.640625,202.1484375 288.9404296875,196.22802734375" id="poly_0" class="plain" />
<polygon points="288.9404296875,196.22802734375 306.640625,202.1484375 267.578125,245.1171875 255.828857421875,229.3701171875" id="poly_31" class="plain" />
<polygon points="71.2890625,40.0390625 177.734375,42.96875 169.921875,68.359375 114.2578125,67.3828125" id="poly_40" class="plain" />
<polygon points="177.734375,42.96875 257.8125,97.65625 252.9296875,115.234375 235.3515625,116.2109375 169.921875,68.359375" id="poly_41" class="plain" />
<polygon points="267.578125,245.1171875 306.640625,202.1484375 370.1171875,206.0546875 294.921875,301.7578125" id="poly_33" class="plain" />
<polygon points="370.1171875,206.0546875 415.0390625,236.328125 322.265625,336.9140625 294.921875,301.7578125" id="poly_34" class="plain" />
<polygon points="294.921875,301.7578125 322.265625,336.9140625 280.2734375,353.515625 265.625,312.5" id="poly_35" class="plain" />
<polygon points="81.0546875,250.0 76.47705078125,216.61376953125 111.328125,216.796875 168.9453125,277.34375 159.1796875,318.359375" id="poly_36" class="plain" />
<polygon points="350.5859375,-18.5546875 393.5546875,-21.484375 392.578125,-0.9765625 349.609375,7.8125" id="poly_37" class="plain" />
<polygon points="71.2890625,40.0390625 114.2578125,67.3828125 112.79296875,144.83642578125 72.20458984375,98.69384765625" id="poly_39" class="plain" />
<polygon points="423.828125,0.9765625 463.8671875,-17.578125 469.7265625,29.296875 442.3828125,207.03125 389.6484375,185.546875" id="poly_42" class="plain" />
<polygon points="389.6484375,185.546875 442.3828125,207.03125 415.0390625,236.328125 370.1171875,206.0546875" id="poly_43" class="plain" />
<polygon points="393.5546875,-21.484375 463.8671875,-17.578125 423.828125,0.9765625 392.578125,-0.9765625" id="poly_44" class="plain" />
<polygon points="112.79296875,156.79931640625 122.1923828125,156.79931640625 133.72802734375,157.2265625 144.83642578125,158.50830078125 153.99169921875,161.102294921875 153.3203125,197.265625 111.328125,216.796875" id="poly_50" class="plain" />
<polygon points="72.20458984375,98.69384765625 112.79296875,144.83642578125 112.79296875,156.79931640625 111.328125,216.796875 76.47705078125,216.61376953125" id="poly_51" class="plain" />
<polygon points="61.5234375,40.58837890625 71.2890625,40.0390625 72.20458984375,98.69384765625 60.6689453125,98.69384765625" id="poly_54" class="plain" />
<polygon points="66.40625,215.8203125 76.47705078125,216.61376953125 81.0546875,250.0 67.3828125,257.8125" id="poly_56" class="plain" />
<polygon points="149.4140625,331.0546875 159.1796875,318.359375 280.2734375,353.515625 282.2265625,367.1875" id="poly_60" class="plain" />
<polygon points="442.3828125,207.03125 453.125,213.8671875 424.8046875,244.140625 415.0390625,236.328125" id="poly_61" class="plain" />
<polygon points="168.9453125,277.34375 206.0546875,280.2734375 233.3984375,288.0859375 265.625,312.5 280.2734375,353.515625 159.1796875,318.359375" id="poly_73" class="plain" />
<polygon points="463.8671875,-17.578125 469.7265625,-25.390625 478.515625,27.34375 469.7265625,29.296875" id="poly_74" class="plain" />
<polygon points="246.52099609375,237.548828125 255.828857421875,229.3701171875 267.578125,245.1171875 255.4931640625,259.765625" id="poly_9" class="plain" />
<polygon points="236.6943359375,241.8212890625 246.52099609375,237.548828125 255.4931640625,259.765625 234.130859375,264.0380859375" id="poly_10" class="plain" />
<polygon points="112.79296875,144.83642578125 122.1923828125,145.263671875 122.1923828125,156.79931640625 112.79296875,156.79931640625" id="poly_45" class="plain" />
<polygon points="223.876953125,243.5302734375 236.6943359375,241.8212890625 234.130859375,264.0380859375 214.90478515625,263.61083984375" id="poly_11" class="plain" />
<polygon points="211.48681640625,241.8212890625 223.876953125,243.5302734375 214.90478515625,263.61083984375 202.94189453125,261.474609375" id="poly_12" class="plain" />
<polygon points="122.1923828125,145.263671875 134.1552734375,144.83642578125 133.72802734375,157.2265625 122.1923828125,156.79931640625" id="poly_46" class="plain" />
<polygon points="201.23291015625,238.4033203125 211.48681640625,241.8212890625 202.94189453125,261.474609375 190.12451171875,255.06591796875" id="poly_13" class="plain" />
<polygon points="193.115234375,231.99462890625 201.23291015625,238.4033203125 190.12451171875,255.06591796875 177.30712890625,245.66650390625" id="poly_22" class="plain" />
<polygon points="134.1552734375,144.83642578125 145.69091796875,144.83642578125 144.83642578125,158.50830078125 133.72802734375,157.2265625" id="poly_47" class="plain" />
<polygon points="187.1337890625,225.15869140625 193.115234375,231.99462890625 177.30712890625,245.66650390625 168.3349609375,237.97607421875" id="poly_21" class="plain" />
<polygon points="160.21728515625,226.4404296875 180.72509765625,215.75927734375 187.1337890625,225.15869140625 168.3349609375,237.97607421875" id="poly_20" class="plain" />
<polygon points="145.69091796875,144.83642578125 154.296875,146.484375 153.99169921875,161.102294921875 144.83642578125,158.50830078125" id="poly_48" class="plain" />
<polygon points="156.3720703125,212.34130859375 176.45263671875,205.078125 180.72509765625,215.75927734375 160.21728515625,226.4404296875" id="poly_14" class="plain" />
<polygon points="153.3203125,197.265625 175.811767578125,196.22802734375 176.45263671875,205.078125 156.3720703125,212.34130859375" id="poly_15" class="plain" />
<polygon points="153.99169921875,161.102294921875 154.296875,146.484375 180.6640625,150.390625 175.811767578125,196.22802734375 153.3203125,197.265625" id="poly_49" class="plain" />
<polygon points="162.109375,132.8125 180.6640625,150.390625 154.296875,146.484375" id="poly_16" class="plain" />
<polygon points="162.109375,132.8125 169.921875,125.9765625 185.546875,142.578125 180.6640625,150.390625" id="poly_24" class="plain" />
<polygon points="169.921875,125.9765625 177.734375,118.1640625 192.3828125,136.71875 185.546875,142.578125" id="poly_23" class="plain" />
<polygon points="177.734375,118.1640625 184.5703125,112.3046875 198.2421875,129.8828125 192.3828125,136.71875" id="poly_17" class="plain" />
<polygon points="184.5703125,112.3046875 193.359375,104.4921875 206.0546875,125.0 198.2421875,129.8828125" id="poly_18" class="plain" />
<polygon points="193.359375,104.4921875 202.1484375,98.6328125 211.9140625,124.0234375 206.0546875,125.0" id="poly_19" class="plain" />
<polygon points="185.546875,155.2734375 214.84375,128.90625 249.0234375,127.9296875 273.4375,151.2451171875 273.4375,189.697265625 239.2578125,216.796875 209.9609375,217.7734375 185.546875,189.453125" id="poly_25" class="plain" />
<polygon points="204.1015625,47.8515625 249.0234375,48.828125 249.0234375,101.5625 202.1484375,98.6328125" id="poly_26" class="plain" />
<polygon points="203.125,6.8359375 349.609375,7.8125 314.453125,49.8046875 249.0234375,48.828125 204.1015625,47.8515625" id="poly_27" class="plain" />
<polygon points="335.9375,73.2421875 387.451171875,47.821044921875 379.8828125,184.5703125 340.9423828125,186.279296875 334.9609375,146.1181640625" id="poly_29" class="plain" />
<polygon points="273.4375,151.2451171875 334.9609375,146.1181640625 340.9423828125,186.279296875 273.4375,189.697265625" id="poly_32" class="plain" />
<polygon points="202.1484375,98.6328125 249.0234375,101.5625 249.0234375,127.9296875 214.84375,128.90625 211.9140625,124.0234375" id="poly_38" class="plain" />
<polygon points="181.640625,1.953125 203.125,6.8359375 204.1015625,47.8515625 179.6875,35.15625" id="poly_52" class="plain" />
<polygon points="0.0,-1.953125 181.640625,1.953125 179.6875,35.15625 60.24169921875,32.04345703125" id="poly_53" class="plain" />
<polygon points="0.0,-1.953125 60.24169921875,32.04345703125 61.5234375,40.58837890625 60.6689453125,98.69384765625 -1.953125,109.375" id="poly_55" class="plain" />
<polygon points="5.859375,265.625 67.3828125,257.8125 149.4140625,331.0546875 119.140625,363.28125" id="poly_57" class="plain" />
<polygon points="149.4140625,331.0546875 282.2265625,367.1875 271.484375,408.203125 119.140625,363.28125" id="poly_58" class="plain" />
<polygon points="282.2265625,367.1875 332.03125,349.609375 380.859375,376.953125 271.484375,408.203125" id="poly_59" class="plain" />
<polygon points="453.125,213.8671875 500.0,226.5625 380.859375,376.953125 332.03125,349.609375 424.8046875,244.140625" id="poly_62" class="plain" />
<polygon points="478.515625,27.34375 519.53125,-0.9765625 500.0,226.5625 453.125,213.8671875" id="poly_63" class="plain" />
<polygon points="469.7265625,-25.390625 497.0703125,-71.2890625 519.53125,-0.9765625 478.515625,27.34375" id="poly_64" class="plain" />
<polygon points="345.703125,-71.2890625 497.0703125,-71.2890625 469.7265625,-25.390625 393.5546875,-32.2265625" id="poly_65" class="plain" />
<polygon points="345.703125,-71.2890625 393.5546875,-32.2265625 393.5546875,-21.484375 350.5859375,-18.5546875" id="poly_66" class="plain" />
<polygon points="-1.953125,109.375 60.6689453125,98.69384765625 66.40625,215.8203125 67.3828125,257.8125 5.859375,265.625" id="poly_67" class="plain" />
<polygon points="209.9609375,217.7734375 239.2578125,216.796875 233.3984375,288.0859375 206.0546875,280.2734375" id="poly_72" class="plain" />
<!-- end group: "polygons" -->
</g>
<g id="borders">
<g id="border_plain">
<line x1="153.3203125" y1="197.265625" x2="175.811767578125" y2="196.22802734375" id="line_6" class="plain" />
<line x1="202.1484375" y1="98.6328125" x2="211.9140625" y2="124.0234375" id="line_16" class="plain" />
<line x1="193.359375" y1="104.4921875" x2="206.0546875" y2="125.0" id="line_20" class="plain" />
<line x1="249.0234375" y1="101.5625" x2="202.1484375" y2="98.6328125" id="line_62" class="plain" />
<line x1="273.4375" y1="151.2451171875" x2="273.4375" y2="189.697265625" id="line_67" class="plain" />
<line x1="239.2578125" y1="216.796875" x2="209.9609375" y2="217.7734375" id="line_69" class="plain" />
<line x1="204.1015625" y1="47.8515625" x2="249.0234375" y2="48.828125" id="line_72" class="plain" />
<line x1="340.9423828125" y1="186.279296875" x2="334.9609375" y2="146.1181640625" id="line_74" class="plain" />
<line x1="204.1015625" y1="47.8515625" x2="203.125" y2="6.8359375" id="line_75" class="plain" />
<line x1="328.125" y1="76.171875" x2="307.6171875" y2="54.6875" id="line_88" class="plain" />
<line x1="112.79296875" y1="144.83642578125" x2="72.20458984375" y2="98.69384765625" id="line_95" class="plain" />
<line x1="81.0546875" y1="250.0" x2="76.47705078125" y2="216.61376953125" id="line_99" class="plain" />
<line x1="370.1171875" y1="206.0546875" x2="294.921875" y2="301.7578125" id="line_102" class="plain" />
<line x1="370.1171875" y1="206.0546875" x2="415.0390625" y2="236.328125" id="line_103" class="plain" />
<line x1="159.1796875" y1="318.359375" x2="280.2734375" y2="353.515625" id="line_106" class="plain" />
<line x1="214.84375" y1="128.90625" x2="249.0234375" y2="127.9296875" id="line_122" class="plain" />
<line x1="322.265625" y1="336.9140625" x2="294.921875" y2="301.7578125" id="line_130" class="plain" />
<line x1="280.2734375" y1="353.515625" x2="265.625" y2="312.5" id="line_131" class="plain" />
<line x1="76.47705078125" y1="216.61376953125" x2="111.328125" y2="216.796875" id="line_132" class="plain" />
<line x1="168.9453125" y1="277.34375" x2="159.1796875" y2="318.359375" id="line_133" class="plain" />
<line x1="393.5546875" y1="-21.484375" x2="392.578125" y2="-0.9765625" id="line_136" class="plain" />
<line x1="72.20458984375" y1="98.69384765625" x2="71.2890625" y2="40.0390625" id="line_143" class="plain" />
<line x1="177.734375" y1="42.96875" x2="169.921875" y2="68.359375" id="line_145" class="plain" />
<line x1="463.8671875" y1="-17.578125" x2="469.7265625" y2="29.296875" id="line_149" class="plain" />
<line x1="442.3828125" y1="207.03125" x2="415.0390625" y2="236.328125" id="line_152" class="plain" />
<line x1="423.828125" y1="0.9765625" x2="463.8671875" y2="-17.578125" id="line_154" class="plain" />
<line x1="442.3828125" y1="207.03125" x2="389.6484375" y2="185.546875" id="line_155" class="plain" />
<line x1="111.328125" y1="216.796875" x2="112.79296875" y2="156.79931640625" id="line_166" class="plain" />
<line x1="60.24169921875" y1="32.04345703125" x2="0.0" y2="-1.953125" id="line_175" class="plain" />
<line x1="179.6875" y1="35.15625" x2="181.640625" y2="1.953125" id="line_177" class="plain" />
<line x1="60.6689453125" y1="98.69384765625" x2="-1.953125" y2="109.375" id="line_178" class="plain" />
<line x1="393.5546875" y1="-32.2265625" x2="345.703125" y2="-71.2890625" id="line_203" class="plain" />
<line x1="469.7265625" y1="-25.390625" x2="497.0703125" y2="-71.2890625" id="line_204" class="plain" />
<line x1="478.515625" y1="27.34375" x2="519.53125" y2="-0.9765625" id="line_205" class="plain" />
<line x1="453.125" y1="213.8671875" x2="500.0" y2="226.5625" id="line_206" class="plain" />
<line x1="332.03125" y1="349.609375" x2="380.859375" y2="376.953125" id="line_208" class="plain" />
<line x1="282.2265625" y1="367.1875" x2="271.484375" y2="408.203125" id="line_209" class="plain" />
<line x1="149.4140625" y1="331.0546875" x2="119.140625" y2="363.28125" id="line_211" class="plain" />
<line x1="5.859375" y1="265.625" x2="67.3828125" y2="257.8125" id="line_212" class="plain" />
<line x1="311.8896484375" y1="93.994140625" x2="260.7421875" y2="54.6875" id="line_219" class="plain" />
<line x1="269.53125" y1="108.3984375" x2="300.72021484375" y2="105.40771484375" id="line_220" class="plain" />
<!-- end group: "border_plain" -->
</g>
<g id="border_ceiling">
<line x1="335.9375" y1="73.2421875" x2="314.453125" y2="49.8046875" id="line_80" class="ceiling" />
<line x1="306.640625" y1="202.1484375" x2="267.578125" y2="245.1171875" id="line_126" class="ceiling" />
<line x1="71.2890625" y1="40.0390625" x2="114.2578125" y2="67.3828125" id="line_146" class="ceiling" />
<line x1="300.72021484375" y1="105.40771484375" x2="311.8896484375" y2="93.994140625" id="line_214" class="ceiling" />
<!-- end group: "border_ceiling" -->
</g>
<g id="border_elevation">
<line x1="180.6640625" y1="150.390625" x2="154.296875" y2="146.484375" id="line_5" class="elevation" />
<line x1="190.12451171875" y1="255.06591796875" x2="201.23291015625" y2="238.4033203125" id="line_8" class="elevation" />
<line x1="255.828857421875" y1="229.3701171875" x2="267.578125" y2="245.1171875" id="line_10" class="elevation" />
<line x1="306.640625" y1="202.1484375" x2="288.9404296875" y2="196.22802734375" id="line_11" class="elevation" />
<line x1="288.9404296875" y1="149.35302734375" x2="304.6875" y2="141.6015625" id="line_13" class="elevation" />
<line x1="252.9296875" y1="115.234375" x2="257.8125" y2="97.65625" id="line_15" class="elevation" />
<line x1="184.5703125" y1="112.3046875" x2="198.2421875" y2="129.8828125" id="line_23" class="elevation" />
<line x1="192.3828125" y1="136.71875" x2="177.734375" y2="118.1640625" id="line_26" class="elevation" />
<line x1="162.109375" y1="132.8125" x2="180.6640625" y2="150.390625" id="line_29" class="elevation" />
<line x1="156.3720703125" y1="212.34130859375" x2="176.45263671875" y2="205.078125" id="line_32" class="elevation" />
<line x1="180.72509765625" y1="215.75927734375" x2="160.21728515625" y2="226.4404296875" id="line_35" class="elevation" />
<line x1="202.94189453125" y1="261.474609375" x2="211.48681640625" y2="241.8212890625" id="line_39" class="elevation" />
<line x1="214.90478515625" y1="263.61083984375" x2="223.876953125" y2="243.5302734375" id="line_42" class="elevation" />
<line x1="234.130859375" y1="264.0380859375" x2="236.6943359375" y2="241.8212890625" id="line_45" class="elevation" />
<line x1="255.4931640625" y1="259.765625" x2="246.52099609375" y2="237.548828125" id="line_48" class="elevation" />
<line x1="288.9404296875" y1="183.59375" x2="307.6171875" y2="183.59375" id="line_51" class="elevation" />
<line x1="288.9404296875" y1="170.867919921875" x2="306.640625" y2="170.8984375" id="line_54" class="elevation" />
<line x1="281.707763671875" y1="142.08984375" x2="295.8984375" y2="129.8828125" id="line_58" class="elevation" />
<line x1="257.8125" y1="97.65625" x2="269.53125" y2="108.3984375" id="line_60" class="elevation" />
<line x1="273.4375" y1="133.7890625" x2="286.1328125" y2="121.09375" id="line_61" class="elevation" />
<line x1="349.609375" y1="7.8125" x2="392.578125" y2="-0.9765625" id="line_89" class="elevation" />
<line x1="349.609375" y1="7.8125" x2="314.453125" y2="49.8046875" id="line_90" class="elevation" />
<line x1="387.451171875" y1="47.821044921875" x2="335.9375" y2="73.2421875" id="line_92" class="elevation" />
<line x1="112.79296875" y1="156.79931640625" x2="112.79296875" y2="144.83642578125" id="line_97" class="elevation" />
<line x1="288.9404296875" y1="160.186767578125" x2="307.6171875" y2="156.25" id="line_108" class="elevation" />
<line x1="278.3203125" y1="115.234375" x2="286.1328125" y2="121.09375" id="line_110" class="elevation" />
<line x1="278.3203125" y1="115.234375" x2="266.78466796875" y2="127.13623046875" id="line_111" class="elevation" />
<line x1="269.53125" y1="108.3984375" x2="278.3203125" y2="115.234375" id="line_112" class="elevation" />
<line x1="269.53125" y1="108.3984375" x2="259.918212890625" y2="120.269775390625" id="line_114" class="elevation" />
<line x1="187.1337890625" y1="225.15869140625" x2="168.3349609375" y2="237.97607421875" id="line_116" class="elevation" />
<line x1="193.115234375" y1="231.99462890625" x2="177.30712890625" y2="245.66650390625" id="line_119" class="elevation" />
<line x1="185.546875" y1="142.578125" x2="169.921875" y2="125.9765625" id="line_121" class="elevation" />
<line x1="153.3203125" y1="197.265625" x2="153.99169921875" y2="161.102294921875" id="line_128" class="elevation" />
<line x1="350.5859375" y1="-18.5546875" x2="393.5546875" y2="-21.484375" id="line_135" class="elevation" />
<line x1="154.296875" y1="146.484375" x2="153.99169921875" y2="161.102294921875" id="line_156" class="elevation" />
<line x1="153.99169921875" y1="161.102294921875" x2="144.83642578125" y2="158.50830078125" id="line_157" class="elevation" />
<line x1="145.69091796875" y1="144.83642578125" x2="144.83642578125" y2="158.50830078125" id="line_159" class="elevation" />
<line x1="144.83642578125" y1="158.50830078125" x2="133.72802734375" y2="157.2265625" id="line_160" class="elevation" />
<line x1="134.1552734375" y1="144.83642578125" x2="133.72802734375" y2="157.2265625" id="line_162" class="elevation" />
<line x1="133.72802734375" y1="157.2265625" x2="122.1923828125" y2="156.79931640625" id="line_163" class="elevation" />
<line x1="122.1923828125" y1="145.263671875" x2="122.1923828125" y2="156.79931640625" id="line_165" class="elevation" />
<line x1="122.1923828125" y1="156.79931640625" x2="112.79296875" y2="156.79931640625" id="line_167" class="elevation" />
<line x1="60.6689453125" y1="98.69384765625" x2="61.5234375" y2="40.58837890625" id="line_179" class="elevation" />
<line x1="478.515625" y1="27.34375" x2="469.7265625" y2="-25.390625" id="line_197" class="elevation" />
<line x1="453.125" y1="213.8671875" x2="424.8046875" y2="244.140625" id="line_207" class="elevation" />
<line x1="149.4140625" y1="331.0546875" x2="282.2265625" y2="367.1875" id="line_210" class="elevation" />
<line x1="67.3828125" y1="257.8125" x2="66.40625" y2="215.8203125" id="line_213" class="elevation" />
<line x1="233.3984375" y1="288.0859375" x2="206.0546875" y2="280.2734375" id="line_225" class="elevation" />
<!-- end group: "border_elevation" -->
</g>
<g id="border_solid">
<line x1="211.9140625" y1="124.0234375" x2="206.0546875" y2="125.0" id="line_0" class="solid" />
<line x1="175.811767578125" y1="196.22802734375" x2="176.45263671875" y2="205.078125" id="line_1" class="solid" />
<line x1="201.23291015625" y1="238.4033203125" x2="211.48681640625" y2="241.8212890625" id="line_2" class="solid" />
<line x1="288.9404296875" y1="196.22802734375" x2="288.9404296875" y2="183.59375" id="line_3" class="solid" />
<line x1="273.4375" y1="133.7890625" x2="266.78466796875" y2="127.13623046875" id="line_4" class="solid" />
<line x1="156.3720703125" y1="212.34130859375" x2="153.3203125" y2="197.265625" id="line_7" class="solid" />
<line x1="202.94189453125" y1="261.474609375" x2="190.12451171875" y2="255.06591796875" id="line_9" class="solid" />
<line x1="307.6171875" y1="183.59375" x2="306.640625" y2="202.1484375" id="line_12" class="solid" />
<line x1="295.8984375" y1="129.8828125" x2="304.6875" y2="141.6015625" id="line_14" class="solid" />
<line x1="193.359375" y1="104.4921875" x2="202.1484375" y2="98.6328125" id="line_17" class="solid" />
<line x1="184.5703125" y1="112.3046875" x2="193.359375" y2="104.4921875" id="line_18" class="solid" />
<line x1="206.0546875" y1="125.0" x2="198.2421875" y2="129.8828125" id="line_19" class="solid" />
<line x1="177.734375" y1="118.1640625" x2="184.5703125" y2="112.3046875" id="line_21" class="solid" />
<line x1="198.2421875" y1="129.8828125" x2="192.3828125" y2="136.71875" id="line_22" class="solid" />
<line x1="169.921875" y1="125.9765625" x2="177.734375" y2="118.1640625" id="line_24" class="solid" />
<line x1="192.3828125" y1="136.71875" x2="185.546875" y2="142.578125" id="line_25" class="solid" />
<line x1="162.109375" y1="132.8125" x2="169.921875" y2="125.9765625" id="line_27" class="solid" />
<line x1="154.296875" y1="146.484375" x2="162.109375" y2="132.8125" id="line_28" class="solid" />
<line x1="160.21728515625" y1="226.4404296875" x2="156.3720703125" y2="212.34130859375" id="line_30" class="solid" />
<line x1="176.45263671875" y1="205.078125" x2="180.72509765625" y2="215.75927734375" id="line_31" class="solid" />
<line x1="168.3349609375" y1="237.97607421875" x2="160.21728515625" y2="226.4404296875" id="line_33" class="solid" />
<line x1="180.72509765625" y1="215.75927734375" x2="187.1337890625" y2="225.15869140625" id="line_34" class="solid" />
<line x1="190.12451171875" y1="255.06591796875" x2="177.30712890625" y2="245.66650390625" id="line_36" class="solid" />
<line x1="214.90478515625" y1="263.61083984375" x2="202.94189453125" y2="261.474609375" id="line_37" class="solid" />
<line x1="211.48681640625" y1="241.8212890625" x2="223.876953125" y2="243.5302734375" id="line_38" class="solid" />
<line x1="223.876953125" y1="243.5302734375" x2="236.6943359375" y2="241.8212890625" id="line_40" class="solid" />
<line x1="234.130859375" y1="264.0380859375" x2="214.90478515625" y2="263.61083984375" id="line_41" class="solid" />
<line x1="236.6943359375" y1="241.8212890625" x2="246.52099609375" y2="237.548828125" id="line_43" class="solid" />
<line x1="255.4931640625" y1="259.765625" x2="234.130859375" y2="264.0380859375" id="line_44" class="solid" />
<line x1="246.52099609375" y1="237.548828125" x2="255.828857421875" y2="229.3701171875" id="line_46" class="solid" />
<line x1="267.578125" y1="245.1171875" x2="255.4931640625" y2="259.765625" id="line_47" class="solid" />
<line x1="288.9404296875" y1="183.59375" x2="288.9404296875" y2="170.867919921875" id="line_49" class="solid" />
<line x1="306.640625" y1="170.8984375" x2="307.6171875" y2="183.59375" id="line_50" class="solid" />
<line x1="288.9404296875" y1="170.867919921875" x2="288.9404296875" y2="160.186767578125" id="line_52" class="solid" />
<line x1="307.6171875" y1="156.25" x2="306.640625" y2="170.8984375" id="line_53" class="solid" />
<line x1="304.6875" y1="141.6015625" x2="307.6171875" y2="156.25" id="line_55" class="solid" />
<line x1="288.9404296875" y1="149.35302734375" x2="281.707763671875" y2="142.08984375" id="line_56" class="solid" />
<line x1="286.1328125" y1="121.09375" x2="295.8984375" y2="129.8828125" id="line_57" class="solid" />
<line x1="281.707763671875" y1="142.08984375" x2="273.4375" y2="133.7890625" id="line_59" class="solid" />
<line x1="214.84375" y1="128.90625" x2="211.9140625" y2="124.0234375" id="line_63" class="solid" />
<line x1="185.546875" y1="155.2734375" x2="214.84375" y2="128.90625" id="line_64" class="solid" />
<line x1="185.546875" y1="189.453125" x2="185.546875" y2="155.2734375" id="line_65" class="solid" />
<line x1="249.0234375" y1="127.9296875" x2="273.4375" y2="151.2451171875" id="line_66" class="solid" />
<line x1="273.4375" y1="189.697265625" x2="239.2578125" y2="216.796875" id="line_68" class="solid" />
<line x1="209.9609375" y1="217.7734375" x2="185.546875" y2="189.453125" id="line_70" class="solid" />
<line x1="249.0234375" y1="48.828125" x2="249.0234375" y2="101.5625" id="line_71" class="solid" />
<line x1="202.1484375" y1="98.6328125" x2="204.1015625" y2="47.8515625" id="line_73" class="solid" />
<line x1="203.125" y1="6.8359375" x2="349.609375" y2="7.8125" id="line_76" class="solid" />
<line x1="392.578125" y1="-0.9765625" x2="387.451171875" y2="47.821044921875" id="line_77" class="solid" />
<line x1="379.8828125" y1="184.5703125" x2="340.9423828125" y2="186.279296875" id="line_78" class="solid" />
<line x1="334.9609375" y1="146.1181640625" x2="335.9375" y2="73.2421875" id="line_79" class="solid" />
<line x1="314.453125" y1="49.8046875" x2="249.0234375" y2="48.828125" id="line_81" class="solid" />
<line x1="112.79296875" y1="144.83642578125" x2="122.1923828125" y2="145.263671875" id="line_82" class="solid" />
<line x1="153.3203125" y1="197.265625" x2="111.328125" y2="216.796875" id="line_83" class="solid" />
<line x1="306.640625" y1="202.1484375" x2="370.1171875" y2="206.0546875" id="line_84" class="solid" />
<line x1="294.921875" y1="301.7578125" x2="267.578125" y2="245.1171875" id="line_85" class="solid" />
<line x1="257.8125" y1="97.65625" x2="260.7421875" y2="54.6875" id="line_86" class="solid" />
<line x1="260.7421875" y1="54.6875" x2="307.6171875" y2="54.6875" id="line_87" class="solid" />
<line x1="387.451171875" y1="47.821044921875" x2="379.8828125" y2="184.5703125" id="line_91" class="solid" />
<line x1="307.6171875" y1="54.6875" x2="314.453125" y2="49.8046875" id="line_93" class="solid" />
<line x1="335.9375" y1="73.2421875" x2="328.125" y2="76.171875" id="line_94" class="solid" />
<line x1="76.47705078125" y1="216.61376953125" x2="72.20458984375" y2="98.69384765625" id="line_96" class="solid" />
<line x1="111.328125" y1="216.796875" x2="168.9453125" y2="277.34375" id="line_98" class="solid" />
<line x1="159.1796875" y1="318.359375" x2="81.0546875" y2="250.0" id="line_100" class="solid" />
<line x1="265.625" y1="312.5" x2="294.921875" y2="301.7578125" id="line_101" class="solid" />
<line x1="415.0390625" y1="236.328125" x2="322.265625" y2="336.9140625" id="line_104" class="solid" />
<line x1="322.265625" y1="336.9140625" x2="280.2734375" y2="353.515625" id="line_105" class="solid" />
<line x1="288.9404296875" y1="160.186767578125" x2="288.9404296875" y2="149.35302734375" id="line_107" class="solid" />
<line x1="266.78466796875" y1="127.13623046875" x2="259.918212890625" y2="120.269775390625" id="line_109" class="solid" />
<line x1="259.918212890625" y1="120.269775390625" x2="252.9296875" y2="115.234375" id="line_113" class="solid" />
<line x1="187.1337890625" y1="225.15869140625" x2="193.115234375" y2="231.99462890625" id="line_115" class="solid" />
<line x1="177.30712890625" y1="245.66650390625" x2="168.3349609375" y2="237.97607421875" id="line_117" class="solid" />
<line x1="193.115234375" y1="231.99462890625" x2="201.23291015625" y2="238.4033203125" id="line_118" class="solid" />
<line x1="185.546875" y1="142.578125" x2="180.6640625" y2="150.390625" id="line_120" class="solid" />
<line x1="273.4375" y1="151.2451171875" x2="334.9609375" y2="146.1181640625" id="line_123" class="solid" />
<line x1="340.9423828125" y1="186.279296875" x2="273.4375" y2="189.697265625" id="line_124" class="solid" />
<line x1="255.828857421875" y1="229.3701171875" x2="288.9404296875" y2="196.22802734375" id="line_125" class="solid" />
<line x1="180.6640625" y1="150.390625" x2="175.811767578125" y2="196.22802734375" id="line_127" class="solid" />
<line x1="328.125" y1="76.171875" x2="311.8896484375" y2="93.994140625" id="line_129" class="solid" />
<line x1="349.609375" y1="7.8125" x2="350.5859375" y2="-18.5546875" id="line_134" class="solid" />
<line x1="249.0234375" y1="101.5625" x2="249.0234375" y2="127.9296875" id="line_137" class="solid" />
<line x1="177.734375" y1="42.96875" x2="257.8125" y2="97.65625" id="line_138" class="solid" />
<line x1="252.9296875" y1="115.234375" x2="235.3515625" y2="116.2109375" id="line_139" class="solid" />
<line x1="235.3515625" y1="116.2109375" x2="169.921875" y2="68.359375" id="line_140" class="solid" />
<line x1="71.2890625" y1="40.0390625" x2="177.734375" y2="42.96875" id="line_141" class="solid" />
<line x1="169.921875" y1="68.359375" x2="114.2578125" y2="67.3828125" id="line_142" class="solid" />
<line x1="114.2578125" y1="67.3828125" x2="112.79296875" y2="144.83642578125" id="line_144" class="solid" />
<line x1="393.5546875" y1="-21.484375" x2="463.8671875" y2="-17.578125" id="line_147" class="solid" />
<line x1="423.828125" y1="0.9765625" x2="392.578125" y2="-0.9765625" id="line_148" class="solid" />
<line x1="389.6484375" y1="185.546875" x2="423.828125" y2="0.9765625" id="line_150" class="solid" />
<line x1="370.1171875" y1="206.0546875" x2="389.6484375" y2="185.546875" id="line_151" class="solid" />
<line x1="469.7265625" y1="29.296875" x2="442.3828125" y2="207.03125" id="line_153" class="solid" />
<line x1="145.69091796875" y1="144.83642578125" x2="154.296875" y2="146.484375" id="line_158" class="solid" />
<line x1="134.1552734375" y1="144.83642578125" x2="145.69091796875" y2="144.83642578125" id="line_161" class="solid" />
<line x1="122.1923828125" y1="145.263671875" x2="134.1552734375" y2="144.83642578125" id="line_164" class="solid" />
<line x1="204.1015625" y1="47.8515625" x2="179.6875" y2="35.15625" id="line_168" class="solid" />
<line x1="181.640625" y1="1.953125" x2="203.125" y2="6.8359375" id="line_169" class="solid" />
<line x1="179.6875" y1="35.15625" x2="60.24169921875" y2="32.04345703125" id="line_170" class="solid" />
<line x1="-1.953125" y1="109.375" x2="0.0" y2="-1.953125" id="line_171" class="solid" />
<line x1="60.24169921875" y1="32.04345703125" x2="61.5234375" y2="40.58837890625" id="line_172" class="solid" />
<line x1="61.5234375" y1="40.58837890625" x2="71.2890625" y2="40.0390625" id="line_173" class="solid" />
<line x1="72.20458984375" y1="98.69384765625" x2="60.6689453125" y2="98.69384765625" id="line_174" class="solid" />
<line x1="0.0" y1="-1.953125" x2="181.640625" y2="1.953125" id="line_176" class="solid" />
<line x1="5.859375" y1="265.625" x2="-1.953125" y2="109.375" id="line_180" class="solid" />
<line x1="60.6689453125" y1="98.69384765625" x2="66.40625" y2="215.8203125" id="line_181" class="solid" />
<line x1="66.40625" y1="215.8203125" x2="76.47705078125" y2="216.61376953125" id="line_182" class="solid" />
<line x1="81.0546875" y1="250.0" x2="67.3828125" y2="257.8125" id="line_183" class="solid" />
<line x1="119.140625" y1="363.28125" x2="5.859375" y2="265.625" id="line_184" class="solid" />
<line x1="67.3828125" y1="257.8125" x2="149.4140625" y2="331.0546875" id="line_185" class="solid" />
<line x1="149.4140625" y1="331.0546875" x2="159.1796875" y2="318.359375" id="line_186" class="solid" />
<line x1="271.484375" y1="408.203125" x2="119.140625" y2="363.28125" id="line_187" class="solid" />
<line x1="280.2734375" y1="353.515625" x2="282.2265625" y2="367.1875" id="line_188" class="solid" />
<line x1="282.2265625" y1="367.1875" x2="332.03125" y2="349.609375" id="line_189" class="solid" />
<line x1="380.859375" y1="376.953125" x2="271.484375" y2="408.203125" id="line_190" class="solid" />
<line x1="500.0" y1="226.5625" x2="380.859375" y2="376.953125" id="line_191" class="solid" />
<line x1="332.03125" y1="349.609375" x2="424.8046875" y2="244.140625" id="line_192" class="solid" />
<line x1="424.8046875" y1="244.140625" x2="415.0390625" y2="236.328125" id="line_193" class="solid" />
<line x1="442.3828125" y1="207.03125" x2="453.125" y2="213.8671875" id="line_194" class="solid" />
<line x1="453.125" y1="213.8671875" x2="478.515625" y2="27.34375" id="line_195" class="solid" />
<line x1="519.53125" y1="-0.9765625" x2="500.0" y2="226.5625" id="line_196" class="solid" />
<line x1="497.0703125" y1="-71.2890625" x2="519.53125" y2="-0.9765625" id="line_198" class="solid" />
<line x1="345.703125" y1="-71.2890625" x2="497.0703125" y2="-71.2890625" id="line_199" class="solid" />
<line x1="469.7265625" y1="-25.390625" x2="393.5546875" y2="-32.2265625" id="line_200" class="solid" />
<line x1="393.5546875" y1="-32.2265625" x2="393.5546875" y2="-21.484375" id="line_201" class="solid" />
<line x1="350.5859375" y1="-18.5546875" x2="345.703125" y2="-71.2890625" id="line_202" class="solid" />
<line x1="311.8896484375" y1="93.994140625" x2="322.57080078125" y2="104.3701171875" id="line_215" class="solid" />
<line x1="322.57080078125" y1="104.3701171875" x2="310.97412109375" y2="115.966796875" id="line_216" class="solid" />
<line x1="300.72021484375" y1="105.40771484375" x2="286.1328125" y2="121.09375" id="line_217" class="solid" />
<line x1="310.97412109375" y1="115.966796875" x2="300.72021484375" y2="105.40771484375" id="line_218" class="solid" />
<line x1="168.9453125" y1="277.34375" x2="206.0546875" y2="280.2734375" id="line_221" class="solid" />
<line x1="206.0546875" y1="280.2734375" x2="209.9609375" y2="217.7734375" id="line_222" class="solid" />
<line x1="239.2578125" y1="216.796875" x2="233.3984375" y2="288.0859375" id="line_223" class="solid" />
<line x1="233.3984375" y1="288.0859375" x2="265.625" y2="312.5" id="line_224" class="solid" />
<line x1="463.8671875" y1="-17.578125" x2="469.7265625" y2="-25.390625" id="line_226" class="solid" />
<line x1="478.515625" y1="27.34375" x2="469.7265625" y2="29.296875" id="line_227" class="solid" />
<!-- end group: "border_solid" -->
</g>
<!-- end group: "borders" -->
</g>
<g id="poly_teleporter_lines">
<g id="panel_teleporter_lines_p69">
<g id="panel_teleporter_line_group_poly_p69_p64">
<line x1="311.5234375" y1="104.91943359375" x2="491.2109375" y2="-17.578125" id="panel_teleporter_border_p69_p64" class="teleporter_border" />
<use xlink:href="../resources/svg/common.svg#arrow" x="491.2109375" y="-17.578125" id="panel_teleporter_head_p69_p64" class="teleporter_line" transform="rotate(-34.2832534523218 491.2109375 -17.578125)" />
<line x1="311.5234375" y1="104.91943359375" x2="491.2109375" y2="-17.578125" id="panel_teleporter_line_p69_p64" class="teleporter_line" />
<!-- end group: "panel_teleporter_line_group_poly_p69_p64" -->
</g>
<!-- end group: "panel_teleporter_lines_p69" -->
</g>
<!-- end group: "poly_teleporter_lines" -->
</g>
<g id="objects">
<g id="objects_item">
<use xlink:href="../resources/svg/common.svg#item" x="227.05078125" y="169.5556640625" id="object_1" class="item item-5" transform="rotate(123.75 227.05078125 169.5556640625)" />
<use xlink:href="../resources/svg/common.svg#item" x="306.15234375" y="247.55859375" id="object_2" class="item item-5" transform="rotate(123.75 306.15234375 247.55859375)" />
<use xlink:href="../resources/svg/common.svg#item" x="97.7783203125" y="170.2880859375" id="object_3" class="item item-3" transform="rotate(123.75 97.7783203125 170.2880859375)" />
<use xlink:href="../resources/svg/common.svg#item" x="30.2734375" y="236.328125" id="object_13" class="item item-5" transform="rotate(4.21875 30.2734375 236.328125)" />
<use xlink:href="../resources/svg/common.svg#item" x="214.84375" y="366.2109375" id="object_14" class="item item-5" transform="rotate(4.21875 214.84375 366.2109375)" />
<use xlink:href="../resources/svg/common.svg#item" x="487.3046875" y="127.9296875" id="object_15" class="item item-5" transform="rotate(231.328125 487.3046875 127.9296875)" />
<use xlink:href="../resources/svg/common.svg#item" x="353.515625" y="158.203125" id="object_16" class="item item-3" transform="rotate(231.328125 353.515625 158.203125)" />
<use xlink:href="../resources/svg/common.svg#item" x="277.34375" y="218.75" id="object_17" class="item item-5" transform="rotate(23.203125 277.34375 218.75)" />
<use xlink:href="../resources/svg/common.svg#item" x="73.2421875" y="235.3515625" id="object_18" class="item item-3" transform="rotate(30.234375 73.2421875 235.3515625)" />
<use xlink:href="../resources/svg/common.svg#item" x="378.90625" y="13.671875" id="object_19" class="item item-3" transform="rotate(30.234375 378.90625 13.671875)" />
<use xlink:href="../resources/svg/common.svg#item" x="265.625" y="63.4765625" id="object_20" class="item item-3" transform="rotate(39.375 265.625 63.4765625)" />
<use xlink:href="../resources/svg/common.svg#item" x="231.4453125" y="180.6640625" id="object_21" class="item item-15" transform="rotate(231.328125 231.4453125 180.6640625)" />
<!-- end group: "objects_item" -->
</g>
<g id="objects_monster">
<use xlink:href="../resources/svg/common.svg#monster" x="252.685546875" y="31.494140625" id="object_4" class="monster monster-7" transform="rotate(40.078125 252.685546875 31.494140625)" />
<use xlink:href="../resources/svg/common.svg#monster" x="347.65625" y="291.9921875" id="object_5" class="monster monster-6" transform="rotate(76.640625 347.65625 291.9921875)" />
<use xlink:href="../resources/svg/common.svg#monster" x="203.125" y="297.8515625" id="object_22" class="monster monster-24" transform="rotate(302.34375 203.125 297.8515625)" />
<use xlink:href="../resources/svg/common.svg#monster" x="235.3515625" y="317.3828125" id="object_23" class="monster monster-14" transform="rotate(302.34375 235.3515625 317.3828125)" />
<!-- end group: "objects_monster" -->
</g>
<g id="objects_player">
<use xlink:href="../resources/svg/common.svg#monster" x="87.890625" y="166.9921875" id="object_0" class="player" transform="rotate(355.78125 87.890625 166.9921875)" />
<use xlink:href="../resources/svg/common.svg#monster" x="342.7734375" y="267.578125" id="object_6" class="player" transform="rotate(217.265625 342.7734375 267.578125)" />
<use xlink:href="../resources/svg/common.svg#monster" x="257.8125" y="182.6171875" id="object_7" class="player" transform="rotate(259.453125 257.8125 182.6171875)" />
<use xlink:href="../resources/svg/common.svg#monster" x="349.609375" y="41.015625" id="object_8" class="player" transform="rotate(131.484375 349.609375 41.015625)" />
<use xlink:href="../resources/svg/common.svg#monster" x="200.1953125" y="360.3515625" id="object_9" class="player" transform="rotate(294.609375 200.1953125 360.3515625)" />
<use xlink:href="../resources/svg/common.svg#monster" x="464.84375" y="242.1875" id="object_10" class="player" transform="rotate(225.0 464.84375 242.1875)" />
<use xlink:href="../resources/svg/common.svg#monster" x="366.2109375" y="-42.96875" id="object_11" class="player" transform="rotate(90.0 366.2109375 -42.96875)" />
<use xlink:href="../resources/svg/common.svg#monster" x="22.4609375" y="71.2890625" id="object_12" class="player" />
<!-- end group: "objects_player" -->
</g>
<!-- end group: "objects" -->
</g>
<g id="panels">
<!-- end group: "panels" -->
</g>

<script xlink:href="../resources/js/level.js" ></script>
</svg>