<?xml version="1.0" encoding="UTF-8"?>
<!-- generated by map2svg: github.com/fracai/marathon-svg -->
<svg xmlns="http://www.w3.org/2000/svg" xmlns:xlink="http://www.w3.org/1999/xlink" version="1.1"
    viewBox="-156.25 -176.239013671875 801.361083984375 863.739013671875">
<link xmlns="http://www.w3.org/1999/xhtml" rel="stylesheet" href="../resources/css/styles.css" type="text/css" />
<style id="dynamic-style" />
<g id="background-grid">
<defs>
<pattern id="grid_minor" width="3.125" height="3.125" patternUnits="userSpaceOnUse">
<path d="M 3.125 0 L 0 0 0 3.125" fill="none" class="grid_minor" />
</pattern>
<pattern id="grid_major" width="31.25" height="31.25" patternUnits="userSpaceOnUse">
<rect width="31.25" height="31.25" fill="url(#grid_minor)"/>
<path d="M 31.25 0 L 0 0 0 31.25" fill="none" class="grid_major" />
</pattern>
</defs>
<rect x="-1000" y="-1000" width="2000" height="2000" fill="url(#grid_major)" />
<line x1="0" y1="1000" x2="0" y2="-1000" class="grid_origin" />
<line x1="1000" y1="0" x2="-1000" y2="0" class="grid_origin" />
<!-- end group: "background-grid" -->
</g>
<g id="polygons">
<polygon points="-91.796875,140.625 -65.4296875,140.625 -72.265625,151.3671875 -83.984375,151.3671875" id="poly_67" class="plain" />
<polygon points="-91.796875,140.625 -83.984375,151.3671875 -83.984375,186.5234375 -91.796875,197.265625" id="poly_68" class="plain" />
<polygon points="-83.984375,186.5234375 -72.265625,186.5234375 -65.4296875,197.265625 -91.796875,197.265625" id="poly_69" class="plain" />
<polygon points="-72.265625,151.3671875 -65.4296875,140.625 -65.4296875,197.265625 -72.265625,186.5234375" id="poly_70" class="plain" />
<polygon points="-83.984375,151.3671875 -72.265625,151.3671875 -72.265625,186.5234375 -83.984375,186.5234375" id="poly_71" class="plain" />
<polygon points="507.537841796875,218.6279296875 613.861083984375,218.6279296875 613.861083984375,249.93896484375 507.38525390625,249.93896484375" id="poly_86" class="plain" />
<polygon points="504.2724609375,218.6279296875 507.537841796875,218.6279296875 507.38525390625,249.93896484375 504.2724609375,249.93896484375" id="poly_87" class="platform" />
<polygon points="500.0,218.75 504.2724609375,218.6279296875 504.2724609375,249.93896484375 500.0,250.0" id="poly_88" class="plain" />
<polygon points="62.5,203.125 78.125,203.125 78.125,218.75 62.5,218.75" id="poly_96" class="teleporter" />
<polygon points="250.0,31.25 341.796875,-66.40625 407.04345703125,62.3779296875 375.0,62.5 250.0,62.5" id="poly_15" class="plain" />
<polygon points="341.796875,-66.40625 425.10986328125,37.59765625 407.04345703125,62.3779296875" id="poly_16" class="plain" />
<polygon points="425.10986328125,37.59765625 436.431884765625,48.7060546875 407.04345703125,62.3779296875" id="poly_17" class="plain" />
<polygon points="436.431884765625,48.7060546875 436.431884765625,62.3779296875 407.04345703125,62.3779296875" id="poly_18" class="plain" />
<polygon points="281.25,125.0 312.286376953125,109.31396484375 343.75,140.625 312.19482421875,156.18896484375" id="poly_19" class="plain" />
<polygon points="312.286376953125,109.31396484375 407.04345703125,109.31396484375 407.04345703125,140.625 343.75,140.625" id="poly_21" class="plain" />
<polygon points="407.04345703125,62.3779296875 436.431884765625,62.3779296875 436.431884765625,140.625 407.04345703125,140.625 407.04345703125,109.31396484375" id="poly_22" class="plain" />
<polygon points="407.04345703125,140.625 436.431884765625,140.625 436.431884765625,148.040771484375 407.04345703125,148.040771484375" id="poly_23" class="plain" />
<polygon points="407.04345703125,148.040771484375 436.431884765625,148.040771484375 436.431884765625,187.042236328125 406.951904296875,186.920166015625" id="poly_24" class="plain" />
<polygon points="406.951904296875,186.920166015625 436.431884765625,187.042236328125 500.0,218.75 500.0,250.0 437.5,281.25 406.25,281.25 374.93896484375,249.93896484375 375.0,218.75" id="poly_27" class="plain" />
<polygon points="109.375,31.25 187.5,31.25 187.5,62.5 109.375,62.5" id="poly_34" class="plain" />
<polygon points="406.25,281.25 437.5,281.25 437.5,410.15625 406.25,410.15625" id="poly_39" class="plain" />
<polygon points="187.5,31.25 250.0,31.25 250.0,62.5 187.5,62.5" id="poly_0" class="plain" />
<polygon points="203.125,0.0 234.375,0.0 250.0,31.25 187.5,31.25" id="poly_1" class="plain" />
<polygon points="203.125,-31.25 234.375,-31.25 234.375,0.0 203.125,0.0" id="poly_2" class="plain" />
<polygon points="187.5,62.5 250.0,62.5 234.375,93.75 203.125,93.75" id="poly_3" class="plain" />
<polygon points="203.125,93.75 234.375,93.75 234.375,125.0 203.125,125.0" id="poly_4" class="plain" />
<polygon points="85.9375,7.8125 109.375,31.25 109.375,62.5 85.9375,78.125" id="poly_35" class="plain" />
<polygon points="-125.0,7.8125 -85.9375,7.8125 85.9375,7.8125 85.9375,78.125 -31.25,78.125 -125.0,78.125" id="poly_36" class="plain" />
<polygon points="-125.0,78.125 -31.25,78.125 -65.4296875,140.625 -91.796875,140.625" id="poly_72" class="plain" />
<polygon points="-125.0,78.125 -91.796875,140.625 -91.796875,197.265625 -125.0,250.0" id="poly_73" class="plain" />
<polygon points="-91.796875,197.265625 -65.4296875,197.265625 -31.25,250.0 -125.0,250.0" id="poly_74" class="plain" />
<polygon points="-31.25,78.125 -31.25,171.875 -65.4296875,197.265625 -65.4296875,140.625" id="poly_75" class="plain" />
<polygon points="-65.4296875,197.265625 -31.25,171.875 -31.25,250.0" id="poly_76" class="plain" />
<polygon points="0.0,250.0 31.25,250.0 31.25,406.25 0.0,406.25" id="poly_77" class="plain" />
<polygon points="-31.25,171.875 62.5,171.875 62.5,203.125 62.5,218.75 62.5,250.0 31.25,250.0 0.0,250.0 -31.25,250.0" id="poly_79" class="plain" />
<polygon points="156.25,125.0 203.125,125.0 234.375,125.0 281.25,125.0 312.19482421875,156.18896484375 125.0,156.25" id="poly_80" class="plain" />
<polygon points="125.0,172.119140625 125.0,156.25 312.19482421875,156.18896484375 312.31689453125,218.75 125.0,218.75" id="poly_81" class="plain" />
<polygon points="125.0,218.75 312.31689453125,218.75 312.31689453125,249.93896484375 312.31689453125,276.85546875 295.8984375,294.921875 125.0,294.921875 125.0,265.625" id="poly_84" class="plain" />
<polygon points="406.25,410.15625 437.5,410.15625 437.5,437.5 406.25,437.5" id="poly_40" class="plain" />
<polygon points="203.125,-46.875 234.375,-46.875 234.375,-31.25 203.125,-31.25" id="poly_5" class="plain" />
<polygon points="367.431640625,218.75 375.0,218.75 374.93896484375,249.93896484375 367.431640625,249.93896484375" id="poly_28" class="plain" />
<polygon points="-18.310546875,163.57421875 48.828125,163.57421875 62.5,171.875 -31.25,171.875" id="poly_66" class="plain" />
<polygon points="125.0,109.375 156.25,125.0 125.0,156.25 93.75,140.625" id="poly_20" class="platform" />
<polygon points="-125.0,-31.25 -85.9375,-31.25 -85.9375,7.8125 -125.0,7.8125" id="poly_37" class="platform" />
<polygon points="0.0,406.25 31.25,406.25 31.25,437.5 0.0,437.5" id="poly_78" class="platform" />
<polygon points="-10.711669921875,154.72412109375 42.48046875,154.72412109375 48.828125,163.57421875 -18.310546875,163.57421875" id="poly_65" class="plain" />
<polygon points="359.31396484375,218.75 367.431640625,218.75 367.431640625,249.93896484375 359.31396484375,249.93896484375" id="poly_29" class="plain" />
<polygon points="203.125,-62.5 234.375,-62.5 234.375,-46.875 203.125,-46.875" id="poly_6" class="plain" />
<polygon points="-5.31005859375,146.484375 38.818359375,146.484375 42.48046875,154.72412109375 -10.711669921875,154.72412109375" id="poly_64" class="plain" />
<polygon points="0.6103515625,137.3291015625 35.5224609375,137.3291015625 38.818359375,146.484375 -5.31005859375,146.484375" id="poly_63" class="plain" />
<polygon points="351.837158203125,218.75 359.31396484375,218.75 359.31396484375,249.93896484375 351.837158203125,249.93896484375" id="poly_31" class="plain" />
<polygon points="203.125,-78.125 234.375,-78.125 234.375,-62.5 203.125,-62.5" id="poly_7" class="plain" />
<polygon points="4.21142578125,128.5400390625 33.50830078125,128.5400390625 35.5224609375,137.3291015625 0.6103515625,137.3291015625" id="poly_62" class="plain" />
<polygon points="7.9345703125,119.62890625 31.005859375,119.62890625 33.50830078125,128.5400390625 4.21142578125,128.5400390625" id="poly_61" class="plain" />
<polygon points="344.3603515625,218.75 351.837158203125,218.75 351.837158203125,249.93896484375 344.3603515625,249.93896484375" id="poly_30" class="plain" />
<polygon points="203.125,-93.75 234.375,-109.375 234.375,-78.125 203.125,-78.125" id="poly_8" class="plain" />
<polygon points="7.87353515625,108.94775390625 31.1279296875,108.94775390625 31.005859375,119.62890625 7.9345703125,119.62890625" id="poly_60" class="plain" />
<polygon points="7.9345703125,98.876953125 31.1279296875,98.876953125 31.1279296875,108.94775390625 7.87353515625,108.94775390625" id="poly_59" class="plain" />
<polygon points="312.31689453125,218.75 330.6884765625,218.75 330.6884765625,249.93896484375 312.31689453125,249.93896484375" id="poly_25" class="plain" />
<polygon points="330.6884765625,218.75 337.5244140625,218.75 337.5244140625,249.93896484375 330.6884765625,249.93896484375" id="poly_26" class="plain" />
<polygon points="337.5244140625,218.75 344.3603515625,218.75 344.3603515625,249.93896484375 337.5244140625,249.93896484375" id="poly_32" class="plain" />
<polygon points="78.125,218.75 93.75,218.75 93.75,234.375 78.125,234.375" id="poly_97" class="teleporter" />
<polygon points="197.75390625,-107.666015625 222.47314453125,-129.364013671875 234.375,-109.375 203.125,-93.75" id="poly_9" class="plain" />
<polygon points="51.8798828125,-14.6484375 64.697265625,-19.53125 74.462890625,-3.662109375 62.255859375,0.0" id="poly_49" class="plain" />
<polygon points="39.6728515625,-6.7138671875 51.8798828125,-14.6484375 62.255859375,0.0 53.1005859375,5.4931640625" id="poly_50" class="plain" />
<polygon points="30.517578125,0.6103515625 39.6728515625,-6.7138671875 53.1005859375,5.4931640625 45.7763671875,14.0380859375" id="poly_51" class="plain" />
<polygon points="21.3623046875,9.1552734375 30.517578125,0.6103515625 45.7763671875,14.0380859375 39.6728515625,21.3623046875" id="poly_52" class="plain" />
<polygon points="21.3623046875,9.1552734375 39.6728515625,21.3623046875 36.62109375,28.6865234375 14.6484375,18.9208984375" id="poly_53" class="plain" />
<polygon points="14.6484375,18.9208984375 36.62109375,28.6865234375 32.3486328125,37.841796875 9.765625,31.73828125" id="poly_54" class="plain" />
<polygon points="9.765625,31.73828125 32.3486328125,37.841796875 31.1279296875,45.166015625 7.9345703125,45.166015625" id="poly_55" class="plain" />
<polygon points="7.9345703125,45.166015625 31.1279296875,45.166015625 31.1279296875,90.33203125 7.9345703125,90.33203125" id="poly_56" class="plain" />
<polygon points="7.9345703125,90.33203125 31.1279296875,90.33203125 31.1279296875,98.876953125 7.9345703125,98.876953125" id="poly_58" class="plain" />
<polygon points="93.75,218.75 93.75,171.875 125.0,172.119140625 125.0,218.75 125.0,265.625 93.75,265.625 93.75,234.375" id="poly_82" class="plain" />
<polygon points="93.75,140.625 125.0,156.25 125.0,172.119140625 93.75,171.875" id="poly_83" class="plain" />
<polygon points="312.31689453125,276.85546875 321.71630859375,276.85546875 321.71630859375,309.326171875 296.5087890625,309.326171875 295.8984375,294.921875" id="poly_85" class="plain" />
<polygon points="64.697265625,-19.53125 80.56640625,-22.5830078125 90.9423828125,-7.9345703125 74.462890625,-3.662109375" id="poly_48" class="plain" />
<polygon points="210.9375,-138.427734375 222.47314453125,-129.364013671875 197.75390625,-107.666015625 186.492919921875,-115.3564453125" id="poly_10" class="plain" />
<polygon points="80.56640625,-22.5830078125 92.1630859375,-25.634765625 106.8115234375,-12.8173828125 90.9423828125,-7.9345703125" id="poly_47" class="plain" />
<polygon points="92.1630859375,-25.634765625 102.5390625,-30.517578125 122.0703125,-20.1416015625 106.8115234375,-12.8173828125" id="poly_46" class="plain" />
<polygon points="102.5390625,-30.517578125 109.86328125,-36.62109375 133.6669921875,-31.73828125 122.0703125,-20.1416015625" id="poly_45" class="plain" />
<polygon points="196.746826171875,-144.989013671875 210.9375,-138.427734375 186.492919921875,-115.3564453125 178.314208984375,-119.903564453125" id="poly_11" class="plain" />
<polygon points="113.525390625,-43.9453125 135.498046875,-43.9453125 133.6669921875,-31.73828125 109.86328125,-36.62109375" id="poly_57" class="plain" />
<polygon points="113.525390625,-50.35400390625 135.498046875,-50.35400390625 135.498046875,-43.9453125 113.525390625,-43.9453125" id="poly_44" class="plain" />
<polygon points="181.121826171875,-144.744873046875 196.746826171875,-144.989013671875 178.314208984375,-119.903564453125 175.811767578125,-121.307373046875" id="poly_12" class="plain" />
<polygon points="174.13330078125,-144.744873046875 181.121826171875,-144.744873046875 175.811767578125,-121.307373046875 174.13330078125,-122.222900390625" id="poly_13" class="plain" />
<polygon points="171.93603515625,-144.744873046875 174.13330078125,-144.744873046875 174.13330078125,-122.222900390625 171.93603515625,-123.321533203125" id="poly_14" class="plain" />
<polygon points="70.037841796875,-144.6533203125 171.93603515625,-144.744873046875 171.93603515625,-123.321533203125 171.661376953125,-50.35400390625 135.498046875,-50.35400390625 113.525390625,-50.35400390625 70.037841796875,-50.35400390625" id="poly_33" class="plain" />
<polygon points="-125.0,-70.3125 -85.9375,-70.3125 -85.9375,-31.25 -125.0,-31.25" id="poly_38" class="plain" />
<polygon points="406.25,437.5 437.5,437.5 437.5,474.609375 406.25,474.609375" id="poly_41" class="plain" />
<polygon points="406.25,570.3125 437.5,570.3125 437.5,626.708984375 370.9716796875,626.5869140625 370.9716796875,599.4873046875" id="poly_42" class="plain" />
<polygon points="406.25,474.609375 437.5,474.609375 437.5,570.3125 406.25,570.3125" id="poly_43" class="plain" />
<polygon points="390.625,437.5 406.25,437.5 406.25,474.609375" id="poly_89" class="plain" />
<polygon points="0.0,437.5 31.25,437.5 31.25,468.75 0.0,468.75" id="poly_90" class="plain" />
<polygon points="281.25,437.5 390.625,437.5 406.25,474.609375 281.25,484.375" id="poly_91" class="plain" />
<polygon points="109.375,437.5 281.25,437.5 281.25,484.375 109.375,484.375" id="poly_92" class="plain" />
<polygon points="31.25,437.5 109.375,437.5 109.375,484.375 31.25,468.75" id="poly_93" class="plain" />
<polygon points="109.375,484.375 281.25,484.375 281.25,562.5 218.75,593.75 156.25,593.75 107.421875,552.734375" id="poly_94" class="plain" />
<polygon points="156.25,593.75 218.75,593.75 218.75,656.25 156.25,656.25" id="poly_95" class="plain" />
<!-- end group: "polygons" -->
</g>
<g id="borders">
<g id="border_pointless">
<line x1="250.0" y1="31.25" x2="250.0" y2="31.25" id="line_16" class="pointless" />
<!-- end group: "border_pointless" -->
</g>
<g id="border_unconnected">
<line x1="93.75" y1="218.75" x2="93.75" y2="234.375" id="line_264" class="unconnected" />
<!-- end group: "border_unconnected" -->
</g>
<g id="border_plain">
<line x1="187.5" y1="31.25" x2="250.0" y2="31.25" id="line_12" class="plain" />
<line x1="250.0" y1="62.5" x2="187.5" y2="62.5" id="line_13" class="plain" />
<line x1="203.125" y1="0.0" x2="234.375" y2="0.0" id="line_14" class="plain" />
<line x1="234.375" y1="93.75" x2="203.125" y2="93.75" id="line_15" class="plain" />
<line x1="174.13330078125" y1="-122.222900390625" x2="174.13330078125" y2="-144.744873046875" id="line_41" class="plain" />
<line x1="175.811767578125" y1="-121.307373046875" x2="181.121826171875" y2="-144.744873046875" id="line_45" class="plain" />
<line x1="171.93603515625" y1="-123.321533203125" x2="171.93603515625" y2="-144.744873046875" id="line_46" class="plain" />
<line x1="341.796875" y1="-66.40625" x2="407.04345703125" y2="62.3779296875" id="line_53" class="plain" />
<line x1="425.10986328125" y1="37.59765625" x2="407.04345703125" y2="62.3779296875" id="line_54" class="plain" />
<line x1="436.431884765625" y1="48.7060546875" x2="407.04345703125" y2="62.3779296875" id="line_55" class="plain" />
<line x1="436.431884765625" y1="62.3779296875" x2="407.04345703125" y2="62.3779296875" id="line_56" class="plain" />
<line x1="312.286376953125" y1="109.31396484375" x2="343.75" y2="140.625" id="line_63" class="plain" />
<line x1="436.431884765625" y1="140.625" x2="407.04345703125" y2="140.625" id="line_69" class="plain" />
<line x1="407.04345703125" y1="109.31396484375" x2="407.04345703125" y2="140.625" id="line_72" class="plain" />
<line x1="436.431884765625" y1="148.040771484375" x2="407.04345703125" y2="148.040771484375" id="line_75" class="plain" />
<line x1="437.5" y1="281.25" x2="406.25" y2="281.25" id="line_80" class="plain" />
<line x1="436.431884765625" y1="187.042236328125" x2="406.951904296875" y2="186.920166015625" id="line_85" class="plain" />
<line x1="337.5244140625" y1="218.75" x2="337.5244140625" y2="249.93896484375" id="line_86" class="plain" />
<line x1="330.6884765625" y1="218.75" x2="330.6884765625" y2="249.93896484375" id="line_88" class="plain" />
<line x1="85.9375" y1="78.125" x2="85.9375" y2="7.8125" id="line_135" class="plain" />
<line x1="-31.25" y1="78.125" x2="-125.0" y2="78.125" id="line_136" class="plain" />
<line x1="437.5" y1="474.609375" x2="406.25" y2="474.609375" id="line_144" class="plain" />
<line x1="406.25" y1="474.609375" x2="406.25" y2="437.5" id="line_145" class="plain" />
<line x1="406.25" y1="570.3125" x2="437.5" y2="570.3125" id="line_152" class="plain" />
<line x1="62.255859375" y1="0.0" x2="51.8798828125" y2="-14.6484375" id="line_176" class="plain" />
<line x1="53.1005859375" y1="5.4931640625" x2="39.6728515625" y2="-6.7138671875" id="line_178" class="plain" />
<line x1="45.7763671875" y1="14.0380859375" x2="30.517578125" y2="0.6103515625" id="line_181" class="plain" />
<line x1="39.6728515625" y1="21.3623046875" x2="21.3623046875" y2="9.1552734375" id="line_185" class="plain" />
<line x1="36.62109375" y1="28.6865234375" x2="14.6484375" y2="18.9208984375" id="line_188" class="plain" />
<line x1="32.3486328125" y1="37.841796875" x2="9.765625" y2="31.73828125" id="line_190" class="plain" />
<line x1="31.1279296875" y1="45.166015625" x2="7.9345703125" y2="45.166015625" id="line_193" class="plain" />
<line x1="31.1279296875" y1="90.33203125" x2="7.9345703125" y2="90.33203125" id="line_197" class="plain" />
<line x1="-31.25" y1="171.875" x2="-31.25" y2="250.0" id="line_224" class="plain" />
<line x1="0.0" y1="250.0" x2="31.25" y2="250.0" id="line_234" class="plain" />
<line x1="-83.984375" y1="151.3671875" x2="-83.984375" y2="186.5234375" id="line_250" class="plain" />
<line x1="-83.984375" y1="186.5234375" x2="-72.265625" y2="186.5234375" id="line_251" class="plain" />
<line x1="-72.265625" y1="186.5234375" x2="-72.265625" y2="151.3671875" id="line_252" class="plain" />
<line x1="-72.265625" y1="151.3671875" x2="-83.984375" y2="151.3671875" id="line_253" class="plain" />
<line x1="-83.984375" y1="151.3671875" x2="-91.796875" y2="140.625" id="line_254" class="plain" />
<line x1="-65.4296875" y1="140.625" x2="-72.265625" y2="151.3671875" id="line_255" class="plain" />
<line x1="-72.265625" y1="186.5234375" x2="-65.4296875" y2="197.265625" id="line_256" class="plain" />
<line x1="-83.984375" y1="186.5234375" x2="-91.796875" y2="197.265625" id="line_257" class="plain" />
<line x1="-31.25" y1="78.125" x2="-65.4296875" y2="140.625" id="line_258" class="plain" />
<line x1="-91.796875" y1="140.625" x2="-125.0" y2="78.125" id="line_259" class="plain" />
<line x1="-91.796875" y1="197.265625" x2="-125.0" y2="250.0" id="line_260" class="plain" />
<line x1="-65.4296875" y1="197.265625" x2="-31.25" y2="250.0" id="line_261" class="plain" />
<line x1="-31.25" y1="171.875" x2="-65.4296875" y2="197.265625" id="line_262" class="plain" />
<line x1="312.19482421875" y1="156.18896484375" x2="125.0" y2="156.25" id="line_265" class="plain" />
<line x1="312.31689453125" y1="218.75" x2="125.0" y2="218.75" id="line_266" class="plain" />
<line x1="93.75" y1="171.875" x2="125.0" y2="172.119140625" id="line_267" class="plain" />
<line x1="406.25" y1="474.609375" x2="390.625" y2="437.5" id="line_281" class="plain" />
<line x1="31.25" y1="437.5" x2="31.25" y2="468.75" id="line_283" class="plain" />
<line x1="109.375" y1="484.375" x2="109.375" y2="437.5" id="line_287" class="plain" />
<line x1="281.25" y1="484.375" x2="109.375" y2="484.375" id="line_289" class="plain" />
<line x1="281.25" y1="484.375" x2="281.25" y2="437.5" id="line_290" class="plain" />
<line x1="218.75" y1="593.75" x2="156.25" y2="593.75" id="line_292" class="plain" />
<!-- end group: "border_plain" -->
</g>
<g id="border_ceiling">
<line x1="234.375" y1="125.0" x2="203.125" y2="125.0" id="line_0" class="ceiling" />
<line x1="250.0" y1="31.25" x2="250.0" y2="62.5" id="line_5" class="ceiling" />
<line x1="187.5" y1="62.5" x2="187.5" y2="31.25" id="line_6" class="ceiling" />
<line x1="312.19482421875" y1="156.18896484375" x2="281.25" y2="125.0" id="line_60" class="ceiling" />
<line x1="500.0" y1="218.75" x2="500.0" y2="250.0" id="line_83" class="ceiling" />
<line x1="135.498046875" y1="-50.35400390625" x2="113.525390625" y2="-50.35400390625" id="line_117" class="ceiling" />
<line x1="109.375" y1="62.5" x2="109.375" y2="31.25" id="line_134" class="ceiling" />
<line x1="437.5" y1="410.15625" x2="406.25" y2="410.15625" id="line_139" class="ceiling" />
<line x1="93.75" y1="234.375" x2="93.75" y2="218.75" id="line_230" class="ceiling" />
<line x1="62.5" y1="203.125" x2="62.5" y2="218.75" id="line_231" class="ceiling" />
<line x1="-91.796875" y1="197.265625" x2="-91.796875" y2="140.625" id="line_246" class="ceiling" />
<line x1="-65.4296875" y1="197.265625" x2="-91.796875" y2="197.265625" id="line_247" class="ceiling" />
<line x1="-65.4296875" y1="140.625" x2="-65.4296875" y2="197.265625" id="line_248" class="ceiling" />
<line x1="-91.796875" y1="140.625" x2="-65.4296875" y2="140.625" id="line_249" class="ceiling" />
<!-- end group: "border_ceiling" -->
</g>
<g id="border_elevation">
<line x1="203.125" y1="-31.25" x2="234.375" y2="-31.25" id="line_11" class="elevation" />
<line x1="203.125" y1="-46.875" x2="234.375" y2="-46.875" id="line_18" class="elevation" />
<line x1="203.125" y1="-62.5" x2="234.375" y2="-62.5" id="line_21" class="elevation" />
<line x1="203.125" y1="-78.125" x2="234.375" y2="-78.125" id="line_24" class="elevation" />
<line x1="203.125" y1="-93.75" x2="234.375" y2="-109.375" id="line_28" class="elevation" />
<line x1="197.75390625" y1="-107.666015625" x2="222.47314453125" y2="-129.364013671875" id="line_31" class="elevation" />
<line x1="186.492919921875" y1="-115.3564453125" x2="210.9375" y2="-138.427734375" id="line_33" class="elevation" />
<line x1="178.314208984375" y1="-119.903564453125" x2="196.746826171875" y2="-144.989013671875" id="line_43" class="elevation" />
<line x1="374.93896484375" y1="249.93896484375" x2="375.0" y2="218.75" id="line_78" class="elevation" />
<line x1="312.31689453125" y1="249.93896484375" x2="312.31689453125" y2="218.75" id="line_93" class="elevation" />
<line x1="344.3603515625" y1="249.93896484375" x2="344.3603515625" y2="218.75" id="line_99" class="elevation" />
<line x1="351.837158203125" y1="218.75" x2="351.837158203125" y2="249.93896484375" id="line_102" class="elevation" />
<line x1="359.31396484375" y1="249.93896484375" x2="359.31396484375" y2="218.75" id="line_104" class="elevation" />
<line x1="367.431640625" y1="249.93896484375" x2="367.431640625" y2="218.75" id="line_107" class="elevation" />
<line x1="437.5" y1="437.5" x2="406.25" y2="437.5" id="line_141" class="elevation" />
<line x1="125.0" y1="172.119140625" x2="125.0" y2="156.25" id="line_154" class="elevation" />
<line x1="125.0" y1="218.75" x2="125.0" y2="172.119140625" id="line_155" class="elevation" />
<line x1="135.498046875" y1="-43.9453125" x2="113.525390625" y2="-43.9453125" id="line_159" class="elevation" />
<line x1="109.86328125" y1="-36.62109375" x2="133.6669921875" y2="-31.73828125" id="line_161" class="elevation" />
<line x1="122.0703125" y1="-20.1416015625" x2="102.5390625" y2="-30.517578125" id="line_163" class="elevation" />
<line x1="106.8115234375" y1="-12.8173828125" x2="92.1630859375" y2="-25.634765625" id="line_167" class="elevation" />
<line x1="90.9423828125" y1="-7.9345703125" x2="80.56640625" y2="-22.5830078125" id="line_170" class="elevation" />
<line x1="74.462890625" y1="-3.662109375" x2="64.697265625" y2="-19.53125" id="line_175" class="elevation" />
<line x1="31.1279296875" y1="98.876953125" x2="7.9345703125" y2="98.876953125" id="line_200" class="elevation" />
<line x1="31.1279296875" y1="108.94775390625" x2="7.87353515625" y2="108.94775390625" id="line_203" class="elevation" />
<line x1="31.005859375" y1="119.62890625" x2="7.9345703125" y2="119.62890625" id="line_206" class="elevation" />
<line x1="33.50830078125" y1="128.5400390625" x2="4.21142578125" y2="128.5400390625" id="line_209" class="elevation" />
<line x1="35.5224609375" y1="137.3291015625" x2="0.6103515625" y2="137.3291015625" id="line_212" class="elevation" />
<line x1="38.818359375" y1="146.484375" x2="-5.31005859375" y2="146.484375" id="line_215" class="elevation" />
<line x1="42.48046875" y1="154.72412109375" x2="-10.711669921875" y2="154.72412109375" id="line_218" class="elevation" />
<line x1="48.828125" y1="163.57421875" x2="-18.310546875" y2="163.57421875" id="line_221" class="elevation" />
<line x1="62.5" y1="171.875" x2="-31.25" y2="171.875" id="line_232" class="elevation" />
<line x1="125.0" y1="218.75" x2="125.0" y2="265.625" id="line_263" class="elevation" />
<line x1="312.31689453125" y1="276.85546875" x2="295.8984375" y2="294.921875" id="line_271" class="elevation" />
<!-- end group: "border_elevation" -->
</g>
<g id="border_solid">
<line x1="203.125" y1="125.0" x2="203.125" y2="93.75" id="line_1" class="solid" />
<line x1="234.375" y1="93.75" x2="234.375" y2="125.0" id="line_2" class="solid" />
<line x1="203.125" y1="93.75" x2="187.5" y2="62.5" id="line_3" class="solid" />
<line x1="250.0" y1="62.5" x2="234.375" y2="93.75" id="line_4" class="solid" />
<line x1="187.5" y1="31.25" x2="203.125" y2="0.0" id="line_7" class="solid" />
<line x1="234.375" y1="0.0" x2="250.0" y2="31.25" id="line_8" class="solid" />
<line x1="203.125" y1="0.0" x2="203.125" y2="-31.25" id="line_9" class="solid" />
<line x1="234.375" y1="-31.25" x2="234.375" y2="0.0" id="line_10" class="solid" />
<line x1="203.125" y1="-31.25" x2="203.125" y2="-46.875" id="line_17" class="solid" />
<line x1="234.375" y1="-46.875" x2="234.375" y2="-31.25" id="line_19" class="solid" />
<line x1="234.375" y1="-62.5" x2="234.375" y2="-46.875" id="line_20" class="solid" />
<line x1="203.125" y1="-46.875" x2="203.125" y2="-62.5" id="line_22" class="solid" />
<line x1="234.375" y1="-78.125" x2="234.375" y2="-62.5" id="line_23" class="solid" />
<line x1="203.125" y1="-62.5" x2="203.125" y2="-78.125" id="line_25" class="solid" />
<line x1="234.375" y1="-109.375" x2="234.375" y2="-78.125" id="line_26" class="solid" />
<line x1="203.125" y1="-78.125" x2="203.125" y2="-93.75" id="line_27" class="solid" />
<line x1="222.47314453125" y1="-129.364013671875" x2="234.375" y2="-109.375" id="line_29" class="solid" />
<line x1="203.125" y1="-93.75" x2="197.75390625" y2="-107.666015625" id="line_30" class="solid" />
<line x1="197.75390625" y1="-107.666015625" x2="186.492919921875" y2="-115.3564453125" id="line_32" class="solid" />
<line x1="210.9375" y1="-138.427734375" x2="222.47314453125" y2="-129.364013671875" id="line_34" class="solid" />
<line x1="196.746826171875" y1="-144.989013671875" x2="210.9375" y2="-138.427734375" id="line_35" class="solid" />
<line x1="186.492919921875" y1="-115.3564453125" x2="178.314208984375" y2="-119.903564453125" id="line_36" class="solid" />
<line x1="181.121826171875" y1="-144.744873046875" x2="196.746826171875" y2="-144.989013671875" id="line_37" class="solid" />
<line x1="174.13330078125" y1="-144.744873046875" x2="181.121826171875" y2="-144.744873046875" id="line_38" class="solid" />
<line x1="171.93603515625" y1="-144.744873046875" x2="174.13330078125" y2="-144.744873046875" id="line_39" class="solid" />
<line x1="174.13330078125" y1="-122.222900390625" x2="171.93603515625" y2="-123.321533203125" id="line_40" class="solid" />
<line x1="178.314208984375" y1="-119.903564453125" x2="175.811767578125" y2="-121.307373046875" id="line_42" class="solid" />
<line x1="175.811767578125" y1="-121.307373046875" x2="174.13330078125" y2="-122.222900390625" id="line_44" class="solid" />
<line x1="250.0" y1="31.25" x2="341.796875" y2="-66.40625" id="line_47" class="solid" />
<line x1="375.0" y1="62.5" x2="250.0" y2="62.5" id="line_48" class="solid" />
<line x1="341.796875" y1="-66.40625" x2="425.10986328125" y2="37.59765625" id="line_49" class="solid" />
<line x1="425.10986328125" y1="37.59765625" x2="436.431884765625" y2="48.7060546875" id="line_50" class="solid" />
<line x1="436.431884765625" y1="48.7060546875" x2="436.431884765625" y2="62.3779296875" id="line_51" class="solid" />
<line x1="407.04345703125" y1="62.3779296875" x2="375.0" y2="62.5" id="line_52" class="solid" />
<line x1="234.375" y1="125.0" x2="281.25" y2="125.0" id="line_57" class="solid" />
<line x1="156.25" y1="125.0" x2="203.125" y2="125.0" id="line_58" class="solid" />
<line x1="156.25" y1="125.0" x2="125.0" y2="156.25" id="line_59" class="solid" />
<line x1="281.25" y1="125.0" x2="312.286376953125" y2="109.31396484375" id="line_61" class="solid" />
<line x1="343.75" y1="140.625" x2="312.19482421875" y2="156.18896484375" id="line_62" class="solid" />
<line x1="125.0" y1="109.375" x2="156.25" y2="125.0" id="line_64" class="solid" />
<line x1="125.0" y1="156.25" x2="93.75" y2="140.625" id="line_65" class="solid" />
<line x1="93.75" y1="140.625" x2="125.0" y2="109.375" id="line_66" class="solid" />
<line x1="407.04345703125" y1="140.625" x2="343.75" y2="140.625" id="line_67" class="solid" />
<line x1="436.431884765625" y1="62.3779296875" x2="436.431884765625" y2="140.625" id="line_68" class="solid" />
<line x1="312.286376953125" y1="109.31396484375" x2="407.04345703125" y2="109.31396484375" id="line_70" class="solid" />
<line x1="407.04345703125" y1="109.31396484375" x2="407.04345703125" y2="62.3779296875" id="line_71" class="solid" />
<line x1="407.04345703125" y1="148.040771484375" x2="407.04345703125" y2="140.625" id="line_73" class="solid" />
<line x1="436.431884765625" y1="140.625" x2="436.431884765625" y2="148.040771484375" id="line_74" class="solid" />
<line x1="406.951904296875" y1="186.920166015625" x2="407.04345703125" y2="148.040771484375" id="line_76" class="solid" />
<line x1="375.0" y1="218.75" x2="406.951904296875" y2="186.920166015625" id="line_77" class="solid" />
<line x1="406.25" y1="281.25" x2="374.93896484375" y2="249.93896484375" id="line_79" class="solid" />
<line x1="436.431884765625" y1="148.040771484375" x2="436.431884765625" y2="187.042236328125" id="line_81" class="solid" />
<line x1="436.431884765625" y1="187.042236328125" x2="500.0" y2="218.75" id="line_82" class="solid" />
<line x1="500.0" y1="250.0" x2="437.5" y2="281.25" id="line_84" class="solid" />
<line x1="330.6884765625" y1="218.75" x2="337.5244140625" y2="218.75" id="line_87" class="solid" />
<line x1="337.5244140625" y1="249.93896484375" x2="330.6884765625" y2="249.93896484375" id="line_89" class="solid" />
<line x1="312.31689453125" y1="218.75" x2="330.6884765625" y2="218.75" id="line_90" class="solid" />
<line x1="312.19482421875" y1="156.18896484375" x2="312.31689453125" y2="218.75" id="line_91" class="solid" />
<line x1="330.6884765625" y1="249.93896484375" x2="312.31689453125" y2="249.93896484375" id="line_92" class="solid" />
<line x1="500.0" y1="218.75" x2="504.2724609375" y2="218.6279296875" id="line_94" class="solid" />
<line x1="504.2724609375" y1="249.93896484375" x2="504.2724609375" y2="218.6279296875" id="line_95" class="solid" />
<line x1="504.2724609375" y1="249.93896484375" x2="500.0" y2="250.0" id="line_96" class="solid" />
<line x1="337.5244140625" y1="218.75" x2="344.3603515625" y2="218.75" id="line_97" class="solid" />
<line x1="344.3603515625" y1="249.93896484375" x2="337.5244140625" y2="249.93896484375" id="line_98" class="solid" />
<line x1="344.3603515625" y1="218.75" x2="351.837158203125" y2="218.75" id="line_100" class="solid" />
<line x1="351.837158203125" y1="249.93896484375" x2="344.3603515625" y2="249.93896484375" id="line_101" class="solid" />
<line x1="351.837158203125" y1="218.75" x2="359.31396484375" y2="218.75" id="line_103" class="solid" />
<line x1="359.31396484375" y1="249.93896484375" x2="351.837158203125" y2="249.93896484375" id="line_105" class="solid" />
<line x1="359.31396484375" y1="218.75" x2="367.431640625" y2="218.75" id="line_106" class="solid" />
<line x1="367.431640625" y1="249.93896484375" x2="359.31396484375" y2="249.93896484375" id="line_108" class="solid" />
<line x1="367.431640625" y1="218.75" x2="375.0" y2="218.75" id="line_109" class="solid" />
<line x1="374.93896484375" y1="249.93896484375" x2="367.431640625" y2="249.93896484375" id="line_110" class="solid" />
<line x1="504.2724609375" y1="218.6279296875" x2="507.537841796875" y2="218.6279296875" id="line_111" class="solid" />
<line x1="613.861083984375" y1="249.93896484375" x2="507.38525390625" y2="249.93896484375" id="line_112" class="solid" />
<line x1="613.861083984375" y1="218.6279296875" x2="613.861083984375" y2="249.93896484375" id="line_113" class="solid" />
<line x1="70.037841796875" y1="-144.6533203125" x2="171.93603515625" y2="-144.744873046875" id="line_114" class="solid" />
<line x1="70.037841796875" y1="-50.35400390625" x2="70.037841796875" y2="-144.6533203125" id="line_115" class="solid" />
<line x1="113.525390625" y1="-50.35400390625" x2="70.037841796875" y2="-50.35400390625" id="line_116" class="solid" />
<line x1="171.661376953125" y1="-50.35400390625" x2="135.498046875" y2="-50.35400390625" id="line_118" class="solid" />
<line x1="171.93603515625" y1="-123.321533203125" x2="171.661376953125" y2="-50.35400390625" id="line_119" class="solid" />
<line x1="109.375" y1="31.25" x2="187.5" y2="31.25" id="line_120" class="solid" />
<line x1="187.5" y1="62.5" x2="109.375" y2="62.5" id="line_121" class="solid" />
<line x1="85.9375" y1="7.8125" x2="109.375" y2="31.25" id="line_122" class="solid" />
<line x1="109.375" y1="62.5" x2="85.9375" y2="78.125" id="line_123" class="solid" />
<line x1="85.9375" y1="78.125" x2="-31.25" y2="78.125" id="line_124" class="solid" />
<line x1="-85.9375" y1="7.8125" x2="85.9375" y2="7.8125" id="line_125" class="solid" />
<line x1="-125.0" y1="78.125" x2="-125.0" y2="7.8125" id="line_126" class="solid" />
<line x1="-125.0" y1="7.8125" x2="-125.0" y2="-31.25" id="line_127" class="solid" />
<line x1="-125.0" y1="-31.25" x2="-85.9375" y2="-31.25" id="line_128" class="solid" />
<line x1="-125.0" y1="7.8125" x2="-85.9375" y2="7.8125" id="line_129" class="solid" />
<line x1="-85.9375" y1="-31.25" x2="-85.9375" y2="7.8125" id="line_130" class="solid" />
<line x1="-125.0" y1="-31.25" x2="-125.0" y2="-70.3125" id="line_131" class="solid" />
<line x1="-85.9375" y1="-70.3125" x2="-85.9375" y2="-31.25" id="line_132" class="solid" />
<line x1="-125.0" y1="-70.3125" x2="-85.9375" y2="-70.3125" id="line_133" class="solid" />
<line x1="406.25" y1="410.15625" x2="406.25" y2="281.25" id="line_137" class="solid" />
<line x1="437.5" y1="281.25" x2="437.5" y2="410.15625" id="line_138" class="solid" />
<line x1="437.5" y1="410.15625" x2="437.5" y2="437.5" id="line_140" class="solid" />
<line x1="406.25" y1="437.5" x2="406.25" y2="410.15625" id="line_142" class="solid" />
<line x1="437.5" y1="437.5" x2="437.5" y2="474.609375" id="line_143" class="solid" />
<line x1="437.5" y1="474.609375" x2="437.5" y2="570.3125" id="line_146" class="solid" />
<line x1="406.25" y1="570.3125" x2="406.25" y2="474.609375" id="line_147" class="solid" />
<line x1="437.5" y1="626.708984375" x2="370.9716796875" y2="626.5869140625" id="line_148" class="solid" />
<line x1="370.9716796875" y1="599.4873046875" x2="406.25" y2="570.3125" id="line_149" class="solid" />
<line x1="370.9716796875" y1="626.5869140625" x2="370.9716796875" y2="599.4873046875" id="line_150" class="solid" />
<line x1="437.5" y1="570.3125" x2="437.5" y2="626.708984375" id="line_151" class="solid" />
<line x1="125.0" y1="294.921875" x2="125.0" y2="265.625" id="line_153" class="solid" />
<line x1="93.75" y1="171.875" x2="93.75" y2="140.625" id="line_156" class="solid" />
<line x1="113.525390625" y1="-43.9453125" x2="113.525390625" y2="-50.35400390625" id="line_157" class="solid" />
<line x1="135.498046875" y1="-50.35400390625" x2="135.498046875" y2="-43.9453125" id="line_158" class="solid" />
<line x1="109.86328125" y1="-36.62109375" x2="113.525390625" y2="-43.9453125" id="line_160" class="solid" />
<line x1="133.6669921875" y1="-31.73828125" x2="122.0703125" y2="-20.1416015625" id="line_162" class="solid" />
<line x1="102.5390625" y1="-30.517578125" x2="109.86328125" y2="-36.62109375" id="line_164" class="solid" />
<line x1="92.1630859375" y1="-25.634765625" x2="102.5390625" y2="-30.517578125" id="line_165" class="solid" />
<line x1="122.0703125" y1="-20.1416015625" x2="106.8115234375" y2="-12.8173828125" id="line_166" class="solid" />
<line x1="106.8115234375" y1="-12.8173828125" x2="90.9423828125" y2="-7.9345703125" id="line_168" class="solid" />
<line x1="80.56640625" y1="-22.5830078125" x2="92.1630859375" y2="-25.634765625" id="line_169" class="solid" />
<line x1="64.697265625" y1="-19.53125" x2="80.56640625" y2="-22.5830078125" id="line_171" class="solid" />
<line x1="90.9423828125" y1="-7.9345703125" x2="74.462890625" y2="-3.662109375" id="line_172" class="solid" />
<line x1="51.8798828125" y1="-14.6484375" x2="64.697265625" y2="-19.53125" id="line_173" class="solid" />
<line x1="74.462890625" y1="-3.662109375" x2="62.255859375" y2="0.0" id="line_174" class="solid" />
<line x1="39.6728515625" y1="-6.7138671875" x2="51.8798828125" y2="-14.6484375" id="line_177" class="solid" />
<line x1="62.255859375" y1="0.0" x2="53.1005859375" y2="5.4931640625" id="line_179" class="solid" />
<line x1="30.517578125" y1="0.6103515625" x2="39.6728515625" y2="-6.7138671875" id="line_180" class="solid" />
<line x1="53.1005859375" y1="5.4931640625" x2="45.7763671875" y2="14.0380859375" id="line_182" class="solid" />
<line x1="21.3623046875" y1="9.1552734375" x2="30.517578125" y2="0.6103515625" id="line_183" class="solid" />
<line x1="45.7763671875" y1="14.0380859375" x2="39.6728515625" y2="21.3623046875" id="line_184" class="solid" />
<line x1="14.6484375" y1="18.9208984375" x2="21.3623046875" y2="9.1552734375" id="line_186" class="solid" />
<line x1="39.6728515625" y1="21.3623046875" x2="36.62109375" y2="28.6865234375" id="line_187" class="solid" />
<line x1="9.765625" y1="31.73828125" x2="14.6484375" y2="18.9208984375" id="line_189" class="solid" />
<line x1="36.62109375" y1="28.6865234375" x2="32.3486328125" y2="37.841796875" id="line_191" class="solid" />
<line x1="7.9345703125" y1="45.166015625" x2="9.765625" y2="31.73828125" id="line_192" class="solid" />
<line x1="32.3486328125" y1="37.841796875" x2="31.1279296875" y2="45.166015625" id="line_194" class="solid" />
<line x1="31.1279296875" y1="45.166015625" x2="31.1279296875" y2="90.33203125" id="line_195" class="solid" />
<line x1="7.9345703125" y1="90.33203125" x2="7.9345703125" y2="45.166015625" id="line_196" class="solid" />
<line x1="135.498046875" y1="-43.9453125" x2="133.6669921875" y2="-31.73828125" id="line_198" class="solid" />
<line x1="7.9345703125" y1="98.876953125" x2="7.9345703125" y2="90.33203125" id="line_199" class="solid" />
<line x1="31.1279296875" y1="90.33203125" x2="31.1279296875" y2="98.876953125" id="line_201" class="solid" />
<line x1="7.87353515625" y1="108.94775390625" x2="7.9345703125" y2="98.876953125" id="line_202" class="solid" />
<line x1="31.1279296875" y1="98.876953125" x2="31.1279296875" y2="108.94775390625" id="line_204" class="solid" />
<line x1="31.1279296875" y1="108.94775390625" x2="31.005859375" y2="119.62890625" id="line_205" class="solid" />
<line x1="7.9345703125" y1="119.62890625" x2="7.87353515625" y2="108.94775390625" id="line_207" class="solid" />
<line x1="31.005859375" y1="119.62890625" x2="33.50830078125" y2="128.5400390625" id="line_208" class="solid" />
<line x1="4.21142578125" y1="128.5400390625" x2="7.9345703125" y2="119.62890625" id="line_210" class="solid" />
<line x1="0.6103515625" y1="137.3291015625" x2="4.21142578125" y2="128.5400390625" id="line_211" class="solid" />
<line x1="33.50830078125" y1="128.5400390625" x2="35.5224609375" y2="137.3291015625" id="line_213" class="solid" />
<line x1="35.5224609375" y1="137.3291015625" x2="38.818359375" y2="146.484375" id="line_214" class="solid" />
<line x1="-5.31005859375" y1="146.484375" x2="0.6103515625" y2="137.3291015625" id="line_216" class="solid" />
<line x1="-10.711669921875" y1="154.72412109375" x2="-5.31005859375" y2="146.484375" id="line_217" class="solid" />
<line x1="38.818359375" y1="146.484375" x2="42.48046875" y2="154.72412109375" id="line_219" class="solid" />
<line x1="42.48046875" y1="154.72412109375" x2="48.828125" y2="163.57421875" id="line_220" class="solid" />
<line x1="-18.310546875" y1="163.57421875" x2="-10.711669921875" y2="154.72412109375" id="line_222" class="solid" />
<line x1="-31.25" y1="171.875" x2="-18.310546875" y2="163.57421875" id="line_223" class="solid" />
<line x1="48.828125" y1="163.57421875" x2="62.5" y2="171.875" id="line_225" class="solid" />
<line x1="62.5" y1="171.875" x2="62.5" y2="203.125" id="line_226" class="solid" />
<line x1="62.5" y1="218.75" x2="62.5" y2="250.0" id="line_227" class="solid" />
<line x1="93.75" y1="218.75" x2="93.75" y2="171.875" id="line_228" class="solid" />
<line x1="93.75" y1="265.625" x2="93.75" y2="234.375" id="line_229" class="solid" />
<line x1="62.5" y1="250.0" x2="31.25" y2="250.0" id="line_233" class="solid" />
<line x1="0.0" y1="250.0" x2="-31.25" y2="250.0" id="line_235" class="solid" />
<line x1="31.25" y1="437.5" x2="0.0" y2="437.5" id="line_236" class="solid" />
<line x1="0.0" y1="406.25" x2="0.0" y2="250.0" id="line_237" class="solid" />
<line x1="0.0" y1="468.75" x2="0.0" y2="437.5" id="line_238" class="solid" />
<line x1="31.25" y1="250.0" x2="31.25" y2="406.25" id="line_239" class="solid" />
<line x1="0.0" y1="437.5" x2="0.0" y2="406.25" id="line_240" class="solid" />
<line x1="31.25" y1="406.25" x2="31.25" y2="437.5" id="line_241" class="solid" />
<line x1="31.25" y1="406.25" x2="0.0" y2="406.25" id="line_242" class="solid" />
<line x1="-31.25" y1="78.125" x2="-31.25" y2="171.875" id="line_243" class="solid" />
<line x1="-125.0" y1="250.0" x2="-125.0" y2="78.125" id="line_244" class="solid" />
<line x1="-31.25" y1="250.0" x2="-125.0" y2="250.0" id="line_245" class="solid" />
<line x1="125.0" y1="265.625" x2="93.75" y2="265.625" id="line_268" class="solid" />
<line x1="312.31689453125" y1="249.93896484375" x2="312.31689453125" y2="276.85546875" id="line_269" class="solid" />
<line x1="295.8984375" y1="294.921875" x2="125.0" y2="294.921875" id="line_270" class="solid" />
<line x1="312.31689453125" y1="276.85546875" x2="321.71630859375" y2="276.85546875" id="line_272" class="solid" />
<line x1="321.71630859375" y1="276.85546875" x2="321.71630859375" y2="309.326171875" id="line_273" class="solid" />
<line x1="296.5087890625" y1="309.326171875" x2="295.8984375" y2="294.921875" id="line_274" class="solid" />
<line x1="321.71630859375" y1="309.326171875" x2="296.5087890625" y2="309.326171875" id="line_275" class="solid" />
<line x1="507.537841796875" y1="218.6279296875" x2="613.861083984375" y2="218.6279296875" id="line_276" class="solid" />
<line x1="507.38525390625" y1="249.93896484375" x2="504.2724609375" y2="249.93896484375" id="line_277" class="solid" />
<line x1="507.38525390625" y1="249.93896484375" x2="507.537841796875" y2="218.6279296875" id="line_278" class="solid" />
<line x1="31.25" y1="437.5" x2="109.375" y2="437.5" id="line_279" class="solid" />
<line x1="390.625" y1="437.5" x2="406.25" y2="437.5" id="line_280" class="solid" />
<line x1="31.25" y1="468.75" x2="0.0" y2="468.75" id="line_282" class="solid" />
<line x1="406.25" y1="474.609375" x2="281.25" y2="484.375" id="line_284" class="solid" />
<line x1="109.375" y1="437.5" x2="281.25" y2="437.5" id="line_285" class="solid" />
<line x1="109.375" y1="484.375" x2="31.25" y2="468.75" id="line_286" class="solid" />
<line x1="281.25" y1="437.5" x2="390.625" y2="437.5" id="line_288" class="solid" />
<line x1="107.421875" y1="552.734375" x2="109.375" y2="484.375" id="line_291" class="solid" />
<line x1="281.25" y1="562.5" x2="218.75" y2="593.75" id="line_293" class="solid" />
<line x1="281.25" y1="484.375" x2="281.25" y2="562.5" id="line_294" class="solid" />
<line x1="156.25" y1="593.75" x2="107.421875" y2="552.734375" id="line_295" class="solid" />
<line x1="156.25" y1="656.25" x2="156.25" y2="593.75" id="line_296" class="solid" />
<line x1="218.75" y1="656.25" x2="156.25" y2="656.25" id="line_297" class="solid" />
<line x1="218.75" y1="593.75" x2="218.75" y2="656.25" id="line_298" class="solid" />
<line x1="62.5" y1="203.125" x2="78.125" y2="203.125" id="line_299" class="solid" />
<line x1="78.125" y1="203.125" x2="78.125" y2="218.75" id="line_300" class="solid" />
<line x1="78.125" y1="218.75" x2="62.5" y2="218.75" id="line_301" class="solid" />
<line x1="78.125" y1="218.75" x2="93.75" y2="218.75" id="line_302" class="solid" />
<line x1="78.125" y1="234.375" x2="78.125" y2="218.75" id="line_303" class="solid" />
<line x1="93.75" y1="234.375" x2="78.125" y2="234.375" id="line_304" class="solid" />
<!-- end group: "border_solid" -->
</g>
<!-- end group: "borders" -->
</g>
<g id="poly_teleporter_lines">
<g id="panel_teleporter_lines_p96">
<g id="panel_teleporter_line_group_poly_p96_p82">
<line x1="70.3125" y1="210.9375" x2="107.11669921875" y2="221.00830078125" id="panel_teleporter_border_p96_p82" class="teleporter_border" />
<use xlink:href="../resources/svg/common.svg#arrow" x="107.11669921875" y="221.00830078125" id="panel_teleporter_head_p96_p82" class="teleporter_line" transform="rotate(15.303347462300946 107.11669921875 221.00830078125)" />
<line x1="70.3125" y1="210.9375" x2="107.11669921875" y2="221.00830078125" id="panel_teleporter_line_p96_p82" class="teleporter_line" />
<!-- end group: "panel_teleporter_line_group_poly_p96_p82" -->
</g>
<!-- end group: "panel_teleporter_lines_p96" -->
</g>
<g id="panel_teleporter_lines_p97">
<g id="panel_teleporter_line_group_poly_p97_p79">
<line x1="85.9375" y1="226.5625" x2="27.34375" y2="220.703125" id="panel_teleporter_border_p97_p79" class="teleporter_border" />
<use xlink:href="../resources/svg/common.svg#arrow" x="27.34375" y="220.703125" id="panel_teleporter_head_p97_p79" class="teleporter_line" transform="rotate(-174.28940686250036 27.34375 220.703125)" />
<line x1="85.9375" y1="226.5625" x2="27.34375" y2="220.703125" id="panel_teleporter_line_p97_p79" class="teleporter_line" />
<!-- end group: "panel_teleporter_line_group_poly_p97_p79" -->
</g>
<!-- end group: "panel_teleporter_lines_p97" -->
</g>
<!-- end group: "poly_teleporter_lines" -->
</g>
<g id="objects">
<g id="objects_item">
<use xlink:href="../resources/svg/common.svg#item" x="338.7451171875" y="236.2060546875" id="object_0" class="item item-9" transform="rotate(135.0 338.7451171875 236.2060546875)" />
<use xlink:href="../resources/svg/common.svg#item" x="340.576171875" y="-58.59375" id="object_2" class="item item-10" transform="rotate(286.171875 340.576171875 -58.59375)" />
<use xlink:href="../resources/svg/common.svg#item" x="377.197265625" y="613.4033203125" id="object_3" class="item item-15" transform="rotate(172.96875 377.197265625 613.4033203125)" />
<use xlink:href="../resources/svg/common.svg#item" x="401.0009765625" y="582.275390625" id="object_4" class="item item-16" transform="rotate(296.71875 401.0009765625 582.275390625)" />
<use xlink:href="../resources/svg/common.svg#item" x="142.822265625" y="45.7763671875" id="object_5" class="item item-4" transform="rotate(180.0 142.822265625 45.7763671875)" />
<use xlink:href="../resources/svg/common.svg#item" x="-104.3701171875" y="-49.4384765625" id="object_11" class="item item-8" transform="rotate(180.0 -104.3701171875 -49.4384765625)" />
<use xlink:href="../resources/svg/common.svg#item" x="18.310546875" y="320.4345703125" id="object_12" class="item item-7" />
<use xlink:href="../resources/svg/common.svg#item" x="109.375" y="259.765625" id="object_13" class="item item-3" transform="rotate(2.8125 109.375 259.765625)" />
<use xlink:href="../resources/svg/common.svg#item" x="606.0791015625" y="234.375" id="object_14" class="item item-8" />
<use xlink:href="../resources/svg/common.svg#item" x="131.8359375" y="288.0859375" id="object_15" class="item item-5" transform="rotate(180.0 131.8359375 288.0859375)" />
<use xlink:href="../resources/svg/common.svg#item" x="74.21875" y="-55.6640625" id="object_16" class="item item-5" transform="rotate(180.0 74.21875 -55.6640625)" />
<use xlink:href="../resources/svg/common.svg#item" x="16.6015625" y="214.84375" id="object_17" class="item item-5" transform="rotate(180.0 16.6015625 214.84375)" />
<use xlink:href="../resources/svg/common.svg#item" x="186.859130859375" y="624.847412109375" id="object_24" class="item item-10" />
<!-- end group: "objects_item" -->
</g>
<g id="objects_monster">
<use xlink:href="../resources/svg/common.svg#monster" x="253.90625" y="509.765625" id="object_19" class="monster monster-2" transform="rotate(235.546875 253.90625 509.765625)" />
<use xlink:href="../resources/svg/common.svg#monster" x="138.671875" y="535.15625" id="object_20" class="monster monster-2" transform="rotate(317.109375 138.671875 535.15625)" />
<use xlink:href="../resources/svg/common.svg#monster" x="175.78125" y="183.59375" id="object_21" class="monster monster-2" transform="rotate(305.15625 175.78125 183.59375)" />
<use xlink:href="../resources/svg/common.svg#monster" x="115.234375" y="-109.375" id="object_22" class="monster monster-2" transform="rotate(305.15625 115.234375 -109.375)" />
<use xlink:href="../resources/svg/common.svg#monster" x="-64.453125" y="52.734375" id="object_23" class="monster monster-2" transform="rotate(335.390625 -64.453125 52.734375)" />
<!-- end group: "objects_monster" -->
</g>
<g id="objects_player">
<use xlink:href="../resources/svg/common.svg#monster" x="427.734375" y="234.375" id="object_1" class="player" transform="rotate(180.0 427.734375 234.375)" />
<use xlink:href="../resources/svg/common.svg#monster" x="338.8671875" y="-44.921875" id="object_6" class="player" transform="rotate(109.6875 338.8671875 -44.921875)" />
<use xlink:href="../resources/svg/common.svg#monster" x="313.96484375" y="288.9404296875" id="object_7" class="player" transform="rotate(233.4375 313.96484375 288.9404296875)" />
<use xlink:href="../resources/svg/common.svg#monster" x="73.05908203125" y="-140.07568359375" id="object_8" class="player" transform="rotate(43.59375 73.05908203125 -140.07568359375)" />
<use xlink:href="../resources/svg/common.svg#monster" x="-78.0029296875" y="168.914794921875" id="object_9" class="player" transform="rotate(270.0 -78.0029296875 168.914794921875)" />
<use xlink:href="../resources/svg/common.svg#monster" x="155.181884765625" y="46.966552734375" id="object_10" class="player" />
<use xlink:href="../resources/svg/common.svg#monster" x="-103.515625" y="39.0625" id="object_18" class="player" transform="rotate(4.21875 -103.515625 39.0625)" />
<use xlink:href="../resources/svg/common.svg#monster" x="52.734375" y="243.1640625" id="object_25" class="player" transform="rotate(239.0625 52.734375 243.1640625)" />
<!-- end group: "objects_player" -->
</g>
<!-- end group: "objects" -->
</g>
<g id="panels">
<!-- end group: "panels" -->
</g>

<script xlink:href="../resources/js/level.js" ></script>
</svg>