<?xml version="1.0" encoding="UTF-8"?>
<!-- generated by map2svg: github.com/fracai/marathon-svg -->
<svg xmlns="http://www.w3.org/2000/svg" xmlns:xlink="http://www.w3.org/1999/xlink" version="1.1"
    viewBox="-506.8359375 15.625 1272.4609375 535.15625">
<link xmlns="http://www.w3.org/1999/xhtml" rel="stylesheet" href="../resources/css/styles.css" type="text/css" />
<style id="dynamic-style" />
<g id="background-grid">
<defs>
<pattern id="grid_minor" width="3.125" height="3.125" patternUnits="userSpaceOnUse">
<path d="M 3.125 0 L 0 0 0 3.125" fill="none" class="grid_minor" />
</pattern>
<pattern id="grid_major" width="31.25" height="31.25" patternUnits="userSpaceOnUse">
<rect width="31.25" height="31.25" fill="url(#grid_minor)"/>
<path d="M 31.25 0 L 0 0 0 31.25" fill="none" class="grid_major" />
</pattern>
</defs>
<rect x="-1000" y="-1000" width="2000" height="2000" fill="url(#grid_major)" />
<line x1="0" y1="1000" x2="0" y2="-1000" class="grid_origin" />
<line x1="1000" y1="0" x2="-1000" y2="0" class="grid_origin" />
<!-- end group: "background-grid" -->
</g>
<g id="polygons">
<polygon points="203.125,46.875 250.0,46.875 250.0,62.5 203.125,62.5" id="poly_20" class="plain" />
<polygon points="203.125,62.5 250.0,62.5 250.0,109.375 203.125,109.375" id="poly_21" class="plain" />
<polygon points="203.125,281.25 250.0,281.25 250.0,328.125 203.125,328.125" id="poly_22" class="plain" />
<polygon points="203.125,328.125 250.0,328.125 250.0,343.75 203.125,343.75" id="poly_23" class="plain" />
<polygon points="250.0,46.875 343.75,46.875 343.75,62.5 250.0,62.5" id="poly_45" class="plain" />
<polygon points="250.0,328.125 343.75,328.125 343.75,343.75 250.0,343.75" id="poly_46" class="plain" />
<polygon points="125.0,46.875 203.125,46.875 203.125,62.5 125.0,62.5" id="poly_95" class="plain" />
<polygon points="343.75,46.875 359.375,46.875 359.375,62.5 343.75,62.5" id="poly_44" class="plain" />
<polygon points="359.375,46.875 375.0,46.875 375.0,62.5 359.375,62.5" id="poly_43" class="plain" />
<polygon points="93.75,46.875 125.0,46.875 125.0,62.5 93.75,62.5" id="poly_96" class="plain" />
<polygon points="375.0,46.875 390.56396484375,46.875 390.533447265625,62.5 375.0,62.5" id="poly_42" class="plain" />
<polygon points="343.75,328.125 390.625,328.125 390.625,343.75 343.75,343.75" id="poly_146" class="plain" />
<polygon points="46.875,328.125 203.125,328.125 203.125,343.75 46.875,343.75" id="poly_131" class="plain" />
<polygon points="93.75,156.25 140.625,125.0 203.125,109.375 203.125,171.875 187.5,187.5 93.75,187.5" id="poly_2" class="plain" />
<polygon points="93.75,234.375 93.75,203.125 187.5,203.125 203.125,218.75 203.125,281.25 140.625,265.625" id="poly_4" class="plain" />
<polygon points="250.0,218.75 265.625,203.125 359.375,203.125 359.375,234.375 312.5,265.625 250.0,281.25" id="poly_5" class="plain" />
<polygon points="250.0,109.375 312.5,125.0 359.375,156.25 359.375,187.5 265.625,187.5 250.0,171.875" id="poly_7" class="plain" />
<polygon points="203.125,109.375 250.0,109.375 250.0,171.875 203.125,171.875" id="poly_127" class="plain" />
<polygon points="203.125,218.75 250.0,218.75 250.0,281.25 203.125,281.25" id="poly_128" class="plain" />
<polygon points="390.56396484375,46.875 406.219482421875,46.875 406.219482421875,62.5 390.533447265625,62.5" id="poly_35" class="plain" />
<polygon points="390.625,328.125 406.18896484375,328.125 406.219482421875,343.75 390.625,343.75" id="poly_41" class="plain" />
<polygon points="93.75,62.5 125.0,62.5 125.0,93.75 93.75,93.75" id="poly_97" class="platform" />
<polygon points="406.219482421875,46.875 421.844482421875,46.875 421.875,62.5 406.219482421875,62.5" id="poly_34" class="plain" />
<polygon points="406.18896484375,328.125 421.875,328.125 421.875,343.75 406.219482421875,343.75" id="poly_40" class="plain" />
<polygon points="421.844482421875,46.875 436.70654296875,46.875 436.70654296875,62.5 421.875,62.5" id="poly_33" class="plain" />
<polygon points="421.875,328.125 436.70654296875,328.125 436.70654296875,343.75 421.875,343.75" id="poly_39" class="plain" />
<polygon points="436.70654296875,46.875 452.362060546875,46.875 452.362060546875,62.5 436.70654296875,62.5" id="poly_32" class="plain" />
<polygon points="436.70654296875,328.125 452.362060546875,328.125 452.362060546875,343.75 436.70654296875,343.75" id="poly_38" class="plain" />
<polygon points="452.362060546875,46.875 468.017578125,46.875 467.987060546875,62.5 452.362060546875,62.5" id="poly_31" class="plain" />
<polygon points="452.362060546875,328.125 467.987060546875,328.125 468.017578125,343.75 452.362060546875,343.75" id="poly_37" class="plain" />
<polygon points="483.94775390625,46.875 500.0,46.875 484.375,62.5" id="poly_27" class="plain" />
<polygon points="468.017578125,46.875 483.94775390625,46.875 484.375,62.5 467.987060546875,62.5" id="poly_30" class="plain" />
<polygon points="484.375,328.125 500.0,343.75 484.375,343.75" id="poly_29" class="plain" />
<polygon points="467.987060546875,328.125 484.375,328.125 484.375,343.75 468.017578125,343.75" id="poly_36" class="plain" />
<polygon points="500.0,46.875 515.625,62.5 500.0,78.125 484.375,62.5" id="poly_28" class="plain" />
<polygon points="500.0,312.5 515.625,328.125 500.0,343.75 484.375,328.125" id="poly_24" class="plain" />
<polygon points="500.0,78.125 515.625,62.5 531.25,78.125 515.625,93.75" id="poly_19" class="plain" />
<polygon points="500.0,312.5 515.625,296.875 531.25,312.5 515.625,328.125" id="poly_25" class="plain" />
<polygon points="531.25,78.125 546.875,93.75 531.25,109.375 515.625,93.75" id="poly_18" class="plain" />
<polygon points="515.625,296.875 531.25,281.25 546.875,296.875 531.25,312.5" id="poly_26" class="plain" />
<polygon points="359.375,187.5 375.0,187.5 375.0,203.125 359.375,203.125" id="poly_0" class="plain" />
<polygon points="78.125,187.5 93.75,187.5 93.75,203.125 78.125,203.125" id="poly_6" class="plain" />
<polygon points="453.125,125.0 531.25,125.0 531.25,156.25 453.125,156.25" id="poly_8" class="plain" />
<polygon points="531.25,125.0 546.875,125.0 546.875,156.25 531.25,156.25" id="poly_9" class="plain" />
<polygon points="453.125,234.375 531.25,234.375 531.25,265.625 453.125,265.625" id="poly_10" class="plain" />
<polygon points="531.25,234.375 546.875,234.375 546.875,265.625 531.25,265.625" id="poly_11" class="plain" />
<polygon points="531.25,265.625 546.875,265.625 546.875,281.25 531.25,281.25" id="poly_12" class="plain" />
<polygon points="531.25,281.25 546.875,281.25 546.875,296.875" id="poly_13" class="plain" />
<polygon points="531.25,109.375 546.875,109.375 546.875,125.0 531.25,125.0" id="poly_14" class="plain" />
<polygon points="546.875,93.75 546.875,109.375 531.25,109.375" id="poly_15" class="plain" />
<polygon points="406.25,125.0 453.125,125.0 453.125,156.25 375.0,156.25" id="poly_16" class="plain" />
<polygon points="375.0,234.375 453.125,234.375 453.125,265.625 406.25,265.625" id="poly_17" class="plain" />
<polygon points="-31.25,250.0 0.0,250.0 0.0,281.25 -31.25,281.25" id="poly_48" class="plain" />
<polygon points="-255.859375,250.0 -250.0,250.0 -250.0,281.25 -255.859375,281.25" id="poly_49" class="platform" />
<polygon points="-250.0,250.0 -218.75,250.0 -171.875,250.0 -171.875,281.25 -250.0,281.25" id="poly_78" class="plain" />
<polygon points="-171.875,250.0 -154.693603515625,250.0 -109.405517578125,250.0 -93.75,250.0 -93.75,281.219482421875 -171.875,281.25" id="poly_79" class="plain" />
<polygon points="-37.109375,250.0 -31.25,250.0 -31.25,281.25 -37.109375,281.219482421875" id="poly_80" class="platform" />
<polygon points="-93.75,250.0 -46.875,250.0 -37.109375,250.0 -37.109375,281.219482421875 -93.75,281.219482421875" id="poly_81" class="plain" />
<polygon points="-265.625,250.0 -255.859375,250.0 -255.859375,281.25 -265.625,281.25" id="poly_84" class="plain" />
<polygon points="-328.125,212.7685546875 -296.875,212.7685546875 -296.875,218.75 -328.125,218.75" id="poly_85" class="plain" />
<polygon points="-328.125,162.109375 -296.875,162.109375 -296.875,212.7685546875 -328.125,212.7685546875" id="poly_86" class="plain" />
<polygon points="-328.125,312.5 -296.875,312.5 -296.875,317.87109375 -328.125,317.87109375" id="poly_88" class="plain" />
<polygon points="-328.125,317.87109375 -296.875,317.87109375 -296.875,370.849609375 -328.125,370.849609375" id="poly_89" class="plain" />
<polygon points="-349.91455078125,240.53955078125 -337.890625,228.515625 -337.890625,301.7578125 -349.91455078125,290.4052734375" id="poly_90" class="plain" />
<polygon points="-328.125,218.75 -296.875,218.75 -265.625,250.0 -337.890625,228.515625" id="poly_92" class="plain" />
<polygon points="-337.890625,228.515625 -265.625,250.0 -265.625,281.25 -337.890625,301.7578125" id="poly_93" class="plain" />
<polygon points="-337.890625,301.7578125 -265.625,281.25 -296.875,312.5 -328.125,312.5" id="poly_94" class="plain" />
<polygon points="375.0,156.25 453.125,156.25 453.125,171.875 453.125,218.75 453.125,234.375 375.0,234.375 375.0,203.125 375.0,187.5" id="poly_118" class="plain" />
<polygon points="-364.2578125,419.921875 -323.2421875,415.0390625 -344.7265625,486.328125" id="poly_147" class="plain" />
<polygon points="-323.2421875,415.0390625 -296.875,394.53125 -57.6171875,343.75 -71.2890625,470.703125 -344.7265625,486.328125" id="poly_148" class="plain" />
<polygon points="-57.6171875,343.75 15.625,343.75 46.875,343.75 46.875,391.6015625 -71.2890625,470.703125" id="poly_149" class="plain" />
<polygon points="453.125,171.875 671.875,171.875 671.875,218.75 625.0,218.75 453.125,218.75" id="poly_138" class="plain" />
<polygon points="0.0,250.0 15.625,234.375 15.625,281.25 0.0,281.25" id="poly_47" class="plain" />
<polygon points="15.625,125.0 46.875,125.0 78.125,156.25 15.625,156.25" id="poly_50" class="plain" />
<polygon points="15.625,156.25 78.125,156.25 78.125,187.5 78.125,203.125 78.125,234.375 15.625,234.375" id="poly_51" class="plain" />
<polygon points="15.625,234.375 78.125,234.375 46.875,281.25 15.625,281.25" id="poly_52" class="plain" />
<polygon points="0.0,109.375 15.625,125.0 15.625,156.25 0.0,140.80810546875" id="poly_53" class="plain" />
<polygon points="15.625,285.15625 46.875,285.15625 46.875,328.125 46.875,343.75 15.625,343.75" id="poly_144" class="plain" />
<polygon points="15.625,281.25 46.875,281.25 46.875,285.15625 15.625,285.15625" id="poly_145" class="platform" />
<polygon points="-31.25,140.625 0.0,109.375 0.0,140.80810546875 0.0,178.802490234375 -31.25,156.25" id="poly_54" class="plain" />
<polygon points="0.0,178.802490234375 0.0,250.0 -31.25,218.75 -31.25,203.125" id="poly_55" class="plain" />
<polygon points="-31.25,218.75 0.0,250.0 -31.25,250.0 -31.25,244.384765625" id="poly_56" class="plain" />
<polygon points="-65.948486328125,109.375 0.0,109.375 -31.25,140.625 -46.875,140.625" id="poly_57" class="plain" />
<polygon points="-129.364013671875,109.375 -65.948486328125,109.375 -93.75,140.625 -109.375,140.625" id="poly_58" class="plain" />
<polygon points="-191.986083984375,109.375 -129.364013671875,109.375 -156.25,140.625 -171.875,140.625" id="poly_59" class="plain" />
<polygon points="-250.0,109.375 -191.986083984375,109.375 -218.75,140.625 -234.375,140.625" id="poly_60" class="plain" />
<polygon points="-250.0,109.375 -234.375,140.625 -234.375,156.25 -250.0,183.685302734375" id="poly_61" class="plain" />
<polygon points="-171.875,218.75 -156.25,218.75 -130.767822265625,244.384765625 -154.6630859375,244.384765625 -171.875,244.384765625 -193.9697265625,244.384765625" id="poly_62" class="plain" />
<polygon points="-109.375,218.75 -93.75,218.75 -68.389892578125,244.384765625 -93.75,244.384765625 -109.375,244.384765625 -130.767822265625,244.384765625" id="poly_63" class="plain" />
<polygon points="-46.875,218.75 -31.25,218.75 -31.25,244.384765625 -37.109375,244.384765625 -46.875,244.384765625 -68.389892578125,244.384765625" id="poly_64" class="plain" />
<polygon points="-218.75,203.125 -194.82421875,180.2978515625 -171.875,203.125 -171.875,218.75 -193.9697265625,244.384765625 -218.75,218.75" id="poly_65" class="plain" />
<polygon points="-234.375,156.25 -218.75,156.25 -194.82421875,180.2978515625 -218.75,203.125 -234.375,203.125 -250.0,183.685302734375" id="poly_66" class="plain" />
<polygon points="-218.75,140.625 -191.986083984375,109.375 -171.875,140.625 -171.875,156.25 -194.82421875,180.2978515625 -218.75,156.25" id="poly_67" class="plain" />
<polygon points="-93.75,140.625 -65.948486328125,109.375 -46.875,140.625 -46.875,156.25 -70.12939453125,179.62646484375 -93.75,156.25" id="poly_68" class="plain" />
<polygon points="-46.875,156.25 -31.25,156.25 0.0,178.802490234375 -31.25,203.125 -46.875,203.125 -70.12939453125,179.62646484375" id="poly_69" class="plain" />
<polygon points="-93.75,203.125 -70.12939453125,179.62646484375 -46.875,203.125 -46.875,218.75 -68.389892578125,244.384765625 -93.75,218.75" id="poly_70" class="plain" />
<polygon points="-156.25,140.625 -129.364013671875,109.375 -109.375,140.625 -109.375,156.25 -132.2021484375,179.26025390625 -156.25,156.25" id="poly_72" class="plain" />
<polygon points="-156.25,203.125 -132.2021484375,179.26025390625 -109.375,203.125 -109.375,218.75 -130.767822265625,244.384765625 -156.25,218.75" id="poly_73" class="plain" />
<polygon points="-250.0,183.685302734375 -234.375,203.125 -234.375,218.75 -250.0,244.384765625" id="poly_82" class="plain" />
<polygon points="-234.375,218.75 -218.75,218.75 -193.9697265625,244.384765625 -218.75,244.384765625 -250.0,244.384765625" id="poly_83" class="plain" />
<polygon points="265.625,187.5 359.375,187.5 359.375,203.125 265.625,203.125" id="poly_1" class="platform" />
<polygon points="93.75,187.5 187.5,187.5 187.5,203.125 93.75,203.125" id="poly_3" class="platform" />
<polygon points="203.125,171.875 250.0,171.875 234.375,187.5 218.75,187.5" id="poly_123" class="platform" />
<polygon points="234.375,187.5 250.0,171.875 265.625,187.5 265.625,203.125 250.0,218.75 234.375,203.125" id="poly_124" class="platform" />
<polygon points="187.5,187.5 203.125,171.875 218.75,187.5 218.75,203.125 203.125,218.75 187.5,203.125" id="poly_125" class="platform" />
<polygon points="218.75,203.125 234.375,203.125 250.0,218.75 203.125,218.75" id="poly_126" class="platform" />
<polygon points="-364.8681640625,250.0 -359.375,250.0 -359.375,281.25 -364.8681640625,281.25" id="poly_87" class="plain" />
<polygon points="-359.375,250.0 -349.91455078125,240.53955078125 -349.91455078125,290.4052734375 -359.375,281.25" id="poly_91" class="plain" />
<polygon points="-415.0390625,250.0 -364.8681640625,250.0 -364.8681640625,281.25 -415.0390625,281.25" id="poly_101" class="plain" />
<polygon points="-426.7578125,233.3984375 -415.0390625,250.0 -415.0390625,281.25 -426.7578125,291.015625" id="poly_102" class="plain" />
<polygon points="-474.609375,207.03125 -430.6640625,212.890625 -426.7578125,233.3984375 -426.7578125,291.015625 -436.5234375,308.59375 -475.5859375,314.453125" id="poly_103" class="plain" />
<polygon points="-459.9609375,168.9453125 -421.875,180.6640625 -430.6640625,212.890625 -474.609375,207.03125" id="poly_104" class="plain" />
<polygon points="-414.0625,126.953125 -393.5546875,158.203125 -421.875,180.6640625 -459.9609375,168.9453125" id="poly_105" class="plain" />
<polygon points="-414.0625,126.953125 -378.90625,115.234375 -372.0703125,150.390625 -393.5546875,158.203125" id="poly_106" class="plain" />
<polygon points="-378.90625,115.234375 -352.5390625,114.2578125 -354.4921875,149.4140625 -372.0703125,150.390625" id="poly_107" class="plain" />
<polygon points="-352.5390625,114.2578125 -328.125,118.1640625 -337.890625,153.3203125 -354.4921875,149.4140625" id="poly_108" class="plain" />
<polygon points="-328.125,118.1640625 -296.875,132.8125 -328.125,162.109375 -337.890625,153.3203125" id="poly_109" class="plain" />
<polygon points="-296.875,132.8125 -296.875,162.109375 -328.125,162.109375" id="poly_110" class="plain" />
<polygon points="-328.125,370.849609375 -296.875,370.849609375 -296.875,394.53125" id="poly_111" class="plain" />
<polygon points="-343.75,380.859375 -328.125,370.849609375 -296.875,394.53125 -323.2421875,415.0390625" id="poly_112" class="plain" />
<polygon points="-369.140625,384.765625 -343.75,380.859375 -323.2421875,415.0390625 -364.2578125,419.921875" id="poly_113" class="plain" />
<polygon points="-397.4609375,377.9296875 -369.140625,384.765625 -364.2578125,419.921875 -407.2265625,412.109375" id="poly_114" class="plain" />
<polygon points="-418.9453125,361.328125 -397.4609375,377.9296875 -407.2265625,412.109375 -442.3828125,386.71875" id="poly_115" class="plain" />
<polygon points="-466.796875,343.75 -428.7109375,338.8671875 -418.9453125,361.328125 -442.3828125,386.71875" id="poly_116" class="plain" />
<polygon points="-475.5859375,314.453125 -436.5234375,308.59375 -428.7109375,338.8671875 -466.796875,343.75" id="poly_117" class="plain" />
<polygon points="-421.875,101.5625 -390.625,89.84375 -380.859375,110.83984375 -415.0390625,122.55859375" id="poly_129" class="plain" />
<polygon points="-380.859375,110.83984375 -378.90625,115.234375 -414.0625,126.953125 -415.0390625,122.55859375" id="poly_130" class="platform" />
<polygon points="625.0,218.75 671.875,218.75 671.875,226.5625 625.0,226.5625" id="poly_139" class="plain" />
<polygon points="-132.2021484375,179.26025390625 -109.375,156.25 -93.75,156.25 -70.12939453125,179.62646484375 -93.75,203.125 -109.375,203.125" id="poly_71" class="plain" />
<polygon points="-194.82421875,180.2978515625 -171.875,156.25 -156.25,156.25 -132.2021484375,179.26025390625 -156.25,203.125 -171.875,203.125" id="poly_74" class="plain" />
<polygon points="625.0,226.5625 671.875,226.5625 671.875,234.375 625.0,234.375" id="poly_140" class="plain" />
<polygon points="625.0,234.375 671.875,234.375 671.875,242.1875 625.0,242.1875" id="poly_141" class="plain" />
<polygon points="-93.75,244.384765625 -68.389892578125,244.384765625 -46.875,244.384765625 -46.875,250.0 -93.75,250.0" id="poly_75" class="plain" />
<polygon points="-154.6630859375,244.384765625 -130.767822265625,244.384765625 -109.375,244.384765625 -109.405517578125,250.0 -154.693603515625,250.0" id="poly_76" class="plain" />
<polygon points="-218.75,244.384765625 -193.9697265625,244.384765625 -171.875,244.384765625 -171.875,250.0 -218.75,250.0" id="poly_77" class="plain" />
<polygon points="625.0,242.1875 671.875,242.1875 671.875,250.0 625.0,250.0" id="poly_142" class="plain" />
<polygon points="671.875,250.0 687.5,265.625 609.375,265.625 625.0,250.0" id="poly_119" class="plain" />
<polygon points="578.125,265.625 609.375,265.625 687.5,265.625 718.75,265.625 687.5,296.875 660.15625,296.875 636.71875,296.875 609.375,296.875" id="poly_132" class="plain" />
<polygon points="687.5,351.5625 687.5,296.875 718.75,265.625 734.375,312.5 734.375,468.75 718.75,515.625 687.5,468.75 687.5,402.34375" id="poly_133" class="plain" />
<polygon points="562.5,312.5 578.125,265.625 609.375,296.875 609.375,351.5625 609.375,402.34375 609.375,468.75 578.125,515.625 562.5,468.75" id="poly_134" class="plain" />
<polygon points="609.375,468.75 613.28125,468.75 683.59375,468.75 687.5,468.75 718.75,515.625 656.25,515.625 640.625,515.625 578.125,515.625" id="poly_135" class="plain" />
<polygon points="613.28125,300.78125 636.71875,300.78125 660.15625,300.78125 683.59375,300.78125 683.59375,351.5625 613.28125,351.5625" id="poly_136" class="plain" />
<polygon points="613.28125,351.5625 683.59375,351.5625 683.59375,402.34375 683.59375,468.75 613.28125,468.75 613.28125,402.34375" id="poly_137" class="plain" />
<polygon points="640.625,515.625 656.25,515.625 656.25,519.53125 640.625,519.53125" id="poly_143" class="plain" />
<polygon points="660.15625,296.875 660.15625,300.78125 636.71875,300.78125 636.71875,296.875" id="poly_120" class="plain" />
<polygon points="613.28125,351.5625 613.28125,402.34375 609.375,402.34375 609.375,351.5625" id="poly_121" class="plain" />
<polygon points="687.5,351.5625 687.5,402.34375 683.59375,402.34375 683.59375,351.5625" id="poly_122" class="plain" />
<polygon points="93.75,93.75 125.0,93.75 125.0,109.375 93.75,109.375" id="poly_98" class="plain" />
<polygon points="93.75,109.375 125.0,109.375 138.5498046875,122.9248046875 93.75,153.411865234375" id="poly_99" class="plain" />
<polygon points="138.5498046875,122.9248046875 140.625,125.0 93.75,156.25 93.75,153.411865234375" id="poly_100" class="plain" />
<!-- end group: "polygons" -->
</g>
<g id="borders">
<g id="border_unconnected">
<line x1="-255.859375" y1="250.0" x2="-255.859375" y2="244.384765625" id="line_185" class="unconnected" />
<line x1="-37.109375" y1="244.384765625" x2="-37.109375" y2="250.0" id="line_287" class="unconnected" />
<line x1="-255.859375" y1="244.384765625" x2="-250.0" y2="244.384765625" id="line_288" class="unconnected" />
<line x1="-250.0" y1="244.384765625" x2="-250.0" y2="250.0" id="line_291" class="unconnected" />
<!-- end group: "border_unconnected" -->
</g>
<g id="border_plain">
<line x1="203.125" y1="109.375" x2="203.125" y2="171.875" id="line_27" class="plain" />
<line x1="250.0" y1="171.875" x2="250.0" y2="109.375" id="line_28" class="plain" />
<line x1="203.125" y1="218.75" x2="203.125" y2="281.25" id="line_30" class="plain" />
<line x1="250.0" y1="281.25" x2="250.0" y2="218.75" id="line_32" class="plain" />
<line x1="375.0" y1="187.5" x2="375.0" y2="203.125" id="line_37" class="plain" />
<line x1="453.125" y1="156.25" x2="453.125" y2="125.0" id="line_38" class="plain" />
<line x1="15.625" y1="234.375" x2="15.625" y2="281.25" id="line_47" class="plain" />
<line x1="453.125" y1="265.625" x2="453.125" y2="234.375" id="line_60" class="plain" />
<line x1="531.25" y1="234.375" x2="531.25" y2="265.625" id="line_74" class="plain" />
<line x1="546.875" y1="265.625" x2="531.25" y2="265.625" id="line_75" class="plain" />
<line x1="546.875" y1="281.25" x2="531.25" y2="281.25" id="line_76" class="plain" />
<line x1="250.0" y1="328.125" x2="203.125" y2="328.125" id="line_84" class="plain" />
<line x1="250.0" y1="62.5" x2="203.125" y2="62.5" id="line_85" class="plain" />
<line x1="203.125" y1="62.5" x2="203.125" y2="46.875" id="line_86" class="plain" />
<line x1="250.0" y1="328.125" x2="250.0" y2="343.75" id="line_88" class="plain" />
<line x1="250.0" y1="46.875" x2="250.0" y2="62.5" id="line_89" class="plain" />
<line x1="531.25" y1="125.0" x2="546.875" y2="125.0" id="line_92" class="plain" />
<line x1="531.25" y1="125.0" x2="531.25" y2="156.25" id="line_93" class="plain" />
<line x1="531.25" y1="109.375" x2="546.875" y2="109.375" id="line_96" class="plain" />
<line x1="453.125" y1="156.25" x2="375.0" y2="156.25" id="line_109" class="plain" />
<line x1="375.0" y1="234.375" x2="453.125" y2="234.375" id="line_110" class="plain" />
<line x1="484.375" y1="343.75" x2="484.375" y2="328.125" id="line_112" class="plain" />
<line x1="484.375" y1="62.5" x2="483.94775390625" y2="46.875" id="line_117" class="plain" />
<line x1="15.625" y1="156.25" x2="15.625" y2="125.0" id="line_166" class="plain" />
<line x1="-234.375" y1="140.625" x2="-250.0" y2="109.375" id="line_220" class="plain" />
<line x1="-234.375" y1="156.25" x2="-250.0" y2="183.685302734375" id="line_221" class="plain" />
<line x1="-234.375" y1="203.125" x2="-250.0" y2="183.685302734375" id="line_222" class="plain" />
<line x1="-193.9697265625" y1="244.384765625" x2="-218.75" y2="218.75" id="line_224" class="plain" />
<line x1="-193.9697265625" y1="244.384765625" x2="-171.875" y2="218.75" id="line_225" class="plain" />
<line x1="-218.75" y1="203.125" x2="-194.82421875" y2="180.2978515625" id="line_226" class="plain" />
<line x1="-218.75" y1="156.25" x2="-194.82421875" y2="180.2978515625" id="line_227" class="plain" />
<line x1="-156.25" y1="218.75" x2="-130.767822265625" y2="244.384765625" id="line_231" class="plain" />
<line x1="-130.767822265625" y1="244.384765625" x2="-109.375" y2="218.75" id="line_232" class="plain" />
<line x1="-191.986083984375" y1="109.375" x2="-218.75" y2="140.625" id="line_252" class="plain" />
<line x1="-171.875" y1="140.625" x2="-191.986083984375" y2="109.375" id="line_253" class="plain" />
<line x1="-129.364013671875" y1="109.375" x2="-156.25" y2="140.625" id="line_255" class="plain" />
<line x1="-109.375" y1="140.625" x2="-129.364013671875" y2="109.375" id="line_256" class="plain" />
<line x1="-65.948486328125" y1="109.375" x2="-93.75" y2="140.625" id="line_258" class="plain" />
<line x1="-46.875" y1="140.625" x2="-65.948486328125" y2="109.375" id="line_259" class="plain" />
<line x1="-31.25" y1="140.625" x2="0.0" y2="109.375" id="line_260" class="plain" />
<line x1="0.0" y1="178.802490234375" x2="-31.25" y2="156.25" id="line_262" class="plain" />
<line x1="-31.25" y1="203.125" x2="0.0" y2="178.802490234375" id="line_263" class="plain" />
<line x1="0.0" y1="250.0" x2="-31.25" y2="218.75" id="line_264" class="plain" />
<line x1="-31.25" y1="244.384765625" x2="-31.25" y2="218.75" id="line_265" class="plain" />
<line x1="-68.389892578125" y1="244.384765625" x2="-46.875" y2="218.75" id="line_267" class="plain" />
<line x1="-93.75" y1="218.75" x2="-68.389892578125" y2="244.384765625" id="line_268" class="plain" />
<line x1="78.125" y1="234.375" x2="15.625" y2="234.375" id="line_269" class="plain" />
<line x1="78.125" y1="156.25" x2="15.625" y2="156.25" id="line_270" class="plain" />
<line x1="-46.875" y1="156.25" x2="-70.12939453125" y2="179.62646484375" id="line_278" class="plain" />
<line x1="-46.875" y1="203.125" x2="-70.12939453125" y2="179.62646484375" id="line_279" class="plain" />
<line x1="-171.875" y1="250.0" x2="-171.875" y2="281.25" id="line_281" class="plain" />
<line x1="-93.75" y1="250.0" x2="-93.75" y2="281.219482421875" id="line_283" class="plain" />
<line x1="-234.375" y1="218.75" x2="-250.0" y2="244.384765625" id="line_292" class="plain" />
<line x1="-296.875" y1="218.75" x2="-328.125" y2="218.75" id="line_294" class="plain" />
<line x1="-359.375" y1="250.0" x2="-359.375" y2="281.25" id="line_296" class="plain" />
<line x1="-328.125" y1="312.5" x2="-296.875" y2="312.5" id="line_298" class="plain" />
<line x1="-265.625" y1="281.25" x2="-265.625" y2="250.0" id="line_300" class="plain" />
<line x1="-296.875" y1="317.87109375" x2="-328.125" y2="317.87109375" id="line_305" class="plain" />
<line x1="-328.125" y1="212.7685546875" x2="-296.875" y2="212.7685546875" id="line_308" class="plain" />
<line x1="-364.8681640625" y1="281.25" x2="-364.8681640625" y2="250.0" id="line_311" class="plain" />
<line x1="-337.890625" y1="228.515625" x2="-337.890625" y2="301.7578125" id="line_324" class="plain" />
<line x1="-265.625" y1="281.25" x2="-337.890625" y2="301.7578125" id="line_325" class="plain" />
<line x1="-265.625" y1="250.0" x2="-337.890625" y2="228.515625" id="line_326" class="plain" />
<line x1="125.0" y1="109.375" x2="93.75" y2="109.375" id="line_339" class="plain" />
<line x1="138.5498046875" y1="122.9248046875" x2="93.75" y2="153.411865234375" id="line_343" class="plain" />
<line x1="-415.0390625" y1="281.25" x2="-415.0390625" y2="250.0" id="line_345" class="plain" />
<line x1="-296.875" y1="394.53125" x2="-328.125" y2="370.849609375" id="line_377" class="plain" />
<line x1="-323.2421875" y1="415.0390625" x2="-343.75" y2="380.859375" id="line_378" class="plain" />
<line x1="-364.2578125" y1="419.921875" x2="-369.140625" y2="384.765625" id="line_379" class="plain" />
<line x1="-407.2265625" y1="412.109375" x2="-397.4609375" y2="377.9296875" id="line_380" class="plain" />
<line x1="-442.3828125" y1="386.71875" x2="-418.9453125" y2="361.328125" id="line_381" class="plain" />
<line x1="-466.796875" y1="343.75" x2="-428.7109375" y2="338.8671875" id="line_382" class="plain" />
<line x1="-436.5234375" y1="308.59375" x2="-475.5859375" y2="314.453125" id="line_383" class="plain" />
<line x1="-474.609375" y1="207.03125" x2="-430.6640625" y2="212.890625" id="line_384" class="plain" />
<line x1="-426.7578125" y1="291.015625" x2="-426.7578125" y2="233.3984375" id="line_385" class="plain" />
<line x1="-459.9609375" y1="168.9453125" x2="-421.875" y2="180.6640625" id="line_386" class="plain" />
<line x1="-414.0625" y1="126.953125" x2="-393.5546875" y2="158.203125" id="line_387" class="plain" />
<line x1="-378.90625" y1="115.234375" x2="-372.0703125" y2="150.390625" id="line_388" class="plain" />
<line x1="-352.5390625" y1="114.2578125" x2="-354.4921875" y2="149.4140625" id="line_389" class="plain" />
<line x1="-328.125" y1="118.1640625" x2="-337.890625" y2="153.3203125" id="line_390" class="plain" />
<line x1="-296.875" y1="132.8125" x2="-328.125" y2="162.109375" id="line_391" class="plain" />
<line x1="613.28125" y1="468.75" x2="683.59375" y2="468.75" id="line_403" class="plain" />
<line x1="687.5" y1="265.625" x2="609.375" y2="265.625" id="line_427" class="plain" />
<line x1="718.75" y1="265.625" x2="687.5" y2="296.875" id="line_446" class="plain" />
<line x1="609.375" y1="296.875" x2="578.125" y2="265.625" id="line_449" class="plain" />
<line x1="718.75" y1="515.625" x2="687.5" y2="468.75" id="line_450" class="plain" />
<line x1="609.375" y1="468.75" x2="578.125" y2="515.625" id="line_453" class="plain" />
<line x1="683.59375" y1="351.5625" x2="613.28125" y2="351.5625" id="line_454" class="plain" />
<line x1="-57.6171875" y1="343.75" x2="-71.2890625" y2="470.703125" id="line_486" class="plain" />
<line x1="-323.2421875" y1="415.0390625" x2="-344.7265625" y2="486.328125" id="line_487" class="plain" />
<!-- end group: "border_plain" -->
</g>
<g id="border_ceiling">
<line x1="250.0" y1="109.375" x2="203.125" y2="109.375" id="line_26" class="ceiling" />
<line x1="203.125" y1="281.25" x2="250.0" y2="281.25" id="line_29" class="ceiling" />
<line x1="78.125" y1="203.125" x2="78.125" y2="187.5" id="line_41" class="ceiling" />
<line x1="203.125" y1="343.75" x2="203.125" y2="328.125" id="line_82" class="ceiling" />
<line x1="375.0" y1="62.5" x2="375.0" y2="46.875" id="line_157" class="ceiling" />
<line x1="359.375" y1="62.5" x2="359.375" y2="46.875" id="line_160" class="ceiling" />
<line x1="343.75" y1="328.125" x2="343.75" y2="343.75" id="line_162" class="ceiling" />
<line x1="343.75" y1="62.5" x2="343.75" y2="46.875" id="line_165" class="ceiling" />
<line x1="0.0" y1="281.25" x2="0.0" y2="250.0" id="line_172" class="ceiling" />
<line x1="-31.25" y1="250.0" x2="0.0" y2="250.0" id="line_175" class="ceiling" />
<line x1="0.0" y1="140.80810546875" x2="0.0" y2="109.375" id="line_271" class="ceiling" />
<line x1="125.0" y1="62.5" x2="125.0" y2="46.875" id="line_332" class="ceiling" />
<line x1="453.125" y1="171.875" x2="453.125" y2="218.75" id="line_392" class="ceiling" />
<line x1="46.875" y1="343.75" x2="15.625" y2="343.75" id="line_444" class="ceiling" />
<!-- end group: "border_ceiling" -->
</g>
<g id="border_elevation">
<line x1="93.75" y1="156.25" x2="140.625" y2="125.0" id="line_17" class="elevation" />
<line x1="500.0" y1="343.75" x2="484.375" y2="328.125" id="line_77" class="elevation" />
<line x1="500.0" y1="312.5" x2="515.625" y2="328.125" id="line_79" class="elevation" />
<line x1="515.625" y1="296.875" x2="531.25" y2="312.5" id="line_80" class="elevation" />
<line x1="546.875" y1="296.875" x2="531.25" y2="281.25" id="line_81" class="elevation" />
<line x1="531.25" y1="109.375" x2="546.875" y2="93.75" id="line_98" class="elevation" />
<line x1="500.0" y1="78.125" x2="515.625" y2="62.5" id="line_101" class="elevation" />
<line x1="515.625" y1="93.75" x2="531.25" y2="78.125" id="line_104" class="elevation" />
<line x1="500.0" y1="46.875" x2="484.375" y2="62.5" id="line_115" class="elevation" />
<line x1="467.987060546875" y1="62.5" x2="468.017578125" y2="46.875" id="line_121" class="elevation" />
<line x1="452.362060546875" y1="62.5" x2="452.362060546875" y2="46.875" id="line_124" class="elevation" />
<line x1="436.70654296875" y1="62.5" x2="436.70654296875" y2="46.875" id="line_127" class="elevation" />
<line x1="421.875" y1="62.5" x2="421.844482421875" y2="46.875" id="line_130" class="elevation" />
<line x1="406.219482421875" y1="62.5" x2="406.219482421875" y2="46.875" id="line_133" class="elevation" />
<line x1="390.533447265625" y1="62.5" x2="390.56396484375" y2="46.875" id="line_135" class="elevation" />
<line x1="468.017578125" y1="343.75" x2="467.987060546875" y2="328.125" id="line_138" class="elevation" />
<line x1="452.362060546875" y1="343.75" x2="452.362060546875" y2="328.125" id="line_141" class="elevation" />
<line x1="436.70654296875" y1="343.75" x2="436.70654296875" y2="328.125" id="line_144" class="elevation" />
<line x1="421.875" y1="343.75" x2="421.875" y2="328.125" id="line_147" class="elevation" />
<line x1="406.219482421875" y1="343.75" x2="406.18896484375" y2="328.125" id="line_150" class="elevation" />
<line x1="390.625" y1="343.75" x2="390.625" y2="328.125" id="line_152" class="elevation" />
<line x1="-171.875" y1="244.384765625" x2="-193.9697265625" y2="244.384765625" id="line_223" class="elevation" />
<line x1="-171.875" y1="156.25" x2="-194.82421875" y2="180.2978515625" id="line_228" class="elevation" />
<line x1="-194.82421875" y1="180.2978515625" x2="-171.875" y2="203.125" id="line_229" class="elevation" />
<line x1="-109.375" y1="244.384765625" x2="-130.767822265625" y2="244.384765625" id="line_230" class="elevation" />
<line x1="-130.767822265625" y1="244.384765625" x2="-154.6630859375" y2="244.384765625" id="line_233" class="elevation" />
<line x1="-109.405517578125" y1="250.0" x2="-154.693603515625" y2="250.0" id="line_234" class="elevation" />
<line x1="-46.875" y1="250.0" x2="-93.75" y2="250.0" id="line_239" class="elevation" />
<line x1="-68.389892578125" y1="244.384765625" x2="-93.75" y2="244.384765625" id="line_240" class="elevation" />
<line x1="-171.875" y1="250.0" x2="-218.75" y2="250.0" id="line_248" class="elevation" />
<line x1="-218.75" y1="244.384765625" x2="-193.9697265625" y2="244.384765625" id="line_249" class="elevation" />
<line x1="-46.875" y1="244.384765625" x2="-68.389892578125" y2="244.384765625" id="line_266" class="elevation" />
<line x1="-156.25" y1="203.125" x2="-132.2021484375" y2="179.26025390625" id="line_272" class="elevation" />
<line x1="-132.2021484375" y1="179.26025390625" x2="-156.25" y2="156.25" id="line_273" class="elevation" />
<line x1="-132.2021484375" y1="179.26025390625" x2="-109.375" y2="156.25" id="line_274" class="elevation" />
<line x1="-109.375" y1="203.125" x2="-132.2021484375" y2="179.26025390625" id="line_275" class="elevation" />
<line x1="-70.12939453125" y1="179.62646484375" x2="-93.75" y2="156.25" id="line_276" class="elevation" />
<line x1="-93.75" y1="203.125" x2="-70.12939453125" y2="179.62646484375" id="line_277" class="elevation" />
<line x1="-328.125" y1="162.109375" x2="-296.875" y2="162.109375" id="line_314" class="elevation" />
<line x1="-296.875" y1="370.849609375" x2="-328.125" y2="370.849609375" id="line_318" class="elevation" />
<line x1="-349.91455078125" y1="290.4052734375" x2="-349.91455078125" y2="240.53955078125" id="line_321" class="elevation" />
<line x1="-296.875" y1="394.53125" x2="-323.2421875" y2="415.0390625" id="line_363" class="elevation" />
<line x1="-323.2421875" y1="415.0390625" x2="-364.2578125" y2="419.921875" id="line_364" class="elevation" />
<line x1="636.71875" y1="296.875" x2="660.15625" y2="296.875" id="line_409" class="elevation" />
<line x1="660.15625" y1="300.78125" x2="636.71875" y2="300.78125" id="line_410" class="elevation" />
<line x1="613.28125" y1="351.5625" x2="613.28125" y2="402.34375" id="line_414" class="elevation" />
<line x1="609.375" y1="402.34375" x2="609.375" y2="351.5625" id="line_415" class="elevation" />
<line x1="687.5" y1="351.5625" x2="687.5" y2="402.34375" id="line_420" class="elevation" />
<line x1="683.59375" y1="402.34375" x2="683.59375" y2="351.5625" id="line_421" class="elevation" />
<line x1="625.0" y1="250.0" x2="671.875" y2="250.0" id="line_426" class="elevation" />
<line x1="656.25" y1="515.625" x2="640.625" y2="515.625" id="line_430" class="elevation" />
<line x1="46.875" y1="343.75" x2="46.875" y2="328.125" id="line_445" class="elevation" />
<line x1="671.875" y1="226.5625" x2="625.0" y2="226.5625" id="line_458" class="elevation" />
<line x1="671.875" y1="218.75" x2="625.0" y2="218.75" id="line_459" class="elevation" />
<line x1="671.875" y1="234.375" x2="625.0" y2="234.375" id="line_463" class="elevation" />
<line x1="671.875" y1="242.1875" x2="625.0" y2="242.1875" id="line_467" class="elevation" />
<!-- end group: "border_elevation" -->
</g>
<g id="border_solid">
<line x1="203.125" y1="171.875" x2="187.5" y2="187.5" id="line_0" class="solid" />
<line x1="203.125" y1="171.875" x2="250.0" y2="171.875" id="line_1" class="solid" />
<line x1="265.625" y1="187.5" x2="250.0" y2="171.875" id="line_2" class="solid" />
<line x1="187.5" y1="187.5" x2="187.5" y2="203.125" id="line_3" class="solid" />
<line x1="265.625" y1="203.125" x2="265.625" y2="187.5" id="line_4" class="solid" />
<line x1="234.375" y1="187.5" x2="218.75" y2="187.5" id="line_5" class="solid" />
<line x1="234.375" y1="203.125" x2="234.375" y2="187.5" id="line_6" class="solid" />
<line x1="218.75" y1="203.125" x2="234.375" y2="203.125" id="line_7" class="solid" />
<line x1="218.75" y1="187.5" x2="218.75" y2="203.125" id="line_8" class="solid" />
<line x1="187.5" y1="203.125" x2="203.125" y2="218.75" id="line_9" class="solid" />
<line x1="250.0" y1="218.75" x2="203.125" y2="218.75" id="line_10" class="solid" />
<line x1="250.0" y1="218.75" x2="265.625" y2="203.125" id="line_11" class="solid" />
<line x1="265.625" y1="187.5" x2="359.375" y2="187.5" id="line_12" class="solid" />
<line x1="359.375" y1="203.125" x2="265.625" y2="203.125" id="line_13" class="solid" />
<line x1="187.5" y1="187.5" x2="93.75" y2="187.5" id="line_14" class="solid" />
<line x1="187.5" y1="203.125" x2="93.75" y2="203.125" id="line_15" class="solid" />
<line x1="93.75" y1="187.5" x2="93.75" y2="156.25" id="line_16" class="solid" />
<line x1="140.625" y1="125.0" x2="203.125" y2="109.375" id="line_18" class="solid" />
<line x1="93.75" y1="203.125" x2="93.75" y2="187.5" id="line_19" class="solid" />
<line x1="93.75" y1="234.375" x2="93.75" y2="203.125" id="line_20" class="solid" />
<line x1="140.625" y1="265.625" x2="93.75" y2="234.375" id="line_21" class="solid" />
<line x1="203.125" y1="281.25" x2="140.625" y2="265.625" id="line_22" class="solid" />
<line x1="359.375" y1="203.125" x2="359.375" y2="187.5" id="line_23" class="solid" />
<line x1="359.375" y1="203.125" x2="359.375" y2="234.375" id="line_24" class="solid" />
<line x1="359.375" y1="234.375" x2="312.5" y2="265.625" id="line_25" class="solid" />
<line x1="312.5" y1="265.625" x2="250.0" y2="281.25" id="line_31" class="solid" />
<line x1="359.375" y1="187.5" x2="375.0" y2="187.5" id="line_33" class="solid" />
<line x1="375.0" y1="187.5" x2="375.0" y2="156.25" id="line_34" class="solid" />
<line x1="375.0" y1="203.125" x2="359.375" y2="203.125" id="line_35" class="solid" />
<line x1="375.0" y1="234.375" x2="375.0" y2="203.125" id="line_36" class="solid" />
<line x1="78.125" y1="187.5" x2="93.75" y2="187.5" id="line_39" class="solid" />
<line x1="93.75" y1="203.125" x2="78.125" y2="203.125" id="line_40" class="solid" />
<line x1="78.125" y1="156.25" x2="78.125" y2="187.5" id="line_42" class="solid" />
<line x1="46.875" y1="125.0" x2="78.125" y2="156.25" id="line_43" class="solid" />
<line x1="78.125" y1="203.125" x2="78.125" y2="234.375" id="line_44" class="solid" />
<line x1="78.125" y1="234.375" x2="46.875" y2="281.25" id="line_45" class="solid" />
<line x1="46.875" y1="281.25" x2="15.625" y2="281.25" id="line_46" class="solid" />
<line x1="15.625" y1="125.0" x2="46.875" y2="125.0" id="line_48" class="solid" />
<line x1="250.0" y1="109.375" x2="312.5" y2="125.0" id="line_49" class="solid" />
<line x1="312.5" y1="125.0" x2="359.375" y2="156.25" id="line_50" class="solid" />
<line x1="359.375" y1="156.25" x2="359.375" y2="187.5" id="line_51" class="solid" />
<line x1="203.125" y1="109.375" x2="203.125" y2="62.5" id="line_52" class="solid" />
<line x1="250.0" y1="62.5" x2="250.0" y2="109.375" id="line_53" class="solid" />
<line x1="203.125" y1="328.125" x2="203.125" y2="281.25" id="line_54" class="solid" />
<line x1="250.0" y1="281.25" x2="250.0" y2="328.125" id="line_55" class="solid" />
<line x1="453.125" y1="125.0" x2="531.25" y2="125.0" id="line_56" class="solid" />
<line x1="531.25" y1="265.625" x2="453.125" y2="265.625" id="line_57" class="solid" />
<line x1="453.125" y1="156.25" x2="453.125" y2="171.875" id="line_58" class="solid" />
<line x1="531.25" y1="156.25" x2="453.125" y2="156.25" id="line_59" class="solid" />
<line x1="453.125" y1="234.375" x2="531.25" y2="234.375" id="line_61" class="solid" />
<line x1="531.25" y1="281.25" x2="531.25" y2="265.625" id="line_62" class="solid" />
<line x1="515.625" y1="296.875" x2="531.25" y2="281.25" id="line_63" class="solid" />
<line x1="500.0" y1="312.5" x2="515.625" y2="296.875" id="line_64" class="solid" />
<line x1="484.375" y1="328.125" x2="500.0" y2="312.5" id="line_65" class="solid" />
<line x1="546.875" y1="265.625" x2="546.875" y2="281.25" id="line_66" class="solid" />
<line x1="546.875" y1="281.25" x2="546.875" y2="296.875" id="line_67" class="solid" />
<line x1="546.875" y1="296.875" x2="531.25" y2="312.5" id="line_68" class="solid" />
<line x1="531.25" y1="312.5" x2="515.625" y2="328.125" id="line_69" class="solid" />
<line x1="250.0" y1="328.125" x2="343.75" y2="328.125" id="line_70" class="solid" />
<line x1="500.0" y1="343.75" x2="484.375" y2="343.75" id="line_71" class="solid" />
<line x1="531.25" y1="234.375" x2="546.875" y2="234.375" id="line_72" class="solid" />
<line x1="546.875" y1="234.375" x2="546.875" y2="265.625" id="line_73" class="solid" />
<line x1="515.625" y1="328.125" x2="500.0" y2="343.75" id="line_78" class="solid" />
<line x1="250.0" y1="343.75" x2="203.125" y2="343.75" id="line_83" class="solid" />
<line x1="203.125" y1="46.875" x2="250.0" y2="46.875" id="line_87" class="solid" />
<line x1="546.875" y1="156.25" x2="531.25" y2="156.25" id="line_90" class="solid" />
<line x1="546.875" y1="125.0" x2="546.875" y2="156.25" id="line_91" class="solid" />
<line x1="531.25" y1="125.0" x2="531.25" y2="109.375" id="line_94" class="solid" />
<line x1="546.875" y1="109.375" x2="546.875" y2="125.0" id="line_95" class="solid" />
<line x1="546.875" y1="93.75" x2="546.875" y2="109.375" id="line_97" class="solid" />
<line x1="531.25" y1="109.375" x2="515.625" y2="93.75" id="line_99" class="solid" />
<line x1="531.25" y1="78.125" x2="546.875" y2="93.75" id="line_100" class="solid" />
<line x1="515.625" y1="93.75" x2="500.0" y2="78.125" id="line_102" class="solid" />
<line x1="515.625" y1="62.5" x2="531.25" y2="78.125" id="line_103" class="solid" />
<line x1="375.0" y1="156.25" x2="406.25" y2="125.0" id="line_105" class="solid" />
<line x1="406.25" y1="125.0" x2="453.125" y2="125.0" id="line_106" class="solid" />
<line x1="406.25" y1="265.625" x2="375.0" y2="234.375" id="line_107" class="solid" />
<line x1="453.125" y1="265.625" x2="406.25" y2="265.625" id="line_108" class="solid" />
<line x1="484.375" y1="343.75" x2="468.017578125" y2="343.75" id="line_111" class="solid" />
<line x1="500.0" y1="78.125" x2="484.375" y2="62.5" id="line_113" class="solid" />
<line x1="500.0" y1="46.875" x2="515.625" y2="62.5" id="line_114" class="solid" />
<line x1="483.94775390625" y1="46.875" x2="500.0" y2="46.875" id="line_116" class="solid" />
<line x1="468.017578125" y1="46.875" x2="483.94775390625" y2="46.875" id="line_118" class="solid" />
<line x1="484.375" y1="62.5" x2="467.987060546875" y2="62.5" id="line_119" class="solid" />
<line x1="452.362060546875" y1="46.875" x2="468.017578125" y2="46.875" id="line_120" class="solid" />
<line x1="436.70654296875" y1="46.875" x2="452.362060546875" y2="46.875" id="line_122" class="solid" />
<line x1="467.987060546875" y1="62.5" x2="452.362060546875" y2="62.5" id="line_123" class="solid" />
<line x1="421.844482421875" y1="46.875" x2="436.70654296875" y2="46.875" id="line_125" class="solid" />
<line x1="452.362060546875" y1="62.5" x2="436.70654296875" y2="62.5" id="line_126" class="solid" />
<line x1="406.219482421875" y1="46.875" x2="421.844482421875" y2="46.875" id="line_128" class="solid" />
<line x1="436.70654296875" y1="62.5" x2="421.875" y2="62.5" id="line_129" class="solid" />
<line x1="421.875" y1="62.5" x2="406.219482421875" y2="62.5" id="line_131" class="solid" />
<line x1="390.56396484375" y1="46.875" x2="406.219482421875" y2="46.875" id="line_132" class="solid" />
<line x1="406.219482421875" y1="62.5" x2="390.533447265625" y2="62.5" id="line_134" class="solid" />
<line x1="467.987060546875" y1="328.125" x2="484.375" y2="328.125" id="line_136" class="solid" />
<line x1="468.017578125" y1="343.75" x2="452.362060546875" y2="343.75" id="line_137" class="solid" />
<line x1="452.362060546875" y1="328.125" x2="467.987060546875" y2="328.125" id="line_139" class="solid" />
<line x1="452.362060546875" y1="343.75" x2="436.70654296875" y2="343.75" id="line_140" class="solid" />
<line x1="436.70654296875" y1="328.125" x2="452.362060546875" y2="328.125" id="line_142" class="solid" />
<line x1="436.70654296875" y1="343.75" x2="421.875" y2="343.75" id="line_143" class="solid" />
<line x1="421.875" y1="328.125" x2="436.70654296875" y2="328.125" id="line_145" class="solid" />
<line x1="421.875" y1="343.75" x2="406.219482421875" y2="343.75" id="line_146" class="solid" />
<line x1="406.18896484375" y1="328.125" x2="421.875" y2="328.125" id="line_148" class="solid" />
<line x1="406.219482421875" y1="343.75" x2="390.625" y2="343.75" id="line_149" class="solid" />
<line x1="390.625" y1="328.125" x2="406.18896484375" y2="328.125" id="line_151" class="solid" />
<line x1="250.0" y1="46.875" x2="343.75" y2="46.875" id="line_153" class="solid" />
<line x1="390.533447265625" y1="62.5" x2="375.0" y2="62.5" id="line_154" class="solid" />
<line x1="375.0" y1="62.5" x2="359.375" y2="62.5" id="line_155" class="solid" />
<line x1="375.0" y1="46.875" x2="390.56396484375" y2="46.875" id="line_156" class="solid" />
<line x1="359.375" y1="46.875" x2="375.0" y2="46.875" id="line_158" class="solid" />
<line x1="359.375" y1="62.5" x2="343.75" y2="62.5" id="line_159" class="solid" />
<line x1="343.75" y1="343.75" x2="250.0" y2="343.75" id="line_161" class="solid" />
<line x1="343.75" y1="62.5" x2="250.0" y2="62.5" id="line_163" class="solid" />
<line x1="343.75" y1="46.875" x2="359.375" y2="46.875" id="line_164" class="solid" />
<line x1="15.625" y1="156.25" x2="0.0" y2="140.80810546875" id="line_167" class="solid" />
<line x1="15.625" y1="281.25" x2="0.0" y2="281.25" id="line_168" class="solid" />
<line x1="15.625" y1="234.375" x2="15.625" y2="156.25" id="line_169" class="solid" />
<line x1="0.0" y1="250.0" x2="15.625" y2="234.375" id="line_170" class="solid" />
<line x1="0.0" y1="140.80810546875" x2="0.0" y2="178.802490234375" id="line_171" class="solid" />
<line x1="0.0" y1="109.375" x2="15.625" y2="125.0" id="line_173" class="solid" />
<line x1="-250.0" y1="250.0" x2="-218.75" y2="250.0" id="line_174" class="solid" />
<line x1="-171.875" y1="281.25" x2="-250.0" y2="281.25" id="line_176" class="solid" />
<line x1="-31.25" y1="281.25" x2="-31.25" y2="250.0" id="line_177" class="solid" />
<line x1="0.0" y1="281.25" x2="-31.25" y2="281.25" id="line_178" class="solid" />
<line x1="-250.0" y1="250.0" x2="-250.0" y2="281.25" id="line_179" class="solid" />
<line x1="-255.859375" y1="250.0" x2="-250.0" y2="250.0" id="line_180" class="solid" />
<line x1="-250.0" y1="281.25" x2="-255.859375" y2="281.25" id="line_181" class="solid" />
<line x1="-255.859375" y1="281.25" x2="-255.859375" y2="250.0" id="line_182" class="solid" />
<line x1="-31.25" y1="250.0" x2="-31.25" y2="244.384765625" id="line_183" class="solid" />
<line x1="-31.25" y1="244.384765625" x2="-37.109375" y2="244.384765625" id="line_184" class="solid" />
<line x1="-46.875" y1="218.75" x2="-31.25" y2="218.75" id="line_186" class="solid" />
<line x1="-46.875" y1="203.125" x2="-46.875" y2="218.75" id="line_187" class="solid" />
<line x1="-31.25" y1="203.125" x2="-46.875" y2="203.125" id="line_188" class="solid" />
<line x1="-31.25" y1="218.75" x2="-31.25" y2="203.125" id="line_189" class="solid" />
<line x1="-93.75" y1="218.75" x2="-93.75" y2="203.125" id="line_190" class="solid" />
<line x1="-93.75" y1="203.125" x2="-109.375" y2="203.125" id="line_191" class="solid" />
<line x1="-109.375" y1="203.125" x2="-109.375" y2="218.75" id="line_192" class="solid" />
<line x1="-109.375" y1="218.75" x2="-93.75" y2="218.75" id="line_193" class="solid" />
<line x1="-171.875" y1="218.75" x2="-156.25" y2="218.75" id="line_194" class="solid" />
<line x1="-171.875" y1="203.125" x2="-171.875" y2="218.75" id="line_195" class="solid" />
<line x1="-156.25" y1="203.125" x2="-171.875" y2="203.125" id="line_196" class="solid" />
<line x1="-156.25" y1="218.75" x2="-156.25" y2="203.125" id="line_197" class="solid" />
<line x1="-234.375" y1="218.75" x2="-218.75" y2="218.75" id="line_198" class="solid" />
<line x1="-218.75" y1="218.75" x2="-218.75" y2="203.125" id="line_199" class="solid" />
<line x1="-218.75" y1="203.125" x2="-234.375" y2="203.125" id="line_200" class="solid" />
<line x1="-234.375" y1="203.125" x2="-234.375" y2="218.75" id="line_201" class="solid" />
<line x1="-234.375" y1="140.625" x2="-234.375" y2="156.25" id="line_202" class="solid" />
<line x1="-218.75" y1="140.625" x2="-234.375" y2="140.625" id="line_203" class="solid" />
<line x1="-218.75" y1="156.25" x2="-218.75" y2="140.625" id="line_204" class="solid" />
<line x1="-234.375" y1="156.25" x2="-218.75" y2="156.25" id="line_205" class="solid" />
<line x1="-171.875" y1="140.625" x2="-171.875" y2="156.25" id="line_206" class="solid" />
<line x1="-156.25" y1="140.625" x2="-171.875" y2="140.625" id="line_207" class="solid" />
<line x1="-156.25" y1="156.25" x2="-156.25" y2="140.625" id="line_208" class="solid" />
<line x1="-171.875" y1="156.25" x2="-156.25" y2="156.25" id="line_209" class="solid" />
<line x1="-109.375" y1="140.625" x2="-109.375" y2="156.25" id="line_210" class="solid" />
<line x1="-93.75" y1="140.625" x2="-109.375" y2="140.625" id="line_211" class="solid" />
<line x1="-93.75" y1="156.25" x2="-93.75" y2="140.625" id="line_212" class="solid" />
<line x1="-109.375" y1="156.25" x2="-93.75" y2="156.25" id="line_213" class="solid" />
<line x1="-46.875" y1="140.625" x2="-46.875" y2="156.25" id="line_214" class="solid" />
<line x1="-31.25" y1="140.625" x2="-46.875" y2="140.625" id="line_215" class="solid" />
<line x1="-31.25" y1="156.25" x2="-31.25" y2="140.625" id="line_216" class="solid" />
<line x1="-46.875" y1="156.25" x2="-31.25" y2="156.25" id="line_217" class="solid" />
<line x1="-65.948486328125" y1="109.375" x2="0.0" y2="109.375" id="line_218" class="solid" />
<line x1="-250.0" y1="183.685302734375" x2="-250.0" y2="109.375" id="line_219" class="solid" />
<line x1="-154.693603515625" y1="250.0" x2="-154.6630859375" y2="244.384765625" id="line_235" class="solid" />
<line x1="-93.75" y1="244.384765625" x2="-109.375" y2="244.384765625" id="line_236" class="solid" />
<line x1="-109.405517578125" y1="250.0" x2="-93.75" y2="250.0" id="line_237" class="solid" />
<line x1="-109.375" y1="244.384765625" x2="-109.405517578125" y2="250.0" id="line_238" class="solid" />
<line x1="-93.75" y1="250.0" x2="-93.75" y2="244.384765625" id="line_241" class="solid" />
<line x1="-37.109375" y1="244.384765625" x2="-46.875" y2="244.384765625" id="line_242" class="solid" />
<line x1="-46.875" y1="250.0" x2="-37.109375" y2="250.0" id="line_243" class="solid" />
<line x1="-46.875" y1="244.384765625" x2="-46.875" y2="250.0" id="line_244" class="solid" />
<line x1="-154.6630859375" y1="244.384765625" x2="-171.875" y2="244.384765625" id="line_245" class="solid" />
<line x1="-171.875" y1="250.0" x2="-154.693603515625" y2="250.0" id="line_246" class="solid" />
<line x1="-171.875" y1="244.384765625" x2="-171.875" y2="250.0" id="line_247" class="solid" />
<line x1="-218.75" y1="250.0" x2="-218.75" y2="244.384765625" id="line_250" class="solid" />
<line x1="-250.0" y1="109.375" x2="-191.986083984375" y2="109.375" id="line_251" class="solid" />
<line x1="-191.986083984375" y1="109.375" x2="-129.364013671875" y2="109.375" id="line_254" class="solid" />
<line x1="-129.364013671875" y1="109.375" x2="-65.948486328125" y2="109.375" id="line_257" class="solid" />
<line x1="0.0" y1="178.802490234375" x2="0.0" y2="250.0" id="line_261" class="solid" />
<line x1="-93.75" y1="281.219482421875" x2="-171.875" y2="281.25" id="line_280" class="solid" />
<line x1="-31.25" y1="281.25" x2="-37.109375" y2="281.219482421875" id="line_282" class="solid" />
<line x1="-37.109375" y1="281.219482421875" x2="-93.75" y2="281.219482421875" id="line_284" class="solid" />
<line x1="-37.109375" y1="250.0" x2="-31.25" y2="250.0" id="line_285" class="solid" />
<line x1="-37.109375" y1="281.219482421875" x2="-37.109375" y2="250.0" id="line_286" class="solid" />
<line x1="-218.75" y1="244.384765625" x2="-250.0" y2="244.384765625" id="line_289" class="solid" />
<line x1="-250.0" y1="244.384765625" x2="-250.0" y2="183.685302734375" id="line_290" class="solid" />
<line x1="-296.875" y1="218.75" x2="-265.625" y2="250.0" id="line_293" class="solid" />
<line x1="-359.375" y1="250.0" x2="-349.91455078125" y2="240.53955078125" id="line_295" class="solid" />
<line x1="-328.125" y1="312.5" x2="-337.890625" y2="301.7578125" id="line_297" class="solid" />
<line x1="-265.625" y1="281.25" x2="-296.875" y2="312.5" id="line_299" class="solid" />
<line x1="-265.625" y1="250.0" x2="-255.859375" y2="250.0" id="line_301" class="solid" />
<line x1="-255.859375" y1="281.25" x2="-265.625" y2="281.25" id="line_302" class="solid" />
<line x1="-328.125" y1="317.87109375" x2="-328.125" y2="312.5" id="line_303" class="solid" />
<line x1="-296.875" y1="312.5" x2="-296.875" y2="317.87109375" id="line_304" class="solid" />
<line x1="-328.125" y1="218.75" x2="-328.125" y2="212.7685546875" id="line_306" class="solid" />
<line x1="-296.875" y1="212.7685546875" x2="-296.875" y2="218.75" id="line_307" class="solid" />
<line x1="-364.8681640625" y1="250.0" x2="-359.375" y2="250.0" id="line_309" class="solid" />
<line x1="-359.375" y1="281.25" x2="-364.8681640625" y2="281.25" id="line_310" class="solid" />
<line x1="-296.875" y1="162.109375" x2="-296.875" y2="212.7685546875" id="line_312" class="solid" />
<line x1="-328.125" y1="212.7685546875" x2="-328.125" y2="162.109375" id="line_313" class="solid" />
<line x1="-415.0390625" y1="250.0" x2="-364.8681640625" y2="250.0" id="line_315" class="solid" />
<line x1="-328.125" y1="370.849609375" x2="-328.125" y2="317.87109375" id="line_316" class="solid" />
<line x1="-296.875" y1="317.87109375" x2="-296.875" y2="370.849609375" id="line_317" class="solid" />
<line x1="-349.91455078125" y1="240.53955078125" x2="-337.890625" y2="228.515625" id="line_319" class="solid" />
<line x1="-349.91455078125" y1="290.4052734375" x2="-359.375" y2="281.25" id="line_320" class="solid" />
<line x1="-337.890625" y1="228.515625" x2="-328.125" y2="218.75" id="line_322" class="solid" />
<line x1="-337.890625" y1="301.7578125" x2="-349.91455078125" y2="290.4052734375" id="line_323" class="solid" />
<line x1="93.75" y1="46.875" x2="125.0" y2="46.875" id="line_327" class="solid" />
<line x1="203.125" y1="62.5" x2="125.0" y2="62.5" id="line_328" class="solid" />
<line x1="93.75" y1="62.5" x2="93.75" y2="46.875" id="line_329" class="solid" />
<line x1="125.0" y1="62.5" x2="93.75" y2="62.5" id="line_330" class="solid" />
<line x1="125.0" y1="46.875" x2="203.125" y2="46.875" id="line_331" class="solid" />
<line x1="125.0" y1="62.5" x2="125.0" y2="93.75" id="line_333" class="solid" />
<line x1="125.0" y1="93.75" x2="93.75" y2="93.75" id="line_334" class="solid" />
<line x1="93.75" y1="93.75" x2="93.75" y2="62.5" id="line_335" class="solid" />
<line x1="125.0" y1="93.75" x2="125.0" y2="109.375" id="line_336" class="solid" />
<line x1="125.0" y1="109.375" x2="138.5498046875" y2="122.9248046875" id="line_337" class="solid" />
<line x1="93.75" y1="109.375" x2="93.75" y2="93.75" id="line_338" class="solid" />
<line x1="93.75" y1="153.411865234375" x2="93.75" y2="109.375" id="line_340" class="solid" />
<line x1="93.75" y1="156.25" x2="93.75" y2="153.411865234375" id="line_341" class="solid" />
<line x1="138.5498046875" y1="122.9248046875" x2="140.625" y2="125.0" id="line_342" class="solid" />
<line x1="-364.8681640625" y1="281.25" x2="-415.0390625" y2="281.25" id="line_344" class="solid" />
<line x1="-415.0390625" y1="281.25" x2="-426.7578125" y2="291.015625" id="line_346" class="solid" />
<line x1="-426.7578125" y1="291.015625" x2="-436.5234375" y2="308.59375" id="line_347" class="solid" />
<line x1="-343.75" y1="380.859375" x2="-328.125" y2="370.849609375" id="line_348" class="solid" />
<line x1="-369.140625" y1="384.765625" x2="-343.75" y2="380.859375" id="line_349" class="solid" />
<line x1="-397.4609375" y1="377.9296875" x2="-369.140625" y2="384.765625" id="line_350" class="solid" />
<line x1="-418.9453125" y1="361.328125" x2="-397.4609375" y2="377.9296875" id="line_351" class="solid" />
<line x1="-436.5234375" y1="308.59375" x2="-428.7109375" y2="338.8671875" id="line_352" class="solid" />
<line x1="-428.7109375" y1="338.8671875" x2="-418.9453125" y2="361.328125" id="line_353" class="solid" />
<line x1="-426.7578125" y1="233.3984375" x2="-415.0390625" y2="250.0" id="line_354" class="solid" />
<line x1="-430.6640625" y1="212.890625" x2="-426.7578125" y2="233.3984375" id="line_355" class="solid" />
<line x1="-328.125" y1="162.109375" x2="-337.890625" y2="153.3203125" id="line_356" class="solid" />
<line x1="-337.890625" y1="153.3203125" x2="-354.4921875" y2="149.4140625" id="line_357" class="solid" />
<line x1="-354.4921875" y1="149.4140625" x2="-372.0703125" y2="150.390625" id="line_358" class="solid" />
<line x1="-372.0703125" y1="150.390625" x2="-393.5546875" y2="158.203125" id="line_359" class="solid" />
<line x1="-421.875" y1="180.6640625" x2="-430.6640625" y2="212.890625" id="line_360" class="solid" />
<line x1="-393.5546875" y1="158.203125" x2="-421.875" y2="180.6640625" id="line_361" class="solid" />
<line x1="-296.875" y1="370.849609375" x2="-296.875" y2="394.53125" id="line_362" class="solid" />
<line x1="-364.2578125" y1="419.921875" x2="-407.2265625" y2="412.109375" id="line_365" class="solid" />
<line x1="-407.2265625" y1="412.109375" x2="-442.3828125" y2="386.71875" id="line_366" class="solid" />
<line x1="-442.3828125" y1="386.71875" x2="-466.796875" y2="343.75" id="line_367" class="solid" />
<line x1="-466.796875" y1="343.75" x2="-475.5859375" y2="314.453125" id="line_368" class="solid" />
<line x1="-475.5859375" y1="314.453125" x2="-474.609375" y2="207.03125" id="line_369" class="solid" />
<line x1="-474.609375" y1="207.03125" x2="-459.9609375" y2="168.9453125" id="line_370" class="solid" />
<line x1="-459.9609375" y1="168.9453125" x2="-414.0625" y2="126.953125" id="line_371" class="solid" />
<line x1="-414.0625" y1="126.953125" x2="-378.90625" y2="115.234375" id="line_372" class="solid" />
<line x1="-378.90625" y1="115.234375" x2="-352.5390625" y2="114.2578125" id="line_373" class="solid" />
<line x1="-352.5390625" y1="114.2578125" x2="-328.125" y2="118.1640625" id="line_374" class="solid" />
<line x1="-328.125" y1="118.1640625" x2="-296.875" y2="132.8125" id="line_375" class="solid" />
<line x1="-296.875" y1="132.8125" x2="-296.875" y2="162.109375" id="line_376" class="solid" />
<line x1="453.125" y1="218.75" x2="453.125" y2="234.375" id="line_393" class="solid" />
<line x1="734.375" y1="312.5" x2="734.375" y2="468.75" id="line_394" class="solid" />
<line x1="660.15625" y1="300.78125" x2="683.59375" y2="300.78125" id="line_395" class="solid" />
<line x1="613.28125" y1="351.5625" x2="613.28125" y2="300.78125" id="line_396" class="solid" />
<line x1="683.59375" y1="300.78125" x2="683.59375" y2="351.5625" id="line_397" class="solid" />
<line x1="687.5" y1="265.625" x2="718.75" y2="265.625" id="line_398" class="solid" />
<line x1="718.75" y1="265.625" x2="734.375" y2="312.5" id="line_399" class="solid" />
<line x1="578.125" y1="265.625" x2="609.375" y2="265.625" id="line_400" class="solid" />
<line x1="562.5" y1="312.5" x2="578.125" y2="265.625" id="line_401" class="solid" />
<line x1="562.5" y1="468.75" x2="562.5" y2="312.5" id="line_402" class="solid" />
<line x1="734.375" y1="468.75" x2="718.75" y2="515.625" id="line_404" class="solid" />
<line x1="718.75" y1="515.625" x2="656.25" y2="515.625" id="line_405" class="solid" />
<line x1="578.125" y1="515.625" x2="562.5" y2="468.75" id="line_406" class="solid" />
<line x1="683.59375" y1="468.75" x2="687.5" y2="468.75" id="line_407" class="solid" />
<line x1="609.375" y1="468.75" x2="613.28125" y2="468.75" id="line_408" class="solid" />
<line x1="660.15625" y1="296.875" x2="660.15625" y2="300.78125" id="line_411" class="solid" />
<line x1="613.28125" y1="300.78125" x2="636.71875" y2="300.78125" id="line_412" class="solid" />
<line x1="636.71875" y1="300.78125" x2="636.71875" y2="296.875" id="line_413" class="solid" />
<line x1="609.375" y1="351.5625" x2="613.28125" y2="351.5625" id="line_416" class="solid" />
<line x1="613.28125" y1="468.75" x2="613.28125" y2="402.34375" id="line_417" class="solid" />
<line x1="609.375" y1="402.34375" x2="609.375" y2="468.75" id="line_418" class="solid" />
<line x1="613.28125" y1="402.34375" x2="609.375" y2="402.34375" id="line_419" class="solid" />
<line x1="683.59375" y1="351.5625" x2="687.5" y2="351.5625" id="line_422" class="solid" />
<line x1="687.5" y1="468.75" x2="687.5" y2="402.34375" id="line_423" class="solid" />
<line x1="683.59375" y1="402.34375" x2="683.59375" y2="468.75" id="line_424" class="solid" />
<line x1="687.5" y1="402.34375" x2="683.59375" y2="402.34375" id="line_425" class="solid" />
<line x1="671.875" y1="250.0" x2="687.5" y2="265.625" id="line_428" class="solid" />
<line x1="609.375" y1="265.625" x2="625.0" y2="250.0" id="line_429" class="solid" />
<line x1="640.625" y1="515.625" x2="578.125" y2="515.625" id="line_431" class="solid" />
<line x1="218.75" y1="187.5" x2="203.125" y2="171.875" id="line_432" class="solid" />
<line x1="250.0" y1="171.875" x2="234.375" y2="187.5" id="line_433" class="solid" />
<line x1="250.0" y1="218.75" x2="234.375" y2="203.125" id="line_434" class="solid" />
<line x1="218.75" y1="203.125" x2="203.125" y2="218.75" id="line_435" class="solid" />
<line x1="-380.859375" y1="110.83984375" x2="-378.90625" y2="115.234375" id="line_436" class="solid" />
<line x1="-414.0625" y1="126.953125" x2="-415.0390625" y2="122.55859375" id="line_437" class="solid" />
<line x1="-415.0390625" y1="122.55859375" x2="-421.875" y2="101.5625" id="line_438" class="solid" />
<line x1="-390.625" y1="89.84375" x2="-380.859375" y2="110.83984375" id="line_439" class="solid" />
<line x1="-380.859375" y1="110.83984375" x2="-415.0390625" y2="122.55859375" id="line_440" class="solid" />
<line x1="-421.875" y1="101.5625" x2="-390.625" y2="89.84375" id="line_441" class="solid" />
<line x1="46.875" y1="328.125" x2="203.125" y2="328.125" id="line_442" class="solid" />
<line x1="203.125" y1="343.75" x2="46.875" y2="343.75" id="line_443" class="solid" />
<line x1="687.5" y1="296.875" x2="660.15625" y2="296.875" id="line_447" class="solid" />
<line x1="636.71875" y1="296.875" x2="609.375" y2="296.875" id="line_448" class="solid" />
<line x1="687.5" y1="351.5625" x2="687.5" y2="296.875" id="line_451" class="solid" />
<line x1="609.375" y1="296.875" x2="609.375" y2="351.5625" id="line_452" class="solid" />
<line x1="453.125" y1="171.875" x2="671.875" y2="171.875" id="line_455" class="solid" />
<line x1="625.0" y1="218.75" x2="453.125" y2="218.75" id="line_456" class="solid" />
<line x1="625.0" y1="226.5625" x2="625.0" y2="218.75" id="line_457" class="solid" />
<line x1="671.875" y1="171.875" x2="671.875" y2="218.75" id="line_460" class="solid" />
<line x1="671.875" y1="218.75" x2="671.875" y2="226.5625" id="line_461" class="solid" />
<line x1="625.0" y1="234.375" x2="625.0" y2="226.5625" id="line_462" class="solid" />
<line x1="671.875" y1="226.5625" x2="671.875" y2="234.375" id="line_464" class="solid" />
<line x1="625.0" y1="242.1875" x2="625.0" y2="234.375" id="line_465" class="solid" />
<line x1="625.0" y1="250.0" x2="625.0" y2="242.1875" id="line_466" class="solid" />
<line x1="671.875" y1="234.375" x2="671.875" y2="242.1875" id="line_468" class="solid" />
<line x1="671.875" y1="242.1875" x2="671.875" y2="250.0" id="line_469" class="solid" />
<line x1="640.625" y1="519.53125" x2="640.625" y2="515.625" id="line_470" class="solid" />
<line x1="656.25" y1="519.53125" x2="640.625" y2="519.53125" id="line_471" class="solid" />
<line x1="656.25" y1="515.625" x2="656.25" y2="519.53125" id="line_472" class="solid" />
<line x1="15.625" y1="285.15625" x2="15.625" y2="281.25" id="line_473" class="solid" />
<line x1="15.625" y1="285.15625" x2="46.875" y2="285.15625" id="line_474" class="solid" />
<line x1="46.875" y1="281.25" x2="46.875" y2="285.15625" id="line_475" class="solid" />
<line x1="46.875" y1="285.15625" x2="46.875" y2="328.125" id="line_476" class="solid" />
<line x1="15.625" y1="343.75" x2="15.625" y2="285.15625" id="line_477" class="solid" />
<line x1="343.75" y1="328.125" x2="390.625" y2="328.125" id="line_478" class="solid" />
<line x1="390.625" y1="343.75" x2="343.75" y2="343.75" id="line_479" class="solid" />
<line x1="46.875" y1="343.75" x2="46.875" y2="391.6015625" id="line_480" class="solid" />
<line x1="-57.6171875" y1="343.75" x2="15.625" y2="343.75" id="line_481" class="solid" />
<line x1="-296.875" y1="394.53125" x2="-57.6171875" y2="343.75" id="line_482" class="solid" />
<line x1="-344.7265625" y1="486.328125" x2="-364.2578125" y2="419.921875" id="line_483" class="solid" />
<line x1="-71.2890625" y1="470.703125" x2="-344.7265625" y2="486.328125" id="line_484" class="solid" />
<line x1="46.875" y1="391.6015625" x2="-71.2890625" y2="470.703125" id="line_485" class="solid" />
<!-- end group: "border_solid" -->
</g>
<!-- end group: "borders" -->
</g>
<g id="panel_platform_switch_lines">
<g id="panel_platform_switch_lines_s392">
<g id="panel_platform_switch_line_group_poly_s392_p124">
<line x1="648.4375" y1="519.53125" x2="250.0" y2="195.3125" id="panel_platform_switch_border_s392_p124" class="platform_switch_border" />
<use xlink:href="../resources/svg/common.svg#arrow" x="250.0" y="195.3125" id="panel_platform_switch_head_s392_p124" class="platform_switch_line" transform="rotate(-140.86387201076894 250.0 195.3125)" />
<line x1="648.4375" y1="519.53125" x2="250.0" y2="195.3125" id="panel_platform_switch_line_s392_p124" class="platform_switch_line" />
<!-- end group: "panel_platform_switch_line_group_poly_s392_p124" -->
</g>
<!-- end group: "panel_platform_switch_lines_s392" -->
</g>
<!-- end group: "panel_platform_switch_lines" -->
</g>
<g id="objects">
<g id="objects_item">
<use xlink:href="../resources/svg/common.svg#item" x="147.4609375" y="54.6875" id="object_0" class="item item-8" transform="rotate(355.078125 147.4609375 54.6875)" />
<use xlink:href="../resources/svg/common.svg#item" x="-310.546875" y="263.671875" id="object_8" class="item item-5" transform="rotate(45.0 -310.546875 263.671875)" />
<use xlink:href="../resources/svg/common.svg#item" x="285.15625" y="236.328125" id="object_9" class="item item-5" transform="rotate(45.0 285.15625 236.328125)" />
<use xlink:href="../resources/svg/common.svg#item" x="-152.34375" y="232.421875" id="object_10" class="item item-5" transform="rotate(45.0 -152.34375 232.421875)" />
<use xlink:href="../resources/svg/common.svg#item" x="-402.34375" y="105.46875" id="object_11" class="item item-11" transform="rotate(45.0 -402.34375 105.46875)" />
<use xlink:href="../resources/svg/common.svg#item" x="126.953125" y="152.34375" id="object_12" class="item item-10" transform="rotate(45.0 126.953125 152.34375)" />
<use xlink:href="../resources/svg/common.svg#item" x="486.328125" y="248.046875" id="object_13" class="item item-3" transform="rotate(45.0 486.328125 248.046875)" />
<use xlink:href="../resources/svg/common.svg#item" x="-421.875" y="158.203125" id="object_14" class="item item-3" transform="rotate(323.4375 -421.875 158.203125)" />
<use xlink:href="../resources/svg/common.svg#item" x="649.2919921875" y="315.582275390625" id="object_15" class="item item-15" />
<use xlink:href="../resources/svg/common.svg#item" x="29.296875" y="310.546875" id="object_17" class="item item-5" />
<use xlink:href="../resources/svg/common.svg#item" x="-96.6796875" y="455.078125" id="object_18" class="item item-3" />
<!-- end group: "objects_item" -->
</g>
<g id="objects_player">
<use xlink:href="../resources/svg/common.svg#monster" x="401.3671875" y="200.1953125" id="object_1" class="player" transform="rotate(353.671875 401.3671875 200.1953125)" />
<use xlink:href="../resources/svg/common.svg#monster" x="-457.03125" y="265.625" id="object_2" class="player" transform="rotate(1.40625 -457.03125 265.625)" />
<use xlink:href="../resources/svg/common.svg#monster" x="29.296875" y="193.359375" id="object_3" class="player" />
<use xlink:href="../resources/svg/common.svg#monster" x="-238.28125" y="123.046875" id="object_4" class="player" transform="rotate(18.28125 -238.28125 123.046875)" />
<use xlink:href="../resources/svg/common.svg#monster" x="269.53125" y="54.6875" id="object_5" class="player" transform="rotate(3.515625 269.53125 54.6875)" />
<use xlink:href="../resources/svg/common.svg#monster" x="263.671875" y="335.9375" id="object_6" class="player" transform="rotate(2.109375 263.671875 335.9375)" />
<use xlink:href="../resources/svg/common.svg#monster" x="103.515625" y="117.1875" id="object_7" class="player" transform="rotate(45.0 103.515625 117.1875)" />
<use xlink:href="../resources/svg/common.svg#monster" x="648.4375" y="382.8125" id="object_16" class="player" transform="rotate(267.1875 648.4375 382.8125)" />
<!-- end group: "objects_player" -->
</g>
<!-- end group: "objects" -->
</g>
<g id="panels">
<use xlink:href="../resources/svg/common.svg#panel" x="648.4375" y="519.53125" id="side_392" class="panel-platform_switch" onmouseover="m_over('side_392');" onmouseout="m_out('side_392');" />
<!-- end group: "panels" -->
</g>

<script xlink:href="../resources/js/level.js" ></script>
</svg>