<?xml version="1.0" encoding="UTF-8"?>
<!-- generated by map2svg: github.com/fracai/marathon-svg -->
<svg xmlns="http://www.w3.org/2000/svg" xmlns:xlink="http://www.w3.org/1999/xlink" version="1.1"
    viewBox="-566.131591796875 -204.1015625 831.756591796875 1112.4267578125">
<link xmlns="http://www.w3.org/1999/xhtml" rel="stylesheet" href="../resources/css/styles.css" type="text/css" />
<style id="dynamic-style" />
<g id="background-grid">
<defs>
<pattern id="grid_minor" width="3.125" height="3.125" patternUnits="userSpaceOnUse">
<path d="M 3.125 0 L 0 0 0 3.125" fill="none" class="grid_minor" />
</pattern>
<pattern id="grid_major" width="31.25" height="31.25" patternUnits="userSpaceOnUse">
<rect width="31.25" height="31.25" fill="url(#grid_minor)"/>
<path d="M 31.25 0 L 0 0 0 31.25" fill="none" class="grid_major" />
</pattern>
</defs>
<rect x="-1000" y="-1000" width="2000" height="2000" fill="url(#grid_major)" />
<line x1="0" y1="1000" x2="0" y2="-1000" class="grid_origin" />
<line x1="1000" y1="0" x2="-1000" y2="0" class="grid_origin" />
<!-- end group: "background-grid" -->
</g>
<g id="polygons">
<polygon points="-109.375,328.125 -78.125,328.125 -78.125,437.5 -109.375,437.5" id="poly_2" class="lava" />
<polygon points="-125.0,312.5 -109.375,328.125 -109.375,437.5 -152.496337890625,419.097900390625 -178.22265625,401.85546875 -189.88037109375,390.777587890625" id="poly_3" class="lava" />
<polygon points="-250.0,312.5 -125.0,312.5 -189.88037109375,390.777587890625 -219.970703125,354.827880859375" id="poly_4" class="lava" />
<polygon points="-250.0,281.25 -125.0,281.25 -125.0,312.5 -250.0,312.5" id="poly_5" class="lava" />
<polygon points="-243.896484375,234.283447265625 -125.0,281.25 -250.0,281.25" id="poly_6" class="lava" />
<polygon points="-243.896484375,234.283447265625 -242.1875,218.75 -220.3369140625,160.70556640625 -109.375,265.625 -125.0,281.25" id="poly_7" class="lava" />
<polygon points="-220.3369140625,160.70556640625 -184.63134765625,109.375 -134.21630859375,72.44873046875 -109.375,62.5 -109.375,265.625" id="poly_8" class="lava" />
<polygon points="-109.375,62.5 -78.125,62.5 -78.125,265.625 -109.375,265.625" id="poly_9" class="lava" />
<polygon points="-78.125,62.5 31.25,218.75 16.11328125,281.25 -62.5,281.25 -78.125,265.625" id="poly_10" class="lava" />
<polygon points="-62.5,281.25 16.11328125,281.25 125.0,281.25 125.0,312.5 16.11328125,312.5 -62.5,312.5" id="poly_11" class="lava" />
<polygon points="-62.5,312.5 16.11328125,312.5 125.0,406.25 125.0,468.75 62.5,468.75 -31.25,468.75 -78.125,437.5 -78.125,328.125" id="poly_12" class="lava" />
<polygon points="-78.125,437.5 -31.25,468.75 -31.25,500.0 -46.875,500.0 -62.5,500.0 -78.125,500.0" id="poly_13" class="lava" />
<polygon points="16.11328125,312.5 125.0,312.5 156.25,343.75 156.25,375.0 156.25,390.625 156.25,406.25 125.0,406.25" id="poly_14" class="lava" />
<polygon points="-328.4912109375,416.1376953125 -328.4912109375,384.8876953125 -297.2412109375,384.8876953125 -297.2412109375,416.1376953125" id="poly_38" class="lava" />
<polygon points="-328.4912109375,447.3876953125 -328.4912109375,416.1376953125 -297.2412109375,416.1376953125 -297.2412109375,447.3876953125" id="poly_42" class="lava" />
<polygon points="-328.4912109375,478.6376953125 -328.4912109375,447.3876953125 -297.2412109375,447.3876953125 -297.2412109375,478.6376953125" id="poly_45" class="lava" />
<polygon points="-328.4912109375,509.8876953125 -328.4912109375,478.6376953125 -297.2412109375,478.6376953125 -297.2412109375,509.8876953125" id="poly_48" class="lava" />
<polygon points="-281.6162109375,509.8876953125 -281.6162109375,478.6376953125 -281.6162109375,447.3876953125 -281.6162109375,416.1376953125 -242.279052734375,427.398681640625 -186.309814453125,454.4677734375 -141.571044921875,499.1455078125 -129.08935546875,557.647705078125" id="poly_50" class="lava" />
<polygon points="-305.0537109375,666.1376953125 -305.0537109375,572.3876953125 -297.2412109375,509.8876953125 -281.6162109375,509.8876953125 -129.08935546875,557.647705078125 -124.3896484375,619.7509765625 -124.3896484375,682.0068359375 -144.256591796875,741.3330078125" id="poly_51" class="lava" />
<polygon points="-320.6787109375,572.3876953125 -328.4912109375,509.8876953125 -297.2412109375,509.8876953125 -305.0537109375,572.3876953125" id="poly_52" class="lava" />
<polygon points="-509.521484375,741.3330078125 -529.205322265625,682.0068359375 -534.881591796875,619.7509765625 -527.7099609375,557.647705078125 -344.1162109375,509.8876953125 -328.4912109375,509.8876953125 -320.6787109375,572.3876953125 -320.6787109375,666.1376953125" id="poly_53" class="lava" />
<polygon points="-527.7099609375,557.647705078125 -505.706787109375,499.1455078125 -461.944580078125,454.4677734375 -405.609130859375,427.398681640625 -344.1162109375,416.1376953125 -344.1162109375,447.3876953125 -344.1162109375,478.6376953125 -344.1162109375,509.8876953125" id="poly_54" class="lava" />
<polygon points="-415.4052734375,820.709228515625 -469.482421875,789.337158203125 -509.521484375,741.3330078125 -320.6787109375,666.1376953125 -336.3037109375,838.0126953125" id="poly_57" class="lava" />
<polygon points="-289.4287109375,838.0126953125 -305.0537109375,666.1376953125 -144.256591796875,741.3330078125 -182.037353515625,791.839599609375 -233.245849609375,827.63671875" id="poly_58" class="lava" />
<polygon points="-78.125,62.5 -62.5,62.5 -46.875,62.5 -31.25,62.5 -15.625,62.5 31.25,187.5 31.25,218.75" id="poly_61" class="lava" />
<polygon points="-15.625,62.5 0.0,62.5 15.625,62.5 93.75,62.5 93.75,93.75 93.75,156.25 62.5,187.5 31.25,187.5" id="poly_62" class="lava" />
<polygon points="31.25,218.75 62.5,218.75 156.25,250.0 125.0,281.25 16.11328125,281.25" id="poly_64" class="lava" />
<polygon points="62.5,187.5 93.75,156.25 125.0,156.25 153.594970703125,168.8232421875 179.290771484375,186.5234375 156.25,250.0 62.5,218.75" id="poly_65" class="lava" />
<polygon points="179.290771484375,186.5234375 197.57080078125,211.822509765625 203.125,250.0 156.25,250.0" id="poly_66" class="lava" />
<polygon points="-281.25,281.25 -265.625,281.25 -265.625,312.5 -281.25,312.5" id="poly_32" class="platform" />
<polygon points="-328.4912109375,338.0126953125 -328.4912109375,322.3876953125 -297.2412109375,322.3876953125 -297.2412109375,338.0126953125" id="poly_33" class="platform" />
<polygon points="-109.375,-93.75 -78.125,-93.75 -78.125,-78.125 -109.375,-78.125" id="poly_88" class="plain" />
<polygon points="-195.3125,398.4375 -189.88037109375,390.777587890625 -178.22265625,401.85546875 -184.08203125,409.1796875" id="poly_30" class="plain" />
<polygon points="-250.0,218.75 -242.1875,218.75 -243.896484375,234.283447265625 -250.0,234.375" id="poly_60" class="plain" />
<polygon points="156.25,375.0 164.0625,375.0 164.0625,390.625 156.25,390.625" id="poly_69" class="plain" />
<polygon points="-109.375,-78.125 -78.125,-78.125 -78.125,-62.5 -109.375,-62.5" id="poly_87" class="plain" />
<polygon points="-109.375,-62.5 -78.125,-62.5 -78.125,-46.875 -109.375,-46.875" id="poly_86" class="plain" />
<polygon points="-265.625,281.25 -250.0,281.25 -250.0,312.5 -265.625,312.5" id="poly_31" class="plain" />
<polygon points="-328.4912109375,353.6376953125 -328.4912109375,338.0126953125 -297.2412109375,338.0126953125 -297.2412109375,353.6376953125" id="poly_34" class="plain" />
<polygon points="-109.375,-46.875 -78.125,-46.875 -78.125,-31.25 -109.375,-31.25" id="poly_85" class="plain" />
<polygon points="-328.125,281.25 -281.25,281.25 -281.25,312.5 -297.2412109375,322.3876953125 -328.4912109375,322.3876953125" id="poly_89" class="plain" />
<polygon points="-109.375,-31.25 -78.125,-31.25 -78.125,-15.625 -109.375,-15.625" id="poly_84" class="plain" />
<polygon points="-109.375,-15.625 -78.125,-15.625 -78.125,0.0 -109.375,0.0" id="poly_83" class="plain" />
<polygon points="-109.375,0.0 -78.125,0.0 -78.125,15.625 -109.375,15.625" id="poly_82" class="plain" />
<polygon points="-109.375,15.625 -78.125,15.625 -78.125,31.25 -109.375,31.25" id="poly_81" class="plain" />
<polygon points="-206.54296875,-172.8515625 -112.79296875,-172.8515625 -112.79296875,-110.3515625 -206.54296875,-110.3515625" id="poly_0" class="plain" />
<polygon points="-125.0,281.25 -109.375,265.625 -78.125,265.625 -62.5,281.25 -62.5,312.5 -78.125,328.125 -109.375,328.125 -125.0,312.5" id="poly_1" class="plain" />
<polygon points="-109.375,500.0 -78.125,500.0 -78.125,531.25 -109.375,531.25" id="poly_26" class="plain" />
<polygon points="-109.375,437.5 -78.125,437.5 -78.125,500.0 -109.375,500.0" id="poly_27" class="plain" />
<polygon points="-328.4912109375,384.8876953125 -328.4912109375,353.6376953125 -297.2412109375,353.6376953125 -297.2412109375,384.8876953125" id="poly_35" class="plain" />
<polygon points="125.0,281.25 156.25,250.0 203.125,250.0 203.125,343.75 156.25,343.75 125.0,312.5" id="poly_67" class="plain" />
<polygon points="203.125,250.0 234.375,250.0 234.375,343.75 203.125,343.75" id="poly_68" class="plain" />
<polygon points="-109.375,31.25 -78.125,31.25 -78.125,62.5 -109.375,62.5" id="poly_80" class="plain" />
<polygon points="-78.125,500.0 -62.5,500.0 -62.5,531.25 -78.125,531.25" id="poly_25" class="plain" />
<polygon points="-297.2412109375,384.8876953125 -297.2412109375,353.6376953125 -281.6162109375,353.6376953125 -281.6162109375,384.8876953125" id="poly_36" class="plain" />
<polygon points="-78.125,31.25 -62.5,31.25 -62.5,62.5 -78.125,62.5" id="poly_79" class="plain" />
<polygon points="203.125,343.75 234.375,343.75 234.375,363.28125 203.125,363.28125" id="poly_90" class="plain" />
<polygon points="-62.5,500.0 -46.875,500.0 -46.875,531.25 -62.5,531.25" id="poly_24" class="plain" />
<polygon points="-31.25,468.75 15.625,500.0 0.0,500.0 -15.625,500.0 -31.25,500.0" id="poly_28" class="plain" />
<polygon points="-31.25,468.75 62.5,468.75 62.5,484.375 62.5,500.0 31.25,500.0 15.625,500.0" id="poly_29" class="plain" />
<polygon points="-344.1162109375,384.8876953125 -344.1162109375,353.6376953125 -328.4912109375,353.6376953125 -328.4912109375,384.8876953125" id="poly_40" class="plain" />
<polygon points="-62.5,31.25 -46.875,31.25 -46.875,62.5 -62.5,62.5" id="poly_78" class="plain" />
<polygon points="125.0,406.25 156.25,406.25 156.25,468.75 125.0,468.75" id="poly_15" class="plain" />
<polygon points="-46.875,500.0 -31.25,500.0 -31.25,531.25 -46.875,531.25" id="poly_23" class="plain" />
<polygon points="-297.2412109375,416.1376953125 -297.2412109375,384.8876953125 -281.6162109375,384.8876953125 -281.6162109375,416.1376953125" id="poly_37" class="plain" />
<polygon points="-46.875,31.25 -31.25,31.25 -31.25,62.5 -46.875,62.5" id="poly_77" class="plain" />
<polygon points="-31.25,500.0 -15.625,500.0 -15.625,531.25 -31.25,531.25" id="poly_22" class="plain" />
<polygon points="-344.1162109375,416.1376953125 -344.1162109375,384.8876953125 -328.4912109375,384.8876953125 -328.4912109375,416.1376953125" id="poly_39" class="plain" />
<polygon points="-31.25,31.25 -15.625,31.25 -15.625,62.5 -31.25,62.5" id="poly_76" class="plain" />
<polygon points="-15.625,500.0 0.0,500.0 0.0,531.25 -15.625,531.25" id="poly_21" class="plain" />
<polygon points="-297.2412109375,447.3876953125 -297.2412109375,416.1376953125 -281.6162109375,416.1376953125 -281.6162109375,447.3876953125" id="poly_41" class="plain" />
<polygon points="-15.625,31.25 0.0,31.25 0.0,62.5 -15.625,62.5" id="poly_75" class="plain" />
<polygon points="0.0,500.0 15.625,500.0 15.625,531.25 0.0,531.25" id="poly_20" class="plain" />
<polygon points="-344.1162109375,447.3876953125 -344.1162109375,416.1376953125 -328.4912109375,416.1376953125 -328.4912109375,447.3876953125" id="poly_43" class="plain" />
<polygon points="0.0,31.25 15.625,31.25 15.625,62.5 0.0,62.5" id="poly_74" class="plain" />
<polygon points="15.625,500.0 31.25,500.0 31.25,531.25 15.625,531.25" id="poly_19" class="plain" />
<polygon points="-297.2412109375,478.6376953125 -297.2412109375,447.3876953125 -281.6162109375,447.3876953125 -281.6162109375,478.6376953125" id="poly_44" class="plain" />
<polygon points="31.25,187.5 62.5,187.5 62.5,218.75 31.25,218.75" id="poly_63" class="plain" />
<polygon points="93.75,93.75 125.0,93.75 125.0,156.25 93.75,156.25" id="poly_70" class="plain" />
<polygon points="109.375,31.25 125.0,31.25 125.0,93.75 93.75,93.75 93.75,62.5" id="poly_71" class="plain" />
<polygon points="15.625,31.25 109.375,31.25 93.75,62.5 15.625,62.5" id="poly_72" class="plain" />
<polygon points="125.0,468.75 156.25,468.75 156.25,531.25 125.0,484.375" id="poly_16" class="plain" />
<polygon points="62.5,500.0 62.5,484.375 125.0,484.375 156.25,531.25 85.9375,531.25" id="poly_17" class="plain" />
<polygon points="31.25,500.0 62.5,500.0 85.9375,531.25 31.25,531.25" id="poly_18" class="plain" />
<polygon points="-344.1162109375,478.6376953125 -344.1162109375,447.3876953125 -328.4912109375,447.3876953125 -328.4912109375,478.6376953125" id="poly_46" class="plain" />
<polygon points="109.375,23.4375 125.0,23.4375 125.0,31.25 109.375,31.25" id="poly_73" class="plain" />
<polygon points="-297.2412109375,509.8876953125 -297.2412109375,478.6376953125 -281.6162109375,478.6376953125 -281.6162109375,509.8876953125" id="poly_49" class="plain" />
<polygon points="-344.1162109375,509.8876953125 -344.1162109375,478.6376953125 -328.4912109375,478.6376953125 -328.4912109375,509.8876953125" id="poly_47" class="plain" />
<polygon points="-320.6787109375,666.1376953125 -320.6787109375,572.3876953125 -305.0537109375,572.3876953125 -305.0537109375,666.1376953125" id="poly_55" class="plain" />
<polygon points="-336.3037109375,838.0126953125 -320.6787109375,666.1376953125 -305.0537109375,666.1376953125 -289.4287109375,838.0126953125" id="poly_56" class="plain" />
<polygon points="-336.3037109375,877.0751953125 -336.3037109375,838.0126953125 -289.4287109375,838.0126953125 -289.4287109375,877.0751953125" id="poly_59" class="plain" />
<!-- end group: "polygons" -->
</g>
<g id="borders">
<g id="border_unconnected">
<line x1="375.0" y1="312.5" x2="375.0" y2="281.25" id="line_7" class="unconnected" />
<!-- end group: "border_unconnected" -->
</g>
<g id="border_plain">
<line x1="93.75" y1="93.75" x2="125.0" y2="93.75" id="line_23" class="plain" />
<line x1="-297.2412109375" y1="416.1376953125" x2="-328.4912109375" y2="416.1376953125" id="line_58" class="plain" />
<line x1="-297.2412109375" y1="447.3876953125" x2="-328.4912109375" y2="447.3876953125" id="line_60" class="plain" />
<line x1="-297.2412109375" y1="478.6376953125" x2="-328.4912109375" y2="478.6376953125" id="line_61" class="plain" />
<line x1="-305.0537109375" y1="666.1376953125" x2="-320.6787109375" y2="666.1376953125" id="line_70" class="plain" />
<line x1="-297.2412109375" y1="509.8876953125" x2="-328.4912109375" y2="509.8876953125" id="line_76" class="plain" />
<line x1="-289.4287109375" y1="838.0126953125" x2="-336.3037109375" y2="838.0126953125" id="line_87" class="plain" />
<line x1="-320.6787109375" y1="572.3876953125" x2="-328.4912109375" y2="509.8876953125" id="line_103" class="plain" />
<line x1="-305.0537109375" y1="572.3876953125" x2="-297.2412109375" y2="509.8876953125" id="line_104" class="plain" />
<line x1="-129.08935546875" y1="557.647705078125" x2="-281.6162109375" y2="509.8876953125" id="line_105" class="plain" />
<line x1="-527.7099609375" y1="557.647705078125" x2="-344.1162109375" y2="509.8876953125" id="line_106" class="plain" />
<line x1="-320.6787109375" y1="666.1376953125" x2="-509.521484375" y2="741.3330078125" id="line_107" class="plain" />
<line x1="-144.256591796875" y1="741.3330078125" x2="-305.0537109375" y2="666.1376953125" id="line_108" class="plain" />
<line x1="93.75" y1="156.25" x2="62.5" y2="187.5" id="line_168" class="plain" />
<line x1="-15.625" y1="62.5" x2="31.25" y2="187.5" id="line_169" class="plain" />
<line x1="31.25" y1="218.75" x2="16.11328125" y2="281.25" id="line_170" class="plain" />
<line x1="-78.125" y1="62.5" x2="31.25" y2="218.75" id="line_171" class="plain" />
<line x1="203.125" y1="250.0" x2="203.125" y2="343.75" id="line_179" class="plain" />
<line x1="62.5" y1="218.75" x2="156.25" y2="250.0" id="line_187" class="plain" />
<line x1="-189.88037109375" y1="390.777587890625" x2="-125.0" y2="312.5" id="line_197" class="plain" />
<line x1="-220.3369140625" y1="160.70556640625" x2="-109.375" y2="265.625" id="line_202" class="plain" />
<line x1="-243.896484375" y1="234.283447265625" x2="-125.0" y2="281.25" id="line_203" class="plain" />
<line x1="156.25" y1="531.25" x2="125.0" y2="484.375" id="line_239" class="plain" />
<line x1="-109.375" y1="500.0" x2="-78.125" y2="500.0" id="line_240" class="plain" />
<line x1="-31.25" y1="468.75" x2="-78.125" y2="437.5" id="line_251" class="plain" />
<line x1="16.11328125" y1="312.5" x2="125.0" y2="406.25" id="line_254" class="plain" />
<line x1="-31.25" y1="468.75" x2="15.625" y2="500.0" id="line_257" class="plain" />
<line x1="85.9375" y1="531.25" x2="62.5" y2="500.0" id="line_259" class="plain" />
<line x1="179.290771484375" y1="186.5234375" x2="156.25" y2="250.0" id="line_263" class="plain" />
<line x1="93.75" y1="62.5" x2="109.375" y2="31.25" id="line_264" class="plain" />
<!-- end group: "border_plain" -->
</g>
<g id="border_ceiling">
<line x1="-297.2412109375" y1="353.6376953125" x2="-328.4912109375" y2="353.6376953125" id="line_75" class="ceiling" />
<line x1="-109.375" y1="-78.125" x2="-78.125" y2="-78.125" id="line_123" class="ceiling" />
<line x1="-109.375" y1="-62.5" x2="-78.125" y2="-62.5" id="line_126" class="ceiling" />
<line x1="-109.375" y1="-46.875" x2="-78.125" y2="-46.875" id="line_129" class="ceiling" />
<line x1="-109.375" y1="-31.25" x2="-78.125" y2="-31.25" id="line_132" class="ceiling" />
<line x1="-109.375" y1="-15.625" x2="-78.125" y2="-15.625" id="line_135" class="ceiling" />
<line x1="-109.375" y1="0.0" x2="-78.125" y2="0.0" id="line_138" class="ceiling" />
<line x1="-109.375" y1="31.25" x2="-78.125" y2="31.25" id="line_141" class="ceiling" />
<line x1="-109.375" y1="15.625" x2="-78.125" y2="15.625" id="line_266" class="ceiling" />
<!-- end group: "border_ceiling" -->
</g>
<g id="border_elevation">
<line x1="-125.0" y1="281.25" x2="-109.375" y2="265.625" id="line_9" class="elevation" />
<line x1="-109.375" y1="328.125" x2="-125.0" y2="312.5" id="line_13" class="elevation" />
<line x1="-62.5" y1="312.5" x2="-78.125" y2="328.125" id="line_16" class="elevation" />
<line x1="-78.125" y1="265.625" x2="-62.5" y2="281.25" id="line_18" class="elevation" />
<line x1="93.75" y1="93.75" x2="93.75" y2="156.25" id="line_20" class="elevation" />
<line x1="93.75" y1="156.25" x2="125.0" y2="156.25" id="line_21" class="elevation" />
<line x1="-281.6162109375" y1="384.8876953125" x2="-297.2412109375" y2="384.8876953125" id="line_34" class="elevation" />
<line x1="-297.2412109375" y1="353.6376953125" x2="-297.2412109375" y2="384.8876953125" id="line_35" class="elevation" />
<line x1="-328.4912109375" y1="384.8876953125" x2="-328.4912109375" y2="353.6376953125" id="line_36" class="elevation" />
<line x1="-344.1162109375" y1="384.8876953125" x2="-328.4912109375" y2="384.8876953125" id="line_37" class="elevation" />
<line x1="-297.2412109375" y1="416.1376953125" x2="-297.2412109375" y2="384.8876953125" id="line_40" class="elevation" />
<line x1="-281.6162109375" y1="416.1376953125" x2="-297.2412109375" y2="416.1376953125" id="line_41" class="elevation" />
<line x1="-328.4912109375" y1="416.1376953125" x2="-328.4912109375" y2="384.8876953125" id="line_43" class="elevation" />
<line x1="-328.4912109375" y1="416.1376953125" x2="-344.1162109375" y2="416.1376953125" id="line_44" class="elevation" />
<line x1="-328.4912109375" y1="447.3876953125" x2="-328.4912109375" y2="416.1376953125" id="line_46" class="elevation" />
<line x1="-328.4912109375" y1="447.3876953125" x2="-344.1162109375" y2="447.3876953125" id="line_47" class="elevation" />
<line x1="-344.1162109375" y1="447.3876953125" x2="-344.1162109375" y2="416.1376953125" id="line_48" class="elevation" />
<line x1="-297.2412109375" y1="447.3876953125" x2="-297.2412109375" y2="416.1376953125" id="line_49" class="elevation" />
<line x1="-281.6162109375" y1="447.3876953125" x2="-297.2412109375" y2="447.3876953125" id="line_50" class="elevation" />
<line x1="-281.6162109375" y1="416.1376953125" x2="-281.6162109375" y2="447.3876953125" id="line_51" class="elevation" />
<line x1="-281.6162109375" y1="447.3876953125" x2="-281.6162109375" y2="478.6376953125" id="line_52" class="elevation" />
<line x1="-281.6162109375" y1="478.6376953125" x2="-297.2412109375" y2="478.6376953125" id="line_53" class="elevation" />
<line x1="-297.2412109375" y1="478.6376953125" x2="-297.2412109375" y2="447.3876953125" id="line_54" class="elevation" />
<line x1="-328.4912109375" y1="478.6376953125" x2="-328.4912109375" y2="447.3876953125" id="line_55" class="elevation" />
<line x1="-328.4912109375" y1="478.6376953125" x2="-344.1162109375" y2="478.6376953125" id="line_56" class="elevation" />
<line x1="-344.1162109375" y1="478.6376953125" x2="-344.1162109375" y2="447.3876953125" id="line_57" class="elevation" />
<line x1="-297.2412109375" y1="384.8876953125" x2="-328.4912109375" y2="384.8876953125" id="line_59" class="elevation" />
<line x1="-328.4912109375" y1="478.6376953125" x2="-328.4912109375" y2="509.8876953125" id="line_62" class="elevation" />
<line x1="-328.4912109375" y1="509.8876953125" x2="-344.1162109375" y2="509.8876953125" id="line_63" class="elevation" />
<line x1="-344.1162109375" y1="509.8876953125" x2="-344.1162109375" y2="478.6376953125" id="line_64" class="elevation" />
<line x1="-297.2412109375" y1="478.6376953125" x2="-297.2412109375" y2="509.8876953125" id="line_65" class="elevation" />
<line x1="-281.6162109375" y1="509.8876953125" x2="-297.2412109375" y2="509.8876953125" id="line_66" class="elevation" />
<line x1="-281.6162109375" y1="478.6376953125" x2="-281.6162109375" y2="509.8876953125" id="line_67" class="elevation" />
<line x1="-305.0537109375" y1="572.3876953125" x2="-320.6787109375" y2="572.3876953125" id="line_68" class="elevation" />
<line x1="-320.6787109375" y1="572.3876953125" x2="-320.6787109375" y2="666.1376953125" id="line_69" class="elevation" />
<line x1="-305.0537109375" y1="666.1376953125" x2="-305.0537109375" y2="572.3876953125" id="line_71" class="elevation" />
<line x1="-336.3037109375" y1="838.0126953125" x2="-320.6787109375" y2="666.1376953125" id="line_98" class="elevation" />
<line x1="-305.0537109375" y1="666.1376953125" x2="-289.4287109375" y2="838.0126953125" id="line_99" class="elevation" />
<line x1="-78.125" y1="62.5" x2="-78.125" y2="31.25" id="line_142" class="elevation" />
<line x1="-78.125" y1="62.5" x2="-62.5" y2="62.5" id="line_144" class="elevation" />
<line x1="-62.5" y1="62.5" x2="-62.5" y2="31.25" id="line_145" class="elevation" />
<line x1="-46.875" y1="62.5" x2="-46.875" y2="31.25" id="line_147" class="elevation" />
<line x1="-62.5" y1="62.5" x2="-46.875" y2="62.5" id="line_148" class="elevation" />
<line x1="-46.875" y1="62.5" x2="-31.25" y2="62.5" id="line_149" class="elevation" />
<line x1="-31.25" y1="62.5" x2="-31.25" y2="31.25" id="line_150" class="elevation" />
<line x1="-15.625" y1="62.5" x2="-15.625" y2="31.25" id="line_153" class="elevation" />
<line x1="-31.25" y1="62.5" x2="-15.625" y2="62.5" id="line_154" class="elevation" />
<line x1="-15.625" y1="62.5" x2="0.0" y2="62.5" id="line_155" class="elevation" />
<line x1="0.0" y1="62.5" x2="0.0" y2="31.25" id="line_156" class="elevation" />
<line x1="15.625" y1="62.5" x2="15.625" y2="31.25" id="line_159" class="elevation" />
<line x1="0.0" y1="62.5" x2="15.625" y2="62.5" id="line_160" class="elevation" />
<line x1="15.625" y1="62.5" x2="93.75" y2="62.5" id="line_162" class="elevation" />
<line x1="93.75" y1="62.5" x2="93.75" y2="93.75" id="line_163" class="elevation" />
<line x1="31.25" y1="187.5" x2="31.25" y2="218.75" id="line_164" class="elevation" />
<line x1="62.5" y1="218.75" x2="31.25" y2="218.75" id="line_165" class="elevation" />
<line x1="62.5" y1="187.5" x2="62.5" y2="218.75" id="line_166" class="elevation" />
<line x1="62.5" y1="187.5" x2="31.25" y2="187.5" id="line_167" class="elevation" />
<line x1="234.375" y1="343.75" x2="203.125" y2="343.75" id="line_178" class="elevation" />
<line x1="203.125" y1="250.0" x2="156.25" y2="250.0" id="line_180" class="elevation" />
<line x1="125.0" y1="312.5" x2="156.25" y2="343.75" id="line_182" class="elevation" />
<line x1="156.25" y1="250.0" x2="125.0" y2="281.25" id="line_183" class="elevation" />
<line x1="109.375" y1="31.25" x2="125.0" y2="31.25" id="line_191" class="elevation" />
<line x1="-178.22265625" y1="401.85546875" x2="-189.88037109375" y2="390.777587890625" id="line_195" class="elevation" />
<line x1="-243.896484375" y1="234.283447265625" x2="-242.1875" y2="218.75" id="line_200" class="elevation" />
<line x1="156.25" y1="406.25" x2="125.0" y2="406.25" id="line_209" class="elevation" />
<line x1="125.0" y1="406.25" x2="125.0" y2="468.75" id="line_212" class="elevation" />
<line x1="-62.5" y1="500.0" x2="-78.125" y2="500.0" id="line_213" class="elevation" />
<line x1="-31.25" y1="500.0" x2="-46.875" y2="500.0" id="line_214" class="elevation" />
<line x1="-31.25" y1="500.0" x2="-15.625" y2="500.0" id="line_215" class="elevation" />
<line x1="-15.625" y1="500.0" x2="0.0" y2="500.0" id="line_216" class="elevation" />
<line x1="0.0" y1="500.0" x2="15.625" y2="500.0" id="line_217" class="elevation" />
<line x1="15.625" y1="500.0" x2="31.25" y2="500.0" id="line_218" class="elevation" />
<line x1="31.25" y1="531.25" x2="31.25" y2="500.0" id="line_219" class="elevation" />
<line x1="-31.25" y1="468.75" x2="-31.25" y2="500.0" id="line_229" class="elevation" />
<line x1="62.5" y1="468.75" x2="-31.25" y2="468.75" id="line_230" class="elevation" />
<line x1="31.25" y1="500.0" x2="62.5" y2="500.0" id="line_234" class="elevation" />
<line x1="62.5" y1="500.0" x2="62.5" y2="484.375" id="line_235" class="elevation" />
<line x1="156.25" y1="468.75" x2="125.0" y2="468.75" id="line_238" class="elevation" />
<line x1="-78.125" y1="531.25" x2="-78.125" y2="500.0" id="line_241" class="elevation" />
<line x1="-46.875" y1="500.0" x2="-62.5" y2="500.0" id="line_242" class="elevation" />
<line x1="-62.5" y1="531.25" x2="-62.5" y2="500.0" id="line_243" class="elevation" />
<line x1="-46.875" y1="531.25" x2="-46.875" y2="500.0" id="line_244" class="elevation" />
<line x1="-31.25" y1="531.25" x2="-31.25" y2="500.0" id="line_245" class="elevation" />
<line x1="-15.625" y1="531.25" x2="-15.625" y2="500.0" id="line_246" class="elevation" />
<line x1="0.0" y1="531.25" x2="0.0" y2="500.0" id="line_247" class="elevation" />
<line x1="15.625" y1="531.25" x2="15.625" y2="500.0" id="line_248" class="elevation" />
<line x1="-78.125" y1="500.0" x2="-78.125" y2="437.5" id="line_250" class="elevation" />
<line x1="156.25" y1="375.0" x2="156.25" y2="390.625" id="line_255" class="elevation" />
<!-- end group: "border_elevation" -->
</g>
<g id="border_solid">
<line x1="-206.54296875" y1="-172.8515625" x2="-112.79296875" y2="-172.8515625" id="line_0" class="solid" />
<line x1="-112.79296875" y1="-172.8515625" x2="-112.79296875" y2="-110.3515625" id="line_1" class="solid" />
<line x1="-112.79296875" y1="-110.3515625" x2="-206.54296875" y2="-110.3515625" id="line_2" class="solid" />
<line x1="-206.54296875" y1="-110.3515625" x2="-206.54296875" y2="-172.8515625" id="line_3" class="solid" />
<line x1="-109.375" y1="62.5" x2="-78.125" y2="62.5" id="line_4" class="solid" />
<line x1="-78.125" y1="62.5" x2="-78.125" y2="265.625" id="line_5" class="solid" />
<line x1="-250.0" y1="281.25" x2="-125.0" y2="281.25" id="line_6" class="solid" />
<line x1="-109.375" y1="62.5" x2="-109.375" y2="265.625" id="line_8" class="solid" />
<line x1="-250.0" y1="312.5" x2="-125.0" y2="312.5" id="line_10" class="solid" />
<line x1="-125.0" y1="312.5" x2="-125.0" y2="281.25" id="line_11" class="solid" />
<line x1="-109.375" y1="437.5" x2="-109.375" y2="328.125" id="line_12" class="solid" />
<line x1="-78.125" y1="328.125" x2="-109.375" y2="328.125" id="line_14" class="solid" />
<line x1="16.11328125" y1="312.5" x2="-62.5" y2="312.5" id="line_15" class="solid" />
<line x1="16.11328125" y1="281.25" x2="-62.5" y2="281.25" id="line_17" class="solid" />
<line x1="-109.375" y1="265.625" x2="-78.125" y2="265.625" id="line_19" class="solid" />
<line x1="125.0" y1="93.75" x2="125.0" y2="156.25" id="line_22" class="solid" />
<line x1="-250.0" y1="312.5" x2="-250.0" y2="281.25" id="line_24" class="solid" />
<line x1="-250.0" y1="312.5" x2="-265.625" y2="312.5" id="line_25" class="solid" />
<line x1="-265.625" y1="312.5" x2="-265.625" y2="281.25" id="line_26" class="solid" />
<line x1="-281.25" y1="281.25" x2="-265.625" y2="281.25" id="line_27" class="solid" />
<line x1="-281.25" y1="312.5" x2="-281.25" y2="281.25" id="line_28" class="solid" />
<line x1="-265.625" y1="312.5" x2="-281.25" y2="312.5" id="line_29" class="solid" />
<line x1="-265.625" y1="281.25" x2="-250.0" y2="281.25" id="line_30" class="solid" />
<line x1="-297.2412109375" y1="322.3876953125" x2="-297.2412109375" y2="338.0126953125" id="line_31" class="solid" />
<line x1="-297.2412109375" y1="353.6376953125" x2="-281.6162109375" y2="353.6376953125" id="line_32" class="solid" />
<line x1="-281.6162109375" y1="353.6376953125" x2="-281.6162109375" y2="384.8876953125" id="line_33" class="solid" />
<line x1="-344.1162109375" y1="384.8876953125" x2="-344.1162109375" y2="353.6376953125" id="line_38" class="solid" />
<line x1="-344.1162109375" y1="353.6376953125" x2="-328.4912109375" y2="353.6376953125" id="line_39" class="solid" />
<line x1="-281.6162109375" y1="384.8876953125" x2="-281.6162109375" y2="416.1376953125" id="line_42" class="solid" />
<line x1="-344.1162109375" y1="416.1376953125" x2="-344.1162109375" y2="384.8876953125" id="line_45" class="solid" />
<line x1="-328.4912109375" y1="353.6376953125" x2="-328.4912109375" y2="338.0126953125" id="line_72" class="solid" />
<line x1="-281.25" y1="312.5" x2="-297.2412109375" y2="322.3876953125" id="line_73" class="solid" />
<line x1="-328.4912109375" y1="322.3876953125" x2="-297.2412109375" y2="322.3876953125" id="line_74" class="solid" />
<line x1="-405.609130859375" y1="427.398681640625" x2="-344.1162109375" y2="416.1376953125" id="line_77" class="solid" />
<line x1="-461.944580078125" y1="454.4677734375" x2="-405.609130859375" y2="427.398681640625" id="line_78" class="solid" />
<line x1="-505.706787109375" y1="499.1455078125" x2="-461.944580078125" y2="454.4677734375" id="line_79" class="solid" />
<line x1="-527.7099609375" y1="557.647705078125" x2="-505.706787109375" y2="499.1455078125" id="line_80" class="solid" />
<line x1="-534.881591796875" y1="619.7509765625" x2="-527.7099609375" y2="557.647705078125" id="line_81" class="solid" />
<line x1="-529.205322265625" y1="682.0068359375" x2="-534.881591796875" y2="619.7509765625" id="line_82" class="solid" />
<line x1="-509.521484375" y1="741.3330078125" x2="-529.205322265625" y2="682.0068359375" id="line_83" class="solid" />
<line x1="-469.482421875" y1="789.337158203125" x2="-509.521484375" y2="741.3330078125" id="line_84" class="solid" />
<line x1="-415.4052734375" y1="820.709228515625" x2="-469.482421875" y2="789.337158203125" id="line_85" class="solid" />
<line x1="-336.3037109375" y1="838.0126953125" x2="-415.4052734375" y2="820.709228515625" id="line_86" class="solid" />
<line x1="-233.245849609375" y1="827.63671875" x2="-289.4287109375" y2="838.0126953125" id="line_88" class="solid" />
<line x1="-182.037353515625" y1="791.839599609375" x2="-233.245849609375" y2="827.63671875" id="line_89" class="solid" />
<line x1="-144.256591796875" y1="741.3330078125" x2="-182.037353515625" y2="791.839599609375" id="line_90" class="solid" />
<line x1="-124.3896484375" y1="682.0068359375" x2="-144.256591796875" y2="741.3330078125" id="line_91" class="solid" />
<line x1="-124.3896484375" y1="619.7509765625" x2="-124.3896484375" y2="682.0068359375" id="line_92" class="solid" />
<line x1="-129.08935546875" y1="557.647705078125" x2="-124.3896484375" y2="619.7509765625" id="line_93" class="solid" />
<line x1="-141.571044921875" y1="499.1455078125" x2="-129.08935546875" y2="557.647705078125" id="line_94" class="solid" />
<line x1="-186.309814453125" y1="454.4677734375" x2="-141.571044921875" y2="499.1455078125" id="line_95" class="solid" />
<line x1="-242.279052734375" y1="427.398681640625" x2="-186.309814453125" y2="454.4677734375" id="line_96" class="solid" />
<line x1="-281.6162109375" y1="416.1376953125" x2="-242.279052734375" y2="427.398681640625" id="line_97" class="solid" />
<line x1="-336.3037109375" y1="877.0751953125" x2="-336.3037109375" y2="838.0126953125" id="line_100" class="solid" />
<line x1="-289.4287109375" y1="877.0751953125" x2="-336.3037109375" y2="877.0751953125" id="line_101" class="solid" />
<line x1="-289.4287109375" y1="838.0126953125" x2="-289.4287109375" y2="877.0751953125" id="line_102" class="solid" />
<line x1="-109.375" y1="437.5" x2="-152.496337890625" y2="419.097900390625" id="line_109" class="solid" />
<line x1="-152.496337890625" y1="419.097900390625" x2="-178.22265625" y2="401.85546875" id="line_110" class="solid" />
<line x1="-189.88037109375" y1="390.777587890625" x2="-219.970703125" y2="354.827880859375" id="line_111" class="solid" />
<line x1="-219.970703125" y1="354.827880859375" x2="-250.0" y2="312.5" id="line_112" class="solid" />
<line x1="-250.0" y1="281.25" x2="-243.896484375" y2="234.283447265625" id="line_113" class="solid" />
<line x1="-242.1875" y1="218.75" x2="-220.3369140625" y2="160.70556640625" id="line_114" class="solid" />
<line x1="-220.3369140625" y1="160.70556640625" x2="-184.63134765625" y2="109.375" id="line_115" class="solid" />
<line x1="-184.63134765625" y1="109.375" x2="-134.21630859375" y2="72.44873046875" id="line_116" class="solid" />
<line x1="-134.21630859375" y1="72.44873046875" x2="-109.375" y2="62.5" id="line_117" class="solid" />
<line x1="-109.375" y1="62.5" x2="-109.375" y2="31.25" id="line_118" class="solid" />
<line x1="-109.375" y1="-93.75" x2="-78.125" y2="-93.75" id="line_119" class="solid" />
<line x1="-78.125" y1="-93.75" x2="-78.125" y2="-78.125" id="line_120" class="solid" />
<line x1="-78.125" y1="-78.125" x2="-78.125" y2="-62.5" id="line_121" class="solid" />
<line x1="-109.375" y1="-78.125" x2="-109.375" y2="-93.75" id="line_122" class="solid" />
<line x1="-109.375" y1="-62.5" x2="-109.375" y2="-78.125" id="line_124" class="solid" />
<line x1="-78.125" y1="-62.5" x2="-78.125" y2="-46.875" id="line_125" class="solid" />
<line x1="-78.125" y1="-46.875" x2="-78.125" y2="-31.25" id="line_127" class="solid" />
<line x1="-109.375" y1="-46.875" x2="-109.375" y2="-62.5" id="line_128" class="solid" />
<line x1="-109.375" y1="-31.25" x2="-109.375" y2="-46.875" id="line_130" class="solid" />
<line x1="-78.125" y1="-31.25" x2="-78.125" y2="-15.625" id="line_131" class="solid" />
<line x1="-78.125" y1="-15.625" x2="-78.125" y2="0.0" id="line_133" class="solid" />
<line x1="-109.375" y1="-15.625" x2="-109.375" y2="-31.25" id="line_134" class="solid" />
<line x1="-109.375" y1="0.0" x2="-109.375" y2="-15.625" id="line_136" class="solid" />
<line x1="-78.125" y1="0.0" x2="-78.125" y2="15.625" id="line_137" class="solid" />
<line x1="-109.375" y1="15.625" x2="-109.375" y2="0.0" id="line_139" class="solid" />
<line x1="-109.375" y1="31.25" x2="-109.375" y2="15.625" id="line_140" class="solid" />
<line x1="-78.125" y1="31.25" x2="-62.5" y2="31.25" id="line_143" class="solid" />
<line x1="-62.5" y1="31.25" x2="-46.875" y2="31.25" id="line_146" class="solid" />
<line x1="-46.875" y1="31.25" x2="-31.25" y2="31.25" id="line_151" class="solid" />
<line x1="-31.25" y1="31.25" x2="-15.625" y2="31.25" id="line_152" class="solid" />
<line x1="-15.625" y1="31.25" x2="0.0" y2="31.25" id="line_157" class="solid" />
<line x1="0.0" y1="31.25" x2="15.625" y2="31.25" id="line_158" class="solid" />
<line x1="125.0" y1="31.25" x2="125.0" y2="93.75" id="line_161" class="solid" />
<line x1="125.0" y1="156.25" x2="153.594970703125" y2="168.8232421875" id="line_172" class="solid" />
<line x1="153.594970703125" y1="168.8232421875" x2="179.290771484375" y2="186.5234375" id="line_173" class="solid" />
<line x1="179.290771484375" y1="186.5234375" x2="197.57080078125" y2="211.822509765625" id="line_174" class="solid" />
<line x1="197.57080078125" y1="211.822509765625" x2="203.125" y2="250.0" id="line_175" class="solid" />
<line x1="203.125" y1="250.0" x2="234.375" y2="250.0" id="line_176" class="solid" />
<line x1="234.375" y1="250.0" x2="234.375" y2="343.75" id="line_177" class="solid" />
<line x1="203.125" y1="343.75" x2="156.25" y2="343.75" id="line_181" class="solid" />
<line x1="125.0" y1="281.25" x2="125.0" y2="312.5" id="line_184" class="solid" />
<line x1="16.11328125" y1="281.25" x2="125.0" y2="281.25" id="line_185" class="solid" />
<line x1="125.0" y1="312.5" x2="16.11328125" y2="312.5" id="line_186" class="solid" />
<line x1="125.0" y1="23.4375" x2="125.0" y2="31.25" id="line_188" class="solid" />
<line x1="109.375" y1="23.4375" x2="125.0" y2="23.4375" id="line_189" class="solid" />
<line x1="109.375" y1="31.25" x2="109.375" y2="23.4375" id="line_190" class="solid" />
<line x1="15.625" y1="31.25" x2="109.375" y2="31.25" id="line_192" class="solid" />
<line x1="-195.3125" y1="398.4375" x2="-189.88037109375" y2="390.777587890625" id="line_193" class="solid" />
<line x1="-184.08203125" y1="409.1796875" x2="-195.3125" y2="398.4375" id="line_194" class="solid" />
<line x1="-178.22265625" y1="401.85546875" x2="-184.08203125" y2="409.1796875" id="line_196" class="solid" />
<line x1="-250.0" y1="218.75" x2="-242.1875" y2="218.75" id="line_198" class="solid" />
<line x1="-250.0" y1="234.375" x2="-250.0" y2="218.75" id="line_199" class="solid" />
<line x1="-243.896484375" y1="234.283447265625" x2="-250.0" y2="234.375" id="line_201" class="solid" />
<line x1="-62.5" y1="281.25" x2="-62.5" y2="312.5" id="line_204" class="solid" />
<line x1="156.25" y1="343.75" x2="156.25" y2="375.0" id="line_205" class="solid" />
<line x1="156.25" y1="375.0" x2="164.0625" y2="375.0" id="line_206" class="solid" />
<line x1="164.0625" y1="375.0" x2="164.0625" y2="390.625" id="line_207" class="solid" />
<line x1="164.0625" y1="390.625" x2="156.25" y2="390.625" id="line_208" class="solid" />
<line x1="62.5" y1="468.75" x2="62.5" y2="484.375" id="line_210" class="solid" />
<line x1="125.0" y1="468.75" x2="62.5" y2="468.75" id="line_211" class="solid" />
<line x1="31.25" y1="531.25" x2="15.625" y2="531.25" id="line_220" class="solid" />
<line x1="15.625" y1="531.25" x2="0.0" y2="531.25" id="line_221" class="solid" />
<line x1="0.0" y1="531.25" x2="-15.625" y2="531.25" id="line_222" class="solid" />
<line x1="-15.625" y1="531.25" x2="-31.25" y2="531.25" id="line_223" class="solid" />
<line x1="-31.25" y1="531.25" x2="-46.875" y2="531.25" id="line_224" class="solid" />
<line x1="-46.875" y1="531.25" x2="-62.5" y2="531.25" id="line_225" class="solid" />
<line x1="-62.5" y1="531.25" x2="-78.125" y2="531.25" id="line_226" class="solid" />
<line x1="-78.125" y1="531.25" x2="-109.375" y2="531.25" id="line_227" class="solid" />
<line x1="-109.375" y1="531.25" x2="-109.375" y2="500.0" id="line_228" class="solid" />
<line x1="62.5" y1="484.375" x2="125.0" y2="484.375" id="line_231" class="solid" />
<line x1="125.0" y1="484.375" x2="125.0" y2="468.75" id="line_232" class="solid" />
<line x1="156.25" y1="390.625" x2="156.25" y2="406.25" id="line_233" class="solid" />
<line x1="85.9375" y1="531.25" x2="31.25" y2="531.25" id="line_236" class="solid" />
<line x1="156.25" y1="468.75" x2="156.25" y2="531.25" id="line_237" class="solid" />
<line x1="-109.375" y1="500.0" x2="-109.375" y2="437.5" id="line_249" class="solid" />
<line x1="-78.125" y1="328.125" x2="-78.125" y2="437.5" id="line_252" class="solid" />
<line x1="-78.125" y1="437.5" x2="-109.375" y2="437.5" id="line_253" class="solid" />
<line x1="156.25" y1="406.25" x2="156.25" y2="468.75" id="line_256" class="solid" />
<line x1="156.25" y1="531.25" x2="85.9375" y2="531.25" id="line_258" class="solid" />
<line x1="-328.4912109375" y1="338.0126953125" x2="-328.4912109375" y2="322.3876953125" id="line_260" class="solid" />
<line x1="-297.2412109375" y1="338.0126953125" x2="-297.2412109375" y2="353.6376953125" id="line_261" class="solid" />
<line x1="-297.2412109375" y1="338.0126953125" x2="-328.4912109375" y2="338.0126953125" id="line_262" class="solid" />
<line x1="-78.125" y1="15.625" x2="-78.125" y2="31.25" id="line_265" class="solid" />
<line x1="-328.4912109375" y1="322.3876953125" x2="-328.125" y2="281.25" id="line_267" class="solid" />
<line x1="-328.125" y1="281.25" x2="-281.25" y2="281.25" id="line_268" class="solid" />
<line x1="203.125" y1="363.28125" x2="203.125" y2="343.75" id="line_269" class="solid" />
<line x1="234.375" y1="363.28125" x2="203.125" y2="363.28125" id="line_270" class="solid" />
<line x1="234.375" y1="343.75" x2="234.375" y2="363.28125" id="line_271" class="solid" />
<!-- end group: "border_solid" -->
</g>
<!-- end group: "borders" -->
</g>
<g id="panel_platform_switch_lines">
<g id="panel_platform_switch_lines_s75">
<g id="panel_platform_switch_line_group_poly_s75_p2">
<line x1="-189.697265625" y1="403.80859375" x2="-93.75" y2="382.8125" id="panel_platform_switch_border_s75_p2" class="platform_switch_border" />
<use xlink:href="../resources/svg/common.svg#arrow" x="-93.75" y="382.8125" id="panel_platform_switch_head_s75_p2" class="platform_switch_line" transform="rotate(-12.343435114067818 -93.75 382.8125)" />
<line x1="-189.697265625" y1="403.80859375" x2="-93.75" y2="382.8125" id="panel_platform_switch_line_s75_p2" class="platform_switch_line" />
<!-- end group: "panel_platform_switch_line_group_poly_s75_p2" -->
</g>
<!-- end group: "panel_platform_switch_lines_s75" -->
</g>
<g id="panel_platform_switch_lines_s147">
<g id="panel_platform_switch_line_group_poly_s147_p9">
<line x1="-250.0" y1="226.5625" x2="-93.75" y2="164.0625" id="panel_platform_switch_border_s147_p9" class="platform_switch_border" />
<use xlink:href="../resources/svg/common.svg#arrow" x="-93.75" y="164.0625" id="panel_platform_switch_head_s147_p9" class="platform_switch_line" transform="rotate(-21.80140948635181 -93.75 164.0625)" />
<line x1="-250.0" y1="226.5625" x2="-93.75" y2="164.0625" id="panel_platform_switch_line_s147_p9" class="platform_switch_line" />
<!-- end group: "panel_platform_switch_line_group_poly_s147_p9" -->
</g>
<!-- end group: "panel_platform_switch_lines_s147" -->
</g>
<g id="panel_platform_switch_lines_s173">
<g id="panel_platform_switch_line_group_poly_s173_p32">
<line x1="164.0625" y1="382.8125" x2="-273.4375" y2="296.875" id="panel_platform_switch_border_s173_p32" class="platform_switch_border" />
<use xlink:href="../resources/svg/common.svg#arrow" x="-273.4375" y="296.875" id="panel_platform_switch_head_s173_p32" class="platform_switch_line" transform="rotate(-168.8869594640517 -273.4375 296.875)" />
<line x1="164.0625" y1="382.8125" x2="-273.4375" y2="296.875" id="panel_platform_switch_line_s173_p32" class="platform_switch_line" />
<!-- end group: "panel_platform_switch_line_group_poly_s173_p32" -->
</g>
<!-- end group: "panel_platform_switch_lines_s173" -->
</g>
<!-- end group: "panel_platform_switch_lines" -->
</g>
<g id="panel_tag_switch_lines">
<g id="panel_tag_switch_lines_s178">
<g id="panel_tag_switch_line_group_poly_s178_p5">
<line x1="117.1875" y1="23.4375" x2="-187.5" y2="296.875" id="panel_tag_switch_border_s178_p5" class="tag_switch_border" />
<use xlink:href="../resources/svg/common.svg#arrow" x="-187.5" y="296.875" id="panel_tag_switch_head_s178_p5" class="tag_switch_line" transform="rotate(138.0940580589171 -187.5 296.875)" />
<line x1="117.1875" y1="23.4375" x2="-187.5" y2="296.875" id="panel_tag_switch_line_s178_p5" class="tag_switch_line" />
<!-- end group: "panel_tag_switch_line_group_poly_s178_p5" -->
</g>
<g id="panel_tag_switch_line_group_poly_s178_p32">
<line x1="117.1875" y1="23.4375" x2="-273.4375" y2="296.875" id="panel_tag_switch_border_s178_p32" class="tag_switch_border" />
<use xlink:href="../resources/svg/common.svg#arrow" x="-273.4375" y="296.875" id="panel_tag_switch_head_s178_p32" class="tag_switch_line" transform="rotate(145.00797980144134 -273.4375 296.875)" />
<line x1="117.1875" y1="23.4375" x2="-273.4375" y2="296.875" id="panel_tag_switch_line_s178_p32" class="tag_switch_line" />
<!-- end group: "panel_tag_switch_line_group_poly_s178_p32" -->
</g>
<!-- end group: "panel_tag_switch_lines_s178" -->
</g>
<!-- end group: "panel_tag_switch_lines" -->
</g>
<g id="objects">
<g id="objects_sound">
<use xlink:href="../resources/svg/common.svg#sound" x="-274.4140625" y="298.828125" id="object_7" class="sound sound-0" />
<use xlink:href="../resources/svg/common.svg#sound" x="-313.4765625" y="332.03125" id="object_8" class="sound sound-0" />
<use xlink:href="../resources/svg/common.svg#sound" x="-184.5703125" y="300.78125" id="object_9" class="sound sound-0" />
<use xlink:href="../resources/svg/common.svg#sound" x="-93.75" y="386.65771484375" id="object_10" class="sound sound-0" />
<use xlink:href="../resources/svg/common.svg#sound" x="-93.75" y="182.6171875" id="object_11" class="sound sound-0" />
<use xlink:href="../resources/svg/common.svg#sound" x="26.3671875" y="298.828125" id="object_12" class="sound sound-0" />
<use xlink:href="../resources/svg/common.svg#sound" x="-126.953125" y="264.6484375" id="object_13" class="sound sound-2" />
<use xlink:href="../resources/svg/common.svg#sound" x="-122.0703125" y="325.1953125" id="object_14" class="sound sound-2" />
<use xlink:href="../resources/svg/common.svg#sound" x="-63.4765625" y="329.1015625" id="object_15" class="sound sound-2" />
<use xlink:href="../resources/svg/common.svg#sound" x="-56.640625" y="256.8359375" id="object_16" class="sound sound-2" />
<use xlink:href="../resources/svg/common.svg#sound" x="78.125" y="83.984375" id="object_17" class="sound sound-2" />
<use xlink:href="../resources/svg/common.svg#sound" x="106.4453125" y="445.3125" id="object_18" class="sound sound-2" />
<use xlink:href="../resources/svg/common.svg#sound" x="-314.453125" y="397.27783203125" id="object_19" class="sound sound-2" />
<use xlink:href="../resources/svg/common.svg#sound" x="-346.74072265625" y="547.4853515625" id="object_20" class="sound sound-2" />
<use xlink:href="../resources/svg/common.svg#sound" x="-380.43212890625" y="762.26806640625" id="object_21" class="sound sound-2" />
<use xlink:href="../resources/svg/common.svg#sound" x="-248.47412109375" y="769.287109375" id="object_22" class="sound sound-2" />
<use xlink:href="../resources/svg/common.svg#sound" x="-258.30078125" y="519.4091796875" id="object_23" class="sound sound-2" />
<!-- end group: "objects_sound" -->
</g>
<g id="objects_object">
<use xlink:href="../resources/svg/common.svg#object" x="-156.25" y="154.296875" id="object_40" class="object object-10" />
<use xlink:href="../resources/svg/common.svg#object" x="5.859375" y="354.4921875" id="object_41" class="object object-11" />
<use xlink:href="../resources/svg/common.svg#object" x="35.15625" y="114.2578125" id="object_42" class="object object-11" />
<use xlink:href="../resources/svg/common.svg#object" x="-152.34375" y="366.2109375" id="object_43" class="object object-12" />
<use xlink:href="../resources/svg/common.svg#object" x="103.515625" y="209.9609375" id="object_44" class="object object-10" />
<use xlink:href="../resources/svg/common.svg#object" x="-213.8671875" y="262.6953125" id="object_45" class="object object-12" />
<use xlink:href="../resources/svg/common.svg#object" x="-145.5078125" y="204.1015625" id="object_46" class="object object-12" />
<use xlink:href="../resources/svg/common.svg#object" x="-61.5234375" y="401.3671875" id="object_47" class="object object-12" />
<use xlink:href="../resources/svg/common.svg#object" x="89.84375" y="350.5859375" id="object_48" class="object object-12" />
<use xlink:href="../resources/svg/common.svg#object" x="-10.7421875" y="128.90625" id="object_49" class="object object-10" />
<use xlink:href="../resources/svg/common.svg#object" x="-162.109375" y="342.7734375" id="object_50" class="object object-10" />
<use xlink:href="../resources/svg/common.svg#object" x="32.2265625" y="428.7109375" id="object_51" class="object object-10" />
<use xlink:href="../resources/svg/common.svg#object" x="-427.734375" y="479.4921875" id="object_52" class="object object-10" />
<use xlink:href="../resources/svg/common.svg#object" x="-429.6875" y="560.546875" id="object_53" class="object object-10" />
<use xlink:href="../resources/svg/common.svg#object" x="-429.6875" y="655.2734375" id="object_54" class="object object-10" />
<use xlink:href="../resources/svg/common.svg#object" x="-424.8046875" y="746.09375" id="object_55" class="object object-10" />
<use xlink:href="../resources/svg/common.svg#object" x="-212.890625" y="759.765625" id="object_56" class="object object-10" />
<use xlink:href="../resources/svg/common.svg#object" x="-213.8671875" y="647.4609375" id="object_57" class="object object-10" />
<use xlink:href="../resources/svg/common.svg#object" x="-217.7734375" y="562.5" id="object_58" class="object object-10" />
<use xlink:href="../resources/svg/common.svg#object" x="-218.75" y="475.5859375" id="object_59" class="object object-10" />
<!-- end group: "objects_object" -->
</g>
<g id="objects_item">
<use xlink:href="../resources/svg/common.svg#item" x="-110.3515625" y="279.296875" id="object_1" class="item item-7" />
<use xlink:href="../resources/svg/common.svg#item" x="-78.125" y="315.4296875" id="object_2" class="item item-23" />
<use xlink:href="../resources/svg/common.svg#item" x="-79.1015625" y="282.2265625" id="object_3" class="item item-23" />
<use xlink:href="../resources/svg/common.svg#item" x="-112.3046875" y="315.4296875" id="object_4" class="item item-23" />
<use xlink:href="../resources/svg/common.svg#item" x="-91.796875" y="297.8515625" id="object_5" class="item item-5" />
<use xlink:href="../resources/svg/common.svg#item" x="109.375" y="135.7421875" id="object_24" class="item item-19" />
<!-- end group: "objects_item" -->
</g>
<g id="objects_monster">
<use xlink:href="../resources/svg/common.svg#monster" x="48.828125" y="486.328125" id="object_6" class="monster monster-25" transform="rotate(241.875 48.828125 486.328125)" />
<use xlink:href="../resources/svg/common.svg#monster" x="53.192138671875" y="384.521484375" id="object_32" class="monster monster-1" transform="rotate(240.46875 53.192138671875 384.521484375)" />
<use xlink:href="../resources/svg/common.svg#monster" x="-39.093017578125" y="429.38232421875" id="object_33" class="monster monster-1" transform="rotate(40.78125 -39.093017578125 429.38232421875)" />
<use xlink:href="../resources/svg/common.svg#monster" x="-187.1337890625" y="343.505859375" id="object_34" class="monster monster-1" transform="rotate(333.984375 -187.1337890625 343.505859375)" />
<use xlink:href="../resources/svg/common.svg#monster" x="-169.189453125" y="246.734619140625" id="object_35" class="monster monster-1" transform="rotate(333.984375 -169.189453125 246.734619140625)" />
<use xlink:href="../resources/svg/common.svg#monster" x="-48.065185546875" y="156.3720703125" id="object_36" class="monster monster-1" transform="rotate(77.34375 -48.065185546875 156.3720703125)" />
<use xlink:href="../resources/svg/common.svg#monster" x="71.77734375" y="124.969482421875" id="object_37" class="monster monster-1" transform="rotate(147.65625 71.77734375 124.969482421875)" />
<use xlink:href="../resources/svg/common.svg#monster" x="117.279052734375" y="350.555419921875" id="object_38" class="monster monster-1" transform="rotate(219.375 117.279052734375 350.555419921875)" />
<use xlink:href="../resources/svg/common.svg#monster" x="-15.380859375" y="381.9580078125" id="object_39" class="monster monster-1" transform="rotate(310.78125 -15.380859375 381.9580078125)" />
<!-- end group: "objects_monster" -->
</g>
<g id="objects_player">
<use xlink:href="../resources/svg/common.svg#monster" x="-94.7265625" y="270.5078125" id="object_0" class="player" transform="rotate(272.8125 -94.7265625 270.5078125)" />
<use xlink:href="../resources/svg/common.svg#monster" x="-111.51123046875" y="276.214599609375" id="object_25" class="player" transform="rotate(225.703125 -111.51123046875 276.214599609375)" />
<use xlink:href="../resources/svg/common.svg#monster" x="-119.20166015625" y="296.08154296875" id="object_26" class="player" transform="rotate(178.59375 -119.20166015625 296.08154296875)" />
<use xlink:href="../resources/svg/common.svg#monster" x="-111.51123046875" y="319.793701171875" id="object_27" class="player" transform="rotate(136.40625 -111.51123046875 319.793701171875)" />
<use xlink:href="../resources/svg/common.svg#monster" x="-94.207763671875" y="324.27978515625" id="object_28" class="player" transform="rotate(88.59375 -94.207763671875 324.27978515625)" />
<use xlink:href="../resources/svg/common.svg#monster" x="-74.3408203125" y="317.87109375" id="object_29" class="player" transform="rotate(41.484375 -74.3408203125 317.87109375)" />
<use xlink:href="../resources/svg/common.svg#monster" x="-67.93212890625" y="296.722412109375" id="object_30" class="player" />
<use xlink:href="../resources/svg/common.svg#monster" x="-74.3408203125" y="277.496337890625" id="object_31" class="player" transform="rotate(303.75 -74.3408203125 277.496337890625)" />
<!-- end group: "objects_player" -->
</g>
<!-- end group: "objects" -->
</g>
<g id="panels">
<use xlink:href="../resources/svg/common.svg#panel" x="-189.697265625" y="403.80859375" id="side_75" class="panel-platform_switch" onmouseover="m_over('side_75');" onmouseout="m_out('side_75');" />
<use xlink:href="../resources/svg/common.svg#panel" x="-250.0" y="226.5625" id="side_147" class="panel-platform_switch" onmouseover="m_over('side_147');" onmouseout="m_out('side_147');" />
<use xlink:href="../resources/svg/common.svg#panel" x="164.0625" y="382.8125" id="side_173" class="panel-platform_switch" onmouseover="m_over('side_173');" onmouseout="m_out('side_173');" />
<use xlink:href="../resources/svg/common.svg#panel" x="117.1875" y="23.4375" id="side_178" class="panel-tag_switch" onmouseover="m_over('side_178');" onmouseout="m_out('side_178');" />
<use xlink:href="../resources/svg/common.svg#panel" x="218.75" y="363.28125" id="side_241" class="panel-computer_terminal" onmouseover="m_over('side_241');" onmouseout="m_out('side_241');" />
<!-- end group: "panels" -->
</g>

<script xlink:href="../resources/js/level.js" ></script>
</svg>