<?xml version="1.0" encoding="UTF-8"?>
<!-- generated by map2svg: github.com/fracai/marathon-svg -->
<svg xmlns="http://www.w3.org/2000/svg" xmlns:xlink="http://www.w3.org/1999/xlink" version="1.1"
    viewBox="-440.12451171875 -379.0283203125 1037.78076171875 816.5283203125">
<link xmlns="http://www.w3.org/1999/xhtml" rel="stylesheet" href="../resources/css/styles.css" type="text/css" />
<style id="dynamic-style" />
<g id="background-grid">
<defs>
<pattern id="grid_minor" width="3.125" height="3.125" patternUnits="userSpaceOnUse">
<path d="M 3.125 0 L 0 0 0 3.125" fill="none" class="grid_minor" />
</pattern>
<pattern id="grid_major" width="31.25" height="31.25" patternUnits="userSpaceOnUse">
<rect width="31.25" height="31.25" fill="url(#grid_minor)"/>
<path d="M 31.25 0 L 0 0 0 31.25" fill="none" class="grid_major" />
</pattern>
</defs>
<rect x="-1000" y="-1000" width="2000" height="2000" fill="url(#grid_major)" />
<line x1="0" y1="1000" x2="0" y2="-1000" class="grid_origin" />
<line x1="1000" y1="0" x2="-1000" y2="0" class="grid_origin" />
<!-- end group: "background-grid" -->
</g>
<g id="polygons">
<polygon points="410.15625,218.75 402.34375,187.5 453.125,136.71875 472.65625,156.25" id="poly_48" class="plain" />
<polygon points="250.0,375.0 250.0,390.625 214.84375,406.25 214.84375,375.0 218.75,371.09375" id="poly_49" class="plain" />
<polygon points="214.84375,406.25 105.46875,388.671875 113.28125,359.375 214.84375,375.0" id="poly_50" class="plain" />
<polygon points="105.46875,388.671875 -61.5234375,316.40625 -47.8515625,290.0390625 113.28125,359.375" id="poly_51" class="plain" />
<polygon points="453.125,136.71875 460.9375,128.90625 480.46875,148.4375 472.65625,156.25" id="poly_52" class="plain" />
<polygon points="527.34375,101.5625 507.8125,82.03125 515.625,74.21875 535.15625,93.75" id="poly_56" class="teleporter" />
<polygon points="-61.5234375,316.40625 -91.796875,309.5703125 -83.49609375,287.59765625 -82.03125,285.15625 -65.4296875,263.671875 -47.8515625,290.0390625" id="poly_71" class="plain" />
<polygon points="285.64453125,194.3359375 297.8515625,167.96875 347.65625,179.6875 355.46875,187.5 347.65625,218.75" id="poly_121" class="plain" />
<polygon points="285.64453125,194.3359375 347.65625,218.75 335.9375,234.375 316.40625,257.8125 268.5546875,225.5859375" id="poly_122" class="plain" />
<polygon points="355.46875,187.5 402.34375,187.5 410.15625,218.75 347.65625,218.75" id="poly_123" class="plain" />
<polygon points="250.0,243.1640625 268.5546875,225.5859375 316.40625,257.8125 292.96875,281.25" id="poly_124" class="plain" />
<polygon points="225.5859375,259.765625 250.0,243.1640625 292.96875,281.25 269.53125,300.78125" id="poly_125" class="plain" />
<polygon points="191.40625,273.4375 225.5859375,259.765625 269.53125,300.78125 250.0,312.5 218.75,324.21875 210.9375,316.40625" id="poly_126" class="plain" />
<polygon points="218.75,324.21875 250.0,312.5 250.0,375.0 218.75,371.09375" id="poly_127" class="plain" />
<polygon points="316.40625,257.8125 335.9375,234.375 371.09375,269.53125 375.0,285.15625 363.28125,296.875 351.5625,292.96875" id="poly_128" class="plain" />
<polygon points="269.53125,300.78125 292.96875,281.25 328.125,316.40625 304.6875,335.9375" id="poly_129" class="plain" />
<polygon points="328.125,316.40625 332.03125,328.125 316.40625,343.75 304.6875,335.9375" id="poly_130" class="teleporter" />
<polygon points="-65.4296875,263.671875 -82.03125,285.15625 -105.46875,262.6953125 -85.9375,238.28125" id="poly_64" class="platform" />
<polygon points="-91.796875,309.5703125 -127.9296875,293.9453125 -110.3515625,269.53125 -83.49609375,287.59765625" id="poly_70" class="plain" />
<polygon points="480.46875,148.4375 460.9375,128.90625 507.8125,82.03125 527.34375,101.5625" id="poly_53" class="plain" />
<polygon points="460.9375,128.90625 410.15625,78.125 457.03125,31.25 507.8125,82.03125" id="poly_54" class="plain" />
<polygon points="480.46875,148.4375 527.34375,101.5625 566.40625,140.625 519.53125,187.5" id="poly_55" class="plain" />
<polygon points="64.94140625,181.640625 54.6875,170.41015625 47.36328125,160.64453125 41.015625,149.4140625 35.15625,138.671875 28.3203125,125.0 23.406982421875,112.274169921875 62.5,85.9375" id="poly_6" class="plain" />
<polygon points="119.62890625,227.5390625 108.3984375,222.16796875 98.14453125,213.37890625 86.9140625,203.125 76.66015625,193.359375 64.94140625,181.640625 62.5,85.9375 89.84375,54.6875" id="poly_12" class="plain" />
<polygon points="89.84375,54.6875 200.68359375,39.0625 214.84375,48.33984375 229.00390625,59.08203125 240.72265625,69.3359375 250.48828125,79.58984375 258.7890625,90.8203125 119.62890625,227.5390625" id="poly_116" class="plain" />
<polygon points="99.578857421875,8.758544921875 113.28125,8.30078125 130.37109375,10.25390625 148.4375,15.13671875 166.9921875,21.97265625 184.5703125,30.2734375 200.68359375,39.0625 89.84375,54.6875" id="poly_117" class="plain" />
<polygon points="258.7890625,90.8203125 283.69140625,55.17578125 298.828125,74.21875 308.59375,101.5625 309.5703125,135.7421875 297.8515625,167.96875 285.64453125,194.3359375" id="poly_118" class="plain" />
<polygon points="258.7890625,90.8203125 285.64453125,194.3359375 268.5546875,225.5859375 250.0,243.1640625 119.62890625,227.5390625" id="poly_119" class="plain" />
<polygon points="119.62890625,227.5390625 250.0,243.1640625 225.5859375,259.765625 191.40625,273.4375 153.3203125,280.2734375 122.0703125,282.2265625 81.54296875,273.92578125" id="poly_120" class="plain" />
<polygon points="250.48828125,79.58984375 272.94921875,42.48046875 283.69140625,55.17578125 258.7890625,90.8203125" id="poly_41" class="plain" />
<polygon points="81.54296875,273.92578125 64.453125,264.16015625 108.3984375,222.16796875 119.62890625,227.5390625" id="poly_47" class="plain" />
<polygon points="261.23046875,29.296875 272.94921875,42.48046875 250.48828125,79.58984375 240.72265625,69.3359375" id="poly_40" class="plain" />
<polygon points="64.453125,264.16015625 49.8046875,254.39453125 98.14453125,213.37890625 108.3984375,222.16796875" id="poly_46" class="plain" />
<polygon points="229.00390625,59.08203125 246.58203125,15.13671875 261.23046875,29.296875 240.72265625,69.3359375" id="poly_39" class="plain" />
<polygon points="49.8046875,254.39453125 36.62109375,243.1640625 86.9140625,203.125 98.14453125,213.37890625" id="poly_45" class="plain" />
<polygon points="36.62109375,243.1640625 23.4375,230.46875 76.66015625,193.359375 86.9140625,203.125" id="poly_8" class="plain" />
<polygon points="214.84375,48.33984375 230.95703125,2.9296875 246.58203125,15.13671875 229.00390625,59.08203125" id="poly_38" class="plain" />
<polygon points="23.4375,230.46875 13.18359375,218.75 64.94140625,181.640625 76.66015625,193.359375" id="poly_7" class="plain" />
<polygon points="200.68359375,39.0625 215.33203125,-8.30078125 230.95703125,2.9296875 214.84375,48.33984375" id="poly_21" class="plain" />
<polygon points="184.5703125,30.2734375 195.80078125,-19.53125 215.33203125,-8.30078125 200.68359375,39.0625" id="poly_20" class="plain" />
<polygon points="13.18359375,218.75 2.44140625,206.54296875 54.6875,170.41015625 64.94140625,181.640625" id="poly_44" class="plain" />
<polygon points="166.9921875,21.97265625 176.7578125,-28.80859375 195.80078125,-19.53125 184.5703125,30.2734375" id="poly_19" class="plain" />
<polygon points="2.44140625,206.54296875 -5.37109375,194.3359375 47.36328125,160.64453125 54.6875,170.41015625" id="poly_43" class="plain" />
<polygon points="-105.46875,262.6953125 -133.7890625,243.1640625 -113.28125,218.75 -85.9375,238.28125" id="poly_63" class="plain" />
<polygon points="-105.46875,262.6953125 -110.3515625,269.53125 -138.671875,249.0234375 -133.7890625,243.1640625" id="poly_68" class="plain" />
<polygon points="-110.3515625,269.53125 -127.9296875,293.9453125 -156.25,272.4609375 -138.671875,249.0234375" id="poly_69" class="plain" />
<polygon points="-5.37109375,194.3359375 -13.671875,179.6875 41.015625,149.4140625 47.36328125,160.64453125" id="poly_1" class="plain" />
<polygon points="148.4375,15.13671875 157.2265625,-34.66796875 176.7578125,-28.80859375 166.9921875,21.97265625" id="poly_18" class="plain" />
<polygon points="-12.6953125,196.2890625 -20.5078125,182.6171875 -13.671875,179.6875 -5.37109375,194.3359375" id="poly_2" class="plain" />
<polygon points="-85.9375,238.28125 -113.28125,218.75 -20.5078125,182.6171875 -12.6953125,196.2890625" id="poly_62" class="plain" />
<polygon points="-13.671875,179.6875 -20.99609375,164.55078125 35.15625,138.671875 41.015625,149.4140625" id="poly_0" class="plain" />
<polygon points="130.37109375,10.25390625 139.16015625,-40.0390625 157.2265625,-34.66796875 148.4375,15.13671875" id="poly_17" class="plain" />
<polygon points="113.28125,8.30078125 118.1640625,-42.96875 139.16015625,-40.0390625 130.37109375,10.25390625" id="poly_16" class="plain" />
<polygon points="-26.3671875,145.5078125 28.3203125,125.0 35.15625,138.671875 -20.99609375,164.55078125" id="poly_42" class="plain" />
<polygon points="28.3203125,125.0 -26.3671875,145.5078125 -31.25,125.0 23.406982421875,112.274169921875" id="poly_3" class="plain" />
<polygon points="113.28125,8.30078125 99.578857421875,8.758544921875 97.65625,-42.96875 118.1640625,-42.96875" id="poly_13" class="plain" />
<polygon points="57.6171875,3.90625 49.8046875,25.390625 29.296875,50.78125 0.0,71.2890625 -40.0390625,85.9375 -238.28125,-114.2578125 -216.796875,-156.982421875 -173.370361328125,-194.854736328125" id="poly_85" class="hill" />
<polygon points="57.6171875,3.90625 -173.370361328125,-194.854736328125 -122.0703125,-208.0078125 58.59375,-42.96875" id="poly_86" class="hill" />
<polygon points="-40.0390625,85.9375 -94.7265625,86.9140625 -152.34375,67.3828125 -197.265625,46.875 -231.4453125,9.765625 -246.09375,-35.15625 -248.53515625,-71.77734375 -238.28125,-114.2578125" id="poly_87" class="hill" />
<polygon points="58.59375,-42.96875 -122.0703125,-208.0078125 -62.5,-208.0078125 -3.90625,-183.59375 23.92578125,-164.0625 48.33984375,-131.8359375 57.6171875,-93.26171875" id="poly_88" class="hill" />
<polygon points="-271.514892578125,34.149169921875 -302.734375,41.015625 -320.3125,-25.390625 -290.069580078125,-30.303955078125" id="poly_24" class="plain" />
<polygon points="-62.530517578125,-247.100830078125 -128.936767578125,-247.100830078125 -164.0625,-296.875 -66.40625,-289.0625" id="poly_31" class="plain" />
<polygon points="-302.734375,41.015625 -327.1484375,76.171875 -360.3515625,62.5 -379.8828125,-17.578125 -361.328125,-44.921875 -320.3125,-25.390625" id="poly_65" class="plain" />
<polygon points="-379.8828125,-17.578125 -408.203125,-44.921875 -361.328125,-44.921875" id="poly_66" class="plain" />
<polygon points="-361.328125,-44.921875 -408.203125,-44.921875 -408.87451171875,-77.7587890625 -397.94921875,-78.125 -369.140625,-78.125 -360.16845703125,-77.7587890625" id="poly_67" class="plain" />
<polygon points="-360.595703125,-229.00390625 -369.62890625,-229.00390625 -399.4140625,-229.00390625 -408.87451171875,-229.00390625 -408.203125,-253.90625 -361.328125,-253.90625" id="poly_77" class="plain" />
<polygon points="-361.328125,-253.90625 -408.203125,-253.90625 -402.34375,-289.0625 -379.39453125,-288.665771484375 -364.227294921875,-273.92578125" id="poly_78" class="plain" />
<polygon points="-306.243896484375,-296.356201171875 -361.328125,-253.90625 -364.227294921875,-273.92578125 -338.37890625,-299.224853515625" id="poly_79" class="plain" />
<polygon points="-339.84375,-343.75 -353.546142578125,-314.453125 -379.39453125,-288.665771484375 -402.34375,-289.0625 -378.90625,-319.3359375" id="poly_80" class="plain" />
<polygon points="-306.243896484375,-296.356201171875 -338.37890625,-299.224853515625 -353.546142578125,-314.453125 -339.84375,-343.75 -306.15234375,-347.65625" id="poly_81" class="plain" />
<polygon points="-296.875,-296.2646484375 -306.243896484375,-296.356201171875 -306.15234375,-347.65625 -296.875,-347.2900390625 -296.875,-337.646484375 -296.875,-306.640625" id="poly_82" class="plain" />
<polygon points="-186.5234375,-347.65625 -132.8125,-343.75 -85.9375,-328.125 -66.40625,-289.0625 -164.0625,-296.875" id="poly_83" class="plain" />
<polygon points="-164.0625,-296.875 -199.0966796875,-296.08154296875 -199.21875,-308.59375 -199.21875,-335.9375 -198.974609375,-347.65625 -186.5234375,-347.65625" id="poly_84" class="plain" />
<polygon points="-360.16845703125,-77.7587890625 -369.140625,-78.125 -369.140625,-95.21484375 -360.53466796875,-95.21484375" id="poly_90" class="plain" />
<polygon points="-397.94921875,-78.125 -408.87451171875,-77.7587890625 -408.203125,-95.21484375 -397.94921875,-95.21484375" id="poly_91" class="plain" />
<polygon points="-369.140625,-95.21484375 -397.94921875,-95.21484375 -408.203125,-95.21484375 -408.416748046875,-122.039794921875 -398.4375,-122.0703125 -369.140625,-122.0703125 -361.328125,-122.0703125 -360.53466796875,-95.21484375" id="poly_92" class="plain" />
<polygon points="-361.328125,-122.0703125 -369.140625,-122.0703125 -369.140625,-140.13671875 -360.2294921875,-140.13671875" id="poly_94" class="plain" />
<polygon points="-398.4375,-122.0703125 -408.416748046875,-122.039794921875 -408.203125,-140.13671875 -398.4375,-140.13671875" id="poly_95" class="plain" />
<polygon points="-360.2294921875,-140.13671875 -369.140625,-140.13671875 -398.4375,-140.13671875 -408.203125,-140.13671875 -408.599853515625,-168.45703125 -398.4375,-168.45703125 -369.62890625,-168.45703125 -360.90087890625,-168.45703125" id="poly_96" class="plain" />
<polygon points="-360.90087890625,-168.45703125 -369.62890625,-168.45703125 -369.62890625,-185.546875 -360.107421875,-185.546875" id="poly_98" class="plain" />
<polygon points="-398.4375,-168.45703125 -408.599853515625,-168.45703125 -408.203125,-185.546875 -398.4375,-185.546875" id="poly_99" class="plain" />
<polygon points="-360.107421875,-185.546875 -369.62890625,-185.546875 -398.4375,-185.546875 -408.203125,-185.546875 -408.203125,-211.42578125 -399.4140625,-211.42578125 -369.62890625,-211.42578125 -361.083984375,-211.42578125" id="poly_100" class="plain" />
<polygon points="-361.083984375,-211.42578125 -369.62890625,-211.42578125 -369.62890625,-229.00390625 -360.595703125,-229.00390625" id="poly_102" class="plain" />
<polygon points="-399.4140625,-211.42578125 -408.203125,-211.42578125 -408.87451171875,-229.00390625 -399.4140625,-229.00390625" id="poly_103" class="plain" />
<polygon points="-277.83203125,-296.875 -296.875,-296.2646484375 -296.875,-306.640625 -277.83203125,-306.640625" id="poly_106" class="plain" />
<polygon points="-277.83203125,-337.646484375 -296.875,-337.646484375 -296.875,-347.2900390625 -277.83203125,-347.7783203125" id="poly_107" class="plain" />
<polygon points="-257.8125,-296.20361328125 -277.83203125,-296.875 -277.83203125,-306.640625 -277.83203125,-337.646484375 -277.83203125,-347.7783203125 -257.8125,-347.65625 -257.8125,-337.646484375 -257.8125,-306.396484375" id="poly_108" class="plain" />
<polygon points="-238.28125,-306.396484375 -237.97607421875,-296.08154296875 -257.8125,-296.20361328125 -257.8125,-306.396484375" id="poly_109" class="plain" />
<polygon points="-218.75,-308.59375 -218.75,-296.875 -237.97607421875,-296.08154296875 -238.28125,-306.396484375 -238.28125,-337.646484375 -237.97607421875,-347.7783203125 -218.75,-347.7783203125 -218.75,-335.9375" id="poly_111" class="plain" />
<polygon points="-238.28125,-337.646484375 -257.8125,-337.646484375 -257.8125,-347.65625 -237.97607421875,-347.7783203125" id="poly_112" class="plain" />
<polygon points="-218.75,-296.875 -218.75,-308.59375 -199.21875,-308.59375 -199.0966796875,-296.08154296875" id="poly_114" class="plain" />
<polygon points="-199.21875,-335.9375 -218.75,-335.9375 -218.75,-347.7783203125 -198.974609375,-347.65625" id="poly_115" class="plain" />
<polygon points="-369.140625,-78.125 -397.94921875,-78.125 -397.94921875,-95.21484375 -369.140625,-95.21484375" id="poly_89" class="plain" />
<polygon points="-369.140625,-122.0703125 -398.4375,-122.0703125 -398.4375,-140.13671875 -369.140625,-140.13671875" id="poly_93" class="plain" />
<polygon points="-369.62890625,-168.45703125 -398.4375,-168.45703125 -398.4375,-185.546875 -369.62890625,-185.546875" id="poly_97" class="plain" />
<polygon points="-369.62890625,-211.42578125 -399.4140625,-211.42578125 -399.4140625,-229.00390625 -369.62890625,-229.00390625" id="poly_101" class="plain" />
<polygon points="-379.39453125,-288.665771484375 -353.546142578125,-314.453125 -338.37890625,-299.224853515625 -364.227294921875,-273.92578125" id="poly_104" class="plain" />
<polygon points="-277.83203125,-306.640625 -296.875,-306.640625 -296.875,-337.646484375 -277.83203125,-337.646484375" id="poly_105" class="plain" />
<polygon points="-238.28125,-306.396484375 -257.8125,-306.396484375 -257.8125,-337.646484375 -238.28125,-337.646484375" id="poly_110" class="plain" />
<polygon points="-199.21875,-308.59375 -218.75,-308.59375 -218.75,-335.9375 -199.21875,-335.9375" id="poly_113" class="plain" />
<polygon points="23.406982421875,112.274169921875 -31.25,125.0 -40.0390625,85.9375 0.0,71.2890625" id="poly_4" class="plain" />
<polygon points="62.5,85.9375 23.406982421875,112.274169921875 0.0,71.2890625 29.296875,50.78125" id="poly_5" class="plain" />
<polygon points="-31.25,125.0 -101.593017578125,131.805419921875 -94.7265625,86.9140625 -40.0390625,85.9375" id="poly_9" class="plain" />
<polygon points="99.578857421875,8.758544921875 89.84375,54.6875 49.8046875,25.390625 57.6171875,3.90625" id="poly_10" class="plain" />
<polygon points="89.84375,54.6875 62.5,85.9375 29.296875,50.78125 49.8046875,25.390625" id="poly_11" class="plain" />
<polygon points="99.578857421875,8.758544921875 57.6171875,3.90625 58.59375,-42.96875 97.65625,-42.96875" id="poly_14" class="plain" />
<polygon points="97.65625,-42.96875 58.59375,-42.96875 57.6171875,-93.26171875 95.672607421875,-100.616455078125" id="poly_15" class="plain" />
<polygon points="-101.593017578125,131.805419921875 -171.905517578125,114.227294921875 -152.34375,67.3828125 -94.7265625,86.9140625" id="poly_22" class="plain" />
<polygon points="-171.905517578125,114.227294921875 -226.5625,83.984375 -197.265625,46.875 -152.34375,67.3828125" id="poly_23" class="plain" />
<polygon points="-231.4453125,9.765625 -271.514892578125,34.149169921875 -290.069580078125,-30.303955078125 -246.09375,-35.15625" id="poly_25" class="plain" />
<polygon points="-226.5625,83.984375 -271.514892578125,34.149169921875 -231.4453125,9.765625 -197.265625,46.875" id="poly_26" class="plain" />
<polygon points="-246.09375,-35.15625 -290.069580078125,-30.303955078125 -290.069580078125,-88.897705078125 -248.53515625,-71.77734375" id="poly_27" class="plain" />
<polygon points="-248.53515625,-71.77734375 -290.069580078125,-88.897705078125 -278.3203125,-141.6015625 -238.28125,-114.2578125" id="poly_28" class="plain" />
<polygon points="-173.370361328125,-194.854736328125 -207.03125,-190.4296875 -224.609375,-209.9609375 -189.483642578125,-231.475830078125" id="poly_29" class="plain" />
<polygon points="-173.370361328125,-194.854736328125 -189.483642578125,-231.475830078125 -128.936767578125,-247.100830078125 -122.0703125,-208.0078125" id="poly_30" class="plain" />
<polygon points="-62.5,-208.0078125 -122.0703125,-208.0078125 -128.936767578125,-247.100830078125 -62.530517578125,-247.100830078125" id="poly_32" class="plain" />
<polygon points="-3.90625,-183.59375 -62.5,-208.0078125 -62.530517578125,-247.100830078125 3.90625,-226.5625" id="poly_33" class="plain" />
<polygon points="23.92578125,-164.0625 -3.90625,-183.59375 3.90625,-226.5625 46.875,-199.21875" id="poly_35" class="plain" />
<polygon points="79.1015625,-152.34375 48.33984375,-131.8359375 23.92578125,-164.0625 46.875,-199.21875" id="poly_36" class="plain" />
<polygon points="95.672607421875,-100.616455078125 57.6171875,-93.26171875 48.33984375,-131.8359375 79.1015625,-152.34375" id="poly_37" class="plain" />
<polygon points="-216.796875,-156.982421875 -238.28125,-114.2578125 -278.3203125,-141.6015625 -249.0234375,-189.453125 -229.00390625,-169.43359375" id="poly_60" class="plain" />
<polygon points="-216.796875,-156.982421875 -229.00390625,-169.43359375 -207.03125,-190.4296875 -173.370361328125,-194.854736328125" id="poly_61" class="plain" />
<polygon points="-249.0234375,-189.453125 -224.609375,-209.9609375 -207.03125,-190.4296875 -229.00390625,-169.43359375" id="poly_58" class="plain" />
<polygon points="54.6875,-261.71875 58.59375,-269.53125 70.3125,-265.625 66.40625,-253.90625" id="poly_57" class="teleporter" />
<polygon points="50.78125,-273.4375 58.59375,-269.53125 54.6875,-261.71875 46.875,-265.625" id="poly_72" class="teleporter" />
<polygon points="39.0625,-277.34375 50.78125,-273.4375 46.875,-265.625 35.15625,-269.53125" id="poly_73" class="teleporter" />
<polygon points="39.0625,-277.34375 42.96875,-285.15625 54.6875,-289.0625 50.78125,-273.4375" id="poly_74" class="teleporter" />
<polygon points="54.6875,-289.0625 66.40625,-285.15625 58.59375,-269.53125 50.78125,-273.4375" id="poly_75" class="teleporter" />
<polygon points="66.40625,-285.15625 70.3125,-277.34375 70.3125,-265.625 58.59375,-269.53125" id="poly_76" class="teleporter" />
<polygon points="46.875,-199.21875 3.90625,-226.5625 15.625,-257.8125 35.15625,-269.53125 46.875,-265.625 54.6875,-261.71875 66.40625,-253.90625 66.40625,-226.5625" id="poly_34" class="plain" />
<polygon points="-249.0234375,-189.453125 -255.9814453125,-196.4111328125 -231.4453125,-216.6748046875 -224.609375,-209.9609375" id="poly_59" class="plain" />
<!-- end group: "polygons" -->
</g>
<g id="borders">
<g id="border_plain">
<line x1="23.406982421875" y1="112.274169921875" x2="0.0" y2="71.2890625" id="line_9" class="plain" />
<line x1="-31.25" y1="125.0" x2="-40.0390625" y2="85.9375" id="line_14" class="plain" />
<line x1="49.8046875" y1="25.390625" x2="89.84375" y2="54.6875" id="line_18" class="plain" />
<line x1="89.84375" y1="54.6875" x2="119.62890625" y2="227.5390625" id="line_19" class="plain" />
<line x1="57.6171875" y1="3.90625" x2="99.578857421875" y2="8.758544921875" id="line_22" class="plain" />
<line x1="58.59375" y1="-42.96875" x2="97.65625" y2="-42.96875" id="line_26" class="plain" />
<line x1="-101.593017578125" y1="131.805419921875" x2="-94.7265625" y2="86.9140625" id="line_37" class="plain" />
<line x1="-152.34375" y1="67.3828125" x2="-171.905517578125" y2="114.227294921875" id="line_39" class="plain" />
<line x1="-271.514892578125" y1="34.149169921875" x2="-231.4453125" y2="9.765625" id="line_43" class="plain" />
<line x1="-290.069580078125" y1="-30.303955078125" x2="-246.09375" y2="-35.15625" id="line_46" class="plain" />
<line x1="-248.53515625" y1="-71.77734375" x2="-290.069580078125" y2="-88.897705078125" id="line_48" class="plain" />
<line x1="-189.483642578125" y1="-231.475830078125" x2="-173.370361328125" y2="-194.854736328125" id="line_50" class="plain" />
<line x1="-128.936767578125" y1="-247.100830078125" x2="-122.0703125" y2="-208.0078125" id="line_55" class="plain" />
<line x1="-62.530517578125" y1="-247.100830078125" x2="-62.5" y2="-208.0078125" id="line_57" class="plain" />
<line x1="23.92578125" y1="-164.0625" x2="46.875" y2="-199.21875" id="line_61" class="plain" />
<line x1="57.6171875" y1="-93.26171875" x2="95.672607421875" y2="-100.616455078125" id="line_63" class="plain" />
<line x1="-3.90625" y1="-183.59375" x2="3.90625" y2="-226.5625" id="line_66" class="plain" />
<line x1="62.5" y1="85.9375" x2="64.94140625" y2="181.640625" id="line_108" class="plain" />
<line x1="410.15625" y1="218.75" x2="402.34375" y2="187.5" id="line_121" class="plain" />
<line x1="218.75" y1="371.09375" x2="250.0" y2="375.0" id="line_124" class="plain" />
<line x1="214.84375" y1="406.25" x2="214.84375" y2="375.0" id="line_128" class="plain" />
<line x1="105.46875" y1="388.671875" x2="113.28125" y2="359.375" id="line_131" class="plain" />
<line x1="453.125" y1="136.71875" x2="472.65625" y2="156.25" id="line_134" class="plain" />
<line x1="460.9375" y1="128.90625" x2="507.8125" y2="82.03125" id="line_138" class="plain" />
<line x1="527.34375" y1="101.5625" x2="480.46875" y2="148.4375" id="line_140" class="plain" />
<line x1="-173.370361328125" y1="-194.854736328125" x2="-207.03125" y2="-190.4296875" id="line_161" class="plain" />
<line x1="-216.796875" y1="-156.982421875" x2="-229.00390625" y2="-169.43359375" id="line_162" class="plain" />
<line x1="-20.5078125" y1="182.6171875" x2="-12.6953125" y2="196.2890625" id="line_169" class="plain" />
<line x1="-302.734375" y1="41.015625" x2="-320.3125" y2="-25.390625" id="line_171" class="plain" />
<line x1="-379.8828125" y1="-17.578125" x2="-361.328125" y2="-44.921875" id="line_176" class="plain" />
<line x1="-408.203125" y1="-44.921875" x2="-361.328125" y2="-44.921875" id="line_178" class="plain" />
<line x1="-105.46875" y1="262.6953125" x2="-133.7890625" y2="243.1640625" id="line_181" class="plain" />
<line x1="-110.3515625" y1="269.53125" x2="-138.671875" y2="249.0234375" id="line_185" class="plain" />
<line x1="-61.5234375" y1="316.40625" x2="-47.8515625" y2="290.0390625" id="line_191" class="plain" />
<line x1="50.78125" y1="-273.4375" x2="46.875" y2="-265.625" id="line_199" class="plain" />
<line x1="58.59375" y1="-269.53125" x2="54.6875" y2="-261.71875" id="line_201" class="plain" />
<line x1="39.0625" y1="-277.34375" x2="50.78125" y2="-273.4375" id="line_202" class="plain" />
<line x1="50.78125" y1="-273.4375" x2="58.59375" y2="-269.53125" id="line_204" class="plain" />
<line x1="54.6875" y1="-289.0625" x2="50.78125" y2="-273.4375" id="line_205" class="plain" />
<line x1="58.59375" y1="-269.53125" x2="70.3125" y2="-265.625" id="line_206" class="plain" />
<line x1="66.40625" y1="-285.15625" x2="58.59375" y2="-269.53125" id="line_207" class="plain" />
<line x1="-408.203125" y1="-253.90625" x2="-361.328125" y2="-253.90625" id="line_212" class="plain" />
<line x1="-364.227294921875" y1="-273.92578125" x2="-361.328125" y2="-253.90625" id="line_216" class="plain" />
<line x1="-402.34375" y1="-289.0625" x2="-379.39453125" y2="-288.665771484375" id="line_218" class="plain" />
<line x1="-353.546142578125" y1="-314.453125" x2="-339.84375" y2="-343.75" id="line_220" class="plain" />
<line x1="-306.15234375" y1="-347.65625" x2="-306.243896484375" y2="-296.356201171875" id="line_223" class="plain" />
<line x1="-306.243896484375" y1="-296.356201171875" x2="-338.37890625" y2="-299.224853515625" id="line_225" class="plain" />
<line x1="-164.0625" y1="-296.875" x2="-186.5234375" y2="-347.65625" id="line_227" class="plain" />
<line x1="-164.0625" y1="-296.875" x2="-66.40625" y2="-289.0625" id="line_230" class="plain" />
<line x1="-173.370361328125" y1="-194.854736328125" x2="57.6171875" y2="3.90625" id="line_236" class="plain" />
<line x1="29.296875" y1="50.78125" x2="62.5" y2="85.9375" id="line_237" class="plain" />
<line x1="-278.3203125" y1="-141.6015625" x2="-238.28125" y2="-114.2578125" id="line_240" class="plain" />
<line x1="-238.28125" y1="-114.2578125" x2="-40.0390625" y2="85.9375" id="line_242" class="plain" />
<line x1="-226.5625" y1="83.984375" x2="-197.265625" y2="46.875" id="line_249" class="plain" />
<line x1="-122.0703125" y1="-208.0078125" x2="58.59375" y2="-42.96875" id="line_251" class="plain" />
<line x1="79.1015625" y1="-152.34375" x2="48.33984375" y2="-131.8359375" id="line_261" class="plain" />
<line x1="-369.140625" y1="-78.125" x2="-360.16845703125" y2="-77.7587890625" id="line_267" class="plain" />
<line x1="-408.87451171875" y1="-77.7587890625" x2="-397.94921875" y2="-78.125" id="line_269" class="plain" />
<line x1="-397.94921875" y1="-95.21484375" x2="-408.203125" y2="-95.21484375" id="line_271" class="plain" />
<line x1="-360.53466796875" y1="-95.21484375" x2="-369.140625" y2="-95.21484375" id="line_272" class="plain" />
<line x1="-369.140625" y1="-122.0703125" x2="-361.328125" y2="-122.0703125" id="line_275" class="plain" />
<line x1="-408.416748046875" y1="-122.039794921875" x2="-398.4375" y2="-122.0703125" id="line_277" class="plain" />
<line x1="-408.203125" y1="-140.13671875" x2="-398.4375" y2="-140.13671875" id="line_279" class="plain" />
<line x1="-369.140625" y1="-140.13671875" x2="-360.2294921875" y2="-140.13671875" id="line_280" class="plain" />
<line x1="-369.62890625" y1="-168.45703125" x2="-360.90087890625" y2="-168.45703125" id="line_283" class="plain" />
<line x1="-408.599853515625" y1="-168.45703125" x2="-398.4375" y2="-168.45703125" id="line_285" class="plain" />
<line x1="-408.203125" y1="-185.546875" x2="-398.4375" y2="-185.546875" id="line_287" class="plain" />
<line x1="-369.62890625" y1="-185.546875" x2="-360.107421875" y2="-185.546875" id="line_288" class="plain" />
<line x1="-369.62890625" y1="-211.42578125" x2="-361.083984375" y2="-211.42578125" id="line_291" class="plain" />
<line x1="-408.203125" y1="-211.42578125" x2="-399.4140625" y2="-211.42578125" id="line_293" class="plain" />
<line x1="-408.87451171875" y1="-229.00390625" x2="-399.4140625" y2="-229.00390625" id="line_295" class="plain" />
<line x1="-369.62890625" y1="-229.00390625" x2="-360.595703125" y2="-229.00390625" id="line_296" class="plain" />
<line x1="-296.875" y1="-306.640625" x2="-296.875" y2="-296.2646484375" id="line_317" class="plain" />
<line x1="-296.875" y1="-347.2900390625" x2="-296.875" y2="-337.646484375" id="line_319" class="plain" />
<line x1="-277.83203125" y1="-347.7783203125" x2="-277.83203125" y2="-337.646484375" id="line_321" class="plain" />
<line x1="-277.83203125" y1="-306.640625" x2="-277.83203125" y2="-296.875" id="line_322" class="plain" />
<line x1="-238.28125" y1="-306.396484375" x2="-237.97607421875" y2="-296.08154296875" id="line_325" class="plain" />
<line x1="-257.8125" y1="-296.20361328125" x2="-257.8125" y2="-306.396484375" id="line_327" class="plain" />
<line x1="-257.8125" y1="-337.646484375" x2="-257.8125" y2="-347.65625" id="line_329" class="plain" />
<line x1="-237.97607421875" y1="-347.7783203125" x2="-238.28125" y2="-337.646484375" id="line_330" class="plain" />
<line x1="-218.75" y1="-296.875" x2="-218.75" y2="-308.59375" id="line_333" class="plain" />
<line x1="-218.75" y1="-335.9375" x2="-218.75" y2="-347.7783203125" id="line_335" class="plain" />
<line x1="-199.21875" y1="-335.9375" x2="-198.974609375" y2="-347.65625" id="line_337" class="plain" />
<line x1="-199.0966796875" y1="-296.08154296875" x2="-199.21875" y2="-308.59375" id="line_338" class="plain" />
<line x1="89.84375" y1="54.6875" x2="200.68359375" y2="39.0625" id="line_349" class="plain" />
<line x1="258.7890625" y1="90.8203125" x2="119.62890625" y2="227.5390625" id="line_350" class="plain" />
<line x1="250.0" y1="243.1640625" x2="119.62890625" y2="227.5390625" id="line_351" class="plain" />
<line x1="285.64453125" y1="194.3359375" x2="258.7890625" y2="90.8203125" id="line_352" class="plain" />
<line x1="355.46875" y1="187.5" x2="347.65625" y2="218.75" id="line_357" class="plain" />
<line x1="292.96875" y1="281.25" x2="269.53125" y2="300.78125" id="line_363" class="plain" />
<line x1="335.9375" y1="234.375" x2="316.40625" y2="257.8125" id="line_365" class="plain" />
<line x1="269.53125" y1="300.78125" x2="225.5859375" y2="259.765625" id="line_367" class="plain" />
<line x1="250.0" y1="312.5" x2="218.75" y2="324.21875" id="line_368" class="plain" />
<line x1="292.96875" y1="281.25" x2="250.0" y2="243.1640625" id="line_369" class="plain" />
<line x1="316.40625" y1="257.8125" x2="268.5546875" y2="225.5859375" id="line_370" class="plain" />
<line x1="347.65625" y1="218.75" x2="285.64453125" y2="194.3359375" id="line_371" class="plain" />
<line x1="328.125" y1="316.40625" x2="304.6875" y2="335.9375" id="line_374" class="plain" />
<!-- end group: "border_plain" -->
</g>
<g id="border_ceiling">
<line x1="225.5859375" y1="259.765625" x2="191.40625" y2="273.4375" id="line_0" class="ceiling" />
<line x1="297.8515625" y1="167.96875" x2="285.64453125" y2="194.3359375" id="line_23" class="ceiling" />
<line x1="-290.069580078125" y1="-30.303955078125" x2="-271.514892578125" y2="34.149169921875" id="line_41" class="ceiling" />
<line x1="-62.530517578125" y1="-247.100830078125" x2="-128.936767578125" y2="-247.100830078125" id="line_53" class="ceiling" />
<line x1="268.5546875" y1="225.5859375" x2="250.0" y2="243.1640625" id="line_67" class="ceiling" />
<line x1="285.64453125" y1="194.3359375" x2="268.5546875" y2="225.5859375" id="line_68" class="ceiling" />
<line x1="250.0" y1="243.1640625" x2="225.5859375" y2="259.765625" id="line_69" class="ceiling" />
<line x1="460.9375" y1="128.90625" x2="480.46875" y2="148.4375" id="line_137" class="ceiling" />
<line x1="507.8125" y1="82.03125" x2="527.34375" y2="101.5625" id="line_142" class="ceiling" />
<line x1="54.6875" y1="-261.71875" x2="66.40625" y2="-253.90625" id="line_152" class="ceiling" />
<line x1="-229.00390625" y1="-169.43359375" x2="-249.0234375" y2="-189.453125" id="line_155" class="ceiling" />
<line x1="-224.609375" y1="-209.9609375" x2="-207.03125" y2="-190.4296875" id="line_158" class="ceiling" />
<line x1="-207.03125" y1="-190.4296875" x2="-229.00390625" y2="-169.43359375" id="line_160" class="ceiling" />
<line x1="-91.796875" y1="309.5703125" x2="-83.49609375" y2="287.59765625" id="line_194" class="ceiling" />
<line x1="46.875" y1="-265.625" x2="54.6875" y2="-261.71875" id="line_197" class="ceiling" />
<line x1="35.15625" y1="-269.53125" x2="46.875" y2="-265.625" id="line_198" class="ceiling" />
<line x1="-369.140625" y1="-78.125" x2="-397.94921875" y2="-78.125" id="line_265" class="ceiling" />
<line x1="-369.140625" y1="-95.21484375" x2="-369.140625" y2="-78.125" id="line_266" class="ceiling" />
<line x1="-397.94921875" y1="-78.125" x2="-397.94921875" y2="-95.21484375" id="line_268" class="ceiling" />
<line x1="-397.94921875" y1="-95.21484375" x2="-369.140625" y2="-95.21484375" id="line_270" class="ceiling" />
<line x1="-369.140625" y1="-122.0703125" x2="-398.4375" y2="-122.0703125" id="line_273" class="ceiling" />
<line x1="-369.140625" y1="-140.13671875" x2="-369.140625" y2="-122.0703125" id="line_274" class="ceiling" />
<line x1="-398.4375" y1="-122.0703125" x2="-398.4375" y2="-140.13671875" id="line_276" class="ceiling" />
<line x1="-398.4375" y1="-140.13671875" x2="-369.140625" y2="-140.13671875" id="line_278" class="ceiling" />
<line x1="-369.62890625" y1="-168.45703125" x2="-398.4375" y2="-168.45703125" id="line_281" class="ceiling" />
<line x1="-369.62890625" y1="-185.546875" x2="-369.62890625" y2="-168.45703125" id="line_282" class="ceiling" />
<line x1="-398.4375" y1="-168.45703125" x2="-398.4375" y2="-185.546875" id="line_284" class="ceiling" />
<line x1="-398.4375" y1="-185.546875" x2="-369.62890625" y2="-185.546875" id="line_286" class="ceiling" />
<line x1="-369.62890625" y1="-211.42578125" x2="-399.4140625" y2="-211.42578125" id="line_289" class="ceiling" />
<line x1="-369.62890625" y1="-229.00390625" x2="-369.62890625" y2="-211.42578125" id="line_290" class="ceiling" />
<line x1="-399.4140625" y1="-211.42578125" x2="-399.4140625" y2="-229.00390625" id="line_292" class="ceiling" />
<line x1="-399.4140625" y1="-229.00390625" x2="-369.62890625" y2="-229.00390625" id="line_294" class="ceiling" />
<line x1="-379.39453125" y1="-288.665771484375" x2="-353.546142578125" y2="-314.453125" id="line_311" class="ceiling" />
<line x1="-364.227294921875" y1="-273.92578125" x2="-379.39453125" y2="-288.665771484375" id="line_312" class="ceiling" />
<line x1="-353.546142578125" y1="-314.453125" x2="-338.37890625" y2="-299.224853515625" id="line_313" class="ceiling" />
<line x1="-338.37890625" y1="-299.224853515625" x2="-364.227294921875" y2="-273.92578125" id="line_314" class="ceiling" />
<line x1="-296.875" y1="-337.646484375" x2="-296.875" y2="-306.640625" id="line_315" class="ceiling" />
<line x1="-296.875" y1="-306.640625" x2="-277.83203125" y2="-306.640625" id="line_316" class="ceiling" />
<line x1="-277.83203125" y1="-337.646484375" x2="-296.875" y2="-337.646484375" id="line_318" class="ceiling" />
<line x1="-277.83203125" y1="-306.640625" x2="-277.83203125" y2="-337.646484375" id="line_320" class="ceiling" />
<line x1="-257.8125" y1="-306.396484375" x2="-238.28125" y2="-306.396484375" id="line_323" class="ceiling" />
<line x1="-238.28125" y1="-306.396484375" x2="-238.28125" y2="-337.646484375" id="line_324" class="ceiling" />
<line x1="-257.8125" y1="-337.646484375" x2="-257.8125" y2="-306.396484375" id="line_326" class="ceiling" />
<line x1="-238.28125" y1="-337.646484375" x2="-257.8125" y2="-337.646484375" id="line_328" class="ceiling" />
<line x1="-218.75" y1="-335.9375" x2="-218.75" y2="-308.59375" id="line_331" class="ceiling" />
<line x1="-218.75" y1="-308.59375" x2="-199.21875" y2="-308.59375" id="line_332" class="ceiling" />
<line x1="-199.21875" y1="-335.9375" x2="-218.75" y2="-335.9375" id="line_334" class="ceiling" />
<line x1="-199.21875" y1="-308.59375" x2="-199.21875" y2="-335.9375" id="line_336" class="ceiling" />
<!-- end group: "border_ceiling" -->
</g>
<g id="border_elevation">
<line x1="41.015625" y1="149.4140625" x2="-13.671875" y2="179.6875" id="line_3" class="elevation" />
<line x1="-5.37109375" y1="194.3359375" x2="-13.671875" y2="179.6875" id="line_4" class="elevation" />
<line x1="-31.25" y1="125.0" x2="23.406982421875" y2="112.274169921875" id="line_6" class="elevation" />
<line x1="62.5" y1="85.9375" x2="23.406982421875" y2="112.274169921875" id="line_7" class="elevation" />
<line x1="23.406982421875" y1="112.274169921875" x2="28.3203125" y2="125.0" id="line_8" class="elevation" />
<line x1="76.66015625" y1="193.359375" x2="23.4375" y2="230.46875" id="line_11" class="elevation" />
<line x1="99.578857421875" y1="8.758544921875" x2="89.84375" y2="54.6875" id="line_16" class="elevation" />
<line x1="89.84375" y1="54.6875" x2="62.5" y2="85.9375" id="line_17" class="elevation" />
<line x1="99.578857421875" y1="8.758544921875" x2="97.65625" y2="-42.96875" id="line_20" class="elevation" />
<line x1="113.28125" y1="8.30078125" x2="99.578857421875" y2="8.758544921875" id="line_21" class="elevation" />
<line x1="139.16015625" y1="-40.0390625" x2="130.37109375" y2="10.25390625" id="line_29" class="elevation" />
<line x1="176.7578125" y1="-28.80859375" x2="166.9921875" y2="21.97265625" id="line_32" class="elevation" />
<line x1="215.33203125" y1="-8.30078125" x2="200.68359375" y2="39.0625" id="line_35" class="elevation" />
<line x1="46.875" y1="-199.21875" x2="3.90625" y2="-226.5625" id="line_59" class="elevation" />
<line x1="113.28125" y1="8.30078125" x2="118.1640625" y2="-42.96875" id="line_70" class="elevation" />
<line x1="130.37109375" y1="10.25390625" x2="113.28125" y2="8.30078125" id="line_71" class="elevation" />
<line x1="148.4375" y1="15.13671875" x2="130.37109375" y2="10.25390625" id="line_72" class="elevation" />
<line x1="157.2265625" y1="-34.66796875" x2="148.4375" y2="15.13671875" id="line_73" class="elevation" />
<line x1="166.9921875" y1="21.97265625" x2="148.4375" y2="15.13671875" id="line_74" class="elevation" />
<line x1="184.5703125" y1="30.2734375" x2="166.9921875" y2="21.97265625" id="line_75" class="elevation" />
<line x1="195.80078125" y1="-19.53125" x2="184.5703125" y2="30.2734375" id="line_76" class="elevation" />
<line x1="200.68359375" y1="39.0625" x2="184.5703125" y2="30.2734375" id="line_77" class="elevation" />
<line x1="214.84375" y1="48.33984375" x2="200.68359375" y2="39.0625" id="line_78" class="elevation" />
<line x1="230.95703125" y1="2.9296875" x2="214.84375" y2="48.33984375" id="line_79" class="elevation" />
<line x1="229.00390625" y1="59.08203125" x2="214.84375" y2="48.33984375" id="line_81" class="elevation" />
<line x1="246.58203125" y1="15.13671875" x2="229.00390625" y2="59.08203125" id="line_82" class="elevation" />
<line x1="240.72265625" y1="69.3359375" x2="229.00390625" y2="59.08203125" id="line_84" class="elevation" />
<line x1="261.23046875" y1="29.296875" x2="240.72265625" y2="69.3359375" id="line_85" class="elevation" />
<line x1="250.48828125" y1="79.58984375" x2="240.72265625" y2="69.3359375" id="line_87" class="elevation" />
<line x1="272.94921875" y1="42.48046875" x2="250.48828125" y2="79.58984375" id="line_88" class="elevation" />
<line x1="258.7890625" y1="90.8203125" x2="250.48828125" y2="79.58984375" id="line_90" class="elevation" />
<line x1="283.69140625" y1="55.17578125" x2="258.7890625" y2="90.8203125" id="line_91" class="elevation" />
<line x1="-26.3671875" y1="145.5078125" x2="28.3203125" y2="125.0" id="line_93" class="elevation" />
<line x1="28.3203125" y1="125.0" x2="35.15625" y2="138.671875" id="line_94" class="elevation" />
<line x1="35.15625" y1="138.671875" x2="-20.99609375" y2="164.55078125" id="line_96" class="elevation" />
<line x1="35.15625" y1="138.671875" x2="41.015625" y2="149.4140625" id="line_97" class="elevation" />
<line x1="41.015625" y1="149.4140625" x2="47.36328125" y2="160.64453125" id="line_98" class="elevation" />
<line x1="47.36328125" y1="160.64453125" x2="-5.37109375" y2="194.3359375" id="line_99" class="elevation" />
<line x1="47.36328125" y1="160.64453125" x2="54.6875" y2="170.41015625" id="line_102" class="elevation" />
<line x1="54.6875" y1="170.41015625" x2="2.44140625" y2="206.54296875" id="line_103" class="elevation" />
<line x1="54.6875" y1="170.41015625" x2="64.94140625" y2="181.640625" id="line_105" class="elevation" />
<line x1="64.94140625" y1="181.640625" x2="13.18359375" y2="218.75" id="line_106" class="elevation" />
<line x1="64.94140625" y1="181.640625" x2="76.66015625" y2="193.359375" id="line_107" class="elevation" />
<line x1="76.66015625" y1="193.359375" x2="86.9140625" y2="203.125" id="line_109" class="elevation" />
<line x1="86.9140625" y1="203.125" x2="36.62109375" y2="243.1640625" id="line_110" class="elevation" />
<line x1="86.9140625" y1="203.125" x2="98.14453125" y2="213.37890625" id="line_112" class="elevation" />
<line x1="98.14453125" y1="213.37890625" x2="49.8046875" y2="254.39453125" id="line_113" class="elevation" />
<line x1="98.14453125" y1="213.37890625" x2="108.3984375" y2="222.16796875" id="line_115" class="elevation" />
<line x1="108.3984375" y1="222.16796875" x2="64.453125" y2="264.16015625" id="line_116" class="elevation" />
<line x1="108.3984375" y1="222.16796875" x2="119.62890625" y2="227.5390625" id="line_118" class="elevation" />
<line x1="119.62890625" y1="227.5390625" x2="81.54296875" y2="273.92578125" id="line_119" class="elevation" />
<line x1="-249.0234375" y1="-189.453125" x2="-224.609375" y2="-209.9609375" id="line_154" class="elevation" />
<line x1="-85.9375" y1="238.28125" x2="-113.28125" y2="218.75" id="line_163" class="elevation" />
<line x1="-110.3515625" y1="269.53125" x2="-127.9296875" y2="293.9453125" id="line_186" class="elevation" />
<line x1="-173.370361328125" y1="-194.854736328125" x2="-216.796875" y2="-156.982421875" id="line_234" class="elevation" />
<line x1="-122.0703125" y1="-208.0078125" x2="-173.370361328125" y2="-194.854736328125" id="line_235" class="elevation" />
<line x1="-238.28125" y1="-114.2578125" x2="-248.53515625" y2="-71.77734375" id="line_238" class="elevation" />
<line x1="-246.09375" y1="-35.15625" x2="-248.53515625" y2="-71.77734375" id="line_239" class="elevation" />
<line x1="-216.796875" y1="-156.982421875" x2="-238.28125" y2="-114.2578125" id="line_241" class="elevation" />
<line x1="-231.4453125" y1="9.765625" x2="-246.09375" y2="-35.15625" id="line_243" class="elevation" />
<line x1="-231.4453125" y1="9.765625" x2="-197.265625" y2="46.875" id="line_244" class="elevation" />
<line x1="-94.7265625" y1="86.9140625" x2="-152.34375" y2="67.3828125" id="line_245" class="elevation" />
<line x1="-197.265625" y1="46.875" x2="-152.34375" y2="67.3828125" id="line_246" class="elevation" />
<line x1="-40.0390625" y1="85.9375" x2="-94.7265625" y2="86.9140625" id="line_247" class="elevation" />
<line x1="-40.0390625" y1="85.9375" x2="0.0" y2="71.2890625" id="line_248" class="elevation" />
<line x1="-62.5" y1="-208.0078125" x2="-122.0703125" y2="-208.0078125" id="line_250" class="elevation" />
<line x1="-3.90625" y1="-183.59375" x2="-62.5" y2="-208.0078125" id="line_252" class="elevation" />
<line x1="23.92578125" y1="-164.0625" x2="-3.90625" y2="-183.59375" id="line_253" class="elevation" />
<line x1="48.33984375" y1="-131.8359375" x2="23.92578125" y2="-164.0625" id="line_254" class="elevation" />
<line x1="58.59375" y1="-42.96875" x2="57.6171875" y2="-93.26171875" id="line_255" class="elevation" />
<line x1="48.33984375" y1="-131.8359375" x2="57.6171875" y2="-93.26171875" id="line_256" class="elevation" />
<line x1="57.6171875" y1="3.90625" x2="58.59375" y2="-42.96875" id="line_257" class="elevation" />
<line x1="0.0" y1="71.2890625" x2="29.296875" y2="50.78125" id="line_258" class="elevation" />
<line x1="29.296875" y1="50.78125" x2="49.8046875" y2="25.390625" id="line_259" class="elevation" />
<line x1="49.8046875" y1="25.390625" x2="57.6171875" y2="3.90625" id="line_260" class="elevation" />
<!-- end group: "border_elevation" -->
</g>
<g id="border_solid">
<line x1="191.40625" y1="273.4375" x2="153.3203125" y2="280.2734375" id="line_1" class="solid" />
<line x1="-13.671875" y1="179.6875" x2="-20.99609375" y2="164.55078125" id="line_2" class="solid" />
<line x1="-20.5078125" y1="182.6171875" x2="-13.671875" y2="179.6875" id="line_5" class="solid" />
<line x1="23.4375" y1="230.46875" x2="13.18359375" y2="218.75" id="line_10" class="solid" />
<line x1="36.62109375" y1="243.1640625" x2="23.4375" y2="230.46875" id="line_12" class="solid" />
<line x1="-26.3671875" y1="145.5078125" x2="-31.25" y2="125.0" id="line_13" class="solid" />
<line x1="-31.25" y1="125.0" x2="-101.593017578125" y2="131.805419921875" id="line_15" class="solid" />
<line x1="309.5703125" y1="135.7421875" x2="297.8515625" y2="167.96875" id="line_24" class="solid" />
<line x1="97.65625" y1="-42.96875" x2="118.1640625" y2="-42.96875" id="line_25" class="solid" />
<line x1="95.672607421875" y1="-100.616455078125" x2="97.65625" y2="-42.96875" id="line_27" class="solid" />
<line x1="118.1640625" y1="-42.96875" x2="139.16015625" y2="-40.0390625" id="line_28" class="solid" />
<line x1="139.16015625" y1="-40.0390625" x2="157.2265625" y2="-34.66796875" id="line_30" class="solid" />
<line x1="157.2265625" y1="-34.66796875" x2="176.7578125" y2="-28.80859375" id="line_31" class="solid" />
<line x1="176.7578125" y1="-28.80859375" x2="195.80078125" y2="-19.53125" id="line_33" class="solid" />
<line x1="195.80078125" y1="-19.53125" x2="215.33203125" y2="-8.30078125" id="line_34" class="solid" />
<line x1="215.33203125" y1="-8.30078125" x2="230.95703125" y2="2.9296875" id="line_36" class="solid" />
<line x1="-101.593017578125" y1="131.805419921875" x2="-171.905517578125" y2="114.227294921875" id="line_38" class="solid" />
<line x1="-171.905517578125" y1="114.227294921875" x2="-226.5625" y2="83.984375" id="line_40" class="solid" />
<line x1="-271.514892578125" y1="34.149169921875" x2="-302.734375" y2="41.015625" id="line_42" class="solid" />
<line x1="-226.5625" y1="83.984375" x2="-271.514892578125" y2="34.149169921875" id="line_44" class="solid" />
<line x1="-320.3125" y1="-25.390625" x2="-290.069580078125" y2="-30.303955078125" id="line_45" class="solid" />
<line x1="-290.069580078125" y1="-30.303955078125" x2="-290.069580078125" y2="-88.897705078125" id="line_47" class="solid" />
<line x1="-290.069580078125" y1="-88.897705078125" x2="-278.3203125" y2="-141.6015625" id="line_49" class="solid" />
<line x1="-224.609375" y1="-209.9609375" x2="-189.483642578125" y2="-231.475830078125" id="line_51" class="solid" />
<line x1="-189.483642578125" y1="-231.475830078125" x2="-128.936767578125" y2="-247.100830078125" id="line_52" class="solid" />
<line x1="-128.936767578125" y1="-247.100830078125" x2="-164.0625" y2="-296.875" id="line_54" class="solid" />
<line x1="-66.40625" y1="-289.0625" x2="-62.530517578125" y2="-247.100830078125" id="line_56" class="solid" />
<line x1="-62.530517578125" y1="-247.100830078125" x2="3.90625" y2="-226.5625" id="line_58" class="solid" />
<line x1="66.40625" y1="-226.5625" x2="46.875" y2="-199.21875" id="line_60" class="solid" />
<line x1="46.875" y1="-199.21875" x2="79.1015625" y2="-152.34375" id="line_62" class="solid" />
<line x1="79.1015625" y1="-152.34375" x2="95.672607421875" y2="-100.616455078125" id="line_64" class="solid" />
<line x1="3.90625" y1="-226.5625" x2="15.625" y2="-257.8125" id="line_65" class="solid" />
<line x1="230.95703125" y1="2.9296875" x2="246.58203125" y2="15.13671875" id="line_80" class="solid" />
<line x1="246.58203125" y1="15.13671875" x2="261.23046875" y2="29.296875" id="line_83" class="solid" />
<line x1="261.23046875" y1="29.296875" x2="272.94921875" y2="42.48046875" id="line_86" class="solid" />
<line x1="272.94921875" y1="42.48046875" x2="283.69140625" y2="55.17578125" id="line_89" class="solid" />
<line x1="283.69140625" y1="55.17578125" x2="298.828125" y2="74.21875" id="line_92" class="solid" />
<line x1="-20.99609375" y1="164.55078125" x2="-26.3671875" y2="145.5078125" id="line_95" class="solid" />
<line x1="2.44140625" y1="206.54296875" x2="-5.37109375" y2="194.3359375" id="line_100" class="solid" />
<line x1="-5.37109375" y1="194.3359375" x2="-12.6953125" y2="196.2890625" id="line_101" class="solid" />
<line x1="13.18359375" y1="218.75" x2="2.44140625" y2="206.54296875" id="line_104" class="solid" />
<line x1="49.8046875" y1="254.39453125" x2="36.62109375" y2="243.1640625" id="line_111" class="solid" />
<line x1="64.453125" y1="264.16015625" x2="49.8046875" y2="254.39453125" id="line_114" class="solid" />
<line x1="81.54296875" y1="273.92578125" x2="64.453125" y2="264.16015625" id="line_117" class="solid" />
<line x1="122.0703125" y1="282.2265625" x2="81.54296875" y2="273.92578125" id="line_120" class="solid" />
<line x1="472.65625" y1="156.25" x2="410.15625" y2="218.75" id="line_122" class="solid" />
<line x1="402.34375" y1="187.5" x2="453.125" y2="136.71875" id="line_123" class="solid" />
<line x1="250.0" y1="375.0" x2="250.0" y2="390.625" id="line_125" class="solid" />
<line x1="214.84375" y1="375.0" x2="218.75" y2="371.09375" id="line_126" class="solid" />
<line x1="250.0" y1="390.625" x2="214.84375" y2="406.25" id="line_127" class="solid" />
<line x1="214.84375" y1="406.25" x2="105.46875" y2="388.671875" id="line_129" class="solid" />
<line x1="113.28125" y1="359.375" x2="214.84375" y2="375.0" id="line_130" class="solid" />
<line x1="105.46875" y1="388.671875" x2="-61.5234375" y2="316.40625" id="line_132" class="solid" />
<line x1="-47.8515625" y1="290.0390625" x2="113.28125" y2="359.375" id="line_133" class="solid" />
<line x1="453.125" y1="136.71875" x2="460.9375" y2="128.90625" id="line_135" class="solid" />
<line x1="480.46875" y1="148.4375" x2="472.65625" y2="156.25" id="line_136" class="solid" />
<line x1="460.9375" y1="128.90625" x2="410.15625" y2="78.125" id="line_139" class="solid" />
<line x1="519.53125" y1="187.5" x2="480.46875" y2="148.4375" id="line_141" class="solid" />
<line x1="457.03125" y1="31.25" x2="507.8125" y2="82.03125" id="line_143" class="solid" />
<line x1="507.8125" y1="82.03125" x2="515.625" y2="74.21875" id="line_144" class="solid" />
<line x1="527.34375" y1="101.5625" x2="566.40625" y2="140.625" id="line_145" class="solid" />
<line x1="535.15625" y1="93.75" x2="527.34375" y2="101.5625" id="line_146" class="solid" />
<line x1="410.15625" y1="78.125" x2="457.03125" y2="31.25" id="line_147" class="solid" />
<line x1="566.40625" y1="140.625" x2="519.53125" y2="187.5" id="line_148" class="solid" />
<line x1="515.625" y1="74.21875" x2="535.15625" y2="93.75" id="line_149" class="solid" />
<line x1="15.625" y1="-257.8125" x2="35.15625" y2="-269.53125" id="line_150" class="solid" />
<line x1="66.40625" y1="-253.90625" x2="66.40625" y2="-226.5625" id="line_151" class="solid" />
<line x1="70.3125" y1="-265.625" x2="66.40625" y2="-253.90625" id="line_153" class="solid" />
<line x1="-249.0234375" y1="-189.453125" x2="-255.9814453125" y2="-196.4111328125" id="line_156" class="solid" />
<line x1="-278.3203125" y1="-141.6015625" x2="-249.0234375" y2="-189.453125" id="line_157" class="solid" />
<line x1="-231.4453125" y1="-216.6748046875" x2="-224.609375" y2="-209.9609375" id="line_159" class="solid" />
<line x1="-113.28125" y1="218.75" x2="-20.5078125" y2="182.6171875" id="line_164" class="solid" />
<line x1="-133.7890625" y1="243.1640625" x2="-113.28125" y2="218.75" id="line_165" class="solid" />
<line x1="-12.6953125" y1="196.2890625" x2="-85.9375" y2="238.28125" id="line_166" class="solid" />
<line x1="-85.9375" y1="238.28125" x2="-105.46875" y2="262.6953125" id="line_167" class="solid" />
<line x1="-85.9375" y1="238.28125" x2="-65.4296875" y2="263.671875" id="line_168" class="solid" />
<line x1="-255.9814453125" y1="-196.4111328125" x2="-231.4453125" y2="-216.6748046875" id="line_170" class="solid" />
<line x1="-302.734375" y1="41.015625" x2="-327.1484375" y2="76.171875" id="line_172" class="solid" />
<line x1="-361.328125" y1="-44.921875" x2="-320.3125" y2="-25.390625" id="line_173" class="solid" />
<line x1="-327.1484375" y1="76.171875" x2="-360.3515625" y2="62.5" id="line_174" class="solid" />
<line x1="-360.3515625" y1="62.5" x2="-379.8828125" y2="-17.578125" id="line_175" class="solid" />
<line x1="-379.8828125" y1="-17.578125" x2="-408.203125" y2="-44.921875" id="line_177" class="solid" />
<line x1="-360.16845703125" y1="-77.7587890625" x2="-361.328125" y2="-44.921875" id="line_179" class="solid" />
<line x1="-408.203125" y1="-44.921875" x2="-408.87451171875" y2="-77.7587890625" id="line_180" class="solid" />
<line x1="-105.46875" y1="262.6953125" x2="-110.3515625" y2="269.53125" id="line_182" class="solid" />
<line x1="-82.03125" y1="285.15625" x2="-105.46875" y2="262.6953125" id="line_183" class="solid" />
<line x1="-138.671875" y1="249.0234375" x2="-133.7890625" y2="243.1640625" id="line_184" class="solid" />
<line x1="-110.3515625" y1="269.53125" x2="-83.49609375" y2="287.59765625" id="line_187" class="solid" />
<line x1="-156.25" y1="272.4609375" x2="-138.671875" y2="249.0234375" id="line_188" class="solid" />
<line x1="-127.9296875" y1="293.9453125" x2="-156.25" y2="272.4609375" id="line_189" class="solid" />
<line x1="-91.796875" y1="309.5703125" x2="-127.9296875" y2="293.9453125" id="line_190" class="solid" />
<line x1="-61.5234375" y1="316.40625" x2="-91.796875" y2="309.5703125" id="line_192" class="solid" />
<line x1="-65.4296875" y1="263.671875" x2="-47.8515625" y2="290.0390625" id="line_193" class="solid" />
<line x1="-83.49609375" y1="287.59765625" x2="-82.03125" y2="285.15625" id="line_195" class="solid" />
<line x1="-82.03125" y1="285.15625" x2="-65.4296875" y2="263.671875" id="line_196" class="solid" />
<line x1="35.15625" y1="-269.53125" x2="39.0625" y2="-277.34375" id="line_200" class="solid" />
<line x1="39.0625" y1="-277.34375" x2="42.96875" y2="-285.15625" id="line_203" class="solid" />
<line x1="70.3125" y1="-277.34375" x2="70.3125" y2="-265.625" id="line_208" class="solid" />
<line x1="42.96875" y1="-285.15625" x2="54.6875" y2="-289.0625" id="line_209" class="solid" />
<line x1="54.6875" y1="-289.0625" x2="66.40625" y2="-285.15625" id="line_210" class="solid" />
<line x1="66.40625" y1="-285.15625" x2="70.3125" y2="-277.34375" id="line_211" class="solid" />
<line x1="-408.87451171875" y1="-229.00390625" x2="-408.203125" y2="-253.90625" id="line_213" class="solid" />
<line x1="-408.203125" y1="-253.90625" x2="-402.34375" y2="-289.0625" id="line_214" class="solid" />
<line x1="-361.328125" y1="-253.90625" x2="-360.595703125" y2="-229.00390625" id="line_215" class="solid" />
<line x1="-306.243896484375" y1="-296.356201171875" x2="-361.328125" y2="-253.90625" id="line_217" class="solid" />
<line x1="-402.34375" y1="-289.0625" x2="-378.90625" y2="-319.3359375" id="line_219" class="solid" />
<line x1="-339.84375" y1="-343.75" x2="-306.15234375" y2="-347.65625" id="line_221" class="solid" />
<line x1="-378.90625" y1="-319.3359375" x2="-339.84375" y2="-343.75" id="line_222" class="solid" />
<line x1="-306.15234375" y1="-347.65625" x2="-296.875" y2="-347.2900390625" id="line_224" class="solid" />
<line x1="-296.875" y1="-296.2646484375" x2="-306.243896484375" y2="-296.356201171875" id="line_226" class="solid" />
<line x1="-186.5234375" y1="-347.65625" x2="-132.8125" y2="-343.75" id="line_228" class="solid" />
<line x1="-198.974609375" y1="-347.65625" x2="-186.5234375" y2="-347.65625" id="line_229" class="solid" />
<line x1="-164.0625" y1="-296.875" x2="-199.0966796875" y2="-296.08154296875" id="line_231" class="solid" />
<line x1="-85.9375" y1="-328.125" x2="-66.40625" y2="-289.0625" id="line_232" class="solid" />
<line x1="-132.8125" y1="-343.75" x2="-85.9375" y2="-328.125" id="line_233" class="solid" />
<line x1="308.59375" y1="101.5625" x2="309.5703125" y2="135.7421875" id="line_262" class="solid" />
<line x1="298.828125" y1="74.21875" x2="308.59375" y2="101.5625" id="line_263" class="solid" />
<line x1="153.3203125" y1="280.2734375" x2="122.0703125" y2="282.2265625" id="line_264" class="solid" />
<line x1="-408.87451171875" y1="-77.7587890625" x2="-408.203125" y2="-95.21484375" id="line_297" class="solid" />
<line x1="-360.53466796875" y1="-95.21484375" x2="-360.16845703125" y2="-77.7587890625" id="line_298" class="solid" />
<line x1="-408.203125" y1="-95.21484375" x2="-408.416748046875" y2="-122.039794921875" id="line_299" class="solid" />
<line x1="-408.416748046875" y1="-122.039794921875" x2="-408.203125" y2="-140.13671875" id="line_300" class="solid" />
<line x1="-361.328125" y1="-122.0703125" x2="-360.53466796875" y2="-95.21484375" id="line_301" class="solid" />
<line x1="-360.2294921875" y1="-140.13671875" x2="-361.328125" y2="-122.0703125" id="line_302" class="solid" />
<line x1="-360.90087890625" y1="-168.45703125" x2="-360.2294921875" y2="-140.13671875" id="line_303" class="solid" />
<line x1="-408.203125" y1="-140.13671875" x2="-408.599853515625" y2="-168.45703125" id="line_304" class="solid" />
<line x1="-408.599853515625" y1="-168.45703125" x2="-408.203125" y2="-185.546875" id="line_305" class="solid" />
<line x1="-360.107421875" y1="-185.546875" x2="-360.90087890625" y2="-168.45703125" id="line_306" class="solid" />
<line x1="-361.083984375" y1="-211.42578125" x2="-360.107421875" y2="-185.546875" id="line_307" class="solid" />
<line x1="-408.203125" y1="-185.546875" x2="-408.203125" y2="-211.42578125" id="line_308" class="solid" />
<line x1="-408.203125" y1="-211.42578125" x2="-408.87451171875" y2="-229.00390625" id="line_309" class="solid" />
<line x1="-360.595703125" y1="-229.00390625" x2="-361.083984375" y2="-211.42578125" id="line_310" class="solid" />
<line x1="-199.0966796875" y1="-296.08154296875" x2="-218.75" y2="-296.875" id="line_339" class="solid" />
<line x1="-218.75" y1="-347.7783203125" x2="-198.974609375" y2="-347.65625" id="line_340" class="solid" />
<line x1="-277.83203125" y1="-296.875" x2="-296.875" y2="-296.2646484375" id="line_341" class="solid" />
<line x1="-296.875" y1="-347.2900390625" x2="-277.83203125" y2="-347.7783203125" id="line_342" class="solid" />
<line x1="-257.8125" y1="-296.20361328125" x2="-277.83203125" y2="-296.875" id="line_343" class="solid" />
<line x1="-277.83203125" y1="-347.7783203125" x2="-257.8125" y2="-347.65625" id="line_344" class="solid" />
<line x1="-257.8125" y1="-347.65625" x2="-237.97607421875" y2="-347.7783203125" id="line_345" class="solid" />
<line x1="-237.97607421875" y1="-296.08154296875" x2="-257.8125" y2="-296.20361328125" id="line_346" class="solid" />
<line x1="-237.97607421875" y1="-347.7783203125" x2="-218.75" y2="-347.7783203125" id="line_347" class="solid" />
<line x1="-218.75" y1="-296.875" x2="-237.97607421875" y2="-296.08154296875" id="line_348" class="solid" />
<line x1="355.46875" y1="187.5" x2="402.34375" y2="187.5" id="line_353" class="solid" />
<line x1="410.15625" y1="218.75" x2="347.65625" y2="218.75" id="line_354" class="solid" />
<line x1="297.8515625" y1="167.96875" x2="347.65625" y2="179.6875" id="line_355" class="solid" />
<line x1="347.65625" y1="179.6875" x2="355.46875" y2="187.5" id="line_356" class="solid" />
<line x1="250.0" y1="312.5" x2="250.0" y2="375.0" id="line_358" class="solid" />
<line x1="218.75" y1="371.09375" x2="218.75" y2="324.21875" id="line_359" class="solid" />
<line x1="210.9375" y1="316.40625" x2="191.40625" y2="273.4375" id="line_360" class="solid" />
<line x1="218.75" y1="324.21875" x2="210.9375" y2="316.40625" id="line_361" class="solid" />
<line x1="269.53125" y1="300.78125" x2="250.0" y2="312.5" id="line_362" class="solid" />
<line x1="316.40625" y1="257.8125" x2="292.96875" y2="281.25" id="line_364" class="solid" />
<line x1="347.65625" y1="218.75" x2="335.9375" y2="234.375" id="line_366" class="solid" />
<line x1="292.96875" y1="281.25" x2="328.125" y2="316.40625" id="line_372" class="solid" />
<line x1="304.6875" y1="335.9375" x2="269.53125" y2="300.78125" id="line_373" class="solid" />
<line x1="328.125" y1="316.40625" x2="332.03125" y2="328.125" id="line_375" class="solid" />
<line x1="332.03125" y1="328.125" x2="316.40625" y2="343.75" id="line_376" class="solid" />
<line x1="316.40625" y1="343.75" x2="304.6875" y2="335.9375" id="line_377" class="solid" />
<line x1="351.5625" y1="292.96875" x2="316.40625" y2="257.8125" id="line_378" class="solid" />
<line x1="363.28125" y1="296.875" x2="351.5625" y2="292.96875" id="line_379" class="solid" />
<line x1="375.0" y1="285.15625" x2="363.28125" y2="296.875" id="line_380" class="solid" />
<line x1="371.09375" y1="269.53125" x2="375.0" y2="285.15625" id="line_381" class="solid" />
<line x1="335.9375" y1="234.375" x2="371.09375" y2="269.53125" id="line_382" class="solid" />
<!-- end group: "border_solid" -->
</g>
<!-- end group: "borders" -->
</g>
<g id="poly_teleporter_lines">
<g id="panel_teleporter_lines_p56">
<g id="panel_teleporter_line_group_poly_p56_p34">
<line x1="521.484375" y1="87.890625" x2="41.9921875" y2="-245.1171875" id="panel_teleporter_border_p56_p34" class="teleporter_border" />
<use xlink:href="../resources/svg/common.svg#arrow" x="41.9921875" y="-245.1171875" id="panel_teleporter_head_p56_p34" class="teleporter_line" transform="rotate(-145.21998185528855 41.9921875 -245.1171875)" />
<line x1="521.484375" y1="87.890625" x2="41.9921875" y2="-245.1171875" id="panel_teleporter_line_p56_p34" class="teleporter_line" />
<!-- end group: "panel_teleporter_line_group_poly_p56_p34" -->
</g>
<!-- end group: "panel_teleporter_lines_p56" -->
</g>
<g id="panel_teleporter_lines_p57">
<g id="panel_teleporter_line_group_poly_p57_p10">
<line x1="62.5" y1="-262.6953125" x2="74.188232421875" y2="23.162841796875" id="panel_teleporter_border_p57_p10" class="teleporter_border" />
<use xlink:href="../resources/svg/common.svg#arrow" x="74.188232421875" y="23.162841796875" id="panel_teleporter_head_p57_p10" class="teleporter_line" transform="rotate(87.65858154743783 74.188232421875 23.162841796875)" />
<line x1="62.5" y1="-262.6953125" x2="74.188232421875" y2="23.162841796875" id="panel_teleporter_line_p57_p10" class="teleporter_line" />
<!-- end group: "panel_teleporter_line_group_poly_p57_p10" -->
</g>
<!-- end group: "panel_teleporter_lines_p57" -->
</g>
<g id="panel_teleporter_lines_p72">
<g id="panel_teleporter_line_group_poly_p72_p64">
<line x1="52.734375" y1="-267.578125" x2="-84.716796875" y2="262.451171875" id="panel_teleporter_border_p72_p64" class="teleporter_border" />
<use xlink:href="../resources/svg/common.svg#arrow" x="-84.716796875" y="262.451171875" id="panel_teleporter_head_p72_p64" class="teleporter_line" transform="rotate(104.53811861066801 -84.716796875 262.451171875)" />
<line x1="52.734375" y1="-267.578125" x2="-84.716796875" y2="262.451171875" id="panel_teleporter_line_p72_p64" class="teleporter_line" />
<!-- end group: "panel_teleporter_line_group_poly_p72_p64" -->
</g>
<!-- end group: "panel_teleporter_lines_p72" -->
</g>
<g id="panel_teleporter_lines_p73">
<g id="panel_teleporter_line_group_poly_p73_p10">
<line x1="42.96875" y1="-271.484375" x2="74.188232421875" y2="23.162841796875" id="panel_teleporter_border_p73_p10" class="teleporter_border" />
<use xlink:href="../resources/svg/common.svg#arrow" x="74.188232421875" y="23.162841796875" id="panel_teleporter_head_p73_p10" class="teleporter_line" transform="rotate(83.95176538525986 74.188232421875 23.162841796875)" />
<line x1="42.96875" y1="-271.484375" x2="74.188232421875" y2="23.162841796875" id="panel_teleporter_line_p73_p10" class="teleporter_line" />
<!-- end group: "panel_teleporter_line_group_poly_p73_p10" -->
</g>
<!-- end group: "panel_teleporter_lines_p73" -->
</g>
<g id="panel_teleporter_lines_p74">
<g id="panel_teleporter_line_group_poly_p74_p87">
<line x1="46.875" y1="-281.25" x2="-181.09130859375" y2="9.46044921875" id="panel_teleporter_border_p74_p87" class="teleporter_border" />
<use xlink:href="../resources/svg/common.svg#arrow" x="-181.09130859375" y="9.46044921875" id="panel_teleporter_head_p74_p87" class="teleporter_line" transform="rotate(128.10246526439565 -181.09130859375 9.46044921875)" />
<line x1="46.875" y1="-281.25" x2="-181.09130859375" y2="9.46044921875" id="panel_teleporter_line_p74_p87" class="teleporter_line" />
<!-- end group: "panel_teleporter_line_group_poly_p74_p87" -->
</g>
<!-- end group: "panel_teleporter_lines_p74" -->
</g>
<g id="panel_teleporter_lines_p75">
<g id="panel_teleporter_line_group_poly_p75_p85">
<line x1="57.6171875" y1="-279.296875" x2="-66.46728515625" y2="-28.594970703125" id="panel_teleporter_border_p75_p85" class="teleporter_border" />
<use xlink:href="../resources/svg/common.svg#arrow" x="-66.46728515625" y="-28.594970703125" id="panel_teleporter_head_p75_p85" class="teleporter_line" transform="rotate(116.33302913841747 -66.46728515625 -28.594970703125)" />
<line x1="57.6171875" y1="-279.296875" x2="-66.46728515625" y2="-28.594970703125" id="panel_teleporter_line_p75_p85" class="teleporter_line" />
<!-- end group: "panel_teleporter_line_group_poly_p75_p85" -->
</g>
<!-- end group: "panel_teleporter_lines_p75" -->
</g>
<g id="panel_teleporter_lines_p76">
<g id="panel_teleporter_line_group_poly_p76_p22">
<line x1="66.40625" y1="-274.4140625" x2="-130.126953125" y2="100.067138671875" id="panel_teleporter_border_p76_p22" class="teleporter_border" />
<use xlink:href="../resources/svg/common.svg#arrow" x="-130.126953125" y="100.067138671875" id="panel_teleporter_head_p76_p22" class="teleporter_line" transform="rotate(117.6911449331844 -130.126953125 100.067138671875)" />
<line x1="66.40625" y1="-274.4140625" x2="-130.126953125" y2="100.067138671875" id="panel_teleporter_line_p76_p22" class="teleporter_line" />
<!-- end group: "panel_teleporter_line_group_poly_p76_p22" -->
</g>
<!-- end group: "panel_teleporter_lines_p76" -->
</g>
<g id="panel_teleporter_lines_p130">
<g id="panel_teleporter_line_group_poly_p130_p59">
<line x1="320.3125" y1="331.0546875" x2="-240.264892578125" y2="-203.125" id="panel_teleporter_border_p130_p59" class="teleporter_border" />
<use xlink:href="../resources/svg/common.svg#arrow" x="-240.264892578125" y="-203.125" id="panel_teleporter_head_p130_p59" class="teleporter_line" transform="rotate(-136.38129644171846 -240.264892578125 -203.125)" />
<line x1="320.3125" y1="331.0546875" x2="-240.264892578125" y2="-203.125" id="panel_teleporter_line_p130_p59" class="teleporter_line" />
<!-- end group: "panel_teleporter_line_group_poly_p130_p59" -->
</g>
<!-- end group: "panel_teleporter_lines_p130" -->
</g>
<!-- end group: "poly_teleporter_lines" -->
</g>
<g id="objects">
<g id="objects_sound">
<use xlink:href="../resources/svg/common.svg#sound" x="-368.65234375" y="-304.19921875" id="object_1" class="sound sound-6" />
<use xlink:href="../resources/svg/common.svg#sound" x="-383.7890625" y="-155.2734375" id="object_2" class="sound sound-6" />
<use xlink:href="../resources/svg/common.svg#sound" x="-237.3046875" y="-322.265625" id="object_3" class="sound sound-6" />
<use xlink:href="../resources/svg/common.svg#sound" x="-145.01953125" y="-323.73046875" id="object_4" class="sound sound-6" />
<use xlink:href="../resources/svg/common.svg#sound" x="-372.0703125" y="-36.62109375" id="object_5" class="sound sound-6" />
<!-- end group: "objects_sound" -->
</g>
<g id="objects_item">
<use xlink:href="../resources/svg/common.svg#item" x="-20.751953125" y="316.162109375" id="object_13" class="item item-9" />
<use xlink:href="../resources/svg/common.svg#item" x="445.556640625" y="163.57421875" id="object_14" class="item item-9" />
<use xlink:href="../resources/svg/common.svg#item" x="346.6796875" y="261.23046875" id="object_15" class="item item-22" />
<use xlink:href="../resources/svg/common.svg#item" x="328.369140625" y="250.244140625" id="object_16" class="item item-22" />
<use xlink:href="../resources/svg/common.svg#item" x="-34.1796875" y="197.75390625" id="object_17" class="item item-22" />
<use xlink:href="../resources/svg/common.svg#item" x="46.38671875" y="120.849609375" id="object_18" class="item item-22" />
<use xlink:href="../resources/svg/common.svg#item" x="209.9609375" y="68.359375" id="object_19" class="item item-22" />
<use xlink:href="../resources/svg/common.svg#item" x="-129.39453125" y="104.98046875" id="object_20" class="item item-22" />
<use xlink:href="../resources/svg/common.svg#item" x="75.68359375" y="-72.021484375" id="object_21" class="item item-22" />
<use xlink:href="../resources/svg/common.svg#item" x="-272.216796875" y="-108.642578125" id="object_22" class="item item-22" />
<use xlink:href="../resources/svg/common.svg#item" x="-338.134765625" y="53.7109375" id="object_23" class="item item-8" />
<use xlink:href="../resources/svg/common.svg#item" x="-84.228515625" y="111.083984375" id="object_24" class="item item-8" />
<use xlink:href="../resources/svg/common.svg#item" x="47.607421875" y="-229.4921875" id="object_25" class="item item-8" />
<use xlink:href="../resources/svg/common.svg#item" x="455.322265625" y="51.26953125" id="object_26" class="item item-8" />
<use xlink:href="../resources/svg/common.svg#item" x="114.74609375" y="28.076171875" id="object_27" class="item item-8" />
<use xlink:href="../resources/svg/common.svg#item" x="57.373046875" y="144.04296875" id="object_28" class="item item-5" />
<use xlink:href="../resources/svg/common.svg#item" x="289.306640625" y="299.072265625" id="object_29" class="item item-5" />
<use xlink:href="../resources/svg/common.svg#item" x="430.908203125" y="78.125" id="object_30" class="item item-5" />
<use xlink:href="../resources/svg/common.svg#item" x="69.580078125" y="-108.642578125" id="object_31" class="item item-5" />
<use xlink:href="../resources/svg/common.svg#item" x="-106.201171875" y="90.33203125" id="object_32" class="item item-5" />
<use xlink:href="../resources/svg/common.svg#item" x="-261.23046875" y="-136.71875" id="object_33" class="item item-5" />
<use xlink:href="../resources/svg/common.svg#item" x="-362.548828125" y="-3.662109375" id="object_34" class="item item-5" />
<use xlink:href="../resources/svg/common.svg#item" x="4.8828125" y="328.369140625" id="object_35" class="item item-23" />
<use xlink:href="../resources/svg/common.svg#item" x="29.296875" y="340.576171875" id="object_36" class="item item-23" />
<use xlink:href="../resources/svg/common.svg#item" x="379.638671875" y="202.63671875" id="object_37" class="item item-23" />
<use xlink:href="../resources/svg/common.svg#item" x="234.375" y="344.23828125" id="object_38" class="item item-23" />
<use xlink:href="../resources/svg/common.svg#item" x="91.552734375" y="247.802734375" id="object_39" class="item item-23" />
<use xlink:href="../resources/svg/common.svg#item" x="264.892578125" y="65.91796875" id="object_40" class="item item-23" />
<use xlink:href="../resources/svg/common.svg#item" x="242.919921875" y="41.50390625" id="object_41" class="item item-23" />
<use xlink:href="../resources/svg/common.svg#item" x="214.84375" y="20.751953125" id="object_42" class="item item-23" />
<use xlink:href="../resources/svg/common.svg#item" x="178.22265625" y="2.44140625" id="object_43" class="item item-23" />
<use xlink:href="../resources/svg/common.svg#item" x="141.6015625" y="-12.20703125" id="object_44" class="item item-23" />
<use xlink:href="../resources/svg/common.svg#item" x="104.98046875" y="-20.751953125" id="object_45" class="item item-23" />
<use xlink:href="../resources/svg/common.svg#item" x="63.4765625" y="229.4921875" id="object_46" class="item item-23" />
<use xlink:href="../resources/svg/common.svg#item" x="41.50390625" y="205.078125" id="object_47" class="item item-23" />
<use xlink:href="../resources/svg/common.svg#item" x="25.634765625" y="180.6640625" id="object_48" class="item item-23" />
<use xlink:href="../resources/svg/common.svg#item" x="9.765625" y="156.25" id="object_49" class="item item-23" />
<use xlink:href="../resources/svg/common.svg#item" x="-1.220703125" y="125.732421875" id="object_50" class="item item-23" />
<use xlink:href="../resources/svg/common.svg#item" x="140.380859375" y="31.73828125" id="object_51" class="item item-23" />
<use xlink:href="../resources/svg/common.svg#item" x="158.69140625" y="39.0625" id="object_52" class="item item-23" />
<use xlink:href="../resources/svg/common.svg#item" x="-108.642578125" y="239.2578125" id="object_53" class="item item-23" />
<use xlink:href="../resources/svg/common.svg#item" x="-134.27734375" y="270.99609375" id="object_54" class="item item-23" />
<use xlink:href="../resources/svg/common.svg#item" x="-98.388671875" y="-84.47265625" id="object_55" class="item item-23" />
<use xlink:href="../resources/svg/common.svg#item" x="-117.67578125" y="-63.96484375" id="object_56" class="item item-23" />
<use xlink:href="../resources/svg/common.svg#item" x="-76.66015625" y="-63.720703125" id="object_57" class="item item-23" />
<use xlink:href="../resources/svg/common.svg#item" x="-94.7265625" y="-41.259765625" id="object_58" class="item item-23" />
<use xlink:href="../resources/svg/common.svg#item" x="-209.9609375" y="-323.486328125" id="object_59" class="item item-23" />
<use xlink:href="../resources/svg/common.svg#item" x="-286.865234375" y="-323.486328125" id="object_60" class="item item-23" />
<use xlink:href="../resources/svg/common.svg#item" x="-384.521484375" y="-220.947265625" id="object_61" class="item item-23" />
<use xlink:href="../resources/svg/common.svg#item" x="-385.7421875" y="-177.001953125" id="object_62" class="item item-23" />
<use xlink:href="../resources/svg/common.svg#item" x="-384.521484375" y="-86.669921875" id="object_63" class="item item-23" />
<use xlink:href="../resources/svg/common.svg#item" x="-250.244140625" y="-322.265625" id="object_64" class="item item-7" />
<use xlink:href="../resources/svg/common.svg#item" x="-162.353515625" y="-321.044921875" id="object_65" class="item item-7" />
<use xlink:href="../resources/svg/common.svg#item" x="-357.666015625" y="-292.96875" id="object_66" class="item item-7" />
<use xlink:href="../resources/svg/common.svg#item" x="-384.521484375" y="-130.615234375" id="object_67" class="item item-7" />
<use xlink:href="../resources/svg/common.svg#item" x="-352.783203125" y="39.0625" id="object_68" class="item item-7" />
<use xlink:href="../resources/svg/common.svg#item" x="-250.244140625" y="-115.966796875" id="object_69" class="item item-7" />
<use xlink:href="../resources/svg/common.svg#item" x="294.189453125" y="258.7890625" id="object_70" class="item item-7" />
<use xlink:href="../resources/svg/common.svg#item" x="444.3359375" y="91.552734375" id="object_71" class="item item-7" />
<use xlink:href="../resources/svg/common.svg#item" x="162.353515625" y="382.080078125" id="object_72" class="item item-6" />
<use xlink:href="../resources/svg/common.svg#item" x="61.03515625" y="-87.890625" id="object_73" class="item item-6" />
<use xlink:href="../resources/svg/common.svg#item" x="-330.810546875" y="32.958984375" id="object_74" class="item item-6" />
<use xlink:href="../resources/svg/common.svg#item" x="76.904296875" y="238.037109375" id="object_75" class="item item-2" />
<use xlink:href="../resources/svg/common.svg#item" x="229.4921875" y="29.296875" id="object_76" class="item item-2" />
<use xlink:href="../resources/svg/common.svg#item" x="158.69140625" y="-7.32421875" id="object_77" class="item item-2" />
<use xlink:href="../resources/svg/common.svg#item" x="15.869140625" y="169.677734375" id="object_78" class="item item-2" />
<use xlink:href="../resources/svg/common.svg#item" x="327.1484375" y="219.7265625" id="object_79" class="item item-2" />
<use xlink:href="../resources/svg/common.svg#item" x="250.244140625" y="294.189453125" id="object_80" class="item item-2" />
<use xlink:href="../resources/svg/common.svg#item" x="-382.080078125" y="-266.11328125" id="object_81" class="item item-2" />
<use xlink:href="../resources/svg/common.svg#item" x="-327.1484375" y="-319.82421875" id="object_82" class="item item-2" />
<use xlink:href="../resources/svg/common.svg#item" x="-97.65625" y="-307.6171875" id="object_83" class="item item-22" />
<use xlink:href="../resources/svg/common.svg#item" x="-96.6796875" y="-62.5" id="object_84" class="item item-27" />
<!-- end group: "objects_item" -->
</g>
<g id="objects_player">
<use xlink:href="../resources/svg/common.svg#monster" x="-347.16796875" y="17.822265625" id="object_0" class="player" transform="rotate(333.984375 -347.16796875 17.822265625)" />
<use xlink:href="../resources/svg/common.svg#monster" x="38.0859375" y="-237.3046875" id="object_6" class="player" transform="rotate(119.53125 38.0859375 -237.3046875)" />
<use xlink:href="../resources/svg/common.svg#monster" x="-60.05859375" y="209.47265625" id="object_7" class="player" transform="rotate(319.921875 -60.05859375 209.47265625)" />
<use xlink:href="../resources/svg/common.svg#monster" x="310.272216796875" y="319.122314453125" id="object_8" class="player" transform="rotate(229.921875 310.272216796875 319.122314453125)" />
<use xlink:href="../resources/svg/common.svg#monster" x="524.4140625" y="145.01953125" id="object_9" class="player" transform="rotate(229.921875 524.4140625 145.01953125)" />
<use xlink:href="../resources/svg/common.svg#monster" x="-188.96484375" y="-149.4140625" id="object_10" class="player" transform="rotate(52.734375 -188.96484375 -149.4140625)" />
<use xlink:href="../resources/svg/common.svg#monster" x="105.46875" y="87.890625" id="object_11" class="player" transform="rotate(45.703125 105.46875 87.890625)" />
<use xlink:href="../resources/svg/common.svg#monster" x="361.2060546875" y="280.120849609375" id="object_12" class="player" transform="rotate(225.703125 361.2060546875 280.120849609375)" />
<!-- end group: "objects_player" -->
</g>
<!-- end group: "objects" -->
</g>
<g id="panels">
<!-- end group: "panels" -->
</g>
<g id="annotations">
<text x="-129.8828125" y="-53.7109375" id="annotation_0" class="annotation">Shotgun Alley</text>
<text x="12.6953125" y="-236.328125" id="annotation_1" class="annotation">Sniper Room</text>
<text x="457.03125" y="104.4921875" id="annotation_2" class="annotation">Loran's</text>
<text x="483.3984375" y="122.0703125" id="annotation_3" class="annotation">Gate</text>
<text x="-268.5546875" y="-315.4296875" id="annotation_4" class="annotation">The Showers</text>
<text x="-353.515625" y="20.5078125" id="annotation_5" class="annotation">The Dump</text>
<!-- end group: "annotations" -->
</g>

<script xlink:href="../resources/js/level.js" ></script>
</svg>