<?xml version="1.0" encoding="UTF-8"?>
<!-- generated by map2svg: github.com/fracai/marathon-svg -->
<svg xmlns="http://www.w3.org/2000/svg" xmlns:xlink="http://www.w3.org/1999/xlink" version="1.1"
    viewBox="-250.0 -292.96875 968.75 722.65625">
<link xmlns="http://www.w3.org/1999/xhtml" rel="stylesheet" href="../resources/css/styles.css" type="text/css" />
<style id="dynamic-style" />
<g id="background-grid">
<defs>
<pattern id="grid_minor" width="3.125" height="3.125" patternUnits="userSpaceOnUse">
<path d="M 3.125 0 L 0 0 0 3.125" fill="none" class="grid_minor" />
</pattern>
<pattern id="grid_major" width="31.25" height="31.25" patternUnits="userSpaceOnUse">
<rect width="31.25" height="31.25" fill="url(#grid_minor)"/>
<path d="M 31.25 0 L 0 0 0 31.25" fill="none" class="grid_major" />
</pattern>
</defs>
<rect x="-1000" y="-1000" width="2000" height="2000" fill="url(#grid_major)" />
<line x1="0" y1="1000" x2="0" y2="-1000" class="grid_origin" />
<line x1="1000" y1="0" x2="-1000" y2="0" class="grid_origin" />
<!-- end group: "background-grid" -->
</g>
<g id="polygons">
<polygon points="367.1875,-58.59375 386.71875,-58.59375 390.625,-42.96875 363.28125,-42.96875" id="poly_54" class="sewage" />
<polygon points="417.96875,183.59375 453.125,148.4375 523.4375,218.75 417.96875,218.75" id="poly_30" class="sewage" />
<polygon points="484.375,359.375 523.4375,359.375 523.4375,398.4375 484.375,398.4375" id="poly_38" class="sewage" />
<polygon points="484.375,351.5625 523.4375,351.5625 523.4375,359.375 484.375,359.375" id="poly_39" class="sewage" />
<polygon points="375.0,218.75 417.96875,218.75 523.4375,218.75 523.4375,351.5625 484.375,351.5625 382.8125,351.5625" id="poly_40" class="sewage" />
<polygon points="363.28125,-42.96875 390.625,-42.96875 390.625,27.34375 367.00439453125,78.61328125 343.75,62.5 343.75,23.4375" id="poly_47" class="sewage" />
<polygon points="523.4375,218.75 574.21875,218.75 574.21875,300.78125 523.4375,351.5625" id="poly_43" class="sewage" />
<polygon points="125.0,218.75 242.1875,218.75 375.0,218.75 382.8125,351.5625 105.46875,351.5625" id="poly_46" class="sewage" />
<polygon points="304.6875,23.4375 332.03125,23.4375 332.03125,105.46875 304.6875,105.46875" id="poly_28" class="sewage" />
<polygon points="304.6875,105.46875 332.03125,105.46875 453.125,148.4375 417.96875,183.59375 304.6875,140.625" id="poly_29" class="sewage" />
<polygon points="27.34375,324.21875 125.0,218.75 105.46875,351.5625" id="poly_0" class="sewage" />
<polygon points="574.21875,218.75 585.9375,214.84375 585.9375,296.875 574.21875,300.78125" id="poly_44" class="sewage" />
<polygon points="-39.0625,-27.34375 -27.34375,-31.25 -27.34375,0.0 -39.0625,-3.90625" id="poly_25" class="sewage" />
<polygon points="-27.34375,-31.25 7.8125,-31.25 -7.8125,0.0 -27.34375,0.0" id="poly_48" class="sewage" />
<polygon points="292.96875,105.46875 304.6875,105.46875 304.6875,140.625 292.96875,128.90625" id="poly_52" class="sewage" />
<polygon points="-3.90625,265.625 -19.53125,148.4375 -19.53125,66.40625 125.0,62.5 125.0,218.75 27.34375,324.21875" id="poly_1" class="sewage" />
<polygon points="109.375,15.625 195.3125,7.8125 257.8125,7.8125 292.96875,23.4375 292.96875,62.5 125.0,62.5" id="poly_3" class="sewage" />
<polygon points="93.75,-78.125 195.3125,-54.6875 195.3125,7.8125 109.375,15.625" id="poly_5" class="sewage" />
<polygon points="-7.8125,0.0 109.375,15.625 125.0,62.5 -19.53125,66.40625" id="poly_6" class="sewage" />
<polygon points="93.75,-125.0 160.15625,-207.03125 195.3125,-54.6875 93.75,-78.125" id="poly_9" class="sewage" />
<polygon points="160.15625,-207.03125 269.53125,-207.03125 257.8125,-54.6875 195.3125,-54.6875" id="poly_12" class="sewage" />
<polygon points="269.53125,-207.03125 305.419921875,-171.38671875 328.125,-132.8125 328.125,-74.21875 328.125,-42.96875 257.8125,7.8125 257.8125,-54.6875" id="poly_14" class="sewage" />
<polygon points="328.125,-42.96875 363.28125,-42.96875 343.75,23.4375 332.03125,23.4375 304.6875,23.4375 292.96875,23.4375 257.8125,7.8125" id="poly_31" class="sewage" />
<polygon points="585.9375,214.84375 597.65625,210.9375 597.65625,292.96875 585.9375,296.875" id="poly_45" class="sewage" />
<polygon points="7.8125,-31.25 54.6875,-78.125 93.75,-78.125 109.375,15.625 -7.8125,0.0" id="poly_57" class="sewage" />
<polygon points="195.3125,-54.6875 257.8125,-54.6875 257.8125,7.8125 195.3125,7.8125" id="poly_4" class="sewage" />
<polygon points="257.8125,105.46875 292.96875,105.46875 292.96875,128.90625 257.8125,128.90625" id="poly_53" class="sewage" />
<polygon points="597.65625,210.9375 609.375,207.03125 609.375,289.0625 597.65625,292.96875" id="poly_49" class="sewage" />
<polygon points="609.375,207.03125 687.5,207.03125 687.5,289.0625 609.375,289.0625" id="poly_50" class="sewage" />
<polygon points="74.21875,-230.46875 101.5625,-218.75 66.40625,-160.15625 39.0625,-171.875" id="poly_13" class="plain" />
<polygon points="-175.78125,-261.71875 3.90625,-261.71875 74.21875,-230.46875 39.0625,-171.875 -82.03125,-121.09375" id="poly_22" class="plain" />
<polygon points="-175.78125,-261.71875 -82.03125,-121.09375 -109.375,35.15625 -218.75,50.78125" id="poly_23" class="plain" />
<polygon points="-109.375,35.15625 -62.5,66.40625 -82.03125,140.625 -218.75,50.78125" id="poly_24" class="plain" />
<polygon points="-82.03125,-121.09375 39.0625,-171.875 23.4375,-148.4375 -46.875,-121.09375" id="poly_33" class="plain" />
<polygon points="-46.875,-121.09375 23.4375,-148.4375 32.2265625,-94.7265625 -27.34375,-71.2890625" id="poly_34" class="plain" />
<polygon points="54.6875,-140.625 93.75,-125.0 93.75,-78.125 54.6875,-78.125" id="poly_8" class="plain" />
<polygon points="54.6875,-140.625 66.40625,-160.15625 101.5625,-218.75 148.4375,-242.1875 160.15625,-207.03125 93.75,-125.0" id="poly_10" class="plain" />
<polygon points="148.4375,-242.1875 269.53125,-242.1875 269.53125,-207.03125 160.15625,-207.03125" id="poly_11" class="plain" />
<polygon points="-62.5,66.40625 -19.53125,66.40625 -19.53125,148.4375 -82.03125,140.625" id="poly_7" class="plain" />
<polygon points="269.53125,-242.1875 296.875,-242.1875 300.78125,-238.28125 269.53125,-207.03125" id="poly_74" class="plain" />
<polygon points="156.25,125.0 187.5,125.0 187.5,156.25 156.25,156.25" id="poly_2" class="plain" />
<polygon points="328.125,-132.8125 359.375,-132.8125 359.375,-74.21875 328.125,-74.21875" id="poly_15" class="plain" />
<polygon points="359.375,-74.21875 359.375,-132.8125 433.59375,-132.8125 394.53125,-74.21875" id="poly_16" class="plain" />
<polygon points="363.28125,125.0 394.53125,70.3125 433.59375,62.5 382.8125,156.25" id="poly_17" class="plain" />
<polygon points="250.0,121.09375 281.25,121.09375 281.25,125.0 250.0,125.0" id="poly_21" class="plain" />
<polygon points="394.53125,-74.21875 433.59375,-132.8125 433.59375,-39.0625 394.53125,-42.96875" id="poly_60" class="plain" />
<polygon points="394.53125,-42.96875 433.59375,-39.0625 433.59375,11.71875 433.59375,62.5 394.53125,70.3125 394.53125,27.34375" id="poly_61" class="plain" />
<polygon points="281.25,125.0 363.28125,125.0 382.8125,156.25 289.0625,156.25" id="poly_62" class="plain" />
<polygon points="250.0,125.0 281.25,125.0 289.0625,156.25 250.0,156.25" id="poly_63" class="plain" />
<polygon points="187.5,125.0 250.0,125.0 250.0,156.25 187.5,156.25" id="poly_64" class="plain" />
<polygon points="242.1875,187.5 375.0,187.5 375.0,195.3125 375.0,210.9375 375.0,218.75 242.1875,218.75" id="poly_75" class="plain" />
<polygon points="125.0,62.5 292.96875,62.5 343.75,62.5 367.00439453125,78.61328125 351.5625,93.75 250.0,93.75 187.5,93.75 156.25,93.75" id="poly_27" class="plain" />
<polygon points="125.0,62.5 156.25,93.75 156.25,125.0 140.625,117.1875" id="poly_65" class="plain" />
<polygon points="125.0,62.5 140.625,117.1875 140.625,199.21875 125.0,218.75" id="poly_66" class="plain" />
<polygon points="140.625,117.1875 156.25,125.0 156.25,156.25 156.25,187.5 140.625,199.21875" id="poly_67" class="plain" />
<polygon points="156.25,187.5 187.5,187.5 203.125,203.125 140.625,199.21875" id="poly_68" class="plain" />
<polygon points="140.625,199.21875 203.125,203.125 242.1875,218.75 125.0,218.75" id="poly_69" class="plain" />
<polygon points="187.5,187.5 242.1875,187.5 242.1875,218.75 203.125,203.125" id="poly_70" class="plain" />
<polygon points="250.0,97.65625 281.25,97.65625 281.25,121.09375 250.0,121.09375" id="poly_20" class="platform" />
<polygon points="390.625,-42.96875 394.53125,-42.96875 394.53125,27.34375 390.625,27.34375" id="poly_18" class="plain" />
<polygon points="375.0,195.3125 378.90625,195.3125 378.90625,210.9375 375.0,210.9375" id="poly_35" class="plain" />
<polygon points="382.8125,351.5625 484.375,351.5625 433.59375,355.46875" id="poly_59" class="plain" />
<polygon points="382.8125,359.375 417.96875,359.375 417.96875,398.4375 363.28125,398.4375" id="poly_36" class="plain" />
<polygon points="417.96875,359.375 484.375,359.375 484.375,398.4375 417.96875,398.4375" id="poly_37" class="plain" />
<polygon points="-82.03125,140.625 -19.53125,148.4375 -3.90625,265.625 -66.40625,308.59375" id="poly_26" class="plain" />
<polygon points="187.5,97.65625 250.0,97.65625 250.0,121.09375 242.1875,121.09375 187.5,121.09375" id="poly_41" class="plain" />
<polygon points="269.53125,-207.03125 300.78125,-238.28125 335.9375,-203.125 305.419921875,-171.38671875" id="poly_51" class="plain" />
<polygon points="-3.90625,265.625 27.34375,324.21875 -15.625,375.0 -66.40625,308.59375" id="poly_55" class="plain" />
<polygon points="27.34375,324.21875 105.46875,351.5625 101.5625,398.4375 -15.625,375.0" id="poly_56" class="plain" />
<polygon points="105.46875,351.5625 382.8125,351.5625 382.8125,359.375 363.28125,398.4375 347.65625,398.4375 101.5625,398.4375" id="poly_58" class="plain" />
<polygon points="195.3125,175.78125 234.375,175.78125 242.1875,183.59375 187.5,183.59375" id="poly_71" class="plain" />
<polygon points="187.5,121.09375 242.1875,121.09375 234.375,128.90625 195.3125,128.90625" id="poly_73" class="plain" />
<polygon points="160.15625,97.65625 187.5,97.65625 187.5,121.09375 160.15625,121.09375" id="poly_32" class="plain" />
<polygon points="195.3125,128.90625 234.375,128.90625 234.375,175.78125 195.3125,175.78125" id="poly_72" class="hill" />
<polygon points="187.5,93.75 250.0,93.75 250.0,97.65625 187.5,97.65625" id="poly_19" class="plain" />
<polygon points="187.5,183.59375 242.1875,183.59375 242.1875,187.5 187.5,187.5" id="poly_42" class="plain" />
<!-- end group: "polygons" -->
</g>
<g id="borders">
<g id="border_landscape_">
<line x1="292.96875" y1="62.5" x2="125.0" y2="62.5" id="line_26" class="landscape_" />
<line x1="187.5" y1="93.75" x2="250.0" y2="93.75" id="line_89" class="landscape_" />
<!-- end group: "border_landscape_" -->
</g>
<g id="border_plain">
<line x1="187.5" y1="125.0" x2="187.5" y2="156.25" id="line_3" class="plain" />
<line x1="-7.8125" y1="0.0" x2="109.375" y2="15.625" id="line_12" class="plain" />
<line x1="109.375" y1="15.625" x2="93.75" y2="-78.125" id="line_13" class="plain" />
<line x1="359.375" y1="-132.8125" x2="359.375" y2="-74.21875" id="line_23" class="plain" />
<line x1="54.6875" y1="-140.625" x2="93.75" y2="-125.0" id="line_31" class="plain" />
<line x1="39.0625" y1="-171.875" x2="74.21875" y2="-230.46875" id="line_39" class="plain" />
<line x1="148.4375" y1="-242.1875" x2="160.15625" y2="-207.03125" id="line_42" class="plain" />
<line x1="257.8125" y1="7.8125" x2="292.96875" y2="23.4375" id="line_43" class="plain" />
<line x1="328.125" y1="-42.96875" x2="257.8125" y2="7.8125" id="line_45" class="plain" />
<line x1="156.25" y1="93.75" x2="125.0" y2="62.5" id="line_46" class="plain" />
<line x1="140.625" y1="199.21875" x2="125.0" y2="218.75" id="line_47" class="plain" />
<line x1="109.375" y1="15.625" x2="195.3125" y2="7.8125" id="line_48" class="plain" />
<line x1="125.0" y1="62.5" x2="109.375" y2="15.625" id="line_49" class="plain" />
<line x1="-19.53125" y1="66.40625" x2="125.0" y2="62.5" id="line_51" class="plain" />
<line x1="93.75" y1="-78.125" x2="195.3125" y2="-54.6875" id="line_55" class="plain" />
<line x1="160.15625" y1="-207.03125" x2="195.3125" y2="-54.6875" id="line_59" class="plain" />
<line x1="269.53125" y1="-207.03125" x2="257.8125" y2="-54.6875" id="line_60" class="plain" />
<line x1="382.8125" y1="156.25" x2="363.28125" y2="125.0" id="line_69" class="plain" />
<line x1="394.53125" y1="70.3125" x2="433.59375" y2="62.5" id="line_71" class="plain" />
<line x1="433.59375" y1="-132.8125" x2="394.53125" y2="-74.21875" id="line_73" class="plain" />
<line x1="105.46875" y1="351.5625" x2="101.5625" y2="398.4375" id="line_76" class="plain" />
<line x1="-3.90625" y1="265.625" x2="-66.40625" y2="308.59375" id="line_77" class="plain" />
<line x1="-27.34375" y1="-31.25" x2="-27.34375" y2="0.0" id="line_80" class="plain" />
<line x1="281.25" y1="125.0" x2="250.0" y2="125.0" id="line_101" class="plain" />
<line x1="39.0625" y1="-171.875" x2="-82.03125" y2="-121.09375" id="line_103" class="plain" />
<line x1="-109.375" y1="35.15625" x2="-218.75" y2="50.78125" id="line_107" class="plain" />
<line x1="-82.03125" y1="-121.09375" x2="-175.78125" y2="-261.71875" id="line_109" class="plain" />
<line x1="332.03125" y1="105.46875" x2="304.6875" y2="105.46875" id="line_118" class="plain" />
<line x1="23.4375" y1="-148.4375" x2="-46.875" y2="-121.09375" id="line_134" class="plain" />
<line x1="417.96875" y1="359.375" x2="417.96875" y2="398.4375" id="line_149" class="plain" />
<line x1="27.34375" y1="324.21875" x2="-15.625" y2="375.0" id="line_205" class="plain" />
<line x1="433.59375" y1="355.46875" x2="382.8125" y2="351.5625" id="line_206" class="plain" />
<line x1="484.375" y1="351.5625" x2="433.59375" y2="355.46875" id="line_207" class="plain" />
<line x1="433.59375" y1="-39.0625" x2="394.53125" y2="-42.96875" id="line_209" class="plain" />
<line x1="250.0" y1="156.25" x2="250.0" y2="125.0" id="line_212" class="plain" />
<line x1="289.0625" y1="156.25" x2="281.25" y2="125.0" id="line_214" class="plain" />
<line x1="156.25" y1="187.5" x2="140.625" y2="199.21875" id="line_215" class="plain" />
<line x1="187.5" y1="187.5" x2="203.125" y2="203.125" id="line_216" class="plain" />
<line x1="203.125" y1="203.125" x2="242.1875" y2="218.75" id="line_217" class="plain" />
<line x1="203.125" y1="203.125" x2="140.625" y2="199.21875" id="line_218" class="plain" />
<line x1="140.625" y1="117.1875" x2="125.0" y2="62.5" id="line_219" class="plain" />
<line x1="156.25" y1="125.0" x2="140.625" y2="117.1875" id="line_220" class="plain" />
<line x1="140.625" y1="117.1875" x2="140.625" y2="199.21875" id="line_221" class="plain" />
<!-- end group: "border_plain" -->
</g>
<g id="border_ceiling">
<line x1="156.25" y1="156.25" x2="156.25" y2="125.0" id="line_1" class="ceiling" />
<line x1="-82.03125" y1="140.625" x2="-62.5" y2="66.40625" id="line_9" class="ceiling" />
<line x1="269.53125" y1="-242.1875" x2="269.53125" y2="-207.03125" id="line_34" class="ceiling" />
<line x1="66.40625" y1="-160.15625" x2="101.5625" y2="-218.75" id="line_40" class="ceiling" />
<line x1="523.4375" y1="218.75" x2="417.96875" y2="218.75" id="line_128" class="ceiling" />
<line x1="363.28125" y1="398.4375" x2="382.8125" y2="359.375" id="line_146" class="ceiling" />
<line x1="484.375" y1="351.5625" x2="523.4375" y2="351.5625" id="line_151" class="ceiling" />
<line x1="242.1875" y1="187.5" x2="242.1875" y2="218.75" id="line_180" class="ceiling" />
<line x1="363.28125" y1="-42.96875" x2="390.625" y2="-42.96875" id="line_181" class="ceiling" />
<line x1="7.8125" y1="-31.25" x2="-7.8125" y2="0.0" id="line_185" class="ceiling" />
<!-- end group: "border_ceiling" -->
</g>
<g id="border_elevation">
<line x1="343.75" y1="62.5" x2="367.00439453125" y2="78.61328125" id="line_6" class="elevation" />
<line x1="125.0" y1="62.5" x2="125.0" y2="218.75" id="line_7" class="elevation" />
<line x1="-19.53125" y1="148.4375" x2="-82.03125" y2="140.625" id="line_8" class="elevation" />
<line x1="-19.53125" y1="148.4375" x2="-19.53125" y2="66.40625" id="line_11" class="elevation" />
<line x1="93.75" y1="-78.125" x2="54.6875" y2="-78.125" id="line_14" class="elevation" />
<line x1="328.125" y1="-132.8125" x2="328.125" y2="-74.21875" id="line_21" class="elevation" />
<line x1="93.75" y1="-125.0" x2="160.15625" y2="-207.03125" id="line_32" class="elevation" />
<line x1="269.53125" y1="-207.03125" x2="160.15625" y2="-207.03125" id="line_33" class="elevation" />
<line x1="363.28125" y1="-42.96875" x2="343.75" y2="23.4375" id="line_44" class="elevation" />
<line x1="-3.90625" y1="265.625" x2="-19.53125" y2="148.4375" id="line_52" class="elevation" />
<line x1="27.34375" y1="324.21875" x2="-3.90625" y2="265.625" id="line_53" class="elevation" />
<line x1="27.34375" y1="324.21875" x2="125.0" y2="218.75" id="line_54" class="elevation" />
<line x1="269.53125" y1="-207.03125" x2="305.419921875" y2="-171.38671875" id="line_56" class="elevation" />
<line x1="93.75" y1="-125.0" x2="93.75" y2="-78.125" id="line_58" class="elevation" />
<line x1="105.46875" y1="351.5625" x2="27.34375" y2="324.21875" id="line_61" class="elevation" />
<line x1="382.8125" y1="351.5625" x2="105.46875" y2="351.5625" id="line_62" class="elevation" />
<line x1="382.8125" y1="351.5625" x2="375.0" y2="218.75" id="line_63" class="elevation" />
<line x1="125.0" y1="218.75" x2="105.46875" y2="351.5625" id="line_64" class="elevation" />
<line x1="390.625" y1="27.34375" x2="390.625" y2="-42.96875" id="line_82" class="elevation" />
<line x1="394.53125" y1="-42.96875" x2="394.53125" y2="27.34375" id="line_85" class="elevation" />
<line x1="250.0" y1="97.65625" x2="187.5" y2="97.65625" id="line_91" class="elevation" />
<line x1="187.5" y1="97.65625" x2="187.5" y2="121.09375" id="line_94" class="elevation" />
<line x1="304.6875" y1="23.4375" x2="332.03125" y2="23.4375" id="line_119" class="elevation" />
<line x1="304.6875" y1="140.625" x2="304.6875" y2="105.46875" id="line_122" class="elevation" />
<line x1="453.125" y1="148.4375" x2="417.96875" y2="183.59375" id="line_124" class="elevation" />
<line x1="523.4375" y1="218.75" x2="523.4375" y2="351.5625" id="line_129" class="elevation" />
<line x1="375.0" y1="210.9375" x2="375.0" y2="195.3125" id="line_140" class="elevation" />
<line x1="242.1875" y1="121.09375" x2="187.5" y2="121.09375" id="line_162" class="elevation" />
<line x1="242.1875" y1="187.5" x2="187.5" y2="187.5" id="line_164" class="elevation" />
<line x1="187.5" y1="183.59375" x2="242.1875" y2="183.59375" id="line_167" class="elevation" />
<line x1="574.21875" y1="218.75" x2="574.21875" y2="300.78125" id="line_170" class="elevation" />
<line x1="585.9375" y1="214.84375" x2="585.9375" y2="296.875" id="line_173" class="elevation" />
<line x1="597.65625" y1="210.9375" x2="597.65625" y2="292.96875" id="line_176" class="elevation" />
<line x1="125.0" y1="218.75" x2="242.1875" y2="218.75" id="line_178" class="elevation" />
<line x1="242.1875" y1="218.75" x2="375.0" y2="218.75" id="line_179" class="elevation" />
<line x1="609.375" y1="207.03125" x2="609.375" y2="289.0625" id="line_187" class="elevation" />
<line x1="269.53125" y1="-207.03125" x2="300.78125" y2="-238.28125" id="line_192" class="elevation" />
<line x1="292.96875" y1="128.90625" x2="292.96875" y2="105.46875" id="line_196" class="elevation" />
<line x1="195.3125" y1="128.90625" x2="234.375" y2="128.90625" id="line_224" class="elevation" />
<line x1="195.3125" y1="175.78125" x2="234.375" y2="175.78125" id="line_228" class="elevation" />
<!-- end group: "border_elevation" -->
</g>
<g id="border_solid">
<line x1="156.25" y1="93.75" x2="156.25" y2="125.0" id="line_0" class="solid" />
<line x1="156.25" y1="125.0" x2="187.5" y2="125.0" id="line_2" class="solid" />
<line x1="156.25" y1="156.25" x2="156.25" y2="187.5" id="line_4" class="solid" />
<line x1="187.5" y1="156.25" x2="156.25" y2="156.25" id="line_5" class="solid" />
<line x1="-62.5" y1="66.40625" x2="-19.53125" y2="66.40625" id="line_10" class="solid" />
<line x1="195.3125" y1="7.8125" x2="257.8125" y2="7.8125" id="line_15" class="solid" />
<line x1="257.8125" y1="-54.6875" x2="257.8125" y2="7.8125" id="line_16" class="solid" />
<line x1="195.3125" y1="-54.6875" x2="257.8125" y2="-54.6875" id="line_17" class="solid" />
<line x1="195.3125" y1="7.8125" x2="195.3125" y2="-54.6875" id="line_18" class="solid" />
<line x1="328.125" y1="-42.96875" x2="363.28125" y2="-42.96875" id="line_19" class="solid" />
<line x1="305.419921875" y1="-171.38671875" x2="328.125" y2="-132.8125" id="line_20" class="solid" />
<line x1="328.125" y1="-132.8125" x2="359.375" y2="-132.8125" id="line_22" class="solid" />
<line x1="328.125" y1="-74.21875" x2="328.125" y2="-42.96875" id="line_24" class="solid" />
<line x1="359.375" y1="-74.21875" x2="328.125" y2="-74.21875" id="line_25" class="solid" />
<line x1="292.96875" y1="23.4375" x2="292.96875" y2="62.5" id="line_27" class="solid" />
<line x1="343.75" y1="23.4375" x2="332.03125" y2="23.4375" id="line_28" class="solid" />
<line x1="292.96875" y1="62.5" x2="343.75" y2="62.5" id="line_29" class="solid" />
<line x1="343.75" y1="62.5" x2="343.75" y2="23.4375" id="line_30" class="solid" />
<line x1="148.4375" y1="-242.1875" x2="269.53125" y2="-242.1875" id="line_35" class="solid" />
<line x1="101.5625" y1="-218.75" x2="148.4375" y2="-242.1875" id="line_36" class="solid" />
<line x1="54.6875" y1="-140.625" x2="66.40625" y2="-160.15625" id="line_37" class="solid" />
<line x1="66.40625" y1="-160.15625" x2="39.0625" y2="-171.875" id="line_38" class="solid" />
<line x1="74.21875" y1="-230.46875" x2="101.5625" y2="-218.75" id="line_41" class="solid" />
<line x1="-19.53125" y1="66.40625" x2="-7.8125" y2="0.0" id="line_50" class="solid" />
<line x1="54.6875" y1="-78.125" x2="54.6875" y2="-140.625" id="line_57" class="solid" />
<line x1="367.00439453125" y1="78.61328125" x2="351.5625" y2="93.75" id="line_65" class="solid" />
<line x1="394.53125" y1="-74.21875" x2="359.375" y2="-74.21875" id="line_66" class="solid" />
<line x1="363.28125" y1="125.0" x2="394.53125" y2="70.3125" id="line_67" class="solid" />
<line x1="382.8125" y1="156.25" x2="289.0625" y2="156.25" id="line_68" class="solid" />
<line x1="433.59375" y1="62.5" x2="382.8125" y2="156.25" id="line_70" class="solid" />
<line x1="433.59375" y1="-132.8125" x2="433.59375" y2="-39.0625" id="line_72" class="solid" />
<line x1="359.375" y1="-132.8125" x2="433.59375" y2="-132.8125" id="line_74" class="solid" />
<line x1="347.65625" y1="398.4375" x2="101.5625" y2="398.4375" id="line_75" class="solid" />
<line x1="-15.625" y1="375.0" x2="-66.40625" y2="308.59375" id="line_78" class="solid" />
<line x1="-7.8125" y1="0.0" x2="-27.34375" y2="0.0" id="line_79" class="solid" />
<line x1="394.53125" y1="70.3125" x2="394.53125" y2="27.34375" id="line_81" class="solid" />
<line x1="394.53125" y1="-42.96875" x2="394.53125" y2="-74.21875" id="line_83" class="solid" />
<line x1="390.625" y1="-42.96875" x2="394.53125" y2="-42.96875" id="line_84" class="solid" />
<line x1="394.53125" y1="27.34375" x2="390.625" y2="27.34375" id="line_86" class="solid" />
<line x1="187.5" y1="93.75" x2="156.25" y2="93.75" id="line_87" class="solid" />
<line x1="281.25" y1="125.0" x2="363.28125" y2="125.0" id="line_88" class="solid" />
<line x1="187.5" y1="97.65625" x2="187.5" y2="93.75" id="line_90" class="solid" />
<line x1="351.5625" y1="93.75" x2="250.0" y2="93.75" id="line_92" class="solid" />
<line x1="250.0" y1="93.75" x2="250.0" y2="97.65625" id="line_93" class="solid" />
<line x1="250.0" y1="121.09375" x2="250.0" y2="97.65625" id="line_95" class="solid" />
<line x1="281.25" y1="121.09375" x2="250.0" y2="121.09375" id="line_96" class="solid" />
<line x1="281.25" y1="97.65625" x2="281.25" y2="121.09375" id="line_97" class="solid" />
<line x1="250.0" y1="97.65625" x2="281.25" y2="97.65625" id="line_98" class="solid" />
<line x1="187.5" y1="125.0" x2="250.0" y2="125.0" id="line_99" class="solid" />
<line x1="250.0" y1="125.0" x2="250.0" y2="121.09375" id="line_100" class="solid" />
<line x1="281.25" y1="121.09375" x2="281.25" y2="125.0" id="line_102" class="solid" />
<line x1="-82.03125" y1="-121.09375" x2="-109.375" y2="35.15625" id="line_104" class="solid" />
<line x1="-109.375" y1="35.15625" x2="-62.5" y2="66.40625" id="line_105" class="solid" />
<line x1="-82.03125" y1="140.625" x2="-218.75" y2="50.78125" id="line_106" class="solid" />
<line x1="-218.75" y1="50.78125" x2="-175.78125" y2="-261.71875" id="line_108" class="solid" />
<line x1="-175.78125" y1="-261.71875" x2="3.90625" y2="-261.71875" id="line_110" class="solid" />
<line x1="3.90625" y1="-261.71875" x2="74.21875" y2="-230.46875" id="line_111" class="solid" />
<line x1="-27.34375" y1="0.0" x2="-39.0625" y2="-3.90625" id="line_112" class="solid" />
<line x1="-39.0625" y1="-3.90625" x2="-39.0625" y2="-27.34375" id="line_113" class="solid" />
<line x1="-39.0625" y1="-27.34375" x2="-27.34375" y2="-31.25" id="line_114" class="solid" />
<line x1="-66.40625" y1="308.59375" x2="-82.03125" y2="140.625" id="line_115" class="solid" />
<line x1="304.6875" y1="23.4375" x2="292.96875" y2="23.4375" id="line_116" class="solid" />
<line x1="304.6875" y1="105.46875" x2="304.6875" y2="23.4375" id="line_117" class="solid" />
<line x1="332.03125" y1="23.4375" x2="332.03125" y2="105.46875" id="line_120" class="solid" />
<line x1="332.03125" y1="105.46875" x2="453.125" y2="148.4375" id="line_121" class="solid" />
<line x1="417.96875" y1="183.59375" x2="304.6875" y2="140.625" id="line_123" class="solid" />
<line x1="417.96875" y1="218.75" x2="417.96875" y2="183.59375" id="line_125" class="solid" />
<line x1="375.0" y1="218.75" x2="417.96875" y2="218.75" id="line_126" class="solid" />
<line x1="453.125" y1="148.4375" x2="523.4375" y2="218.75" id="line_127" class="solid" />
<line x1="187.5" y1="121.09375" x2="160.15625" y2="121.09375" id="line_130" class="solid" />
<line x1="160.15625" y1="121.09375" x2="160.15625" y2="97.65625" id="line_131" class="solid" />
<line x1="160.15625" y1="97.65625" x2="187.5" y2="97.65625" id="line_132" class="solid" />
<line x1="39.0625" y1="-171.875" x2="23.4375" y2="-148.4375" id="line_133" class="solid" />
<line x1="-46.875" y1="-121.09375" x2="-82.03125" y2="-121.09375" id="line_135" class="solid" />
<line x1="-27.34375" y1="-71.2890625" x2="-46.875" y2="-121.09375" id="line_136" class="solid" />
<line x1="32.2265625" y1="-94.7265625" x2="-27.34375" y2="-71.2890625" id="line_137" class="solid" />
<line x1="23.4375" y1="-148.4375" x2="32.2265625" y2="-94.7265625" id="line_138" class="solid" />
<line x1="375.0" y1="187.5" x2="375.0" y2="195.3125" id="line_139" class="solid" />
<line x1="375.0" y1="210.9375" x2="375.0" y2="218.75" id="line_141" class="solid" />
<line x1="378.90625" y1="210.9375" x2="375.0" y2="210.9375" id="line_142" class="solid" />
<line x1="378.90625" y1="195.3125" x2="378.90625" y2="210.9375" id="line_143" class="solid" />
<line x1="375.0" y1="195.3125" x2="378.90625" y2="195.3125" id="line_144" class="solid" />
<line x1="382.8125" y1="351.5625" x2="382.8125" y2="359.375" id="line_145" class="solid" />
<line x1="363.28125" y1="398.4375" x2="347.65625" y2="398.4375" id="line_147" class="solid" />
<line x1="417.96875" y1="398.4375" x2="363.28125" y2="398.4375" id="line_148" class="solid" />
<line x1="382.8125" y1="359.375" x2="417.96875" y2="359.375" id="line_150" class="solid" />
<line x1="484.375" y1="351.5625" x2="382.8125" y2="351.5625" id="line_152" class="solid" />
<line x1="484.375" y1="359.375" x2="484.375" y2="351.5625" id="line_153" class="solid" />
<line x1="484.375" y1="359.375" x2="523.4375" y2="359.375" id="line_154" class="solid" />
<line x1="523.4375" y1="351.5625" x2="523.4375" y2="359.375" id="line_155" class="solid" />
<line x1="484.375" y1="359.375" x2="484.375" y2="398.4375" id="line_156" class="solid" />
<line x1="523.4375" y1="398.4375" x2="484.375" y2="398.4375" id="line_157" class="solid" />
<line x1="523.4375" y1="359.375" x2="523.4375" y2="398.4375" id="line_158" class="solid" />
<line x1="417.96875" y1="359.375" x2="484.375" y2="359.375" id="line_159" class="solid" />
<line x1="484.375" y1="398.4375" x2="417.96875" y2="398.4375" id="line_160" class="solid" />
<line x1="250.0" y1="121.09375" x2="242.1875" y2="121.09375" id="line_161" class="solid" />
<line x1="156.25" y1="187.5" x2="187.5" y2="187.5" id="line_163" class="solid" />
<line x1="187.5" y1="187.5" x2="187.5" y2="183.59375" id="line_165" class="solid" />
<line x1="242.1875" y1="183.59375" x2="242.1875" y2="187.5" id="line_166" class="solid" />
<line x1="242.1875" y1="187.5" x2="375.0" y2="187.5" id="line_168" class="solid" />
<line x1="574.21875" y1="300.78125" x2="523.4375" y2="351.5625" id="line_169" class="solid" />
<line x1="523.4375" y1="218.75" x2="574.21875" y2="218.75" id="line_171" class="solid" />
<line x1="574.21875" y1="218.75" x2="585.9375" y2="214.84375" id="line_172" class="solid" />
<line x1="585.9375" y1="296.875" x2="574.21875" y2="300.78125" id="line_174" class="solid" />
<line x1="585.9375" y1="214.84375" x2="597.65625" y2="210.9375" id="line_175" class="solid" />
<line x1="597.65625" y1="292.96875" x2="585.9375" y2="296.875" id="line_177" class="solid" />
<line x1="390.625" y1="27.34375" x2="367.00439453125" y2="78.61328125" id="line_182" class="solid" />
<line x1="-27.34375" y1="-31.25" x2="7.8125" y2="-31.25" id="line_183" class="solid" />
<line x1="7.8125" y1="-31.25" x2="54.6875" y2="-78.125" id="line_184" class="solid" />
<line x1="597.65625" y1="210.9375" x2="609.375" y2="207.03125" id="line_186" class="solid" />
<line x1="609.375" y1="289.0625" x2="597.65625" y2="292.96875" id="line_188" class="solid" />
<line x1="687.5" y1="289.0625" x2="609.375" y2="289.0625" id="line_189" class="solid" />
<line x1="687.5" y1="207.03125" x2="687.5" y2="289.0625" id="line_190" class="solid" />
<line x1="609.375" y1="207.03125" x2="687.5" y2="207.03125" id="line_191" class="solid" />
<line x1="300.78125" y1="-238.28125" x2="335.9375" y2="-203.125" id="line_193" class="solid" />
<line x1="335.9375" y1="-203.125" x2="305.419921875" y2="-171.38671875" id="line_194" class="solid" />
<line x1="292.96875" y1="105.46875" x2="304.6875" y2="105.46875" id="line_195" class="solid" />
<line x1="304.6875" y1="140.625" x2="292.96875" y2="128.90625" id="line_197" class="solid" />
<line x1="257.8125" y1="105.46875" x2="292.96875" y2="105.46875" id="line_198" class="solid" />
<line x1="257.8125" y1="128.90625" x2="257.8125" y2="105.46875" id="line_199" class="solid" />
<line x1="292.96875" y1="128.90625" x2="257.8125" y2="128.90625" id="line_200" class="solid" />
<line x1="363.28125" y1="-42.96875" x2="367.1875" y2="-58.59375" id="line_201" class="solid" />
<line x1="367.1875" y1="-58.59375" x2="386.71875" y2="-58.59375" id="line_202" class="solid" />
<line x1="386.71875" y1="-58.59375" x2="390.625" y2="-42.96875" id="line_203" class="solid" />
<line x1="101.5625" y1="398.4375" x2="-15.625" y2="375.0" id="line_204" class="solid" />
<line x1="433.59375" y1="-39.0625" x2="433.59375" y2="11.71875" id="line_208" class="solid" />
<line x1="433.59375" y1="11.71875" x2="433.59375" y2="62.5" id="line_210" class="solid" />
<line x1="250.0" y1="156.25" x2="187.5" y2="156.25" id="line_211" class="solid" />
<line x1="289.0625" y1="156.25" x2="250.0" y2="156.25" id="line_213" class="solid" />
<line x1="195.3125" y1="128.90625" x2="187.5" y2="121.09375" id="line_222" class="solid" />
<line x1="242.1875" y1="121.09375" x2="234.375" y2="128.90625" id="line_223" class="solid" />
<line x1="195.3125" y1="175.78125" x2="195.3125" y2="128.90625" id="line_225" class="solid" />
<line x1="187.5" y1="183.59375" x2="195.3125" y2="175.78125" id="line_226" class="solid" />
<line x1="234.375" y1="175.78125" x2="242.1875" y2="183.59375" id="line_227" class="solid" />
<line x1="234.375" y1="128.90625" x2="234.375" y2="175.78125" id="line_229" class="solid" />
<line x1="269.53125" y1="-242.1875" x2="296.875" y2="-242.1875" id="line_230" class="solid" />
<line x1="296.875" y1="-242.1875" x2="300.78125" y2="-238.28125" id="line_231" class="solid" />
<!-- end group: "border_solid" -->
</g>
<!-- end group: "borders" -->
</g>
<g id="poly_teleporter_lines">
<g id="panel_teleporter_lines_p25">
<g id="panel_teleporter_line_group_poly_p25_p36">
<line x1="-33.203125" y1="-15.625" x2="395.5078125" y2="378.90625" id="panel_teleporter_border_p25_p36" class="teleporter_border" />
<use xlink:href="../resources/svg/common.svg#arrow" x="395.5078125" y="378.90625" id="panel_teleporter_head_p25_p36" class="teleporter_line" transform="rotate(42.62253711320836 395.5078125 378.90625)" />
<line x1="-33.203125" y1="-15.625" x2="395.5078125" y2="378.90625" id="panel_teleporter_line_p25_p36" class="teleporter_line" />
<!-- end group: "panel_teleporter_line_group_poly_p25_p36" -->
</g>
<!-- end group: "panel_teleporter_lines_p25" -->
</g>
<g id="panel_teleporter_lines_p54">
<g id="panel_teleporter_line_group_poly_p54_p51">
<line x1="376.953125" y1="-50.78125" x2="302.91748046875" y2="-204.9560546875" id="panel_teleporter_border_p54_p51" class="teleporter_border" />
<use xlink:href="../resources/svg/common.svg#arrow" x="302.91748046875" y="-204.9560546875" id="panel_teleporter_head_p54_p51" class="teleporter_line" transform="rotate(-115.650591250485 302.91748046875 -204.9560546875)" />
<line x1="376.953125" y1="-50.78125" x2="302.91748046875" y2="-204.9560546875" id="panel_teleporter_line_p54_p51" class="teleporter_line" />
<!-- end group: "panel_teleporter_line_group_poly_p54_p51" -->
</g>
<!-- end group: "panel_teleporter_lines_p54" -->
</g>
<!-- end group: "poly_teleporter_lines" -->
</g>
<g id="objects">
<g id="objects_object">
<use xlink:href="../resources/svg/common.svg#object" x="503.90625" y="377.9296875" id="object_33" class="object object-28" />
<use xlink:href="../resources/svg/common.svg#object" x="260.3759765625" y="202.1484375" id="object_34" class="object object-28" />
<use xlink:href="../resources/svg/common.svg#object" x="170.8984375" y="138.671875" id="object_35" class="object object-28" />
<use xlink:href="../resources/svg/common.svg#object" x="342.7734375" y="-104.4921875" id="object_36" class="object object-28" />
<use xlink:href="../resources/svg/common.svg#object" x="75.1953125" y="-100.5859375" id="object_37" class="object object-29" />
<use xlink:href="../resources/svg/common.svg#object" x="252.0751953125" y="-226.62353515625" id="object_38" class="object object-29" />
<use xlink:href="../resources/svg/common.svg#object" x="-2.9296875" y="-105.46875" id="object_39" class="object object-28" />
<!-- end group: "objects_object" -->
</g>
<g id="objects_item">
<use xlink:href="../resources/svg/common.svg#item" x="316.95556640625" y="78.0029296875" id="object_0" class="item item-22" />
<use xlink:href="../resources/svg/common.svg#item" x="141.54052734375" y="79.16259765625" id="object_1" class="item item-22" />
<use xlink:href="../resources/svg/common.svg#item" x="247.86376953125" y="-45.41015625" id="object_2" class="item item-23" />
<use xlink:href="../resources/svg/common.svg#item" x="203.55224609375" y="-46.08154296875" id="object_3" class="item item-23" />
<use xlink:href="../resources/svg/common.svg#item" x="247.37548828125" y="-2.8076171875" id="object_4" class="item item-23" />
<use xlink:href="../resources/svg/common.svg#item" x="204.65087890625" y="-1.953125" id="object_5" class="item item-23" />
<use xlink:href="../resources/svg/common.svg#item" x="227.783203125" y="-21.78955078125" id="object_6" class="item item-8" />
<use xlink:href="../resources/svg/common.svg#item" x="372.589111328125" y="359.31396484375" id="object_7" class="item item-6" />
<use xlink:href="../resources/svg/common.svg#item" x="363.250732421875" y="363.525390625" id="object_8" class="item item-7" />
<use xlink:href="../resources/svg/common.svg#item" x="349.42626953125" y="367.401123046875" id="object_9" class="item item-6" />
<use xlink:href="../resources/svg/common.svg#item" x="335.235595703125" y="364.19677734375" id="object_10" class="item item-22" />
<use xlink:href="../resources/svg/common.svg#item" x="439.971923828125" y="187.744140625" id="object_13" class="item item-2" transform="rotate(181.40625 439.971923828125 187.744140625)" />
<use xlink:href="../resources/svg/common.svg#item" x="429.534912109375" y="192.68798828125" id="object_14" class="item item-2" transform="rotate(181.40625 429.534912109375 192.68798828125)" />
<use xlink:href="../resources/svg/common.svg#item" x="462.5244140625" y="187.68310546875" id="object_15" class="item item-2" transform="rotate(181.40625 462.5244140625 187.68310546875)" />
<use xlink:href="../resources/svg/common.svg#item" x="435.05859375" y="177.42919921875" id="object_16" class="item item-2" transform="rotate(181.40625 435.05859375 177.42919921875)" />
<use xlink:href="../resources/svg/common.svg#item" x="449.432373046875" y="171.051025390625" id="object_17" class="item item-2" transform="rotate(181.40625 449.432373046875 171.051025390625)" />
<use xlink:href="../resources/svg/common.svg#item" x="-13.671875" y="-81.0546875" id="object_18" class="item item-5" transform="rotate(180.703125 -13.671875 -81.0546875)" />
<use xlink:href="../resources/svg/common.svg#item" x="-24.4140625" y="-80.078125" id="object_19" class="item item-3" transform="rotate(180.0 -24.4140625 -80.078125)" />
<use xlink:href="../resources/svg/common.svg#item" x="-20.5078125" y="-87.890625" id="object_20" class="item item-7" transform="rotate(180.0 -20.5078125 -87.890625)" />
<use xlink:href="../resources/svg/common.svg#item" x="-13.671875" y="-88.8671875" id="object_21" class="item item-7" transform="rotate(180.0 -13.671875 -88.8671875)" />
<use xlink:href="../resources/svg/common.svg#item" x="440.24658203125" y="201.84326171875" id="object_22" class="item item-1" transform="rotate(9.84375 440.24658203125 201.84326171875)" />
<use xlink:href="../resources/svg/common.svg#item" x="174.224853515625" y="109.55810546875" id="object_24" class="item item-9" transform="rotate(189.84375 174.224853515625 109.55810546875)" />
<use xlink:href="../resources/svg/common.svg#item" x="-13.916015625" y="-15.899658203125" id="object_25" class="item item-9" transform="rotate(189.84375 -13.916015625 -15.899658203125)" />
<use xlink:href="../resources/svg/common.svg#item" x="-20.3857421875" y="322.845458984375" id="object_26" class="item item-8" transform="rotate(188.4375 -20.3857421875 322.845458984375)" />
<use xlink:href="../resources/svg/common.svg#item" x="214.630126953125" y="151.85546875" id="object_27" class="item item-8" transform="rotate(188.4375 214.630126953125 151.85546875)" />
<use xlink:href="../resources/svg/common.svg#item" x="81.0546875" y="-93.75" id="object_29" class="item item-27" />
<use xlink:href="../resources/svg/common.svg#item" x="662.2314453125" y="252.8076171875" id="object_30" class="item item-5" />
<use xlink:href="../resources/svg/common.svg#item" x="640.44189453125" y="231.26220703125" id="object_31" class="item item-6" />
<use xlink:href="../resources/svg/common.svg#item" x="639.83154296875" y="270.3857421875" id="object_32" class="item item-7" />
<use xlink:href="../resources/svg/common.svg#item" x="386.71875" y="-114.1357421875" id="object_40" class="item item-23" />
<use xlink:href="../resources/svg/common.svg#item" x="394.775390625" y="-104.06494140625" id="object_41" class="item item-23" />
<use xlink:href="../resources/svg/common.svg#item" x="386.04736328125" y="-94.66552734375" id="object_42" class="item item-23" />
<use xlink:href="../resources/svg/common.svg#item" x="377.3193359375" y="-104.06494140625" id="object_43" class="item item-23" />
<use xlink:href="../resources/svg/common.svg#item" x="24.169921875" y="-108.7646484375" id="object_44" class="item item-23" />
<use xlink:href="../resources/svg/common.svg#item" x="14.7705078125" y="-101.37939453125" id="object_45" class="item item-23" />
<use xlink:href="../resources/svg/common.svg#item" x="22.8271484375" y="-95.3369140625" id="object_46" class="item item-23" />
<use xlink:href="../resources/svg/common.svg#item" x="28.1982421875" y="-101.37939453125" id="object_47" class="item item-23" />
<use xlink:href="../resources/svg/common.svg#item" x="302.79541015625" y="-202.7587890625" id="object_48" class="item item-34" />
<use xlink:href="../resources/svg/common.svg#item" x="267.2119140625" y="112.12158203125" id="object_49" class="item item-35" />
<use xlink:href="../resources/svg/common.svg#item" x="285.33935546875" y="114.80712890625" id="object_50" class="item item-23" />
<use xlink:href="../resources/svg/common.svg#item" x="278.62548828125" y="123.53515625" id="object_51" class="item item-23" />
<use xlink:href="../resources/svg/common.svg#item" x="266.54052734375" y="123.53515625" id="object_52" class="item item-4" />
<use xlink:href="../resources/svg/common.svg#item" x="275.2685546875" y="114.80712890625" id="object_53" class="item item-4" />
<use xlink:href="../resources/svg/common.svg#item" x="286.68212890625" y="123.53515625" id="object_54" class="item item-7" />
<use xlink:href="../resources/svg/common.svg#item" x="625.06103515625" y="251.77001953125" id="object_55" class="item item-35" />
<use xlink:href="../resources/svg/common.svg#item" x="638.48876953125" y="252.44140625" id="object_56" class="item item-35" />
<use xlink:href="../resources/svg/common.svg#item" x="632.4462890625" y="243.71337890625" id="object_57" class="item item-35" />
<use xlink:href="../resources/svg/common.svg#item" x="629.7607421875" y="260.498046875" id="object_58" class="item item-35" />
<use xlink:href="../resources/svg/common.svg#item" x="-10.7421875" y="-124.8779296875" id="object_59" class="item item-35" />
<use xlink:href="../resources/svg/common.svg#item" x="-4.0283203125" y="-121.52099609375" id="object_60" class="item item-35" />
<use xlink:href="../resources/svg/common.svg#item" x="-18.12744140625" y="-118.1640625" id="object_61" class="item item-35" />
<use xlink:href="../resources/svg/common.svg#item" x="-10.7421875" y="-114.1357421875" id="object_62" class="item item-35" />
<use xlink:href="../resources/svg/common.svg#item" x="353.1494140625" y="76.5380859375" id="object_63" class="item item-35" />
<use xlink:href="../resources/svg/common.svg#item" x="343.75" y="70.49560546875" id="object_64" class="item item-35" />
<use xlink:href="../resources/svg/common.svg#item" x="345.76416015625" y="79.89501953125" id="object_65" class="item item-35" />
<use xlink:href="../resources/svg/common.svg#item" x="353.82080078125" y="83.92333984375" id="object_66" class="item item-35" />
<use xlink:href="../resources/svg/common.svg#item" x="363.8916015625" y="63.78173828125" id="object_67" class="item item-23" />
<use xlink:href="../resources/svg/common.svg#item" x="353.1494140625" y="59.08203125" id="object_68" class="item item-23" />
<use xlink:href="../resources/svg/common.svg#item" x="361.87744140625" y="55.72509765625" id="object_69" class="item item-23" />
<use xlink:href="../resources/svg/common.svg#item" x="350.4638671875" y="51.025390625" id="object_70" class="item item-23" />
<use xlink:href="../resources/svg/common.svg#item" x="369.93408203125" y="57.06787109375" id="object_71" class="item item-23" />
<use xlink:href="../resources/svg/common.svg#item" x="359.86328125" y="48.33984375" id="object_72" class="item item-23" />
<use xlink:href="../resources/svg/common.svg#item" x="202.08740234375" y="108.7646484375" id="object_73" class="item item-23" />
<use xlink:href="../resources/svg/common.svg#item" x="215.51513671875" y="108.7646484375" id="object_74" class="item item-23" />
<use xlink:href="../resources/svg/common.svg#item" x="228.271484375" y="108.7646484375" id="object_75" class="item item-23" />
<use xlink:href="../resources/svg/common.svg#item" x="241.69921875" y="108.7646484375" id="object_76" class="item item-23" />
<use xlink:href="../resources/svg/common.svg#item" x="-157.77587890625" y="-245.7275390625" id="object_77" class="item item-3" />
<!-- end group: "objects_item" -->
</g>
<g id="objects_player">
<use xlink:href="../resources/svg/common.svg#monster" x="422.05810546875" y="55.60302734375" id="object_11" class="player" transform="rotate(203.90625 422.05810546875 55.60302734375)" />
<use xlink:href="../resources/svg/common.svg#monster" x="-49.13330078125" y="111.328125" id="object_12" class="player" transform="rotate(356.484375 -49.13330078125 111.328125)" />
<use xlink:href="../resources/svg/common.svg#monster" x="502.655029296875" y="302.30712890625" id="object_23" class="player" transform="rotate(190.546875 502.655029296875 302.30712890625)" />
<use xlink:href="../resources/svg/common.svg#monster" x="660.15625" y="222.65625" id="object_28" class="player" transform="rotate(168.75 660.15625 222.65625)" />
<!-- end group: "objects_player" -->
</g>
<!-- end group: "objects" -->
</g>
<g id="panels">
<use xlink:href="../resources/svg/common.svg#panel" x="378.90625" y="203.125" id="side_94" class="panel-double_shield_refuel" />
<!-- end group: "panels" -->
</g>
<g id="annotations">
<text x="296.875" y="208.0078125" id="annotation_0" class="annotation">Recharge Way</text>
<text x="207.03125" y="-18.5546875" id="annotation_1" class="annotation">The Ride</text>
<text x="205.078125" y="382.8125" id="annotation_2" class="annotation">Main Street</text>
<text x="-145.5078125" y="-195.3125" id="annotation_3" class="annotation">The Void</text>
<!-- end group: "annotations" -->
</g>

<script xlink:href="../resources/js/level.js" ></script>
</svg>