<?xml version="1.0" encoding="UTF-8"?>
<!-- generated by map2svg: github.com/fracai/marathon-svg -->
<svg xmlns="http://www.w3.org/2000/svg" xmlns:xlink="http://www.w3.org/1999/xlink" version="1.1"
    viewBox="-1000 -813.4765625 1625.0 954.58984375">
<link xmlns="http://www.w3.org/1999/xhtml" rel="stylesheet" href="../resources/css/styles.css" type="text/css" />
<style id="dynamic-style" />
<g id="background-grid">
<defs>
<pattern id="grid_minor" width="3.125" height="3.125" patternUnits="userSpaceOnUse">
<path d="M 3.125 0 L 0 0 0 3.125" fill="none" class="grid_minor" />
</pattern>
<pattern id="grid_major" width="31.25" height="31.25" patternUnits="userSpaceOnUse">
<rect width="31.25" height="31.25" fill="url(#grid_minor)"/>
<path d="M 31.25 0 L 0 0 0 31.25" fill="none" class="grid_major" />
</pattern>
</defs>
<rect x="-1000" y="-1000" width="2000" height="2000" fill="url(#grid_major)" />
<line x1="0" y1="1000" x2="0" y2="-1000" class="grid_origin" />
<line x1="1000" y1="0" x2="-1000" y2="0" class="grid_origin" />
<!-- end group: "background-grid" -->
</g>
<g id="polygons">
<polygon points="125.0,-656.25 183.10546875,-569.82421875 171.38671875,-536.1328125 105.46875,-615.234375" id="poly_1" class="teleporter" />
<polygon points="37.353515625,-665.771484375 27.83203125,-716.30859375 125.0,-656.25 105.46875,-615.234375" id="poly_3" class="teleporter" />
<polygon points="-184.5703125,-782.2265625 -93.75,-752.9296875 -93.75,-725.09765625 -172.8515625,-750.0" id="poly_7" class="teleporter" />
<polygon points="-279.78515625,-771.97265625 -184.5703125,-782.2265625 -172.8515625,-750.0 -259.27734375,-744.140625" id="poly_8" class="teleporter" />
<polygon points="-335.44921875,-673.828125 -279.78515625,-771.97265625 -259.27734375,-744.140625 -325.1953125,-643.798828125" id="poly_9" class="teleporter" />
<polygon points="-93.75,-752.9296875 27.83203125,-716.30859375 37.353515625,-665.771484375 -93.75,-725.09765625" id="poly_10" class="teleporter" />
<polygon points="-454.1015625,-651.85546875 -335.44921875,-673.828125 -325.1953125,-643.798828125 -424.072265625,-624.0234375" id="poly_14" class="teleporter" />
<polygon points="-454.1015625,-651.85546875 -424.072265625,-624.0234375 -514.16015625,-599.853515625 -573.486328125,-619.62890625" id="poly_15" class="teleporter" />
<polygon points="-573.486328125,-619.62890625 -514.16015625,-599.853515625 -584.47265625,-566.89453125 -659.423828125,-569.580078125" id="poly_16" class="teleporter" />
<polygon points="-426.26953125,59.326171875 -355.95703125,65.91796875 -358.154296875,109.86328125 -428.466796875,107.666015625" id="poly_19" class="teleporter" />
<polygon points="-507.568359375,35.15625 -426.26953125,59.326171875 -428.466796875,107.666015625 -507.8125,85.9375" id="poly_21" class="teleporter" />
<polygon points="-613.28125,-3.90625 -507.568359375,35.15625 -507.8125,85.9375 -628.90625,50.78125" id="poly_23" class="teleporter" />
<polygon points="-761.71875,-31.25 -698.73046875,-63.720703125 -613.28125,-3.90625 -628.90625,50.78125" id="poly_25" class="teleporter" />
<polygon points="-832.03125,-136.71875 -762.451171875,-138.427734375 -698.73046875,-63.720703125 -761.71875,-31.25" id="poly_26" class="teleporter" />
<polygon points="-816.40625,-378.90625 -773.4375,-358.154296875 -791.015625,-241.69921875 -851.5625,-242.1875" id="poly_30" class="teleporter" />
<polygon points="-750.0,-500.0 -731.689453125,-448.2421875 -773.4375,-358.154296875 -816.40625,-378.90625" id="poly_32" class="teleporter" />
<polygon points="-750.0,-500.0 -654.78515625,-514.16015625 -731.689453125,-448.2421875" id="poly_35" class="teleporter" />
<polygon points="-659.423828125,-569.580078125 -584.47265625,-566.89453125 -654.78515625,-514.16015625 -750.0,-500.0" id="poly_36" class="teleporter" />
<polygon points="-259.27734375,-744.140625 -243.1640625,-703.125 -281.25,-626.953125 -325.1953125,-643.798828125" id="poly_12" class="plain" />
<polygon points="-514.16015625,-599.853515625 -424.072265625,-624.0234375 -378.90625,-578.125 -437.5,-554.6875" id="poly_13" class="plain" />
<polygon points="-424.072265625,-624.0234375 -325.1953125,-643.798828125 -281.25,-626.953125 -378.90625,-578.125" id="poly_87" class="plain" />
<polygon points="-259.27734375,-744.140625 -172.8515625,-750.0 -165.52734375,-711.9140625 -243.1640625,-703.125" id="poly_5" class="plain" />
<polygon points="-172.8515625,-750.0 -93.75,-725.09765625 -95.21484375,-681.15234375 -165.52734375,-711.9140625" id="poly_6" class="plain" />
<polygon points="-514.16015625,-599.853515625 -437.5,-554.6875 -527.34375,-542.96875 -584.47265625,-566.89453125" id="poly_17" class="plain" />
<polygon points="-654.78515625,-514.16015625 -601.5625,-484.375 -679.6875,-433.59375 -731.689453125,-448.2421875" id="poly_34" class="plain" />
<polygon points="-584.47265625,-566.89453125 -527.34375,-542.96875 -601.5625,-484.375 -654.78515625,-514.16015625" id="poly_37" class="plain" />
<polygon points="-218.75,-593.75 -156.25,-593.75 -314.208984375,-476.806640625 -338.37890625,-514.16015625" id="poly_41" class="plain" />
<polygon points="-243.1640625,-703.125 -165.52734375,-711.9140625 -156.25,-593.75 -218.75,-593.75" id="poly_42" class="plain" />
<polygon points="-758.056640625,-575.68359375 -659.423828125,-569.580078125 -750.0,-500.0 -777.83203125,-503.173828125" id="poly_46" class="plain" />
<polygon points="139.16015625,-388.18359375 155.2734375,-399.90234375 225.5859375,-364.74609375 218.26171875,-348.6328125" id="poly_89" class="plain" />
<polygon points="-93.75,-725.09765625 37.353515625,-665.771484375 23.4375,-605.46875 -95.21484375,-681.15234375" id="poly_11" class="plain" />
<polygon points="-731.689453125,-448.2421875 -679.6875,-433.59375 -714.84375,-355.46875 -773.4375,-358.154296875" id="poly_33" class="plain" />
<polygon points="-338.37890625,-514.16015625 -314.208984375,-476.806640625 -376.46484375,-458.49609375 -397.705078125,-492.1875" id="poly_40" class="hill" />
<polygon points="-834.9609375,-569.091796875 -758.056640625,-575.68359375 -777.83203125,-503.173828125 -817.3828125,-503.173828125" id="poly_47" class="plain" />
<polygon points="-397.705078125,-492.1875 -376.46484375,-458.49609375 -415.283203125,-312.01171875 -470.21484375,-320.80078125" id="poly_55" class="plain" />
<polygon points="-470.21484375,-320.80078125 -415.283203125,-312.01171875 -437.255859375,-232.91015625 -485.595703125,-250.48828125" id="poly_56" class="plain" />
<polygon points="-193.359375,-437.255859375 -149.4140625,-424.072265625 -186.03515625,-361.81640625 -241.69921875,-373.53515625" id="poly_63" class="hill" />
<polygon points="-437.5,-554.6875 -378.90625,-578.125 -338.37890625,-514.16015625 -397.705078125,-492.1875" id="poly_66" class="plain" />
<polygon points="-314.208984375,-476.806640625 -193.359375,-437.255859375 -241.69921875,-373.53515625 -376.46484375,-458.49609375" id="poly_67" class="hill" />
<polygon points="-149.4140625,-424.072265625 -72.509765625,-397.705078125 -112.060546875,-331.787109375 -186.03515625,-361.81640625" id="poly_68" class="hill" />
<polygon points="-72.509765625,-397.705078125 26.3671875,-364.74609375 -37.353515625,-316.40625 -112.060546875,-331.787109375" id="poly_69" class="hill" />
<polygon points="26.3671875,-364.74609375 129.638671875,-382.32421875 76.904296875,-312.01171875 -37.353515625,-316.40625" id="poly_70" class="hill" />
<polygon points="129.638671875,-382.32421875 213.134765625,-338.37890625 142.822265625,-298.828125 76.904296875,-312.01171875" id="poly_71" class="hill" />
<polygon points="178.680419921875,-245.208740234375 248.291015625,-268.06640625 343.75,-140.625 218.75,-171.875" id="poly_72" class="hill" />
<polygon points="142.822265625,-298.828125 213.134765625,-338.37890625 248.291015625,-268.06640625 178.680419921875,-245.208740234375" id="poly_73" class="hill" />
<polygon points="109.375,-187.5 218.75,-171.875 250.0,-78.125 109.375,-109.375" id="poly_78" class="plain" />
<polygon points="218.75,-171.875 343.75,-140.625 343.75,-78.125 250.0,-78.125" id="poly_80" class="plain" />
<polygon points="74.21875,-558.59375 105.46875,-615.234375 171.38671875,-536.1328125 145.01953125,-496.58203125" id="poly_2" class="plain" />
<polygon points="37.353515625,-665.771484375 105.46875,-615.234375 74.21875,-558.59375 23.4375,-605.46875" id="poly_4" class="plain" />
<polygon points="-791.015625,-241.69921875 -722.65625,-265.625 -707.03125,-171.875 -762.451171875,-138.427734375" id="poly_27" class="plain" />
<polygon points="-762.451171875,-138.427734375 -707.03125,-171.875 -644.53125,-125.0 -698.73046875,-63.720703125" id="poly_28" class="plain" />
<polygon points="-773.4375,-358.154296875 -714.84375,-355.46875 -722.65625,-265.625 -791.015625,-241.69921875" id="poly_31" class="plain" />
<polygon points="-516.357421875,-226.318359375 -452.63671875,-197.75390625 -515.625,-156.25 -562.5,-187.5" id="poly_39" class="plain" />
<polygon points="-914.0625,-522.94921875 -834.9609375,-569.091796875 -817.3828125,-503.173828125 -859.130859375,-485.595703125" id="poly_48" class="plain" />
<polygon points="-485.595703125,-250.48828125 -437.255859375,-232.91015625 -452.63671875,-197.75390625 -516.357421875,-226.318359375" id="poly_57" class="plain" />
<polygon points="-31.25,-140.625 109.375,-187.5 109.375,-109.375 10.986328125,-90.087890625" id="poly_77" class="plain" />
<polygon points="343.75,-140.625 468.75,-156.25 515.625,-93.75 343.75,-78.125" id="poly_79" class="plain" />
<polygon points="500.0,-265.625 593.75,-281.25 593.75,-203.125 500.0,-218.75" id="poly_84" class="plain" />
<polygon points="500.0,-218.75 593.75,-203.125 515.625,-93.75 468.75,-156.25" id="poly_85" class="plain" />
<polygon points="171.38671875,-536.1328125 197.75390625,-470.21484375 171.38671875,-426.26953125 145.01953125,-496.58203125" id="poly_0" class="plain" />
<polygon points="-613.28125,-3.90625 -546.875,-109.375 -515.625,-62.5 -507.568359375,35.15625" id="poly_22" class="plain" />
<polygon points="-698.73046875,-63.720703125 -644.53125,-125.0 -546.875,-109.375 -613.28125,-3.90625" id="poly_24" class="plain" />
<polygon points="-562.5,-187.5 -515.625,-156.25 -546.875,-109.375 -644.53125,-125.0 -624.664306640625,-140.167236328125" id="poly_43" class="plain" />
<polygon points="-515.625,-62.5 -468.75,-31.25 -426.26953125,59.326171875 -507.568359375,35.15625" id="poly_45" class="plain" />
<polygon points="-947.021484375,-472.412109375 -914.0625,-522.94921875 -859.130859375,-485.595703125 -878.90625,-443.84765625" id="poly_50" class="plain" />
<polygon points="-72.509765625,-533.935546875 23.4375,-605.46875 74.21875,-558.59375 -21.97265625,-505.37109375" id="poly_65" class="plain" />
<polygon points="-187.5,0.0 -125.0,-46.875 -109.375,31.25 -204.345703125,70.3125" id="poly_74" class="plain" />
<polygon points="-125.0,-46.875 -93.75,-78.125 -46.875,-46.875 -109.375,31.25" id="poly_75" class="plain" />
<polygon points="-93.75,-78.125 -31.25,-140.625 10.986328125,-90.087890625 -46.875,-46.875" id="poly_76" class="plain" />
<polygon points="256.34765625,-423.33984375 390.13671875,-424.31640625 312.01171875,-358.88671875 227.05078125,-380.859375" id="poly_81" class="plain" />
<polygon points="312.01171875,-358.88671875 390.13671875,-424.31640625 515.625,-390.625 437.5,-328.125" id="poly_82" class="plain" />
<polygon points="515.625,-390.625 593.75,-281.25 500.0,-265.625 437.5,-328.125" id="poly_83" class="plain" />
<polygon points="-343.75,-15.625 -257.080078125,8.7890625 -279.052734375,61.5234375 -355.95703125,65.91796875" id="poly_18" class="plain" />
<polygon points="-375.0,-31.25 -343.75,-15.625 -355.95703125,65.91796875 -426.26953125,59.326171875" id="poly_20" class="plain" />
<polygon points="-279.052734375,61.5234375 -257.080078125,8.7890625 -187.5,0.0 -204.345703125,70.3125" id="poly_38" class="plain" />
<polygon points="-468.75,-31.25 -375.0,-31.25 -426.26953125,59.326171875" id="poly_44" class="plain" />
<polygon points="-947.021484375,-472.412109375 -878.90625,-443.84765625 -903.076171875,-373.53515625 -966.796875,-408.69140625" id="poly_49" class="plain" />
<polygon points="-241.69921875,-373.53515625 -186.03515625,-361.81640625 -287.841796875,-217.529296875 -320.80078125,-298.828125" id="poly_62" class="plain" />
<polygon points="-72.509765625,-533.935546875 -21.97265625,-505.37109375 -149.4140625,-424.072265625 -193.359375,-437.255859375" id="poly_64" class="plain" />
<polygon points="171.38671875,-426.26953125 197.75390625,-470.21484375 256.34765625,-423.33984375 227.05078125,-380.859375" id="poly_86" class="plain" />
<polygon points="-966.796875,-408.69140625 -903.076171875,-373.53515625 -914.0625,-320.80078125 -984.375,-316.40625" id="poly_51" class="plain" />
<polygon points="-575.68359375,-301.025390625 -470.21484375,-320.80078125 -485.595703125,-250.48828125 -573.486328125,-237.3046875" id="poly_58" class="plain" />
<polygon points="-415.283203125,-312.01171875 -320.80078125,-298.828125 -287.841796875,-217.529296875 -437.255859375,-232.91015625" id="poly_61" class="plain" />
<polygon points="-984.375,-316.40625 -914.0625,-320.80078125 -911.865234375,-263.671875 -979.98046875,-224.12109375" id="poly_52" class="plain" />
<polygon points="-654.78515625,-287.841796875 -575.68359375,-301.025390625 -573.486328125,-237.3046875 -643.798828125,-215.33203125" id="poly_59" class="plain" />
<polygon points="129.638671875,-382.32421875 139.16015625,-388.18359375 218.26171875,-348.6328125 213.134765625,-338.37890625" id="poly_88" class="platform" />
<polygon points="-979.98046875,-224.12109375 -911.865234375,-263.671875 -851.5625,-242.1875 -925.048828125,-153.80859375" id="poly_53" class="plain" />
<polygon points="-722.65625,-265.625 -654.78515625,-287.841796875 -643.798828125,-215.33203125 -707.03125,-171.875" id="poly_60" class="plain" />
<polygon points="-851.5625,-242.1875 -791.015625,-241.69921875 -762.451171875,-138.427734375 -832.03125,-136.71875" id="poly_29" class="plain" />
<polygon points="-851.5625,-242.1875 -832.03125,-136.71875 -925.048828125,-153.80859375" id="poly_54" class="plain" />
<polygon points="-75.1953125,-136.71875 -31.25,-140.625 -93.75,-78.125" id="poly_90" class="plain" />
<polygon points="-452.63671875,-197.75390625 -447.265625,-154.296875 -515.625,-156.25" id="poly_91" class="plain" />
<polygon points="-72.509765625,-397.705078125 10.7421875,-396.484375 26.3671875,-364.74609375" id="poly_92" class="plain" />
<!-- end group: "polygons" -->
</g>
<g id="borders">
<g id="border_unconnected">
<line x1="-66.40625" y1="74.21875" x2="-87.890625" y2="158.203125" id="line_249" class="unconnected" />
<line x1="-87.890625" y1="74.21875" x2="-5.859375" y2="83.984375" id="line_250" class="unconnected" />
<line x1="35.15625" y1="95.703125" x2="25.390625" y2="181.640625" id="line_251" class="unconnected" />
<line x1="25.390625" y1="181.640625" x2="78.125" y2="169.921875" id="line_252" class="unconnected" />
<line x1="78.125" y1="169.921875" x2="91.796875" y2="78.125" id="line_253" class="unconnected" />
<line x1="126.953125" y1="91.796875" x2="115.234375" y2="177.734375" id="line_254" class="unconnected" />
<line x1="134.765625" y1="103.515625" x2="164.0625" y2="197.265625" id="line_255" class="unconnected" />
<line x1="169.921875" y1="85.9375" x2="164.0625" y2="197.265625" id="line_256" class="unconnected" />
<line x1="257.8125" y1="105.46875" x2="201.171875" y2="103.515625" id="line_257" class="unconnected" />
<line x1="201.171875" y1="103.515625" x2="199.21875" y2="201.171875" id="line_258" class="unconnected" />
<line x1="199.21875" y1="201.171875" x2="234.375" y2="195.3125" id="line_259" class="unconnected" />
<line x1="335.9375" y1="107.421875" x2="298.828125" y2="113.28125" id="line_260" class="unconnected" />
<line x1="298.828125" y1="113.28125" x2="294.769287109375" y2="144.256591796875" id="line_261" class="unconnected" />
<line x1="287.109375" y1="203.125" x2="347.65625" y2="195.3125" id="line_262" class="unconnected" />
<line x1="294.769287109375" y1="144.256591796875" x2="287.109375" y2="203.125" id="line_263" class="unconnected" />
<line x1="294.769287109375" y1="144.256591796875" x2="337.890625" y2="144.53125" id="line_264" class="unconnected" />
<line x1="392.578125" y1="99.609375" x2="391.357421875" y2="108.94775390625" id="line_265" class="unconnected" />
<line x1="391.357421875" y1="108.94775390625" x2="380.859375" y2="189.453125" id="line_266" class="unconnected" />
<line x1="391.357421875" y1="108.94775390625" x2="435.546875" y2="142.578125" id="line_267" class="unconnected" />
<line x1="435.546875" y1="142.578125" x2="384.765625" y2="158.203125" id="line_268" class="unconnected" />
<line x1="392.578125" y1="154.296875" x2="427.734375" y2="199.21875" id="line_269" class="unconnected" />
<!-- end group: "border_unconnected" -->
</g>
<g id="border_plain">
<line x1="-644.53125" y1="-125.0" x2="-546.875" y2="-109.375" id="line_12" class="plain" />
<line x1="-832.03125" y1="-136.71875" x2="-851.5625" y2="-242.1875" id="line_18" class="plain" />
<line x1="-165.52734375" y1="-711.9140625" x2="-243.1640625" y2="-703.125" id="line_53" class="plain" />
<line x1="105.46875" y1="-615.234375" x2="125.0" y2="-656.25" id="line_63" class="plain" />
<line x1="74.21875" y1="-558.59375" x2="105.46875" y2="-615.234375" id="line_64" class="plain" />
<line x1="37.353515625" y1="-665.771484375" x2="27.83203125" y2="-716.30859375" id="line_66" class="plain" />
<line x1="-93.75" y1="-752.9296875" x2="-93.75" y2="-725.09765625" id="line_68" class="plain" />
<line x1="-172.8515625" y1="-750.0" x2="-184.5703125" y2="-782.2265625" id="line_70" class="plain" />
<line x1="-172.8515625" y1="-750.0" x2="-165.52734375" y2="-711.9140625" id="line_71" class="plain" />
<line x1="-259.27734375" y1="-744.140625" x2="-279.78515625" y2="-771.97265625" id="line_73" class="plain" />
<line x1="-325.1953125" y1="-643.798828125" x2="-335.44921875" y2="-673.828125" id="line_74" class="plain" />
<line x1="-281.25" y1="-626.953125" x2="-325.1953125" y2="-643.798828125" id="line_75" class="plain" />
<line x1="-424.072265625" y1="-624.0234375" x2="-454.1015625" y2="-651.85546875" id="line_76" class="plain" />
<line x1="-424.072265625" y1="-624.0234375" x2="-378.90625" y2="-578.125" id="line_77" class="plain" />
<line x1="-514.16015625" y1="-599.853515625" x2="-573.486328125" y2="-619.62890625" id="line_79" class="plain" />
<line x1="-527.34375" y1="-542.96875" x2="-584.47265625" y2="-566.89453125" id="line_80" class="plain" />
<line x1="-584.47265625" y1="-566.89453125" x2="-659.423828125" y2="-569.580078125" id="line_81" class="plain" />
<line x1="-750.0" y1="-500.0" x2="-654.78515625" y2="-514.16015625" id="line_82" class="plain" />
<line x1="-654.78515625" y1="-514.16015625" x2="-601.5625" y2="-484.375" id="line_83" class="plain" />
<line x1="-750.0" y1="-500.0" x2="-731.689453125" y2="-448.2421875" id="line_84" class="plain" />
<line x1="-816.40625" y1="-378.90625" x2="-773.4375" y2="-358.154296875" id="line_87" class="plain" />
<line x1="-791.015625" y1="-241.69921875" x2="-722.65625" y2="-265.625" id="line_88" class="plain" />
<line x1="-707.03125" y1="-171.875" x2="-762.451171875" y2="-138.427734375" id="line_90" class="plain" />
<line x1="-761.71875" y1="-31.25" x2="-698.73046875" y2="-63.720703125" id="line_93" class="plain" />
<line x1="-628.90625" y1="50.78125" x2="-613.28125" y2="-3.90625" id="line_94" class="plain" />
<line x1="-613.28125" y1="-3.90625" x2="-546.875" y2="-109.375" id="line_95" class="plain" />
<line x1="-515.625" y1="-62.5" x2="-507.568359375" y2="35.15625" id="line_96" class="plain" />
<line x1="-507.8125" y1="85.9375" x2="-507.568359375" y2="35.15625" id="line_97" class="plain" />
<line x1="-426.26953125" y1="59.326171875" x2="-375.0" y2="-31.25" id="line_98" class="plain" />
<line x1="-428.466796875" y1="107.666015625" x2="-426.26953125" y2="59.326171875" id="line_99" class="plain" />
<line x1="-355.95703125" y1="65.91796875" x2="-343.75" y2="-15.625" id="line_101" class="plain" />
<line x1="-257.080078125" y1="8.7890625" x2="-279.052734375" y2="61.5234375" id="line_102" class="plain" />
<line x1="-397.705078125" y1="-492.1875" x2="-338.37890625" y2="-514.16015625" id="line_107" class="plain" />
<line x1="-314.208984375" y1="-476.806640625" x2="-376.46484375" y2="-458.49609375" id="line_108" class="plain" />
<line x1="-218.75" y1="-593.75" x2="-156.25" y2="-593.75" id="line_113" class="plain" />
<line x1="-376.46484375" y1="-458.49609375" x2="-397.705078125" y2="-492.1875" id="line_115" class="plain" />
<line x1="-516.357421875" y1="-226.318359375" x2="-452.63671875" y2="-197.75390625" id="line_117" class="plain" />
<line x1="343.75" y1="-140.625" x2="218.75" y2="-171.875" id="line_133" class="plain" />
<line x1="-241.69921875" y1="-373.53515625" x2="-193.359375" y2="-437.255859375" id="line_188" class="plain" />
<line x1="-149.4140625" y1="-424.072265625" x2="-186.03515625" y2="-361.81640625" id="line_189" class="plain" />
<line x1="-415.283203125" y1="-312.01171875" x2="-470.21484375" y2="-320.80078125" id="line_198" class="plain" />
<line x1="-72.509765625" y1="-397.705078125" x2="-112.060546875" y2="-331.787109375" id="line_209" class="plain" />
<line x1="26.3671875" y1="-364.74609375" x2="-37.353515625" y2="-316.40625" id="line_210" class="plain" />
<line x1="129.638671875" y1="-382.32421875" x2="76.904296875" y2="-312.01171875" id="line_211" class="plain" />
<line x1="213.134765625" y1="-338.37890625" x2="142.822265625" y2="-298.828125" id="line_218" class="plain" />
<line x1="178.680419921875" y1="-245.208740234375" x2="248.291015625" y2="-268.06640625" id="line_220" class="plain" />
<line x1="-125.0" y1="-46.875" x2="-109.375" y2="31.25" id="line_223" class="plain" />
<line x1="-93.75" y1="-78.125" x2="-46.875" y2="-46.875" id="line_224" class="plain" />
<line x1="218.75" y1="-171.875" x2="250.0" y2="-78.125" id="line_227" class="plain" />
<line x1="468.75" y1="-156.25" x2="515.625" y2="-93.75" id="line_229" class="plain" />
<line x1="593.75" y1="-203.125" x2="500.0" y2="-218.75" id="line_230" class="plain" />
<line x1="515.625" y1="-390.625" x2="437.5" y2="-328.125" id="line_232" class="plain" />
<line x1="390.13671875" y1="-424.31640625" x2="312.01171875" y2="-358.88671875" id="line_233" class="plain" />
<!-- end group: "border_plain" -->
</g>
<g id="border_elevation">
<line x1="-426.26953125" y1="59.326171875" x2="-355.95703125" y2="65.91796875" id="line_6" class="elevation" />
<line x1="-507.568359375" y1="35.15625" x2="-426.26953125" y2="59.326171875" id="line_8" class="elevation" />
<line x1="-507.568359375" y1="35.15625" x2="-613.28125" y2="-3.90625" id="line_10" class="elevation" />
<line x1="-613.28125" y1="-3.90625" x2="-698.73046875" y2="-63.720703125" id="line_13" class="elevation" />
<line x1="-762.451171875" y1="-138.427734375" x2="-698.73046875" y2="-63.720703125" id="line_16" class="elevation" />
<line x1="171.38671875" y1="-536.1328125" x2="105.46875" y2="-615.234375" id="line_21" class="elevation" />
<line x1="-722.65625" y1="-265.625" x2="-707.03125" y2="-171.875" id="line_24" class="elevation" />
<line x1="-762.451171875" y1="-138.427734375" x2="-791.015625" y2="-241.69921875" id="line_25" class="elevation" />
<line x1="-773.4375" y1="-358.154296875" x2="-791.015625" y2="-241.69921875" id="line_27" class="elevation" />
<line x1="-731.689453125" y1="-448.2421875" x2="-773.4375" y2="-358.154296875" id="line_29" class="elevation" />
<line x1="-731.689453125" y1="-448.2421875" x2="-654.78515625" y2="-514.16015625" id="line_32" class="elevation" />
<line x1="-750.0" y1="-500.0" x2="-659.423828125" y2="-569.580078125" id="line_34" class="elevation" />
<line x1="-584.47265625" y1="-566.89453125" x2="-654.78515625" y2="-514.16015625" id="line_35" class="elevation" />
<line x1="-514.16015625" y1="-599.853515625" x2="-584.47265625" y2="-566.89453125" id="line_38" class="elevation" />
<line x1="-514.16015625" y1="-599.853515625" x2="-424.072265625" y2="-624.0234375" id="line_41" class="elevation" />
<line x1="-378.90625" y1="-578.125" x2="-437.5" y2="-554.6875" id="line_42" class="elevation" />
<line x1="-325.1953125" y1="-643.798828125" x2="-424.072265625" y2="-624.0234375" id="line_43" class="elevation" />
<line x1="105.46875" y1="-615.234375" x2="37.353515625" y2="-665.771484375" id="line_46" class="elevation" />
<line x1="74.21875" y1="-558.59375" x2="23.4375" y2="-605.46875" id="line_47" class="elevation" />
<line x1="37.353515625" y1="-665.771484375" x2="-93.75" y2="-725.09765625" id="line_48" class="elevation" />
<line x1="-172.8515625" y1="-750.0" x2="-93.75" y2="-725.09765625" id="line_50" class="elevation" />
<line x1="-259.27734375" y1="-744.140625" x2="-172.8515625" y2="-750.0" id="line_52" class="elevation" />
<line x1="-259.27734375" y1="-744.140625" x2="-325.1953125" y2="-643.798828125" id="line_55" class="elevation" />
<line x1="197.75390625" y1="-470.21484375" x2="171.38671875" y2="-426.26953125" id="line_61" class="elevation" />
<line x1="145.01953125" y1="-496.58203125" x2="171.38671875" y2="-536.1328125" id="line_62" class="elevation" />
<line x1="23.4375" y1="-605.46875" x2="37.353515625" y2="-665.771484375" id="line_65" class="elevation" />
<line x1="-93.75" y1="-725.09765625" x2="-95.21484375" y2="-681.15234375" id="line_69" class="elevation" />
<line x1="-243.1640625" y1="-703.125" x2="-259.27734375" y2="-744.140625" id="line_72" class="elevation" />
<line x1="-437.5" y1="-554.6875" x2="-514.16015625" y2="-599.853515625" id="line_78" class="elevation" />
<line x1="-731.689453125" y1="-448.2421875" x2="-679.6875" y2="-433.59375" id="line_85" class="elevation" />
<line x1="-773.4375" y1="-358.154296875" x2="-714.84375" y2="-355.46875" id="line_86" class="elevation" />
<line x1="-851.5625" y1="-242.1875" x2="-791.015625" y2="-241.69921875" id="line_89" class="elevation" />
<line x1="-832.03125" y1="-136.71875" x2="-762.451171875" y2="-138.427734375" id="line_91" class="elevation" />
<line x1="-698.73046875" y1="-63.720703125" x2="-644.53125" y2="-125.0" id="line_92" class="elevation" />
<line x1="-187.5" y1="0.0" x2="-204.345703125" y2="70.3125" id="line_103" class="elevation" />
<line x1="-452.63671875" y1="-197.75390625" x2="-515.625" y2="-156.25" id="line_106" class="elevation" />
<line x1="-338.37890625" y1="-514.16015625" x2="-314.208984375" y2="-476.806640625" id="line_114" class="elevation" />
<line x1="-515.625" y1="-156.25" x2="-562.5" y2="-187.5" id="line_116" class="elevation" />
<line x1="-426.26953125" y1="59.326171875" x2="-468.75" y2="-31.25" id="line_122" class="elevation" />
<line x1="-93.75" y1="-78.125" x2="-31.25" y2="-140.625" id="line_126" class="elevation" />
<line x1="-777.83203125" y1="-503.173828125" x2="-758.056640625" y2="-575.68359375" id="line_164" class="elevation" />
<line x1="-817.3828125" y1="-503.173828125" x2="-834.9609375" y2="-569.091796875" id="line_165" class="elevation" />
<line x1="-859.130859375" y1="-485.595703125" x2="-914.0625" y2="-522.94921875" id="line_166" class="elevation" />
<line x1="-947.021484375" y1="-472.412109375" x2="-878.90625" y2="-443.84765625" id="line_167" class="elevation" />
<line x1="-903.076171875" y1="-373.53515625" x2="-966.796875" y2="-408.69140625" id="line_168" class="elevation" />
<line x1="-914.0625" y1="-320.80078125" x2="-984.375" y2="-316.40625" id="line_169" class="elevation" />
<line x1="-911.865234375" y1="-263.671875" x2="-979.98046875" y2="-224.12109375" id="line_170" class="elevation" />
<line x1="-851.5625" y1="-242.1875" x2="-925.048828125" y2="-153.80859375" id="line_171" class="elevation" />
<line x1="-415.283203125" y1="-312.01171875" x2="-437.255859375" y2="-232.91015625" id="line_180" class="elevation" />
<line x1="-485.595703125" y1="-250.48828125" x2="-470.21484375" y2="-320.80078125" id="line_181" class="elevation" />
<line x1="-643.798828125" y1="-215.33203125" x2="-654.78515625" y2="-287.841796875" id="line_194" class="elevation" />
<line x1="-573.486328125" y1="-237.3046875" x2="-575.68359375" y2="-301.025390625" id="line_195" class="elevation" />
<line x1="-320.80078125" y1="-298.828125" x2="-287.841796875" y2="-217.529296875" id="line_196" class="elevation" />
<line x1="-241.69921875" y1="-373.53515625" x2="-186.03515625" y2="-361.81640625" id="line_197" class="elevation" />
<line x1="-437.255859375" y1="-232.91015625" x2="-485.595703125" y2="-250.48828125" id="line_199" class="elevation" />
<line x1="-193.359375" y1="-437.255859375" x2="-149.4140625" y2="-424.072265625" id="line_200" class="elevation" />
<line x1="-72.509765625" y1="-533.935546875" x2="-21.97265625" y2="-505.37109375" id="line_201" class="elevation" />
<line x1="-72.509765625" y1="-397.705078125" x2="26.3671875" y2="-364.74609375" id="line_203" class="elevation" />
<line x1="-31.25" y1="-140.625" x2="10.986328125" y2="-90.087890625" id="line_225" class="elevation" />
<line x1="109.375" y1="-187.5" x2="109.375" y2="-109.375" id="line_226" class="elevation" />
<line x1="343.75" y1="-78.125" x2="343.75" y2="-140.625" id="line_228" class="elevation" />
<line x1="593.75" y1="-281.25" x2="500.0" y2="-265.625" id="line_231" class="elevation" />
<line x1="227.05078125" y1="-380.859375" x2="256.34765625" y2="-423.33984375" id="line_235" class="elevation" />
<!-- end group: "border_elevation" -->
</g>
<g id="border_solid">
<line x1="-257.080078125" y1="8.7890625" x2="-187.5" y2="0.0" id="line_0" class="solid" />
<line x1="-204.345703125" y1="70.3125" x2="-279.052734375" y2="61.5234375" id="line_1" class="solid" />
<line x1="-343.75" y1="-15.625" x2="-257.080078125" y2="8.7890625" id="line_2" class="solid" />
<line x1="-279.052734375" y1="61.5234375" x2="-355.95703125" y2="65.91796875" id="line_3" class="solid" />
<line x1="-358.154296875" y1="109.86328125" x2="-428.466796875" y2="107.666015625" id="line_4" class="solid" />
<line x1="-428.466796875" y1="107.666015625" x2="-507.8125" y2="85.9375" id="line_5" class="solid" />
<line x1="-375.0" y1="-31.25" x2="-343.75" y2="-15.625" id="line_7" class="solid" />
<line x1="-507.8125" y1="85.9375" x2="-628.90625" y2="50.78125" id="line_9" class="solid" />
<line x1="-546.875" y1="-109.375" x2="-515.625" y2="-62.5" id="line_11" class="solid" />
<line x1="-628.90625" y1="50.78125" x2="-761.71875" y2="-31.25" id="line_14" class="solid" />
<line x1="-761.71875" y1="-31.25" x2="-832.03125" y2="-136.71875" id="line_15" class="solid" />
<line x1="-707.03125" y1="-171.875" x2="-644.53125" y2="-125.0" id="line_17" class="solid" />
<line x1="171.38671875" y1="-426.26953125" x2="145.01953125" y2="-496.58203125" id="line_19" class="solid" />
<line x1="171.38671875" y1="-536.1328125" x2="197.75390625" y2="-470.21484375" id="line_20" class="solid" />
<line x1="145.01953125" y1="-496.58203125" x2="74.21875" y2="-558.59375" id="line_22" class="solid" />
<line x1="125.0" y1="-656.25" x2="183.10546875" y2="-569.82421875" id="line_23" class="solid" />
<line x1="-851.5625" y1="-242.1875" x2="-816.40625" y2="-378.90625" id="line_26" class="solid" />
<line x1="-714.84375" y1="-355.46875" x2="-722.65625" y2="-265.625" id="line_28" class="solid" />
<line x1="-679.6875" y1="-433.59375" x2="-714.84375" y2="-355.46875" id="line_30" class="solid" />
<line x1="-816.40625" y1="-378.90625" x2="-750.0" y2="-500.0" id="line_31" class="solid" />
<line x1="-601.5625" y1="-484.375" x2="-679.6875" y2="-433.59375" id="line_33" class="solid" />
<line x1="-527.34375" y1="-542.96875" x2="-601.5625" y2="-484.375" id="line_36" class="solid" />
<line x1="-659.423828125" y1="-569.580078125" x2="-573.486328125" y2="-619.62890625" id="line_37" class="solid" />
<line x1="-437.5" y1="-554.6875" x2="-527.34375" y2="-542.96875" id="line_39" class="solid" />
<line x1="-573.486328125" y1="-619.62890625" x2="-454.1015625" y2="-651.85546875" id="line_40" class="solid" />
<line x1="-281.25" y1="-626.953125" x2="-378.90625" y2="-578.125" id="line_44" class="solid" />
<line x1="-454.1015625" y1="-651.85546875" x2="-335.44921875" y2="-673.828125" id="line_45" class="solid" />
<line x1="23.4375" y1="-605.46875" x2="-95.21484375" y2="-681.15234375" id="line_49" class="solid" />
<line x1="-95.21484375" y1="-681.15234375" x2="-165.52734375" y2="-711.9140625" id="line_51" class="solid" />
<line x1="-243.1640625" y1="-703.125" x2="-281.25" y2="-626.953125" id="line_54" class="solid" />
<line x1="-335.44921875" y1="-673.828125" x2="-279.78515625" y2="-771.97265625" id="line_56" class="solid" />
<line x1="-279.78515625" y1="-771.97265625" x2="-184.5703125" y2="-782.2265625" id="line_57" class="solid" />
<line x1="-184.5703125" y1="-782.2265625" x2="-93.75" y2="-752.9296875" id="line_58" class="solid" />
<line x1="27.83203125" y1="-716.30859375" x2="125.0" y2="-656.25" id="line_59" class="solid" />
<line x1="183.10546875" y1="-569.82421875" x2="171.38671875" y2="-536.1328125" id="line_60" class="solid" />
<line x1="-93.75" y1="-752.9296875" x2="27.83203125" y2="-716.30859375" id="line_67" class="solid" />
<line x1="-355.95703125" y1="65.91796875" x2="-358.154296875" y2="109.86328125" id="line_100" class="solid" />
<line x1="-644.53125" y1="-125.0" x2="-624.664306640625" y2="-140.167236328125" id="line_104" class="solid" />
<line x1="-562.5" y1="-187.5" x2="-516.357421875" y2="-226.318359375" id="line_105" class="solid" />
<line x1="-338.37890625" y1="-514.16015625" x2="-218.75" y2="-593.75" id="line_109" class="solid" />
<line x1="-156.25" y1="-593.75" x2="-314.208984375" y2="-476.806640625" id="line_110" class="solid" />
<line x1="-165.52734375" y1="-711.9140625" x2="-156.25" y2="-593.75" id="line_111" class="solid" />
<line x1="-218.75" y1="-593.75" x2="-243.1640625" y2="-703.125" id="line_112" class="solid" />
<line x1="-515.625" y1="-156.25" x2="-546.875" y2="-109.375" id="line_118" class="solid" />
<line x1="-624.664306640625" y1="-140.167236328125" x2="-562.5" y2="-187.5" id="line_119" class="solid" />
<line x1="-515.625" y1="-62.5" x2="-468.75" y2="-31.25" id="line_120" class="solid" />
<line x1="-468.75" y1="-31.25" x2="-375.0" y2="-31.25" id="line_121" class="solid" />
<line x1="-187.5" y1="0.0" x2="-125.0" y2="-46.875" id="line_123" class="solid" />
<line x1="-109.375" y1="31.25" x2="-204.345703125" y2="70.3125" id="line_124" class="solid" />
<line x1="-125.0" y1="-46.875" x2="-93.75" y2="-78.125" id="line_125" class="solid" />
<line x1="-46.875" y1="-46.875" x2="-109.375" y2="31.25" id="line_127" class="solid" />
<line x1="10.986328125" y1="-90.087890625" x2="-46.875" y2="-46.875" id="line_128" class="solid" />
<line x1="-31.25" y1="-140.625" x2="109.375" y2="-187.5" id="line_129" class="solid" />
<line x1="109.375" y1="-109.375" x2="10.986328125" y2="-90.087890625" id="line_130" class="solid" />
<line x1="109.375" y1="-187.5" x2="218.75" y2="-171.875" id="line_131" class="solid" />
<line x1="250.0" y1="-78.125" x2="109.375" y2="-109.375" id="line_132" class="solid" />
<line x1="343.75" y1="-78.125" x2="250.0" y2="-78.125" id="line_134" class="solid" />
<line x1="227.05078125" y1="-380.859375" x2="171.38671875" y2="-426.26953125" id="line_135" class="solid" />
<line x1="256.34765625" y1="-423.33984375" x2="390.13671875" y2="-424.31640625" id="line_136" class="solid" />
<line x1="437.5" y1="-328.125" x2="312.01171875" y2="-358.88671875" id="line_137" class="solid" />
<line x1="390.13671875" y1="-424.31640625" x2="515.625" y2="-390.625" id="line_138" class="solid" />
<line x1="500.0" y1="-265.625" x2="437.5" y2="-328.125" id="line_139" class="solid" />
<line x1="500.0" y1="-218.75" x2="500.0" y2="-265.625" id="line_140" class="solid" />
<line x1="468.75" y1="-156.25" x2="500.0" y2="-218.75" id="line_141" class="solid" />
<line x1="343.75" y1="-140.625" x2="468.75" y2="-156.25" id="line_142" class="solid" />
<line x1="515.625" y1="-390.625" x2="593.75" y2="-281.25" id="line_143" class="solid" />
<line x1="593.75" y1="-281.25" x2="593.75" y2="-203.125" id="line_144" class="solid" />
<line x1="593.75" y1="-203.125" x2="515.625" y2="-93.75" id="line_145" class="solid" />
<line x1="515.625" y1="-93.75" x2="343.75" y2="-78.125" id="line_146" class="solid" />
<line x1="-758.056640625" y1="-575.68359375" x2="-659.423828125" y2="-569.580078125" id="line_147" class="solid" />
<line x1="-750.0" y1="-500.0" x2="-777.83203125" y2="-503.173828125" id="line_148" class="solid" />
<line x1="-834.9609375" y1="-569.091796875" x2="-758.056640625" y2="-575.68359375" id="line_149" class="solid" />
<line x1="-777.83203125" y1="-503.173828125" x2="-817.3828125" y2="-503.173828125" id="line_150" class="solid" />
<line x1="-914.0625" y1="-522.94921875" x2="-834.9609375" y2="-569.091796875" id="line_151" class="solid" />
<line x1="-817.3828125" y1="-503.173828125" x2="-859.130859375" y2="-485.595703125" id="line_152" class="solid" />
<line x1="-947.021484375" y1="-472.412109375" x2="-914.0625" y2="-522.94921875" id="line_153" class="solid" />
<line x1="-859.130859375" y1="-485.595703125" x2="-878.90625" y2="-443.84765625" id="line_154" class="solid" />
<line x1="-966.796875" y1="-408.69140625" x2="-947.021484375" y2="-472.412109375" id="line_155" class="solid" />
<line x1="-878.90625" y1="-443.84765625" x2="-903.076171875" y2="-373.53515625" id="line_156" class="solid" />
<line x1="-984.375" y1="-316.40625" x2="-966.796875" y2="-408.69140625" id="line_157" class="solid" />
<line x1="-903.076171875" y1="-373.53515625" x2="-914.0625" y2="-320.80078125" id="line_158" class="solid" />
<line x1="-979.98046875" y1="-224.12109375" x2="-984.375" y2="-316.40625" id="line_159" class="solid" />
<line x1="-914.0625" y1="-320.80078125" x2="-911.865234375" y2="-263.671875" id="line_160" class="solid" />
<line x1="-925.048828125" y1="-153.80859375" x2="-979.98046875" y2="-224.12109375" id="line_161" class="solid" />
<line x1="-911.865234375" y1="-263.671875" x2="-851.5625" y2="-242.1875" id="line_162" class="solid" />
<line x1="-832.03125" y1="-136.71875" x2="-925.048828125" y2="-153.80859375" id="line_163" class="solid" />
<line x1="-722.65625" y1="-265.625" x2="-654.78515625" y2="-287.841796875" id="line_172" class="solid" />
<line x1="-643.798828125" y1="-215.33203125" x2="-707.03125" y2="-171.875" id="line_173" class="solid" />
<line x1="-654.78515625" y1="-287.841796875" x2="-575.68359375" y2="-301.025390625" id="line_174" class="solid" />
<line x1="-573.486328125" y1="-237.3046875" x2="-643.798828125" y2="-215.33203125" id="line_175" class="solid" />
<line x1="-470.21484375" y1="-320.80078125" x2="-397.705078125" y2="-492.1875" id="line_176" class="solid" />
<line x1="-376.46484375" y1="-458.49609375" x2="-415.283203125" y2="-312.01171875" id="line_177" class="solid" />
<line x1="-516.357421875" y1="-226.318359375" x2="-485.595703125" y2="-250.48828125" id="line_178" class="solid" />
<line x1="-437.255859375" y1="-232.91015625" x2="-452.63671875" y2="-197.75390625" id="line_179" class="solid" />
<line x1="-575.68359375" y1="-301.025390625" x2="-470.21484375" y2="-320.80078125" id="line_182" class="solid" />
<line x1="-485.595703125" y1="-250.48828125" x2="-573.486328125" y2="-237.3046875" id="line_183" class="solid" />
<line x1="-415.283203125" y1="-312.01171875" x2="-320.80078125" y2="-298.828125" id="line_184" class="solid" />
<line x1="-287.841796875" y1="-217.529296875" x2="-437.255859375" y2="-232.91015625" id="line_185" class="solid" />
<line x1="-320.80078125" y1="-298.828125" x2="-241.69921875" y2="-373.53515625" id="line_186" class="solid" />
<line x1="-186.03515625" y1="-361.81640625" x2="-287.841796875" y2="-217.529296875" id="line_187" class="solid" />
<line x1="-193.359375" y1="-437.255859375" x2="-72.509765625" y2="-533.935546875" id="line_190" class="solid" />
<line x1="-21.97265625" y1="-505.37109375" x2="-149.4140625" y2="-424.072265625" id="line_191" class="solid" />
<line x1="-72.509765625" y1="-533.935546875" x2="23.4375" y2="-605.46875" id="line_192" class="solid" />
<line x1="74.21875" y1="-558.59375" x2="-21.97265625" y2="-505.37109375" id="line_193" class="solid" />
<line x1="-37.353515625" y1="-316.40625" x2="-112.060546875" y2="-331.787109375" id="line_202" class="solid" />
<line x1="76.904296875" y1="-312.01171875" x2="-37.353515625" y2="-316.40625" id="line_204" class="solid" />
<line x1="142.822265625" y1="-298.828125" x2="76.904296875" y2="-312.01171875" id="line_205" class="solid" />
<line x1="129.638671875" y1="-382.32421875" x2="213.134765625" y2="-338.37890625" id="line_206" class="solid" />
<line x1="248.291015625" y1="-268.06640625" x2="343.75" y2="-140.625" id="line_207" class="solid" />
<line x1="26.3671875" y1="-364.74609375" x2="129.638671875" y2="-382.32421875" id="line_208" class="solid" />
<line x1="-149.4140625" y1="-424.072265625" x2="-72.509765625" y2="-397.705078125" id="line_212" class="solid" />
<line x1="-112.060546875" y1="-331.787109375" x2="-186.03515625" y2="-361.81640625" id="line_213" class="solid" />
<line x1="-314.208984375" y1="-476.806640625" x2="-193.359375" y2="-437.255859375" id="line_214" class="solid" />
<line x1="-241.69921875" y1="-373.53515625" x2="-376.46484375" y2="-458.49609375" id="line_215" class="solid" />
<line x1="-397.705078125" y1="-492.1875" x2="-437.5" y2="-554.6875" id="line_216" class="solid" />
<line x1="-378.90625" y1="-578.125" x2="-338.37890625" y2="-514.16015625" id="line_217" class="solid" />
<line x1="218.75" y1="-171.875" x2="178.680419921875" y2="-245.208740234375" id="line_219" class="solid" />
<line x1="213.134765625" y1="-338.37890625" x2="248.291015625" y2="-268.06640625" id="line_221" class="solid" />
<line x1="178.680419921875" y1="-245.208740234375" x2="142.822265625" y2="-298.828125" id="line_222" class="solid" />
<line x1="312.01171875" y1="-358.88671875" x2="227.05078125" y2="-380.859375" id="line_234" class="solid" />
<line x1="197.75390625" y1="-470.21484375" x2="256.34765625" y2="-423.33984375" id="line_236" class="solid" />
<line x1="129.638671875" y1="-382.32421875" x2="139.16015625" y2="-388.18359375" id="line_237" class="solid" />
<line x1="139.16015625" y1="-388.18359375" x2="218.26171875" y2="-348.6328125" id="line_238" class="solid" />
<line x1="218.26171875" y1="-348.6328125" x2="213.134765625" y2="-338.37890625" id="line_239" class="solid" />
<line x1="139.16015625" y1="-388.18359375" x2="155.2734375" y2="-399.90234375" id="line_240" class="solid" />
<line x1="155.2734375" y1="-399.90234375" x2="225.5859375" y2="-364.74609375" id="line_241" class="solid" />
<line x1="225.5859375" y1="-364.74609375" x2="218.26171875" y2="-348.6328125" id="line_242" class="solid" />
<line x1="-93.75" y1="-78.125" x2="-75.1953125" y2="-136.71875" id="line_243" class="solid" />
<line x1="-75.1953125" y1="-136.71875" x2="-31.25" y2="-140.625" id="line_244" class="solid" />
<line x1="-447.265625" y1="-154.296875" x2="-515.625" y2="-156.25" id="line_245" class="solid" />
<line x1="-452.63671875" y1="-197.75390625" x2="-447.265625" y2="-154.296875" id="line_246" class="solid" />
<line x1="-72.509765625" y1="-397.705078125" x2="10.7421875" y2="-396.484375" id="line_247" class="solid" />
<line x1="10.7421875" y1="-396.484375" x2="26.3671875" y2="-364.74609375" id="line_248" class="solid" />
<!-- end group: "border_solid" -->
</g>
<!-- end group: "borders" -->
</g>
<g id="poly_teleporter_lines">
<g id="panel_teleporter_lines_p1">
<g id="panel_teleporter_line_group_poly_p1_p90">
<line x1="146.240234375" y1="-594.3603515625" x2="-66.71142578125" y2="-118.46923828125" id="panel_teleporter_border_p1_p90" class="teleporter_border" />
<use xlink:href="../resources/svg/common.svg#arrow" x="-66.71142578125" y="-118.46923828125" id="panel_teleporter_head_p1_p90" class="teleporter_line" transform="rotate(114.10755161599695 -66.71142578125 -118.46923828125)" />
<line x1="146.240234375" y1="-594.3603515625" x2="-66.71142578125" y2="-118.46923828125" id="panel_teleporter_line_p1_p90" class="teleporter_line" />
<!-- end group: "panel_teleporter_line_group_poly_p1_p90" -->
</g>
<!-- end group: "panel_teleporter_lines_p1" -->
</g>
<g id="panel_teleporter_lines_p3">
<g id="panel_teleporter_line_group_poly_p3_p92">
<line x1="73.91357421875" y1="-663.39111328125" x2="-11.77978515625" y2="-386.29150390625" id="panel_teleporter_border_p3_p92" class="teleporter_border" />
<use xlink:href="../resources/svg/common.svg#arrow" x="-11.77978515625" y="-386.29150390625" id="panel_teleporter_head_p3_p92" class="teleporter_line" transform="rotate(107.18428117147035 -11.77978515625 -386.29150390625)" />
<line x1="73.91357421875" y1="-663.39111328125" x2="-11.77978515625" y2="-386.29150390625" id="panel_teleporter_line_p3_p92" class="teleporter_line" />
<!-- end group: "panel_teleporter_line_group_poly_p3_p92" -->
</g>
<!-- end group: "panel_teleporter_lines_p3" -->
</g>
<g id="panel_teleporter_lines_p7">
<g id="panel_teleporter_line_group_poly_p7_p90">
<line x1="-136.23046875" y1="-752.5634765625" x2="-66.71142578125" y2="-118.46923828125" id="panel_teleporter_border_p7_p90" class="teleporter_border" />
<use xlink:href="../resources/svg/common.svg#arrow" x="-66.71142578125" y="-118.46923828125" id="panel_teleporter_head_p7_p90" class="teleporter_line" transform="rotate(83.74335444987335 -66.71142578125 -118.46923828125)" />
<line x1="-136.23046875" y1="-752.5634765625" x2="-66.71142578125" y2="-118.46923828125" id="panel_teleporter_line_p7_p90" class="teleporter_line" />
<!-- end group: "panel_teleporter_line_group_poly_p7_p90" -->
</g>
<!-- end group: "panel_teleporter_lines_p7" -->
</g>
<g id="panel_teleporter_lines_p8">
<g id="panel_teleporter_line_group_poly_p8_p91">
<line x1="-224.12109375" y1="-762.0849609375" x2="-471.832275390625" y2="-169.43359375" id="panel_teleporter_border_p8_p91" class="teleporter_border" />
<use xlink:href="../resources/svg/common.svg#arrow" x="-471.832275390625" y="-169.43359375" id="panel_teleporter_head_p8_p91" class="teleporter_line" transform="rotate(112.68352108255088 -471.832275390625 -169.43359375)" />
<line x1="-224.12109375" y1="-762.0849609375" x2="-471.832275390625" y2="-169.43359375" id="panel_teleporter_line_p8_p91" class="teleporter_line" />
<!-- end group: "panel_teleporter_line_group_poly_p8_p91" -->
</g>
<!-- end group: "panel_teleporter_lines_p8" -->
</g>
<g id="panel_teleporter_lines_p9">
<g id="panel_teleporter_line_group_poly_p9_p92">
<line x1="-299.9267578125" y1="-708.43505859375" x2="-11.77978515625" y2="-386.29150390625" id="panel_teleporter_border_p9_p92" class="teleporter_border" />
<use xlink:href="../resources/svg/common.svg#arrow" x="-11.77978515625" y="-386.29150390625" id="panel_teleporter_head_p9_p92" class="teleporter_line" transform="rotate(48.18839882820603 -11.77978515625 -386.29150390625)" />
<line x1="-299.9267578125" y1="-708.43505859375" x2="-11.77978515625" y2="-386.29150390625" id="panel_teleporter_line_p9_p92" class="teleporter_line" />
<!-- end group: "panel_teleporter_line_group_poly_p9_p92" -->
</g>
<!-- end group: "panel_teleporter_lines_p9" -->
</g>
<g id="panel_teleporter_lines_p10">
<g id="panel_teleporter_line_group_poly_p10_p90">
<line x1="-30.57861328125" y1="-715.02685546875" x2="-66.71142578125" y2="-118.46923828125" id="panel_teleporter_border_p10_p90" class="teleporter_border" />
<use xlink:href="../resources/svg/common.svg#arrow" x="-66.71142578125" y="-118.46923828125" id="panel_teleporter_head_p10_p90" class="teleporter_line" transform="rotate(93.46610539690471 -66.71142578125 -118.46923828125)" />
<line x1="-30.57861328125" y1="-715.02685546875" x2="-66.71142578125" y2="-118.46923828125" id="panel_teleporter_line_p10_p90" class="teleporter_line" />
<!-- end group: "panel_teleporter_line_group_poly_p10_p90" -->
</g>
<!-- end group: "panel_teleporter_lines_p10" -->
</g>
<g id="panel_teleporter_lines_p14">
<g id="panel_teleporter_line_group_poly_p14_p90">
<line x1="-384.70458984375" y1="-648.37646484375" x2="-66.71142578125" y2="-118.46923828125" id="panel_teleporter_border_p14_p90" class="teleporter_border" />
<use xlink:href="../resources/svg/common.svg#arrow" x="-66.71142578125" y="-118.46923828125" id="panel_teleporter_head_p14_p90" class="teleporter_line" transform="rotate(59.03236164005213 -66.71142578125 -118.46923828125)" />
<line x1="-384.70458984375" y1="-648.37646484375" x2="-66.71142578125" y2="-118.46923828125" id="panel_teleporter_line_p14_p90" class="teleporter_line" />
<!-- end group: "panel_teleporter_line_group_poly_p14_p90" -->
</g>
<!-- end group: "panel_teleporter_lines_p14" -->
</g>
<g id="panel_teleporter_lines_p15">
<g id="panel_teleporter_line_group_poly_p15_p91">
<line x1="-491.455078125" y1="-623.84033203125" x2="-471.832275390625" y2="-169.43359375" id="panel_teleporter_border_p15_p91" class="teleporter_border" />
<use xlink:href="../resources/svg/common.svg#arrow" x="-471.832275390625" y="-169.43359375" id="panel_teleporter_head_p15_p91" class="teleporter_line" transform="rotate(87.52731287312864 -471.832275390625 -169.43359375)" />
<line x1="-491.455078125" y1="-623.84033203125" x2="-471.832275390625" y2="-169.43359375" id="panel_teleporter_line_p15_p91" class="teleporter_line" />
<!-- end group: "panel_teleporter_line_group_poly_p15_p91" -->
</g>
<!-- end group: "panel_teleporter_lines_p15" -->
</g>
<g id="panel_teleporter_lines_p16">
<g id="panel_teleporter_line_group_poly_p16_p92">
<line x1="-582.8857421875" y1="-588.9892578125" x2="-11.77978515625" y2="-386.29150390625" id="panel_teleporter_border_p16_p92" class="teleporter_border" />
<use xlink:href="../resources/svg/common.svg#arrow" x="-11.77978515625" y="-386.29150390625" id="panel_teleporter_head_p16_p92" class="teleporter_line" transform="rotate(19.54086530899973 -11.77978515625 -386.29150390625)" />
<line x1="-582.8857421875" y1="-588.9892578125" x2="-11.77978515625" y2="-386.29150390625" id="panel_teleporter_line_p16_p92" class="teleporter_line" />
<!-- end group: "panel_teleporter_line_group_poly_p16_p92" -->
</g>
<!-- end group: "panel_teleporter_lines_p16" -->
</g>
<g id="panel_teleporter_lines_p19">
<g id="panel_teleporter_line_group_poly_p19_p92">
<line x1="-392.2119140625" y1="85.693359375" x2="-11.77978515625" y2="-386.29150390625" id="panel_teleporter_border_p19_p92" class="teleporter_border" />
<use xlink:href="../resources/svg/common.svg#arrow" x="-11.77978515625" y="-386.29150390625" id="panel_teleporter_head_p19_p92" class="teleporter_line" transform="rotate(-51.130278434015224 -11.77978515625 -386.29150390625)" />
<line x1="-392.2119140625" y1="85.693359375" x2="-11.77978515625" y2="-386.29150390625" id="panel_teleporter_line_p19_p92" class="teleporter_line" />
<!-- end group: "panel_teleporter_line_group_poly_p19_p92" -->
</g>
<!-- end group: "panel_teleporter_lines_p19" -->
</g>
<g id="panel_teleporter_lines_p21">
<g id="panel_teleporter_line_group_poly_p21_p92">
<line x1="-467.529296875" y1="72.021484375" x2="-11.77978515625" y2="-386.29150390625" id="panel_teleporter_border_p21_p92" class="teleporter_border" />
<use xlink:href="../resources/svg/common.svg#arrow" x="-11.77978515625" y="-386.29150390625" id="panel_teleporter_head_p21_p92" class="teleporter_line" transform="rotate(-45.16068485781396 -11.77978515625 -386.29150390625)" />
<line x1="-467.529296875" y1="72.021484375" x2="-11.77978515625" y2="-386.29150390625" id="panel_teleporter_line_p21_p92" class="teleporter_line" />
<!-- end group: "panel_teleporter_line_group_poly_p21_p92" -->
</g>
<!-- end group: "panel_teleporter_lines_p21" -->
</g>
<g id="panel_teleporter_lines_p23">
<g id="panel_teleporter_line_group_poly_p23_p91">
<line x1="-564.39208984375" y1="41.9921875" x2="-471.832275390625" y2="-169.43359375" id="panel_teleporter_border_p23_p91" class="teleporter_border" />
<use xlink:href="../resources/svg/common.svg#arrow" x="-471.832275390625" y="-169.43359375" id="panel_teleporter_head_p23_p91" class="teleporter_line" transform="rotate(-66.35674069158635 -471.832275390625 -169.43359375)" />
<line x1="-564.39208984375" y1="41.9921875" x2="-471.832275390625" y2="-169.43359375" id="panel_teleporter_line_p23_p91" class="teleporter_line" />
<!-- end group: "panel_teleporter_line_group_poly_p23_p91" -->
</g>
<!-- end group: "panel_teleporter_lines_p23" -->
</g>
<g id="panel_teleporter_lines_p25">
<g id="panel_teleporter_line_group_poly_p25_p90">
<line x1="-675.6591796875" y1="-12.02392578125" x2="-66.71142578125" y2="-118.46923828125" id="panel_teleporter_border_p25_p90" class="teleporter_border" />
<use xlink:href="../resources/svg/common.svg#arrow" x="-66.71142578125" y="-118.46923828125" id="panel_teleporter_head_p25_p90" class="teleporter_line" transform="rotate(-9.915240161186077 -66.71142578125 -118.46923828125)" />
<line x1="-675.6591796875" y1="-12.02392578125" x2="-66.71142578125" y2="-118.46923828125" id="panel_teleporter_line_p25_p90" class="teleporter_line" />
<!-- end group: "panel_teleporter_line_group_poly_p25_p90" -->
</g>
<!-- end group: "panel_teleporter_lines_p25" -->
</g>
<g id="panel_teleporter_lines_p26">
<g id="panel_teleporter_line_group_poly_p26_p92">
<line x1="-763.73291015625" y1="-92.529296875" x2="-11.77978515625" y2="-386.29150390625" id="panel_teleporter_border_p26_p92" class="teleporter_border" />
<use xlink:href="../resources/svg/common.svg#arrow" x="-11.77978515625" y="-386.29150390625" id="panel_teleporter_head_p26_p92" class="teleporter_line" transform="rotate(-21.338876737730423 -11.77978515625 -386.29150390625)" />
<line x1="-763.73291015625" y1="-92.529296875" x2="-11.77978515625" y2="-386.29150390625" id="panel_teleporter_line_p26_p92" class="teleporter_line" />
<!-- end group: "panel_teleporter_line_group_poly_p26_p92" -->
</g>
<!-- end group: "panel_teleporter_lines_p26" -->
</g>
<g id="panel_teleporter_lines_p30">
<g id="panel_teleporter_line_group_poly_p30_p92">
<line x1="-808.10546875" y1="-305.23681640625" x2="-11.77978515625" y2="-386.29150390625" id="panel_teleporter_border_p30_p92" class="teleporter_border" />
<use xlink:href="../resources/svg/common.svg#arrow" x="-11.77978515625" y="-386.29150390625" id="panel_teleporter_head_p30_p92" class="teleporter_line" transform="rotate(-5.811883769519828 -11.77978515625 -386.29150390625)" />
<line x1="-808.10546875" y1="-305.23681640625" x2="-11.77978515625" y2="-386.29150390625" id="panel_teleporter_line_p30_p92" class="teleporter_line" />
<!-- end group: "panel_teleporter_line_group_poly_p30_p92" -->
</g>
<!-- end group: "panel_teleporter_lines_p30" -->
</g>
<g id="panel_teleporter_lines_p32">
<g id="panel_teleporter_line_group_poly_p32_p91">
<line x1="-767.88330078125" y1="-421.32568359375" x2="-471.832275390625" y2="-169.43359375" id="panel_teleporter_border_p32_p91" class="teleporter_border" />
<use xlink:href="../resources/svg/common.svg#arrow" x="-471.832275390625" y="-169.43359375" id="panel_teleporter_head_p32_p91" class="teleporter_line" transform="rotate(40.392470015663555 -471.832275390625 -169.43359375)" />
<line x1="-767.88330078125" y1="-421.32568359375" x2="-471.832275390625" y2="-169.43359375" id="panel_teleporter_line_p32_p91" class="teleporter_line" />
<!-- end group: "panel_teleporter_line_group_poly_p32_p91" -->
</g>
<!-- end group: "panel_teleporter_lines_p32" -->
</g>
<g id="panel_teleporter_lines_p35">
<g id="panel_teleporter_line_group_poly_p35_p90">
<line x1="-712.158203125" y1="-487.457275390625" x2="-66.71142578125" y2="-118.46923828125" id="panel_teleporter_border_p35_p90" class="teleporter_border" />
<use xlink:href="../resources/svg/common.svg#arrow" x="-66.71142578125" y="-118.46923828125" id="panel_teleporter_head_p35_p90" class="teleporter_line" transform="rotate(29.75567453885425 -66.71142578125 -118.46923828125)" />
<line x1="-712.158203125" y1="-487.457275390625" x2="-66.71142578125" y2="-118.46923828125" id="panel_teleporter_line_p35_p90" class="teleporter_line" />
<!-- end group: "panel_teleporter_line_group_poly_p35_p90" -->
</g>
<!-- end group: "panel_teleporter_lines_p35" -->
</g>
<g id="panel_teleporter_lines_p36">
<g id="panel_teleporter_line_group_poly_p36_p92">
<line x1="-662.17041015625" y1="-537.65869140625" x2="-11.77978515625" y2="-386.29150390625" id="panel_teleporter_border_p36_p92" class="teleporter_border" />
<use xlink:href="../resources/svg/common.svg#arrow" x="-11.77978515625" y="-386.29150390625" id="panel_teleporter_head_p36_p92" class="teleporter_line" transform="rotate(13.10138289126303 -11.77978515625 -386.29150390625)" />
<line x1="-662.17041015625" y1="-537.65869140625" x2="-11.77978515625" y2="-386.29150390625" id="panel_teleporter_line_p36_p92" class="teleporter_line" />
<!-- end group: "panel_teleporter_line_group_poly_p36_p92" -->
</g>
<!-- end group: "panel_teleporter_lines_p36" -->
</g>
<!-- end group: "poly_teleporter_lines" -->
</g>
<g id="objects">
<g id="objects_item">
<use xlink:href="../resources/svg/common.svg#item" x="-615.234375" y="-72.509765625" id="object_8" class="item item-5" transform="rotate(309.375 -615.234375 -72.509765625)" />
<use xlink:href="../resources/svg/common.svg#item" x="-151.611328125" y="-386.71875" id="object_9" class="item item-5" transform="rotate(309.375 -151.611328125 -386.71875)" />
<use xlink:href="../resources/svg/common.svg#item" x="-793.212890625" y="-188.96484375" id="object_10" class="item item-5" transform="rotate(309.375 -793.212890625 -188.96484375)" />
<use xlink:href="../resources/svg/common.svg#item" x="551.513671875" y="-239.501953125" id="object_11" class="item item-5" transform="rotate(352.96875 551.513671875 -239.501953125)" />
<use xlink:href="../resources/svg/common.svg#item" x="35.15625" y="-573.486328125" id="object_12" class="item item-22" transform="rotate(351.5625 35.15625 -573.486328125)" />
<use xlink:href="../resources/svg/common.svg#item" x="-206.54296875" y="-725.09765625" id="object_13" class="item item-22" transform="rotate(351.5625 -206.54296875 -725.09765625)" />
<use xlink:href="../resources/svg/common.svg#item" x="-399.90234375" y="-553.7109375" id="object_14" class="item item-22" transform="rotate(351.5625 -399.90234375 -553.7109375)" />
<use xlink:href="../resources/svg/common.svg#item" x="-39.55078125" y="-90.087890625" id="object_15" class="item item-3" transform="rotate(350.859375 -39.55078125 -90.087890625)" />
<use xlink:href="../resources/svg/common.svg#item" x="183.28857421875" y="-376.190185546875" id="object_16" class="item item-8" transform="rotate(349.453125 183.28857421875 -376.190185546875)" />
<use xlink:href="../resources/svg/common.svg#item" x="-348.6328125" y="-485.595703125" id="object_17" class="item item-5" transform="rotate(348.75 -348.6328125 -485.595703125)" />
<use xlink:href="../resources/svg/common.svg#item" x="-448.2421875" y="-276.85546875" id="object_18" class="item item-27" />
<use xlink:href="../resources/svg/common.svg#item" x="273.4375" y="-109.375" id="object_19" class="item item-22" />
<use xlink:href="../resources/svg/common.svg#item" x="-13.671875" y="-386.71875" id="object_20" class="item item-13" />
<use xlink:href="../resources/svg/common.svg#item" x="-613.28125" y="-521.484375" id="object_21" class="item item-5" />
<use xlink:href="../resources/svg/common.svg#item" x="193.359375" y="-421.875" id="object_22" class="item item-34" />
<use xlink:href="../resources/svg/common.svg#item" x="-72.265625" y="-115.234375" id="object_23" class="item item-34" />
<use xlink:href="../resources/svg/common.svg#item" x="-470.703125" y="-166.015625" id="object_24" class="item item-34" />
<!-- end group: "objects_item" -->
</g>
<g id="objects_player">
<use xlink:href="../resources/svg/common.svg#monster" x="-739.2578125" y="-318.359375" id="object_0" class="player" transform="rotate(92.8125 -739.2578125 -318.359375)" />
<use xlink:href="../resources/svg/common.svg#monster" x="-501.953125" y="-560.546875" id="object_1" class="player" transform="rotate(330.46875 -501.953125 -560.546875)" />
<use xlink:href="../resources/svg/common.svg#monster" x="240.234375" y="-212.40234375" id="object_2" class="player" transform="rotate(239.765625 240.234375 -212.40234375)" />
<use xlink:href="../resources/svg/common.svg#monster" x="397.705078125" y="-377.9296875" id="object_3" class="player" transform="rotate(42.890625 397.705078125 -377.9296875)" />
<use xlink:href="../resources/svg/common.svg#monster" x="50.537109375" y="-131.8359375" id="object_4" class="player" transform="rotate(150.46875 50.537109375 -131.8359375)" />
<use xlink:href="../resources/svg/common.svg#monster" x="-369.140625" y="-263.671875" id="object_5" class="player" transform="rotate(356.484375 -369.140625 -263.671875)" />
<use xlink:href="../resources/svg/common.svg#monster" x="-920.654296875" y="-421.875" id="object_6" class="player" transform="rotate(109.6875 -920.654296875 -421.875)" />
<use xlink:href="../resources/svg/common.svg#monster" x="-417.48046875" y="-413.0859375" id="object_7" class="player" transform="rotate(310.78125 -417.48046875 -413.0859375)" />
<!-- end group: "objects_player" -->
</g>
<!-- end group: "objects" -->
</g>
<g id="panels">
<!-- end group: "panels" -->
</g>
<g id="annotations">
<text x="525.390625" y="-277.34375" id="annotation_0" class="annotation">The</text>
<text x="529.296875" y="-230.46875" id="annotation_1" class="annotation">Big</text>
<text x="523.4375" y="-191.40625" id="annotation_2" class="annotation">Turn</text>
<text x="-398.4375" y="-259.765625" id="annotation_3" class="annotation">Interstate 44</text>
<text x="-910.15625" y="-181.640625" id="annotation_4" class="annotation">The Overlook</text>
<text x="-146.484375" y="-357.421875" id="annotation_5" class="annotation">Piper's Alley</text>
<!-- end group: "annotations" -->
</g>

<script xlink:href="../resources/js/level.js" ></script>
</svg>