<?xml version="1.0" encoding="UTF-8"?>
<!-- generated by map2svg: github.com/fracai/marathon-svg -->
<svg xmlns="http://www.w3.org/2000/svg" xmlns:xlink="http://www.w3.org/1999/xlink" version="1.1"
    viewBox="-375.732421875 -578.125 1204.9560546875 1250.1220703125">
<link xmlns="http://www.w3.org/1999/xhtml" rel="stylesheet" href="../resources/css/styles.css" type="text/css" />
<style id="dynamic-style" />
<g id="background-grid">
<defs>
<pattern id="grid_minor" width="3.125" height="3.125" patternUnits="userSpaceOnUse">
<path d="M 3.125 0 L 0 0 0 3.125" fill="none" class="grid_minor" />
</pattern>
<pattern id="grid_major" width="31.25" height="31.25" patternUnits="userSpaceOnUse">
<rect width="31.25" height="31.25" fill="url(#grid_minor)"/>
<path d="M 31.25 0 L 0 0 0 31.25" fill="none" class="grid_major" />
</pattern>
</defs>
<rect x="-1000" y="-1000" width="2000" height="2000" fill="url(#grid_major)" />
<line x1="0" y1="1000" x2="0" y2="-1000" class="grid_origin" />
<line x1="1000" y1="0" x2="-1000" y2="0" class="grid_origin" />
<!-- end group: "background-grid" -->
</g>
<g id="polygons">
<polygon points="187.5,8.7890625 203.125,-31.25 265.625,-31.25 281.25,8.7890625 281.25,68.84765625 265.625,109.375 203.125,109.375 187.5,68.84765625" id="poly_36" class="hill" />
<polygon points="78.125,-250.0 375.0,-250.0 265.625,-31.25 203.125,-31.25" id="poly_28" class="plain" />
<polygon points="203.125,109.375 265.625,109.375 390.625,343.75 78.125,343.75" id="poly_32" class="plain" />
<polygon points="62.5,-281.25 78.125,-250.0 -15.625,-46.875 -46.875,-62.5" id="poly_0" class="platform" />
<polygon points="375.0,-250.0 390.625,-281.25 500.0,-62.5 468.75,-46.875" id="poly_2" class="platform" />
<polygon points="468.75,140.625 500.0,156.25 406.25,375.0 390.625,343.75" id="poly_7" class="platform" />
<polygon points="-46.875,148.4375 -15.625,140.625 78.125,343.75 62.5,375.0" id="poly_9" class="platform" />
<polygon points="-15.625,-46.875 78.125,-250.0 203.125,-31.25 187.5,8.7890625" id="poly_29" class="plain" />
<polygon points="-15.625,-46.875 187.5,8.7890625 187.5,68.84765625 -15.625,140.625 -15.625,62.5 -15.625,31.25" id="poly_30" class="plain" />
<polygon points="187.5,68.84765625 203.125,109.375 78.125,343.75 -15.625,140.625" id="poly_31" class="plain" />
<polygon points="265.625,109.375 281.25,68.84765625 468.75,140.625 390.625,343.75" id="poly_33" class="plain" />
<polygon points="281.25,8.7890625 468.75,-46.875 468.75,31.25 468.75,62.5 468.75,140.625 281.25,68.84765625" id="poly_34" class="plain" />
<polygon points="375.0,-250.0 468.75,-46.875 281.25,8.7890625 265.625,-31.25" id="poly_35" class="plain" />
<polygon points="468.75,31.25 492.1875,31.25 492.1875,62.5 468.75,62.5" id="poly_5" class="plain" />
<polygon points="781.25,30.2734375 797.9736328125,53.1005859375 781.25,77.1484375" id="poly_11" class="teleporter" />
<polygon points="574.21875,20.5078125 593.75,30.2734375 593.75,77.1484375 574.21875,86.9140625" id="poly_13" class="plain" />
<polygon points="-120.7275390625,76.2939453125 -140.2587890625,66.5283203125 -140.2587890625,19.6533203125 -120.7275390625,9.8876953125" id="poly_18" class="plain" />
<polygon points="-327.7587890625,66.5283203125 -344.482421875,43.701171875 -327.7587890625,19.6533203125" id="poly_19" class="teleporter" />
<polygon points="269.22607421875,433.7158203125 259.46044921875,453.2470703125 212.58544921875,453.2470703125 202.81982421875,433.7158203125" id="poly_23" class="plain" />
<polygon points="203.125,-359.375 250.0,-359.375 257.8125,-343.75 195.49560546875,-344.146728515625" id="poly_26" class="plain" />
<polygon points="156.25,-500.0 203.125,-546.875 250.0,-546.875 296.875,-500.0 296.875,-406.25 250.0,-359.375 203.125,-359.375 156.25,-406.25" id="poly_10" class="plain" />
<polygon points="593.75,30.2734375 640.625,-16.6015625 734.375,-16.6015625 781.25,30.2734375 781.25,77.1484375 734.375,124.0234375 640.625,124.0234375 593.75,77.1484375" id="poly_12" class="plain" />
<polygon points="562.5,14.6484375 574.21875,20.5078125 574.21875,86.9140625 562.5,92.7734375" id="poly_14" class="plain" />
<polygon points="-109.375,81.817626953125 -120.7275390625,76.2939453125 -120.7275390625,9.8876953125 -109.375,3.84521484375" id="poly_16" class="plain" />
<polygon points="-140.2587890625,66.5283203125 -187.1337890625,113.4033203125 -280.8837890625,113.4033203125 -327.7587890625,66.5283203125 -327.7587890625,19.6533203125 -280.8837890625,-27.2216796875 -187.1337890625,-27.2216796875 -140.2587890625,19.6533203125" id="poly_17" class="plain" />
<polygon points="274.749755859375,422.36328125 269.22607421875,433.7158203125 202.81982421875,433.7158203125 196.77734375,422.36328125" id="poly_21" class="plain" />
<polygon points="259.46044921875,453.2470703125 306.33544921875,500.1220703125 306.33544921875,593.8720703125 259.46044921875,640.7470703125 212.58544921875,640.7470703125 165.71044921875,593.8720703125 165.71044921875,500.1220703125 212.58544921875,453.2470703125" id="poly_22" class="plain" />
<polygon points="195.49560546875,-344.146728515625 257.8125,-343.75 265.625,-328.125 187.5,-328.125" id="poly_25" class="plain" />
<polygon points="31.25,-328.125 62.5,-281.25 -46.875,-62.5 -109.375,-78.125" id="poly_1" class="plain" />
<polygon points="390.625,-281.25 421.875,-328.125 562.5,-78.125 500.0,-62.5" id="poly_3" class="plain" />
<polygon points="500.0,156.25 562.5,171.875 437.5,421.875 406.25,375.0" id="poly_6" class="plain" />
<polygon points="-109.375,171.875 -46.875,148.4375 62.5,375.0 31.25,421.875" id="poly_8" class="plain" />
<polygon points="500.0,-62.5 562.5,-78.125 562.5,14.6484375 562.5,92.7734375 562.5,171.875 500.0,156.25" id="poly_15" class="plain" />
<polygon points="-109.375,-78.125 -46.875,-62.5 -46.875,148.4375 -109.375,171.875 -109.375,81.817626953125 -109.375,3.84521484375" id="poly_20" class="plain" />
<polygon points="62.5,375.0 406.25,375.0 437.5,421.875 274.749755859375,422.36328125 196.77734375,422.36328125 31.25,421.875" id="poly_24" class="plain" />
<polygon points="31.25,-328.125 187.5,-328.125 265.625,-328.125 421.875,-328.125 390.625,-281.25 62.5,-281.25" id="poly_27" class="plain" />
<polygon points="-38.0859375,31.25 -15.625,31.25 -15.625,62.5 -38.0859375,62.5" id="poly_4" class="plain" />
<polygon points="562.5,-78.125 568.359375,-81.0546875 568.359375,8.7890625 562.5,14.6484375" id="poly_37" class="plain" />
<polygon points="421.875,-328.125 425.78125,-335.9375 568.359375,-81.0546875 562.5,-78.125" id="poly_38" class="plain" />
<polygon points="267.578125,-336.9140625 425.78125,-335.9375 421.875,-328.125 265.625,-328.125" id="poly_39" class="plain" />
<polygon points="28.3203125,-334.9609375 183.59375,-334.9609375 187.5,-328.125 31.25,-328.125" id="poly_40" class="plain" />
<polygon points="28.3203125,-334.9609375 31.25,-328.125 -109.375,-78.125 -116.2109375,-81.0546875" id="poly_41" class="plain" />
<polygon points="-116.2109375,-81.0546875 -109.375,-78.125 -109.375,3.84521484375 -116.2109375,0.9765625" id="poly_42" class="plain" />
<polygon points="-116.2109375,86.9140625 -109.375,81.817626953125 -109.375,171.875 -116.2109375,173.828125" id="poly_43" class="plain" />
<polygon points="-116.2109375,173.828125 -109.375,171.875 31.25,421.875 26.3671875,429.6875" id="poly_44" class="plain" />
<polygon points="31.25,421.875 196.77734375,422.36328125 193.359375,429.6875 26.3671875,429.6875" id="poly_45" class="plain" />
<polygon points="274.749755859375,422.36328125 437.5,421.875 441.40625,431.640625 281.25,430.6640625" id="poly_46" class="plain" />
<polygon points="562.5,171.875 569.3359375,172.8515625 441.40625,431.640625 437.5,421.875" id="poly_47" class="plain" />
<polygon points="562.5,92.7734375 569.3359375,98.6328125 569.3359375,172.8515625 562.5,171.875" id="poly_48" class="plain" />
<!-- end group: "polygons" -->
</g>
<g id="borders">
<g id="border_unconnected">
<line x1="562.5" y1="-267.578125" x2="554.6875" y2="-220.703125" id="line_158" class="unconnected" />
<line x1="550.78125" y1="-263.671875" x2="591.796875" y2="-261.71875" id="line_159" class="unconnected" />
<line x1="607.421875" y1="-267.578125" x2="607.421875" y2="-226.5625" id="line_160" class="unconnected" />
<line x1="607.421875" y1="-226.5625" x2="630.859375" y2="-228.515625" id="line_161" class="unconnected" />
<line x1="630.859375" y1="-228.515625" x2="632.8125" y2="-267.578125" id="line_162" class="unconnected" />
<line x1="644.53125" y1="-267.578125" x2="636.71875" y2="-218.75" id="line_163" class="unconnected" />
<line x1="644.53125" y1="-267.578125" x2="654.296875" y2="-224.609375" id="line_164" class="unconnected" />
<line x1="662.109375" y1="-271.484375" x2="654.296875" y2="-224.609375" id="line_165" class="unconnected" />
<line x1="697.265625" y1="-261.71875" x2="677.734375" y2="-255.859375" id="line_166" class="unconnected" />
<line x1="677.734375" y1="-255.859375" x2="671.875" y2="-226.5625" id="line_167" class="unconnected" />
<line x1="671.875" y1="-226.5625" x2="693.359375" y2="-232.421875" id="line_168" class="unconnected" />
<line x1="724.609375" y1="-265.625" x2="707.03125" y2="-226.5625" id="line_169" class="unconnected" />
<line x1="724.609375" y1="-265.625" x2="734.375" y2="-267.578125" id="line_170" class="unconnected" />
<line x1="714.84375" y1="-251.953125" x2="730.46875" y2="-248.046875" id="line_171" class="unconnected" />
<line x1="712.890625" y1="-236.328125" x2="732.421875" y2="-230.46875" id="line_172" class="unconnected" />
<line x1="744.140625" y1="-267.578125" x2="743.1640625" y2="-257.9345703125" id="line_173" class="unconnected" />
<line x1="743.1640625" y1="-257.9345703125" x2="741.058349609375" y2="-236.846923828125" id="line_174" class="unconnected" />
<line x1="743.1640625" y1="-257.9345703125" x2="767.578125" y2="-250.0" id="line_175" class="unconnected" />
<line x1="741.058349609375" y1="-236.846923828125" x2="740.234375" y2="-228.515625" id="line_176" class="unconnected" />
<line x1="767.578125" y1="-250.0" x2="751.129150390625" y2="-241.851806640625" id="line_177" class="unconnected" />
<line x1="751.129150390625" y1="-241.851806640625" x2="741.058349609375" y2="-236.846923828125" id="line_178" class="unconnected" />
<line x1="751.129150390625" y1="-241.851806640625" x2="761.71875" y2="-222.65625" id="line_179" class="unconnected" />
<!-- end group: "border_unconnected" -->
</g>
<g id="border_landscape_">
<line x1="-109.375" y1="-78.125" x2="31.25" y2="-328.125" id="line_16" class="landscape_" />
<line x1="31.25" y1="-328.125" x2="187.5" y2="-328.125" id="line_17" class="landscape_" />
<line x1="421.875" y1="-328.125" x2="562.5" y2="-78.125" id="line_18" class="landscape_" />
<line x1="562.5" y1="171.875" x2="437.5" y2="421.875" id="line_45" class="landscape_" />
<line x1="31.25" y1="421.875" x2="-109.375" y2="171.875" id="line_46" class="landscape_" />
<line x1="265.625" y1="-328.125" x2="187.5" y2="-328.125" id="line_49" class="landscape_" />
<line x1="265.625" y1="-328.125" x2="421.875" y2="-328.125" id="line_51" class="landscape_" />
<line x1="562.5" y1="-78.125" x2="562.5" y2="14.6484375" id="line_61" class="landscape_" />
<line x1="562.5" y1="92.7734375" x2="562.5" y2="171.875" id="line_62" class="landscape_" />
<line x1="562.5" y1="92.7734375" x2="562.5" y2="14.6484375" id="line_76" class="landscape_" />
<line x1="-109.375" y1="3.84521484375" x2="-109.375" y2="81.817626953125" id="line_79" class="landscape_" />
<line x1="-109.375" y1="3.84521484375" x2="-109.375" y2="-78.125" id="line_95" class="landscape_" />
<line x1="-109.375" y1="171.875" x2="-109.375" y2="81.817626953125" id="line_96" class="landscape_" />
<line x1="196.77734375" y1="422.36328125" x2="274.749755859375" y2="422.36328125" id="line_97" class="landscape_" />
<line x1="437.5" y1="421.875" x2="274.749755859375" y2="422.36328125" id="line_111" class="landscape_" />
<line x1="196.77734375" y1="422.36328125" x2="31.25" y2="421.875" id="line_112" class="landscape_" />
<!-- end group: "border_landscape_" -->
</g>
<g id="border_plain">
<line x1="-109.375" y1="171.875" x2="-46.875" y2="148.4375" id="line_19" class="plain" />
<line x1="500.0" y1="156.25" x2="562.5" y2="171.875" id="line_20" class="plain" />
<line x1="390.625" y1="-281.25" x2="421.875" y2="-328.125" id="line_21" class="plain" />
<line x1="31.25" y1="-328.125" x2="62.5" y2="-281.25" id="line_22" class="plain" />
<line x1="-46.875" y1="-62.5" x2="-109.375" y2="-78.125" id="line_23" class="plain" />
<line x1="562.5" y1="-78.125" x2="500.0" y2="-62.5" id="line_24" class="plain" />
<line x1="437.5" y1="421.875" x2="406.25" y2="375.0" id="line_47" class="plain" />
<line x1="62.5" y1="375.0" x2="31.25" y2="421.875" id="line_48" class="plain" />
<line x1="281.25" y1="8.7890625" x2="468.75" y2="-46.875" id="line_126" class="plain" />
<line x1="281.25" y1="68.84765625" x2="468.75" y2="140.625" id="line_127" class="plain" />
<line x1="187.5" y1="68.84765625" x2="-15.625" y2="140.625" id="line_128" class="plain" />
<line x1="187.5" y1="8.7890625" x2="-15.625" y2="-46.875" id="line_129" class="plain" />
<line x1="421.875" y1="-328.125" x2="425.78125" y2="-335.9375" id="line_140" class="plain" />
<line x1="562.5" y1="-78.125" x2="568.359375" y2="-81.0546875" id="line_141" class="plain" />
<line x1="-109.375" y1="-78.125" x2="-116.2109375" y2="-81.0546875" id="line_147" class="plain" />
<line x1="31.25" y1="-328.125" x2="28.3203125" y2="-334.9609375" id="line_148" class="plain" />
<line x1="31.25" y1="421.875" x2="26.3671875" y2="429.6875" id="line_154" class="plain" />
<line x1="-109.375" y1="171.875" x2="-116.2109375" y2="173.828125" id="line_155" class="plain" />
<line x1="562.5" y1="171.875" x2="569.3359375" y2="172.8515625" id="line_156" class="plain" />
<line x1="437.5" y1="421.875" x2="441.40625" y2="431.640625" id="line_157" class="plain" />
<!-- end group: "border_plain" -->
</g>
<g id="border_ceiling">
<line x1="250.0" y1="-359.375" x2="203.125" y2="-359.375" id="line_60" class="ceiling" />
<line x1="781.25" y1="77.1484375" x2="781.25" y2="30.2734375" id="line_68" class="ceiling" />
<line x1="593.75" y1="77.1484375" x2="593.75" y2="30.2734375" id="line_73" class="ceiling" />
<line x1="574.21875" y1="86.9140625" x2="574.21875" y2="20.5078125" id="line_75" class="ceiling" />
<line x1="-140.2587890625" y1="19.6533203125" x2="-140.2587890625" y2="66.5283203125" id="line_83" class="ceiling" />
<line x1="-327.7587890625" y1="19.6533203125" x2="-327.7587890625" y2="66.5283203125" id="line_89" class="ceiling" />
<line x1="-120.7275390625" y1="9.8876953125" x2="-120.7275390625" y2="76.2939453125" id="line_94" class="ceiling" />
<line x1="212.58544921875" y1="453.2470703125" x2="259.46044921875" y2="453.2470703125" id="line_101" class="ceiling" />
<line x1="202.81982421875" y1="433.7158203125" x2="269.22607421875" y2="433.7158203125" id="line_110" class="ceiling" />
<line x1="195.49560546875" y1="-344.146728515625" x2="257.8125" y2="-343.75" id="line_115" class="ceiling" />
<line x1="375.0" y1="-250.0" x2="265.625" y2="-31.25" id="line_116" class="ceiling" />
<line x1="203.125" y1="-31.25" x2="78.125" y2="-250.0" id="line_117" class="ceiling" />
<line x1="265.625" y1="109.375" x2="390.625" y2="343.75" id="line_120" class="ceiling" />
<line x1="203.125" y1="109.375" x2="78.125" y2="343.75" id="line_121" class="ceiling" />
<!-- end group: "border_ceiling" -->
</g>
<g id="border_elevation">
<line x1="-15.625" y1="31.25" x2="-15.625" y2="62.5" id="line_25" class="elevation" />
<line x1="468.75" y1="62.5" x2="468.75" y2="31.25" id="line_33" class="elevation" />
<line x1="281.25" y1="68.84765625" x2="281.25" y2="8.7890625" id="line_35" class="elevation" />
<line x1="187.5" y1="8.7890625" x2="187.5" y2="68.84765625" id="line_36" class="elevation" />
<line x1="281.25" y1="8.7890625" x2="265.625" y2="-31.25" id="line_118" class="elevation" />
<line x1="203.125" y1="-31.25" x2="187.5" y2="8.7890625" id="line_119" class="elevation" />
<line x1="265.625" y1="109.375" x2="281.25" y2="68.84765625" id="line_122" class="elevation" />
<line x1="187.5" y1="68.84765625" x2="203.125" y2="109.375" id="line_123" class="elevation" />
<line x1="203.125" y1="109.375" x2="265.625" y2="109.375" id="line_124" class="elevation" />
<line x1="265.625" y1="-31.25" x2="203.125" y2="-31.25" id="line_125" class="elevation" />
<!-- end group: "border_elevation" -->
</g>
<g id="border_solid">
<line x1="-15.625" y1="31.25" x2="-15.625" y2="-46.875" id="line_0" class="solid" />
<line x1="468.75" y1="62.5" x2="468.75" y2="140.625" id="line_1" class="solid" />
<line x1="468.75" y1="-46.875" x2="375.0" y2="-250.0" id="line_2" class="solid" />
<line x1="78.125" y1="-250.0" x2="-15.625" y2="-46.875" id="line_3" class="solid" />
<line x1="78.125" y1="-250.0" x2="375.0" y2="-250.0" id="line_4" class="solid" />
<line x1="500.0" y1="156.25" x2="500.0" y2="-62.5" id="line_5" class="solid" />
<line x1="390.625" y1="-281.25" x2="500.0" y2="-62.5" id="line_6" class="solid" />
<line x1="390.625" y1="-281.25" x2="62.5" y2="-281.25" id="line_7" class="solid" />
<line x1="-46.875" y1="-62.5" x2="62.5" y2="-281.25" id="line_8" class="solid" />
<line x1="-46.875" y1="-62.5" x2="-46.875" y2="148.4375" id="line_9" class="solid" />
<line x1="62.5" y1="-281.25" x2="78.125" y2="-250.0" id="line_10" class="solid" />
<line x1="-15.625" y1="-46.875" x2="-46.875" y2="-62.5" id="line_11" class="solid" />
<line x1="375.0" y1="-250.0" x2="390.625" y2="-281.25" id="line_12" class="solid" />
<line x1="500.0" y1="-62.5" x2="468.75" y2="-46.875" id="line_13" class="solid" />
<line x1="468.75" y1="140.625" x2="500.0" y2="156.25" id="line_14" class="solid" />
<line x1="-46.875" y1="148.4375" x2="-15.625" y2="140.625" id="line_15" class="solid" />
<line x1="-38.0859375" y1="31.25" x2="-15.625" y2="31.25" id="line_26" class="solid" />
<line x1="-38.0859375" y1="62.5" x2="-38.0859375" y2="31.25" id="line_27" class="solid" />
<line x1="-15.625" y1="140.625" x2="-15.625" y2="62.5" id="line_28" class="solid" />
<line x1="-15.625" y1="62.5" x2="-38.0859375" y2="62.5" id="line_29" class="solid" />
<line x1="468.75" y1="-46.875" x2="468.75" y2="31.25" id="line_30" class="solid" />
<line x1="468.75" y1="31.25" x2="492.1875" y2="31.25" id="line_31" class="solid" />
<line x1="492.1875" y1="31.25" x2="492.1875" y2="62.5" id="line_32" class="solid" />
<line x1="492.1875" y1="62.5" x2="468.75" y2="62.5" id="line_34" class="solid" />
<line x1="390.625" y1="343.75" x2="468.75" y2="140.625" id="line_37" class="solid" />
<line x1="78.125" y1="343.75" x2="62.5" y2="375.0" id="line_38" class="solid" />
<line x1="-15.625" y1="140.625" x2="78.125" y2="343.75" id="line_39" class="solid" />
<line x1="390.625" y1="343.75" x2="78.125" y2="343.75" id="line_40" class="solid" />
<line x1="406.25" y1="375.0" x2="390.625" y2="343.75" id="line_41" class="solid" />
<line x1="62.5" y1="375.0" x2="406.25" y2="375.0" id="line_42" class="solid" />
<line x1="406.25" y1="375.0" x2="500.0" y2="156.25" id="line_43" class="solid" />
<line x1="-46.875" y1="148.4375" x2="62.5" y2="375.0" id="line_44" class="solid" />
<line x1="187.5" y1="-328.125" x2="195.49560546875" y2="-344.146728515625" id="line_50" class="solid" />
<line x1="250.0" y1="-359.375" x2="257.8125" y2="-343.75" id="line_52" class="solid" />
<line x1="296.875" y1="-406.25" x2="250.0" y2="-359.375" id="line_53" class="solid" />
<line x1="296.875" y1="-500.0" x2="296.875" y2="-406.25" id="line_54" class="solid" />
<line x1="250.0" y1="-546.875" x2="296.875" y2="-500.0" id="line_55" class="solid" />
<line x1="203.125" y1="-546.875" x2="250.0" y2="-546.875" id="line_56" class="solid" />
<line x1="156.25" y1="-500.0" x2="203.125" y2="-546.875" id="line_57" class="solid" />
<line x1="156.25" y1="-406.25" x2="156.25" y2="-500.0" id="line_58" class="solid" />
<line x1="203.125" y1="-359.375" x2="156.25" y2="-406.25" id="line_59" class="solid" />
<line x1="593.75" y1="30.2734375" x2="640.625" y2="-16.6015625" id="line_63" class="solid" />
<line x1="593.75" y1="77.1484375" x2="574.21875" y2="86.9140625" id="line_64" class="solid" />
<line x1="640.625" y1="124.0234375" x2="593.75" y2="77.1484375" id="line_65" class="solid" />
<line x1="734.375" y1="124.0234375" x2="640.625" y2="124.0234375" id="line_66" class="solid" />
<line x1="781.25" y1="77.1484375" x2="734.375" y2="124.0234375" id="line_67" class="solid" />
<line x1="797.9736328125" y1="53.1005859375" x2="781.25" y2="77.1484375" id="line_69" class="solid" />
<line x1="734.375" y1="-16.6015625" x2="781.25" y2="30.2734375" id="line_70" class="solid" />
<line x1="781.25" y1="30.2734375" x2="797.9736328125" y2="53.1005859375" id="line_71" class="solid" />
<line x1="640.625" y1="-16.6015625" x2="734.375" y2="-16.6015625" id="line_72" class="solid" />
<line x1="574.21875" y1="20.5078125" x2="593.75" y2="30.2734375" id="line_74" class="solid" />
<line x1="562.5" y1="14.6484375" x2="574.21875" y2="20.5078125" id="line_77" class="solid" />
<line x1="574.21875" y1="86.9140625" x2="562.5" y2="92.7734375" id="line_78" class="solid" />
<line x1="-109.375" y1="81.817626953125" x2="-120.7275390625" y2="76.2939453125" id="line_80" class="solid" />
<line x1="-120.7275390625" y1="9.8876953125" x2="-109.375" y2="3.84521484375" id="line_81" class="solid" />
<line x1="-140.2587890625" y1="66.5283203125" x2="-187.1337890625" y2="113.4033203125" id="line_82" class="solid" />
<line x1="-120.7275390625" y1="76.2939453125" x2="-140.2587890625" y2="66.5283203125" id="line_84" class="solid" />
<line x1="-140.2587890625" y1="19.6533203125" x2="-120.7275390625" y2="9.8876953125" id="line_85" class="solid" />
<line x1="-187.1337890625" y1="-27.2216796875" x2="-140.2587890625" y2="19.6533203125" id="line_86" class="solid" />
<line x1="-280.8837890625" y1="-27.2216796875" x2="-187.1337890625" y2="-27.2216796875" id="line_87" class="solid" />
<line x1="-327.7587890625" y1="19.6533203125" x2="-280.8837890625" y2="-27.2216796875" id="line_88" class="solid" />
<line x1="-344.482421875" y1="43.701171875" x2="-327.7587890625" y2="19.6533203125" id="line_90" class="solid" />
<line x1="-280.8837890625" y1="113.4033203125" x2="-327.7587890625" y2="66.5283203125" id="line_91" class="solid" />
<line x1="-327.7587890625" y1="66.5283203125" x2="-344.482421875" y2="43.701171875" id="line_92" class="solid" />
<line x1="-187.1337890625" y1="113.4033203125" x2="-280.8837890625" y2="113.4033203125" id="line_93" class="solid" />
<line x1="274.749755859375" y1="422.36328125" x2="269.22607421875" y2="433.7158203125" id="line_98" class="solid" />
<line x1="202.81982421875" y1="433.7158203125" x2="196.77734375" y2="422.36328125" id="line_99" class="solid" />
<line x1="259.46044921875" y1="453.2470703125" x2="306.33544921875" y2="500.1220703125" id="line_100" class="solid" />
<line x1="269.22607421875" y1="433.7158203125" x2="259.46044921875" y2="453.2470703125" id="line_102" class="solid" />
<line x1="212.58544921875" y1="453.2470703125" x2="202.81982421875" y2="433.7158203125" id="line_103" class="solid" />
<line x1="165.71044921875" y1="500.1220703125" x2="212.58544921875" y2="453.2470703125" id="line_104" class="solid" />
<line x1="165.71044921875" y1="593.8720703125" x2="165.71044921875" y2="500.1220703125" id="line_105" class="solid" />
<line x1="212.58544921875" y1="640.7470703125" x2="165.71044921875" y2="593.8720703125" id="line_106" class="solid" />
<line x1="259.46044921875" y1="640.7470703125" x2="212.58544921875" y2="640.7470703125" id="line_107" class="solid" />
<line x1="306.33544921875" y1="593.8720703125" x2="259.46044921875" y2="640.7470703125" id="line_108" class="solid" />
<line x1="306.33544921875" y1="500.1220703125" x2="306.33544921875" y2="593.8720703125" id="line_109" class="solid" />
<line x1="195.49560546875" y1="-344.146728515625" x2="203.125" y2="-359.375" id="line_113" class="solid" />
<line x1="257.8125" y1="-343.75" x2="265.625" y2="-328.125" id="line_114" class="solid" />
<line x1="281.25" y1="430.6640625" x2="274.749755859375" y2="422.36328125" id="line_130" class="solid" />
<line x1="441.40625" y1="431.640625" x2="281.25" y2="430.6640625" id="line_131" class="solid" />
<line x1="569.3359375" y1="172.8515625" x2="441.40625" y2="431.640625" id="line_132" class="solid" />
<line x1="569.3359375" y1="98.6328125" x2="569.3359375" y2="172.8515625" id="line_133" class="solid" />
<line x1="562.5" y1="92.7734375" x2="569.3359375" y2="98.6328125" id="line_134" class="solid" />
<line x1="568.359375" y1="8.7890625" x2="562.5" y2="14.6484375" id="line_135" class="solid" />
<line x1="568.359375" y1="-81.0546875" x2="568.359375" y2="8.7890625" id="line_136" class="solid" />
<line x1="425.78125" y1="-335.9375" x2="568.359375" y2="-81.0546875" id="line_137" class="solid" />
<line x1="267.578125" y1="-336.9140625" x2="425.78125" y2="-335.9375" id="line_138" class="solid" />
<line x1="265.625" y1="-328.125" x2="267.578125" y2="-336.9140625" id="line_139" class="solid" />
<line x1="183.59375" y1="-334.9609375" x2="187.5" y2="-328.125" id="line_142" class="solid" />
<line x1="28.3203125" y1="-334.9609375" x2="183.59375" y2="-334.9609375" id="line_143" class="solid" />
<line x1="-116.2109375" y1="-81.0546875" x2="28.3203125" y2="-334.9609375" id="line_144" class="solid" />
<line x1="-116.2109375" y1="0.9765625" x2="-116.2109375" y2="-81.0546875" id="line_145" class="solid" />
<line x1="-109.375" y1="3.84521484375" x2="-116.2109375" y2="0.9765625" id="line_146" class="solid" />
<line x1="-116.2109375" y1="86.9140625" x2="-109.375" y2="81.817626953125" id="line_149" class="solid" />
<line x1="-116.2109375" y1="173.828125" x2="-116.2109375" y2="86.9140625" id="line_150" class="solid" />
<line x1="26.3671875" y1="429.6875" x2="-116.2109375" y2="173.828125" id="line_151" class="solid" />
<line x1="193.359375" y1="429.6875" x2="26.3671875" y2="429.6875" id="line_152" class="solid" />
<line x1="196.77734375" y1="422.36328125" x2="193.359375" y2="429.6875" id="line_153" class="solid" />
<!-- end group: "border_solid" -->
</g>
<!-- end group: "borders" -->
</g>
<g id="poly_teleporter_lines">
<g id="panel_teleporter_lines_p11">
<g id="panel_teleporter_line_group_poly_p11_p4">
<line x1="786.80419921875" y1="53.497314453125" x2="-26.85546875" y2="46.875" id="panel_teleporter_border_p11_p4" class="teleporter_border" />
<use xlink:href="../resources/svg/common.svg#arrow" x="-26.85546875" y="46.875" id="panel_teleporter_head_p11_p4" class="teleporter_line" transform="rotate(-179.53368428355387 -26.85546875 46.875)" />
<line x1="786.80419921875" y1="53.497314453125" x2="-26.85546875" y2="46.875" id="panel_teleporter_line_p11_p4" class="teleporter_line" />
<!-- end group: "panel_teleporter_line_group_poly_p11_p4" -->
</g>
<!-- end group: "panel_teleporter_lines_p11" -->
</g>
<g id="panel_teleporter_lines_p19">
<g id="panel_teleporter_line_group_poly_p19_p5">
<line x1="-333.31298828125" y1="43.27392578125" x2="480.46875" y2="46.875" id="panel_teleporter_border_p19_p5" class="teleporter_border" />
<use xlink:href="../resources/svg/common.svg#arrow" x="480.46875" y="46.875" id="panel_teleporter_head_p19_p5" class="teleporter_line" transform="rotate(0.25353850796120897 480.46875 46.875)" />
<line x1="-333.31298828125" y1="43.27392578125" x2="480.46875" y2="46.875" id="panel_teleporter_line_p19_p5" class="teleporter_line" />
<!-- end group: "panel_teleporter_line_group_poly_p19_p5" -->
</g>
<!-- end group: "panel_teleporter_lines_p19" -->
</g>
<!-- end group: "poly_teleporter_lines" -->
</g>
<g id="objects">
<g id="objects_item">
<use xlink:href="../resources/svg/common.svg#item" x="224.609375" y="7.8125" id="object_8" class="item item-9" transform="rotate(330.46875 224.609375 7.8125)" />
<use xlink:href="../resources/svg/common.svg#item" x="210.9375" y="46.875" id="object_9" class="item item-9" transform="rotate(330.46875 210.9375 46.875)" />
<use xlink:href="../resources/svg/common.svg#item" x="252.9296875" y="50.78125" id="object_10" class="item item-9" transform="rotate(330.46875 252.9296875 50.78125)" />
<use xlink:href="../resources/svg/common.svg#item" x="230.46875" y="76.171875" id="object_11" class="item item-9" transform="rotate(330.46875 230.46875 76.171875)" />
<use xlink:href="../resources/svg/common.svg#item" x="237.3046875" y="317.3828125" id="object_12" class="item item-8" />
<use xlink:href="../resources/svg/common.svg#item" x="226.5625" y="-222.65625" id="object_13" class="item item-8" />
<use xlink:href="../resources/svg/common.svg#item" x="226.5625" y="-350.5859375" id="object_14" class="item item-8" />
<use xlink:href="../resources/svg/common.svg#item" x="237.3046875" y="443.359375" id="object_15" class="item item-8" />
<use xlink:href="../resources/svg/common.svg#item" x="584.9609375" y="53.7109375" id="object_16" class="item item-8" transform="rotate(270.703125 584.9609375 53.7109375)" />
<use xlink:href="../resources/svg/common.svg#item" x="-130.859375" y="41.015625" id="object_17" class="item item-8" transform="rotate(270.703125 -130.859375 41.015625)" />
<use xlink:href="../resources/svg/common.svg#item" x="253.90625" y="530.2734375" id="object_18" class="item item-5" />
<use xlink:href="../resources/svg/common.svg#item" x="239.2578125" y="-454.1015625" id="object_19" class="item item-5" />
<use xlink:href="../resources/svg/common.svg#item" x="-221.6796875" y="28.3203125" id="object_20" class="item item-6" />
<use xlink:href="../resources/svg/common.svg#item" x="-221.6796875" y="47.8515625" id="object_21" class="item item-7" />
<use xlink:href="../resources/svg/common.svg#item" x="-248.046875" y="51.7578125" id="object_22" class="item item-9" />
<use xlink:href="../resources/svg/common.svg#item" x="-246.09375" y="34.1796875" id="object_23" class="item item-6" />
<use xlink:href="../resources/svg/common.svg#item" x="235.3515625" y="519.53125" id="object_24" class="item item-6" />
<use xlink:href="../resources/svg/common.svg#item" x="217.7734375" y="536.1328125" id="object_25" class="item item-7" />
<use xlink:href="../resources/svg/common.svg#item" x="240.234375" y="550.78125" id="object_26" class="item item-9" />
<use xlink:href="../resources/svg/common.svg#item" x="687.5" y="42.96875" id="object_27" class="item item-9" />
<use xlink:href="../resources/svg/common.svg#item" x="672.8515625" y="55.6640625" id="object_28" class="item item-6" />
<use xlink:href="../resources/svg/common.svg#item" x="690.4296875" y="61.5234375" id="object_29" class="item item-7" />
<use xlink:href="../resources/svg/common.svg#item" x="224.609375" y="-464.84375" id="object_30" class="item item-7" />
<use xlink:href="../resources/svg/common.svg#item" x="212.890625" y="-451.171875" id="object_31" class="item item-6" />
<use xlink:href="../resources/svg/common.svg#item" x="226.5625" y="-433.59375" id="object_32" class="item item-9" />
<use xlink:href="../resources/svg/common.svg#item" x="234.375" y="30.2734375" id="object_33" class="item item-27" transform="rotate(211.640625 234.375 30.2734375)" />
<!-- end group: "objects_item" -->
</g>
<g id="objects_player">
<use xlink:href="../resources/svg/common.svg#monster" x="237.3046875" y="617.1875" id="object_0" class="player" transform="rotate(270.703125 237.3046875 617.1875)" />
<use xlink:href="../resources/svg/common.svg#monster" x="758.7890625" y="52.734375" id="object_1" class="player" transform="rotate(178.59375 758.7890625 52.734375)" />
<use xlink:href="../resources/svg/common.svg#monster" x="-301.7578125" y="43.9453125" id="object_2" class="player" transform="rotate(0.703125 -301.7578125 43.9453125)" />
<use xlink:href="../resources/svg/common.svg#monster" x="230.46875" y="-522.4609375" id="object_3" class="player" transform="rotate(88.59375 230.46875 -522.4609375)" />
<use xlink:href="../resources/svg/common.svg#monster" x="478.515625" y="262.6953125" id="object_4" class="player" transform="rotate(213.75 478.515625 262.6953125)" />
<use xlink:href="../resources/svg/common.svg#monster" x="471.6796875" y="-178.7109375" id="object_5" class="player" transform="rotate(137.8125 471.6796875 -178.7109375)" />
<use xlink:href="../resources/svg/common.svg#monster" x="-3.90625" y="-205.078125" id="object_6" class="player" transform="rotate(27.421875 -3.90625 -205.078125)" />
<use xlink:href="../resources/svg/common.svg#monster" x="-8.7890625" y="283.203125" id="object_7" class="player" transform="rotate(331.875 -8.7890625 283.203125)" />
<!-- end group: "objects_player" -->
</g>
<!-- end group: "objects" -->
</g>
<g id="panels">
<!-- end group: "panels" -->
</g>
<g id="annotations">
<text x="217.7734375" y="43.9453125" id="annotation_0" class="annotation">The Pit</text>
<text x="-278.3203125" y="42.96875" id="annotation_1" class="annotation">Tuncer's Room</text>
<text x="193.359375" y="-454.1015625" id="annotation_2" class="annotation">The Olestra Room</text>
<text x="655.2734375" y="55.6640625" id="annotation_3" class="annotation">Jason's Room</text>
<text x="196.2890625" y="548.828125" id="annotation_4" class="annotation">The Noodleboy Room</text>
<!-- end group: "annotations" -->
</g>

<script xlink:href="../resources/js/level.js" ></script>
</svg>