<?xml version="1.0" encoding="UTF-8"?>
<!-- generated by map2svg: github.com/fracai/marathon-svg -->
<svg xmlns="http://www.w3.org/2000/svg" xmlns:xlink="http://www.w3.org/1999/xlink" version="1.1"
    viewBox="-468.75 -375.0 843.75 937.5">
<link xmlns="http://www.w3.org/1999/xhtml" rel="stylesheet" href="../resources/css/styles.css" type="text/css" />
<style id="dynamic-style" />
<g id="background-grid">
<defs>
<pattern id="grid_minor" width="3.125" height="3.125" patternUnits="userSpaceOnUse">
<path d="M 3.125 0 L 0 0 0 3.125" fill="none" class="grid_minor" />
</pattern>
<pattern id="grid_major" width="31.25" height="31.25" patternUnits="userSpaceOnUse">
<rect width="31.25" height="31.25" fill="url(#grid_minor)"/>
<path d="M 31.25 0 L 0 0 0 31.25" fill="none" class="grid_major" />
</pattern>
</defs>
<rect x="-1000" y="-1000" width="2000" height="2000" fill="url(#grid_major)" />
<line x1="0" y1="1000" x2="0" y2="-1000" class="grid_origin" />
<line x1="1000" y1="0" x2="-1000" y2="0" class="grid_origin" />
<!-- end group: "background-grid" -->
</g>
<g id="polygons">
<polygon points="187.5,281.25 218.75,281.25 187.5,343.75 156.25,343.75" id="poly_5" class="plain" />
<polygon points="156.25,343.75 187.5,343.75 93.75,437.5 93.75,406.25" id="poly_6" class="plain" />
<polygon points="93.75,406.25 93.75,437.5 0.0,468.75 0.0,437.5" id="poly_7" class="plain" />
<polygon points="-93.75,437.5 0.0,437.5 0.0,468.75 -93.75,468.75" id="poly_8" class="plain" />
<polygon points="-187.5,437.5 -187.5,406.25 -93.75,437.5 -93.75,468.75" id="poly_9" class="plain" />
<polygon points="-281.25,343.75 -250.0,343.75 -187.5,406.25 -187.5,437.5" id="poly_10" class="plain" />
<polygon points="-312.5,281.25 -281.25,281.25 -250.0,343.75 -281.25,343.75" id="poly_11" class="plain" />
<polygon points="-343.75,218.75 -312.5,218.75 -281.25,281.25 -312.5,281.25" id="poly_12" class="plain" />
<polygon points="-375.0,125.0 -343.75,125.0 -312.5,218.75 -343.75,218.75" id="poly_13" class="plain" />
<polygon points="-375.0,62.5 -343.75,62.5 -343.75,125.0 -375.0,125.0" id="poly_14" class="plain" />
<polygon points="-343.75,-31.25 -312.5,-31.25 -343.75,62.5 -375.0,62.5" id="poly_15" class="plain" />
<polygon points="-312.5,-93.75 -281.25,-93.75 -312.5,-31.25 -343.75,-31.25" id="poly_16" class="plain" />
<polygon points="-281.25,-156.25 -250.0,-156.25 -281.25,-93.75 -312.5,-93.75" id="poly_17" class="plain" />
<polygon points="-187.5,-250.0 -187.5,-218.75 -250.0,-156.25 -281.25,-156.25" id="poly_18" class="plain" />
<polygon points="93.75,-218.75 93.75,-250.0 187.5,-156.25 156.25,-156.25" id="poly_19" class="plain" />
<polygon points="0.0,-250.0 0.0,-281.25 93.75,-250.0 93.75,-218.75" id="poly_20" class="plain" />
<polygon points="-93.75,-281.25 0.0,-281.25 0.0,-250.0 -93.75,-250.0" id="poly_21" class="plain" />
<polygon points="-93.75,-281.25 -93.75,-250.0 -187.5,-218.75 -187.5,-250.0" id="poly_22" class="plain" />
<polygon points="-93.75,-312.5 0.0,-312.5 0.0,-281.25 -93.75,-281.25" id="poly_23" class="platform" />
<polygon points="156.25,-156.25 187.5,-156.25 218.75,-93.75 187.5,-93.75" id="poly_24" class="plain" />
<polygon points="187.5,-93.75 218.75,-93.75 250.0,-31.25 218.75,-31.25" id="poly_25" class="plain" />
<polygon points="218.75,-31.25 250.0,-31.25 281.25,62.5 250.0,62.5" id="poly_26" class="plain" />
<polygon points="250.0,62.5 281.25,62.5 281.25,125.0 250.0,125.0" id="poly_27" class="plain" />
<polygon points="250.0,125.0 281.25,125.0 250.0,218.75 218.75,218.75" id="poly_28" class="plain" />
<polygon points="218.75,218.75 250.0,218.75 218.75,281.25 187.5,281.25" id="poly_29" class="plain" />
<polygon points="-93.75,468.75 0.0,468.75 0.0,500.0 -93.75,500.0" id="poly_35" class="platform" />
<polygon points="-250.0,-156.25 -187.5,-218.75 -93.75,-250.0 0.0,-250.0 93.75,-218.75 156.25,-156.25 187.5,-93.75 -281.25,-93.75" id="poly_0" class="plain" />
<polygon points="-312.5,-31.25 -281.25,-93.75 187.5,-93.75 218.75,-31.25 250.0,62.5 -343.75,62.5" id="poly_1" class="plain" />
<polygon points="-343.75,62.5 250.0,62.5 250.0,125.0 -343.75,125.0" id="poly_2" class="hill" />
<polygon points="-343.75,125.0 250.0,125.0 218.75,218.75 187.5,281.25 156.25,343.75 -250.0,343.75 -281.25,281.25 -312.5,218.75" id="poly_3" class="plain" />
<polygon points="-250.0,343.75 156.25,343.75 93.75,406.25 0.0,437.5 -93.75,437.5 -187.5,406.25" id="poly_4" class="plain" />
<polygon points="-406.25,62.5 -375.0,62.5 -375.0,125.0 -406.25,125.0" id="poly_33" class="plain" />
<polygon points="-437.5,62.5 -406.25,62.5 -406.25,125.0 -437.5,125.0" id="poly_36" class="plain" />
<polygon points="281.25,62.5 312.5,62.5 343.75,62.5 343.75,125.0 312.5,125.0 281.25,125.0" id="poly_52" class="plain" />
<polygon points="-437.5,31.25 -406.25,31.25 -406.25,62.5 -437.5,62.5" id="poly_37" class="plain" />
<polygon points="-437.5,125.0 -406.25,125.0 -406.25,156.25 -437.5,156.25" id="poly_41" class="plain" />
<polygon points="312.5,31.25 343.75,31.25 343.75,62.5 312.5,62.5" id="poly_58" class="plain" />
<polygon points="312.5,125.0 343.75,125.0 343.75,156.25 312.5,156.25" id="poly_59" class="plain" />
<polygon points="-437.5,0.0 -406.25,0.0 -406.25,31.25 -437.5,31.25" id="poly_38" class="plain" />
<polygon points="-437.5,156.25 -406.25,156.25 -406.25,187.5 -437.5,187.5" id="poly_42" class="plain" />
<polygon points="312.5,0.0 343.75,0.0 343.75,31.25 312.5,31.25" id="poly_57" class="plain" />
<polygon points="312.5,156.25 343.75,156.25 343.75,187.5 312.5,187.5" id="poly_60" class="plain" />
<polygon points="-437.5,-31.25 -406.25,-31.25 -406.25,0.0 -437.5,0.0" id="poly_39" class="plain" />
<polygon points="-437.5,187.5 -406.25,187.5 -406.25,218.75 -437.5,218.75" id="poly_43" class="plain" />
<polygon points="312.5,-31.25 343.75,-31.25 343.75,0.0 312.5,0.0" id="poly_56" class="plain" />
<polygon points="312.5,187.5 343.75,187.5 343.75,218.75 312.5,218.75" id="poly_62" class="plain" />
<polygon points="-437.5,-62.5 -406.25,-62.5 -406.25,-31.25 -437.5,-31.25" id="poly_40" class="plain" />
<polygon points="-437.5,218.75 -406.25,218.75 -406.25,250.0 -437.5,250.0" id="poly_44" class="plain" />
<polygon points="312.5,-62.5 343.75,-62.5 343.75,-31.25 312.5,-31.25" id="poly_55" class="plain" />
<polygon points="312.5,218.75 343.75,218.75 343.75,250.0 312.5,250.0" id="poly_61" class="plain" />
<polygon points="187.5,343.75 203.125,359.375 109.375,453.125 93.75,437.5" id="poly_30" class="plain" />
<polygon points="93.75,-250.0 109.375,-265.625 203.125,-171.875 187.5,-156.25" id="poly_31" class="plain" />
<polygon points="-203.125,-265.625 -187.5,-250.0 -281.25,-156.25 -296.875,-171.875" id="poly_32" class="plain" />
<polygon points="-296.875,359.375 -281.25,343.75 -187.5,437.5 -203.125,453.125" id="poly_34" class="plain" />
<polygon points="-437.5,250.0 -406.25,250.0 -296.875,359.375 -312.5,406.25 -406.25,343.75" id="poly_45" class="plain" />
<polygon points="-312.5,406.25 -296.875,359.375 -203.125,453.125 -250.0,468.75" id="poly_46" class="plain" />
<polygon points="0.0,-312.5 0.0,-343.75 156.25,-281.25 109.375,-265.625" id="poly_47" class="plain" />
<polygon points="-93.75,-343.75 -93.75,-312.5 -203.125,-265.625 -250.0,-281.25" id="poly_48" class="plain" />
<polygon points="-93.75,-343.75 0.0,-343.75 0.0,-312.5 -93.75,-312.5" id="poly_49" class="plain" />
<polygon points="-250.0,-281.25 -203.125,-265.625 -296.875,-171.875 -312.5,-218.75" id="poly_50" class="plain" />
<polygon points="-312.5,-218.75 -296.875,-171.875 -406.25,-62.5 -437.5,-62.5 -406.25,-187.5" id="poly_51" class="plain" />
<polygon points="109.375,-265.625 156.25,-281.25 218.75,-218.75 203.125,-171.875" id="poly_53" class="plain" />
<polygon points="203.125,-171.875 218.75,-218.75 312.5,-187.5 343.75,-62.5 312.5,-62.5" id="poly_54" class="plain" />
<polygon points="312.5,250.0 343.75,250.0 312.5,375.0 218.75,406.25 203.125,359.375" id="poly_63" class="plain" />
<polygon points="203.125,359.375 218.75,406.25 156.25,468.75 109.375,453.125" id="poly_64" class="plain" />
<polygon points="109.375,453.125 156.25,468.75 0.0,531.25 0.0,500.0" id="poly_65" class="plain" />
<polygon points="-93.75,500.0 0.0,500.0 0.0,531.25 -93.75,531.25" id="poly_66" class="plain" />
<polygon points="-250.0,468.75 -203.125,453.125 -93.75,500.0 -93.75,531.25" id="poly_67" class="plain" />
<!-- end group: "polygons" -->
</g>
<g id="borders">
<g id="border_unconnected">
<line x1="-265.625" y1="-441.40625" x2="-281.25" y2="-390.625" id="line_191" class="unconnected" />
<line x1="-291.015625" y1="-443.359375" x2="-232.421875" y2="-439.453125" id="line_192" class="unconnected" />
<line x1="-210.9375" y1="-443.359375" x2="-218.75" y2="-402.34375" id="line_193" class="unconnected" />
<line x1="-218.75" y1="-402.34375" x2="-185.546875" y2="-404.296875" id="line_194" class="unconnected" />
<line x1="-175.78125" y1="-439.453125" x2="-185.546875" y2="-404.296875" id="line_195" class="unconnected" />
<line x1="-138.671875" y1="-437.5" x2="-166.015625" y2="-396.484375" id="line_196" class="unconnected" />
<line x1="-138.671875" y1="-437.5" x2="-123.046875" y2="-402.34375" id="line_197" class="unconnected" />
<line x1="-101.5625" y1="-435.546875" x2="-123.046875" y2="-402.34375" id="line_198" class="unconnected" />
<line x1="-35.15625" y1="-427.734375" x2="-68.359375" y2="-429.6875" id="line_199" class="unconnected" />
<line x1="-68.359375" y1="-429.6875" x2="-97.65625" y2="-388.671875" id="line_200" class="unconnected" />
<line x1="-97.65625" y1="-388.671875" x2="-23.4375" y2="-388.671875" id="line_201" class="unconnected" />
<line x1="9.765625" y1="-425.78125" x2="-11.71875" y2="-392.578125" id="line_202" class="unconnected" />
<line x1="9.765625" y1="-425.78125" x2="48.828125" y2="-433.59375" id="line_203" class="unconnected" />
<line x1="-3.90625" y1="-400.390625" x2="29.296875" y2="-404.296875" id="line_204" class="unconnected" />
<line x1="-1.953125" y1="-392.578125" x2="50.78125" y2="-380.859375" id="line_205" class="unconnected" />
<line x1="89.84375" y1="-431.640625" x2="70.3125" y2="-382.8125" id="line_206" class="unconnected" />
<line x1="103.515625" y1="-435.546875" x2="121.09375" y2="-419.921875" id="line_207" class="unconnected" />
<line x1="121.09375" y1="-419.921875" x2="89.4775390625" y2="-400.177001953125" id="line_208" class="unconnected" />
<line x1="89.4775390625" y1="-400.177001953125" x2="74.21875" y2="-390.625" id="line_209" class="unconnected" />
<line x1="89.4775390625" y1="-400.177001953125" x2="115.234375" y2="-365.234375" id="line_210" class="unconnected" />
<!-- end group: "border_unconnected" -->
</g>
<g id="border_plain">
<line x1="109.375" y1="-265.625" x2="203.125" y2="-171.875" id="line_50" class="plain" />
<line x1="-296.875" y1="-171.875" x2="-203.125" y2="-265.625" id="line_52" class="plain" />
<line x1="203.125" y1="359.375" x2="109.375" y2="453.125" id="line_55" class="plain" />
<line x1="-203.125" y1="453.125" x2="-296.875" y2="359.375" id="line_58" class="plain" />
<line x1="-406.25" y1="125.0" x2="-406.25" y2="62.5" id="line_61" class="plain" />
<line x1="156.25" y1="343.75" x2="-250.0" y2="343.75" id="line_69" class="plain" />
<line x1="250.0" y1="125.0" x2="-343.75" y2="125.0" id="line_70" class="plain" />
<line x1="250.0" y1="62.5" x2="-343.75" y2="62.5" id="line_71" class="plain" />
<line x1="187.5" y1="-93.75" x2="-281.25" y2="-93.75" id="line_72" class="plain" />
<line x1="93.75" y1="437.5" x2="93.75" y2="406.25" id="line_73" class="plain" />
<line x1="0.0" y1="468.75" x2="0.0" y2="437.5" id="line_74" class="plain" />
<line x1="-93.75" y1="468.75" x2="-93.75" y2="437.5" id="line_75" class="plain" />
<line x1="-187.5" y1="437.5" x2="-187.5" y2="406.25" id="line_76" class="plain" />
<line x1="-281.25" y1="343.75" x2="-250.0" y2="343.75" id="line_77" class="plain" />
<line x1="-312.5" y1="281.25" x2="-281.25" y2="281.25" id="line_78" class="plain" />
<line x1="-343.75" y1="218.75" x2="-312.5" y2="218.75" id="line_79" class="plain" />
<line x1="-375.0" y1="125.0" x2="-343.75" y2="125.0" id="line_80" class="plain" />
<line x1="-375.0" y1="62.5" x2="-343.75" y2="62.5" id="line_81" class="plain" />
<line x1="-343.75" y1="-31.25" x2="-312.5" y2="-31.25" id="line_82" class="plain" />
<line x1="-312.5" y1="-93.75" x2="-281.25" y2="-93.75" id="line_83" class="plain" />
<line x1="-281.25" y1="-156.25" x2="-250.0" y2="-156.25" id="line_84" class="plain" />
<line x1="-187.5" y1="-250.0" x2="-187.5" y2="-218.75" id="line_85" class="plain" />
<line x1="93.75" y1="-218.75" x2="93.75" y2="-250.0" id="line_86" class="plain" />
<line x1="187.5" y1="-156.25" x2="156.25" y2="-156.25" id="line_87" class="plain" />
<line x1="218.75" y1="-93.75" x2="187.5" y2="-93.75" id="line_88" class="plain" />
<line x1="250.0" y1="-31.25" x2="218.75" y2="-31.25" id="line_89" class="plain" />
<line x1="281.25" y1="62.5" x2="250.0" y2="62.5" id="line_90" class="plain" />
<line x1="281.25" y1="125.0" x2="250.0" y2="125.0" id="line_91" class="plain" />
<line x1="250.0" y1="218.75" x2="218.75" y2="218.75" id="line_92" class="plain" />
<line x1="187.5" y1="281.25" x2="218.75" y2="281.25" id="line_93" class="plain" />
<line x1="187.5" y1="343.75" x2="156.25" y2="343.75" id="line_94" class="plain" />
<line x1="-93.75" y1="-250.0" x2="-93.75" y2="-281.25" id="line_95" class="plain" />
<line x1="0.0" y1="-250.0" x2="0.0" y2="-281.25" id="line_96" class="plain" />
<line x1="-203.125" y1="453.125" x2="-250.0" y2="468.75" id="line_132" class="plain" />
<line x1="-296.875" y1="359.375" x2="-312.5" y2="406.25" id="line_133" class="plain" />
<line x1="-203.125" y1="-265.625" x2="-250.0" y2="-281.25" id="line_134" class="plain" />
<line x1="0.0" y1="-312.5" x2="0.0" y2="-343.75" id="line_138" class="plain" />
<line x1="156.25" y1="-281.25" x2="109.375" y2="-265.625" id="line_141" class="plain" />
<line x1="-93.75" y1="-343.75" x2="-93.75" y2="-312.5" id="line_142" class="plain" />
<line x1="-296.875" y1="-171.875" x2="-312.5" y2="-218.75" id="line_143" class="plain" />
<line x1="218.75" y1="-218.75" x2="203.125" y2="-171.875" id="line_145" class="plain" />
<line x1="156.25" y1="468.75" x2="109.375" y2="453.125" id="line_182" class="plain" />
<line x1="218.75" y1="406.25" x2="203.125" y2="359.375" id="line_183" class="plain" />
<line x1="-93.75" y1="531.25" x2="-93.75" y2="500.0" id="line_189" class="plain" />
<line x1="0.0" y1="531.25" x2="0.0" y2="500.0" id="line_190" class="plain" />
<!-- end group: "border_plain" -->
</g>
<g id="border_elevation">
<line x1="0.0" y1="-250.0" x2="93.75" y2="-218.75" id="line_0" class="elevation" />
<line x1="93.75" y1="-218.75" x2="156.25" y2="-156.25" id="line_1" class="elevation" />
<line x1="156.25" y1="-156.25" x2="187.5" y2="-93.75" id="line_2" class="elevation" />
<line x1="187.5" y1="-93.75" x2="218.75" y2="-31.25" id="line_3" class="elevation" />
<line x1="218.75" y1="-31.25" x2="250.0" y2="62.5" id="line_4" class="elevation" />
<line x1="-93.75" y1="-250.0" x2="0.0" y2="-250.0" id="line_5" class="elevation" />
<line x1="-187.5" y1="-218.75" x2="-93.75" y2="-250.0" id="line_6" class="elevation" />
<line x1="-281.25" y1="-93.75" x2="-250.0" y2="-156.25" id="line_7" class="elevation" />
<line x1="-312.5" y1="-31.25" x2="-281.25" y2="-93.75" id="line_8" class="elevation" />
<line x1="-343.75" y1="62.5" x2="-312.5" y2="-31.25" id="line_9" class="elevation" />
<line x1="250.0" y1="62.5" x2="250.0" y2="125.0" id="line_10" class="elevation" />
<line x1="-343.75" y1="125.0" x2="-343.75" y2="62.5" id="line_11" class="elevation" />
<line x1="250.0" y1="125.0" x2="218.75" y2="218.75" id="line_12" class="elevation" />
<line x1="-312.5" y1="218.75" x2="-343.75" y2="125.0" id="line_13" class="elevation" />
<line x1="218.75" y1="218.75" x2="187.5" y2="281.25" id="line_14" class="elevation" />
<line x1="187.5" y1="281.25" x2="156.25" y2="343.75" id="line_15" class="elevation" />
<line x1="156.25" y1="343.75" x2="93.75" y2="406.25" id="line_16" class="elevation" />
<line x1="-250.0" y1="-156.25" x2="-187.5" y2="-218.75" id="line_17" class="elevation" />
<line x1="-281.25" y1="281.25" x2="-312.5" y2="218.75" id="line_18" class="elevation" />
<line x1="-250.0" y1="343.75" x2="-281.25" y2="281.25" id="line_19" class="elevation" />
<line x1="-187.5" y1="406.25" x2="-250.0" y2="343.75" id="line_20" class="elevation" />
<line x1="-93.75" y1="437.5" x2="-187.5" y2="406.25" id="line_21" class="elevation" />
<line x1="0.0" y1="437.5" x2="-93.75" y2="437.5" id="line_22" class="elevation" />
<line x1="93.75" y1="406.25" x2="0.0" y2="437.5" id="line_23" class="elevation" />
<line x1="281.25" y1="62.5" x2="281.25" y2="125.0" id="line_24" class="elevation" />
<line x1="93.75" y1="-250.0" x2="187.5" y2="-156.25" id="line_28" class="elevation" />
<line x1="-281.25" y1="-156.25" x2="-187.5" y2="-250.0" id="line_32" class="elevation" />
<line x1="-375.0" y1="125.0" x2="-375.0" y2="62.5" id="line_36" class="elevation" />
<line x1="-187.5" y1="437.5" x2="-281.25" y2="343.75" id="line_40" class="elevation" />
<line x1="187.5" y1="343.75" x2="93.75" y2="437.5" id="line_44" class="elevation" />
<line x1="-437.5" y1="62.5" x2="-406.25" y2="62.5" id="line_102" class="elevation" />
<line x1="-437.5" y1="31.25" x2="-406.25" y2="31.25" id="line_105" class="elevation" />
<line x1="-437.5" y1="0.0" x2="-406.25" y2="0.0" id="line_108" class="elevation" />
<line x1="-437.5" y1="-31.25" x2="-406.25" y2="-31.25" id="line_111" class="elevation" />
<line x1="-437.5" y1="-62.5" x2="-406.25" y2="-62.5" id="line_112" class="elevation" />
<line x1="-406.25" y1="125.0" x2="-437.5" y2="125.0" id="line_116" class="elevation" />
<line x1="-406.25" y1="156.25" x2="-437.5" y2="156.25" id="line_118" class="elevation" />
<line x1="-406.25" y1="187.5" x2="-437.5" y2="187.5" id="line_120" class="elevation" />
<line x1="-406.25" y1="218.75" x2="-437.5" y2="218.75" id="line_123" class="elevation" />
<line x1="-406.25" y1="250.0" x2="-437.5" y2="250.0" id="line_126" class="elevation" />
<line x1="312.5" y1="62.5" x2="343.75" y2="62.5" id="line_149" class="elevation" />
<line x1="343.75" y1="125.0" x2="312.5" y2="125.0" id="line_151" class="elevation" />
<line x1="343.75" y1="31.25" x2="312.5" y2="31.25" id="line_154" class="elevation" />
<line x1="343.75" y1="0.0" x2="312.5" y2="0.0" id="line_156" class="elevation" />
<line x1="343.75" y1="-31.25" x2="312.5" y2="-31.25" id="line_159" class="elevation" />
<line x1="343.75" y1="-62.5" x2="312.5" y2="-62.5" id="line_162" class="elevation" />
<line x1="343.75" y1="156.25" x2="312.5" y2="156.25" id="line_168" class="elevation" />
<line x1="343.75" y1="187.5" x2="312.5" y2="187.5" id="line_170" class="elevation" />
<line x1="312.5" y1="218.75" x2="343.75" y2="218.75" id="line_173" class="elevation" />
<line x1="343.75" y1="250.0" x2="312.5" y2="250.0" id="line_176" class="elevation" />
<!-- end group: "border_elevation" -->
</g>
<g id="border_solid">
<line x1="250.0" y1="-31.25" x2="281.25" y2="62.5" id="line_25" class="solid" />
<line x1="218.75" y1="-93.75" x2="250.0" y2="-31.25" id="line_26" class="solid" />
<line x1="187.5" y1="-156.25" x2="218.75" y2="-93.75" id="line_27" class="solid" />
<line x1="0.0" y1="-281.25" x2="93.75" y2="-250.0" id="line_29" class="solid" />
<line x1="-93.75" y1="-281.25" x2="0.0" y2="-281.25" id="line_30" class="solid" />
<line x1="-187.5" y1="-250.0" x2="-93.75" y2="-281.25" id="line_31" class="solid" />
<line x1="-312.5" y1="-93.75" x2="-281.25" y2="-156.25" id="line_33" class="solid" />
<line x1="-343.75" y1="-31.25" x2="-312.5" y2="-93.75" id="line_34" class="solid" />
<line x1="-375.0" y1="62.5" x2="-343.75" y2="-31.25" id="line_35" class="solid" />
<line x1="-343.75" y1="218.75" x2="-375.0" y2="125.0" id="line_37" class="solid" />
<line x1="-312.5" y1="281.25" x2="-343.75" y2="218.75" id="line_38" class="solid" />
<line x1="-281.25" y1="343.75" x2="-312.5" y2="281.25" id="line_39" class="solid" />
<line x1="-93.75" y1="468.75" x2="-187.5" y2="437.5" id="line_41" class="solid" />
<line x1="0.0" y1="468.75" x2="-93.75" y2="468.75" id="line_42" class="solid" />
<line x1="93.75" y1="437.5" x2="0.0" y2="468.75" id="line_43" class="solid" />
<line x1="218.75" y1="281.25" x2="187.5" y2="343.75" id="line_45" class="solid" />
<line x1="250.0" y1="218.75" x2="218.75" y2="281.25" id="line_46" class="solid" />
<line x1="281.25" y1="125.0" x2="250.0" y2="218.75" id="line_47" class="solid" />
<line x1="93.75" y1="-250.0" x2="109.375" y2="-265.625" id="line_48" class="solid" />
<line x1="203.125" y1="-171.875" x2="187.5" y2="-156.25" id="line_49" class="solid" />
<line x1="-203.125" y1="-265.625" x2="-187.5" y2="-250.0" id="line_51" class="solid" />
<line x1="-281.25" y1="-156.25" x2="-296.875" y2="-171.875" id="line_53" class="solid" />
<line x1="187.5" y1="343.75" x2="203.125" y2="359.375" id="line_54" class="solid" />
<line x1="109.375" y1="453.125" x2="93.75" y2="437.5" id="line_56" class="solid" />
<line x1="-296.875" y1="359.375" x2="-281.25" y2="343.75" id="line_57" class="solid" />
<line x1="-187.5" y1="437.5" x2="-203.125" y2="453.125" id="line_59" class="solid" />
<line x1="-406.25" y1="62.5" x2="-375.0" y2="62.5" id="line_60" class="solid" />
<line x1="-375.0" y1="125.0" x2="-406.25" y2="125.0" id="line_62" class="solid" />
<line x1="-93.75" y1="-281.25" x2="-93.75" y2="-312.5" id="line_63" class="solid" />
<line x1="-93.75" y1="-312.5" x2="0.0" y2="-312.5" id="line_64" class="solid" />
<line x1="0.0" y1="-312.5" x2="0.0" y2="-281.25" id="line_65" class="solid" />
<line x1="-93.75" y1="500.0" x2="-93.75" y2="468.75" id="line_66" class="solid" />
<line x1="0.0" y1="500.0" x2="-93.75" y2="500.0" id="line_67" class="solid" />
<line x1="0.0" y1="468.75" x2="0.0" y2="500.0" id="line_68" class="solid" />
<line x1="-437.5" y1="156.25" x2="-437.5" y2="125.0" id="line_97" class="solid" />
<line x1="-437.5" y1="-62.5" x2="-406.25" y2="-187.5" id="line_98" class="solid" />
<line x1="-312.5" y1="-218.75" x2="-250.0" y2="-281.25" id="line_99" class="solid" />
<line x1="-406.25" y1="31.25" x2="-406.25" y2="62.5" id="line_100" class="solid" />
<line x1="-437.5" y1="62.5" x2="-437.5" y2="31.25" id="line_101" class="solid" />
<line x1="-437.5" y1="31.25" x2="-437.5" y2="0.0" id="line_103" class="solid" />
<line x1="-406.25" y1="0.0" x2="-406.25" y2="31.25" id="line_104" class="solid" />
<line x1="-437.5" y1="0.0" x2="-437.5" y2="-31.25" id="line_106" class="solid" />
<line x1="-406.25" y1="-31.25" x2="-406.25" y2="0.0" id="line_107" class="solid" />
<line x1="-437.5" y1="-31.25" x2="-437.5" y2="-62.5" id="line_109" class="solid" />
<line x1="-406.25" y1="-62.5" x2="-406.25" y2="-31.25" id="line_110" class="solid" />
<line x1="-296.875" y1="-171.875" x2="-406.25" y2="-62.5" id="line_113" class="solid" />
<line x1="-406.25" y1="-187.5" x2="-312.5" y2="-218.75" id="line_114" class="solid" />
<line x1="-437.5" y1="125.0" x2="-437.5" y2="62.5" id="line_115" class="solid" />
<line x1="-406.25" y1="125.0" x2="-406.25" y2="156.25" id="line_117" class="solid" />
<line x1="-437.5" y1="187.5" x2="-437.5" y2="156.25" id="line_119" class="solid" />
<line x1="-406.25" y1="156.25" x2="-406.25" y2="187.5" id="line_121" class="solid" />
<line x1="-437.5" y1="218.75" x2="-437.5" y2="187.5" id="line_122" class="solid" />
<line x1="-406.25" y1="187.5" x2="-406.25" y2="218.75" id="line_124" class="solid" />
<line x1="-437.5" y1="250.0" x2="-437.5" y2="218.75" id="line_125" class="solid" />
<line x1="-406.25" y1="218.75" x2="-406.25" y2="250.0" id="line_127" class="solid" />
<line x1="-406.25" y1="343.75" x2="-437.5" y2="250.0" id="line_128" class="solid" />
<line x1="-406.25" y1="250.0" x2="-296.875" y2="359.375" id="line_129" class="solid" />
<line x1="-312.5" y1="406.25" x2="-406.25" y2="343.75" id="line_130" class="solid" />
<line x1="-250.0" y1="468.75" x2="-312.5" y2="406.25" id="line_131" class="solid" />
<line x1="-93.75" y1="-312.5" x2="-203.125" y2="-265.625" id="line_135" class="solid" />
<line x1="-250.0" y1="-281.25" x2="-93.75" y2="-343.75" id="line_136" class="solid" />
<line x1="-93.75" y1="-343.75" x2="0.0" y2="-343.75" id="line_137" class="solid" />
<line x1="109.375" y1="-265.625" x2="0.0" y2="-312.5" id="line_139" class="solid" />
<line x1="0.0" y1="-343.75" x2="156.25" y2="-281.25" id="line_140" class="solid" />
<line x1="156.25" y1="-281.25" x2="218.75" y2="-218.75" id="line_144" class="solid" />
<line x1="343.75" y1="62.5" x2="343.75" y2="125.0" id="line_146" class="solid" />
<line x1="281.25" y1="62.5" x2="312.5" y2="62.5" id="line_147" class="solid" />
<line x1="312.5" y1="125.0" x2="281.25" y2="125.0" id="line_148" class="solid" />
<line x1="312.5" y1="62.5" x2="312.5" y2="31.25" id="line_150" class="solid" />
<line x1="312.5" y1="156.25" x2="312.5" y2="125.0" id="line_152" class="solid" />
<line x1="343.75" y1="31.25" x2="343.75" y2="62.5" id="line_153" class="solid" />
<line x1="343.75" y1="0.0" x2="343.75" y2="31.25" id="line_155" class="solid" />
<line x1="312.5" y1="31.25" x2="312.5" y2="0.0" id="line_157" class="solid" />
<line x1="343.75" y1="-31.25" x2="343.75" y2="0.0" id="line_158" class="solid" />
<line x1="312.5" y1="0.0" x2="312.5" y2="-31.25" id="line_160" class="solid" />
<line x1="343.75" y1="-62.5" x2="343.75" y2="-31.25" id="line_161" class="solid" />
<line x1="312.5" y1="-31.25" x2="312.5" y2="-62.5" id="line_163" class="solid" />
<line x1="312.5" y1="-62.5" x2="203.125" y2="-171.875" id="line_164" class="solid" />
<line x1="312.5" y1="-187.5" x2="343.75" y2="-62.5" id="line_165" class="solid" />
<line x1="218.75" y1="-218.75" x2="312.5" y2="-187.5" id="line_166" class="solid" />
<line x1="343.75" y1="125.0" x2="343.75" y2="156.25" id="line_167" class="solid" />
<line x1="312.5" y1="187.5" x2="312.5" y2="156.25" id="line_169" class="solid" />
<line x1="343.75" y1="156.25" x2="343.75" y2="187.5" id="line_171" class="solid" />
<line x1="343.75" y1="187.5" x2="343.75" y2="218.75" id="line_172" class="solid" />
<line x1="312.5" y1="218.75" x2="312.5" y2="187.5" id="line_174" class="solid" />
<line x1="312.5" y1="250.0" x2="312.5" y2="218.75" id="line_175" class="solid" />
<line x1="343.75" y1="218.75" x2="343.75" y2="250.0" id="line_177" class="solid" />
<line x1="203.125" y1="359.375" x2="312.5" y2="250.0" id="line_178" class="solid" />
<line x1="343.75" y1="250.0" x2="312.5" y2="375.0" id="line_179" class="solid" />
<line x1="312.5" y1="375.0" x2="218.75" y2="406.25" id="line_180" class="solid" />
<line x1="218.75" y1="406.25" x2="156.25" y2="468.75" id="line_181" class="solid" />
<line x1="0.0" y1="500.0" x2="109.375" y2="453.125" id="line_184" class="solid" />
<line x1="156.25" y1="468.75" x2="0.0" y2="531.25" id="line_185" class="solid" />
<line x1="0.0" y1="531.25" x2="-93.75" y2="531.25" id="line_186" class="solid" />
<line x1="-203.125" y1="453.125" x2="-93.75" y2="500.0" id="line_187" class="solid" />
<line x1="-93.75" y1="531.25" x2="-250.0" y2="468.75" id="line_188" class="solid" />
<!-- end group: "border_solid" -->
</g>
<!-- end group: "borders" -->
</g>
<g id="objects">
<g id="objects_sound">
<use xlink:href="../resources/svg/common.svg#sound" x="-46.142578125" y="-296.630859375" id="object_25" class="sound sound-0" />
<use xlink:href="../resources/svg/common.svg#sound" x="-46.142578125" y="481.201171875" id="object_26" class="sound sound-0" />
<!-- end group: "objects_sound" -->
</g>
<g id="objects_item">
<use xlink:href="../resources/svg/common.svg#item" x="147.216796875" y="397.705078125" id="object_8" class="item item-8" transform="rotate(135.703125 147.216796875 397.705078125)" />
<use xlink:href="../resources/svg/common.svg#item" x="-239.501953125" y="399.90234375" id="object_9" class="item item-22" transform="rotate(46.40625 -239.501953125 399.90234375)" />
<use xlink:href="../resources/svg/common.svg#item" x="-239.501953125" y="-208.740234375" id="object_10" class="item item-8" transform="rotate(313.59375 -239.501953125 -208.740234375)" />
<use xlink:href="../resources/svg/common.svg#item" x="145.01953125" y="-210.9375" id="object_11" class="item item-5" transform="rotate(42.890625 145.01953125 -210.9375)" />
<use xlink:href="../resources/svg/common.svg#item" x="217.529296875" y="-59.326171875" id="object_12" class="item item-5" transform="rotate(148.359375 217.529296875 -59.326171875)" />
<use xlink:href="../resources/svg/common.svg#item" x="-312.01171875" y="248.291015625" id="object_13" class="item item-3" />
<use xlink:href="../resources/svg/common.svg#item" x="191.162109375" y="301.025390625" id="object_14" class="item item-8" />
<use xlink:href="../resources/svg/common.svg#item" x="-285.64453125" y="-114.2578125" id="object_15" class="item item-8" />
<use xlink:href="../resources/svg/common.svg#item" x="-46.142578125" y="-263.671875" id="object_16" class="item item-5" />
<use xlink:href="../resources/svg/common.svg#item" x="-48.33984375" y="452.63671875" id="object_17" class="item item-5" />
<use xlink:href="../resources/svg/common.svg#item" x="-388.916015625" y="94.482421875" id="object_18" class="item item-3" />
<use xlink:href="../resources/svg/common.svg#item" x="298.828125" y="94.482421875" id="object_19" class="item item-1" />
<use xlink:href="../resources/svg/common.svg#item" x="-43.9453125" y="90.087890625" id="object_20" class="item item-8" />
<use xlink:href="../resources/svg/common.svg#item" x="-21.97265625" y="90.087890625" id="object_21" class="item item-27" />
<use xlink:href="../resources/svg/common.svg#item" x="-35.15625" y="108.3984375" id="object_22" class="item item-22" />
<use xlink:href="../resources/svg/common.svg#item" x="-30.2734375" y="69.3359375" id="object_23" class="item item-22" />
<use xlink:href="../resources/svg/common.svg#item" x="-75.1953125" y="105.46875" id="object_24" class="item item-22" />
<!-- end group: "objects_item" -->
</g>
<g id="objects_player">
<use xlink:href="../resources/svg/common.svg#monster" x="-151.611328125" y="487.79296875" id="object_0" class="player" transform="rotate(205.3125 -151.611328125 487.79296875)" />
<use xlink:href="../resources/svg/common.svg#monster" x="65.91796875" y="-298.828125" id="object_1" class="player" transform="rotate(31.640625 65.91796875 -298.828125)" />
<use xlink:href="../resources/svg/common.svg#monster" x="-158.203125" y="-296.630859375" id="object_2" class="player" transform="rotate(148.359375 -158.203125 -296.630859375)" />
<use xlink:href="../resources/svg/common.svg#monster" x="327.392578125" y="197.75390625" id="object_3" class="player" transform="rotate(88.59375 327.392578125 197.75390625)" />
<use xlink:href="../resources/svg/common.svg#monster" x="327.392578125" y="-13.18359375" id="object_4" class="player" transform="rotate(270.703125 327.392578125 -13.18359375)" />
<use xlink:href="../resources/svg/common.svg#monster" x="-421.875" y="-17.578125" id="object_5" class="player" transform="rotate(270.703125 -421.875 -17.578125)" />
<use xlink:href="../resources/svg/common.svg#monster" x="-421.875" y="202.1484375" id="object_6" class="player" transform="rotate(88.59375 -421.875 202.1484375)" />
<use xlink:href="../resources/svg/common.svg#monster" x="76.904296875" y="479.00390625" id="object_7" class="player" transform="rotate(329.765625 76.904296875 479.00390625)" />
<!-- end group: "objects_player" -->
</g>
<!-- end group: "objects" -->
</g>
<g id="panels">
<!-- end group: "panels" -->
</g>

<script xlink:href="../resources/js/level.js" ></script>
</svg>