<?xml version="1.0" encoding="UTF-8"?>
<!-- generated by map2svg: github.com/fracai/marathon-svg -->
<svg xmlns="http://www.w3.org/2000/svg" xmlns:xlink="http://www.w3.org/1999/xlink" version="1.1"
    viewBox="-390.625 -363.28125 781.25 726.5625">
<link xmlns="http://www.w3.org/1999/xhtml" rel="stylesheet" href="../resources/css/styles.css" type="text/css" />
<style id="dynamic-style" />
<g id="background-grid">
<defs>
<pattern id="grid_minor" width="3.125" height="3.125" patternUnits="userSpaceOnUse">
<path d="M 3.125 0 L 0 0 0 3.125" fill="none" class="grid_minor" />
</pattern>
<pattern id="grid_major" width="31.25" height="31.25" patternUnits="userSpaceOnUse">
<rect width="31.25" height="31.25" fill="url(#grid_minor)"/>
<path d="M 31.25 0 L 0 0 0 31.25" fill="none" class="grid_major" />
</pattern>
</defs>
<rect x="-1000" y="-1000" width="2000" height="2000" fill="url(#grid_major)" />
<line x1="0" y1="1000" x2="0" y2="-1000" class="grid_origin" />
<line x1="1000" y1="0" x2="-1000" y2="0" class="grid_origin" />
<!-- end group: "background-grid" -->
</g>
<g id="polygons">
<polygon points="-312.5,-31.25 -281.25,-31.25 -281.25,31.25 -312.5,31.25" id="poly_14" class="platform" />
<polygon points="281.25,-31.25 312.5,-31.25 312.5,31.25 281.25,31.25" id="poly_25" class="platform" />
<polygon points="-70.3125,-277.34375 -31.25,-281.25 31.25,-281.25 70.3125,-277.34375 62.5,-250.0 0.0,-250.0 -62.5,-250.0" id="poly_9" class="plain" />
<polygon points="-156.25,218.75 -62.5,250.0 -70.3125,277.34375 -117.1875,269.53125 -171.875,246.09375" id="poly_18" class="plain" />
<polygon points="-62.5,250.0 0.0,250.0 62.5,250.0 70.3125,277.34375 31.25,281.25 -31.25,281.25 -70.3125,277.34375" id="poly_19" class="plain" />
<polygon points="62.5,250.0 156.25,218.75 175.78125,246.09375 128.90625,265.625 70.3125,277.34375" id="poly_21" class="plain" />
<polygon points="250.0,62.5 277.34375,70.3125 265.625,128.90625 246.09375,171.875 218.75,156.25" id="poly_23" class="plain" />
<polygon points="-121.09375,-269.53125 -70.3125,-277.34375 -62.5,-250.0 -156.25,-218.75 -175.78125,-246.09375" id="poly_10" class="plain" />
<polygon points="-214.84375,-210.9375 -175.78125,-246.09375 -156.25,-218.75 -218.75,-156.25 -246.09375,-171.875" id="poly_11" class="plain" />
<polygon points="-269.53125,-121.09375 -246.09375,-171.875 -218.75,-156.25 -250.0,-62.5 -277.34375,-70.3125" id="poly_12" class="plain" />
<polygon points="-281.25,-31.25 -277.34375,-70.3125 -250.0,-62.5 -250.0,0.0 -250.0,62.5 -277.34375,70.3125 -281.25,31.25" id="poly_13" class="plain" />
<polygon points="-277.34375,70.3125 -250.0,62.5 -218.75,156.25 -246.09375,171.875 -265.625,128.90625" id="poly_16" class="plain" />
<polygon points="-218.75,156.25 -156.25,218.75 -171.875,246.09375 -214.84375,214.84375 -246.09375,171.875" id="poly_17" class="plain" />
<polygon points="218.75,156.25 246.09375,171.875 218.75,210.9375 175.78125,246.09375 156.25,218.75" id="poly_22" class="plain" />
<polygon points="250.0,0.0 250.0,-62.5 277.34375,-70.3125 281.25,-31.25 281.25,31.25 277.34375,70.3125 250.0,62.5" id="poly_24" class="plain" />
<polygon points="218.75,-156.25 246.09375,-175.78125 265.625,-125.0 277.34375,-70.3125 250.0,-62.5" id="poly_27" class="plain" />
<polygon points="156.25,-218.75 171.875,-246.09375 214.84375,-214.84375 246.09375,-175.78125 218.75,-156.25" id="poly_28" class="plain" />
<polygon points="62.5,-250.0 70.3125,-277.34375 125.0,-265.625 171.875,-246.09375 156.25,-218.75" id="poly_29" class="plain" />
<polygon points="-226.5625,-222.65625 -214.84375,-210.9375 -246.09375,-171.875 -261.71875,-179.6875" id="poly_63" class="plain" />
<polygon points="-277.34375,-316.40625 -210.9375,-332.03125 -156.25,-332.03125 -156.25,-296.875 -183.59375,-261.71875 -226.5625,-222.65625 -332.03125,-261.71875" id="poly_61" class="plain" />
<polygon points="-332.03125,-261.71875 -226.5625,-222.65625 -261.71875,-179.6875 -292.96875,-144.53125 -351.5625,-148.4375 -347.65625,-207.03125" id="poly_62" class="plain" />
<polygon points="-156.25,-332.03125 -140.625,-332.03125 -140.625,-296.875 -156.25,-296.875" id="poly_52" class="plain" />
<polygon points="-140.625,-332.03125 -125.0,-332.03125 -125.0,-296.875 -140.625,-296.875" id="poly_51" class="plain" />
<polygon points="-125.0,-332.03125 -109.375,-332.03125 -109.375,-296.875 -125.0,-296.875" id="poly_50" class="plain" />
<polygon points="-109.375,-332.03125 -93.75,-332.03125 -93.75,-296.875 -109.375,-296.875" id="poly_49" class="plain" />
<polygon points="-31.25,-296.875 31.25,-296.875 31.25,-281.25 -31.25,-281.25" id="poly_8" class="plain" />
<polygon points="-31.25,281.25 31.25,281.25 31.25,296.875 -31.25,296.875" id="poly_20" class="plain" />
<polygon points="-62.5,296.875 -31.25,296.875 31.25,296.875 62.5,296.875 62.5,332.03125 -62.5,332.03125" id="poly_47" class="plain" />
<polygon points="-62.5,-332.03125 62.5,-332.03125 62.5,-296.875 31.25,-296.875 -31.25,-296.875 -62.5,-296.875" id="poly_5" class="plain" />
<polygon points="-93.75,-332.03125 -78.125,-332.03125 -78.125,-296.875 -93.75,-296.875" id="poly_48" class="plain" />
<polygon points="-62.5,0.0 0.0,-62.5 62.5,0.0 0.0,62.5" id="poly_0" class="hill" />
<polygon points="0.0,-250.0 62.5,-250.0 156.25,-218.75 218.75,-156.25 250.0,-62.5 250.0,0.0 62.5,0.0 0.0,-62.5" id="poly_1" class="plain" />
<polygon points="-218.75,-156.25 -156.25,-218.75 -62.5,-250.0 0.0,-250.0 0.0,-62.5 -62.5,0.0 -250.0,0.0 -250.0,-62.5" id="poly_2" class="plain" />
<polygon points="-250.0,62.5 -250.0,0.0 -62.5,0.0 0.0,62.5 0.0,250.0 -62.5,250.0 -156.25,218.75 -218.75,156.25" id="poly_3" class="plain" />
<polygon points="0.0,62.5 62.5,0.0 250.0,0.0 250.0,62.5 218.75,156.25 156.25,218.75 62.5,250.0 0.0,250.0" id="poly_4" class="plain" />
<polygon points="-78.125,296.875 -62.5,296.875 -62.5,332.03125 -78.125,332.03125" id="poly_53" class="plain" />
<polygon points="62.5,296.875 78.125,296.875 78.125,332.03125 62.5,332.03125" id="poly_46" class="plain" />
<polygon points="-78.125,-332.03125 -62.5,-332.03125 -62.5,-296.875 -78.125,-296.875" id="poly_6" class="plain" />
<polygon points="62.5,-332.03125 78.125,-332.03125 78.125,-296.875 62.5,-296.875" id="poly_7" class="plain" />
<polygon points="-93.75,296.875 -78.125,296.875 -78.125,332.03125 -93.75,332.03125" id="poly_54" class="plain" />
<polygon points="-109.375,296.875 -93.75,296.875 -93.75,332.03125 -109.375,332.03125" id="poly_55" class="plain" />
<polygon points="78.125,-332.03125 93.75,-332.03125 93.75,-296.875 78.125,-296.875" id="poly_30" class="plain" />
<polygon points="78.125,296.875 93.75,296.875 93.75,332.03125 78.125,332.03125" id="poly_45" class="plain" />
<polygon points="-125.0,296.875 -109.375,296.875 -109.375,332.03125 -125.0,332.03125" id="poly_56" class="plain" />
<polygon points="93.75,-332.03125 109.375,-332.03125 109.375,-296.875 93.75,-296.875" id="poly_31" class="plain" />
<polygon points="93.75,296.875 109.375,296.875 109.375,332.03125 93.75,332.03125" id="poly_44" class="plain" />
<polygon points="-140.625,296.875 -125.0,296.875 -125.0,332.03125 -140.625,332.03125" id="poly_57" class="plain" />
<polygon points="-226.5625,226.5625 -214.84375,214.84375 -171.875,246.09375 -179.6875,261.71875" id="poly_69" class="plain" />
<polygon points="-156.25,296.875 -140.625,296.875 -140.625,332.03125 -156.25,332.03125" id="poly_58" class="plain" />
<polygon points="-257.8125,250.0 -226.5625,226.5625 -179.6875,261.71875 -156.25,296.875 -156.25,332.03125 -210.9375,332.03125 -250.0,292.96875" id="poly_65" class="plain" />
<polygon points="109.375,-332.03125 125.0,-332.03125 125.0,-296.875 109.375,-296.875" id="poly_32" class="plain" />
<polygon points="109.375,296.875 125.0,296.875 125.0,332.03125 109.375,332.03125" id="poly_43" class="plain" />
<polygon points="-281.25,195.3125 -257.8125,179.6875 -226.5625,226.5625 -257.8125,250.0" id="poly_66" class="plain" />
<polygon points="125.0,-332.03125 140.625,-332.03125 140.625,-296.875 125.0,-296.875" id="poly_33" class="plain" />
<polygon points="125.0,296.875 140.625,296.875 140.625,332.03125 125.0,332.03125" id="poly_42" class="plain" />
<polygon points="-304.6875,148.4375 -289.0625,117.1875 -257.8125,179.6875 -281.25,195.3125" id="poly_67" class="plain" />
<polygon points="-351.5625,97.65625 -312.5,93.75 -289.0625,117.1875 -304.6875,148.4375 -339.84375,128.90625" id="poly_68" class="plain" />
<polygon points="140.625,-332.03125 156.25,-332.03125 156.25,-296.875 140.625,-296.875" id="poly_34" class="plain" />
<polygon points="140.625,296.875 156.25,296.875 156.25,332.03125 140.625,332.03125" id="poly_41" class="plain" />
<polygon points="214.84375,-214.84375 226.5625,-222.65625 257.8125,-183.59375 246.09375,-175.78125" id="poly_36" class="plain" />
<polygon points="246.09375,171.875 261.71875,179.6875 234.375,222.65625 218.75,210.9375" id="poly_38" class="plain" />
<polygon points="-359.375,0.0 -347.65625,-97.65625 -312.5,-93.75 -312.5,-31.25 -312.5,31.25 -312.5,93.75 -351.5625,97.65625" id="poly_15" class="plain" />
<polygon points="-351.5625,-148.4375 -292.96875,-144.53125 -312.5,-93.75 -347.65625,-97.65625" id="poly_64" class="plain" />
<polygon points="312.5,-31.25 312.5,-93.75 347.65625,-97.65625 359.375,0.0 347.65625,97.65625 312.5,93.75 312.5,31.25" id="poly_26" class="plain" />
<polygon points="292.96875,-144.53125 339.84375,-167.96875 347.65625,-97.65625 312.5,-93.75" id="poly_35" class="plain" />
<polygon points="312.5,93.75 347.65625,97.65625 335.9375,210.9375 261.71875,179.6875" id="poly_37" class="plain" />
<polygon points="261.71875,179.6875 335.9375,210.9375 246.09375,300.78125 222.65625,265.625 234.375,222.65625" id="poly_39" class="plain" />
<polygon points="222.65625,265.625 246.09375,300.78125 156.25,332.03125 156.25,296.875" id="poly_40" class="plain" />
<polygon points="156.25,-296.875 156.25,-332.03125 222.65625,-328.125 261.71875,-316.40625 265.625,-265.625 265.625,-250.0 226.5625,-222.65625" id="poly_59" class="plain" />
<polygon points="226.5625,-222.65625 265.625,-250.0 281.25,-250.0 320.3125,-246.09375 339.84375,-167.96875 292.96875,-144.53125 257.8125,-183.59375" id="poly_60" class="plain" />
<polygon points="261.71875,-316.40625 304.6875,-292.96875 281.25,-265.625 265.625,-265.625" id="poly_70" class="plain" />
<polygon points="281.25,-265.625 304.6875,-292.96875 320.3125,-246.09375 281.25,-250.0" id="poly_71" class="plain" />
<!-- end group: "polygons" -->
</g>
<g id="borders">
<g id="border_unconnected">
<line x1="375.0" y1="125.0" x2="375.0" y2="156.25" id="line_250" class="unconnected" />
<line x1="375.0" y1="125.0" x2="410.15625" y2="125.0" id="line_251" class="unconnected" />
<line x1="375.0" y1="156.25" x2="375.0" y2="183.59375" id="line_252" class="unconnected" />
<line x1="375.0" y1="156.25" x2="398.4375" y2="156.25" id="line_253" class="unconnected" />
<line x1="410.15625" y1="187.5" x2="433.59375" y2="125.0" id="line_254" class="unconnected" />
<line x1="433.59375" y1="125.0" x2="445.3125" y2="156.25" id="line_255" class="unconnected" />
<line x1="445.3125" y1="156.25" x2="460.9375" y2="125.0" id="line_256" class="unconnected" />
<line x1="460.9375" y1="125.0" x2="476.5625" y2="183.59375" id="line_257" class="unconnected" />
<!-- end group: "border_unconnected" -->
</g>
<g id="border_plain">
<line x1="0.0" y1="-62.5" x2="62.5" y2="0.0" id="line_0" class="plain" />
<line x1="62.5" y1="0.0" x2="0.0" y2="62.5" id="line_1" class="plain" />
<line x1="0.0" y1="62.5" x2="-62.5" y2="0.0" id="line_2" class="plain" />
<line x1="-62.5" y1="0.0" x2="0.0" y2="-62.5" id="line_3" class="plain" />
<line x1="0.0" y1="-62.5" x2="0.0" y2="-250.0" id="line_4" class="plain" />
<line x1="0.0" y1="62.5" x2="0.0" y2="250.0" id="line_5" class="plain" />
<line x1="-62.5" y1="0.0" x2="-250.0" y2="0.0" id="line_6" class="plain" />
<line x1="250.0" y1="0.0" x2="62.5" y2="0.0" id="line_7" class="plain" />
<line x1="156.25" y1="-218.75" x2="171.875" y2="-246.09375" id="line_46" class="plain" />
<line x1="218.75" y1="-156.25" x2="246.09375" y2="-175.78125" id="line_49" class="plain" />
<line x1="250.0" y1="-62.5" x2="277.34375" y2="-70.3125" id="line_52" class="plain" />
<line x1="312.5" y1="-93.75" x2="347.65625" y2="-97.65625" id="line_61" class="plain" />
<line x1="347.65625" y1="97.65625" x2="312.5" y2="93.75" id="line_64" class="plain" />
<line x1="62.5" y1="250.0" x2="70.3125" y2="277.34375" id="line_76" class="plain" />
<line x1="-62.5" y1="250.0" x2="-70.3125" y2="277.34375" id="line_80" class="plain" />
<line x1="-218.75" y1="156.25" x2="-246.09375" y2="171.875" id="line_86" class="plain" />
<line x1="-250.0" y1="62.5" x2="-277.34375" y2="70.3125" id="line_89" class="plain" />
<line x1="-156.25" y1="-218.75" x2="-175.78125" y2="-246.09375" id="line_99" class="plain" />
<line x1="-218.75" y1="-156.25" x2="-246.09375" y2="-171.875" id="line_100" class="plain" />
<line x1="-250.0" y1="-62.5" x2="-277.34375" y2="-70.3125" id="line_101" class="plain" />
<line x1="-347.65625" y1="-97.65625" x2="-312.5" y2="-93.75" id="line_110" class="plain" />
<line x1="265.625" y1="-250.0" x2="226.5625" y2="-222.65625" id="line_136" class="plain" />
<line x1="292.96875" y1="-144.53125" x2="339.84375" y2="-167.96875" id="line_137" class="plain" />
<line x1="335.9375" y1="210.9375" x2="261.71875" y2="179.6875" id="line_149" class="plain" />
<line x1="246.09375" y1="300.78125" x2="222.65625" y2="265.625" id="line_151" class="plain" />
<line x1="-156.25" y1="332.03125" x2="-156.25" y2="296.875" id="line_204" class="plain" />
<line x1="281.25" y1="-250.0" x2="320.3125" y2="-246.09375" id="line_213" class="plain" />
<line x1="261.71875" y1="-316.40625" x2="265.625" y2="-265.625" id="line_215" class="plain" />
<line x1="-226.5625" y1="-222.65625" x2="-332.03125" y2="-261.71875" id="line_232" class="plain" />
<line x1="304.6875" y1="-292.96875" x2="281.25" y2="-265.625" id="line_246" class="plain" />
<!-- end group: "border_plain" -->
</g>
<g id="border_ceiling">
<line x1="-62.5" y1="-250.0" x2="-70.3125" y2="-277.34375" id="line_28" class="ceiling" />
<line x1="70.3125" y1="-277.34375" x2="62.5" y2="-250.0" id="line_29" class="ceiling" />
<line x1="250.0" y1="62.5" x2="277.34375" y2="70.3125" id="line_56" class="ceiling" />
<line x1="218.75" y1="156.25" x2="246.09375" y2="171.875" id="line_68" class="ceiling" />
<line x1="156.25" y1="218.75" x2="175.78125" y2="246.09375" id="line_71" class="ceiling" />
<line x1="-156.25" y1="218.75" x2="-171.875" y2="246.09375" id="line_83" class="ceiling" />
<line x1="31.25" y1="296.875" x2="-31.25" y2="296.875" id="line_103" class="ceiling" />
<line x1="31.25" y1="-296.875" x2="-31.25" y2="-296.875" id="line_105" class="ceiling" />
<line x1="226.5625" y1="-222.65625" x2="257.8125" y2="-183.59375" id="line_132" class="ceiling" />
<line x1="261.71875" y1="179.6875" x2="234.375" y2="222.65625" id="line_146" class="ceiling" />
<line x1="-226.5625" y1="226.5625" x2="-179.6875" y2="261.71875" id="line_221" class="ceiling" />
<!-- end group: "border_ceiling" -->
</g>
<g id="border_elevation">
<line x1="0.0" y1="-250.0" x2="62.5" y2="-250.0" id="line_8" class="elevation" />
<line x1="62.5" y1="-250.0" x2="156.25" y2="-218.75" id="line_9" class="elevation" />
<line x1="250.0" y1="-62.5" x2="250.0" y2="0.0" id="line_10" class="elevation" />
<line x1="218.75" y1="-156.25" x2="250.0" y2="-62.5" id="line_11" class="elevation" />
<line x1="156.25" y1="-218.75" x2="218.75" y2="-156.25" id="line_12" class="elevation" />
<line x1="250.0" y1="0.0" x2="250.0" y2="62.5" id="line_13" class="elevation" />
<line x1="250.0" y1="62.5" x2="218.75" y2="156.25" id="line_14" class="elevation" />
<line x1="218.75" y1="156.25" x2="156.25" y2="218.75" id="line_15" class="elevation" />
<line x1="156.25" y1="218.75" x2="62.5" y2="250.0" id="line_16" class="elevation" />
<line x1="62.5" y1="250.0" x2="0.0" y2="250.0" id="line_17" class="elevation" />
<line x1="0.0" y1="250.0" x2="-62.5" y2="250.0" id="line_18" class="elevation" />
<line x1="-62.5" y1="250.0" x2="-156.25" y2="218.75" id="line_19" class="elevation" />
<line x1="-156.25" y1="218.75" x2="-218.75" y2="156.25" id="line_20" class="elevation" />
<line x1="-218.75" y1="156.25" x2="-250.0" y2="62.5" id="line_21" class="elevation" />
<line x1="-250.0" y1="62.5" x2="-250.0" y2="0.0" id="line_22" class="elevation" />
<line x1="-250.0" y1="0.0" x2="-250.0" y2="-62.5" id="line_23" class="elevation" />
<line x1="-250.0" y1="-62.5" x2="-218.75" y2="-156.25" id="line_24" class="elevation" />
<line x1="-218.75" y1="-156.25" x2="-156.25" y2="-218.75" id="line_25" class="elevation" />
<line x1="-156.25" y1="-218.75" x2="-62.5" y2="-250.0" id="line_26" class="elevation" />
<line x1="-62.5" y1="-250.0" x2="0.0" y2="-250.0" id="line_27" class="elevation" />
<line x1="31.25" y1="-281.25" x2="-31.25" y2="-281.25" id="line_31" class="elevation" />
<line x1="62.5" y1="-332.03125" x2="62.5" y2="-296.875" id="line_37" class="elevation" />
<line x1="-62.5" y1="-296.875" x2="-62.5" y2="-332.03125" id="line_39" class="elevation" />
<line x1="-78.125" y1="-296.875" x2="-78.125" y2="-332.03125" id="line_41" class="elevation" />
<line x1="78.125" y1="-332.03125" x2="78.125" y2="-296.875" id="line_44" class="elevation" />
<line x1="214.84375" y1="-214.84375" x2="246.09375" y2="-175.78125" id="line_48" class="elevation" />
<line x1="246.09375" y1="171.875" x2="218.75" y2="210.9375" id="line_69" class="elevation" />
<line x1="31.25" y1="281.25" x2="-31.25" y2="281.25" id="line_78" class="elevation" />
<line x1="-171.875" y1="246.09375" x2="-214.84375" y2="214.84375" id="line_84" class="elevation" />
<line x1="-246.09375" y1="-171.875" x2="-214.84375" y2="-210.9375" id="line_95" class="elevation" />
<line x1="-312.5" y1="93.75" x2="-351.5625" y2="97.65625" id="line_114" class="elevation" />
<line x1="156.25" y1="-332.03125" x2="156.25" y2="-296.875" id="line_120" class="elevation" />
<line x1="140.625" y1="-332.03125" x2="140.625" y2="-296.875" id="line_121" class="elevation" />
<line x1="125.0" y1="-332.03125" x2="125.0" y2="-296.875" id="line_122" class="elevation" />
<line x1="109.375" y1="-332.03125" x2="109.375" y2="-296.875" id="line_123" class="elevation" />
<line x1="93.75" y1="-332.03125" x2="93.75" y2="-296.875" id="line_124" class="elevation" />
<line x1="156.25" y1="332.03125" x2="156.25" y2="296.875" id="line_152" class="elevation" />
<line x1="62.5" y1="332.03125" x2="62.5" y2="296.875" id="line_155" class="elevation" />
<line x1="-62.5" y1="332.03125" x2="-62.5" y2="296.875" id="line_157" class="elevation" />
<line x1="78.125" y1="332.03125" x2="78.125" y2="296.875" id="line_160" class="elevation" />
<line x1="93.75" y1="332.03125" x2="93.75" y2="296.875" id="line_163" class="elevation" />
<line x1="109.375" y1="332.03125" x2="109.375" y2="296.875" id="line_166" class="elevation" />
<line x1="125.0" y1="332.03125" x2="125.0" y2="296.875" id="line_169" class="elevation" />
<line x1="140.625" y1="332.03125" x2="140.625" y2="296.875" id="line_172" class="elevation" />
<line x1="-93.75" y1="-296.875" x2="-93.75" y2="-332.03125" id="line_177" class="elevation" />
<line x1="-109.375" y1="-296.875" x2="-109.375" y2="-332.03125" id="line_180" class="elevation" />
<line x1="-125.0" y1="-296.875" x2="-125.0" y2="-332.03125" id="line_183" class="elevation" />
<line x1="-140.625" y1="-296.875" x2="-140.625" y2="-332.03125" id="line_186" class="elevation" />
<line x1="-156.25" y1="-296.875" x2="-156.25" y2="-332.03125" id="line_189" class="elevation" />
<line x1="-78.125" y1="332.03125" x2="-78.125" y2="296.875" id="line_192" class="elevation" />
<line x1="-140.625" y1="332.03125" x2="-140.625" y2="296.875" id="line_205" class="elevation" />
<line x1="-125.0" y1="332.03125" x2="-125.0" y2="296.875" id="line_206" class="elevation" />
<line x1="-109.375" y1="332.03125" x2="-109.375" y2="296.875" id="line_207" class="elevation" />
<line x1="-93.75" y1="332.03125" x2="-93.75" y2="296.875" id="line_208" class="elevation" />
<line x1="-226.5625" y1="-222.65625" x2="-261.71875" y2="-179.6875" id="line_218" class="elevation" />
<line x1="-292.96875" y1="-144.53125" x2="-351.5625" y2="-148.4375" id="line_233" class="elevation" />
<line x1="-304.6875" y1="148.4375" x2="-289.0625" y2="117.1875" id="line_242" class="elevation" />
<line x1="-281.25" y1="195.3125" x2="-257.8125" y2="179.6875" id="line_243" class="elevation" />
<line x1="-257.8125" y1="250.0" x2="-226.5625" y2="226.5625" id="line_244" class="elevation" />
<!-- end group: "border_elevation" -->
</g>
<g id="border_solid">
<line x1="31.25" y1="-281.25" x2="70.3125" y2="-277.34375" id="line_30" class="solid" />
<line x1="-70.3125" y1="-277.34375" x2="-31.25" y2="-281.25" id="line_32" class="solid" />
<line x1="-31.25" y1="-281.25" x2="-31.25" y2="-296.875" id="line_33" class="solid" />
<line x1="-31.25" y1="-296.875" x2="-62.5" y2="-296.875" id="line_34" class="solid" />
<line x1="31.25" y1="-296.875" x2="31.25" y2="-281.25" id="line_35" class="solid" />
<line x1="62.5" y1="-296.875" x2="31.25" y2="-296.875" id="line_36" class="solid" />
<line x1="-62.5" y1="-332.03125" x2="62.5" y2="-332.03125" id="line_38" class="solid" />
<line x1="-62.5" y1="-296.875" x2="-78.125" y2="-296.875" id="line_40" class="solid" />
<line x1="-78.125" y1="-332.03125" x2="-62.5" y2="-332.03125" id="line_42" class="solid" />
<line x1="78.125" y1="-296.875" x2="62.5" y2="-296.875" id="line_43" class="solid" />
<line x1="62.5" y1="-332.03125" x2="78.125" y2="-332.03125" id="line_45" class="solid" />
<line x1="171.875" y1="-246.09375" x2="214.84375" y2="-214.84375" id="line_47" class="solid" />
<line x1="246.09375" y1="-175.78125" x2="265.625" y2="-125.0" id="line_50" class="solid" />
<line x1="265.625" y1="-125.0" x2="277.34375" y2="-70.3125" id="line_51" class="solid" />
<line x1="277.34375" y1="-70.3125" x2="281.25" y2="-31.25" id="line_53" class="solid" />
<line x1="281.25" y1="-31.25" x2="281.25" y2="31.25" id="line_54" class="solid" />
<line x1="281.25" y1="31.25" x2="277.34375" y2="70.3125" id="line_55" class="solid" />
<line x1="281.25" y1="-31.25" x2="312.5" y2="-31.25" id="line_57" class="solid" />
<line x1="312.5" y1="-31.25" x2="312.5" y2="31.25" id="line_58" class="solid" />
<line x1="312.5" y1="31.25" x2="281.25" y2="31.25" id="line_59" class="solid" />
<line x1="312.5" y1="-31.25" x2="312.5" y2="-93.75" id="line_60" class="solid" />
<line x1="347.65625" y1="-97.65625" x2="359.375" y2="0.0" id="line_62" class="solid" />
<line x1="359.375" y1="0.0" x2="347.65625" y2="97.65625" id="line_63" class="solid" />
<line x1="312.5" y1="93.75" x2="312.5" y2="31.25" id="line_65" class="solid" />
<line x1="277.34375" y1="70.3125" x2="265.625" y2="128.90625" id="line_66" class="solid" />
<line x1="265.625" y1="128.90625" x2="246.09375" y2="171.875" id="line_67" class="solid" />
<line x1="218.75" y1="210.9375" x2="175.78125" y2="246.09375" id="line_70" class="solid" />
<line x1="70.3125" y1="-277.34375" x2="125.0" y2="-265.625" id="line_72" class="solid" />
<line x1="125.0" y1="-265.625" x2="171.875" y2="-246.09375" id="line_73" class="solid" />
<line x1="175.78125" y1="246.09375" x2="128.90625" y2="265.625" id="line_74" class="solid" />
<line x1="128.90625" y1="265.625" x2="70.3125" y2="277.34375" id="line_75" class="solid" />
<line x1="70.3125" y1="277.34375" x2="31.25" y2="281.25" id="line_77" class="solid" />
<line x1="-31.25" y1="281.25" x2="-70.3125" y2="277.34375" id="line_79" class="solid" />
<line x1="-70.3125" y1="277.34375" x2="-117.1875" y2="269.53125" id="line_81" class="solid" />
<line x1="-117.1875" y1="269.53125" x2="-171.875" y2="246.09375" id="line_82" class="solid" />
<line x1="-214.84375" y1="214.84375" x2="-246.09375" y2="171.875" id="line_85" class="solid" />
<line x1="-246.09375" y1="171.875" x2="-265.625" y2="128.90625" id="line_87" class="solid" />
<line x1="-265.625" y1="128.90625" x2="-277.34375" y2="70.3125" id="line_88" class="solid" />
<line x1="-277.34375" y1="70.3125" x2="-281.25" y2="31.25" id="line_90" class="solid" />
<line x1="-281.25" y1="31.25" x2="-281.25" y2="-31.25" id="line_91" class="solid" />
<line x1="-281.25" y1="-31.25" x2="-277.34375" y2="-70.3125" id="line_92" class="solid" />
<line x1="-277.34375" y1="-70.3125" x2="-269.53125" y2="-121.09375" id="line_93" class="solid" />
<line x1="-269.53125" y1="-121.09375" x2="-246.09375" y2="-171.875" id="line_94" class="solid" />
<line x1="-214.84375" y1="-210.9375" x2="-175.78125" y2="-246.09375" id="line_96" class="solid" />
<line x1="-175.78125" y1="-246.09375" x2="-121.09375" y2="-269.53125" id="line_97" class="solid" />
<line x1="-121.09375" y1="-269.53125" x2="-70.3125" y2="-277.34375" id="line_98" class="solid" />
<line x1="31.25" y1="281.25" x2="31.25" y2="296.875" id="line_102" class="solid" />
<line x1="-31.25" y1="296.875" x2="-31.25" y2="281.25" id="line_104" class="solid" />
<line x1="-312.5" y1="-31.25" x2="-281.25" y2="-31.25" id="line_106" class="solid" />
<line x1="-312.5" y1="31.25" x2="-312.5" y2="-31.25" id="line_107" class="solid" />
<line x1="-281.25" y1="31.25" x2="-312.5" y2="31.25" id="line_108" class="solid" />
<line x1="-312.5" y1="-93.75" x2="-312.5" y2="-31.25" id="line_109" class="solid" />
<line x1="-359.375" y1="0.0" x2="-347.65625" y2="-97.65625" id="line_111" class="solid" />
<line x1="-351.5625" y1="97.65625" x2="-359.375" y2="0.0" id="line_112" class="solid" />
<line x1="-312.5" y1="31.25" x2="-312.5" y2="93.75" id="line_113" class="solid" />
<line x1="78.125" y1="-332.03125" x2="93.75" y2="-332.03125" id="line_115" class="solid" />
<line x1="93.75" y1="-332.03125" x2="109.375" y2="-332.03125" id="line_116" class="solid" />
<line x1="109.375" y1="-332.03125" x2="125.0" y2="-332.03125" id="line_117" class="solid" />
<line x1="125.0" y1="-332.03125" x2="140.625" y2="-332.03125" id="line_118" class="solid" />
<line x1="140.625" y1="-332.03125" x2="156.25" y2="-332.03125" id="line_119" class="solid" />
<line x1="93.75" y1="-296.875" x2="78.125" y2="-296.875" id="line_125" class="solid" />
<line x1="109.375" y1="-296.875" x2="93.75" y2="-296.875" id="line_126" class="solid" />
<line x1="156.25" y1="-296.875" x2="140.625" y2="-296.875" id="line_127" class="solid" />
<line x1="125.0" y1="-296.875" x2="109.375" y2="-296.875" id="line_128" class="solid" />
<line x1="140.625" y1="-296.875" x2="125.0" y2="-296.875" id="line_129" class="solid" />
<line x1="226.5625" y1="-222.65625" x2="156.25" y2="-296.875" id="line_130" class="solid" />
<line x1="214.84375" y1="-214.84375" x2="226.5625" y2="-222.65625" id="line_131" class="solid" />
<line x1="257.8125" y1="-183.59375" x2="246.09375" y2="-175.78125" id="line_133" class="solid" />
<line x1="292.96875" y1="-144.53125" x2="257.8125" y2="-183.59375" id="line_134" class="solid" />
<line x1="156.25" y1="-332.03125" x2="222.65625" y2="-328.125" id="line_135" class="solid" />
<line x1="320.3125" y1="-246.09375" x2="339.84375" y2="-167.96875" id="line_138" class="solid" />
<line x1="312.5" y1="-93.75" x2="292.96875" y2="-144.53125" id="line_139" class="solid" />
<line x1="339.84375" y1="-167.96875" x2="347.65625" y2="-97.65625" id="line_140" class="solid" />
<line x1="222.65625" y1="-328.125" x2="261.71875" y2="-316.40625" id="line_141" class="solid" />
<line x1="347.65625" y1="97.65625" x2="335.9375" y2="210.9375" id="line_142" class="solid" />
<line x1="261.71875" y1="179.6875" x2="312.5" y2="93.75" id="line_143" class="solid" />
<line x1="246.09375" y1="171.875" x2="261.71875" y2="179.6875" id="line_144" class="solid" />
<line x1="234.375" y1="222.65625" x2="218.75" y2="210.9375" id="line_145" class="solid" />
<line x1="222.65625" y1="265.625" x2="234.375" y2="222.65625" id="line_147" class="solid" />
<line x1="156.25" y1="296.875" x2="222.65625" y2="265.625" id="line_148" class="solid" />
<line x1="335.9375" y1="210.9375" x2="246.09375" y2="300.78125" id="line_150" class="solid" />
<line x1="246.09375" y1="300.78125" x2="156.25" y2="332.03125" id="line_153" class="solid" />
<line x1="31.25" y1="296.875" x2="62.5" y2="296.875" id="line_154" class="solid" />
<line x1="62.5" y1="332.03125" x2="-62.5" y2="332.03125" id="line_156" class="solid" />
<line x1="-62.5" y1="296.875" x2="-31.25" y2="296.875" id="line_158" class="solid" />
<line x1="62.5" y1="296.875" x2="78.125" y2="296.875" id="line_159" class="solid" />
<line x1="78.125" y1="332.03125" x2="62.5" y2="332.03125" id="line_161" class="solid" />
<line x1="78.125" y1="296.875" x2="93.75" y2="296.875" id="line_162" class="solid" />
<line x1="93.75" y1="332.03125" x2="78.125" y2="332.03125" id="line_164" class="solid" />
<line x1="93.75" y1="296.875" x2="109.375" y2="296.875" id="line_165" class="solid" />
<line x1="109.375" y1="332.03125" x2="93.75" y2="332.03125" id="line_167" class="solid" />
<line x1="109.375" y1="296.875" x2="125.0" y2="296.875" id="line_168" class="solid" />
<line x1="125.0" y1="332.03125" x2="109.375" y2="332.03125" id="line_170" class="solid" />
<line x1="125.0" y1="296.875" x2="140.625" y2="296.875" id="line_171" class="solid" />
<line x1="140.625" y1="332.03125" x2="125.0" y2="332.03125" id="line_173" class="solid" />
<line x1="140.625" y1="296.875" x2="156.25" y2="296.875" id="line_174" class="solid" />
<line x1="156.25" y1="332.03125" x2="140.625" y2="332.03125" id="line_175" class="solid" />
<line x1="-78.125" y1="-296.875" x2="-93.75" y2="-296.875" id="line_176" class="solid" />
<line x1="-93.75" y1="-332.03125" x2="-78.125" y2="-332.03125" id="line_178" class="solid" />
<line x1="-93.75" y1="-296.875" x2="-109.375" y2="-296.875" id="line_179" class="solid" />
<line x1="-109.375" y1="-332.03125" x2="-93.75" y2="-332.03125" id="line_181" class="solid" />
<line x1="-109.375" y1="-296.875" x2="-125.0" y2="-296.875" id="line_182" class="solid" />
<line x1="-125.0" y1="-332.03125" x2="-109.375" y2="-332.03125" id="line_184" class="solid" />
<line x1="-125.0" y1="-296.875" x2="-140.625" y2="-296.875" id="line_185" class="solid" />
<line x1="-140.625" y1="-332.03125" x2="-125.0" y2="-332.03125" id="line_187" class="solid" />
<line x1="-140.625" y1="-296.875" x2="-156.25" y2="-296.875" id="line_188" class="solid" />
<line x1="-156.25" y1="-332.03125" x2="-140.625" y2="-332.03125" id="line_190" class="solid" />
<line x1="-62.5" y1="332.03125" x2="-78.125" y2="332.03125" id="line_191" class="solid" />
<line x1="-78.125" y1="296.875" x2="-62.5" y2="296.875" id="line_193" class="solid" />
<line x1="-78.125" y1="332.03125" x2="-93.75" y2="332.03125" id="line_194" class="solid" />
<line x1="-93.75" y1="332.03125" x2="-109.375" y2="332.03125" id="line_195" class="solid" />
<line x1="-109.375" y1="332.03125" x2="-125.0" y2="332.03125" id="line_196" class="solid" />
<line x1="-125.0" y1="332.03125" x2="-140.625" y2="332.03125" id="line_197" class="solid" />
<line x1="-140.625" y1="332.03125" x2="-156.25" y2="332.03125" id="line_198" class="solid" />
<line x1="-93.75" y1="296.875" x2="-78.125" y2="296.875" id="line_199" class="solid" />
<line x1="-109.375" y1="296.875" x2="-93.75" y2="296.875" id="line_200" class="solid" />
<line x1="-125.0" y1="296.875" x2="-109.375" y2="296.875" id="line_201" class="solid" />
<line x1="-140.625" y1="296.875" x2="-125.0" y2="296.875" id="line_202" class="solid" />
<line x1="-156.25" y1="296.875" x2="-140.625" y2="296.875" id="line_203" class="solid" />
<line x1="-179.6875" y1="261.71875" x2="-156.25" y2="296.875" id="line_209" class="solid" />
<line x1="-156.25" y1="332.03125" x2="-210.9375" y2="332.03125" id="line_210" class="solid" />
<line x1="-210.9375" y1="332.03125" x2="-250.0" y2="292.96875" id="line_211" class="solid" />
<line x1="265.625" y1="-250.0" x2="281.25" y2="-250.0" id="line_212" class="solid" />
<line x1="265.625" y1="-265.625" x2="265.625" y2="-250.0" id="line_214" class="solid" />
<line x1="-226.5625" y1="-222.65625" x2="-214.84375" y2="-210.9375" id="line_216" class="solid" />
<line x1="-246.09375" y1="-171.875" x2="-261.71875" y2="-179.6875" id="line_217" class="solid" />
<line x1="-171.875" y1="246.09375" x2="-179.6875" y2="261.71875" id="line_219" class="solid" />
<line x1="-226.5625" y1="226.5625" x2="-214.84375" y2="214.84375" id="line_220" class="solid" />
<line x1="-156.25" y1="-296.875" x2="-183.59375" y2="-261.71875" id="line_222" class="solid" />
<line x1="-183.59375" y1="-261.71875" x2="-226.5625" y2="-222.65625" id="line_223" class="solid" />
<line x1="-210.9375" y1="-332.03125" x2="-156.25" y2="-332.03125" id="line_224" class="solid" />
<line x1="-277.34375" y1="-316.40625" x2="-210.9375" y2="-332.03125" id="line_225" class="solid" />
<line x1="-332.03125" y1="-261.71875" x2="-277.34375" y2="-316.40625" id="line_226" class="solid" />
<line x1="-347.65625" y1="-207.03125" x2="-332.03125" y2="-261.71875" id="line_227" class="solid" />
<line x1="-351.5625" y1="-148.4375" x2="-347.65625" y2="-207.03125" id="line_228" class="solid" />
<line x1="-347.65625" y1="-97.65625" x2="-351.5625" y2="-148.4375" id="line_229" class="solid" />
<line x1="-292.96875" y1="-144.53125" x2="-312.5" y2="-93.75" id="line_230" class="solid" />
<line x1="-261.71875" y1="-179.6875" x2="-292.96875" y2="-144.53125" id="line_231" class="solid" />
<line x1="-257.8125" y1="179.6875" x2="-226.5625" y2="226.5625" id="line_234" class="solid" />
<line x1="-289.0625" y1="117.1875" x2="-257.8125" y2="179.6875" id="line_235" class="solid" />
<line x1="-312.5" y1="93.75" x2="-289.0625" y2="117.1875" id="line_236" class="solid" />
<line x1="-250.0" y1="292.96875" x2="-257.8125" y2="250.0" id="line_237" class="solid" />
<line x1="-257.8125" y1="250.0" x2="-281.25" y2="195.3125" id="line_238" class="solid" />
<line x1="-281.25" y1="195.3125" x2="-304.6875" y2="148.4375" id="line_239" class="solid" />
<line x1="-304.6875" y1="148.4375" x2="-339.84375" y2="128.90625" id="line_240" class="solid" />
<line x1="-339.84375" y1="128.90625" x2="-351.5625" y2="97.65625" id="line_241" class="solid" />
<line x1="261.71875" y1="-316.40625" x2="304.6875" y2="-292.96875" id="line_245" class="solid" />
<line x1="281.25" y1="-265.625" x2="265.625" y2="-265.625" id="line_247" class="solid" />
<line x1="281.25" y1="-250.0" x2="281.25" y2="-265.625" id="line_248" class="solid" />
<line x1="304.6875" y1="-292.96875" x2="320.3125" y2="-246.09375" id="line_249" class="solid" />
<!-- end group: "border_solid" -->
</g>
<!-- end group: "borders" -->
</g>
<g id="objects">
<g id="objects_item">
<use xlink:href="../resources/svg/common.svg#item" x="0.0" y="1.953125" id="object_1" class="item item-8" transform="rotate(315.0 0.0 1.953125)" />
<use xlink:href="../resources/svg/common.svg#item" x="0.0" y="-33.203125" id="object_2" class="item item-22" transform="rotate(315.0 0.0 -33.203125)" />
<use xlink:href="../resources/svg/common.svg#item" x="0.0" y="33.203125" id="object_3" class="item item-22" transform="rotate(315.0 0.0 33.203125)" />
<use xlink:href="../resources/svg/common.svg#item" x="-37.109375" y="3.90625" id="object_4" class="item item-22" transform="rotate(315.0 -37.109375 3.90625)" />
<use xlink:href="../resources/svg/common.svg#item" x="39.0625" y="1.953125" id="object_5" class="item item-22" transform="rotate(315.0 39.0625 1.953125)" />
<use xlink:href="../resources/svg/common.svg#item" x="216.796875" y="-186.5234375" id="object_6" class="item item-34" transform="rotate(315.0 216.796875 -186.5234375)" />
<use xlink:href="../resources/svg/common.svg#item" x="241.2109375" y="195.3125" id="object_7" class="item item-8" transform="rotate(315.0 241.2109375 195.3125)" />
<use xlink:href="../resources/svg/common.svg#item" x="-196.2890625" y="238.28125" id="object_8" class="item item-22" transform="rotate(315.0 -196.2890625 238.28125)" />
<use xlink:href="../resources/svg/common.svg#item" x="-237.3046875" y="-198.2421875" id="object_9" class="item item-8" transform="rotate(315.0 -237.3046875 -198.2421875)" />
<use xlink:href="../resources/svg/common.svg#item" x="0.0" y="-314.453125" id="object_10" class="item item-5" transform="rotate(315.0 0.0 -314.453125)" />
<use xlink:href="../resources/svg/common.svg#item" x="-0.9765625" y="316.40625" id="object_11" class="item item-5" transform="rotate(315.0 -0.9765625 316.40625)" />
<use xlink:href="../resources/svg/common.svg#item" x="337.890625" y="0.0" id="object_12" class="item item-3" transform="rotate(315.0 337.890625 0.0)" />
<use xlink:href="../resources/svg/common.svg#item" x="-338.8671875" y="-0.9765625" id="object_13" class="item item-3" transform="rotate(315.0 -338.8671875 -0.9765625)" />
<use xlink:href="../resources/svg/common.svg#item" x="0.0" y="5.859375" id="object_14" class="item item-26" transform="rotate(315.0 0.0 5.859375)" />
<use xlink:href="../resources/svg/common.svg#item" x="-249.0234375" y="128.90625" id="object_15" class="item item-34" transform="rotate(315.0 -249.0234375 128.90625)" />
<use xlink:href="../resources/svg/common.svg#item" x="237.3046875" y="-199.21875" id="object_16" class="item item-5" transform="rotate(315.0 237.3046875 -199.21875)" />
<use xlink:href="../resources/svg/common.svg#item" x="136.71875" y="245.1171875" id="object_17" class="item item-13" transform="rotate(315.0 136.71875 245.1171875)" />
<use xlink:href="../resources/svg/common.svg#item" x="-172.8515625" y="-218.75" id="object_18" class="item item-13" transform="rotate(315.0 -172.8515625 -218.75)" />
<!-- end group: "objects_item" -->
</g>
<g id="objects_player">
<use xlink:href="../resources/svg/common.svg#monster" x="0.0" y="-293.9453125" id="object_0" class="player" transform="rotate(91.40625 0.0 -293.9453125)" />
<use xlink:href="../resources/svg/common.svg#monster" x="-0.9765625" y="294.921875" id="object_19" class="player" transform="rotate(267.890625 -0.9765625 294.921875)" />
<use xlink:href="../resources/svg/common.svg#monster" x="250.0" y="274.4140625" id="object_20" class="player" transform="rotate(243.984375 250.0 274.4140625)" />
<use xlink:href="../resources/svg/common.svg#monster" x="-198.2421875" y="304.6875" id="object_21" class="player" transform="rotate(267.890625 -198.2421875 304.6875)" />
<use xlink:href="../resources/svg/common.svg#monster" x="302.734375" y="-228.515625" id="object_22" class="player" transform="rotate(146.953125 302.734375 -228.515625)" />
<use xlink:href="../resources/svg/common.svg#monster" x="-182.6171875" y="-311.5234375" id="object_23" class="player" transform="rotate(116.71875 -182.6171875 -311.5234375)" />
<use xlink:href="../resources/svg/common.svg#monster" x="-330.078125" y="-63.4765625" id="object_24" class="player" transform="rotate(86.484375 -330.078125 -63.4765625)" />
<use xlink:href="../resources/svg/common.svg#monster" x="339.84375" y="-43.9453125" id="object_25" class="player" transform="rotate(113.90625 339.84375 -43.9453125)" />
<!-- end group: "objects_player" -->
</g>
<!-- end group: "objects" -->
</g>
<g id="panels">
<!-- end group: "panels" -->
</g>

<script xlink:href="../resources/js/level.js" ></script>
</svg>