<?xml version="1.0" encoding="UTF-8"?>
<!-- generated by map2svg: github.com/fracai/marathon-svg -->
<svg xmlns="http://www.w3.org/2000/svg" xmlns:xlink="http://www.w3.org/1999/xlink" version="1.1"
    viewBox="-218.75 -218.75 937.5 875.0">
<link xmlns="http://www.w3.org/1999/xhtml" rel="stylesheet" href="../resources/css/styles.css" type="text/css" />
<style id="dynamic-style" />
<g id="background-grid">
<defs>
<pattern id="grid_minor" width="3.125" height="3.125" patternUnits="userSpaceOnUse">
<path d="M 3.125 0 L 0 0 0 3.125" fill="none" class="grid_minor" />
</pattern>
<pattern id="grid_major" width="31.25" height="31.25" patternUnits="userSpaceOnUse">
<rect width="31.25" height="31.25" fill="url(#grid_minor)"/>
<path d="M 31.25 0 L 0 0 0 31.25" fill="none" class="grid_major" />
</pattern>
</defs>
<rect x="-1000" y="-1000" width="2000" height="2000" fill="url(#grid_major)" />
<line x1="0" y1="1000" x2="0" y2="-1000" class="grid_origin" />
<line x1="1000" y1="0" x2="-1000" y2="0" class="grid_origin" />
<!-- end group: "background-grid" -->
</g>
<g id="polygons">
<polygon points="406.25,-31.25 500.0,-31.25 500.0,62.5 437.5,62.5 406.25,31.25" id="poly_17" class="plain" />
<polygon points="-31.25,-31.25 62.5,-31.25 62.5,31.25 31.25,62.5 -31.25,62.5" id="poly_22" class="plain" />
<polygon points="-31.25,406.25 31.25,406.25 62.5,437.5 62.5,500.0 -31.25,500.0" id="poly_27" class="plain" />
<polygon points="437.5,406.25 500.0,406.25 500.0,500.0 406.25,500.0 406.25,437.5" id="poly_32" class="plain" />
<polygon points="437.5,62.5 500.0,62.5 500.0,187.5 500.0,281.25 500.0,406.25 437.5,406.25" id="poly_33" class="plain" />
<polygon points="62.5,-31.25 187.5,-31.25 281.25,-31.25 406.25,-31.25 406.25,31.25 62.5,31.25" id="poly_34" class="plain" />
<polygon points="-31.25,187.5 -31.25,62.5 31.25,62.5 31.25,406.25 -31.25,406.25 -31.25,281.25" id="poly_35" class="plain" />
<polygon points="62.5,437.5 406.25,437.5 406.25,500.0 281.25,500.0 187.5,500.0 62.5,500.0" id="poly_36" class="plain" />
<polygon points="-62.5,187.5 -31.25,187.5 -31.25,281.25 -62.5,281.25" id="poly_37" class="platform" />
<polygon points="187.5,-62.5 281.25,-62.5 281.25,-31.25 187.5,-31.25" id="poly_44" class="platform" />
<polygon points="500.0,187.5 531.25,187.5 531.25,281.25 500.0,281.25" id="poly_49" class="platform" />
<polygon points="187.5,500.0 281.25,500.0 281.25,531.25 187.5,531.25" id="poly_58" class="platform" />
<polygon points="398.4375,39.0625 406.25,31.25 437.5,62.5 429.6875,70.3125" id="poly_16" class="plain" />
<polygon points="62.5,31.25 70.3125,39.0625 39.0625,70.3125 31.25,62.5" id="poly_21" class="plain" />
<polygon points="31.25,406.25 39.0625,398.4375 70.3125,429.6875 62.5,437.5" id="poly_26" class="plain" />
<polygon points="429.6875,398.4375 437.5,406.25 406.25,437.5 398.4375,429.6875" id="poly_31" class="plain" />
<polygon points="390.625,46.875 398.4375,39.0625 429.6875,70.3125 421.875,78.125" id="poly_15" class="plain" />
<polygon points="70.3125,39.0625 78.125,46.875 46.875,78.125 39.0625,70.3125" id="poly_20" class="plain" />
<polygon points="39.0625,398.4375 46.875,390.625 78.125,421.875 70.3125,429.6875" id="poly_25" class="plain" />
<polygon points="390.625,421.875 421.875,390.625 429.6875,398.4375 398.4375,429.6875" id="poly_30" class="plain" />
<polygon points="382.8125,54.6875 390.625,46.875 421.875,78.125 414.0625,85.9375" id="poly_14" class="plain" />
<polygon points="78.125,46.875 85.9375,54.6875 54.6875,85.9375 46.875,78.125" id="poly_19" class="plain" />
<polygon points="54.6875,382.8125 85.9375,414.0625 78.125,421.875 46.875,390.625" id="poly_24" class="plain" />
<polygon points="382.8125,414.0625 414.0625,382.8125 421.875,390.625 390.625,421.875" id="poly_29" class="plain" />
<polygon points="375.0,62.5 382.8125,54.6875 414.0625,85.9375 406.25,93.75" id="poly_13" class="plain" />
<polygon points="85.9375,54.6875 93.75,62.5 62.5,93.75 54.6875,85.9375" id="poly_18" class="plain" />
<polygon points="54.6875,382.8125 62.5,375.0 93.75,406.25 85.9375,414.0625" id="poly_23" class="plain" />
<polygon points="406.25,375.0 414.0625,382.8125 382.8125,414.0625 375.0,406.25" id="poly_28" class="plain" />
<polygon points="62.5,93.75 93.75,62.5 156.25,156.25 156.25,312.5 93.75,406.25 62.5,375.0" id="poly_0" class="plain" />
<polygon points="156.25,312.5 312.5,312.5 406.25,375.0 375.0,406.25 93.75,406.25" id="poly_1" class="plain" />
<polygon points="312.5,156.25 375.0,62.5 406.25,93.75 406.25,375.0 312.5,312.5" id="poly_2" class="plain" />
<polygon points="93.75,62.5 375.0,62.5 312.5,156.25 156.25,156.25" id="poly_3" class="plain" />
<polygon points="156.25,156.25 312.5,156.25 281.25,187.5 187.5,187.5" id="poly_4" class="plain" />
<polygon points="281.25,187.5 312.5,156.25 312.5,312.5 281.25,281.25" id="poly_5" class="plain" />
<polygon points="187.5,281.25 281.25,281.25 312.5,312.5 156.25,312.5" id="poly_6" class="plain" />
<polygon points="156.25,156.25 187.5,187.5 187.5,281.25 156.25,312.5" id="poly_7" class="plain" />
<polygon points="187.5,187.5 281.25,187.5 250.0,218.75 214.84375,218.75" id="poly_8" class="hill" />
<polygon points="250.0,218.75 281.25,187.5 281.25,281.25 250.0,250.0" id="poly_9" class="hill" />
<polygon points="214.84375,250.0 250.0,250.0 281.25,281.25 187.5,281.25" id="poly_10" class="hill" />
<polygon points="187.5,187.5 214.84375,218.75 214.84375,250.0 187.5,281.25" id="poly_11" class="hill" />
<polygon points="214.84375,218.75 250.0,218.75 250.0,250.0 214.84375,250.0" id="poly_12" class="hill" />
<polygon points="-62.5,468.75 -35.15625,468.75 -35.15625,500.0 -62.5,500.0" id="poly_76" class="teleporter" />
<polygon points="-93.75,156.25 -62.5,187.5 -62.5,281.25 -93.75,312.5" id="poly_38" class="plain" />
<polygon points="-93.75,156.25 -93.75,93.75 -62.5,62.5 -31.25,62.5 -31.25,187.5 -62.5,187.5" id="poly_39" class="plain" />
<polygon points="-93.75,-93.75 -62.5,-62.5 -62.5,62.5 -93.75,93.75" id="poly_40" class="plain" />
<polygon points="-93.75,-93.75 93.75,-93.75 62.5,-62.5 -62.5,-62.5" id="poly_41" class="plain" />
<polygon points="62.5,-62.5 93.75,-93.75 156.25,-93.75 187.5,-62.5 187.5,-31.25 62.5,-31.25" id="poly_42" class="plain" />
<polygon points="156.25,-93.75 312.5,-93.75 281.25,-62.5 187.5,-62.5" id="poly_43" class="plain" />
<polygon points="312.5,-93.75 375.0,-93.75 406.25,-62.5 406.25,-31.25 281.25,-31.25 281.25,-62.5" id="poly_45" class="plain" />
<polygon points="375.0,-93.75 562.5,-93.75 531.25,-62.5 406.25,-62.5" id="poly_46" class="plain" />
<polygon points="531.25,-62.5 562.5,-93.75 562.5,93.75 531.25,62.5" id="poly_47" class="plain" />
<polygon points="500.0,62.5 531.25,62.5 562.5,93.75 562.5,156.25 531.25,187.5 500.0,187.5" id="poly_48" class="plain" />
<polygon points="531.25,187.5 562.5,156.25 562.5,312.5 531.25,281.25" id="poly_50" class="plain" />
<polygon points="500.0,281.25 531.25,281.25 562.5,312.5 562.5,375.0 531.25,406.25 500.0,406.25" id="poly_51" class="plain" />
<polygon points="531.25,406.25 562.5,375.0 562.5,562.5 531.25,531.25" id="poly_52" class="plain" />
<polygon points="281.25,531.25 281.25,500.0 406.25,500.0 406.25,531.25 375.0,562.5 312.5,562.5" id="poly_53" class="plain" />
<polygon points="187.5,531.25 281.25,531.25 312.5,562.5 156.25,562.5" id="poly_54" class="plain" />
<polygon points="406.25,531.25 531.25,531.25 562.5,562.5 375.0,562.5" id="poly_55" class="plain" />
<polygon points="62.5,531.25 62.5,500.0 187.5,500.0 187.5,531.25 156.25,562.5 93.75,562.5" id="poly_56" class="plain" />
<polygon points="-93.75,312.5 -62.5,281.25 -31.25,281.25 -31.25,406.25 -62.5,406.25 -93.75,375.0" id="poly_57" class="plain" />
<polygon points="375.0,562.5 562.5,562.5 562.5,593.75 531.25,625.0 375.0,625.0" id="poly_59" class="plain" />
<polygon points="562.5,593.75 656.25,593.75 687.5,625.0 531.25,625.0" id="poly_60" class="plain" />
<polygon points="656.25,562.5 687.5,531.25 687.5,625.0 656.25,593.75" id="poly_61" class="plain" />
<polygon points="593.75,531.25 687.5,531.25 656.25,562.5 562.5,562.5" id="poly_62" class="plain" />
<polygon points="562.5,375.0 593.75,375.0 593.75,406.25 593.75,437.5 593.75,468.75 593.75,500.0 593.75,531.25 562.5,562.5" id="poly_63" class="plain" />
<polygon points="593.75,468.75 625.0,468.75 656.25,500.0 593.75,500.0" id="poly_64" class="plain" />
<polygon points="625.0,437.5 656.25,406.25 656.25,500.0 625.0,468.75" id="poly_65" class="plain" />
<polygon points="593.75,406.25 656.25,406.25 625.0,437.5 593.75,437.5" id="poly_66" class="plain" />
<polygon points="375.0,-187.5 625.0,-187.5 656.25,-156.25 562.5,-93.75 375.0,-93.75" id="poly_67" class="plain" />
<polygon points="562.5,-93.75 656.25,-156.25 656.25,93.75 562.5,93.75" id="poly_68" class="plain" />
<polygon points="93.75,-125.0 156.25,-187.5 156.25,-93.75 93.75,-93.75" id="poly_69" class="plain" />
<polygon points="-187.5,-187.5 156.25,-187.5 93.75,-125.0 -125.0,-125.0" id="poly_70" class="plain" />
<polygon points="-187.5,-187.5 -125.0,-125.0 -125.0,93.75 -187.5,156.25" id="poly_71" class="plain" />
<polygon points="-125.0,93.75 -93.75,93.75 -93.75,156.25 -187.5,156.25" id="poly_72" class="plain" />
<polygon points="-93.75,406.25 -93.75,375.0 -62.5,406.25 -62.5,468.75 -93.75,437.5" id="poly_73" class="plain" />
<polygon points="-125.0,406.25 -93.75,406.25 -93.75,437.5 -125.0,437.5" id="poly_74" class="plain" />
<polygon points="-93.75,500.0 -93.75,468.75 -93.75,437.5 -62.5,468.75 -62.5,500.0 -62.5,531.25 -78.125,562.5 -93.75,531.25" id="poly_75" class="plain" />
<polygon points="-156.25,468.75 -93.75,468.75 -93.75,500.0 -125.0,500.0" id="poly_77" class="plain" />
<polygon points="-62.5,531.25 62.5,531.25 93.75,562.5 62.5,562.5 0.0,562.5 -78.125,562.5" id="poly_78" class="plain" />
<polygon points="0.0,593.75 0.0,562.5 62.5,562.5 62.5,625.0 31.25,625.0" id="poly_79" class="plain" />
<polygon points="-125.0,593.75 0.0,593.75 31.25,625.0 -156.25,625.0" id="poly_80" class="plain" />
<polygon points="-156.25,539.0625 -125.0,562.5 -125.0,593.75 -156.25,625.0" id="poly_81" class="plain" />
<polygon points="-156.25,468.75 -125.0,500.0 -125.0,531.25 -156.25,539.0625" id="poly_82" class="plain" />
<polygon points="-156.25,539.0625 -125.0,531.25 -93.75,531.25 -78.125,562.5 -125.0,562.5" id="poly_84" class="plain" />
<polygon points="562.5,562.5 656.25,562.5 656.25,593.75 562.5,593.75" id="poly_83" class="plain" />
<!-- end group: "polygons" -->
</g>
<g id="borders">
<g id="border_plain">
<line x1="93.75" y1="62.5" x2="156.25" y2="156.25" id="line_10" class="plain" />
<line x1="156.25" y1="312.5" x2="93.75" y2="406.25" id="line_11" class="plain" />
<line x1="312.5" y1="312.5" x2="406.25" y2="375.0" id="line_12" class="plain" />
<line x1="312.5" y1="156.25" x2="375.0" y2="62.5" id="line_13" class="plain" />
<line x1="312.5" y1="156.25" x2="281.25" y2="187.5" id="line_16" class="plain" />
<line x1="187.5" y1="187.5" x2="156.25" y2="156.25" id="line_18" class="plain" />
<line x1="312.5" y1="312.5" x2="281.25" y2="281.25" id="line_20" class="plain" />
<line x1="156.25" y1="312.5" x2="187.5" y2="281.25" id="line_22" class="plain" />
<line x1="281.25" y1="187.5" x2="250.0" y2="218.75" id="line_25" class="plain" />
<line x1="214.84375" y1="218.75" x2="187.5" y2="187.5" id="line_26" class="plain" />
<line x1="281.25" y1="281.25" x2="250.0" y2="250.0" id="line_28" class="plain" />
<line x1="187.5" y1="281.25" x2="214.84375" y2="250.0" id="line_30" class="plain" />
<line x1="406.25" y1="31.25" x2="406.25" y2="-31.25" id="line_44" class="plain" />
<line x1="500.0" y1="62.5" x2="437.5" y2="62.5" id="line_47" class="plain" />
<line x1="62.5" y1="-31.25" x2="62.5" y2="31.25" id="line_60" class="plain" />
<line x1="31.25" y1="62.5" x2="-31.25" y2="62.5" id="line_63" class="plain" />
<line x1="-31.25" y1="406.25" x2="31.25" y2="406.25" id="line_76" class="plain" />
<line x1="62.5" y1="437.5" x2="62.5" y2="500.0" id="line_79" class="plain" />
<line x1="406.25" y1="500.0" x2="406.25" y2="437.5" id="line_92" class="plain" />
<line x1="437.5" y1="406.25" x2="500.0" y2="406.25" id="line_95" class="plain" />
<line x1="562.5" y1="-93.75" x2="531.25" y2="-62.5" id="line_119" class="plain" />
<line x1="375.0" y1="-93.75" x2="562.5" y2="-93.75" id="line_120" class="plain" />
<line x1="375.0" y1="-93.75" x2="406.25" y2="-62.5" id="line_121" class="plain" />
<line x1="312.5" y1="-93.75" x2="281.25" y2="-62.5" id="line_122" class="plain" />
<line x1="156.25" y1="-93.75" x2="187.5" y2="-62.5" id="line_125" class="plain" />
<line x1="93.75" y1="-93.75" x2="62.5" y2="-62.5" id="line_127" class="plain" />
<line x1="93.75" y1="-93.75" x2="156.25" y2="-93.75" id="line_128" class="plain" />
<line x1="-93.75" y1="-93.75" x2="-62.5" y2="-62.5" id="line_130" class="plain" />
<line x1="-93.75" y1="93.75" x2="-62.5" y2="62.5" id="line_135" class="plain" />
<line x1="-93.75" y1="156.25" x2="-62.5" y2="187.5" id="line_137" class="plain" />
<line x1="-93.75" y1="156.25" x2="-93.75" y2="93.75" id="line_138" class="plain" />
<line x1="-62.5" y1="281.25" x2="-93.75" y2="312.5" id="line_141" class="plain" />
<line x1="562.5" y1="93.75" x2="531.25" y2="62.5" id="line_143" class="plain" />
<line x1="562.5" y1="-93.75" x2="562.5" y2="93.75" id="line_144" class="plain" />
<line x1="562.5" y1="156.25" x2="531.25" y2="187.5" id="line_146" class="plain" />
<line x1="562.5" y1="312.5" x2="531.25" y2="281.25" id="line_150" class="plain" />
<line x1="562.5" y1="375.0" x2="531.25" y2="406.25" id="line_153" class="plain" />
<line x1="562.5" y1="562.5" x2="531.25" y2="531.25" id="line_158" class="plain" />
<line x1="562.5" y1="375.0" x2="562.5" y2="562.5" id="line_159" class="plain" />
<line x1="562.5" y1="562.5" x2="375.0" y2="562.5" id="line_160" class="plain" />
<line x1="406.25" y1="531.25" x2="375.0" y2="562.5" id="line_161" class="plain" />
<line x1="312.5" y1="562.5" x2="281.25" y2="531.25" id="line_163" class="plain" />
<line x1="156.25" y1="562.5" x2="187.5" y2="531.25" id="line_167" class="plain" />
<line x1="93.75" y1="562.5" x2="62.5" y2="531.25" id="line_170" class="plain" />
<line x1="-62.5" y1="531.25" x2="-78.125" y2="562.5" id="line_173" class="plain" />
<line x1="-78.125" y1="562.5" x2="-93.75" y2="531.25" id="line_177" class="plain" />
<line x1="-62.5" y1="406.25" x2="-93.75" y2="375.0" id="line_178" class="plain" />
<line x1="593.75" y1="468.75" x2="593.75" y2="500.0" id="line_190" class="plain" />
<line x1="593.75" y1="406.25" x2="593.75" y2="437.5" id="line_191" class="plain" />
<line x1="625.0" y1="437.5" x2="656.25" y2="406.25" id="line_192" class="plain" />
<line x1="625.0" y1="468.75" x2="656.25" y2="500.0" id="line_193" class="plain" />
<line x1="656.25" y1="562.5" x2="687.5" y2="531.25" id="line_202" class="plain" />
<line x1="562.5" y1="562.5" x2="593.75" y2="531.25" id="line_203" class="plain" />
<line x1="562.5" y1="593.75" x2="531.25" y2="625.0" id="line_205" class="plain" />
<line x1="656.25" y1="593.75" x2="687.5" y2="625.0" id="line_206" class="plain" />
<line x1="656.25" y1="-156.25" x2="562.5" y2="-93.75" id="line_209" class="plain" />
<line x1="-125.0" y1="-125.0" x2="-187.5" y2="-187.5" id="line_217" class="plain" />
<line x1="93.75" y1="-125.0" x2="156.25" y2="-187.5" id="line_221" class="plain" />
<line x1="-125.0" y1="93.75" x2="-187.5" y2="156.25" id="line_222" class="plain" />
<line x1="-93.75" y1="437.5" x2="-93.75" y2="406.25" id="line_227" class="plain" />
<line x1="-93.75" y1="500.0" x2="-93.75" y2="468.75" id="line_232" class="plain" />
<line x1="-125.0" y1="500.0" x2="-156.25" y2="468.75" id="line_234" class="plain" />
<line x1="-125.0" y1="531.25" x2="-156.25" y2="539.0625" id="line_235" class="plain" />
<line x1="62.5" y1="562.5" x2="0.0" y2="562.5" id="line_241" class="plain" />
<line x1="31.25" y1="625.0" x2="0.0" y2="593.75" id="line_245" class="plain" />
<line x1="-156.25" y1="539.0625" x2="-125.0" y2="562.5" id="line_250" class="plain" />
<line x1="-156.25" y1="625.0" x2="-125.0" y2="593.75" id="line_252" class="plain" />
<line x1="-62.5" y1="468.75" x2="-93.75" y2="437.5" id="line_254" class="plain" />
<!-- end group: "border_plain" -->
</g>
<g id="border_ceiling">
<line x1="-62.5" y1="468.75" x2="-62.5" y2="500.0" id="line_236" class="ceiling" />
<!-- end group: "border_ceiling" -->
</g>
<g id="border_elevation">
<line x1="312.5" y1="312.5" x2="312.5" y2="156.25" id="line_0" class="elevation" />
<line x1="156.25" y1="312.5" x2="312.5" y2="312.5" id="line_1" class="elevation" />
<line x1="156.25" y1="156.25" x2="156.25" y2="312.5" id="line_2" class="elevation" />
<line x1="375.0" y1="62.5" x2="406.25" y2="93.75" id="line_3" class="elevation" />
<line x1="406.25" y1="375.0" x2="375.0" y2="406.25" id="line_5" class="elevation" />
<line x1="93.75" y1="406.25" x2="62.5" y2="375.0" id="line_7" class="elevation" />
<line x1="62.5" y1="93.75" x2="93.75" y2="62.5" id="line_9" class="elevation" />
<line x1="312.5" y1="156.25" x2="156.25" y2="156.25" id="line_15" class="elevation" />
<line x1="281.25" y1="187.5" x2="187.5" y2="187.5" id="line_17" class="elevation" />
<line x1="281.25" y1="281.25" x2="281.25" y2="187.5" id="line_19" class="elevation" />
<line x1="187.5" y1="281.25" x2="281.25" y2="281.25" id="line_21" class="elevation" />
<line x1="187.5" y1="187.5" x2="187.5" y2="281.25" id="line_23" class="elevation" />
<line x1="250.0" y1="218.75" x2="214.84375" y2="218.75" id="line_24" class="elevation" />
<line x1="250.0" y1="250.0" x2="250.0" y2="218.75" id="line_27" class="elevation" />
<line x1="214.84375" y1="250.0" x2="250.0" y2="250.0" id="line_29" class="elevation" />
<line x1="214.84375" y1="218.75" x2="214.84375" y2="250.0" id="line_31" class="elevation" />
<line x1="382.8125" y1="54.6875" x2="414.0625" y2="85.9375" id="line_33" class="elevation" />
<line x1="390.625" y1="46.875" x2="421.875" y2="78.125" id="line_36" class="elevation" />
<line x1="398.4375" y1="39.0625" x2="429.6875" y2="70.3125" id="line_39" class="elevation" />
<line x1="406.25" y1="31.25" x2="437.5" y2="62.5" id="line_42" class="elevation" />
<line x1="54.6875" y1="85.9375" x2="85.9375" y2="54.6875" id="line_49" class="elevation" />
<line x1="46.875" y1="78.125" x2="78.125" y2="46.875" id="line_52" class="elevation" />
<line x1="39.0625" y1="70.3125" x2="70.3125" y2="39.0625" id="line_55" class="elevation" />
<line x1="31.25" y1="62.5" x2="62.5" y2="31.25" id="line_58" class="elevation" />
<line x1="85.9375" y1="414.0625" x2="54.6875" y2="382.8125" id="line_65" class="elevation" />
<line x1="78.125" y1="421.875" x2="46.875" y2="390.625" id="line_68" class="elevation" />
<line x1="70.3125" y1="429.6875" x2="39.0625" y2="398.4375" id="line_71" class="elevation" />
<line x1="62.5" y1="437.5" x2="31.25" y2="406.25" id="line_74" class="elevation" />
<line x1="414.0625" y1="382.8125" x2="382.8125" y2="414.0625" id="line_81" class="elevation" />
<line x1="421.875" y1="390.625" x2="390.625" y2="421.875" id="line_84" class="elevation" />
<line x1="429.6875" y1="398.4375" x2="398.4375" y2="429.6875" id="line_87" class="elevation" />
<line x1="437.5" y1="406.25" x2="406.25" y2="437.5" id="line_90" class="elevation" />
<line x1="500.0" y1="281.25" x2="500.0" y2="406.25" id="line_97" class="elevation" />
<line x1="500.0" y1="62.5" x2="500.0" y2="187.5" id="line_99" class="elevation" />
<line x1="62.5" y1="-31.25" x2="187.5" y2="-31.25" id="line_101" class="elevation" />
<line x1="281.25" y1="-31.25" x2="406.25" y2="-31.25" id="line_103" class="elevation" />
<line x1="-31.25" y1="406.25" x2="-31.25" y2="281.25" id="line_105" class="elevation" />
<line x1="-31.25" y1="187.5" x2="-31.25" y2="62.5" id="line_107" class="elevation" />
<line x1="187.5" y1="500.0" x2="62.5" y2="500.0" id="line_109" class="elevation" />
<line x1="406.25" y1="500.0" x2="281.25" y2="500.0" id="line_111" class="elevation" />
<line x1="562.5" y1="562.5" x2="562.5" y2="593.75" id="line_198" class="elevation" />
<line x1="562.5" y1="593.75" x2="656.25" y2="593.75" id="line_199" class="elevation" />
<line x1="656.25" y1="593.75" x2="656.25" y2="562.5" id="line_200" class="elevation" />
<line x1="656.25" y1="562.5" x2="562.5" y2="562.5" id="line_201" class="elevation" />
<!-- end group: "border_elevation" -->
</g>
<g id="border_solid">
<line x1="406.25" y1="93.75" x2="406.25" y2="375.0" id="line_4" class="solid" />
<line x1="375.0" y1="406.25" x2="93.75" y2="406.25" id="line_6" class="solid" />
<line x1="62.5" y1="375.0" x2="62.5" y2="93.75" id="line_8" class="solid" />
<line x1="93.75" y1="62.5" x2="375.0" y2="62.5" id="line_14" class="solid" />
<line x1="375.0" y1="62.5" x2="382.8125" y2="54.6875" id="line_32" class="solid" />
<line x1="414.0625" y1="85.9375" x2="406.25" y2="93.75" id="line_34" class="solid" />
<line x1="421.875" y1="78.125" x2="414.0625" y2="85.9375" id="line_35" class="solid" />
<line x1="382.8125" y1="54.6875" x2="390.625" y2="46.875" id="line_37" class="solid" />
<line x1="429.6875" y1="70.3125" x2="421.875" y2="78.125" id="line_38" class="solid" />
<line x1="390.625" y1="46.875" x2="398.4375" y2="39.0625" id="line_40" class="solid" />
<line x1="437.5" y1="62.5" x2="429.6875" y2="70.3125" id="line_41" class="solid" />
<line x1="398.4375" y1="39.0625" x2="406.25" y2="31.25" id="line_43" class="solid" />
<line x1="406.25" y1="-31.25" x2="500.0" y2="-31.25" id="line_45" class="solid" />
<line x1="500.0" y1="-31.25" x2="500.0" y2="62.5" id="line_46" class="solid" />
<line x1="85.9375" y1="54.6875" x2="93.75" y2="62.5" id="line_48" class="solid" />
<line x1="62.5" y1="93.75" x2="54.6875" y2="85.9375" id="line_50" class="solid" />
<line x1="78.125" y1="46.875" x2="85.9375" y2="54.6875" id="line_51" class="solid" />
<line x1="54.6875" y1="85.9375" x2="46.875" y2="78.125" id="line_53" class="solid" />
<line x1="70.3125" y1="39.0625" x2="78.125" y2="46.875" id="line_54" class="solid" />
<line x1="46.875" y1="78.125" x2="39.0625" y2="70.3125" id="line_56" class="solid" />
<line x1="62.5" y1="31.25" x2="70.3125" y2="39.0625" id="line_57" class="solid" />
<line x1="39.0625" y1="70.3125" x2="31.25" y2="62.5" id="line_59" class="solid" />
<line x1="-31.25" y1="-31.25" x2="62.5" y2="-31.25" id="line_61" class="solid" />
<line x1="-31.25" y1="62.5" x2="-31.25" y2="-31.25" id="line_62" class="solid" />
<line x1="54.6875" y1="382.8125" x2="62.5" y2="375.0" id="line_64" class="solid" />
<line x1="93.75" y1="406.25" x2="85.9375" y2="414.0625" id="line_66" class="solid" />
<line x1="46.875" y1="390.625" x2="54.6875" y2="382.8125" id="line_67" class="solid" />
<line x1="85.9375" y1="414.0625" x2="78.125" y2="421.875" id="line_69" class="solid" />
<line x1="39.0625" y1="398.4375" x2="46.875" y2="390.625" id="line_70" class="solid" />
<line x1="78.125" y1="421.875" x2="70.3125" y2="429.6875" id="line_72" class="solid" />
<line x1="31.25" y1="406.25" x2="39.0625" y2="398.4375" id="line_73" class="solid" />
<line x1="70.3125" y1="429.6875" x2="62.5" y2="437.5" id="line_75" class="solid" />
<line x1="-31.25" y1="500.0" x2="-31.25" y2="406.25" id="line_77" class="solid" />
<line x1="62.5" y1="500.0" x2="-31.25" y2="500.0" id="line_78" class="solid" />
<line x1="406.25" y1="375.0" x2="414.0625" y2="382.8125" id="line_80" class="solid" />
<line x1="382.8125" y1="414.0625" x2="375.0" y2="406.25" id="line_82" class="solid" />
<line x1="414.0625" y1="382.8125" x2="421.875" y2="390.625" id="line_83" class="solid" />
<line x1="390.625" y1="421.875" x2="382.8125" y2="414.0625" id="line_85" class="solid" />
<line x1="421.875" y1="390.625" x2="429.6875" y2="398.4375" id="line_86" class="solid" />
<line x1="398.4375" y1="429.6875" x2="390.625" y2="421.875" id="line_88" class="solid" />
<line x1="406.25" y1="437.5" x2="398.4375" y2="429.6875" id="line_89" class="solid" />
<line x1="429.6875" y1="398.4375" x2="437.5" y2="406.25" id="line_91" class="solid" />
<line x1="500.0" y1="500.0" x2="406.25" y2="500.0" id="line_93" class="solid" />
<line x1="500.0" y1="406.25" x2="500.0" y2="500.0" id="line_94" class="solid" />
<line x1="437.5" y1="406.25" x2="437.5" y2="62.5" id="line_96" class="solid" />
<line x1="500.0" y1="187.5" x2="500.0" y2="281.25" id="line_98" class="solid" />
<line x1="406.25" y1="31.25" x2="62.5" y2="31.25" id="line_100" class="solid" />
<line x1="187.5" y1="-31.25" x2="281.25" y2="-31.25" id="line_102" class="solid" />
<line x1="31.25" y1="62.5" x2="31.25" y2="406.25" id="line_104" class="solid" />
<line x1="-31.25" y1="281.25" x2="-31.25" y2="187.5" id="line_106" class="solid" />
<line x1="62.5" y1="437.5" x2="406.25" y2="437.5" id="line_108" class="solid" />
<line x1="281.25" y1="500.0" x2="187.5" y2="500.0" id="line_110" class="solid" />
<line x1="281.25" y1="-62.5" x2="281.25" y2="-31.25" id="line_112" class="solid" />
<line x1="281.25" y1="-62.5" x2="187.5" y2="-62.5" id="line_113" class="solid" />
<line x1="187.5" y1="-62.5" x2="187.5" y2="-31.25" id="line_114" class="solid" />
<line x1="406.25" y1="-62.5" x2="406.25" y2="-31.25" id="line_115" class="solid" />
<line x1="531.25" y1="-62.5" x2="406.25" y2="-62.5" id="line_116" class="solid" />
<line x1="531.25" y1="62.5" x2="531.25" y2="-62.5" id="line_117" class="solid" />
<line x1="500.0" y1="62.5" x2="531.25" y2="62.5" id="line_118" class="solid" />
<line x1="312.5" y1="-93.75" x2="375.0" y2="-93.75" id="line_123" class="solid" />
<line x1="156.25" y1="-93.75" x2="312.5" y2="-93.75" id="line_124" class="solid" />
<line x1="62.5" y1="-31.25" x2="62.5" y2="-62.5" id="line_126" class="solid" />
<line x1="-93.75" y1="-93.75" x2="93.75" y2="-93.75" id="line_129" class="solid" />
<line x1="62.5" y1="-62.5" x2="-62.5" y2="-62.5" id="line_131" class="solid" />
<line x1="-62.5" y1="62.5" x2="-31.25" y2="62.5" id="line_132" class="solid" />
<line x1="-62.5" y1="-62.5" x2="-62.5" y2="62.5" id="line_133" class="solid" />
<line x1="-93.75" y1="93.75" x2="-93.75" y2="-93.75" id="line_134" class="solid" />
<line x1="-62.5" y1="187.5" x2="-31.25" y2="187.5" id="line_136" class="solid" />
<line x1="-62.5" y1="281.25" x2="-62.5" y2="187.5" id="line_139" class="solid" />
<line x1="-31.25" y1="281.25" x2="-62.5" y2="281.25" id="line_140" class="solid" />
<line x1="-93.75" y1="312.5" x2="-93.75" y2="156.25" id="line_142" class="solid" />
<line x1="531.25" y1="187.5" x2="500.0" y2="187.5" id="line_145" class="solid" />
<line x1="562.5" y1="93.75" x2="562.5" y2="156.25" id="line_147" class="solid" />
<line x1="531.25" y1="187.5" x2="531.25" y2="281.25" id="line_148" class="solid" />
<line x1="531.25" y1="281.25" x2="500.0" y2="281.25" id="line_149" class="solid" />
<line x1="562.5" y1="156.25" x2="562.5" y2="312.5" id="line_151" class="solid" />
<line x1="531.25" y1="406.25" x2="500.0" y2="406.25" id="line_152" class="solid" />
<line x1="562.5" y1="312.5" x2="562.5" y2="375.0" id="line_154" class="solid" />
<line x1="531.25" y1="531.25" x2="531.25" y2="406.25" id="line_155" class="solid" />
<line x1="406.25" y1="531.25" x2="531.25" y2="531.25" id="line_156" class="solid" />
<line x1="406.25" y1="500.0" x2="406.25" y2="531.25" id="line_157" class="solid" />
<line x1="375.0" y1="562.5" x2="312.5" y2="562.5" id="line_162" class="solid" />
<line x1="281.25" y1="531.25" x2="281.25" y2="500.0" id="line_164" class="solid" />
<line x1="187.5" y1="531.25" x2="281.25" y2="531.25" id="line_165" class="solid" />
<line x1="187.5" y1="500.0" x2="187.5" y2="531.25" id="line_166" class="solid" />
<line x1="312.5" y1="562.5" x2="156.25" y2="562.5" id="line_168" class="solid" />
<line x1="156.25" y1="562.5" x2="93.75" y2="562.5" id="line_169" class="solid" />
<line x1="62.5" y1="531.25" x2="62.5" y2="500.0" id="line_171" class="solid" />
<line x1="93.75" y1="562.5" x2="62.5" y2="562.5" id="line_172" class="solid" />
<line x1="-62.5" y1="531.25" x2="62.5" y2="531.25" id="line_174" class="solid" />
<line x1="-62.5" y1="406.25" x2="-62.5" y2="468.75" id="line_175" class="solid" />
<line x1="-31.25" y1="406.25" x2="-62.5" y2="406.25" id="line_176" class="solid" />
<line x1="-93.75" y1="375.0" x2="-93.75" y2="312.5" id="line_179" class="solid" />
<line x1="562.5" y1="375.0" x2="593.75" y2="375.0" id="line_180" class="solid" />
<line x1="593.75" y1="375.0" x2="593.75" y2="406.25" id="line_181" class="solid" />
<line x1="593.75" y1="406.25" x2="656.25" y2="406.25" id="line_182" class="solid" />
<line x1="656.25" y1="406.25" x2="656.25" y2="500.0" id="line_183" class="solid" />
<line x1="656.25" y1="500.0" x2="593.75" y2="500.0" id="line_184" class="solid" />
<line x1="593.75" y1="500.0" x2="593.75" y2="531.25" id="line_185" class="solid" />
<line x1="593.75" y1="468.75" x2="625.0" y2="468.75" id="line_186" class="solid" />
<line x1="625.0" y1="468.75" x2="625.0" y2="437.5" id="line_187" class="solid" />
<line x1="625.0" y1="437.5" x2="593.75" y2="437.5" id="line_188" class="solid" />
<line x1="593.75" y1="437.5" x2="593.75" y2="468.75" id="line_189" class="solid" />
<line x1="593.75" y1="531.25" x2="687.5" y2="531.25" id="line_194" class="solid" />
<line x1="687.5" y1="531.25" x2="687.5" y2="625.0" id="line_195" class="solid" />
<line x1="687.5" y1="625.0" x2="531.25" y2="625.0" id="line_196" class="solid" />
<line x1="375.0" y1="625.0" x2="375.0" y2="562.5" id="line_197" class="solid" />
<line x1="531.25" y1="625.0" x2="375.0" y2="625.0" id="line_204" class="solid" />
<line x1="656.25" y1="93.75" x2="562.5" y2="93.75" id="line_207" class="solid" />
<line x1="656.25" y1="-156.25" x2="656.25" y2="93.75" id="line_208" class="solid" />
<line x1="625.0" y1="-187.5" x2="656.25" y2="-156.25" id="line_210" class="solid" />
<line x1="375.0" y1="-187.5" x2="625.0" y2="-187.5" id="line_211" class="solid" />
<line x1="375.0" y1="-93.75" x2="375.0" y2="-187.5" id="line_212" class="solid" />
<line x1="156.25" y1="-187.5" x2="156.25" y2="-93.75" id="line_213" class="solid" />
<line x1="93.75" y1="-93.75" x2="93.75" y2="-125.0" id="line_214" class="solid" />
<line x1="93.75" y1="-125.0" x2="-125.0" y2="-125.0" id="line_215" class="solid" />
<line x1="-187.5" y1="-187.5" x2="156.25" y2="-187.5" id="line_216" class="solid" />
<line x1="-125.0" y1="93.75" x2="-93.75" y2="93.75" id="line_218" class="solid" />
<line x1="-125.0" y1="-125.0" x2="-125.0" y2="93.75" id="line_219" class="solid" />
<line x1="-187.5" y1="156.25" x2="-187.5" y2="-187.5" id="line_220" class="solid" />
<line x1="-93.75" y1="156.25" x2="-187.5" y2="156.25" id="line_223" class="solid" />
<line x1="-93.75" y1="406.25" x2="-93.75" y2="375.0" id="line_224" class="solid" />
<line x1="-125.0" y1="406.25" x2="-93.75" y2="406.25" id="line_225" class="solid" />
<line x1="-125.0" y1="437.5" x2="-125.0" y2="406.25" id="line_226" class="solid" />
<line x1="-93.75" y1="468.75" x2="-93.75" y2="437.5" id="line_228" class="solid" />
<line x1="-156.25" y1="468.75" x2="-93.75" y2="468.75" id="line_229" class="solid" />
<line x1="-93.75" y1="531.25" x2="-93.75" y2="500.0" id="line_230" class="solid" />
<line x1="-125.0" y1="531.25" x2="-93.75" y2="531.25" id="line_231" class="solid" />
<line x1="-93.75" y1="500.0" x2="-125.0" y2="500.0" id="line_233" class="solid" />
<line x1="-62.5" y1="468.75" x2="-35.15625" y2="468.75" id="line_237" class="solid" />
<line x1="-35.15625" y1="468.75" x2="-35.15625" y2="500.0" id="line_238" class="solid" />
<line x1="-62.5" y1="500.0" x2="-62.5" y2="531.25" id="line_239" class="solid" />
<line x1="-35.15625" y1="500.0" x2="-62.5" y2="500.0" id="line_240" class="solid" />
<line x1="62.5" y1="562.5" x2="62.5" y2="625.0" id="line_242" class="solid" />
<line x1="62.5" y1="625.0" x2="31.25" y2="625.0" id="line_243" class="solid" />
<line x1="0.0" y1="562.5" x2="-78.125" y2="562.5" id="line_244" class="solid" />
<line x1="0.0" y1="593.75" x2="0.0" y2="562.5" id="line_246" class="solid" />
<line x1="-125.0" y1="593.75" x2="0.0" y2="593.75" id="line_247" class="solid" />
<line x1="-78.125" y1="562.5" x2="-125.0" y2="562.5" id="line_248" class="solid" />
<line x1="-125.0" y1="562.5" x2="-125.0" y2="593.75" id="line_249" class="solid" />
<line x1="-156.25" y1="625.0" x2="-156.25" y2="539.0625" id="line_251" class="solid" />
<line x1="31.25" y1="625.0" x2="-156.25" y2="625.0" id="line_253" class="solid" />
<line x1="-93.75" y1="437.5" x2="-125.0" y2="437.5" id="line_255" class="solid" />
<line x1="-156.25" y1="539.0625" x2="-156.25" y2="468.75" id="line_256" class="solid" />
<line x1="-125.0" y1="500.0" x2="-125.0" y2="531.25" id="line_257" class="solid" />
<!-- end group: "border_solid" -->
</g>
<!-- end group: "borders" -->
</g>
<g id="poly_teleporter_lines">
<g id="panel_teleporter_lines_p76">
<g id="panel_teleporter_line_group_poly_p76_p67">
<line x1="-48.828125" y1="484.375" x2="518.73779296875" y2="-143.73779296875" id="panel_teleporter_border_p76_p67" class="teleporter_border" />
<use xlink:href="../resources/svg/common.svg#arrow" x="518.73779296875" y="-143.73779296875" id="panel_teleporter_head_p76_p67" class="teleporter_line" transform="rotate(-47.89887221867803 518.73779296875 -143.73779296875)" />
<line x1="-48.828125" y1="484.375" x2="518.73779296875" y2="-143.73779296875" id="panel_teleporter_line_p76_p67" class="teleporter_line" />
<!-- end group: "panel_teleporter_line_group_poly_p76_p67" -->
</g>
<!-- end group: "panel_teleporter_lines_p76" -->
</g>
<!-- end group: "poly_teleporter_lines" -->
</g>
<g id="objects">
<g id="objects_sound">
<use xlink:href="../resources/svg/common.svg#sound" x="-44.49462890625" y="232.36083984375" id="object_9" class="sound sound-10" />
<use xlink:href="../resources/svg/common.svg#sound" x="232.36083984375" y="-49.4384765625" id="object_10" class="sound sound-10" />
<use xlink:href="../resources/svg/common.svg#sound" x="516.632080078125" y="229.888916015625" id="object_11" class="sound sound-10" />
<use xlink:href="../resources/svg/common.svg#sound" x="234.832763671875" y="511.688232421875" id="object_12" class="sound sound-10" />
<!-- end group: "objects_sound" -->
</g>
<g id="objects_item">
<use xlink:href="../resources/svg/common.svg#item" x="232.36083984375" y="234.0087890625" id="object_0" class="item item-27" transform="rotate(177.890625 232.36083984375 234.0087890625)" />
<use xlink:href="../resources/svg/common.svg#item" x="21.97265625" y="-160.400390625" id="object_13" class="item item-22" />
<use xlink:href="../resources/svg/common.svg#item" x="-54.931640625" y="355.95703125" id="object_14" class="item item-22" />
<use xlink:href="../resources/svg/common.svg#item" x="645.99609375" y="452.63671875" id="object_15" class="item item-22" />
<use xlink:href="../resources/svg/common.svg#item" x="265.869140625" y="369.140625" id="object_16" class="item item-23" />
<use xlink:href="../resources/svg/common.svg#item" x="294.43359375" y="241.69921875" id="object_17" class="item item-23" />
<use xlink:href="../resources/svg/common.svg#item" x="226.318359375" y="171.38671875" id="object_18" class="item item-23" />
<use xlink:href="../resources/svg/common.svg#item" x="270.263671875" y="123.046875" id="object_19" class="item item-23" />
<use xlink:href="../resources/svg/common.svg#item" x="542.724609375" y="125.244140625" id="object_20" class="item item-23" />
<use xlink:href="../resources/svg/common.svg#item" x="602.05078125" y="-30.76171875" id="object_21" class="item item-23" />
<use xlink:href="../resources/svg/common.svg#item" x="531.73828125" y="-145.01953125" id="object_22" class="item item-23" />
<use xlink:href="../resources/svg/common.svg#item" x="329.58984375" y="-54.931640625" id="object_23" class="item item-23" />
<use xlink:href="../resources/svg/common.svg#item" x="621.826171875" y="610.83984375" id="object_24" class="item item-19" />
<use xlink:href="../resources/svg/common.svg#item" x="41.748046875" y="588.8671875" id="object_25" class="item item-19" />
<use xlink:href="../resources/svg/common.svg#item" x="232.91015625" y="274.658203125" id="object_26" class="item item-8" />
<use xlink:href="../resources/svg/common.svg#item" x="-160.400390625" y="-54.931640625" id="object_27" class="item item-8" />
<use xlink:href="../resources/svg/common.svg#item" x="454.833984375" y="457.03125" id="object_28" class="item item-9" />
<use xlink:href="../resources/svg/common.svg#item" x="118.65234375" y="202.1484375" id="object_29" class="item item-9" />
<use xlink:href="../resources/svg/common.svg#item" x="177.978515625" y="107.666015625" id="object_30" class="item item-7" />
<use xlink:href="../resources/svg/common.svg#item" x="344.970703125" y="199.951171875" id="object_31" class="item item-7" />
<use xlink:href="../resources/svg/common.svg#item" x="101.07421875" y="309.814453125" id="object_32" class="item item-6" />
<use xlink:href="../resources/svg/common.svg#item" x="17.578125" y="26.3671875" id="object_33" class="item item-6" />
<use xlink:href="../resources/svg/common.svg#item" x="191.162109375" y="10.986328125" id="object_34" class="item item-6" />
<use xlink:href="../resources/svg/common.svg#item" x="-112.060546875" y="426.26953125" id="object_35" class="item item-6" />
<use xlink:href="../resources/svg/common.svg#item" x="520.751953125" y="360.3515625" id="object_36" class="item item-6" />
<use xlink:href="../resources/svg/common.svg#item" x="503.173828125" y="591.064453125" id="object_37" class="item item-5" />
<use xlink:href="../resources/svg/common.svg#item" x="432.861328125" y="551.513671875" id="object_38" class="item item-5" />
<use xlink:href="../resources/svg/common.svg#item" x="158.203125" y="527.34375" id="object_39" class="item item-5" />
<use xlink:href="../resources/svg/common.svg#item" x="-140.625" y="509.765625" id="object_40" class="item item-5" />
<use xlink:href="../resources/svg/common.svg#item" x="-24.169921875" y="-166.9921875" id="object_41" class="item item-5" />
<use xlink:href="../resources/svg/common.svg#item" x="-54.931640625" y="118.65234375" id="object_42" class="item item-5" />
<use xlink:href="../resources/svg/common.svg#item" x="364.74609375" y="-43.9453125" id="object_43" class="item item-5" />
<use xlink:href="../resources/svg/common.svg#item" x="516.357421875" y="101.07421875" id="object_44" class="item item-5" />
<use xlink:href="../resources/svg/common.svg#item" x="188.96484375" y="358.154296875" id="object_45" class="item item-3" />
<use xlink:href="../resources/svg/common.svg#item" x="474.609375" y="136.23046875" id="object_46" class="item item-3" />
<use xlink:href="../resources/svg/common.svg#item" x="-6.591796875" y="272.4609375" id="object_47" class="item item-1" />
<use xlink:href="../resources/svg/common.svg#item" x="-8.7890625" y="437.255859375" id="object_48" class="item item-1" />
<use xlink:href="../resources/svg/common.svg#item" x="105.46875" y="131.8359375" id="object_49" class="item item-1" />
<use xlink:href="../resources/svg/common.svg#item" x="322.998046875" y="4.39453125" id="object_50" class="item item-1" />
<use xlink:href="../resources/svg/common.svg#item" x="461.42578125" y="322.998046875" id="object_51" class="item item-2" />
<use xlink:href="../resources/svg/common.svg#item" x="366.943359375" y="138.427734375" id="object_52" class="item item-2" />
<use xlink:href="../resources/svg/common.svg#item" x="309.814453125" y="380.126953125" id="object_53" class="item item-2" />
<use xlink:href="../resources/svg/common.svg#item" x="-147.216796875" y="76.904296875" id="object_54" class="item item-2" />
<use xlink:href="../resources/svg/common.svg#item" x="-125.244140625" y="131.8359375" id="object_55" class="item item-2" />
<use xlink:href="../resources/svg/common.svg#item" x="580.078125" y="-142.822265625" id="object_56" class="item item-2" />
<use xlink:href="../resources/svg/common.svg#item" x="417.48046875" y="-153.80859375" id="object_57" class="item item-2" />
<use xlink:href="../resources/svg/common.svg#item" x="-61.5234375" y="608.642578125" id="object_58" class="item item-2" />
<use xlink:href="../resources/svg/common.svg#item" x="-74.70703125" y="421.875" id="object_59" class="item item-2" />
<use xlink:href="../resources/svg/common.svg#item" x="98.876953125" y="344.970703125" id="object_60" class="item item-2" />
<use xlink:href="../resources/svg/common.svg#item" x="331.0546875" y="257.8125" id="object_61" class="item item-23" />
<use xlink:href="../resources/svg/common.svg#item" x="297.8515625" y="128.90625" id="object_62" class="item item-23" />
<use xlink:href="../resources/svg/common.svg#item" x="200.1953125" y="124.0234375" id="object_63" class="item item-23" />
<use xlink:href="../resources/svg/common.svg#item" x="234.375" y="335.9375" id="object_64" class="item item-9" />
<use xlink:href="../resources/svg/common.svg#item" x="328.125" y="161.1328125" id="object_65" class="item item-9" />
<use xlink:href="../resources/svg/common.svg#item" x="133.7890625" y="301.7578125" id="object_66" class="item item-9" />
<use xlink:href="../resources/svg/common.svg#item" x="181.640625" y="331.0546875" id="object_67" class="item item-9" />
<use xlink:href="../resources/svg/common.svg#item" x="268.5546875" y="233.3984375" id="object_68" class="item item-8" />
<use xlink:href="../resources/svg/common.svg#item" x="239.2578125" y="76.171875" id="object_69" class="item item-22" />
<use xlink:href="../resources/svg/common.svg#item" x="74.21875" y="314.453125" id="object_70" class="item item-4" />
<use xlink:href="../resources/svg/common.svg#item" x="372.0703125" y="219.7265625" id="object_71" class="item item-6" />
<use xlink:href="../resources/svg/common.svg#item" x="288.0859375" y="86.9140625" id="object_72" class="item item-6" />
<use xlink:href="../resources/svg/common.svg#item" x="97.65625" y="284.1796875" id="object_73" class="item item-6" />
<use xlink:href="../resources/svg/common.svg#item" x="116.2109375" y="160.15625" id="object_74" class="item item-7" />
<use xlink:href="../resources/svg/common.svg#item" x="71.2890625" y="186.5234375" id="object_75" class="item item-7" />
<use xlink:href="../resources/svg/common.svg#item" x="183.59375" y="185.546875" id="object_76" class="item item-7" />
<use xlink:href="../resources/svg/common.svg#item" x="175.78125" y="233.3984375" id="object_77" class="item item-9" />
<use xlink:href="../resources/svg/common.svg#item" x="244.140625" y="228.515625" id="object_78" class="item item-9" />
<use xlink:href="../resources/svg/common.svg#item" x="129.8828125" y="-57.6171875" id="object_79" class="item item-8" />
<use xlink:href="../resources/svg/common.svg#item" x="-78.125" y="230.46875" id="object_80" class="item item-8" />
<use xlink:href="../resources/svg/common.svg#item" x="-2.9296875" y="547.8515625" id="object_81" class="item item-8" />
<use xlink:href="../resources/svg/common.svg#item" x="476.5625" y="-138.671875" id="object_82" class="item item-8" />
<!-- end group: "objects_item" -->
</g>
<g id="objects_player">
<use xlink:href="../resources/svg/common.svg#monster" x="-75.8056640625" y="4.94384765625" id="object_1" class="player" transform="rotate(87.890625 -75.8056640625 4.94384765625)" />
<use xlink:href="../resources/svg/common.svg#monster" x="87.158203125" y="517.547607421875" id="object_2" class="player" transform="rotate(349.453125 87.158203125 517.547607421875)" />
<use xlink:href="../resources/svg/common.svg#monster" x="449.066162109375" y="-80.74951171875" id="object_3" class="player" transform="rotate(177.890625 449.066162109375 -80.74951171875)" />
<use xlink:href="../resources/svg/common.svg#monster" x="580.078125" y="458.1298828125" id="object_4" class="player" transform="rotate(237.65625 580.078125 458.1298828125)" />
<use xlink:href="../resources/svg/common.svg#monster" x="430.11474609375" y="585.845947265625" id="object_5" class="player" transform="rotate(230.625 430.11474609375 585.845947265625)" />
<use xlink:href="../resources/svg/common.svg#monster" x="-93.93310546875" y="-154.083251953125" id="object_6" class="player" transform="rotate(357.890625 -93.93310546875 -154.083251953125)" />
<use xlink:href="../resources/svg/common.svg#monster" x="-147.491455078125" y="583.3740234375" id="object_7" class="player" transform="rotate(287.578125 -147.491455078125 583.3740234375)" />
<use xlink:href="../resources/svg/common.svg#monster" x="628.692626953125" y="65.093994140625" id="object_8" class="player" transform="rotate(176.484375 628.692626953125 65.093994140625)" />
<!-- end group: "objects_player" -->
</g>
<!-- end group: "objects" -->
</g>
<g id="panels">
<!-- end group: "panels" -->
</g>
<g id="annotations">
<text x="193.359375" y="242.1875" id="annotation_0" class="annotation">The Crown</text>
<text x="-105.46875" y="-144.53125" id="annotation_1" class="annotation">The Edge</text>
<text x="458.984375" y="-140.625" id="annotation_2" class="annotation">Smoothy Suzie</text>
<text x="-132.8125" y="615.234375" id="annotation_3" class="annotation">Bollinger's Cave</text>
<text x="412.109375" y="605.46875" id="annotation_4" class="annotation">Swihart's Revenge</text>
<!-- end group: "annotations" -->
</g>

<script xlink:href="../resources/js/level.js" ></script>
</svg>