<?xml version="1.0" encoding="UTF-8"?>
<!-- generated by map2svg: github.com/fracai/marathon-svg -->
<svg xmlns="http://www.w3.org/2000/svg" xmlns:xlink="http://www.w3.org/1999/xlink" version="1.1"
    viewBox="-171.875 281.25 1125.0 687.5">
<link xmlns="http://www.w3.org/1999/xhtml" rel="stylesheet" href="../resources/css/styles.css" type="text/css" />
<style id="dynamic-style" />
<g id="background-grid">
<defs>
<pattern id="grid_minor" width="3.125" height="3.125" patternUnits="userSpaceOnUse">
<path d="M 3.125 0 L 0 0 0 3.125" fill="none" class="grid_minor" />
</pattern>
<pattern id="grid_major" width="31.25" height="31.25" patternUnits="userSpaceOnUse">
<rect width="31.25" height="31.25" fill="url(#grid_minor)"/>
<path d="M 31.25 0 L 0 0 0 31.25" fill="none" class="grid_major" />
</pattern>
</defs>
<rect x="-1000" y="-1000" width="2000" height="2000" fill="url(#grid_major)" />
<line x1="0" y1="1000" x2="0" y2="-1000" class="grid_origin" />
<line x1="1000" y1="0" x2="-1000" y2="0" class="grid_origin" />
<!-- end group: "background-grid" -->
</g>
<g id="polygons">
<polygon points="312.5,343.75 500.0,343.75 437.5,562.5 375.0,562.5" id="poly_0" class="plain" />
<polygon points="343.75,593.75 375.0,562.5 437.5,562.5 468.75,593.75 468.75,656.25 437.5,687.5 375.0,687.5 343.75,656.25" id="poly_5" class="hill" />
<polygon points="375.0,687.5 437.5,687.5 500.0,906.25 312.5,906.25" id="poly_6" class="plain" />
<polygon points="500.0,343.75 687.56103515625,531.25 468.75,593.75 437.5,562.5" id="poly_1" class="plain" />
<polygon points="437.5,687.5 468.75,656.25 687.5,718.75 500.0,906.25" id="poly_2" class="plain" />
<polygon points="125.0,718.75 343.75,656.25 375.0,687.5 312.5,906.25" id="poly_3" class="plain" />
<polygon points="312.5,343.75 375.0,562.5 343.75,593.75 125.0,531.25" id="poly_4" class="plain" />
<polygon points="-78.125,500.0 -31.25,500.0 31.25,562.5 15.625,593.75" id="poly_8" class="plain" />
<polygon points="15.625,656.25 31.25,687.5 -31.25,750.0 -78.125,750.0" id="poly_9" class="plain" />
<polygon points="-15.625,421.875 0.0,421.875 0.0,437.5 -15.625,437.5" id="poly_12" class="teleporter" />
<polygon points="31.25,562.5 117.1875,562.5 117.1875,593.75 15.625,593.75" id="poly_13" class="plain" />
<polygon points="121.09375,562.5 125.0,562.5 125.0,593.75 121.09375,593.75" id="poly_15" class="plain" />
<polygon points="15.625,656.25 117.1875,656.25 117.1875,687.5 31.25,687.5" id="poly_20" class="plain" />
<polygon points="121.09375,656.25 125.0,656.25 125.0,687.5 121.09375,687.5" id="poly_22" class="plain" />
<polygon points="695.4345703125,562.5 781.25,562.5 796.875,593.75 695.343017578125,593.658447265625" id="poly_23" class="plain" />
<polygon points="687.56103515625,562.5 691.741943359375,562.5 691.741943359375,593.75 687.56103515625,593.6279296875" id="poly_25" class="plain" />
<polygon points="781.25,562.5 843.75,500.0 890.625,500.0 796.875,593.75" id="poly_26" class="plain" />
<polygon points="695.3125,656.25 796.875,656.25 781.25,687.5 695.3125,687.5" id="poly_27" class="plain" />
<polygon points="687.56103515625,656.25 691.40625,656.25 691.40625,687.5 687.56103515625,687.3779296875" id="poly_29" class="plain" />
<polygon points="781.25,687.5 796.875,656.25 890.625,750.0 843.75,750.0" id="poly_31" class="plain" />
<polygon points="796.875,812.5 812.5,812.5 812.5,828.125 796.875,828.125" id="poly_35" class="teleporter" />
<polygon points="-15.625,812.5 0.0,812.5 0.0,828.125 -15.625,828.125" id="poly_37" class="teleporter" />
<polygon points="-140.625,375.0 -93.75,359.375 -62.5,359.375 -15.625,375.0 -15.625,421.875 -15.625,437.5 -140.625,437.5" id="poly_10" class="plain" />
<polygon points="-140.625,437.5 -15.625,437.5 -15.625,468.75 -31.25,500.0 -78.125,500.0 -109.375,500.0 -140.625,468.75" id="poly_11" class="plain" />
<polygon points="-140.625,781.25 -109.375,750.0 -78.125,750.0 -31.25,750.0 -15.625,781.25 -15.625,812.5 -140.625,812.5" id="poly_18" class="plain" />
<polygon points="-140.625,812.5 -15.625,812.5 -15.625,828.125 -15.625,875.0 -62.5,890.625 -93.75,890.625 -140.625,875.0" id="poly_19" class="plain" />
<polygon points="843.75,343.75 890.625,343.75 921.875,375.0 921.875,468.75 890.625,500.0 843.75,500.0 812.5,468.75 812.5,375.0" id="poly_32" class="plain" />
<polygon points="812.5,781.25 843.75,750.0 890.625,750.0 921.875,781.25 921.875,875.0 812.5,828.125 812.5,812.5" id="poly_33" class="plain" />
<polygon points="812.5,828.125 921.875,875.0 906.25,906.25 843.75,906.25 812.5,875.0" id="poly_34" class="plain" />
<polygon points="125.0,656.25 125.0,593.75 125.0,562.5 125.0,531.25 343.75,593.75 343.75,656.25 125.0,718.75 125.0,687.5" id="poly_7" class="plain" />
<polygon points="468.75,656.25 468.75,593.75 687.56103515625,531.25 687.56103515625,562.5 687.56103515625,593.6279296875 687.56103515625,656.25 687.56103515625,687.3779296875 687.5,718.75" id="poly_30" class="plain" />
<polygon points="117.1875,562.5 121.09375,562.5 121.09375,593.75 117.1875,593.75" id="poly_14" class="platform" />
<polygon points="117.1875,656.25 121.09375,656.25 121.09375,687.5 117.1875,687.5" id="poly_21" class="platform" />
<polygon points="691.741943359375,562.5 695.4345703125,562.5 695.343017578125,593.658447265625 691.741943359375,593.75" id="poly_24" class="platform" />
<polygon points="691.40625,656.25 695.3125,656.25 695.3125,687.5 691.40625,687.5" id="poly_28" class="platform" />
<polygon points="296.875,312.5 515.625,312.5 500.0,343.75 312.5,343.75" id="poly_16" class="plain" />
<polygon points="500.0,343.75 515.625,312.5 718.75,515.625 687.56103515625,531.25" id="poly_17" class="plain" />
<polygon points="312.5,906.25 500.0,906.25 468.75,937.5 335.9375,937.5" id="poly_36" class="plain" />
<polygon points="296.875,312.5 312.5,343.75 125.0,531.25 93.75,515.625" id="poly_38" class="plain" />
<!-- end group: "polygons" -->
</g>
<g id="borders">
<g id="border_plain">
<line x1="437.5" y1="562.5" x2="375.0" y2="562.5" id="line_7" class="plain" />
<line x1="437.5" y1="687.5" x2="375.0" y2="687.5" id="line_11" class="plain" />
<line x1="515.625" y1="312.5" x2="500.0" y2="343.75" id="line_27" class="plain" />
<line x1="312.5" y1="343.75" x2="296.875" y2="312.5" id="line_28" class="plain" />
<line x1="31.25" y1="562.5" x2="15.625" y2="593.75" id="line_59" class="plain" />
<line x1="15.625" y1="656.25" x2="31.25" y2="687.5" id="line_60" class="plain" />
<line x1="-15.625" y1="437.5" x2="-140.625" y2="437.5" id="line_66" class="plain" />
<line x1="-15.625" y1="812.5" x2="-140.625" y2="812.5" id="line_76" class="plain" />
<line x1="781.25" y1="562.5" x2="796.875" y2="593.75" id="line_102" class="plain" />
<line x1="796.875" y1="656.25" x2="781.25" y2="687.5" id="line_103" class="plain" />
<line x1="921.875" y1="875.0" x2="812.5" y2="828.125" id="line_132" class="plain" />
<!-- end group: "border_plain" -->
</g>
<g id="border_ceiling">
<line x1="125.0" y1="593.75" x2="125.0" y2="562.5" id="line_32" class="ceiling" />
<line x1="125.0" y1="687.5" x2="125.0" y2="656.25" id="line_36" class="ceiling" />
<line x1="-78.125" y1="500.0" x2="-31.25" y2="500.0" id="line_58" class="ceiling" />
<line x1="-31.25" y1="750.0" x2="-78.125" y2="750.0" id="line_61" class="ceiling" />
<line x1="-15.625" y1="421.875" x2="-15.625" y2="437.5" id="line_64" class="ceiling" />
<line x1="-15.625" y1="812.5" x2="-15.625" y2="828.125" id="line_77" class="ceiling" />
<line x1="687.56103515625" y1="687.3779296875" x2="687.56103515625" y2="656.25" id="line_88" class="ceiling" />
<line x1="843.75" y1="500.0" x2="890.625" y2="500.0" id="line_101" class="ceiling" />
<line x1="890.625" y1="750.0" x2="843.75" y2="750.0" id="line_113" class="ceiling" />
<line x1="687.56103515625" y1="593.6279296875" x2="687.56103515625" y2="562.5" id="line_114" class="ceiling" />
<line x1="812.5" y1="828.125" x2="812.5" y2="812.5" id="line_130" class="ceiling" />
<!-- end group: "border_ceiling" -->
</g>
<g id="border_elevation">
<line x1="312.5" y1="343.75" x2="500.0" y2="343.75" id="line_0" class="elevation" />
<line x1="500.0" y1="343.75" x2="687.56103515625" y2="531.25" id="line_1" class="elevation" />
<line x1="125.0" y1="531.25" x2="312.5" y2="343.75" id="line_3" class="elevation" />
<line x1="468.75" y1="593.75" x2="468.75" y2="656.25" id="line_5" class="elevation" />
<line x1="468.75" y1="593.75" x2="437.5" y2="562.5" id="line_6" class="elevation" />
<line x1="375.0" y1="562.5" x2="343.75" y2="593.75" id="line_8" class="elevation" />
<line x1="343.75" y1="656.25" x2="343.75" y2="593.75" id="line_9" class="elevation" />
<line x1="343.75" y1="656.25" x2="375.0" y2="687.5" id="line_10" class="elevation" />
<line x1="437.5" y1="687.5" x2="468.75" y2="656.25" id="line_12" class="elevation" />
<line x1="500.0" y1="343.75" x2="437.5" y2="562.5" id="line_13" class="elevation" />
<line x1="687.56103515625" y1="531.25" x2="468.75" y2="593.75" id="line_14" class="elevation" />
<line x1="468.75" y1="656.25" x2="687.5" y2="718.75" id="line_15" class="elevation" />
<line x1="500.0" y1="906.25" x2="437.5" y2="687.5" id="line_16" class="elevation" />
<line x1="375.0" y1="687.5" x2="312.5" y2="906.25" id="line_17" class="elevation" />
<line x1="125.0" y1="718.75" x2="343.75" y2="656.25" id="line_18" class="elevation" />
<line x1="375.0" y1="562.5" x2="312.5" y2="343.75" id="line_19" class="elevation" />
<line x1="343.75" y1="593.75" x2="125.0" y2="531.25" id="line_20" class="elevation" />
<line x1="500.0" y1="906.25" x2="312.5" y2="906.25" id="line_21" class="elevation" />
<!-- end group: "border_elevation" -->
</g>
<g id="border_solid">
<line x1="687.5" y1="718.75" x2="500.0" y2="906.25" id="line_2" class="solid" />
<line x1="312.5" y1="906.25" x2="125.0" y2="718.75" id="line_4" class="solid" />
<line x1="687.56103515625" y1="531.25" x2="687.56103515625" y2="562.5" id="line_22" class="solid" />
<line x1="125.0" y1="531.25" x2="93.75" y2="515.625" id="line_23" class="solid" />
<line x1="296.875" y1="312.5" x2="515.625" y2="312.5" id="line_24" class="solid" />
<line x1="515.625" y1="312.5" x2="718.75" y2="515.625" id="line_25" class="solid" />
<line x1="718.75" y1="515.625" x2="687.56103515625" y2="531.25" id="line_26" class="solid" />
<line x1="125.0" y1="718.75" x2="125.0" y2="687.5" id="line_29" class="solid" />
<line x1="125.0" y1="562.5" x2="125.0" y2="531.25" id="line_30" class="solid" />
<line x1="31.25" y1="562.5" x2="117.1875" y2="562.5" id="line_31" class="solid" />
<line x1="125.0" y1="593.75" x2="121.09375" y2="593.75" id="line_33" class="solid" />
<line x1="125.0" y1="656.25" x2="125.0" y2="593.75" id="line_34" class="solid" />
<line x1="15.625" y1="656.25" x2="117.1875" y2="656.25" id="line_35" class="solid" />
<line x1="125.0" y1="687.5" x2="121.09375" y2="687.5" id="line_37" class="solid" />
<line x1="-78.125" y1="750.0" x2="15.625" y2="656.25" id="line_38" class="solid" />
<line x1="31.25" y1="687.5" x2="-31.25" y2="750.0" id="line_39" class="solid" />
<line x1="-31.25" y1="750.0" x2="-15.625" y2="781.25" id="line_40" class="solid" />
<line x1="-15.625" y1="781.25" x2="-15.625" y2="812.5" id="line_41" class="solid" />
<line x1="-15.625" y1="875.0" x2="-62.5" y2="890.625" id="line_42" class="solid" />
<line x1="-109.375" y1="750.0" x2="-78.125" y2="750.0" id="line_43" class="solid" />
<line x1="-140.625" y1="781.25" x2="-109.375" y2="750.0" id="line_44" class="solid" />
<line x1="-140.625" y1="812.5" x2="-140.625" y2="781.25" id="line_45" class="solid" />
<line x1="-93.75" y1="890.625" x2="-140.625" y2="875.0" id="line_46" class="solid" />
<line x1="-62.5" y1="890.625" x2="-93.75" y2="890.625" id="line_47" class="solid" />
<line x1="15.625" y1="593.75" x2="-78.125" y2="500.0" id="line_48" class="solid" />
<line x1="-31.25" y1="500.0" x2="31.25" y2="562.5" id="line_49" class="solid" />
<line x1="-78.125" y1="500.0" x2="-109.375" y2="500.0" id="line_50" class="solid" />
<line x1="-109.375" y1="500.0" x2="-140.625" y2="468.75" id="line_51" class="solid" />
<line x1="-140.625" y1="468.75" x2="-140.625" y2="437.5" id="line_52" class="solid" />
<line x1="-140.625" y1="375.0" x2="-93.75" y2="359.375" id="line_53" class="solid" />
<line x1="-93.75" y1="359.375" x2="-62.5" y2="359.375" id="line_54" class="solid" />
<line x1="-15.625" y1="468.75" x2="-31.25" y2="500.0" id="line_55" class="solid" />
<line x1="-15.625" y1="437.5" x2="-15.625" y2="468.75" id="line_56" class="solid" />
<line x1="-62.5" y1="359.375" x2="-15.625" y2="375.0" id="line_57" class="solid" />
<line x1="-15.625" y1="375.0" x2="-15.625" y2="421.875" id="line_62" class="solid" />
<line x1="-15.625" y1="421.875" x2="0.0" y2="421.875" id="line_63" class="solid" />
<line x1="-140.625" y1="437.5" x2="-140.625" y2="375.0" id="line_65" class="solid" />
<line x1="0.0" y1="437.5" x2="-15.625" y2="437.5" id="line_67" class="solid" />
<line x1="0.0" y1="421.875" x2="0.0" y2="437.5" id="line_68" class="solid" />
<line x1="121.09375" y1="562.5" x2="125.0" y2="562.5" id="line_69" class="solid" />
<line x1="121.09375" y1="593.75" x2="117.1875" y2="593.75" id="line_70" class="solid" />
<line x1="121.09375" y1="562.5" x2="121.09375" y2="593.75" id="line_71" class="solid" />
<line x1="117.1875" y1="562.5" x2="121.09375" y2="562.5" id="line_72" class="solid" />
<line x1="117.1875" y1="593.75" x2="15.625" y2="593.75" id="line_73" class="solid" />
<line x1="117.1875" y1="562.5" x2="117.1875" y2="593.75" id="line_74" class="solid" />
<line x1="-140.625" y1="875.0" x2="-140.625" y2="812.5" id="line_75" class="solid" />
<line x1="-15.625" y1="828.125" x2="-15.625" y2="875.0" id="line_78" class="solid" />
<line x1="121.09375" y1="687.5" x2="117.1875" y2="687.5" id="line_79" class="solid" />
<line x1="121.09375" y1="656.25" x2="125.0" y2="656.25" id="line_80" class="solid" />
<line x1="121.09375" y1="656.25" x2="121.09375" y2="687.5" id="line_81" class="solid" />
<line x1="117.1875" y1="687.5" x2="31.25" y2="687.5" id="line_82" class="solid" />
<line x1="117.1875" y1="656.25" x2="121.09375" y2="656.25" id="line_83" class="solid" />
<line x1="117.1875" y1="656.25" x2="117.1875" y2="687.5" id="line_84" class="solid" />
<line x1="687.56103515625" y1="562.5" x2="691.741943359375" y2="562.5" id="line_85" class="solid" />
<line x1="687.56103515625" y1="593.6279296875" x2="687.56103515625" y2="656.25" id="line_86" class="solid" />
<line x1="691.741943359375" y1="593.75" x2="687.56103515625" y2="593.6279296875" id="line_87" class="solid" />
<line x1="687.56103515625" y1="656.25" x2="691.40625" y2="656.25" id="line_89" class="solid" />
<line x1="687.56103515625" y1="687.3779296875" x2="687.5" y2="718.75" id="line_90" class="solid" />
<line x1="691.40625" y1="687.5" x2="687.56103515625" y2="687.3779296875" id="line_91" class="solid" />
<line x1="890.625" y1="500.0" x2="796.875" y2="593.75" id="line_92" class="solid" />
<line x1="781.25" y1="562.5" x2="843.75" y2="500.0" id="line_93" class="solid" />
<line x1="843.75" y1="500.0" x2="812.5" y2="468.75" id="line_94" class="solid" />
<line x1="812.5" y1="468.75" x2="812.5" y2="375.0" id="line_95" class="solid" />
<line x1="812.5" y1="375.0" x2="843.75" y2="343.75" id="line_96" class="solid" />
<line x1="843.75" y1="343.75" x2="890.625" y2="343.75" id="line_97" class="solid" />
<line x1="890.625" y1="343.75" x2="921.875" y2="375.0" id="line_98" class="solid" />
<line x1="921.875" y1="375.0" x2="921.875" y2="468.75" id="line_99" class="solid" />
<line x1="921.875" y1="468.75" x2="890.625" y2="500.0" id="line_100" class="solid" />
<line x1="796.875" y1="656.25" x2="890.625" y2="750.0" id="line_104" class="solid" />
<line x1="843.75" y1="750.0" x2="781.25" y2="687.5" id="line_105" class="solid" />
<line x1="812.5" y1="781.25" x2="843.75" y2="750.0" id="line_106" class="solid" />
<line x1="812.5" y1="875.0" x2="812.5" y2="828.125" id="line_107" class="solid" />
<line x1="843.75" y1="906.25" x2="812.5" y2="875.0" id="line_108" class="solid" />
<line x1="906.25" y1="906.25" x2="843.75" y2="906.25" id="line_109" class="solid" />
<line x1="921.875" y1="875.0" x2="906.25" y2="906.25" id="line_110" class="solid" />
<line x1="921.875" y1="781.25" x2="921.875" y2="875.0" id="line_111" class="solid" />
<line x1="890.625" y1="750.0" x2="921.875" y2="781.25" id="line_112" class="solid" />
<line x1="691.741943359375" y1="562.5" x2="695.4345703125" y2="562.5" id="line_115" class="solid" />
<line x1="695.343017578125" y1="593.658447265625" x2="691.741943359375" y2="593.75" id="line_116" class="solid" />
<line x1="691.741943359375" y1="593.75" x2="691.741943359375" y2="562.5" id="line_117" class="solid" />
<line x1="695.4345703125" y1="562.5" x2="781.25" y2="562.5" id="line_118" class="solid" />
<line x1="796.875" y1="593.75" x2="695.343017578125" y2="593.658447265625" id="line_119" class="solid" />
<line x1="695.343017578125" y1="593.658447265625" x2="695.4345703125" y2="562.5" id="line_120" class="solid" />
<line x1="691.40625" y1="656.25" x2="695.3125" y2="656.25" id="line_121" class="solid" />
<line x1="695.3125" y1="687.5" x2="691.40625" y2="687.5" id="line_122" class="solid" />
<line x1="691.40625" y1="687.5" x2="691.40625" y2="656.25" id="line_123" class="solid" />
<line x1="695.3125" y1="656.25" x2="796.875" y2="656.25" id="line_124" class="solid" />
<line x1="781.25" y1="687.5" x2="695.3125" y2="687.5" id="line_125" class="solid" />
<line x1="695.3125" y1="687.5" x2="695.3125" y2="656.25" id="line_126" class="solid" />
<line x1="812.5" y1="812.5" x2="812.5" y2="781.25" id="line_127" class="solid" />
<line x1="796.875" y1="812.5" x2="812.5" y2="812.5" id="line_128" class="solid" />
<line x1="796.875" y1="828.125" x2="796.875" y2="812.5" id="line_129" class="solid" />
<line x1="812.5" y1="828.125" x2="796.875" y2="828.125" id="line_131" class="solid" />
<line x1="335.9375" y1="937.5" x2="312.5" y2="906.25" id="line_133" class="solid" />
<line x1="468.75" y1="937.5" x2="335.9375" y2="937.5" id="line_134" class="solid" />
<line x1="500.0" y1="906.25" x2="468.75" y2="937.5" id="line_135" class="solid" />
<line x1="-15.625" y1="812.5" x2="0.0" y2="812.5" id="line_136" class="solid" />
<line x1="0.0" y1="812.5" x2="0.0" y2="828.125" id="line_137" class="solid" />
<line x1="0.0" y1="828.125" x2="-15.625" y2="828.125" id="line_138" class="solid" />
<line x1="93.75" y1="515.625" x2="296.875" y2="312.5" id="line_139" class="solid" />
<!-- end group: "border_solid" -->
</g>
<!-- end group: "borders" -->
</g>
<g id="poly_teleporter_lines">
<g id="panel_teleporter_lines_p12">
<g id="panel_teleporter_line_group_poly_p12_p16">
<line x1="-7.8125" y1="429.6875" x2="406.25" y2="328.125" id="panel_teleporter_border_p12_p16" class="teleporter_border" />
<use xlink:href="../resources/svg/common.svg#arrow" x="406.25" y="328.125" id="panel_teleporter_head_p12_p16" class="teleporter_line" transform="rotate(-13.781597235653624 406.25 328.125)" />
<line x1="-7.8125" y1="429.6875" x2="406.25" y2="328.125" id="panel_teleporter_line_p12_p16" class="teleporter_line" />
<!-- end group: "panel_teleporter_line_group_poly_p12_p16" -->
</g>
<!-- end group: "panel_teleporter_lines_p12" -->
</g>
<g id="panel_teleporter_lines_p35">
<g id="panel_teleporter_line_group_poly_p35_p17">
<line x1="804.6875" y1="820.3125" x2="605.46875" y2="425.78125" id="panel_teleporter_border_p35_p17" class="teleporter_border" />
<use xlink:href="../resources/svg/common.svg#arrow" x="605.46875" y="425.78125" id="panel_teleporter_head_p35_p17" class="teleporter_line" transform="rotate(-116.79151552941917 605.46875 425.78125)" />
<line x1="804.6875" y1="820.3125" x2="605.46875" y2="425.78125" id="panel_teleporter_line_p35_p17" class="teleporter_line" />
<!-- end group: "panel_teleporter_line_group_poly_p35_p17" -->
</g>
<!-- end group: "panel_teleporter_lines_p35" -->
</g>
<g id="panel_teleporter_lines_p37">
<g id="panel_teleporter_line_group_poly_p37_p36">
<line x1="-7.8125" y1="820.3125" x2="404.296875" y2="921.875" id="panel_teleporter_border_p37_p36" class="teleporter_border" />
<use xlink:href="../resources/svg/common.svg#arrow" x="404.296875" y="921.875" id="panel_teleporter_head_p37_p36" class="teleporter_line" transform="rotate(13.844405637315985 404.296875 921.875)" />
<line x1="-7.8125" y1="820.3125" x2="404.296875" y2="921.875" id="panel_teleporter_line_p37_p36" class="teleporter_line" />
<!-- end group: "panel_teleporter_line_group_poly_p37_p36" -->
</g>
<!-- end group: "panel_teleporter_lines_p37" -->
</g>
<!-- end group: "poly_teleporter_lines" -->
</g>
<g id="objects">
<g id="objects_sound">
<use xlink:href="../resources/svg/common.svg#sound" x="118.7744140625" y="578.06396484375" id="object_46" class="sound sound-0" />
<use xlink:href="../resources/svg/common.svg#sound" x="118.7744140625" y="673.33984375" id="object_47" class="sound sound-0" />
<use xlink:href="../resources/svg/common.svg#sound" x="692.56591796875" y="672.4853515625" id="object_48" class="sound sound-0" />
<use xlink:href="../resources/svg/common.svg#sound" x="692.9931640625" y="577.63671875" id="object_49" class="sound sound-0" />
<use xlink:href="../resources/svg/common.svg#sound" x="393.5546875" y="624.20654296875" id="object_50" class="sound sound-3" />
<!-- end group: "objects_sound" -->
</g>
<g id="objects_item">
<use xlink:href="../resources/svg/common.svg#item" x="411.62109375" y="401.3671875" id="object_0" class="item item-8" transform="rotate(92.8125 411.62109375 401.3671875)" />
<use xlink:href="../resources/svg/common.svg#item" x="379.39453125" y="590.33203125" id="object_1" class="item item-6" transform="rotate(54.84375 379.39453125 590.33203125)" />
<use xlink:href="../resources/svg/common.svg#item" x="364.74609375" y="609.375" id="object_2" class="item item-6" transform="rotate(345.9375 364.74609375 609.375)" />
<use xlink:href="../resources/svg/common.svg#item" x="383.7890625" y="654.78515625" id="object_3" class="item item-7" transform="rotate(345.9375 383.7890625 654.78515625)" />
<use xlink:href="../resources/svg/common.svg#item" x="418.9453125" y="663.57421875" id="object_4" class="item item-7" transform="rotate(345.9375 418.9453125 663.57421875)" />
<use xlink:href="../resources/svg/common.svg#item" x="437.5" y="625.0" id="object_5" class="item item-9" transform="rotate(345.9375 437.5 625.0)" />
<use xlink:href="../resources/svg/common.svg#item" x="411.62109375" y="597.65625" id="object_6" class="item item-9" transform="rotate(54.84375 411.62109375 597.65625)" />
<use xlink:href="../resources/svg/common.svg#item" x="406.31103515625" y="811.34033203125" id="object_7" class="item item-8" transform="rotate(180.0 406.31103515625 811.34033203125)" />
<use xlink:href="../resources/svg/common.svg#item" x="76.904296875" y="578.06396484375" id="object_10" class="item item-8" transform="rotate(270.0 76.904296875 578.06396484375)" />
<use xlink:href="../resources/svg/common.svg#item" x="79.4677734375" y="671.630859375" id="object_11" class="item item-8" transform="rotate(270.0 79.4677734375 671.630859375)" />
<use xlink:href="../resources/svg/common.svg#item" x="742.12646484375" y="671.630859375" id="object_12" class="item item-8" transform="rotate(270.0 742.12646484375 671.630859375)" />
<use xlink:href="../resources/svg/common.svg#item" x="745.9716796875" y="578.06396484375" id="object_13" class="item item-8" transform="rotate(270.0 745.9716796875 578.06396484375)" />
<use xlink:href="../resources/svg/common.svg#item" x="-101.5625" y="792.96875" id="object_16" class="item item-6" />
<use xlink:href="../resources/svg/common.svg#item" x="-62.5" y="793.9453125" id="object_17" class="item item-7" />
<use xlink:href="../resources/svg/common.svg#item" x="-81.0546875" y="809.5703125" id="object_18" class="item item-9" />
<use xlink:href="../resources/svg/common.svg#item" x="-96.6796875" y="425.78125" id="object_19" class="item item-6" />
<use xlink:href="../resources/svg/common.svg#item" x="-70.3125" y="428.7109375" id="object_20" class="item item-7" />
<use xlink:href="../resources/svg/common.svg#item" x="-83.0078125" y="449.21875" id="object_21" class="item item-9" />
<use xlink:href="../resources/svg/common.svg#item" x="845.703125" y="431.640625" id="object_22" class="item item-6" />
<use xlink:href="../resources/svg/common.svg#item" x="884.765625" y="433.59375" id="object_23" class="item item-7" />
<use xlink:href="../resources/svg/common.svg#item" x="870.1171875" y="451.171875" id="object_24" class="item item-9" />
<use xlink:href="../resources/svg/common.svg#item" x="862.60986328125" y="784.423828125" id="object_26" class="item item-2" transform="rotate(270.0 862.60986328125 784.423828125)" />
<use xlink:href="../resources/svg/common.svg#item" x="885.68115234375" y="802.3681640625" id="object_27" class="item item-4" transform="rotate(270.0 885.68115234375 802.3681640625)" />
<use xlink:href="../resources/svg/common.svg#item" x="863.8916015625" y="806.21337890625" id="object_28" class="item item-6" transform="rotate(270.0 863.8916015625 806.21337890625)" />
<use xlink:href="../resources/svg/common.svg#item" x="848.5107421875" y="794.677734375" id="object_29" class="item item-9" transform="rotate(270.0 848.5107421875 794.677734375)" />
<use xlink:href="../resources/svg/common.svg#item" x="872.86376953125" y="797.2412109375" id="object_30" class="item item-7" transform="rotate(270.0 872.86376953125 797.2412109375)" />
<use xlink:href="../resources/svg/common.svg#item" x="828.0029296875" y="708.80126953125" id="object_31" class="item item-5" transform="rotate(270.0 828.0029296875 708.80126953125)" />
<use xlink:href="../resources/svg/common.svg#item" x="831.84814453125" y="539.61181640625" id="object_32" class="item item-5" transform="rotate(270.0 831.84814453125 539.61181640625)" />
<use xlink:href="../resources/svg/common.svg#item" x="-6.40869140625" y="704.9560546875" id="object_33" class="item item-5" transform="rotate(333.28125 -6.40869140625 704.9560546875)" />
<use xlink:href="../resources/svg/common.svg#item" x="-8.97216796875" y="543.45703125" id="object_34" class="item item-5" transform="rotate(333.28125 -8.97216796875 543.45703125)" />
<use xlink:href="../resources/svg/common.svg#item" x="407.5927734375" y="920.2880859375" id="object_35" class="item item-3" transform="rotate(333.28125 407.5927734375 920.2880859375)" />
<use xlink:href="../resources/svg/common.svg#item" x="410.15625" y="328.125" id="object_36" class="item item-5" transform="rotate(333.28125 410.15625 328.125)" />
<use xlink:href="../resources/svg/common.svg#item" x="599.853515625" y="419.12841796875" id="object_37" class="item item-8" transform="rotate(333.28125 599.853515625 419.12841796875)" />
<use xlink:href="../resources/svg/common.svg#item" x="203.79638671875" y="624.20654296875" id="object_38" class="item item-5" transform="rotate(333.28125 203.79638671875 624.20654296875)" />
<use xlink:href="../resources/svg/common.svg#item" x="629.33349609375" y="621.64306640625" id="object_39" class="item item-5" transform="rotate(333.28125 629.33349609375 621.64306640625)" />
<use xlink:href="../resources/svg/common.svg#item" x="-85.14404296875" y="838.19580078125" id="object_40" class="item item-3" transform="rotate(333.28125 -85.14404296875 838.19580078125)" />
<use xlink:href="../resources/svg/common.svg#item" x="871.307373046875" y="403.961181640625" id="object_41" class="item item-3" transform="rotate(333.28125 871.307373046875 403.961181640625)" />
<use xlink:href="../resources/svg/common.svg#item" x="209.564208984375" y="421.69189453125" id="object_42" class="item item-3" transform="rotate(333.28125 209.564208984375 421.69189453125)" />
<use xlink:href="../resources/svg/common.svg#item" x="404.296875" y="626.953125" id="object_51" class="item item-27" />
<!-- end group: "objects_item" -->
</g>
<g id="objects_player">
<use xlink:href="../resources/svg/common.svg#monster" x="-78.125" y="371.09375" id="object_8" class="player" transform="rotate(90.0 -78.125 371.09375)" />
<use xlink:href="../resources/svg/common.svg#monster" x="-78.125" y="882.8125" id="object_9" class="player" transform="rotate(270.0 -78.125 882.8125)" />
<use xlink:href="../resources/svg/common.svg#monster" x="867.73681640625" y="355.04150390625" id="object_14" class="player" transform="rotate(90.0 867.73681640625 355.04150390625)" />
<use xlink:href="../resources/svg/common.svg#monster" x="695.98388671875" y="511.41357421875" id="object_15" class="player" transform="rotate(136.40625 695.98388671875 511.41357421875)" />
<use xlink:href="../resources/svg/common.svg#monster" x="870.30029296875" y="871.58203125" id="object_25" class="player" transform="rotate(270.0 870.30029296875 871.58203125)" />
<use xlink:href="../resources/svg/common.svg#monster" x="246.09375" y="462.890625" id="object_43" class="player" transform="rotate(45.703125 246.09375 462.890625)" />
<use xlink:href="../resources/svg/common.svg#monster" x="220.703125" y="734.375" id="object_44" class="player" transform="rotate(352.265625 220.703125 734.375)" />
<use xlink:href="../resources/svg/common.svg#monster" x="351.5625" y="927.734375" id="object_45" class="player" transform="rotate(333.984375 351.5625 927.734375)" />
<!-- end group: "objects_player" -->
</g>
<!-- end group: "objects" -->
</g>
<g id="panels">
<!-- end group: "panels" -->
</g>

<script xlink:href="../resources/js/level.js" ></script>
</svg>