<?xml version="1.0" encoding="UTF-8"?>
<!-- generated by map2svg: github.com/fracai/marathon-svg -->
<svg xmlns="http://www.w3.org/2000/svg" xmlns:xlink="http://www.w3.org/1999/xlink" version="1.1"
    viewBox="-742.1875 -584.716796875 1172.8515625 1250.48828125">
<link xmlns="http://www.w3.org/1999/xhtml" rel="stylesheet" href="../resources/css/styles.css" type="text/css" />
<style id="dynamic-style" />
<g id="background-grid">
<defs>
<pattern id="grid_minor" width="3.125" height="3.125" patternUnits="userSpaceOnUse">
<path d="M 3.125 0 L 0 0 0 3.125" fill="none" class="grid_minor" />
</pattern>
<pattern id="grid_major" width="31.25" height="31.25" patternUnits="userSpaceOnUse">
<rect width="31.25" height="31.25" fill="url(#grid_minor)"/>
<path d="M 31.25 0 L 0 0 0 31.25" fill="none" class="grid_major" />
</pattern>
</defs>
<rect x="-1000" y="-1000" width="2000" height="2000" fill="url(#grid_major)" />
<line x1="0" y1="1000" x2="0" y2="-1000" class="grid_origin" />
<line x1="1000" y1="0" x2="-1000" y2="0" class="grid_origin" />
<!-- end group: "background-grid" -->
</g>
<g id="polygons">
<polygon points="23.4375,-46.875 138.671875,-148.681640625 161.1328125,-28.564453125 78.125,31.25" id="poly_58" class="plain" />
<polygon points="111.81640625,-238.037109375 138.671875,-148.681640625 23.4375,-46.875 -42.96875,-109.375" id="poly_57" class="plain" />
<polygon points="-140.625,195.3125 -31.25,210.9375 -15.625,312.5 -97.65625,339.84375" id="poly_10" class="plain" />
<polygon points="80.56640625,-298.828125 111.81640625,-238.037109375 -42.96875,-109.375 -117.1875,-164.0625" id="poly_56" class="plain" />
<polygon points="-234.375,179.6875 -140.625,195.3125 -97.65625,339.84375 -195.3125,347.65625" id="poly_11" class="plain" />
<polygon points="44.921875,-351.806640625 80.56640625,-298.828125 -117.1875,-164.0625 -203.125,-203.125" id="poly_55" class="plain" />
<polygon points="-343.75,125.0 -234.375,179.6875 -195.3125,347.65625 -265.625,347.65625" id="poly_12" class="plain" />
<polygon points="3.90625,-406.73828125 44.921875,-351.806640625 -203.125,-203.125 -265.625,-226.5625" id="poly_54" class="plain" />
<polygon points="-425.78125,70.3125 -343.75,125.0 -265.625,347.65625 -328.125,343.75" id="poly_13" class="plain" />
<polygon points="-52.490234375,-448.486328125 3.90625,-406.73828125 -265.625,-226.5625 -343.75,-253.90625 -304.6875,-359.375" id="poly_53" class="plain" />
<polygon points="-488.28125,-3.90625 -425.78125,70.3125 -328.125,343.75 -406.25,324.21875" id="poly_14" class="plain" />
<polygon points="-597.65625,132.8125 -476.5625,300.78125 -550.78125,292.96875 -609.375,167.96875" id="poly_18" class="plain" />
<polygon points="-186.03515625,-498.779296875 -131.34765625,-506.591796875 -92.28515625,-483.154296875 -52.490234375,-448.486328125 -304.6875,-359.375 -335.9375,-429.6875" id="poly_59" class="plain" />
<polygon points="-597.65625,132.8125 -488.28125,-3.90625 -406.25,324.21875 -476.5625,300.78125" id="poly_114" class="plain" />
<polygon points="-617.1875,23.4375 -531.25,-70.3125 -488.28125,-3.90625 -597.65625,132.8125" id="poly_115" class="plain" />
<polygon points="-671.875,-195.3125 -632.8125,-132.8125 -632.8125,-78.125 -671.875,-85.9375" id="poly_27" class="plain" />
<polygon points="-671.875,-85.9375 -632.8125,-78.125 -617.1875,23.4375 -664.0625,15.625" id="poly_28" class="plain" />
<polygon points="-445.3125,-449.21875 -335.9375,-480.46875 -335.9375,-429.6875 -429.6875,-406.25" id="poly_45" class="plain" />
<polygon points="-445.3125,-449.21875 -429.6875,-406.25 -429.6875,-320.3125 -468.75,-304.6875 -507.8125,-335.9375 -539.0625,-375.0 -511.71875,-417.96875" id="poly_46" class="plain" />
<polygon points="-539.0625,-375.0 -507.8125,-335.9375 -585.9375,-234.375 -617.1875,-265.625" id="poly_47" class="plain" />
<polygon points="-671.875,-195.3125 -617.1875,-265.625 -585.9375,-234.375 -578.125,-195.3125 -608.642578125,-146.484375 -632.8125,-132.8125" id="poly_48" class="plain" />
<polygon points="-710.9375,214.84375 -625.0,246.09375 -656.25,316.40625 -699.21875,273.4375" id="poly_1" class="plain" />
<polygon points="-664.0625,15.625 -617.1875,23.4375 -597.65625,132.8125 -675.78125,66.40625" id="poly_15" class="plain" />
<polygon points="-675.78125,66.40625 -597.65625,132.8125 -609.375,167.96875 -707.03125,113.28125" id="poly_16" class="plain" />
<polygon points="-707.03125,113.28125 -609.375,167.96875 -625.0,246.09375 -710.9375,214.84375" id="poly_17" class="plain" />
<polygon points="-201.66015625,-545.654296875 -186.03515625,-498.779296875 -335.9375,-429.6875 -335.9375,-480.46875" id="poly_60" class="plain" />
<polygon points="-608.642578125,-146.484375 -578.125,-195.3125 -546.142578125,-169.921875 -585.205078125,-130.859375" id="poly_35" class="plain" />
<polygon points="-468.75,-304.6875 -429.6875,-320.3125 -411.865234375,-290.283203125 -456.54296875,-271.484375" id="poly_52" class="plain" />
<polygon points="-625.0,246.09375 -589.84375,300.78125 -605.46875,339.84375 -656.25,316.40625" id="poly_0" class="plain" />
<polygon points="-201.66015625,-545.654296875 -115.72265625,-553.466796875 -131.34765625,-506.591796875 -186.03515625,-498.779296875" id="poly_44" class="plain" />
<polygon points="-546.142578125,-169.921875 -523.4375,-132.8125 -562.5,-109.375 -585.205078125,-130.859375" id="poly_26" class="plain" />
<polygon points="-456.54296875,-271.484375 -411.865234375,-290.283203125 -390.625,-265.625 -421.875,-226.5625" id="poly_51" class="plain" />
<polygon points="-589.84375,300.78125 -550.78125,292.96875 -539.0625,359.375 -605.46875,339.84375" id="poly_2" class="plain" />
<polygon points="-115.72265625,-553.466796875 -45.41015625,-514.404296875 -92.28515625,-483.154296875 -131.34765625,-506.591796875" id="poly_43" class="plain" />
<polygon points="-523.4375,-132.8125 -492.1875,-101.5625 -531.25,-70.3125 -562.5,-109.375" id="poly_25" class="plain" />
<polygon points="-421.875,-226.5625 -359.375,-210.9375 -492.1875,-101.5625 -523.4375,-132.8125" id="poly_49" class="plain" />
<polygon points="-421.875,-226.5625 -390.625,-265.625 -343.75,-253.90625 -359.375,-210.9375" id="poly_50" class="plain" />
<polygon points="-550.78125,292.96875 -476.5625,300.78125 -460.9375,375.0 -539.0625,359.375" id="poly_3" class="plain" />
<polygon points="-45.41015625,-514.404296875 12.20703125,-476.318359375 -52.490234375,-448.486328125 -92.28515625,-483.154296875" id="poly_36" class="plain" />
<polygon points="-476.5625,300.78125 -406.25,324.21875 -398.4375,382.8125 -460.9375,375.0" id="poly_4" class="plain" />
<polygon points="-531.25,-70.3125 -492.1875,-101.5625 -453.125,-31.25 -488.28125,-3.90625" id="poly_24" class="plain" />
<polygon points="-343.75,-253.90625 -265.625,-226.5625 -281.25,-191.40625 -359.375,-210.9375" id="poly_34" class="plain" />
<polygon points="12.20703125,-476.318359375 66.40625,-422.36328125 3.90625,-406.73828125 -52.490234375,-448.486328125" id="poly_37" class="plain" />
<polygon points="-304.6875,-140.625 -281.25,-191.40625 -226.5625,-171.875 -304.6875,-113.28125" id="poly_107" class="plain" />
<polygon points="-453.125,-31.25 -410.15625,-31.25 -398.4375,0.0 -398.4375,42.96875" id="poly_113" class="plain" />
<polygon points="-406.25,324.21875 -328.125,343.75 -332.03125,394.53125 -398.4375,382.8125" id="poly_5" class="plain" />
<polygon points="-453.125,-31.25 -398.4375,42.96875 -425.78125,70.3125 -488.28125,-3.90625" id="poly_23" class="plain" />
<polygon points="-281.25,-191.40625 -265.625,-226.5625 -203.125,-203.125 -226.5625,-171.875" id="poly_33" class="plain" />
<polygon points="66.40625,-422.36328125 107.421875,-367.431640625 44.921875,-351.806640625 3.90625,-406.73828125" id="poly_38" class="plain" />
<polygon points="-304.6875,-140.625 -304.6875,-113.28125 -328.125,-113.28125 -332.03125,-140.625" id="poly_108" class="plain" />
<polygon points="-332.03125,-140.625 -328.125,-113.28125 -328.125,-78.125 -375.0,-97.65625" id="poly_109" class="plain" />
<polygon points="-375.0,-97.65625 -328.125,-78.125 -359.375,-46.875 -390.625,-82.03125" id="poly_110" class="plain" />
<polygon points="-390.625,-82.03125 -359.375,-46.875 -367.1875,-46.875 -390.625,-50.78125" id="poly_111" class="plain" />
<polygon points="-410.15625,-31.25 -390.625,-50.78125 -367.1875,-46.875 -398.4375,0.0" id="poly_112" class="plain" />
<polygon points="-328.125,343.75 -265.625,347.65625 -265.625,398.4375 -332.03125,394.53125" id="poly_6" class="plain" />
<polygon points="-398.4375,42.96875 -328.125,93.75 -343.75,125.0 -425.78125,70.3125" id="poly_22" class="plain" />
<polygon points="-226.5625,-171.875 -203.125,-203.125 -117.1875,-164.0625 -136.71875,-132.8125" id="poly_31" class="plain" />
<polygon points="107.421875,-367.431640625 143.06640625,-298.828125 80.56640625,-298.828125 44.921875,-351.806640625" id="poly_39" class="plain" />
<polygon points="-187.5,-125.0 -156.25,-125.0 -156.25,-93.75 -187.5,-93.75" id="poly_77" class="teleporter" />
<polygon points="-250.0,62.5 -218.75,62.5 -218.75,93.75 -250.0,93.75" id="poly_80" class="teleporter" />
<polygon points="-234.375,-15.625 -226.5625,-31.25 -156.25,-23.4375 -171.875,23.4375" id="poly_75" class="plain" />
<polygon points="-187.5,-93.75 -156.25,-93.75 -156.25,-23.4375 -226.5625,-31.25" id="poly_76" class="plain" />
<polygon points="-234.375,-93.75 -187.5,-93.75 -226.5625,-31.25 -234.375,-46.875" id="poly_78" class="plain" />
<polygon points="-281.25,7.8125 -250.0,-15.625 -234.375,-15.625 -171.875,23.4375 -218.75,62.5 -250.0,62.5 -281.25,23.4375" id="poly_79" class="plain" />
<polygon points="-296.875,31.25 -281.25,23.4375 -250.0,62.5 -296.875,62.5" id="poly_81" class="plain" />
<polygon points="-359.375,23.4375 -312.5,23.4375 -296.875,31.25 -296.875,62.5 -343.75,62.5" id="poly_82" class="plain" />
<polygon points="-257.8125,-31.25 -250.0,-15.625 -281.25,7.8125 -296.875,0.0" id="poly_85" class="plain" />
<polygon points="-328.125,-78.125 -250.0,-93.75 -250.0,-46.875 -257.8125,-31.25" id="poly_88" class="plain" />
<polygon points="-359.375,-46.875 -328.125,-78.125 -257.8125,-31.25 -296.875,0.0" id="poly_89" class="plain" />
<polygon points="-359.375,-46.875 -296.875,0.0 -312.5,7.8125 -359.375,7.8125" id="poly_90" class="plain" />
<polygon points="-265.625,410.15625 -195.3125,410.15625 -214.84375,449.21875 -246.09375,449.21875" id="poly_92" class="plain" />
<polygon points="-246.09375,449.21875 -214.84375,449.21875 -214.84375,496.09375 -246.09375,496.09375" id="poly_93" class="plain" />
<polygon points="-246.09375,496.09375 -214.84375,496.09375 -214.84375,527.34375 -246.09375,527.34375" id="poly_94" class="plain" />
<polygon points="-246.09375,527.34375 -214.84375,527.34375 -214.84375,562.5 -246.09375,562.5" id="poly_95" class="teleporter" />
<polygon points="-214.84375,496.09375 -183.59375,496.09375 -183.59375,527.34375 -214.84375,527.34375" id="poly_96" class="teleporter" />
<polygon points="-281.25,496.09375 -246.09375,496.09375 -246.09375,527.34375 -281.25,527.34375" id="poly_97" class="teleporter" />
<polygon points="-265.625,347.65625 -195.3125,347.65625 -195.3125,398.4375 -265.625,398.4375" id="poly_7" class="plain" />
<polygon points="-343.75,125.0 -328.125,93.75 -226.5625,140.625 -234.375,179.6875" id="poly_21" class="plain" />
<polygon points="-117.1875,-164.0625 -42.96875,-109.375 -66.40625,-85.9375 -136.71875,-132.8125" id="poly_32" class="plain" />
<polygon points="143.06640625,-298.828125 169.43359375,-225.09765625 111.81640625,-238.037109375 80.56640625,-298.828125" id="poly_40" class="plain" />
<polygon points="-312.5,7.8125 -296.875,0.0 -281.25,7.8125 -281.25,23.4375 -296.875,31.25 -312.5,23.4375" id="poly_83" class="teleporter" />
<polygon points="-359.375,7.8125 -312.5,7.8125 -312.5,23.4375 -359.375,23.4375" id="poly_84" class="plain" />
<polygon points="-257.8125,-31.25 -250.0,-46.875 -234.375,-46.875 -226.5625,-31.25 -234.375,-15.625 -250.0,-15.625" id="poly_86" class="teleporter" />
<polygon points="-250.0,-93.75 -234.375,-93.75 -234.375,-46.875 -250.0,-46.875" id="poly_87" class="plain" />
<polygon points="-195.3125,347.65625 -97.65625,339.84375 -93.75,390.625 -195.3125,398.4375" id="poly_8" class="plain" />
<polygon points="-234.375,179.6875 -226.5625,140.625 -132.8125,164.0625 -140.625,195.3125" id="poly_20" class="plain" />
<polygon points="-66.40625,-85.9375 -42.96875,-109.375 23.4375,-46.875 -3.90625,-23.4375" id="poly_30" class="plain" />
<polygon points="169.43359375,-225.09765625 196.2890625,-143.5546875 138.671875,-148.681640625 111.81640625,-238.037109375" id="poly_41" class="plain" />
<polygon points="-97.65625,339.84375 -15.625,312.5 0.0,375.0 -93.75,390.625" id="poly_9" class="plain" />
<polygon points="-140.625,195.3125 -132.8125,164.0625 -15.625,171.875 -31.25,210.9375" id="poly_19" class="plain" />
<polygon points="-3.90625,-23.4375 23.4375,-46.875 78.125,31.25 50.78125,58.59375" id="poly_29" class="plain" />
<polygon points="196.2890625,-143.5546875 218.75,-31.25 161.1328125,-28.564453125 138.671875,-148.681640625" id="poly_42" class="plain" />
<polygon points="-11.71875,214.84375 132.8125,296.875 97.65625,398.4375 50.78125,394.53125 19.53125,375.0" id="poly_67" class="hill" />
<polygon points="66.40625,70.3125 164.0625,-7.8125 203.125,117.1875 203.125,234.375 132.8125,296.875 -11.71875,214.84375" id="poly_68" class="hill" />
<polygon points="164.0625,-7.8125 223.480224609375,-19.8974609375 246.09375,-7.8125 285.15625,15.625 203.125,117.1875" id="poly_71" class="hill" />
<polygon points="-398.4375,382.8125 -332.03125,394.53125 -355.46875,437.5 -402.34375,417.96875" id="poly_61" class="plain" />
<polygon points="-460.9375,375.0 -398.4375,382.8125 -402.34375,417.96875 -453.125,425.78125" id="poly_62" class="plain" />
<polygon points="-31.25,210.9375 -11.71875,214.84375 19.53125,375.0 0.0,375.0 -15.625,312.5" id="poly_63" class="hill" />
<polygon points="50.78125,58.59375 66.40625,70.3125 -11.71875,214.84375 -31.25,210.9375 -15.625,171.875" id="poly_64" class="hill" />
<polygon points="78.125,31.25 161.1328125,-28.564453125 164.0625,-7.8125 66.40625,70.3125 50.78125,58.59375" id="poly_65" class="hill" />
<polygon points="161.1328125,-28.564453125 218.75,-31.25 223.480224609375,-19.8974609375 164.0625,-7.8125" id="poly_66" class="hill" />
<polygon points="-265.625,398.4375 -195.3125,398.4375 -195.3125,410.15625 -265.625,410.15625" id="poly_91" class="platform" />
<polygon points="88.8671875,454.1015625 101.5625,449.21875 125.0,457.03125 109.375,500.0 75.1953125,488.28125" id="poly_100" class="plain" />
<polygon points="148.4375,316.40625 175.78125,332.03125 125.0,457.03125 101.5625,449.21875" id="poly_101" class="plain" />
<polygon points="148.4375,316.40625 148.4375,304.6875 210.9375,253.90625 214.84375,289.0625 203.125,312.5 175.78125,332.03125" id="poly_102" class="plain" />
<polygon points="203.125,234.375 207.03125,242.1875 140.625,300.78125 132.8125,296.875" id="poly_104" class="plain" />
<polygon points="-19.805908203125,85.296630859375 0.0,58.59375 50.78125,58.59375 -15.625,171.875 -39.0625,121.09375 -27.374267578125,98.968505859375" id="poly_105" class="plain" />
<polygon points="289.0625,-78.125 324.21875,-58.59375 285.15625,15.625 246.09375,-7.8125" id="poly_72" class="plain" />
<polygon points="50.78125,394.53125 97.65625,398.4375 77.1484375,449.21875 62.5,484.375 19.53125,468.75" id="poly_98" class="plain" />
<polygon points="-26.947021484375,82.061767578125 -19.805908203125,85.296630859375 -27.374267578125,98.968505859375 -34.36279296875,95.458984375" id="poly_106" class="plain" />
<polygon points="77.1484375,449.21875 88.8671875,454.1015625 75.1953125,488.28125 62.5,484.375" id="poly_99" class="platform" />
<polygon points="207.03125,242.1875 210.9375,253.90625 148.4375,304.6875 140.625,300.78125" id="poly_103" class="platform" />
<polygon points="19.53125,468.75 62.5,484.375 31.25,554.6875 -11.71875,539.0625" id="poly_69" class="plain" />
<polygon points="330.810546875,-145.5078125 365.966796875,-125.9765625 324.21875,-58.59375 289.0625,-78.125" id="poly_73" class="plain" />
<polygon points="-11.71875,539.0625 31.25,554.6875 -2.685546875,634.521484375 -45.654296875,618.896484375" id="poly_70" class="plain" />
<polygon points="364.2578125,-208.49609375 399.4140625,-185.05859375 365.966796875,-125.9765625 330.810546875,-145.5078125" id="poly_74" class="plain" />
<!-- end group: "polygons" -->
</g>
<g id="borders">
<g id="border_plain">
<line x1="-406.25" y1="324.21875" x2="-488.28125" y2="-3.90625" id="line_35" class="plain" />
<line x1="-707.03125" y1="113.28125" x2="-609.375" y2="167.96875" id="line_44" class="plain" />
<line x1="-675.78125" y1="66.40625" x2="-597.65625" y2="132.8125" id="line_45" class="plain" />
<line x1="-597.65625" y1="132.8125" x2="-476.5625" y2="300.78125" id="line_50" class="plain" />
<line x1="-710.9375" y1="214.84375" x2="-625.0" y2="246.09375" id="line_53" class="plain" />
<line x1="-523.4375" y1="-132.8125" x2="-492.1875" y2="-101.5625" id="line_75" class="plain" />
<line x1="-632.8125" y1="-78.125" x2="-671.875" y2="-85.9375" id="line_83" class="plain" />
<line x1="-671.875" y1="-195.3125" x2="-632.8125" y2="-132.8125" id="line_84" class="plain" />
<line x1="-421.875" y1="-226.5625" x2="-359.375" y2="-210.9375" id="line_140" class="plain" />
<line x1="-585.9375" y1="-234.375" x2="-617.1875" y2="-265.625" id="line_142" class="plain" />
<line x1="-507.8125" y1="-335.9375" x2="-539.0625" y2="-375.0" id="line_146" class="plain" />
<line x1="-429.6875" y1="-406.25" x2="-445.3125" y2="-449.21875" id="line_169" class="plain" />
<line x1="-402.34375" y1="417.96875" x2="-398.4375" y2="382.8125" id="line_177" class="plain" />
<line x1="50.78125" y1="58.59375" x2="66.40625" y2="70.3125" id="line_184" class="plain" />
<line x1="161.1328125" y1="-28.564453125" x2="164.0625" y2="-7.8125" id="line_185" class="plain" />
<line x1="-31.25" y1="210.9375" x2="-11.71875" y2="214.84375" id="line_186" class="plain" />
<line x1="164.0625" y1="-7.8125" x2="203.125" y2="117.1875" id="line_187" class="plain" />
<line x1="-11.71875" y1="214.84375" x2="132.8125" y2="296.875" id="line_188" class="plain" />
<line x1="-250.0" y1="-46.875" x2="-234.375" y2="-46.875" id="line_223" class="plain" />
<line x1="-312.5" y1="23.4375" x2="-312.5" y2="7.8125" id="line_235" class="plain" />
<line x1="-296.875" y1="0.0" x2="-257.8125" y2="-31.25" id="line_244" class="plain" />
<line x1="-281.25" y1="7.8125" x2="-250.0" y2="-15.625" id="line_245" class="plain" />
<line x1="-296.875" y1="62.5" x2="-296.875" y2="31.25" id="line_247" class="plain" />
<line x1="-226.5625" y1="-31.25" x2="-156.25" y2="-23.4375" id="line_248" class="plain" />
<line x1="-171.875" y1="23.4375" x2="-234.375" y2="-15.625" id="line_249" class="plain" />
<line x1="-250.0" y1="62.5" x2="-281.25" y2="23.4375" id="line_250" class="plain" />
<line x1="-226.5625" y1="-31.25" x2="-187.5" y2="-93.75" id="line_251" class="plain" />
<line x1="-296.875" y1="0.0" x2="-359.375" y2="-46.875" id="line_252" class="plain" />
<line x1="-257.8125" y1="-31.25" x2="-328.125" y2="-78.125" id="line_253" class="plain" />
<line x1="-246.09375" y1="527.34375" x2="-246.09375" y2="496.09375" id="line_266" class="plain" />
<line x1="-214.84375" y1="527.34375" x2="-246.09375" y2="527.34375" id="line_270" class="plain" />
<line x1="-214.84375" y1="496.09375" x2="-214.84375" y2="527.34375" id="line_271" class="plain" />
<line x1="-214.84375" y1="496.09375" x2="-246.09375" y2="496.09375" id="line_272" class="plain" />
<line x1="-214.84375" y1="449.21875" x2="-246.09375" y2="449.21875" id="line_276" class="plain" />
<line x1="101.5625" y1="449.21875" x2="125.0" y2="457.03125" id="line_285" class="plain" />
<line x1="148.4375" y1="316.40625" x2="175.78125" y2="332.03125" id="line_298" class="plain" />
<line x1="-367.1875" y1="-46.875" x2="-390.625" y2="-50.78125" id="line_310" class="plain" />
<line x1="-328.125" y1="-113.28125" x2="-332.03125" y2="-140.625" id="line_319" class="plain" />
<line x1="-328.125" y1="-78.125" x2="-375.0" y2="-97.65625" id="line_321" class="plain" />
<line x1="-359.375" y1="-46.875" x2="-390.625" y2="-82.03125" id="line_322" class="plain" />
<line x1="-597.65625" y1="132.8125" x2="-488.28125" y2="-3.90625" id="line_324" class="plain" />
<!-- end group: "border_plain" -->
</g>
<g id="border_ceiling">
<line x1="-664.0625" y1="15.625" x2="-617.1875" y2="23.4375" id="line_41" class="ceiling" />
<line x1="-453.125" y1="-31.25" x2="-398.4375" y2="42.96875" id="line_71" class="ceiling" />
<line x1="-226.5625" y1="-171.875" x2="-281.25" y2="-191.40625" id="line_94" class="ceiling" />
<line x1="-335.9375" y1="-480.46875" x2="-335.9375" y2="-429.6875" id="line_163" class="ceiling" />
<line x1="-187.5" y1="-93.75" x2="-156.25" y2="-93.75" id="line_211" class="ceiling" />
<line x1="-218.75" y1="62.5" x2="-250.0" y2="62.5" id="line_216" class="ceiling" />
<!-- end group: "border_ceiling" -->
</g>
<g id="border_elevation">
<line x1="-15.625" y1="171.875" x2="-31.25" y2="210.9375" id="line_0" class="elevation" />
<line x1="-625.0" y1="246.09375" x2="-656.25" y2="316.40625" id="line_4" class="elevation" />
<line x1="-589.84375" y1="300.78125" x2="-605.46875" y2="339.84375" id="line_6" class="elevation" />
<line x1="-550.78125" y1="292.96875" x2="-539.0625" y2="359.375" id="line_8" class="elevation" />
<line x1="-398.4375" y1="382.8125" x2="-460.9375" y2="375.0" id="line_9" class="elevation" />
<line x1="-476.5625" y1="300.78125" x2="-460.9375" y2="375.0" id="line_10" class="elevation" />
<line x1="-332.03125" y1="394.53125" x2="-398.4375" y2="382.8125" id="line_11" class="elevation" />
<line x1="-406.25" y1="324.21875" x2="-398.4375" y2="382.8125" id="line_12" class="elevation" />
<line x1="-328.125" y1="343.75" x2="-332.03125" y2="394.53125" id="line_14" class="elevation" />
<line x1="-265.625" y1="347.65625" x2="-265.625" y2="398.4375" id="line_16" class="elevation" />
<line x1="-195.3125" y1="347.65625" x2="-195.3125" y2="398.4375" id="line_18" class="elevation" />
<line x1="-97.65625" y1="339.84375" x2="-93.75" y2="390.625" id="line_20" class="elevation" />
<line x1="-15.625" y1="312.5" x2="0.0" y2="375.0" id="line_21" class="elevation" />
<line x1="-140.625" y1="195.3125" x2="-31.25" y2="210.9375" id="line_24" class="elevation" />
<line x1="-31.25" y1="210.9375" x2="-15.625" y2="312.5" id="line_25" class="elevation" />
<line x1="-234.375" y1="179.6875" x2="-140.625" y2="195.3125" id="line_26" class="elevation" />
<line x1="-97.65625" y1="339.84375" x2="-140.625" y2="195.3125" id="line_27" class="elevation" />
<line x1="-343.75" y1="125.0" x2="-234.375" y2="179.6875" id="line_28" class="elevation" />
<line x1="-195.3125" y1="347.65625" x2="-234.375" y2="179.6875" id="line_29" class="elevation" />
<line x1="-425.78125" y1="70.3125" x2="-343.75" y2="125.0" id="line_30" class="elevation" />
<line x1="-265.625" y1="347.65625" x2="-343.75" y2="125.0" id="line_31" class="elevation" />
<line x1="-488.28125" y1="-3.90625" x2="-425.78125" y2="70.3125" id="line_32" class="elevation" />
<line x1="-328.125" y1="343.75" x2="-425.78125" y2="70.3125" id="line_33" class="elevation" />
<line x1="-488.28125" y1="-3.90625" x2="-531.25" y2="-70.3125" id="line_34" class="elevation" />
<line x1="-609.375" y1="167.96875" x2="-597.65625" y2="132.8125" id="line_46" class="elevation" />
<line x1="-617.1875" y1="23.4375" x2="-597.65625" y2="132.8125" id="line_49" class="elevation" />
<line x1="-550.78125" y1="292.96875" x2="-476.5625" y2="300.78125" id="line_56" class="elevation" />
<line x1="-476.5625" y1="300.78125" x2="-406.25" y2="324.21875" id="line_57" class="elevation" />
<line x1="-406.25" y1="324.21875" x2="-328.125" y2="343.75" id="line_58" class="elevation" />
<line x1="-328.125" y1="343.75" x2="-265.625" y2="347.65625" id="line_59" class="elevation" />
<line x1="-265.625" y1="347.65625" x2="-195.3125" y2="347.65625" id="line_60" class="elevation" />
<line x1="-195.3125" y1="347.65625" x2="-97.65625" y2="339.84375" id="line_61" class="elevation" />
<line x1="-97.65625" y1="339.84375" x2="-15.625" y2="312.5" id="line_62" class="elevation" />
<line x1="-140.625" y1="195.3125" x2="-132.8125" y2="164.0625" id="line_64" class="elevation" />
<line x1="-234.375" y1="179.6875" x2="-226.5625" y2="140.625" id="line_66" class="elevation" />
<line x1="-343.75" y1="125.0" x2="-328.125" y2="93.75" id="line_68" class="elevation" />
<line x1="-425.78125" y1="70.3125" x2="-398.4375" y2="42.96875" id="line_70" class="elevation" />
<line x1="-488.28125" y1="-3.90625" x2="-453.125" y2="-31.25" id="line_72" class="elevation" />
<line x1="-531.25" y1="-70.3125" x2="-492.1875" y2="-101.5625" id="line_74" class="elevation" />
<line x1="-562.5" y1="-109.375" x2="-523.4375" y2="-132.8125" id="line_76" class="elevation" />
<line x1="-608.642578125" y1="-146.484375" x2="-578.125" y2="-195.3125" id="line_80" class="elevation" />
<line x1="-585.205078125" y1="-130.859375" x2="-546.142578125" y2="-169.921875" id="line_82" class="elevation" />
<line x1="97.65625" y1="398.4375" x2="50.78125" y2="394.53125" id="line_87" class="elevation" />
<line x1="-15.625" y1="171.875" x2="50.78125" y2="58.59375" id="line_90" class="elevation" />
<line x1="78.125" y1="31.25" x2="50.78125" y2="58.59375" id="line_96" class="elevation" />
<line x1="23.4375" y1="-46.875" x2="78.125" y2="31.25" id="line_97" class="elevation" />
<line x1="-3.90625" y1="-23.4375" x2="23.4375" y2="-46.875" id="line_98" class="elevation" />
<line x1="-42.96875" y1="-109.375" x2="23.4375" y2="-46.875" id="line_99" class="elevation" />
<line x1="-66.40625" y1="-85.9375" x2="-42.96875" y2="-109.375" id="line_100" class="elevation" />
<line x1="-117.1875" y1="-164.0625" x2="-42.96875" y2="-109.375" id="line_101" class="elevation" />
<line x1="-117.1875" y1="-164.0625" x2="-136.71875" y2="-132.8125" id="line_102" class="elevation" />
<line x1="-203.125" y1="-203.125" x2="-117.1875" y2="-164.0625" id="line_103" class="elevation" />
<line x1="-226.5625" y1="-171.875" x2="-203.125" y2="-203.125" id="line_104" class="elevation" />
<line x1="-265.625" y1="-226.5625" x2="-203.125" y2="-203.125" id="line_105" class="elevation" />
<line x1="-281.25" y1="-191.40625" x2="-265.625" y2="-226.5625" id="line_106" class="elevation" />
<line x1="-343.75" y1="-253.90625" x2="-265.625" y2="-226.5625" id="line_107" class="elevation" />
<line x1="-359.375" y1="-210.9375" x2="-343.75" y2="-253.90625" id="line_108" class="elevation" />
<line x1="-92.28515625" y1="-483.154296875" x2="-131.34765625" y2="-506.591796875" id="line_109" class="elevation" />
<line x1="-52.490234375" y1="-448.486328125" x2="-92.28515625" y2="-483.154296875" id="line_110" class="elevation" />
<line x1="-92.28515625" y1="-483.154296875" x2="-45.41015625" y2="-514.404296875" id="line_111" class="elevation" />
<line x1="3.90625" y1="-406.73828125" x2="-52.490234375" y2="-448.486328125" id="line_112" class="elevation" />
<line x1="12.20703125" y1="-476.318359375" x2="-52.490234375" y2="-448.486328125" id="line_113" class="elevation" />
<line x1="44.921875" y1="-351.806640625" x2="3.90625" y2="-406.73828125" id="line_114" class="elevation" />
<line x1="66.40625" y1="-422.36328125" x2="3.90625" y2="-406.73828125" id="line_115" class="elevation" />
<line x1="80.56640625" y1="-298.828125" x2="44.921875" y2="-351.806640625" id="line_116" class="elevation" />
<line x1="107.421875" y1="-367.431640625" x2="44.921875" y2="-351.806640625" id="line_117" class="elevation" />
<line x1="111.81640625" y1="-238.037109375" x2="80.56640625" y2="-298.828125" id="line_118" class="elevation" />
<line x1="143.06640625" y1="-298.828125" x2="80.56640625" y2="-298.828125" id="line_119" class="elevation" />
<line x1="138.671875" y1="-148.681640625" x2="111.81640625" y2="-238.037109375" id="line_120" class="elevation" />
<line x1="169.43359375" y1="-225.09765625" x2="111.81640625" y2="-238.037109375" id="line_121" class="elevation" />
<line x1="161.1328125" y1="-28.564453125" x2="138.671875" y2="-148.681640625" id="line_122" class="elevation" />
<line x1="196.2890625" y1="-143.5546875" x2="138.671875" y2="-148.681640625" id="line_123" class="elevation" />
<line x1="218.75" y1="-31.25" x2="161.1328125" y2="-28.564453125" id="line_124" class="elevation" />
<line x1="161.1328125" y1="-28.564453125" x2="78.125" y2="31.25" id="line_132" class="elevation" />
<line x1="138.671875" y1="-148.681640625" x2="23.4375" y2="-46.875" id="line_133" class="elevation" />
<line x1="111.81640625" y1="-238.037109375" x2="-42.96875" y2="-109.375" id="line_134" class="elevation" />
<line x1="80.56640625" y1="-298.828125" x2="-117.1875" y2="-164.0625" id="line_135" class="elevation" />
<line x1="44.921875" y1="-351.806640625" x2="-203.125" y2="-203.125" id="line_136" class="elevation" />
<line x1="3.90625" y1="-406.73828125" x2="-265.625" y2="-226.5625" id="line_137" class="elevation" />
<line x1="-456.54296875" y1="-271.484375" x2="-411.865234375" y2="-290.283203125" id="line_150" class="elevation" />
<line x1="-429.6875" y1="-320.3125" x2="-468.75" y2="-304.6875" id="line_152" class="elevation" />
<line x1="-421.875" y1="-226.5625" x2="-390.625" y2="-265.625" id="line_155" class="elevation" />
<line x1="-186.03515625" y1="-498.779296875" x2="-201.66015625" y2="-545.654296875" id="line_164" class="elevation" />
<line x1="-131.34765625" y1="-506.591796875" x2="-186.03515625" y2="-498.779296875" id="line_165" class="elevation" />
<line x1="-131.34765625" y1="-506.591796875" x2="-115.72265625" y2="-553.466796875" id="line_168" class="elevation" />
<line x1="-304.6875" y1="-359.375" x2="-52.490234375" y2="-448.486328125" id="line_170" class="elevation" />
<line x1="-335.9375" y1="-429.6875" x2="-186.03515625" y2="-498.779296875" id="line_172" class="elevation" />
<line x1="203.125" y1="234.375" x2="132.8125" y2="296.875" id="line_175" class="elevation" />
<line x1="-11.71875" y1="214.84375" x2="19.53125" y2="375.0" id="line_180" class="elevation" />
<line x1="66.40625" y1="70.3125" x2="-11.71875" y2="214.84375" id="line_181" class="elevation" />
<line x1="164.0625" y1="-7.8125" x2="66.40625" y2="70.3125" id="line_182" class="elevation" />
<line x1="223.480224609375" y1="-19.8974609375" x2="164.0625" y2="-7.8125" id="line_183" class="elevation" />
<line x1="19.53125" y1="468.75" x2="62.5" y2="484.375" id="line_190" class="elevation" />
<line x1="31.25" y1="554.6875" x2="-11.71875" y2="539.0625" id="line_192" class="elevation" />
<line x1="246.09375" y1="-7.8125" x2="285.15625" y2="15.625" id="line_198" class="elevation" />
<line x1="289.0625" y1="-78.125" x2="324.21875" y2="-58.59375" id="line_201" class="elevation" />
<line x1="330.810546875" y1="-145.5078125" x2="365.966796875" y2="-125.9765625" id="line_204" class="elevation" />
<line x1="-250.0" y1="-46.875" x2="-250.0" y2="-93.75" id="line_222" class="elevation" />
<line x1="-234.375" y1="-46.875" x2="-234.375" y2="-93.75" id="line_225" class="elevation" />
<line x1="-257.8125" y1="-31.25" x2="-250.0" y2="-46.875" id="line_226" class="elevation" />
<line x1="-257.8125" y1="-31.25" x2="-250.0" y2="-15.625" id="line_227" class="elevation" />
<line x1="-250.0" y1="-15.625" x2="-234.375" y2="-15.625" id="line_228" class="elevation" />
<line x1="-234.375" y1="-15.625" x2="-226.5625" y2="-31.25" id="line_229" class="elevation" />
<line x1="-226.5625" y1="-31.25" x2="-234.375" y2="-46.875" id="line_230" class="elevation" />
<line x1="-296.875" y1="0.0" x2="-281.25" y2="7.8125" id="line_231" class="elevation" />
<line x1="-281.25" y1="23.4375" x2="-281.25" y2="7.8125" id="line_232" class="elevation" />
<line x1="-296.875" y1="31.25" x2="-281.25" y2="23.4375" id="line_233" class="elevation" />
<line x1="-312.5" y1="23.4375" x2="-296.875" y2="31.25" id="line_234" class="elevation" />
<line x1="-312.5" y1="7.8125" x2="-296.875" y2="0.0" id="line_236" class="elevation" />
<line x1="-359.375" y1="7.8125" x2="-312.5" y2="7.8125" id="line_237" class="elevation" />
<line x1="-359.375" y1="23.4375" x2="-312.5" y2="23.4375" id="line_239" class="elevation" />
<line x1="-359.375" y1="-46.875" x2="-328.125" y2="-78.125" id="line_243" class="elevation" />
<line x1="-27.374267578125" y1="98.968505859375" x2="-19.805908203125" y2="85.296630859375" id="line_300" class="elevation" />
<line x1="-398.4375" y1="0.0" x2="-410.15625" y2="-31.25" id="line_307" class="elevation" />
<line x1="-304.6875" y1="-113.28125" x2="-304.6875" y2="-140.625" id="line_318" class="elevation" />
<!-- end group: "border_elevation" -->
</g>
<g id="border_solid">
<line x1="50.78125" y1="58.59375" x2="-3.90625" y2="-23.4375" id="line_1" class="solid" />
<line x1="-605.46875" y1="339.84375" x2="-656.25" y2="316.40625" id="line_2" class="solid" />
<line x1="-656.25" y1="316.40625" x2="-699.21875" y2="273.4375" id="line_3" class="solid" />
<line x1="-539.0625" y1="359.375" x2="-605.46875" y2="339.84375" id="line_5" class="solid" />
<line x1="-460.9375" y1="375.0" x2="-539.0625" y2="359.375" id="line_7" class="solid" />
<line x1="-265.625" y1="398.4375" x2="-332.03125" y2="394.53125" id="line_13" class="solid" />
<line x1="-195.3125" y1="398.4375" x2="-265.625" y2="398.4375" id="line_15" class="solid" />
<line x1="-93.75" y1="390.625" x2="-195.3125" y2="398.4375" id="line_17" class="solid" />
<line x1="0.0" y1="375.0" x2="-93.75" y2="390.625" id="line_19" class="solid" />
<line x1="50.78125" y1="394.53125" x2="19.53125" y2="375.0" id="line_22" class="solid" />
<line x1="-699.21875" y1="273.4375" x2="-710.9375" y2="214.84375" id="line_23" class="solid" />
<line x1="-531.25" y1="-70.3125" x2="-562.5" y2="-109.375" id="line_36" class="solid" />
<line x1="-617.1875" y1="23.4375" x2="-531.25" y2="-70.3125" id="line_37" class="solid" />
<line x1="-608.642578125" y1="-146.484375" x2="-632.8125" y2="-132.8125" id="line_38" class="solid" />
<line x1="-664.0625" y1="15.625" x2="-671.875" y2="-85.9375" id="line_39" class="solid" />
<line x1="-675.78125" y1="66.40625" x2="-664.0625" y2="15.625" id="line_40" class="solid" />
<line x1="-707.03125" y1="113.28125" x2="-675.78125" y2="66.40625" id="line_42" class="solid" />
<line x1="-710.9375" y1="214.84375" x2="-707.03125" y2="113.28125" id="line_43" class="solid" />
<line x1="-609.375" y1="167.96875" x2="-625.0" y2="246.09375" id="line_47" class="solid" />
<line x1="-550.78125" y1="292.96875" x2="-609.375" y2="167.96875" id="line_48" class="solid" />
<line x1="-632.8125" y1="-78.125" x2="-617.1875" y2="23.4375" id="line_51" class="solid" />
<line x1="-632.8125" y1="-132.8125" x2="-632.8125" y2="-78.125" id="line_52" class="solid" />
<line x1="-625.0" y1="246.09375" x2="-589.84375" y2="300.78125" id="line_54" class="solid" />
<line x1="-589.84375" y1="300.78125" x2="-550.78125" y2="292.96875" id="line_55" class="solid" />
<line x1="-132.8125" y1="164.0625" x2="-15.625" y2="171.875" id="line_63" class="solid" />
<line x1="-226.5625" y1="140.625" x2="-132.8125" y2="164.0625" id="line_65" class="solid" />
<line x1="-328.125" y1="93.75" x2="-226.5625" y2="140.625" id="line_67" class="solid" />
<line x1="-398.4375" y1="42.96875" x2="-328.125" y2="93.75" id="line_69" class="solid" />
<line x1="-492.1875" y1="-101.5625" x2="-453.125" y2="-31.25" id="line_73" class="solid" />
<line x1="-546.142578125" y1="-169.921875" x2="-523.4375" y2="-132.8125" id="line_77" class="solid" />
<line x1="-578.125" y1="-195.3125" x2="-546.142578125" y2="-169.921875" id="line_78" class="solid" />
<line x1="-585.205078125" y1="-130.859375" x2="-608.642578125" y2="-146.484375" id="line_79" class="solid" />
<line x1="-562.5" y1="-109.375" x2="-585.205078125" y2="-130.859375" id="line_81" class="solid" />
<line x1="-671.875" y1="-85.9375" x2="-671.875" y2="-195.3125" id="line_85" class="solid" />
<line x1="132.8125" y1="296.875" x2="97.65625" y2="398.4375" id="line_86" class="solid" />
<line x1="-402.34375" y1="417.96875" x2="-453.125" y2="425.78125" id="line_88" class="solid" />
<line x1="-355.46875" y1="437.5" x2="-402.34375" y2="417.96875" id="line_89" class="solid" />
<line x1="-3.90625" y1="-23.4375" x2="-66.40625" y2="-85.9375" id="line_91" class="solid" />
<line x1="-66.40625" y1="-85.9375" x2="-136.71875" y2="-132.8125" id="line_92" class="solid" />
<line x1="-136.71875" y1="-132.8125" x2="-226.5625" y2="-171.875" id="line_93" class="solid" />
<line x1="-281.25" y1="-191.40625" x2="-359.375" y2="-210.9375" id="line_95" class="solid" />
<line x1="-45.41015625" y1="-514.404296875" x2="12.20703125" y2="-476.318359375" id="line_125" class="solid" />
<line x1="12.20703125" y1="-476.318359375" x2="66.40625" y2="-422.36328125" id="line_126" class="solid" />
<line x1="66.40625" y1="-422.36328125" x2="107.421875" y2="-367.431640625" id="line_127" class="solid" />
<line x1="107.421875" y1="-367.431640625" x2="143.06640625" y2="-298.828125" id="line_128" class="solid" />
<line x1="143.06640625" y1="-298.828125" x2="169.43359375" y2="-225.09765625" id="line_129" class="solid" />
<line x1="169.43359375" y1="-225.09765625" x2="196.2890625" y2="-143.5546875" id="line_130" class="solid" />
<line x1="196.2890625" y1="-143.5546875" x2="218.75" y2="-31.25" id="line_131" class="solid" />
<line x1="-359.375" y1="-210.9375" x2="-492.1875" y2="-101.5625" id="line_138" class="solid" />
<line x1="-523.4375" y1="-132.8125" x2="-421.875" y2="-226.5625" id="line_139" class="solid" />
<line x1="-671.875" y1="-195.3125" x2="-617.1875" y2="-265.625" id="line_141" class="solid" />
<line x1="-585.9375" y1="-234.375" x2="-578.125" y2="-195.3125" id="line_143" class="solid" />
<line x1="-617.1875" y1="-265.625" x2="-539.0625" y2="-375.0" id="line_144" class="solid" />
<line x1="-507.8125" y1="-335.9375" x2="-585.9375" y2="-234.375" id="line_145" class="solid" />
<line x1="-468.75" y1="-304.6875" x2="-507.8125" y2="-335.9375" id="line_147" class="solid" />
<line x1="-456.54296875" y1="-271.484375" x2="-468.75" y2="-304.6875" id="line_148" class="solid" />
<line x1="-421.875" y1="-226.5625" x2="-456.54296875" y2="-271.484375" id="line_149" class="solid" />
<line x1="-429.6875" y1="-320.3125" x2="-411.865234375" y2="-290.283203125" id="line_151" class="solid" />
<line x1="-411.865234375" y1="-290.283203125" x2="-390.625" y2="-265.625" id="line_153" class="solid" />
<line x1="-390.625" y1="-265.625" x2="-343.75" y2="-253.90625" id="line_154" class="solid" />
<line x1="-539.0625" y1="-375.0" x2="-511.71875" y2="-417.96875" id="line_156" class="solid" />
<line x1="-343.75" y1="-253.90625" x2="-304.6875" y2="-359.375" id="line_157" class="solid" />
<line x1="-304.6875" y1="-359.375" x2="-335.9375" y2="-429.6875" id="line_158" class="solid" />
<line x1="-335.9375" y1="-429.6875" x2="-429.6875" y2="-406.25" id="line_159" class="solid" />
<line x1="-429.6875" y1="-406.25" x2="-429.6875" y2="-320.3125" id="line_160" class="solid" />
<line x1="-511.71875" y1="-417.96875" x2="-445.3125" y2="-449.21875" id="line_161" class="solid" />
<line x1="-445.3125" y1="-449.21875" x2="-335.9375" y2="-480.46875" id="line_162" class="solid" />
<line x1="-201.66015625" y1="-545.654296875" x2="-115.72265625" y2="-553.466796875" id="line_166" class="solid" />
<line x1="-115.72265625" y1="-553.466796875" x2="-45.41015625" y2="-514.404296875" id="line_167" class="solid" />
<line x1="-335.9375" y1="-480.46875" x2="-201.66015625" y2="-545.654296875" id="line_171" class="solid" />
<line x1="218.75" y1="-31.25" x2="223.480224609375" y2="-19.8974609375" id="line_173" class="solid" />
<line x1="203.125" y1="117.1875" x2="203.125" y2="234.375" id="line_174" class="solid" />
<line x1="-332.03125" y1="394.53125" x2="-355.46875" y2="437.5" id="line_176" class="solid" />
<line x1="-453.125" y1="425.78125" x2="-460.9375" y2="375.0" id="line_178" class="solid" />
<line x1="19.53125" y1="375.0" x2="0.0" y2="375.0" id="line_179" class="solid" />
<line x1="19.53125" y1="468.75" x2="50.78125" y2="394.53125" id="line_189" class="solid" />
<line x1="-11.71875" y1="539.0625" x2="19.53125" y2="468.75" id="line_191" class="solid" />
<line x1="62.5" y1="484.375" x2="31.25" y2="554.6875" id="line_193" class="solid" />
<line x1="-45.654296875" y1="618.896484375" x2="-11.71875" y2="539.0625" id="line_194" class="solid" />
<line x1="-2.685546875" y1="634.521484375" x2="-45.654296875" y2="618.896484375" id="line_195" class="solid" />
<line x1="31.25" y1="554.6875" x2="-2.685546875" y2="634.521484375" id="line_196" class="solid" />
<line x1="223.480224609375" y1="-19.8974609375" x2="246.09375" y2="-7.8125" id="line_197" class="solid" />
<line x1="285.15625" y1="15.625" x2="203.125" y2="117.1875" id="line_199" class="solid" />
<line x1="246.09375" y1="-7.8125" x2="289.0625" y2="-78.125" id="line_200" class="solid" />
<line x1="324.21875" y1="-58.59375" x2="285.15625" y2="15.625" id="line_202" class="solid" />
<line x1="289.0625" y1="-78.125" x2="330.810546875" y2="-145.5078125" id="line_203" class="solid" />
<line x1="365.966796875" y1="-125.9765625" x2="324.21875" y2="-58.59375" id="line_205" class="solid" />
<line x1="330.810546875" y1="-145.5078125" x2="364.2578125" y2="-208.49609375" id="line_206" class="solid" />
<line x1="364.2578125" y1="-208.49609375" x2="399.4140625" y2="-185.05859375" id="line_207" class="solid" />
<line x1="399.4140625" y1="-185.05859375" x2="365.966796875" y2="-125.9765625" id="line_208" class="solid" />
<line x1="-156.25" y1="-23.4375" x2="-171.875" y2="23.4375" id="line_209" class="solid" />
<line x1="-156.25" y1="-93.75" x2="-156.25" y2="-23.4375" id="line_210" class="solid" />
<line x1="-187.5" y1="-93.75" x2="-187.5" y2="-125.0" id="line_212" class="solid" />
<line x1="-187.5" y1="-125.0" x2="-156.25" y2="-125.0" id="line_213" class="solid" />
<line x1="-156.25" y1="-125.0" x2="-156.25" y2="-93.75" id="line_214" class="solid" />
<line x1="-250.0" y1="93.75" x2="-250.0" y2="62.5" id="line_215" class="solid" />
<line x1="-218.75" y1="62.5" x2="-218.75" y2="93.75" id="line_217" class="solid" />
<line x1="-218.75" y1="93.75" x2="-250.0" y2="93.75" id="line_218" class="solid" />
<line x1="-171.875" y1="23.4375" x2="-218.75" y2="62.5" id="line_219" class="solid" />
<line x1="-234.375" y1="-93.75" x2="-187.5" y2="-93.75" id="line_220" class="solid" />
<line x1="-328.125" y1="-78.125" x2="-250.0" y2="-93.75" id="line_221" class="solid" />
<line x1="-250.0" y1="-93.75" x2="-234.375" y2="-93.75" id="line_224" class="solid" />
<line x1="-359.375" y1="23.4375" x2="-359.375" y2="7.8125" id="line_238" class="solid" />
<line x1="-250.0" y1="62.5" x2="-296.875" y2="62.5" id="line_240" class="solid" />
<line x1="-343.75" y1="62.5" x2="-359.375" y2="23.4375" id="line_241" class="solid" />
<line x1="-359.375" y1="7.8125" x2="-359.375" y2="-46.875" id="line_242" class="solid" />
<line x1="-296.875" y1="62.5" x2="-343.75" y2="62.5" id="line_246" class="solid" />
<line x1="0.0" y1="58.59375" x2="50.78125" y2="58.59375" id="line_254" class="solid" />
<line x1="-15.625" y1="171.875" x2="-39.0625" y2="121.09375" id="line_255" class="solid" />
<line x1="-265.625" y1="410.15625" x2="-265.625" y2="398.4375" id="line_256" class="solid" />
<line x1="-195.3125" y1="410.15625" x2="-265.625" y2="410.15625" id="line_257" class="solid" />
<line x1="-195.3125" y1="398.4375" x2="-195.3125" y2="410.15625" id="line_258" class="solid" />
<line x1="-246.09375" y1="449.21875" x2="-265.625" y2="410.15625" id="line_259" class="solid" />
<line x1="-195.3125" y1="410.15625" x2="-214.84375" y2="449.21875" id="line_260" class="solid" />
<line x1="-246.09375" y1="496.09375" x2="-246.09375" y2="449.21875" id="line_261" class="solid" />
<line x1="-214.84375" y1="449.21875" x2="-214.84375" y2="496.09375" id="line_262" class="solid" />
<line x1="-281.25" y1="496.09375" x2="-246.09375" y2="496.09375" id="line_263" class="solid" />
<line x1="-281.25" y1="527.34375" x2="-281.25" y2="496.09375" id="line_264" class="solid" />
<line x1="-246.09375" y1="527.34375" x2="-281.25" y2="527.34375" id="line_265" class="solid" />
<line x1="-246.09375" y1="562.5" x2="-246.09375" y2="527.34375" id="line_267" class="solid" />
<line x1="-214.84375" y1="562.5" x2="-246.09375" y2="562.5" id="line_268" class="solid" />
<line x1="-214.84375" y1="527.34375" x2="-214.84375" y2="562.5" id="line_269" class="solid" />
<line x1="-214.84375" y1="496.09375" x2="-183.59375" y2="496.09375" id="line_273" class="solid" />
<line x1="-183.59375" y1="496.09375" x2="-183.59375" y2="527.34375" id="line_274" class="solid" />
<line x1="-183.59375" y1="527.34375" x2="-214.84375" y2="527.34375" id="line_275" class="solid" />
<line x1="97.65625" y1="398.4375" x2="77.1484375" y2="449.21875" id="line_277" class="solid" />
<line x1="77.1484375" y1="449.21875" x2="62.5" y2="484.375" id="line_278" class="solid" />
<line x1="77.1484375" y1="449.21875" x2="88.8671875" y2="454.1015625" id="line_279" class="solid" />
<line x1="88.8671875" y1="454.1015625" x2="75.1953125" y2="488.28125" id="line_280" class="solid" />
<line x1="75.1953125" y1="488.28125" x2="62.5" y2="484.375" id="line_281" class="solid" />
<line x1="109.375" y1="500.0" x2="75.1953125" y2="488.28125" id="line_282" class="solid" />
<line x1="125.0" y1="457.03125" x2="109.375" y2="500.0" id="line_283" class="solid" />
<line x1="88.8671875" y1="454.1015625" x2="101.5625" y2="449.21875" id="line_284" class="solid" />
<line x1="203.125" y1="234.375" x2="207.03125" y2="242.1875" id="line_286" class="solid" />
<line x1="140.625" y1="300.78125" x2="207.03125" y2="242.1875" id="line_287" class="solid" />
<line x1="140.625" y1="300.78125" x2="132.8125" y2="296.875" id="line_288" class="solid" />
<line x1="207.03125" y1="242.1875" x2="210.9375" y2="253.90625" id="line_289" class="solid" />
<line x1="148.4375" y1="304.6875" x2="210.9375" y2="253.90625" id="line_290" class="solid" />
<line x1="148.4375" y1="304.6875" x2="140.625" y2="300.78125" id="line_291" class="solid" />
<line x1="210.9375" y1="253.90625" x2="214.84375" y2="289.0625" id="line_292" class="solid" />
<line x1="214.84375" y1="289.0625" x2="203.125" y2="312.5" id="line_293" class="solid" />
<line x1="203.125" y1="312.5" x2="175.78125" y2="332.03125" id="line_294" class="solid" />
<line x1="148.4375" y1="316.40625" x2="148.4375" y2="304.6875" id="line_295" class="solid" />
<line x1="101.5625" y1="449.21875" x2="148.4375" y2="316.40625" id="line_296" class="solid" />
<line x1="175.78125" y1="332.03125" x2="125.0" y2="457.03125" id="line_297" class="solid" />
<line x1="-39.0625" y1="121.09375" x2="-27.374267578125" y2="98.968505859375" id="line_299" class="solid" />
<line x1="-19.805908203125" y1="85.296630859375" x2="0.0" y2="58.59375" id="line_301" class="solid" />
<line x1="-26.947021484375" y1="82.061767578125" x2="-19.805908203125" y2="85.296630859375" id="line_302" class="solid" />
<line x1="-27.374267578125" y1="98.968505859375" x2="-34.36279296875" y2="95.458984375" id="line_303" class="solid" />
<line x1="-34.36279296875" y1="95.458984375" x2="-26.947021484375" y2="82.061767578125" id="line_304" class="solid" />
<line x1="-453.125" y1="-31.25" x2="-410.15625" y2="-31.25" id="line_305" class="solid" />
<line x1="-398.4375" y1="0.0" x2="-398.4375" y2="42.96875" id="line_306" class="solid" />
<line x1="-367.1875" y1="-46.875" x2="-398.4375" y2="0.0" id="line_308" class="solid" />
<line x1="-359.375" y1="-46.875" x2="-367.1875" y2="-46.875" id="line_309" class="solid" />
<line x1="-410.15625" y1="-31.25" x2="-390.625" y2="-50.78125" id="line_311" class="solid" />
<line x1="-328.125" y1="-113.28125" x2="-328.125" y2="-78.125" id="line_312" class="solid" />
<line x1="-390.625" y1="-50.78125" x2="-390.625" y2="-82.03125" id="line_313" class="solid" />
<line x1="-332.03125" y1="-140.625" x2="-304.6875" y2="-140.625" id="line_314" class="solid" />
<line x1="-304.6875" y1="-140.625" x2="-281.25" y2="-191.40625" id="line_315" class="solid" />
<line x1="-304.6875" y1="-113.28125" x2="-328.125" y2="-113.28125" id="line_316" class="solid" />
<line x1="-226.5625" y1="-171.875" x2="-304.6875" y2="-113.28125" id="line_317" class="solid" />
<line x1="-390.625" y1="-82.03125" x2="-375.0" y2="-97.65625" id="line_320" class="solid" />
<line x1="-375.0" y1="-97.65625" x2="-332.03125" y2="-140.625" id="line_323" class="solid" />
<!-- end group: "border_solid" -->
</g>
<!-- end group: "borders" -->
</g>
<g id="poly_teleporter_lines">
<g id="panel_teleporter_lines_p77">
<g id="panel_teleporter_line_group_poly_p77_p70">
<line x1="-171.875" y1="-109.375" x2="-7.2021484375" y2="586.7919921875" id="panel_teleporter_border_p77_p70" class="teleporter_border" />
<use xlink:href="../resources/svg/common.svg#arrow" x="-7.2021484375" y="586.7919921875" id="panel_teleporter_head_p77_p70" class="teleporter_line" transform="rotate(76.69174203591005 -7.2021484375 586.7919921875)" />
<line x1="-171.875" y1="-109.375" x2="-7.2021484375" y2="586.7919921875" id="panel_teleporter_line_p77_p70" class="teleporter_line" />
<!-- end group: "panel_teleporter_line_group_poly_p77_p70" -->
</g>
<!-- end group: "panel_teleporter_lines_p77" -->
</g>
<g id="panel_teleporter_lines_p80">
<g id="panel_teleporter_line_group_poly_p80_p74">
<line x1="-234.375" y1="78.125" x2="365.1123046875" y2="-166.259765625" id="panel_teleporter_border_p80_p74" class="teleporter_border" />
<use xlink:href="../resources/svg/common.svg#arrow" x="365.1123046875" y="-166.259765625" id="panel_teleporter_head_p80_p74" class="teleporter_line" transform="rotate(-22.178574336658432 365.1123046875 -166.259765625)" />
<line x1="-234.375" y1="78.125" x2="365.1123046875" y2="-166.259765625" id="panel_teleporter_line_p80_p74" class="teleporter_line" />
<!-- end group: "panel_teleporter_line_group_poly_p80_p74" -->
</g>
<!-- end group: "panel_teleporter_lines_p80" -->
</g>
<g id="panel_teleporter_lines_p83">
<g id="panel_teleporter_line_group_poly_p83_p73">
<line x1="-296.875" y1="15.625" x2="327.5146484375" y2="-102.05078125" id="panel_teleporter_border_p83_p73" class="teleporter_border" />
<use xlink:href="../resources/svg/common.svg#arrow" x="327.5146484375" y="-102.05078125" id="panel_teleporter_head_p83_p73" class="teleporter_line" transform="rotate(-10.67307506171402 327.5146484375 -102.05078125)" />
<line x1="-296.875" y1="15.625" x2="327.5146484375" y2="-102.05078125" id="panel_teleporter_line_p83_p73" class="teleporter_line" />
<!-- end group: "panel_teleporter_line_group_poly_p83_p73" -->
</g>
<!-- end group: "panel_teleporter_lines_p83" -->
</g>
<g id="panel_teleporter_lines_p86">
<g id="panel_teleporter_line_group_poly_p86_p69">
<line x1="-242.1875" y1="-31.25" x2="25.390625" y2="511.71875" id="panel_teleporter_border_p86_p69" class="teleporter_border" />
<use xlink:href="../resources/svg/common.svg#arrow" x="25.390625" y="511.71875" id="panel_teleporter_head_p86_p69" class="teleporter_line" transform="rotate(63.765656720388705 25.390625 511.71875)" />
<line x1="-242.1875" y1="-31.25" x2="25.390625" y2="511.71875" id="panel_teleporter_line_p86_p69" class="teleporter_line" />
<!-- end group: "panel_teleporter_line_group_poly_p86_p69" -->
</g>
<!-- end group: "panel_teleporter_lines_p86" -->
</g>
<g id="panel_teleporter_lines_p95">
<g id="panel_teleporter_line_group_poly_p95_p105">
<line x1="-230.46875" y1="544.921875" x2="-8.514404296875" y2="99.06005859375" id="panel_teleporter_border_p95_p105" class="teleporter_border" />
<use xlink:href="../resources/svg/common.svg#arrow" x="-8.514404296875" y="99.06005859375" id="panel_teleporter_head_p95_p105" class="teleporter_line" transform="rotate(-63.53543182320735 -8.514404296875 99.06005859375)" />
<line x1="-230.46875" y1="544.921875" x2="-8.514404296875" y2="99.06005859375" id="panel_teleporter_line_p95_p105" class="teleporter_line" />
<!-- end group: "panel_teleporter_line_group_poly_p95_p105" -->
</g>
<!-- end group: "panel_teleporter_lines_p95" -->
</g>
<g id="panel_teleporter_lines_p96">
<g id="panel_teleporter_line_group_poly_p96_p60">
<line x1="-199.21875" y1="511.71875" x2="-264.892578125" y2="-488.6474609375" id="panel_teleporter_border_p96_p60" class="teleporter_border" />
<use xlink:href="../resources/svg/common.svg#arrow" x="-264.892578125" y="-488.6474609375" id="panel_teleporter_head_p96_p60" class="teleporter_line" transform="rotate(-93.75606579520979 -264.892578125 -488.6474609375)" />
<line x1="-199.21875" y1="511.71875" x2="-264.892578125" y2="-488.6474609375" id="panel_teleporter_line_p96_p60" class="teleporter_line" />
<!-- end group: "panel_teleporter_line_group_poly_p96_p60" -->
</g>
<!-- end group: "panel_teleporter_lines_p96" -->
</g>
<g id="panel_teleporter_lines_p97">
<g id="panel_teleporter_line_group_poly_p97_p22">
<line x1="-263.671875" y1="511.71875" x2="-374.0234375" y2="83.0078125" id="panel_teleporter_border_p97_p22" class="teleporter_border" />
<use xlink:href="../resources/svg/common.svg#arrow" x="-374.0234375" y="83.0078125" id="panel_teleporter_head_p97_p22" class="teleporter_line" transform="rotate(-104.4347630624089 -374.0234375 83.0078125)" />
<line x1="-263.671875" y1="511.71875" x2="-374.0234375" y2="83.0078125" id="panel_teleporter_line_p97_p22" class="teleporter_line" />
<!-- end group: "panel_teleporter_line_group_poly_p97_p22" -->
</g>
<!-- end group: "panel_teleporter_lines_p97" -->
</g>
<!-- end group: "poly_teleporter_lines" -->
</g>
<g id="objects">
<g id="objects_sound">
<use xlink:href="../resources/svg/common.svg#sound" x="130.859375" y="7.8125" id="object_47" class="sound sound-2" />
<use xlink:href="../resources/svg/common.svg#sound" x="-9.765625" y="273.4375" id="object_48" class="sound sound-2" />
<use xlink:href="../resources/svg/common.svg#sound" x="7.8125" y="115.234375" id="object_49" class="sound sound-2" />
<use xlink:href="../resources/svg/common.svg#sound" x="191.40625" y="283.203125" id="object_50" class="sound sound-2" />
<use xlink:href="../resources/svg/common.svg#sound" x="68.359375" y="406.25" id="object_51" class="sound sound-2" />
<!-- end group: "objects_sound" -->
</g>
<g id="objects_item">
<use xlink:href="../resources/svg/common.svg#item" x="-243.194580078125" y="-32.073974609375" id="object_1" class="item item-8" />
<use xlink:href="../resources/svg/common.svg#item" x="-243.22509765625" y="-32.135009765625" id="object_2" class="item item-3" />
<use xlink:href="../resources/svg/common.svg#item" x="-243.10302734375" y="-32.1044921875" id="object_3" class="item item-5" />
<use xlink:href="../resources/svg/common.svg#item" x="-297.7294921875" y="16.05224609375" id="object_4" class="item item-15" />
<use xlink:href="../resources/svg/common.svg#item" x="-297.760009765625" y="16.05224609375" id="object_5" class="item item-22" />
<use xlink:href="../resources/svg/common.svg#item" x="-297.760009765625" y="16.05224609375" id="object_6" class="item item-5" />
<use xlink:href="../resources/svg/common.svg#item" x="-297.760009765625" y="16.05224609375" id="object_7" class="item item-8" />
<use xlink:href="../resources/svg/common.svg#item" x="-243.072509765625" y="-32.2265625" id="object_8" class="item item-22" />
<use xlink:href="../resources/svg/common.svg#item" x="-257.080078125" y="-204.345703125" id="object_9" class="item item-5" />
<use xlink:href="../resources/svg/common.svg#item" x="-46.142578125" y="-481.201171875" id="object_10" class="item item-8" />
<use xlink:href="../resources/svg/common.svg#item" x="-564.697265625" y="324.462890625" id="object_11" class="item item-8" />
<use xlink:href="../resources/svg/common.svg#item" x="-431.7626953125" y="402.099609375" id="object_12" class="item item-11" />
<use xlink:href="../resources/svg/common.svg#item" x="-362.548828125" y="411.9873046875" id="object_13" class="item item-21" />
<use xlink:href="../resources/svg/common.svg#item" x="339.4775390625" y="-128.5400390625" id="object_14" class="item item-21" />
<use xlink:href="../resources/svg/common.svg#item" x="13.18359375" y="533.935546875" id="object_15" class="item item-21" />
<use xlink:href="../resources/svg/common.svg#item" x="177.978515625" y="217.529296875" id="object_16" class="item item-20" />
<use xlink:href="../resources/svg/common.svg#item" x="16.4794921875" y="131.8359375" id="object_17" class="item item-22" />
<use xlink:href="../resources/svg/common.svg#item" x="102.1728515625" y="177.978515625" id="object_18" class="item item-22" />
<use xlink:href="../resources/svg/common.svg#item" x="-451.5380859375" y="9.8876953125" id="object_19" class="item item-22" />
<use xlink:href="../resources/svg/common.svg#item" x="-675.47607421875" y="116.63818359375" id="object_20" class="item item-3" />
<use xlink:href="../resources/svg/common.svg#item" x="-454.1015625" y="-162.59765625" id="object_21" class="item item-15" />
<use xlink:href="../resources/svg/common.svg#item" x="349.609375" y="-120.1171875" id="object_30" class="item item-5" />
<use xlink:href="../resources/svg/common.svg#item" x="25.390625" y="539.0625" id="object_31" class="item item-5" />
<use xlink:href="../resources/svg/common.svg#item" x="-18.5546875" y="618.1640625" id="object_32" class="item item-22" />
<use xlink:href="../resources/svg/common.svg#item" x="45.257568359375" y="470.306396484375" id="object_33" class="item item-22" />
<use xlink:href="../resources/svg/common.svg#item" x="302.734375" y="-65.4296875" id="object_34" class="item item-22" />
<use xlink:href="../resources/svg/common.svg#item" x="382.8125" y="-188.4765625" id="object_35" class="item item-22" />
<use xlink:href="../resources/svg/common.svg#item" x="-6.317138671875" y="94.757080078125" id="object_44" class="item item-3" />
<use xlink:href="../resources/svg/common.svg#item" x="190.216064453125" y="301.81884765625" id="object_45" class="item item-8" />
<!-- end group: "objects_item" -->
</g>
<g id="objects_monster">
<use xlink:href="../resources/svg/common.svg#monster" x="-78.125" y="-310.546875" id="object_22" class="monster monster-16" />
<use xlink:href="../resources/svg/common.svg#monster" x="1.953125" y="-170.8984375" id="object_23" class="monster monster-16" />
<use xlink:href="../resources/svg/common.svg#monster" x="-145.5078125" y="-350.5859375" id="object_24" class="monster monster-16" />
<use xlink:href="../resources/svg/common.svg#monster" x="123.046875" y="-43.9453125" id="object_25" class="monster monster-16" />
<use xlink:href="../resources/svg/common.svg#monster" x="-342.7734375" y="225.5859375" id="object_26" class="monster monster-16" />
<use xlink:href="../resources/svg/common.svg#monster" x="-411.1328125" y="213.8671875" id="object_27" class="monster monster-16" />
<use xlink:href="../resources/svg/common.svg#monster" x="-266.6015625" y="228.515625" id="object_28" class="monster monster-16" />
<use xlink:href="../resources/svg/common.svg#monster" x="-163.0859375" y="241.2109375" id="object_29" class="monster monster-16" />
<use xlink:href="../resources/svg/common.svg#monster" x="-183.59375" y="-382.8125" id="object_46" class="monster monster-38" transform="rotate(38.671875 -183.59375 -382.8125)" />
<!-- end group: "objects_monster" -->
</g>
<g id="objects_player">
<use xlink:href="../resources/svg/common.svg#monster" x="-33.935546875" y="342.041015625" id="object_0" class="player" />
<use xlink:href="../resources/svg/common.svg#monster" x="-676.20849609375" y="263.85498046875" id="object_36" class="player" transform="rotate(262.96875 -676.20849609375 263.85498046875)" />
<use xlink:href="../resources/svg/common.svg#monster" x="-500.9765625" y="-72.509765625" id="object_37" class="player" transform="rotate(98.4375 -500.9765625 -72.509765625)" />
<use xlink:href="../resources/svg/common.svg#monster" x="-316.40625" y="-463.623046875" id="object_38" class="player" transform="rotate(41.484375 -316.40625 -463.623046875)" />
<use xlink:href="../resources/svg/common.svg#monster" x="182.373046875" y="-83.49609375" id="object_39" class="player" transform="rotate(203.90625 182.373046875 -83.49609375)" />
<use xlink:href="../resources/svg/common.svg#monster" x="-105.46875" y="184.5703125" id="object_40" class="player" transform="rotate(47.8125 -105.46875 184.5703125)" />
<use xlink:href="../resources/svg/common.svg#monster" x="1.40380859375" y="97.900390625" id="object_41" class="player" transform="rotate(47.8125 1.40380859375 97.900390625)" />
<use xlink:href="../resources/svg/common.svg#monster" x="-485.595703125" y="-395.5078125" id="object_42" class="player" transform="rotate(47.8125 -485.595703125 -395.5078125)" />
<use xlink:href="../resources/svg/common.svg#monster" x="-630.615234375" y="-197.75390625" id="object_43" class="player" transform="rotate(47.8125 -630.615234375 -197.75390625)" />
<!-- end group: "objects_player" -->
</g>
<!-- end group: "objects" -->
</g>
<g id="panels">
<use xlink:href="../resources/svg/common.svg#panel" x="-30.6549072265625" y="88.7603759765625" id="side_246" class="panel-shield_refuel" />
<!-- end group: "panels" -->
</g>

<script xlink:href="../resources/js/level.js" ></script>
</svg>