<?xml version="1.0" encoding="UTF-8"?>
<!-- generated by map2svg: github.com/fracai/marathon-svg -->
<svg xmlns="http://www.w3.org/2000/svg" xmlns:xlink="http://www.w3.org/1999/xlink" version="1.1"
    viewBox="-413.2080078125 -414.48974609375 1042.8466796875 1375.79345703125">
<link xmlns="http://www.w3.org/1999/xhtml" rel="stylesheet" href="../resources/css/styles.css" type="text/css" />
<style id="dynamic-style" />
<g id="background-grid">
<defs>
<pattern id="grid_minor" width="3.125" height="3.125" patternUnits="userSpaceOnUse">
<path d="M 3.125 0 L 0 0 0 3.125" fill="none" class="grid_minor" />
</pattern>
<pattern id="grid_major" width="31.25" height="31.25" patternUnits="userSpaceOnUse">
<rect width="31.25" height="31.25" fill="url(#grid_minor)"/>
<path d="M 31.25 0 L 0 0 0 31.25" fill="none" class="grid_major" />
</pattern>
</defs>
<rect x="-1000" y="-1000" width="2000" height="2000" fill="url(#grid_major)" />
<line x1="0" y1="1000" x2="0" y2="-1000" class="grid_origin" />
<line x1="1000" y1="0" x2="-1000" y2="0" class="grid_origin" />
<!-- end group: "background-grid" -->
</g>
<g id="polygons">
<polygon points="504.638671875,867.5537109375 598.388671875,867.5537109375 598.388671875,930.0537109375 504.638671875,930.0537109375" id="poly_0" class="plain" />
<polygon points="57.92236328125,21.42333984375 61.8896484375,0.0 304.6875,15.625 290.985107421875,94.818115234375 279.4189453125,123.809814453125" id="poly_69" class="plain" />
<polygon points="26.458740234375,56.671142578125 44.43359375,43.64013671875 205.810546875,226.74560546875 126.03759765625,279.998779296875 97.16796875,291.900634765625" id="poly_70" class="plain" />
<polygon points="44.43359375,43.64013671875 57.92236328125,21.42333984375 279.4189453125,123.809814453125 227.874755859375,204.7119140625 205.810546875,226.74560546875" id="poly_71" class="plain" />
<polygon points="0.0,61.8896484375 26.458740234375,56.671142578125 97.16796875,291.900634765625 15.625,304.6875 -15.625,304.6875" id="poly_72" class="plain" />
<polygon points="-15.625,-304.6875 15.625,-304.6875 98.480224609375,-287.109375 21.42333984375,-57.92236328125 0.0,-61.8896484375" id="poly_73" class="plain" />
<polygon points="-96.832275390625,-287.506103515625 -15.625,-304.6875 0.0,-61.8896484375 -26.458740234375,-56.671142578125" id="poly_74" class="plain" />
<polygon points="-205.413818359375,-225.89111328125 -125.701904296875,-275.604248046875 -96.832275390625,-287.506103515625 -26.458740234375,-56.671142578125 -44.43359375,-43.64013671875" id="poly_75" class="plain" />
<polygon points="98.480224609375,-287.109375 127.471923828125,-275.5126953125 205.352783203125,-225.03662109375 43.64013671875,-44.43359375 21.42333984375,-57.92236328125" id="poly_76" class="plain" />
<polygon points="205.352783203125,-225.03662109375 227.386474609375,-202.94189453125 275.543212890625,-128.509521484375 56.671142578125,-26.458740234375 43.64013671875,-44.43359375" id="poly_77" class="plain" />
<polygon points="275.543212890625,-128.509521484375 287.445068359375,-99.639892578125 304.6875,-15.625 304.6875,15.625 61.8896484375,0.0 56.671142578125,-26.458740234375" id="poly_78" class="plain" />
<polygon points="-43.64013671875,44.43359375 -21.42333984375,57.92236328125 -98.7548828125,290.618896484375 -127.74658203125,279.022216796875 -204.681396484375,229.1259765625" id="poly_82" class="plain" />
<polygon points="-21.42333984375,57.92236328125 0.0,61.8896484375 -15.625,304.6875 -98.7548828125,290.618896484375" id="poly_83" class="plain" />
<polygon points="-56.671142578125,26.458740234375 -43.64013671875,44.43359375 -204.681396484375,229.1259765625 -226.715087890625,207.03125 -279.4189453125,125.152587890625" id="poly_84" class="plain" />
<polygon points="-304.6875,15.625 -304.6875,-15.625 -61.8896484375,0.0 -56.671142578125,26.458740234375 -279.4189453125,125.152587890625 -291.32080078125,96.282958984375" id="poly_85" class="plain" />
<polygon points="-276.79443359375,-126.46484375 -227.47802734375,-203.857421875 -205.413818359375,-225.89111328125 -44.43359375,-43.64013671875 -57.92236328125,-21.42333984375" id="poly_86" class="plain" />
<polygon points="-288.360595703125,-97.47314453125 -276.79443359375,-126.46484375 -57.92236328125,-21.42333984375 -61.8896484375,0.0 -304.6875,-15.625" id="poly_88" class="plain" />
<polygon points="-26.458740234375,-56.671142578125 0.0,-61.8896484375 21.42333984375,-57.92236328125 43.64013671875,-44.43359375 21.54541015625,-22.369384765625 -13.336181640625,-28.25927734375" id="poly_64" class="hill" />
<polygon points="28.1982421875,-13.519287109375 56.671142578125,-26.458740234375 61.8896484375,0.0 57.92236328125,21.42333984375 44.43359375,43.64013671875 22.552490234375,21.6064453125" id="poly_65" class="hill" />
<polygon points="-22.125244140625,22.0947265625 13.3056640625,28.228759765625 26.458740234375,56.671142578125 0.0,61.8896484375 -21.42333984375,57.92236328125 -43.64013671875,44.43359375" id="poly_66" class="hill" />
<polygon points="-57.92236328125,-21.42333984375 -44.43359375,-43.64013671875 -22.125244140625,-22.125244140625 -28.472900390625,12.87841796875 -56.671142578125,26.458740234375 -61.8896484375,0.0" id="poly_67" class="hill" />
<polygon points="-22.125244140625,-22.125244140625 -13.336181640625,-28.25927734375 21.54541015625,-22.369384765625 28.1982421875,-13.519287109375 22.552490234375,21.6064453125 13.3056640625,28.228759765625 -22.125244140625,22.0947265625 -28.472900390625,12.87841796875" id="poly_68" class="hill" />
<polygon points="287.445068359375,-99.639892578125 301.849365234375,-105.560302734375 320.3125,-13.427734375 304.6875,-15.625" id="poly_79" class="plain" />
<polygon points="-238.46435546875,-214.874267578125 -227.47802734375,-203.857421875 -276.79443359375,-126.46484375 -291.290283203125,-132.232666015625" id="poly_80" class="plain" />
<polygon points="-320.3125,15.625 -304.6875,15.625 -291.32080078125,96.282958984375 -305.72509765625,102.203369140625" id="poly_81" class="plain" />
<polygon points="-302.8564453125,-103.240966796875 -288.360595703125,-97.47314453125 -304.6875,-15.625 -320.3125,-15.625" id="poly_87" class="plain" />
<polygon points="304.6875,15.625 320.3125,15.625 305.48095703125,100.5859375 290.985107421875,94.818115234375" id="poly_91" class="plain" />
<polygon points="279.4189453125,123.809814453125 293.914794921875,129.57763671875 238.861083984375,215.728759765625 227.874755859375,204.7119140625" id="poly_96" class="plain" />
<polygon points="-293.8232421875,131.072998046875 -279.4189453125,125.152587890625 -226.715087890625,207.03125 -237.762451171875,218.07861328125" id="poly_98" class="plain" />
<polygon points="227.386474609375,-202.94189453125 238.433837890625,-213.9892578125 289.947509765625,-134.429931640625 275.543212890625,-128.509521484375" id="poly_107" class="plain" />
<polygon points="-127.3193359375,295.22705078125 -124.32861328125,285.82763671875 -105.95703125,293.0908203125 -109.375,302.490234375" id="poly_51" class="teleporter" />
<polygon points="122.98583984375,286.041259765625 126.953125,295.95947265625 107.513427734375,303.89404296875 103.546142578125,294.37255859375" id="poly_52" class="teleporter" />
<polygon points="-133.514404296875,293.51806640625 -125.518798828125,352.935791015625 -156.219482421875,340.911865234375" id="poly_6" class="plain" />
<polygon points="-15.625,320.3125 -8.72802734375,374.542236328125 -18.524169921875,374.969482421875" id="poly_9" class="plain" />
<polygon points="-15.625,320.3125 15.625,320.3125 18.5546875,374.542236328125 -8.72802734375,374.542236328125" id="poly_10" class="plain" />
<polygon points="131.9580078125,294.403076171875 153.99169921875,341.888427734375 148.193359375,344.146728515625" id="poly_14" class="plain" />
<polygon points="-133.514404296875,293.51806640625 -127.3193359375,295.22705078125 -109.375,302.490234375 -103.82080078125,304.87060546875 -120.361328125,355.133056640625 -125.518798828125,352.935791015625" id="poly_50" class="plain" />
<polygon points="102.5390625,306.182861328125 107.513427734375,303.89404296875 126.953125,295.95947265625 131.9580078125,294.403076171875 148.193359375,344.146728515625 118.560791015625,355.743408203125" id="poly_53" class="plain" />
<polygon points="-103.82080078125,304.87060546875 -96.0693359375,306.549072265625 -83.770751953125,362.24365234375 -120.361328125,355.133056640625" id="poly_7" class="plain" />
<polygon points="-96.0693359375,306.549072265625 -15.625,320.3125 -18.524169921875,374.969482421875 -83.770751953125,362.24365234375" id="poly_8" class="plain" />
<polygon points="15.625,320.3125 18.4326171875,319.854736328125 26.123046875,373.046875 18.5546875,374.542236328125" id="poly_11" class="plain" />
<polygon points="18.4326171875,319.854736328125 100.067138671875,306.793212890625 111.572265625,356.93359375 26.123046875,373.046875" id="poly_12" class="plain" />
<polygon points="100.067138671875,306.793212890625 102.5390625,306.182861328125 118.560791015625,355.743408203125 111.572265625,356.93359375" id="poly_13" class="plain" />
<polygon points="-237.762451171875,218.07861328125 -231.5673828125,258.544921875 -249.786376953125,279.72412109375 -277.28271484375,252.44140625" id="poly_1" class="plain" />
<polygon points="-237.762451171875,218.07861328125 -215.728759765625,240.17333984375 -231.5673828125,258.544921875" id="poly_2" class="plain" />
<polygon points="-215.728759765625,240.17333984375 -199.920654296875,250.42724609375 -186.46240234375,321.136474609375 -225.982666015625,295.2880859375 -231.5673828125,258.544921875" id="poly_3" class="plain" />
<polygon points="-231.5673828125,258.544921875 -225.982666015625,295.2880859375 -249.786376953125,279.72412109375" id="poly_4" class="plain" />
<polygon points="-199.920654296875,250.42724609375 -133.514404296875,293.51806640625 -156.219482421875,340.911865234375 -186.46240234375,321.136474609375" id="poly_5" class="plain" />
<polygon points="210.784912109375,241.76025390625 226.13525390625,293.609619140625 153.99169921875,341.888427734375 131.9580078125,294.403076171875" id="poly_15" class="plain" />
<polygon points="210.784912109375,241.76025390625 216.796875,237.762451171875 251.678466796875,276.91650390625 226.13525390625,293.609619140625" id="poly_16" class="plain" />
<polygon points="216.796875,237.762451171875 238.861083984375,215.728759765625 258.453369140625,270.263671875 251.678466796875,276.91650390625" id="poly_17" class="plain" />
<polygon points="238.861083984375,215.728759765625 280.6396484375,248.687744140625 258.453369140625,270.263671875" id="poly_18" class="plain" />
<polygon points="320.3125,-13.427734375 374.298095703125,-22.308349609375 374.237060546875,19.073486328125 320.3125,15.625" id="poly_89" class="plain" />
<polygon points="320.3125,15.625 374.237060546875,19.073486328125 356.719970703125,115.570068359375 305.48095703125,100.5859375" id="poly_90" class="plain" />
<polygon points="293.914794921875,129.57763671875 305.48095703125,100.5859375 356.719970703125,115.570068359375 342.010498046875,153.74755859375" id="poly_94" class="plain" />
<polygon points="293.914794921875,129.57763671875 342.010498046875,153.74755859375 280.6396484375,248.687744140625 238.861083984375,215.728759765625" id="poly_95" class="plain" />
<polygon points="-299.6826171875,218.292236328125 -237.762451171875,218.07861328125 -277.28271484375,252.44140625" id="poly_97" class="plain" />
<polygon points="-342.132568359375,153.50341796875 -293.8232421875,131.072998046875 -237.762451171875,218.07861328125 -299.6826171875,218.292236328125" id="poly_99" class="plain" />
<polygon points="-356.201171875,117.24853515625 -305.72509765625,102.203369140625 -293.8232421875,131.072998046875 -342.132568359375,153.50341796875" id="poly_100" class="plain" />
<polygon points="-374.57275390625,17.974853515625 -320.3125,15.625 -305.72509765625,102.203369140625 -356.201171875,117.24853515625" id="poly_101" class="plain" />
<polygon points="-374.57275390625,-18.00537109375 -320.3125,-15.625 -320.3125,15.625 -374.57275390625,17.974853515625" id="poly_102" class="plain" />
<polygon points="301.849365234375,-105.560302734375 350.4638671875,-120.849609375 374.298095703125,-22.308349609375 320.3125,-13.427734375" id="poly_105" class="plain" />
<polygon points="339.691162109375,-158.843994140625 350.4638671875,-120.849609375 301.849365234375,-105.560302734375 289.947509765625,-134.429931640625" id="poly_106" class="plain" />
<polygon points="-354.91943359375,-121.124267578125 -302.8564453125,-103.240966796875 -320.3125,-15.625 -374.57275390625,-18.00537109375" id="poly_108" class="plain" />
<polygon points="-354.91943359375,-121.124267578125 -339.996337890625,-157.318115234375 -291.290283203125,-132.232666015625 -302.8564453125,-103.240966796875" id="poly_109" class="plain" />
<polygon points="-339.996337890625,-157.318115234375 -278.900146484375,-250.701904296875 -238.46435546875,-214.874267578125 -291.290283203125,-132.232666015625" id="poly_110" class="plain" />
<polygon points="-278.900146484375,-250.701904296875 -253.997802734375,-276.519775390625 -216.400146484375,-236.907958984375 -238.46435546875,-214.874267578125" id="poly_111" class="plain" />
<polygon points="-253.997802734375,-276.519775390625 -156.43310546875,-341.12548828125 -131.622314453125,-290.008544921875 -216.400146484375,-236.907958984375" id="poly_112" class="plain" />
<polygon points="-156.43310546875,-341.12548828125 -119.93408203125,-354.98046875 -102.752685546875,-301.910400390625 -131.622314453125,-290.008544921875" id="poly_113" class="plain" />
<polygon points="-119.93408203125,-354.98046875 -18.00537109375,-374.51171875 -15.625,-320.3125 -102.752685546875,-301.910400390625" id="poly_114" class="plain" />
<polygon points="-18.00537109375,-374.51171875 17.822265625,-374.57275390625 15.625,-320.3125 -15.625,-320.3125" id="poly_115" class="plain" />
<polygon points="17.822265625,-374.57275390625 121.9482421875,-354.6142578125 102.6611328125,-301.94091796875 15.625,-320.3125" id="poly_116" class="plain" />
<polygon points="121.9482421875,-354.6142578125 157.40966796875,-340.33203125 133.23974609375,-290.008544921875 102.6611328125,-301.94091796875" id="poly_117" class="plain" />
<polygon points="157.40966796875,-340.33203125 253.875732421875,-276.0009765625 216.400146484375,-236.083984375 133.23974609375,-290.008544921875" id="poly_118" class="plain" />
<polygon points="253.875732421875,-276.0009765625 279.632568359375,-249.847412109375 238.433837890625,-213.9892578125 216.400146484375,-236.083984375" id="poly_119" class="plain" />
<polygon points="238.433837890625,-213.9892578125 279.632568359375,-249.847412109375 339.691162109375,-158.843994140625 289.947509765625,-134.429931640625" id="poly_120" class="plain" />
<polygon points="-372.98583984375,-74.3408203125 -354.91943359375,-121.124267578125 -374.57275390625,-18.00537109375" id="poly_19" class="plain" />
<polygon points="-374.57275390625,-18.00537109375 -374.57275390625,17.974853515625 -381.9580078125,2.5634765625" id="poly_20" class="plain" />
<polygon points="-374.57275390625,17.974853515625 -356.201171875,117.24853515625 -372.98583984375,74.3408203125" id="poly_21" class="plain" />
<polygon points="-353.759765625,-146.1181640625 -339.996337890625,-157.318115234375 -354.91943359375,-121.124267578125" id="poly_22" class="plain" />
<polygon points="-356.201171875,117.24853515625 -342.132568359375,153.50341796875 -355.04150390625,138.427734375" id="poly_23" class="plain" />
<polygon points="-299.6826171875,218.292236328125 -277.28271484375,252.44140625 -293.51806640625,240.966796875" id="poly_24" class="plain" />
<polygon points="-277.28271484375,252.44140625 -249.786376953125,279.72412109375 -265.31982421875,274.2919921875" id="poly_25" class="plain" />
<polygon points="-249.786376953125,279.72412109375 -225.982666015625,295.2880859375 -240.966796875,294.7998046875" id="poly_26" class="plain" />
<polygon points="-225.982666015625,295.2880859375 -186.46240234375,321.136474609375 -206.35986328125,319.15283203125" id="poly_27" class="plain" />
<polygon points="-186.46240234375,321.136474609375 -156.219482421875,340.911865234375 -175.59814453125,339.66064453125" id="poly_28" class="plain" />
<polygon points="-156.219482421875,340.911865234375 -125.518798828125,352.935791015625 -120.361328125,355.133056640625 -143.5546875,355.04150390625" id="poly_29" class="plain" />
<polygon points="-120.361328125,355.133056640625 -83.770751953125,362.24365234375 -18.524169921875,374.969482421875 -79.4677734375,374.267578125" id="poly_30" class="plain" />
<polygon points="-18.524169921875,374.969482421875 -8.72802734375,374.542236328125 18.5546875,374.542236328125 1.28173828125,384.521484375" id="poly_31" class="plain" />
<polygon points="18.5546875,374.542236328125 26.123046875,373.046875 111.572265625,356.93359375 118.560791015625,355.743408203125 78.18603515625,376.8310546875" id="poly_32" class="plain" />
<polygon points="118.560791015625,355.743408203125 148.193359375,344.146728515625 153.99169921875,341.888427734375 138.427734375,358.88671875" id="poly_33" class="plain" />
<polygon points="226.13525390625,293.609619140625 251.678466796875,276.91650390625 206.35986328125,319.15283203125 153.99169921875,341.888427734375" id="poly_34" class="plain" />
<polygon points="258.453369140625,270.263671875 280.6396484375,248.687744140625 270.5078125,269.53125 251.678466796875,276.91650390625" id="poly_35" class="plain" />
<polygon points="374.237060546875,19.073486328125 377.9296875,67.3828125 356.719970703125,115.570068359375" id="poly_36" class="plain" />
<polygon points="374.298095703125,-22.308349609375 381.8359375,-1.953125 374.237060546875,19.073486328125" id="poly_37" class="plain" />
<polygon points="279.632568359375,-249.847412109375 316.58935546875,-211.48681640625 339.691162109375,-158.843994140625" id="poly_38" class="plain" />
<polygon points="271.728515625,-271.728515625 279.632568359375,-249.847412109375 253.875732421875,-276.0009765625" id="poly_39" class="plain" />
<polygon points="157.40966796875,-340.33203125 212.7685546875,-314.02587890625 253.875732421875,-276.0009765625" id="poly_40" class="plain" />
<polygon points="139.70947265625,-353.759765625 157.40966796875,-340.33203125 121.9482421875,-354.6142578125" id="poly_41" class="plain" />
<polygon points="74.3408203125,-371.7041015625 121.9482421875,-354.6142578125 17.822265625,-374.57275390625" id="poly_42" class="plain" />
<polygon points="-2.5634765625,-383.23974609375 17.822265625,-374.57275390625 -18.00537109375,-374.51171875" id="poly_43" class="plain" />
<polygon points="-82.03125,-369.140625 -18.00537109375,-374.51171875 -119.93408203125,-354.98046875" id="poly_44" class="plain" />
<polygon points="-315.3076171875,-214.05029296875 -278.900146484375,-250.701904296875 -339.996337890625,-157.318115234375" id="poly_45" class="plain" />
<polygon points="-269.1650390625,-270.44677734375 -253.997802734375,-276.519775390625 -278.900146484375,-250.701904296875" id="poly_46" class="plain" />
<polygon points="-211.48681640625,-315.3076171875 -156.43310546875,-341.12548828125 -253.997802734375,-276.519775390625" id="poly_47" class="plain" />
<polygon points="-142.27294921875,-353.759765625 -119.93408203125,-354.98046875 -156.43310546875,-341.12548828125" id="poly_48" class="plain" />
<polygon points="-342.132568359375,153.50341796875 -299.6826171875,218.292236328125 -328.125,189.697265625" id="poly_49" class="plain" />
<polygon points="356.719970703125,115.570068359375 356.4453125,136.71875 342.010498046875,153.74755859375" id="poly_92" class="plain" />
<polygon points="342.010498046875,153.74755859375 322.265625,201.171875 280.6396484375,248.687744140625" id="poly_93" class="plain" />
<polygon points="339.691162109375,-158.843994140625 350.09765625,-138.18359375 350.4638671875,-120.849609375" id="poly_103" class="plain" />
<polygon points="350.4638671875,-120.849609375 368.65234375,-74.70703125 374.298095703125,-22.308349609375" id="poly_104" class="plain" />
<polygon points="97.16796875,291.900634765625 102.5390625,306.15234375 100.067138671875,306.7626953125" id="poly_54" class="plain" />
<polygon points="97.16796875,291.900634765625 100.067138671875,306.7626953125 20.44677734375,335.235595703125 15.625,304.6875" id="poly_55" class="plain" />
<polygon points="15.625,304.6875 20.44677734375,335.235595703125 16.357421875,337.21923828125 15.625,320.3125" id="poly_56" class="plain" />
<polygon points="-15.625,320.3125 15.625,320.3125 16.357421875,337.21923828125 -13.5498046875,337.21923828125" id="poly_57" class="plain" />
<polygon points="-95.947265625,307.18994140625 -98.7548828125,290.618896484375 -15.625,304.6875 -15.625,320.3125 -16.204833984375,335.99853515625" id="poly_58" class="plain" />
<polygon points="-15.625,320.3125 -13.5498046875,337.21923828125 -16.204833984375,335.99853515625" id="poly_59" class="plain" />
<polygon points="-98.7548828125,290.618896484375 -95.947265625,307.18994140625 -103.82080078125,304.8095703125" id="poly_60" class="plain" />
<polygon points="100.067138671875,306.7626953125 102.5390625,306.15234375 82.3974609375,355.95703125 16.357421875,337.21923828125 20.44677734375,335.235595703125" id="poly_61" class="plain" />
<polygon points="-13.5498046875,337.21923828125 16.357421875,337.21923828125 3.2958984375,368.59130859375" id="poly_62" class="plain" />
<polygon points="-103.82080078125,304.8095703125 -95.947265625,307.18994140625 -16.204833984375,335.99853515625 -13.5498046875,337.21923828125 -69.2138671875,357.0556640625" id="poly_63" class="plain" />
<!-- end group: "polygons" -->
</g>
<g id="borders">
<g id="border_unconnected">
<line x1="-215.728759765625" y1="240.17333984375" x2="-204.681396484375" y2="229.1259765625" id="line_17" class="unconnected" />
<line x1="205.810546875" y1="226.74560546875" x2="216.796875" y2="237.762451171875" id="line_26" class="unconnected" />
<line x1="131.9580078125" y1="294.403076171875" x2="126.03759765625" y2="279.998779296875" id="line_37" class="unconnected" />
<line x1="-127.74658203125" y1="279.022216796875" x2="-133.514404296875" y2="293.51806640625" id="line_48" class="unconnected" />
<line x1="521.91162109375" y1="47.8515625" x2="537.689208984375" y2="51.849365234375" id="line_50" class="unconnected" />
<line x1="521.91162109375" y1="47.8515625" x2="530.94482421875" y2="61.46240234375" id="line_51" class="unconnected" />
<line x1="521.91162109375" y1="47.8515625" x2="503.2958984375" y2="61.82861328125" id="line_52" class="unconnected" />
<line x1="521.91162109375" y1="47.8515625" x2="509.6435546875" y2="30.45654296875" id="line_53" class="unconnected" />
<line x1="521.91162109375" y1="47.8515625" x2="534.423828125" y2="57.67822265625" id="line_54" class="unconnected" />
<line x1="521.91162109375" y1="47.8515625" x2="533.0810546875" y2="54.779052734375" id="line_55" class="unconnected" />
<line x1="521.91162109375" y1="47.8515625" x2="536.163330078125" y2="64.605712890625" id="line_56" class="unconnected" />
<line x1="521.91162109375" y1="47.8515625" x2="535.186767578125" y2="51.300048828125" id="line_57" class="unconnected" />
<line x1="521.91162109375" y1="47.8515625" x2="535.09521484375" y2="48.64501953125" id="line_58" class="unconnected" />
<line x1="521.91162109375" y1="47.8515625" x2="539.97802734375" y2="44.49462890625" id="line_59" class="unconnected" />
<line x1="521.91162109375" y1="47.8515625" x2="545.7763671875" y2="39.215087890625" id="line_60" class="unconnected" />
<line x1="521.91162109375" y1="47.8515625" x2="541.80908203125" y2="36.346435546875" id="line_61" class="unconnected" />
<line x1="521.91162109375" y1="47.8515625" x2="530.731201171875" y2="41.748046875" id="line_62" class="unconnected" />
<line x1="521.91162109375" y1="47.8515625" x2="534.637451171875" y2="36.07177734375" id="line_63" class="unconnected" />
<line x1="521.91162109375" y1="47.8515625" x2="533.14208984375" y2="31.1279296875" id="line_64" class="unconnected" />
<line x1="521.91162109375" y1="47.8515625" x2="528.472900390625" y2="31.402587890625" id="line_65" class="unconnected" />
<line x1="521.91162109375" y1="47.8515625" x2="523.62060546875" y2="29.6630859375" id="line_66" class="unconnected" />
<line x1="521.91162109375" y1="47.8515625" x2="520.050048828125" y2="30.82275390625" id="line_67" class="unconnected" />
<line x1="521.91162109375" y1="47.8515625" x2="515.472412109375" y2="27.862548828125" id="line_68" class="unconnected" />
<line x1="521.91162109375" y1="47.8515625" x2="514.007568359375" y2="31.43310546875" id="line_69" class="unconnected" />
<line x1="521.91162109375" y1="47.8515625" x2="504.241943359375" y2="31.219482421875" id="line_70" class="unconnected" />
<line x1="521.91162109375" y1="47.8515625" x2="506.34765625" y2="36.285400390625" id="line_71" class="unconnected" />
<line x1="521.91162109375" y1="47.8515625" x2="507.14111328125" y2="41.717529296875" id="line_72" class="unconnected" />
<line x1="521.91162109375" y1="47.8515625" x2="504.547119140625" y2="44.43359375" id="line_73" class="unconnected" />
<line x1="521.91162109375" y1="47.8515625" x2="503.5400390625" y2="52.032470703125" id="line_74" class="unconnected" />
<line x1="521.91162109375" y1="47.8515625" x2="502.44140625" y2="47.91259765625" id="line_75" class="unconnected" />
<line x1="521.91162109375" y1="47.8515625" x2="503.2958984375" y2="55.908203125" id="line_76" class="unconnected" />
<line x1="521.91162109375" y1="47.8515625" x2="498.779296875" y2="61.46240234375" id="line_77" class="unconnected" />
<line x1="521.91162109375" y1="47.8515625" x2="506.103515625" y2="63.78173828125" id="line_78" class="unconnected" />
<line x1="521.91162109375" y1="47.8515625" x2="526.275634765625" y2="61.737060546875" id="line_79" class="unconnected" />
<line x1="521.91162109375" y1="47.8515625" x2="522.064208984375" y2="66.0400390625" id="line_80" class="unconnected" />
<line x1="521.91162109375" y1="47.8515625" x2="522.216796875" y2="59.50927734375" id="line_81" class="unconnected" />
<line x1="521.91162109375" y1="47.8515625" x2="517.08984375" y2="67.56591796875" id="line_82" class="unconnected" />
<line x1="521.91162109375" y1="47.8515625" x2="511.932373046875" y2="72.967529296875" id="line_83" class="unconnected" />
<line x1="521.91162109375" y1="47.8515625" x2="511.1083984375" y2="64.910888671875" id="line_84" class="unconnected" />
<line x1="210.784912109375" y1="241.76025390625" x2="205.810546875" y2="226.74560546875" id="line_170" class="unconnected" />
<!-- end group: "border_unconnected" -->
</g>
<g id="border_landscape_">
<line x1="339.691162109375" y1="-158.843994140625" x2="279.632568359375" y2="-249.847412109375" id="line_85" class="landscape_" />
<line x1="279.632568359375" y1="-249.847412109375" x2="253.875732421875" y2="-276.0009765625" id="line_86" class="landscape_" />
<line x1="253.875732421875" y1="-276.0009765625" x2="157.40966796875" y2="-340.33203125" id="line_87" class="landscape_" />
<line x1="157.40966796875" y1="-340.33203125" x2="121.9482421875" y2="-354.6142578125" id="line_88" class="landscape_" />
<line x1="121.9482421875" y1="-354.6142578125" x2="17.822265625" y2="-374.57275390625" id="line_89" class="landscape_" />
<line x1="17.822265625" y1="-374.57275390625" x2="-18.00537109375" y2="-374.51171875" id="line_90" class="landscape_" />
<line x1="-18.00537109375" y1="-374.51171875" x2="-119.93408203125" y2="-354.98046875" id="line_91" class="landscape_" />
<line x1="-119.93408203125" y1="-354.98046875" x2="-156.43310546875" y2="-341.12548828125" id="line_92" class="landscape_" />
<line x1="-156.43310546875" y1="-341.12548828125" x2="-253.997802734375" y2="-276.519775390625" id="line_93" class="landscape_" />
<line x1="-253.997802734375" y1="-276.519775390625" x2="-278.900146484375" y2="-250.701904296875" id="line_94" class="landscape_" />
<line x1="-278.900146484375" y1="-250.701904296875" x2="-339.996337890625" y2="-157.318115234375" id="line_95" class="landscape_" />
<line x1="-339.996337890625" y1="-157.318115234375" x2="-354.91943359375" y2="-121.124267578125" id="line_96" class="landscape_" />
<line x1="-354.91943359375" y1="-121.124267578125" x2="-374.57275390625" y2="-18.00537109375" id="line_97" class="landscape_" />
<line x1="-374.57275390625" y1="-18.00537109375" x2="-374.57275390625" y2="17.974853515625" id="line_98" class="landscape_" />
<line x1="-374.57275390625" y1="17.974853515625" x2="-356.201171875" y2="117.24853515625" id="line_99" class="landscape_" />
<line x1="-356.201171875" y1="117.24853515625" x2="-342.132568359375" y2="153.50341796875" id="line_100" class="landscape_" />
<line x1="-342.132568359375" y1="153.50341796875" x2="-299.6826171875" y2="218.292236328125" id="line_101" class="landscape_" />
<line x1="-249.786376953125" y1="279.72412109375" x2="-277.28271484375" y2="252.44140625" id="line_102" class="landscape_" />
<line x1="-225.982666015625" y1="295.2880859375" x2="-249.786376953125" y2="279.72412109375" id="line_103" class="landscape_" />
<line x1="-125.518798828125" y1="352.935791015625" x2="-156.219482421875" y2="340.911865234375" id="line_104" class="landscape_" />
<line x1="-83.770751953125" y1="362.24365234375" x2="-120.361328125" y2="355.133056640625" id="line_105" class="landscape_" />
<line x1="-8.72802734375" y1="374.542236328125" x2="-18.524169921875" y2="374.969482421875" id="line_106" class="landscape_" />
<line x1="26.123046875" y1="373.046875" x2="18.5546875" y2="374.542236328125" id="line_107" class="landscape_" />
<line x1="118.560791015625" y1="355.743408203125" x2="148.193359375" y2="344.146728515625" id="line_108" class="landscape_" />
<line x1="226.13525390625" y1="293.609619140625" x2="153.99169921875" y2="341.888427734375" id="line_109" class="landscape_" />
<line x1="258.453369140625" y1="270.263671875" x2="251.678466796875" y2="276.91650390625" id="line_110" class="landscape_" />
<line x1="356.719970703125" y1="115.570068359375" x2="374.237060546875" y2="19.073486328125" id="line_111" class="landscape_" />
<line x1="374.237060546875" y1="19.073486328125" x2="374.298095703125" y2="-22.308349609375" id="line_112" class="landscape_" />
<line x1="280.6396484375" y1="248.687744140625" x2="258.453369140625" y2="270.263671875" id="line_167" class="landscape_" />
<line x1="251.678466796875" y1="276.91650390625" x2="226.13525390625" y2="293.609619140625" id="line_171" class="landscape_" />
<line x1="153.99169921875" y1="341.888427734375" x2="148.193359375" y2="344.146728515625" id="line_173" class="landscape_" />
<line x1="118.560791015625" y1="355.743408203125" x2="111.572265625" y2="356.93359375" id="line_175" class="landscape_" />
<line x1="111.572265625" y1="356.93359375" x2="26.123046875" y2="373.046875" id="line_179" class="landscape_" />
<line x1="18.5546875" y1="374.542236328125" x2="-8.72802734375" y2="374.542236328125" id="line_181" class="landscape_" />
<line x1="-18.524169921875" y1="374.969482421875" x2="-83.770751953125" y2="362.24365234375" id="line_184" class="landscape_" />
<line x1="-125.518798828125" y1="352.935791015625" x2="-120.361328125" y2="355.133056640625" id="line_186" class="landscape_" />
<line x1="-156.219482421875" y1="340.911865234375" x2="-186.46240234375" y2="321.136474609375" id="line_189" class="landscape_" />
<line x1="-186.46240234375" y1="321.136474609375" x2="-225.982666015625" y2="295.2880859375" id="line_193" class="landscape_" />
<line x1="-299.6826171875" y1="218.292236328125" x2="-277.28271484375" y2="252.44140625" id="line_195" class="landscape_" />
<line x1="121.9482421875" y1="-354.6142578125" x2="139.70947265625" y2="-353.759765625" id="line_196" class="landscape_" />
<line x1="139.70947265625" y1="-353.759765625" x2="157.40966796875" y2="-340.33203125" id="line_197" class="landscape_" />
<line x1="74.3408203125" y1="-371.7041015625" x2="121.9482421875" y2="-354.6142578125" id="line_198" class="landscape_" />
<line x1="17.822265625" y1="-374.57275390625" x2="74.3408203125" y2="-371.7041015625" id="line_199" class="landscape_" />
<line x1="-2.5634765625" y1="-383.23974609375" x2="17.822265625" y2="-374.57275390625" id="line_200" class="landscape_" />
<line x1="-18.00537109375" y1="-374.51171875" x2="-2.5634765625" y2="-383.23974609375" id="line_201" class="landscape_" />
<line x1="-142.27294921875" y1="-353.759765625" x2="-119.93408203125" y2="-354.98046875" id="line_202" class="landscape_" />
<line x1="-156.43310546875" y1="-341.12548828125" x2="-142.27294921875" y2="-353.759765625" id="line_203" class="landscape_" />
<line x1="-119.93408203125" y1="-354.98046875" x2="-82.03125" y2="-369.140625" id="line_204" class="landscape_" />
<line x1="-82.03125" y1="-369.140625" x2="-18.00537109375" y2="-374.51171875" id="line_205" class="landscape_" />
<line x1="-211.48681640625" y1="-315.3076171875" x2="-156.43310546875" y2="-341.12548828125" id="line_206" class="landscape_" />
<line x1="-253.997802734375" y1="-276.519775390625" x2="-211.48681640625" y2="-315.3076171875" id="line_207" class="landscape_" />
<line x1="-269.1650390625" y1="-270.44677734375" x2="-253.997802734375" y2="-276.519775390625" id="line_208" class="landscape_" />
<line x1="-278.900146484375" y1="-250.701904296875" x2="-269.1650390625" y2="-270.44677734375" id="line_209" class="landscape_" />
<line x1="-315.3076171875" y1="-214.05029296875" x2="-278.900146484375" y2="-250.701904296875" id="line_210" class="landscape_" />
<line x1="-339.996337890625" y1="-157.318115234375" x2="-315.3076171875" y2="-214.05029296875" id="line_211" class="landscape_" />
<line x1="-353.759765625" y1="-146.1181640625" x2="-339.996337890625" y2="-157.318115234375" id="line_212" class="landscape_" />
<line x1="-354.91943359375" y1="-121.124267578125" x2="-353.759765625" y2="-146.1181640625" id="line_213" class="landscape_" />
<line x1="-372.98583984375" y1="-74.3408203125" x2="-354.91943359375" y2="-121.124267578125" id="line_214" class="landscape_" />
<line x1="-374.57275390625" y1="-18.00537109375" x2="-372.98583984375" y2="-74.3408203125" id="line_215" class="landscape_" />
<line x1="-374.57275390625" y1="17.974853515625" x2="-381.9580078125" y2="2.5634765625" id="line_216" class="landscape_" />
<line x1="-381.9580078125" y1="2.5634765625" x2="-374.57275390625" y2="-18.00537109375" id="line_217" class="landscape_" />
<line x1="-372.98583984375" y1="74.3408203125" x2="-374.57275390625" y2="17.974853515625" id="line_218" class="landscape_" />
<line x1="-356.201171875" y1="117.24853515625" x2="-372.98583984375" y2="74.3408203125" id="line_219" class="landscape_" />
<line x1="-355.04150390625" y1="138.427734375" x2="-356.201171875" y2="117.24853515625" id="line_220" class="landscape_" />
<line x1="-342.132568359375" y1="153.50341796875" x2="-355.04150390625" y2="138.427734375" id="line_221" class="landscape_" />
<line x1="-293.51806640625" y1="240.966796875" x2="-299.6826171875" y2="218.292236328125" id="line_222" class="landscape_" />
<line x1="-277.28271484375" y1="252.44140625" x2="-293.51806640625" y2="240.966796875" id="line_223" class="landscape_" />
<line x1="-240.966796875" y1="294.7998046875" x2="-249.786376953125" y2="279.72412109375" id="line_224" class="landscape_" />
<line x1="-225.982666015625" y1="295.2880859375" x2="-240.966796875" y2="294.7998046875" id="line_225" class="landscape_" />
<line x1="-249.786376953125" y1="279.72412109375" x2="-265.31982421875" y2="274.2919921875" id="line_226" class="landscape_" />
<line x1="-265.31982421875" y1="274.2919921875" x2="-277.28271484375" y2="252.44140625" id="line_227" class="landscape_" />
<line x1="-206.35986328125" y1="319.15283203125" x2="-225.982666015625" y2="295.2880859375" id="line_228" class="landscape_" />
<line x1="-186.46240234375" y1="321.136474609375" x2="-206.35986328125" y2="319.15283203125" id="line_229" class="landscape_" />
<line x1="-175.59814453125" y1="339.66064453125" x2="-186.46240234375" y2="321.136474609375" id="line_230" class="landscape_" />
<line x1="-156.219482421875" y1="340.911865234375" x2="-175.59814453125" y2="339.66064453125" id="line_231" class="landscape_" />
<line x1="-143.5546875" y1="355.04150390625" x2="-156.219482421875" y2="340.911865234375" id="line_232" class="landscape_" />
<line x1="-120.361328125" y1="355.133056640625" x2="-143.5546875" y2="355.04150390625" id="line_233" class="landscape_" />
<line x1="-79.4677734375" y1="374.267578125" x2="-120.361328125" y2="355.133056640625" id="line_234" class="landscape_" />
<line x1="-18.524169921875" y1="374.969482421875" x2="-79.4677734375" y2="374.267578125" id="line_235" class="landscape_" />
<line x1="1.28173828125" y1="384.521484375" x2="-18.524169921875" y2="374.969482421875" id="line_236" class="landscape_" />
<line x1="18.5546875" y1="374.542236328125" x2="1.28173828125" y2="384.521484375" id="line_237" class="landscape_" />
<line x1="118.560791015625" y1="355.743408203125" x2="78.18603515625" y2="376.8310546875" id="line_238" class="landscape_" />
<line x1="78.18603515625" y1="376.8310546875" x2="18.5546875" y2="374.542236328125" id="line_239" class="landscape_" />
<line x1="138.427734375" y1="358.88671875" x2="118.560791015625" y2="355.743408203125" id="line_240" class="landscape_" />
<line x1="153.99169921875" y1="341.888427734375" x2="138.427734375" y2="358.88671875" id="line_241" class="landscape_" />
<line x1="206.35986328125" y1="319.15283203125" x2="153.99169921875" y2="341.888427734375" id="line_242" class="landscape_" />
<line x1="251.678466796875" y1="276.91650390625" x2="206.35986328125" y2="319.15283203125" id="line_243" class="landscape_" />
<line x1="270.5078125" y1="269.53125" x2="251.678466796875" y2="276.91650390625" id="line_244" class="landscape_" />
<line x1="280.6396484375" y1="248.687744140625" x2="270.5078125" y2="269.53125" id="line_245" class="landscape_" />
<line x1="322.265625" y1="201.171875" x2="280.6396484375" y2="248.687744140625" id="line_246" class="landscape_" />
<line x1="342.010498046875" y1="153.74755859375" x2="322.265625" y2="201.171875" id="line_247" class="landscape_" />
<line x1="356.4453125" y1="136.71875" x2="342.010498046875" y2="153.74755859375" id="line_248" class="landscape_" />
<line x1="356.719970703125" y1="115.570068359375" x2="356.4453125" y2="136.71875" id="line_249" class="landscape_" />
<line x1="377.9296875" y1="67.3828125" x2="356.719970703125" y2="115.570068359375" id="line_250" class="landscape_" />
<line x1="374.237060546875" y1="19.073486328125" x2="377.9296875" y2="67.3828125" id="line_251" class="landscape_" />
<line x1="381.8359375" y1="-1.953125" x2="374.237060546875" y2="19.073486328125" id="line_252" class="landscape_" />
<line x1="374.298095703125" y1="-22.308349609375" x2="381.8359375" y2="-1.953125" id="line_253" class="landscape_" />
<line x1="316.58935546875" y1="-211.48681640625" x2="339.691162109375" y2="-158.843994140625" id="line_254" class="landscape_" />
<line x1="279.632568359375" y1="-249.847412109375" x2="316.58935546875" y2="-211.48681640625" id="line_255" class="landscape_" />
<line x1="271.728515625" y1="-271.728515625" x2="279.632568359375" y2="-249.847412109375" id="line_256" class="landscape_" />
<line x1="253.875732421875" y1="-276.0009765625" x2="271.728515625" y2="-271.728515625" id="line_257" class="landscape_" />
<line x1="212.7685546875" y1="-314.02587890625" x2="253.875732421875" y2="-276.0009765625" id="line_258" class="landscape_" />
<line x1="157.40966796875" y1="-340.33203125" x2="212.7685546875" y2="-314.02587890625" id="line_259" class="landscape_" />
<line x1="-299.6826171875" y1="218.292236328125" x2="-328.125" y2="189.697265625" id="line_260" class="landscape_" />
<line x1="-328.125" y1="189.697265625" x2="-342.132568359375" y2="153.50341796875" id="line_261" class="landscape_" />
<line x1="102.5390625" y1="306.15234375" x2="100.067138671875" y2="306.7626953125" id="line_277" class="landscape_" />
<line x1="100.067138671875" y1="306.7626953125" x2="20.44677734375" y2="335.235595703125" id="line_279" class="landscape_" />
<line x1="20.44677734375" y1="335.235595703125" x2="16.357421875" y2="337.21923828125" id="line_280" class="landscape_" />
<line x1="16.357421875" y1="337.21923828125" x2="-13.5498046875" y2="337.21923828125" id="line_282" class="landscape_" />
<line x1="-13.5498046875" y1="337.21923828125" x2="-16.204833984375" y2="335.99853515625" id="line_284" class="landscape_" />
<line x1="-95.947265625" y1="307.18994140625" x2="-103.82080078125" y2="304.8095703125" id="line_286" class="landscape_" />
<line x1="-16.204833984375" y1="335.99853515625" x2="-95.947265625" y2="307.18994140625" id="line_289" class="landscape_" />
<line x1="342.010498046875" y1="153.74755859375" x2="356.719970703125" y2="115.570068359375" id="line_334" class="landscape_" />
<line x1="280.6396484375" y1="248.687744140625" x2="342.010498046875" y2="153.74755859375" id="line_339" class="landscape_" />
<line x1="350.4638671875" y1="-120.849609375" x2="339.691162109375" y2="-158.843994140625" id="line_347" class="landscape_" />
<line x1="374.298095703125" y1="-22.308349609375" x2="350.4638671875" y2="-120.849609375" id="line_348" class="landscape_" />
<line x1="350.4638671875" y1="-120.849609375" x2="368.65234375" y2="-74.70703125" id="line_349" class="landscape_" />
<line x1="368.65234375" y1="-74.70703125" x2="374.298095703125" y2="-22.308349609375" id="line_350" class="landscape_" />
<line x1="339.691162109375" y1="-158.843994140625" x2="350.09765625" y2="-138.18359375" id="line_351" class="landscape_" />
<line x1="350.09765625" y1="-138.18359375" x2="350.4638671875" y2="-120.849609375" id="line_352" class="landscape_" />
<!-- end group: "border_landscape_" -->
</g>
<g id="border_plain">
<line x1="238.861083984375" y1="215.728759765625" x2="280.6396484375" y2="248.687744140625" id="line_113" class="plain" />
<line x1="216.796875" y1="237.762451171875" x2="251.678466796875" y2="276.91650390625" id="line_114" class="plain" />
<line x1="-215.728759765625" y1="240.17333984375" x2="-231.5673828125" y2="258.544921875" id="line_121" class="plain" />
<line x1="-277.28271484375" y1="252.44140625" x2="-237.762451171875" y2="218.07861328125" id="line_122" class="plain" />
<line x1="301.849365234375" y1="-105.560302734375" x2="350.4638671875" y2="-120.849609375" id="line_123" class="plain" />
<line x1="238.861083984375" y1="215.728759765625" x2="258.453369140625" y2="270.263671875" id="line_168" class="plain" />
<line x1="210.784912109375" y1="241.76025390625" x2="226.13525390625" y2="293.609619140625" id="line_172" class="plain" />
<line x1="148.193359375" y1="344.146728515625" x2="131.9580078125" y2="294.403076171875" id="line_174" class="plain" />
<line x1="100.067138671875" y1="306.793212890625" x2="111.572265625" y2="356.93359375" id="line_177" class="plain" />
<line x1="18.4326171875" y1="319.854736328125" x2="26.123046875" y2="373.046875" id="line_180" class="plain" />
<line x1="-15.625" y1="320.3125" x2="-8.72802734375" y2="374.542236328125" id="line_182" class="plain" />
<line x1="-96.0693359375" y1="306.549072265625" x2="-83.770751953125" y2="362.24365234375" id="line_185" class="plain" />
<line x1="-133.514404296875" y1="293.51806640625" x2="-125.518798828125" y2="352.935791015625" id="line_187" class="plain" />
<line x1="-199.920654296875" y1="250.42724609375" x2="-186.46240234375" y2="321.136474609375" id="line_190" class="plain" />
<line x1="-231.5673828125" y1="258.544921875" x2="-249.786376953125" y2="279.72412109375" id="line_191" class="plain" />
<line x1="-237.762451171875" y1="218.07861328125" x2="-231.5673828125" y2="258.544921875" id="line_192" class="plain" />
<line x1="-225.982666015625" y1="295.2880859375" x2="-231.5673828125" y2="258.544921875" id="line_194" class="plain" />
<line x1="20.44677734375" y1="335.235595703125" x2="15.625" y2="304.6875" id="line_281" class="plain" />
<line x1="-13.5498046875" y1="337.21923828125" x2="-15.625" y2="320.3125" id="line_283" class="plain" />
<line x1="16.357421875" y1="337.21923828125" x2="15.625" y2="320.3125" id="line_288" class="plain" />
<line x1="-15.625" y1="320.3125" x2="-16.204833984375" y2="335.99853515625" id="line_290" class="plain" />
<line x1="21.54541015625" y1="-22.369384765625" x2="-13.336181640625" y2="-28.25927734375" id="line_301" class="plain" />
<line x1="-22.125244140625" y1="-22.125244140625" x2="-28.472900390625" y2="12.87841796875" id="line_302" class="plain" />
<line x1="-22.125244140625" y1="22.0947265625" x2="13.3056640625" y2="28.228759765625" id="line_303" class="plain" />
<line x1="22.552490234375" y1="21.6064453125" x2="28.1982421875" y2="-13.519287109375" id="line_304" class="plain" />
<line x1="61.8896484375" y1="0.0" x2="304.6875" y2="15.625" id="line_306" class="plain" />
<line x1="279.4189453125" y1="123.809814453125" x2="57.92236328125" y2="21.42333984375" id="line_307" class="plain" />
<line x1="44.43359375" y1="43.64013671875" x2="205.810546875" y2="226.74560546875" id="line_308" class="plain" />
<line x1="-15.625" y1="304.6875" x2="0.0" y2="61.8896484375" id="line_309" class="plain" />
<line x1="97.16796875" y1="291.900634765625" x2="26.458740234375" y2="56.671142578125" id="line_310" class="plain" />
<line x1="0.0" y1="-61.8896484375" x2="-15.625" y2="-304.6875" id="line_312" class="plain" />
<line x1="98.480224609375" y1="-287.109375" x2="21.42333984375" y2="-57.92236328125" id="line_314" class="plain" />
<line x1="205.352783203125" y1="-225.03662109375" x2="43.64013671875" y2="-44.43359375" id="line_315" class="plain" />
<line x1="-26.458740234375" y1="-56.671142578125" x2="-96.832275390625" y2="-287.506103515625" id="line_316" class="plain" />
<line x1="-44.43359375" y1="-43.64013671875" x2="-205.413818359375" y2="-225.89111328125" id="line_318" class="plain" />
<line x1="275.543212890625" y1="-128.509521484375" x2="56.671142578125" y2="-26.458740234375" id="line_319" class="plain" />
<line x1="-57.92236328125" y1="-21.42333984375" x2="-276.79443359375" y2="-126.46484375" id="line_325" class="plain" />
<line x1="-21.42333984375" y1="57.92236328125" x2="-98.7548828125" y2="290.618896484375" id="line_326" class="plain" />
<line x1="-204.681396484375" y1="229.1259765625" x2="-43.64013671875" y2="44.43359375" id="line_329" class="plain" />
<line x1="-279.4189453125" y1="125.152587890625" x2="-56.671142578125" y2="26.458740234375" id="line_330" class="plain" />
<line x1="-304.6875" y1="-15.625" x2="-61.8896484375" y2="0.0" id="line_331" class="plain" />
<line x1="320.3125" y1="-13.427734375" x2="374.298095703125" y2="-22.308349609375" id="line_333" class="plain" />
<line x1="356.719970703125" y1="115.570068359375" x2="305.48095703125" y2="100.5859375" id="line_335" class="plain" />
<line x1="374.237060546875" y1="19.073486328125" x2="320.3125" y2="15.625" id="line_337" class="plain" />
<line x1="342.010498046875" y1="153.74755859375" x2="293.914794921875" y2="129.57763671875" id="line_338" class="plain" />
<line x1="-299.6826171875" y1="218.292236328125" x2="-237.762451171875" y2="218.07861328125" id="line_341" class="plain" />
<line x1="-342.132568359375" y1="153.50341796875" x2="-293.8232421875" y2="131.072998046875" id="line_343" class="plain" />
<line x1="-356.201171875" y1="117.24853515625" x2="-305.72509765625" y2="102.203369140625" id="line_344" class="plain" />
<line x1="-374.57275390625" y1="-18.00537109375" x2="-320.3125" y2="-15.625" id="line_345" class="plain" />
<line x1="-374.57275390625" y1="17.974853515625" x2="-320.3125" y2="15.625" id="line_346" class="plain" />
<line x1="289.947509765625" y1="-134.429931640625" x2="339.691162109375" y2="-158.843994140625" id="line_353" class="plain" />
<line x1="253.875732421875" y1="-276.0009765625" x2="216.400146484375" y2="-236.083984375" id="line_354" class="plain" />
<line x1="121.9482421875" y1="-354.6142578125" x2="102.6611328125" y2="-301.94091796875" id="line_356" class="plain" />
<line x1="17.822265625" y1="-374.57275390625" x2="15.625" y2="-320.3125" id="line_357" class="plain" />
<line x1="-18.00537109375" y1="-374.51171875" x2="-15.625" y2="-320.3125" id="line_358" class="plain" />
<line x1="-119.93408203125" y1="-354.98046875" x2="-102.752685546875" y2="-301.910400390625" id="line_359" class="plain" />
<line x1="-156.43310546875" y1="-341.12548828125" x2="-131.622314453125" y2="-290.008544921875" id="line_360" class="plain" />
<line x1="-253.997802734375" y1="-276.519775390625" x2="-216.400146484375" y2="-236.907958984375" id="line_361" class="plain" />
<line x1="-278.900146484375" y1="-250.701904296875" x2="-238.46435546875" y2="-214.874267578125" id="line_362" class="plain" />
<line x1="-339.996337890625" y1="-157.318115234375" x2="-291.290283203125" y2="-132.232666015625" id="line_363" class="plain" />
<line x1="-354.91943359375" y1="-121.124267578125" x2="-302.8564453125" y2="-103.240966796875" id="line_364" class="plain" />
<line x1="157.40966796875" y1="-340.33203125" x2="133.23974609375" y2="-290.008544921875" id="line_365" class="plain" />
<line x1="279.632568359375" y1="-249.847412109375" x2="238.433837890625" y2="-213.9892578125" id="line_368" class="plain" />
<!-- end group: "border_plain" -->
</g>
<g id="border_ceiling">
<line x1="131.9580078125" y1="294.403076171875" x2="153.99169921875" y2="341.888427734375" id="line_115" class="ceiling" />
<line x1="102.5390625" y1="306.182861328125" x2="118.560791015625" y2="355.743408203125" id="line_116" class="ceiling" />
<line x1="15.625" y1="320.3125" x2="18.5546875" y2="374.542236328125" id="line_117" class="ceiling" />
<line x1="-15.625" y1="320.3125" x2="-18.524169921875" y2="374.969482421875" id="line_118" class="ceiling" />
<line x1="-120.361328125" y1="355.133056640625" x2="-103.82080078125" y2="304.87060546875" id="line_119" class="ceiling" />
<line x1="-133.514404296875" y1="293.51806640625" x2="-156.219482421875" y2="340.911865234375" id="line_120" class="ceiling" />
<line x1="-127.3193359375" y1="295.22705078125" x2="-109.375" y2="302.490234375" id="line_263" class="ceiling" />
<line x1="126.953125" y1="295.95947265625" x2="107.513427734375" y2="303.89404296875" id="line_268" class="ceiling" />
<!-- end group: "border_ceiling" -->
</g>
<g id="border_elevation">
<line x1="304.6875" y1="15.625" x2="290.985107421875" y2="94.818115234375" id="line_124" class="elevation" />
<line x1="238.433837890625" y1="-213.9892578125" x2="289.947509765625" y2="-134.429931640625" id="line_125" class="elevation" />
<line x1="-291.290283203125" y1="-132.232666015625" x2="-238.46435546875" y2="-214.874267578125" id="line_130" class="elevation" />
<line x1="-320.3125" y1="-15.625" x2="-302.8564453125" y2="-103.240966796875" id="line_131" class="elevation" />
<line x1="-305.72509765625" y1="102.203369140625" x2="-320.3125" y2="15.625" id="line_132" class="elevation" />
<line x1="-304.6875" y1="15.625" x2="-291.32080078125" y2="96.282958984375" id="line_133" class="elevation" />
<line x1="-226.715087890625" y1="207.03125" x2="-279.4189453125" y2="125.152587890625" id="line_134" class="elevation" />
<line x1="-98.7548828125" y1="290.618896484375" x2="-15.625" y2="304.6875" id="line_137" class="elevation" />
<line x1="15.625" y1="304.6875" x2="97.16796875" y2="291.900634765625" id="line_138" class="elevation" />
<line x1="279.4189453125" y1="123.809814453125" x2="227.874755859375" y2="204.7119140625" id="line_143" class="elevation" />
<line x1="-61.8896484375" y1="0.0" x2="-57.92236328125" y2="-21.42333984375" id="line_144" class="elevation" />
<line x1="21.42333984375" y1="-57.92236328125" x2="43.64013671875" y2="-44.43359375" id="line_146" class="elevation" />
<line x1="0.0" y1="-61.8896484375" x2="21.42333984375" y2="-57.92236328125" id="line_148" class="elevation" />
<line x1="-21.42333984375" y1="57.92236328125" x2="-43.64013671875" y2="44.43359375" id="line_149" class="elevation" />
<line x1="57.92236328125" y1="21.42333984375" x2="44.43359375" y2="43.64013671875" id="line_151" class="elevation" />
<line x1="61.8896484375" y1="0.0" x2="57.92236328125" y2="21.42333984375" id="line_153" class="elevation" />
<line x1="56.671142578125" y1="-26.458740234375" x2="61.8896484375" y2="0.0" id="line_154" class="elevation" />
<line x1="-26.458740234375" y1="-56.671142578125" x2="0.0" y2="-61.8896484375" id="line_155" class="elevation" />
<line x1="-56.671142578125" y1="26.458740234375" x2="-61.8896484375" y2="0.0" id="line_156" class="elevation" />
<line x1="26.458740234375" y1="56.671142578125" x2="0.0" y2="61.8896484375" id="line_297" class="elevation" />
<line x1="0.0" y1="61.8896484375" x2="-21.42333984375" y2="57.92236328125" id="line_298" class="elevation" />
<line x1="-57.92236328125" y1="-21.42333984375" x2="-44.43359375" y2="-43.64013671875" id="line_305" class="elevation" />
<line x1="227.386474609375" y1="-202.94189453125" x2="275.543212890625" y2="-128.509521484375" id="line_320" class="elevation" />
<line x1="287.445068359375" y1="-99.639892578125" x2="304.6875" y2="-15.625" id="line_321" class="elevation" />
<line x1="301.849365234375" y1="-105.560302734375" x2="320.3125" y2="-13.427734375" id="line_323" class="elevation" />
<line x1="-227.47802734375" y1="-203.857421875" x2="-276.79443359375" y2="-126.46484375" id="line_324" class="elevation" />
<line x1="-288.360595703125" y1="-97.47314453125" x2="-304.6875" y2="-15.625" id="line_332" class="elevation" />
<line x1="305.48095703125" y1="100.5859375" x2="320.3125" y2="15.625" id="line_336" class="elevation" />
<line x1="238.861083984375" y1="215.728759765625" x2="293.914794921875" y2="129.57763671875" id="line_340" class="elevation" />
<line x1="-237.762451171875" y1="218.07861328125" x2="-293.8232421875" y2="131.072998046875" id="line_342" class="elevation" />
<!-- end group: "border_elevation" -->
</g>
<g id="border_solid">
<line x1="504.638671875" y1="867.5537109375" x2="598.388671875" y2="867.5537109375" id="line_0" class="solid" />
<line x1="598.388671875" y1="867.5537109375" x2="598.388671875" y2="930.0537109375" id="line_1" class="solid" />
<line x1="598.388671875" y1="930.0537109375" x2="504.638671875" y2="930.0537109375" id="line_2" class="solid" />
<line x1="504.638671875" y1="930.0537109375" x2="504.638671875" y2="867.5537109375" id="line_3" class="solid" />
<line x1="304.6875" y1="15.625" x2="320.3125" y2="15.625" id="line_4" class="solid" />
<line x1="320.3125" y1="15.625" x2="320.3125" y2="-13.427734375" id="line_5" class="solid" />
<line x1="304.6875" y1="-15.625" x2="304.6875" y2="15.625" id="line_6" class="solid" />
<line x1="-15.625" y1="-304.6875" x2="15.625" y2="-304.6875" id="line_7" class="solid" />
<line x1="15.625" y1="-320.3125" x2="-15.625" y2="-320.3125" id="line_8" class="solid" />
<line x1="-320.3125" y1="15.625" x2="-304.6875" y2="15.625" id="line_9" class="solid" />
<line x1="-304.6875" y1="15.625" x2="-304.6875" y2="-15.625" id="line_10" class="solid" />
<line x1="-320.3125" y1="-15.625" x2="-320.3125" y2="15.625" id="line_11" class="solid" />
<line x1="-304.6875" y1="-15.625" x2="-320.3125" y2="-15.625" id="line_12" class="solid" />
<line x1="-15.625" y1="320.3125" x2="15.625" y2="320.3125" id="line_13" class="solid" />
<line x1="15.625" y1="304.6875" x2="-15.625" y2="304.6875" id="line_14" class="solid" />
<line x1="227.386474609375" y1="-202.94189453125" x2="238.433837890625" y2="-213.9892578125" id="line_15" class="solid" />
<line x1="205.352783203125" y1="-225.03662109375" x2="227.386474609375" y2="-202.94189453125" id="line_16" class="solid" />
<line x1="-204.681396484375" y1="229.1259765625" x2="-226.715087890625" y2="207.03125" id="line_18" class="solid" />
<line x1="-237.762451171875" y1="218.07861328125" x2="-215.728759765625" y2="240.17333984375" id="line_19" class="solid" />
<line x1="-226.715087890625" y1="207.03125" x2="-237.762451171875" y2="218.07861328125" id="line_20" class="solid" />
<line x1="-227.47802734375" y1="-203.857421875" x2="-205.413818359375" y2="-225.89111328125" id="line_21" class="solid" />
<line x1="-238.46435546875" y1="-214.874267578125" x2="-227.47802734375" y2="-203.857421875" id="line_22" class="solid" />
<line x1="-216.400146484375" y1="-236.907958984375" x2="-238.46435546875" y2="-214.874267578125" id="line_23" class="solid" />
<line x1="216.796875" y1="237.762451171875" x2="238.861083984375" y2="215.728759765625" id="line_24" class="solid" />
<line x1="238.861083984375" y1="215.728759765625" x2="227.874755859375" y2="204.7119140625" id="line_25" class="solid" />
<line x1="227.874755859375" y1="204.7119140625" x2="205.810546875" y2="226.74560546875" id="line_27" class="solid" />
<line x1="287.445068359375" y1="-99.639892578125" x2="301.849365234375" y2="-105.560302734375" id="line_28" class="solid" />
<line x1="301.849365234375" y1="-105.560302734375" x2="289.947509765625" y2="-134.429931640625" id="line_29" class="solid" />
<line x1="275.543212890625" y1="-128.509521484375" x2="287.445068359375" y2="-99.639892578125" id="line_30" class="solid" />
<line x1="289.947509765625" y1="-134.429931640625" x2="275.543212890625" y2="-128.509521484375" id="line_31" class="solid" />
<line x1="-293.8232421875" y1="131.072998046875" x2="-279.4189453125" y2="125.152587890625" id="line_32" class="solid" />
<line x1="-305.72509765625" y1="102.203369140625" x2="-293.8232421875" y2="131.072998046875" id="line_33" class="solid" />
<line x1="-125.701904296875" y1="-275.604248046875" x2="-96.832275390625" y2="-287.506103515625" id="line_34" class="solid" />
<line x1="-102.752685546875" y1="-301.910400390625" x2="-131.622314453125" y2="-290.008544921875" id="line_35" class="solid" />
<line x1="102.5390625" y1="306.182861328125" x2="107.513427734375" y2="303.89404296875" id="line_36" class="solid" />
<line x1="126.03759765625" y1="279.998779296875" x2="97.16796875" y2="291.900634765625" id="line_38" class="solid" />
<line x1="279.4189453125" y1="123.809814453125" x2="293.914794921875" y2="129.57763671875" id="line_39" class="solid" />
<line x1="293.914794921875" y1="129.57763671875" x2="305.48095703125" y2="100.5859375" id="line_40" class="solid" />
<line x1="290.985107421875" y1="94.818115234375" x2="279.4189453125" y2="123.809814453125" id="line_41" class="solid" />
<line x1="305.48095703125" y1="100.5859375" x2="290.985107421875" y2="94.818115234375" id="line_42" class="solid" />
<line x1="-302.8564453125" y1="-103.240966796875" x2="-288.360595703125" y2="-97.47314453125" id="line_43" class="solid" />
<line x1="-288.360595703125" y1="-97.47314453125" x2="-276.79443359375" y2="-126.46484375" id="line_44" class="solid" />
<line x1="-291.290283203125" y1="-132.232666015625" x2="-302.8564453125" y2="-103.240966796875" id="line_45" class="solid" />
<line x1="-276.79443359375" y1="-126.46484375" x2="-291.290283203125" y2="-132.232666015625" id="line_46" class="solid" />
<line x1="98.480224609375" y1="-287.109375" x2="127.471923828125" y2="-275.5126953125" id="line_47" class="solid" />
<line x1="-98.7548828125" y1="290.618896484375" x2="-127.74658203125" y2="279.022216796875" id="line_49" class="solid" />
<line x1="216.400146484375" y1="-236.083984375" x2="133.23974609375" y2="-290.008544921875" id="line_126" class="solid" />
<line x1="-15.625" y1="-320.3125" x2="-102.752685546875" y2="-301.910400390625" id="line_127" class="solid" />
<line x1="-96.832275390625" y1="-287.506103515625" x2="-15.625" y2="-304.6875" id="line_128" class="solid" />
<line x1="-131.622314453125" y1="-290.008544921875" x2="-216.400146484375" y2="-236.907958984375" id="line_129" class="solid" />
<line x1="-127.74658203125" y1="279.022216796875" x2="-204.681396484375" y2="229.1259765625" id="line_135" class="solid" />
<line x1="-199.920654296875" y1="250.42724609375" x2="-133.514404296875" y2="293.51806640625" id="line_136" class="solid" />
<line x1="100.067138671875" y1="306.793212890625" x2="102.5390625" y2="306.182861328125" id="line_139" class="solid" />
<line x1="-96.0693359375" y1="306.549072265625" x2="-15.625" y2="320.3125" id="line_140" class="solid" />
<line x1="205.810546875" y1="226.74560546875" x2="126.03759765625" y2="279.998779296875" id="line_141" class="solid" />
<line x1="210.784912109375" y1="241.76025390625" x2="216.796875" y2="237.762451171875" id="line_142" class="solid" />
<line x1="-26.458740234375" y1="-56.671142578125" x2="-44.43359375" y2="-43.64013671875" id="line_145" class="solid" />
<line x1="56.671142578125" y1="-26.458740234375" x2="43.64013671875" y2="-44.43359375" id="line_147" class="solid" />
<line x1="-56.671142578125" y1="26.458740234375" x2="-43.64013671875" y2="44.43359375" id="line_150" class="solid" />
<line x1="26.458740234375" y1="56.671142578125" x2="44.43359375" y2="43.64013671875" id="line_152" class="solid" />
<line x1="-22.125244140625" y1="-22.125244140625" x2="-13.336181640625" y2="-28.25927734375" id="line_157" class="solid" />
<line x1="-13.336181640625" y1="-28.25927734375" x2="-26.458740234375" y2="-56.671142578125" id="line_158" class="solid" />
<line x1="-44.43359375" y1="-43.64013671875" x2="-22.125244140625" y2="-22.125244140625" id="line_159" class="solid" />
<line x1="-28.472900390625" y1="12.87841796875" x2="-56.671142578125" y2="26.458740234375" id="line_160" class="solid" />
<line x1="-43.64013671875" y1="44.43359375" x2="-22.125244140625" y2="22.0947265625" id="line_161" class="solid" />
<line x1="13.3056640625" y1="28.228759765625" x2="26.458740234375" y2="56.671142578125" id="line_162" class="solid" />
<line x1="22.552490234375" y1="21.6064453125" x2="13.3056640625" y2="28.228759765625" id="line_163" class="solid" />
<line x1="43.64013671875" y1="-44.43359375" x2="21.54541015625" y2="-22.369384765625" id="line_164" class="solid" />
<line x1="28.1982421875" y1="-13.519287109375" x2="56.671142578125" y2="-26.458740234375" id="line_165" class="solid" />
<line x1="21.54541015625" y1="-22.369384765625" x2="28.1982421875" y2="-13.519287109375" id="line_166" class="solid" />
<line x1="131.9580078125" y1="294.403076171875" x2="210.784912109375" y2="241.76025390625" id="line_169" class="solid" />
<line x1="18.4326171875" y1="319.854736328125" x2="100.067138671875" y2="306.793212890625" id="line_176" class="solid" />
<line x1="15.625" y1="320.3125" x2="18.4326171875" y2="319.854736328125" id="line_178" class="solid" />
<line x1="-103.82080078125" y1="304.87060546875" x2="-96.0693359375" y2="306.549072265625" id="line_183" class="solid" />
<line x1="-215.728759765625" y1="240.17333984375" x2="-199.920654296875" y2="250.42724609375" id="line_188" class="solid" />
<line x1="-109.375" y1="302.490234375" x2="-103.82080078125" y2="304.87060546875" id="line_262" class="solid" />
<line x1="-105.95703125" y1="293.0908203125" x2="-109.375" y2="302.490234375" id="line_264" class="solid" />
<line x1="-124.32861328125" y1="285.82763671875" x2="-105.95703125" y2="293.0908203125" id="line_265" class="solid" />
<line x1="-133.514404296875" y1="293.51806640625" x2="-127.3193359375" y2="295.22705078125" id="line_266" class="solid" />
<line x1="-127.3193359375" y1="295.22705078125" x2="-124.32861328125" y2="285.82763671875" id="line_267" class="solid" />
<line x1="107.513427734375" y1="303.89404296875" x2="103.546142578125" y2="294.37255859375" id="line_269" class="solid" />
<line x1="103.546142578125" y1="294.37255859375" x2="122.98583984375" y2="286.041259765625" id="line_270" class="solid" />
<line x1="126.953125" y1="295.95947265625" x2="131.9580078125" y2="294.403076171875" id="line_271" class="solid" />
<line x1="122.98583984375" y1="286.041259765625" x2="126.953125" y2="295.95947265625" id="line_272" class="solid" />
<line x1="-15.625" y1="304.6875" x2="-15.625" y2="320.3125" id="line_273" class="solid" />
<line x1="15.625" y1="320.3125" x2="15.625" y2="304.6875" id="line_274" class="solid" />
<line x1="-15.625" y1="320.3125" x2="15.625" y2="320.3125" id="line_275" class="solid" />
<line x1="97.16796875" y1="291.900634765625" x2="102.5390625" y2="306.15234375" id="line_276" class="solid" />
<line x1="100.067138671875" y1="306.7626953125" x2="97.16796875" y2="291.900634765625" id="line_278" class="solid" />
<line x1="-103.82080078125" y1="304.8095703125" x2="-98.7548828125" y2="290.618896484375" id="line_285" class="solid" />
<line x1="-95.947265625" y1="307.18994140625" x2="-98.7548828125" y2="290.618896484375" id="line_287" class="solid" />
<line x1="-69.2138671875" y1="357.0556640625" x2="-103.82080078125" y2="304.8095703125" id="line_291" class="solid" />
<line x1="-13.5498046875" y1="337.21923828125" x2="-69.2138671875" y2="357.0556640625" id="line_292" class="solid" />
<line x1="3.2958984375" y1="368.59130859375" x2="-13.5498046875" y2="337.21923828125" id="line_293" class="solid" />
<line x1="16.357421875" y1="337.21923828125" x2="3.2958984375" y2="368.59130859375" id="line_294" class="solid" />
<line x1="82.3974609375" y1="355.95703125" x2="16.357421875" y2="337.21923828125" id="line_295" class="solid" />
<line x1="102.5390625" y1="306.15234375" x2="82.3974609375" y2="355.95703125" id="line_296" class="solid" />
<line x1="44.43359375" y1="43.64013671875" x2="22.552490234375" y2="21.6064453125" id="line_299" class="solid" />
<line x1="-22.125244140625" y1="22.0947265625" x2="-28.472900390625" y2="12.87841796875" id="line_300" class="solid" />
<line x1="15.625" y1="-304.6875" x2="98.480224609375" y2="-287.109375" id="line_311" class="solid" />
<line x1="127.471923828125" y1="-275.5126953125" x2="205.352783203125" y2="-225.03662109375" id="line_313" class="solid" />
<line x1="-205.413818359375" y1="-225.89111328125" x2="-125.701904296875" y2="-275.604248046875" id="line_317" class="solid" />
<line x1="320.3125" y1="-13.427734375" x2="304.6875" y2="-15.625" id="line_322" class="solid" />
<line x1="-279.4189453125" y1="125.152587890625" x2="-291.32080078125" y2="96.282958984375" id="line_327" class="solid" />
<line x1="-291.32080078125" y1="96.282958984375" x2="-305.72509765625" y2="102.203369140625" id="line_328" class="solid" />
<line x1="102.6611328125" y1="-301.94091796875" x2="15.625" y2="-320.3125" id="line_355" class="solid" />
<line x1="133.23974609375" y1="-290.008544921875" x2="102.6611328125" y2="-301.94091796875" id="line_366" class="solid" />
<line x1="238.433837890625" y1="-213.9892578125" x2="216.400146484375" y2="-236.083984375" id="line_367" class="solid" />
<!-- end group: "border_solid" -->
</g>
<!-- end group: "borders" -->
</g>
<g id="poly_teleporter_lines">
<g id="panel_teleporter_lines_p51">
<g id="panel_teleporter_line_group_poly_p51_p58">
<line x1="-116.729736328125" y1="294.158935546875" x2="-48.431396484375" y2="311.737060546875" id="panel_teleporter_border_p51_p58" class="teleporter_border" />
<use xlink:href="../resources/svg/common.svg#arrow" x="-48.431396484375" y="311.737060546875" id="panel_teleporter_head_p51_p58" class="teleporter_line" transform="rotate(14.433122242812198 -48.431396484375 311.737060546875)" />
<line x1="-116.729736328125" y1="294.158935546875" x2="-48.431396484375" y2="311.737060546875" id="panel_teleporter_line_p51_p58" class="teleporter_line" />
<!-- end group: "panel_teleporter_line_group_poly_p51_p58" -->
</g>
<!-- end group: "panel_teleporter_lines_p51" -->
</g>
<g id="panel_teleporter_lines_p52">
<g id="panel_teleporter_line_group_poly_p52_p55">
<line x1="115.234375" y1="295.0439453125" x2="58.319091796875" y2="309.63134765625" id="panel_teleporter_border_p52_p55" class="teleporter_border" />
<use xlink:href="../resources/svg/common.svg#arrow" x="58.319091796875" y="309.63134765625" id="panel_teleporter_head_p52_p55" class="teleporter_line" transform="rotate(165.62451866743328 58.319091796875 309.63134765625)" />
<line x1="115.234375" y1="295.0439453125" x2="58.319091796875" y2="309.63134765625" id="panel_teleporter_line_p52_p55" class="teleporter_line" />
<!-- end group: "panel_teleporter_line_group_poly_p52_p55" -->
</g>
<!-- end group: "panel_teleporter_lines_p52" -->
</g>
<!-- end group: "poly_teleporter_lines" -->
</g>
<g id="objects">
<g id="objects_item">
<use xlink:href="../resources/svg/common.svg#item" x="124.8779296875" y="323.54736328125" id="object_3" class="item item-9" />
<use xlink:href="../resources/svg/common.svg#item" x="-127.716064453125" y="321.6552734375" id="object_4" class="item item-9" />
<use xlink:href="../resources/svg/common.svg#item" x="1.89208984375" y="346.25244140625" id="object_5" class="item item-8" />
<use xlink:href="../resources/svg/common.svg#item" x="61.492919921875" y="336.7919921875" id="object_6" class="item item-5" />
<use xlink:href="../resources/svg/common.svg#item" x="-62.43896484375" y="336.7919921875" id="object_7" class="item item-3" />
<use xlink:href="../resources/svg/common.svg#item" x="-55.816650390625" y="309.356689453125" id="object_8" class="item item-4" />
<use xlink:href="../resources/svg/common.svg#item" x="58.65478515625" y="308.41064453125" id="object_9" class="item item-9" />
<use xlink:href="../resources/svg/common.svg#item" x="187.5" y="287.109375" id="object_10" class="item item-20" />
<use xlink:href="../resources/svg/common.svg#item" x="-189.453125" y="289.0625" id="object_11" class="item item-20" />
<use xlink:href="../resources/svg/common.svg#item" x="1.953125" y="293.9453125" id="object_12" class="item item-9" />
<use xlink:href="../resources/svg/common.svg#item" x="107.421875" y="276.3671875" id="object_13" class="item item-7" />
<use xlink:href="../resources/svg/common.svg#item" x="-109.375" y="276.3671875" id="object_14" class="item item-7" />
<use xlink:href="../resources/svg/common.svg#item" x="-209.9609375" y="209.9609375" id="object_15" class="item item-4" />
<use xlink:href="../resources/svg/common.svg#item" x="-317.3828125" y="130.859375" id="object_16" class="item item-9" />
<use xlink:href="../resources/svg/common.svg#item" x="-276.3671875" y="106.4453125" id="object_17" class="item item-6" />
<use xlink:href="../resources/svg/common.svg#item" x="-292.96875" y="-2.9296875" id="object_18" class="item item-7" />
<use xlink:href="../resources/svg/common.svg#item" x="-334.9609375" y="-0.9765625" id="object_19" class="item item-4" />
<use xlink:href="../resources/svg/common.svg#item" x="-274.4140625" y="-108.3984375" id="object_21" class="item item-6" />
<use xlink:href="../resources/svg/common.svg#item" x="-315.4296875" y="-126.953125" id="object_22" class="item item-9" />
<use xlink:href="../resources/svg/common.svg#item" x="-210.9375" y="-211.9140625" id="object_23" class="item item-4" />
<use xlink:href="../resources/svg/common.svg#item" x="-187.5" y="-291.015625" id="object_25" class="item item-20" transform="rotate(135.703125 -187.5 -291.015625)" />
<use xlink:href="../resources/svg/common.svg#item" x="-129.8828125" y="-317.3828125" id="object_26" class="item item-9" transform="rotate(135.0 -129.8828125 -317.3828125)" />
<use xlink:href="../resources/svg/common.svg#item" x="-74.21875" y="-337.890625" id="object_27" class="item item-5" transform="rotate(135.0 -74.21875 -337.890625)" />
<use xlink:href="../resources/svg/common.svg#item" x="72.265625" y="-333.984375" id="object_29" class="item item-3" transform="rotate(0.703125 72.265625 -333.984375)" />
<use xlink:href="../resources/svg/common.svg#item" x="128.90625" y="-318.359375" id="object_30" class="item item-9" />
<use xlink:href="../resources/svg/common.svg#item" x="191.40625" y="-284.1796875" id="object_31" class="item item-20" />
<use xlink:href="../resources/svg/common.svg#item" x="0.9765625" y="-293.9453125" id="object_33" class="item item-9" transform="rotate(45.0 0.9765625 -293.9453125)" />
<use xlink:href="../resources/svg/common.svg#item" x="-45.8984375" y="-67.3828125" id="object_34" class="item item-8" transform="rotate(45.0 -45.8984375 -67.3828125)" />
<use xlink:href="../resources/svg/common.svg#item" x="-61.5234375" y="44.921875" id="object_35" class="item item-5" transform="rotate(45.0 -61.5234375 44.921875)" />
<use xlink:href="../resources/svg/common.svg#item" x="60.546875" y="-45.8984375" id="object_36" class="item item-5" transform="rotate(45.0 60.546875 -45.8984375)" />
<use xlink:href="../resources/svg/common.svg#item" x="42.96875" y="60.546875" id="object_37" class="item item-8" transform="rotate(45.0 42.96875 60.546875)" />
<use xlink:href="../resources/svg/common.svg#item" x="0.9765625" y="-0.9765625" id="object_38" class="item item-26" transform="rotate(45.0 0.9765625 -0.9765625)" />
<use xlink:href="../resources/svg/common.svg#item" x="306.640625" y="-120.1171875" id="object_39" class="item item-6" transform="rotate(45.0 306.640625 -120.1171875)" />
<use xlink:href="../resources/svg/common.svg#item" x="322.265625" y="-129.8828125" id="object_40" class="item item-9" transform="rotate(45.0 322.265625 -129.8828125)" />
<use xlink:href="../resources/svg/common.svg#item" x="345.703125" y="0.9765625" id="object_41" class="item item-4" transform="rotate(45.0 345.703125 0.9765625)" />
<use xlink:href="../resources/svg/common.svg#item" x="316.40625" y="122.0703125" id="object_43" class="item item-9" transform="rotate(174.375 316.40625 122.0703125)" />
<use xlink:href="../resources/svg/common.svg#item" x="286.1328125" y="0.0" id="object_44" class="item item-6" transform="rotate(173.671875 286.1328125 0.0)" />
<use xlink:href="../resources/svg/common.svg#item" x="273.4375" y="103.515625" id="object_45" class="item item-7" transform="rotate(172.96875 273.4375 103.515625)" />
<use xlink:href="../resources/svg/common.svg#item" x="10.7421875" y="-244.140625" id="object_46" class="item item-8" />
<!-- end group: "objects_item" -->
</g>
<g id="objects_player">
<use xlink:href="../resources/svg/common.svg#monster" x="0.701904296875" y="329.58984375" id="object_0" class="player" transform="rotate(178.59375 0.701904296875 329.58984375)" />
<use xlink:href="../resources/svg/common.svg#monster" x="244.81201171875" y="245.452880859375" id="object_1" class="player" transform="rotate(312.890625 244.81201171875 245.452880859375)" />
<use xlink:href="../resources/svg/common.svg#monster" x="-244.171142578125" y="247.37548828125" id="object_2" class="player" transform="rotate(229.921875 -244.171142578125 247.37548828125)" />
<use xlink:href="../resources/svg/common.svg#monster" x="-357.421875" y="-3.90625" id="object_20" class="player" />
<use xlink:href="../resources/svg/common.svg#monster" x="-245.1171875" y="-253.90625" id="object_24" class="player" transform="rotate(136.40625 -245.1171875 -253.90625)" />
<use xlink:href="../resources/svg/common.svg#monster" x="1.953125" y="-343.75" id="object_28" class="player" transform="rotate(1.40625 1.953125 -343.75)" />
<use xlink:href="../resources/svg/common.svg#monster" x="244.140625" y="-250.9765625" id="object_32" class="player" transform="rotate(45.703125 244.140625 -250.9765625)" />
<use xlink:href="../resources/svg/common.svg#monster" x="357.421875" y="0.9765625" id="object_42" class="player" transform="rotate(175.78125 357.421875 0.9765625)" />
<!-- end group: "objects_player" -->
</g>
<!-- end group: "objects" -->
</g>
<g id="panels">
<!-- end group: "panels" -->
</g>

<script xlink:href="../resources/js/level.js" ></script>
</svg>