<?xml version="1.0" encoding="UTF-8"?>
<!-- generated by map2svg: github.com/fracai/marathon-svg -->
<svg xmlns="http://www.w3.org/2000/svg" xmlns:xlink="http://www.w3.org/1999/xlink" version="1.1"
    viewBox="-597.65625 -515.625 988.28125 953.125">
<link xmlns="http://www.w3.org/1999/xhtml" rel="stylesheet" href="../resources/css/styles.css" type="text/css" />
<style id="dynamic-style" />
<g id="background-grid">
<defs>
<pattern id="grid_minor" width="3.125" height="3.125" patternUnits="userSpaceOnUse">
<path d="M 3.125 0 L 0 0 0 3.125" fill="none" class="grid_minor" />
</pattern>
<pattern id="grid_major" width="31.25" height="31.25" patternUnits="userSpaceOnUse">
<rect width="31.25" height="31.25" fill="url(#grid_minor)"/>
<path d="M 31.25 0 L 0 0 0 31.25" fill="none" class="grid_major" />
</pattern>
</defs>
<rect x="-1000" y="-1000" width="2000" height="2000" fill="url(#grid_major)" />
<line x1="0" y1="1000" x2="0" y2="-1000" class="grid_origin" />
<line x1="1000" y1="0" x2="-1000" y2="0" class="grid_origin" />
<!-- end group: "background-grid" -->
</g>
<g id="polygons">
<polygon points="-164.55078125,190.91796875 -128.90625,226.5625 -187.5,285.15625 -195.3125,277.34375 -214.84375,257.8125 -222.65625,250.0" id="poly_36" class="plain" />
<polygon points="-253.90625,296.875 -214.84375,257.8125 -195.3125,277.34375 -234.375,316.40625" id="poly_37" class="plain" />
<polygon points="-398.4375,-363.28125 -318.359375,-443.359375 -332.03125,-371.09375 -371.09375,-332.03125" id="poly_57" class="plain" />
<polygon points="-318.359375,-443.359375 -281.25,-406.25 -324.21875,-363.28125 -332.03125,-371.09375" id="poly_58" class="plain" />
<polygon points="-507.8125,-191.40625 -457.03125,-191.40625 -457.03125,-121.09375 -507.8125,-93.75" id="poly_74" class="plain" />
<polygon points="-507.8125,-93.75 -457.03125,-121.09375 -425.78125,-89.84375 -464.84375,-50.78125" id="poly_75" class="plain" />
<polygon points="-97.65625,-66.40625 15.625,-66.40625 15.625,-15.625 -97.65625,-15.625" id="poly_82" class="plain" />
<polygon points="15.625,-66.40625 38.0859375,-66.40625 38.0859375,-15.625 15.625,-15.625" id="poly_83" class="plain" />
<polygon points="15.625,-312.5 39.0625,-312.5 39.0625,-253.90625 31.25,-253.90625 3.90625,-257.8125 3.90625,-300.78125" id="poly_107" class="plain" />
<polygon points="3.90625,-257.8125 31.25,-253.90625 31.25,-203.125 3.90625,-203.125" id="poly_108" class="plain" />
<polygon points="3.90625,-203.125 31.25,-203.125 31.25,-175.78125 7.8125,-152.34375 -11.71875,-187.5" id="poly_109" class="plain" />
<polygon points="-15.625,-191.40625 -11.71875,-187.5 7.8125,-152.34375 -11.71875,-132.8125 -35.15625,-132.8125 -54.6875,-152.34375" id="poly_110" class="plain" />
<polygon points="50.78125,195.3125 62.5,230.46875 46.875,246.09375 23.4375,222.65625" id="poly_21" class="plain" />
<polygon points="50.78125,195.3125 50.78125,167.96875 50.78125,152.34375 85.9375,152.34375 85.9375,167.96875 85.9375,195.3125 74.21875,230.46875 62.5,230.46875" id="poly_22" class="plain" />
<polygon points="74.21875,230.46875 85.9375,195.3125 113.28125,222.65625 89.84375,246.09375" id="poly_25" class="plain" />
<polygon points="-269.53125,289.0625 -261.71875,296.875 -273.4375,324.21875 -289.0625,308.59375" id="poly_38" class="plain" />
<polygon points="-261.71875,296.875 -253.90625,296.875 -234.375,316.40625 -242.1875,324.21875 -273.4375,324.21875" id="poly_48" class="plain" />
<polygon points="39.0625,117.1875 97.65625,117.1875 97.65625,144.53125 85.9375,152.34375 50.78125,152.34375 39.0625,144.53125" id="poly_81" class="plain" />
<polygon points="113.28125,-101.5625 117.1875,-105.46875 156.25,-66.40625 140.625,-50.78125" id="poly_93" class="plain" />
<polygon points="98.6328125,-101.5625 113.28125,-101.5625 140.625,-50.78125 98.6328125,-50.78125" id="poly_94" class="plain" />
<polygon points="54.6875,253.90625 82.03125,253.90625 121.09375,367.1875 15.625,367.1875" id="poly_26" class="plain" />
<polygon points="-15.625,261.71875 23.4375,222.65625 46.875,246.09375 54.6875,253.90625 15.625,367.1875 -15.625,367.1875" id="poly_27" class="plain" />
<polygon points="-93.75,261.71875 -15.625,261.71875 -15.625,367.1875 -105.46875,367.1875 -148.4375,324.21875" id="poly_28" class="plain" />
<polygon points="-285.15625,15.625 -210.9375,42.96875 -210.9375,144.53125 -285.15625,187.5" id="poly_30" class="plain" />
<polygon points="-316.40625,-15.625 -152.34375,-15.625 -210.9375,42.96875 -285.15625,15.625" id="poly_31" class="plain" />
<polygon points="82.03125,253.90625 89.84375,246.09375 113.28125,222.65625 160.15625,269.53125 160.15625,328.125 121.09375,367.1875" id="poly_32" class="plain" />
<polygon points="-128.90625,226.5625 -93.75,261.71875 -148.4375,324.21875 -187.5,285.15625" id="poly_33" class="plain" />
<polygon points="-285.15625,187.5 -210.9375,144.53125 -164.55078125,190.91796875 -222.65625,250.0" id="poly_34" class="plain" />
<polygon points="-464.84375,-50.78125 -425.78125,-89.84375 -406.25,-89.84375 -406.25,-15.625 -429.6875,-15.625" id="poly_70" class="plain" />
<polygon points="-441.40625,-363.28125 -398.4375,-363.28125 -371.09375,-332.03125 -457.03125,-246.09375 -492.1875,-246.09375 -511.71875,-265.625 -511.71875,-292.96875" id="poly_77" class="plain" />
<polygon points="-492.1875,-246.09375 -457.03125,-246.09375 -457.03125,-210.9375 -507.8125,-214.84375 -515.625,-222.65625 -503.90625,-234.375" id="poly_78" class="plain" />
<polygon points="-507.8125,-214.84375 -457.03125,-210.9375 -457.03125,-191.40625 -507.8125,-191.40625" id="poly_79" class="plain" />
<polygon points="39.0625,-253.90625 97.65625,-257.8125 98.6328125,-101.5625 98.6328125,-50.78125 97.65625,117.1875 39.0625,117.1875 38.0859375,-15.625 38.0859375,-66.40625" id="poly_95" class="plain" />
<polygon points="-406.25,-89.84375 -375.0,-121.09375 -335.9375,-121.09375 -97.65625,-66.40625 -97.65625,-15.625 -152.34375,-15.625 -316.40625,-15.625 -406.25,-15.625" id="poly_96" class="plain" />
<polygon points="39.0625,-312.5 97.65625,-257.8125 39.0625,-253.90625" id="poly_97" class="plain" />
<polygon points="195.3125,-421.875 214.84375,-421.875 214.84375,-402.34375" id="poly_116" class="plain" />
<polygon points="140.625,-421.875 195.3125,-421.875 214.84375,-402.34375 214.84375,-375.0 97.65625,-257.8125 39.0625,-312.5 39.0625,-320.3125" id="poly_118" class="plain" />
<polygon points="-203.125,-406.25 -93.75,-406.25 0.0,-320.3125 0.0,-207.03125 -15.625,-191.40625 -204.1015625,-329.58984375 -206.54296875,-338.37890625" id="poly_120" class="plain" />
<polygon points="-292.96875,-242.1875 -212.890625,-326.66015625 -204.1015625,-329.58984375 -15.625,-191.40625 -54.6875,-152.34375 -206.0546875,-157.2265625 -215.33203125,-159.1796875" id="poly_121" class="plain" />
<polygon points="-208.49609375,-148.4375 -206.0546875,-157.2265625 -54.6875,-152.34375 -62.5,-144.53125 -97.65625,-109.375" id="poly_122" class="plain" />
<polygon points="-335.9375,-203.125 -300.78125,-238.28125 -292.96875,-242.1875 -215.33203125,-159.1796875 -217.28515625,-150.87890625 -335.9375,-140.625" id="poly_123" class="plain" />
<polygon points="-300.78125,-300.78125 -212.890625,-326.66015625 -292.96875,-242.1875 -300.78125,-238.28125" id="poly_124" class="plain" />
<polygon points="-343.75,-343.75 -215.8203125,-334.47265625 -212.890625,-326.66015625 -300.78125,-300.78125" id="poly_125" class="plain" />
<polygon points="-328.125,-359.375 -324.21875,-363.28125 -281.25,-406.25 -203.125,-406.25 -206.54296875,-338.37890625 -215.8203125,-334.47265625 -343.75,-343.75" id="poly_126" class="plain" />
<polygon points="-335.9375,-121.09375 -335.9375,-140.625 -217.28515625,-150.87890625 -208.49609375,-148.4375 -97.65625,-109.375 -97.65625,-70.3125 -97.65625,-66.40625" id="poly_129" class="plain" />
<polygon points="117.1875,-105.46875 128.90625,-117.1875 167.96875,-78.125 156.25,-66.40625" id="poly_92" class="plain" />
<polygon points="-523.4375,-253.90625 -511.71875,-265.625 -492.1875,-246.09375 -503.90625,-234.375" id="poly_69" class="plain" />
<polygon points="-375.0,-312.5 -347.65625,-339.84375 -343.75,-343.75 -300.78125,-300.78125 -300.78125,-238.28125 -335.9375,-203.125 -375.0,-203.125" id="poly_128" class="hill" />
<polygon points="-281.25,277.34375 -269.53125,289.0625 -289.0625,308.59375 -300.78125,296.875" id="poly_39" class="plain" />
<polygon points="128.90625,-117.1875 140.625,-128.90625 179.6875,-89.84375 167.96875,-78.125" id="poly_91" class="plain" />
<polygon points="-535.15625,-242.1875 -523.4375,-253.90625 -503.90625,-234.375 -515.625,-222.65625" id="poly_68" class="plain" />
<polygon points="-215.8203125,-334.47265625 -206.54296875,-338.37890625 -204.1015625,-329.58984375 -212.890625,-326.66015625" id="poly_105" class="plain" />
<polygon points="-215.33203125,-159.1796875 -206.0546875,-157.2265625 -208.49609375,-148.4375 -217.28515625,-150.87890625" id="poly_106" class="plain" />
<polygon points="-292.96875,265.625 -281.25,277.34375 -300.78125,296.875 -312.5,285.15625" id="poly_40" class="plain" />
<polygon points="-546.875,-230.46875 -535.15625,-242.1875 -515.625,-222.65625 -527.34375,-210.9375" id="poly_67" class="plain" />
<polygon points="-558.59375,-218.75 -546.875,-230.46875 -527.34375,-210.9375 -539.0625,-199.21875" id="poly_66" class="plain" />
<polygon points="140.625,-128.90625 152.34375,-140.625 191.40625,-101.5625 179.6875,-89.84375" id="poly_90" class="plain" />
<polygon points="-304.6875,253.90625 -292.96875,265.625 -312.5,285.15625 -324.21875,273.4375" id="poly_41" class="plain" />
<polygon points="-566.40625,-210.9375 -558.59375,-218.75 -539.0625,-199.21875 -542.96875,-195.3125 -566.40625,-195.3125" id="poly_65" class="plain" />
<polygon points="-566.40625,-195.3125 -542.96875,-195.3125 -542.96875,-183.59375 -542.96875,-179.6875 -566.40625,-179.6875" id="poly_64" class="plain" />
<polygon points="152.34375,-140.625 164.0625,-152.34375 203.125,-113.28125 191.40625,-101.5625" id="poly_89" class="plain" />
<polygon points="-316.40625,242.1875 -304.6875,253.90625 -324.21875,273.4375 -335.9375,261.71875" id="poly_42" class="plain" />
<polygon points="-566.40625,-179.6875 -542.96875,-179.6875 -542.96875,-164.0625 -566.40625,-164.0625" id="poly_63" class="plain" />
<polygon points="62.5,242.1875 74.21875,242.1875 82.03125,253.90625 54.6875,253.90625" id="poly_104" class="teleporter" />
<polygon points="-328.125,230.46875 -316.40625,242.1875 -335.9375,261.71875 -347.65625,250.0" id="poly_43" class="plain" />
<polygon points="-566.40625,-164.0625 -542.96875,-164.0625 -542.96875,-148.4375 -566.40625,-148.4375" id="poly_62" class="plain" />
<polygon points="164.0625,-152.34375 175.78125,-164.0625 214.84375,-125.0 203.125,-113.28125" id="poly_88" class="plain" />
<polygon points="-566.40625,-148.4375 -542.96875,-148.4375 -542.96875,-132.8125 -566.40625,-132.8125" id="poly_61" class="plain" />
<polygon points="-339.84375,218.75 -328.125,230.46875 -347.65625,250.0 -359.375,238.28125" id="poly_44" class="plain" />
<polygon points="0.0,-207.03125 0.0,-203.125 -11.71875,-191.40625 -15.625,-191.40625" id="poly_130" class="landscape_" />
<polygon points="-54.6875,-152.34375 -54.6875,-148.4375 -58.59375,-144.53125 -62.5,-144.53125" id="poly_131" class="landscape_" />
<polygon points="-97.65625,-70.3125 -94.7265625,-68.359375 -97.65625,-66.40625" id="poly_132" class="landscape_" />
<polygon points="-378.90625,-203.125 -375.0,-203.125 -375.0,-171.875 -378.90625,-171.875" id="poly_76" class="plain" />
<polygon points="-398.4375,-296.875 -386.71875,-296.875 -378.90625,-285.15625 -406.25,-285.15625" id="poly_103" class="teleporter" />
<polygon points="-375.0,-171.875 -375.0,-203.125 -335.9375,-203.125 -335.9375,-140.625 -335.9375,-121.09375 -375.0,-121.09375" id="poly_127" class="hill" />
<polygon points="-542.96875,-164.0625 -542.96875,-179.6875 -542.96875,-183.59375 -511.71875,-183.59375 -472.65625,-50.78125 -542.96875,-132.8125 -542.96875,-148.4375" id="poly_59" class="plain" />
<polygon points="-566.40625,-132.8125 -542.96875,-132.8125 -472.65625,-50.78125 -507.8125,-15.625 -566.40625,-74.21875" id="poly_60" class="plain" />
<polygon points="-511.71875,-183.59375 -449.21875,-183.59375 -425.78125,-97.65625 -472.65625,-50.78125" id="poly_71" class="plain" />
<polygon points="-449.21875,-242.1875 -406.25,-285.15625 -378.90625,-285.15625 -378.90625,-203.125 -378.90625,-171.875 -449.21875,-187.5" id="poly_72" class="plain" />
<polygon points="-449.21875,-183.59375 -449.21875,-187.5 -378.90625,-171.875 -378.90625,-125.0 -406.25,-97.65625 -425.78125,-97.65625" id="poly_73" class="plain" />
<polygon points="175.78125,-164.0625 187.5,-175.78125 226.5625,-136.71875 214.84375,-125.0" id="poly_87" class="plain" />
<polygon points="-351.5625,207.03125 -339.84375,218.75 -359.375,238.28125 -371.09375,226.5625" id="poly_45" class="plain" />
<polygon points="-507.8125,-15.625 -472.65625,-50.78125 -468.26171875,-46.38671875 -433.59375,-11.71875 -429.6875,-7.8125 -464.84375,27.34375" id="poly_139" class="plain" />
<polygon points="257.8125,-343.75 265.625,-335.9375 250.0,-320.3125 242.1875,-328.125" id="poly_11" class="secret_platform" />
<polygon points="31.25,144.53125 39.0625,144.53125 50.78125,152.34375 50.78125,167.96875 31.25,167.96875" id="poly_23" class="secret_platform" />
<polygon points="97.65625,144.53125 105.46875,144.53125 105.46875,167.96875 85.9375,167.96875 85.9375,152.34375" id="poly_24" class="secret_platform" />
<polygon points="117.1875,113.28125 148.4375,113.28125 148.4375,121.09375 117.1875,121.09375" id="poly_101" class="secret_platform" />
<polygon points="-3.90625,-3.90625 31.25,-3.90625 31.25,113.28125 -42.96875,46.875 -42.96875,39.0625" id="poly_0" class="plain" />
<polygon points="-429.6875,62.5 -292.96875,19.53125 -292.96875,187.5 -347.65625,199.21875 -355.46875,199.21875 -382.8125,199.21875 -429.6875,152.34375" id="poly_1" class="plain" />
<polygon points="-429.6875,-7.8125 -320.3125,-7.8125 -292.96875,19.53125 -429.6875,62.5 -464.84375,27.34375" id="poly_2" class="plain" />
<polygon points="-273.4375,-484.375 -121.09375,-484.375 -97.65625,-460.9375 -117.1875,-441.40625 -253.90625,-441.40625" id="poly_3" class="plain" />
<polygon points="-117.1875,-441.40625 -97.65625,-460.9375 -74.21875,-437.5 -93.75,-417.96875" id="poly_4" class="plain" />
<polygon points="-93.75,-406.25 -93.75,-417.96875 -74.21875,-437.5 7.8125,-355.46875 0.0,-320.3125" id="poly_5" class="plain" />
<polygon points="125.0,-449.21875 140.625,-449.21875 140.625,-421.875 39.0625,-320.3125 31.25,-355.46875" id="poly_6" class="plain" />
<polygon points="210.9375,-359.375 242.1875,-359.375 257.8125,-343.75 242.1875,-328.125 179.6875,-265.625 164.0625,-250.0 132.8125,-281.25" id="poly_10" class="plain" />
<polygon points="187.5,-257.8125 359.375,-191.40625 304.6875,-136.71875 226.5625,-136.71875 187.5,-175.78125" id="poly_12" class="plain" />
<polygon points="-207.03125,367.1875 -207.03125,339.84375 -191.40625,289.0625 -152.34375,328.125 -109.375,371.09375 -109.375,406.25 -167.96875,406.25" id="poly_13" class="plain" />
<polygon points="-191.40625,289.0625 -187.5,285.15625 -148.4375,324.21875 -152.34375,328.125" id="poly_14" class="plain" />
<polygon points="-277.34375,269.53125 -226.5625,253.90625 -222.65625,257.8125 -195.3125,285.15625 -191.40625,289.0625 -207.03125,339.84375" id="poly_15" class="plain" />
<polygon points="-222.65625,257.8125 -156.25,191.40625 -128.90625,218.75 -195.3125,285.15625" id="poly_16" class="plain" />
<polygon points="-210.9375,144.53125 -204.58984375,141.6015625 -160.15625,187.5 -164.55078125,190.91796875" id="poly_17" class="plain" />
<polygon points="-128.90625,226.5625 -125.0,222.65625 -89.84375,253.90625 -93.75,261.71875" id="poly_18" class="plain" />
<polygon points="-89.84375,253.90625 -19.53125,253.90625 -15.625,261.71875 -93.75,261.71875" id="poly_19" class="plain" />
<polygon points="19.53125,218.75 23.4375,222.65625 -15.625,261.71875 -19.53125,253.90625" id="poly_20" class="plain" />
<polygon points="-347.65625,199.21875 -292.96875,187.5 -226.5625,253.90625 -277.34375,269.53125" id="poly_29" class="plain" />
<polygon points="-292.96875,187.5 -285.15625,187.5 -222.65625,250.0 -226.5625,253.90625" id="poly_35" class="plain" />
<polygon points="-382.8125,199.21875 -355.46875,199.21875 -355.46875,203.125 -382.8125,214.84375" id="poly_46" class="plain" />
<polygon points="-382.8125,214.84375 -355.46875,203.125 -351.5625,207.03125 -371.09375,226.5625" id="poly_47" class="plain" />
<polygon points="-304.6875,-453.125 -273.4375,-484.375 -253.90625,-441.40625 -281.25,-414.0625 -312.5,-445.3125" id="poly_49" class="plain" />
<polygon points="273.4375,-359.375 320.3125,-367.1875 320.3125,-335.9375 273.4375,-335.9375" id="poly_50" class="plain" />
<polygon points="250.0,-320.3125 265.625,-335.9375 273.4375,-335.9375 320.3125,-335.9375 332.03125,-335.9375 359.375,-308.59375 359.375,-191.40625 187.5,-257.8125" id="poly_51" class="plain" />
<polygon points="-203.125,50.78125 -148.4375,-3.90625 -101.5625,-3.90625 -50.78125,46.875 -204.58984375,141.6015625" id="poly_52" class="plain" />
<polygon points="31.25,144.53125 31.25,167.96875 31.25,207.03125 19.53125,218.75 -19.53125,253.90625 -89.84375,253.90625 -125.0,222.65625 -128.90625,218.75" id="poly_53" class="plain" />
<polygon points="-93.75,-70.3125 -58.59375,-74.21875 -58.59375,-27.34375 -93.75,-27.34375" id="poly_54" class="plain" />
<polygon points="-312.5,-445.3125 -281.25,-414.0625 -332.03125,-363.28125 -347.65625,-347.65625 -359.375,-359.375 -359.375,-398.4375" id="poly_55" class="plain" />
<polygon points="-332.03125,-363.28125 -328.125,-359.375 -343.75,-343.75 -347.65625,-347.65625" id="poly_56" class="plain" />
<polygon points="-35.15625,-3.90625 -3.90625,-3.90625 -42.96875,39.0625" id="poly_80" class="plain" />
<polygon points="-93.75,-11.71875 -93.75,-27.34375 -58.59375,-27.34375 -35.15625,-3.90625 -42.96875,39.0625" id="poly_84" class="plain" />
<polygon points="105.46875,144.53125 105.46875,132.8125 117.1875,121.09375 148.4375,121.09375 160.15625,132.8125 160.15625,167.96875 105.46875,167.96875" id="poly_85" class="plain" />
<polygon points="105.46875,183.59375 105.46875,167.96875 160.15625,167.96875 160.15625,203.125 125.0,203.125" id="poly_86" class="plain" />
<polygon points="105.46875,-218.75 125.0,-218.75 125.0,82.03125 105.682373046875,82.03125" id="poly_99" class="plain" />
<polygon points="105.682373046875,82.03125 125.0,82.03125 148.4375,93.75 148.4375,113.28125 117.1875,113.28125 105.46875,101.5625" id="poly_100" class="plain" />
<polygon points="-62.5,-144.53125 -58.59375,-140.625 -42.96875,-89.84375 -58.59375,-74.21875 -93.75,-70.3125 -97.65625,-70.3125 -97.65625,-109.375" id="poly_111" class="plain" />
<polygon points="-58.59375,-140.625 3.90625,-203.125 35.15625,-167.96875 -42.96875,-89.84375" id="poly_112" class="plain" />
<polygon points="0.0,-320.3125 35.15625,-320.3125 35.15625,-210.9375 3.90625,-207.03125 0.0,-207.03125" id="poly_113" class="plain" />
<polygon points="3.90625,-207.03125 35.15625,-210.9375 35.15625,-167.96875 3.90625,-203.125" id="poly_114" class="plain" />
<polygon points="7.8125,-355.46875 31.25,-355.46875 39.0625,-320.3125 35.15625,-320.3125 0.0,-320.3125" id="poly_115" class="plain" />
<polygon points="140.625,-449.21875 238.28125,-449.21875 253.90625,-433.59375 222.65625,-421.875 214.84375,-421.875 195.3125,-421.875 140.625,-421.875" id="poly_117" class="plain" />
<polygon points="222.65625,-421.875 253.90625,-433.59375 320.3125,-367.1875 273.4375,-359.375 253.90625,-359.375 222.65625,-390.625" id="poly_119" class="plain" />
<polygon points="-50.78125,46.875 -42.96875,46.875 31.25,113.28125 31.25,144.53125 -128.90625,218.75 -156.25,191.40625 -160.15625,187.5" id="poly_140" class="plain" />
<polygon points="-50.78125,46.875 -160.15625,187.5 -204.58984375,141.6015625" id="poly_141" class="plain" />
<polygon points="136.71875,-164.0625 140.625,-179.6875 160.15625,-160.15625 144.53125,-156.25" id="poly_102" class="teleporter" />
<polygon points="164.0625,-250.0 179.6875,-265.625 179.6875,-238.28125 164.0625,-238.28125" id="poly_7" class="plain" />
<polygon points="140.625,-226.5625 152.34375,-238.28125 164.0625,-238.28125 179.6875,-238.28125 179.6875,-179.6875 160.15625,-160.15625 140.625,-179.6875" id="poly_8" class="plain" />
<polygon points="105.46875,-253.90625 121.09375,-269.53125 152.34375,-238.28125 140.625,-226.5625 132.8125,-226.5625" id="poly_9" class="plain" />
<polygon points="105.46875,-253.90625 132.8125,-226.5625 125.0,-218.75 105.46875,-218.75" id="poly_98" class="plain" />
<polygon points="-378.90625,-308.59375 -375.0,-312.5 -375.0,-203.125 -378.90625,-207.03125" id="poly_138" class="landscape_" />
<polygon points="-425.78125,-97.65625 -390.625,-121.09375 -375.0,-121.09375 -406.25,-89.84375 -425.78125,-89.84375" id="poly_133" class="plain" />
<polygon points="-480.46875,-347.65625 -402.34375,-300.78125 -402.34375,-132.8125 -437.5,-109.375 -523.4375,-195.3125 -523.4375,-304.6875" id="poly_134" class="plain" />
<polygon points="-445.3125,-382.8125 -390.625,-382.8125 -390.625,-312.5 -402.34375,-300.78125 -480.46875,-347.65625" id="poly_135" class="plain" />
<polygon points="-390.625,-382.8125 -347.65625,-339.84375 -375.0,-312.5 -390.625,-312.5" id="poly_136" class="plain" />
<polygon points="-437.5,-109.375 -402.34375,-132.8125 -390.625,-121.09375 -425.78125,-97.65625" id="poly_137" class="plain" />
<!-- end group: "polygons" -->
</g>
<g id="borders">
<g id="border_unconnected">
<line x1="156.25" y1="-31.25" x2="156.25" y2="-3.90625" id="line_499" class="unconnected" />
<line x1="156.25" y1="-31.25" x2="187.5" y2="-31.25" id="line_500" class="unconnected" />
<line x1="156.25" y1="-3.90625" x2="156.25" y2="31.25" id="line_501" class="unconnected" />
<line x1="156.25" y1="-3.90625" x2="175.78125" y2="-3.90625" id="line_502" class="unconnected" />
<line x1="187.5" y1="31.25" x2="207.03125" y2="-31.25" id="line_503" class="unconnected" />
<line x1="207.03125" y1="-31.25" x2="218.75" y2="-3.90625" id="line_504" class="unconnected" />
<line x1="218.75" y1="-3.90625" x2="230.46875" y2="-31.25" id="line_505" class="unconnected" />
<line x1="230.46875" y1="-31.25" x2="246.09375" y2="31.25" id="line_506" class="unconnected" />
<!-- end group: "border_unconnected" -->
</g>
<g id="border_plain">
<line x1="-19.53125" y1="253.90625" x2="19.53125" y2="218.75" id="line_38" class="plain" />
<line x1="-89.84375" y1="253.90625" x2="-19.53125" y2="253.90625" id="line_39" class="plain" />
<line x1="-125.0" y1="222.65625" x2="-89.84375" y2="253.90625" id="line_40" class="plain" />
<line x1="-156.25" y1="191.40625" x2="-128.90625" y2="218.75" id="line_65" class="plain" />
<line x1="-58.59375" y1="-27.34375" x2="-93.75" y2="-27.34375" id="line_78" class="plain" />
<line x1="-42.96875" y1="39.0625" x2="-3.90625" y2="-3.90625" id="line_79" class="plain" />
<line x1="132.8125" y1="-226.5625" x2="105.46875" y2="-253.90625" id="line_80" class="plain" />
<line x1="-204.58984375" y1="141.6015625" x2="-160.15625" y2="187.5" id="line_107" class="plain" />
<line x1="-292.96875" y1="187.5" x2="-226.5625" y2="253.90625" id="line_112" class="plain" />
<line x1="-191.40625" y1="289.0625" x2="-152.34375" y2="328.125" id="line_117" class="plain" />
<line x1="-355.46875" y1="199.21875" x2="-382.8125" y2="199.21875" id="line_126" class="plain" />
<line x1="-195.3125" y1="277.34375" x2="-214.84375" y2="257.8125" id="line_134" class="plain" />
<line x1="-207.03125" y1="339.84375" x2="-191.40625" y2="289.0625" id="line_139" class="plain" />
<line x1="-277.34375" y1="269.53125" x2="-226.5625" y2="253.90625" id="line_141" class="plain" />
<line x1="-292.96875" y1="187.5" x2="-347.65625" y2="199.21875" id="line_142" class="plain" />
<line x1="-222.65625" y1="257.8125" x2="-195.3125" y2="285.15625" id="line_143" class="plain" />
<line x1="-429.6875" y1="62.5" x2="-292.96875" y2="19.53125" id="line_144" class="plain" />
<line x1="-253.90625" y1="-441.40625" x2="-273.4375" y2="-484.375" id="line_148" class="plain" />
<line x1="-97.65625" y1="-460.9375" x2="-117.1875" y2="-441.40625" id="line_150" class="plain" />
<line x1="-74.21875" y1="-437.5" x2="-93.75" y2="-417.96875" id="line_152" class="plain" />
<line x1="7.8125" y1="-355.46875" x2="0.0" y2="-320.3125" id="line_153" class="plain" />
<line x1="39.0625" y1="-320.3125" x2="31.25" y2="-355.46875" id="line_154" class="plain" />
<line x1="140.625" y1="-449.21875" x2="140.625" y2="-421.875" id="line_155" class="plain" />
<line x1="-19.53125" y1="253.90625" x2="-15.625" y2="261.71875" id="line_157" class="plain" />
<line x1="-89.84375" y1="253.90625" x2="-93.75" y2="261.71875" id="line_158" class="plain" />
<line x1="50.78125" y1="152.34375" x2="85.9375" y2="152.34375" id="line_159" class="plain" />
<line x1="50.78125" y1="195.3125" x2="62.5" y2="230.46875" id="line_160" class="plain" />
<line x1="85.9375" y1="195.3125" x2="74.21875" y2="230.46875" id="line_161" class="plain" />
<line x1="82.03125" y1="253.90625" x2="121.09375" y2="367.1875" id="line_166" class="plain" />
<line x1="15.625" y1="367.1875" x2="54.6875" y2="253.90625" id="line_168" class="plain" />
<line x1="-15.625" y1="367.1875" x2="-15.625" y2="261.71875" id="line_170" class="plain" />
<line x1="-148.4375" y1="324.21875" x2="-93.75" y2="261.71875" id="line_171" class="plain" />
<line x1="-210.9375" y1="144.53125" x2="-285.15625" y2="187.5" id="line_172" class="plain" />
<line x1="-285.15625" y1="15.625" x2="-210.9375" y2="42.96875" id="line_173" class="plain" />
<line x1="-316.40625" y1="-15.625" x2="-152.34375" y2="-15.625" id="line_174" class="plain" />
<line x1="-406.25" y1="-89.84375" x2="-406.25" y2="-15.625" id="line_175" class="plain" />
<line x1="31.25" y1="113.28125" x2="-42.96875" y2="46.875" id="line_177" class="plain" />
<line x1="179.6875" y1="-238.28125" x2="164.0625" y2="-238.28125" id="line_180" class="plain" />
<line x1="140.625" y1="-226.5625" x2="152.34375" y2="-238.28125" id="line_181" class="plain" />
<line x1="187.5" y1="-257.8125" x2="359.375" y2="-191.40625" id="line_186" class="plain" />
<line x1="-261.71875" y1="296.875" x2="-273.4375" y2="324.21875" id="line_211" class="plain" />
<line x1="-355.46875" y1="203.125" x2="-382.8125" y2="214.84375" id="line_213" class="plain" />
<line x1="-281.25" y1="-414.0625" x2="-312.5" y2="-445.3125" id="line_216" class="plain" />
<line x1="273.4375" y1="-359.375" x2="320.3125" y2="-367.1875" id="line_224" class="plain" />
<line x1="320.3125" y1="-335.9375" x2="273.4375" y2="-335.9375" id="line_225" class="plain" />
<line x1="253.90625" y1="-433.59375" x2="222.65625" y2="-421.875" id="line_232" class="plain" />
<line x1="-50.78125" y1="46.875" x2="-204.58984375" y2="141.6015625" id="line_240" class="plain" />
<line x1="-128.90625" y1="218.75" x2="31.25" y2="144.53125" id="line_241" class="plain" />
<line x1="-332.03125" y1="-363.28125" x2="-347.65625" y2="-347.65625" id="line_243" class="plain" />
<line x1="-318.359375" y1="-443.359375" x2="-332.03125" y2="-371.09375" id="line_251" class="plain" />
<line x1="39.0625" y1="-253.90625" x2="97.65625" y2="-257.8125" id="line_262" class="plain" />
<line x1="-93.75" y1="-70.3125" x2="-58.59375" y2="-74.21875" id="line_267" class="plain" />
<line x1="-457.03125" y1="-121.09375" x2="-507.8125" y2="-93.75" id="line_279" class="plain" />
<line x1="-375.0" y1="-203.125" x2="-375.0" y2="-171.875" id="line_304" class="plain" />
<line x1="-449.21875" y1="-183.59375" x2="-425.78125" y2="-97.65625" id="line_306" class="plain" />
<line x1="-511.71875" y1="-183.59375" x2="-472.65625" y2="-50.78125" id="line_307" class="plain" />
<line x1="-472.65625" y1="-50.78125" x2="-542.96875" y2="-132.8125" id="line_330" class="plain" />
<line x1="-378.90625" y1="-171.875" x2="-449.21875" y2="-187.5" id="line_334" class="plain" />
<line x1="-457.03125" y1="-210.9375" x2="-507.8125" y2="-214.84375" id="line_336" class="plain" />
<line x1="-457.03125" y1="-246.09375" x2="-492.1875" y2="-246.09375" id="line_337" class="plain" />
<line x1="-42.96875" y1="39.0625" x2="-35.15625" y2="-3.90625" id="line_339" class="plain" />
<line x1="15.625" y1="-66.40625" x2="15.625" y2="-15.625" id="line_351" class="plain" />
<line x1="160.15625" y1="167.96875" x2="105.46875" y2="167.96875" id="line_362" class="plain" />
<line x1="140.625" y1="-50.78125" x2="113.28125" y2="-101.5625" id="line_367" class="plain" />
<line x1="-335.9375" y1="-121.09375" x2="-97.65625" y2="-66.40625" id="line_389" class="plain" />
<line x1="39.0625" y1="-312.5" x2="97.65625" y2="-257.8125" id="line_390" class="plain" />
<line x1="125.0" y1="82.03125" x2="105.682373046875" y2="82.03125" id="line_403" class="plain" />
<line x1="-343.75" y1="-343.75" x2="-215.8203125" y2="-334.47265625" id="line_421" class="plain" />
<line x1="-292.96875" y1="-242.1875" x2="-212.890625" y2="-326.66015625" id="line_422" class="plain" />
<line x1="-215.33203125" y1="-159.1796875" x2="-292.96875" y2="-242.1875" id="line_423" class="plain" />
<line x1="-217.28515625" y1="-150.87890625" x2="-335.9375" y2="-140.625" id="line_425" class="plain" />
<line x1="-300.78125" y1="-238.28125" x2="-292.96875" y2="-242.1875" id="line_426" class="plain" />
<line x1="-300.78125" y1="-300.78125" x2="-212.890625" y2="-326.66015625" id="line_427" class="plain" />
<line x1="0.0" y1="-320.3125" x2="35.15625" y2="-320.3125" id="line_433" class="plain" />
<line x1="31.25" y1="-253.90625" x2="3.90625" y2="-257.8125" id="line_447" class="plain" />
<line x1="35.15625" y1="-210.9375" x2="3.90625" y2="-207.03125" id="line_463" class="plain" />
<line x1="3.90625" y1="-203.125" x2="35.15625" y2="-167.96875" id="line_464" class="plain" />
<line x1="-58.59375" y1="-140.625" x2="-42.96875" y2="-89.84375" id="line_466" class="plain" />
<line x1="7.8125" y1="-152.34375" x2="-11.71875" y2="-187.5" id="line_468" class="plain" />
<line x1="31.25" y1="-203.125" x2="3.90625" y2="-203.125" id="line_469" class="plain" />
<line x1="214.84375" y1="-402.34375" x2="195.3125" y2="-421.875" id="line_471" class="plain" />
<line x1="-15.625" y1="-191.40625" x2="-204.1015625" y2="-329.58984375" id="line_475" class="plain" />
<line x1="-54.6875" y1="-152.34375" x2="-206.0546875" y2="-157.2265625" id="line_476" class="plain" />
<line x1="-97.65625" y1="-109.375" x2="-208.49609375" y2="-148.4375" id="line_477" class="plain" />
<line x1="-206.54296875" y1="-338.37890625" x2="-203.125" y2="-406.25" id="line_479" class="plain" />
<line x1="0.0" y1="-207.03125" x2="0.0" y2="-203.125" id="line_480" class="plain" />
<line x1="0.0" y1="-203.125" x2="-11.71875" y2="-191.40625" id="line_481" class="plain" />
<line x1="-11.71875" y1="-191.40625" x2="-15.625" y2="-191.40625" id="line_482" class="plain" />
<line x1="-54.6875" y1="-152.34375" x2="-54.6875" y2="-148.4375" id="line_483" class="plain" />
<line x1="-54.6875" y1="-148.4375" x2="-58.59375" y2="-144.53125" id="line_484" class="plain" />
<line x1="-58.59375" y1="-144.53125" x2="-62.5" y2="-144.53125" id="line_485" class="plain" />
<line x1="-97.65625" y1="-70.3125" x2="-94.7265625" y2="-68.359375" id="line_486" class="plain" />
<line x1="-94.7265625" y1="-68.359375" x2="-97.65625" y2="-66.40625" id="line_487" class="plain" />
<line x1="-390.625" y1="-382.8125" x2="-390.625" y2="-312.5" id="line_488" class="plain" />
<line x1="-480.46875" y1="-347.65625" x2="-402.34375" y2="-300.78125" id="line_490" class="plain" />
<line x1="-425.78125" y1="-97.65625" x2="-390.625" y2="-121.09375" id="line_491" class="plain" />
<line x1="-402.34375" y1="-132.8125" x2="-437.5" y2="-109.375" id="line_493" class="plain" />
<line x1="-378.90625" y1="-308.59375" x2="-375.0" y2="-312.5" id="line_494" class="plain" />
<line x1="-378.90625" y1="-207.03125" x2="-378.90625" y2="-308.59375" id="line_495" class="plain" />
<line x1="-375.0" y1="-203.125" x2="-378.90625" y2="-207.03125" id="line_496" class="plain" />
<line x1="-160.15625" y1="187.5" x2="-50.78125" y2="46.875" id="line_507" class="plain" />
<!-- end group: "border_plain" -->
</g>
<g id="border_ceiling">
<line x1="-164.55078125" y1="190.91796875" x2="-222.65625" y2="250.0" id="line_48" class="ceiling" />
<line x1="-187.5" y1="285.15625" x2="-128.90625" y2="226.5625" id="line_49" class="ceiling" />
<line x1="160.15625" y1="-160.15625" x2="140.625" y2="-179.6875" id="line_85" class="ceiling" />
<line x1="-378.90625" y1="-203.125" x2="-378.90625" y2="-171.875" id="line_147" class="ceiling" />
<line x1="113.28125" y1="222.65625" x2="89.84375" y2="246.09375" id="line_162" class="ceiling" />
<line x1="46.875" y1="246.09375" x2="23.4375" y2="222.65625" id="line_163" class="ceiling" />
<line x1="164.0625" y1="-250.0" x2="179.6875" y2="-265.625" id="line_178" class="ceiling" />
<line x1="-234.375" y1="316.40625" x2="-253.90625" y2="296.875" id="line_212" class="ceiling" />
<line x1="-281.25" y1="-406.25" x2="-324.21875" y2="-363.28125" id="line_249" class="ceiling" />
<line x1="-371.09375" y1="-332.03125" x2="-398.4375" y2="-363.28125" id="line_253" class="ceiling" />
<line x1="39.0625" y1="-253.90625" x2="39.0625" y2="-312.5" id="line_265" class="ceiling" />
<line x1="-464.84375" y1="-50.78125" x2="-425.78125" y2="-89.84375" id="line_275" class="ceiling" />
<line x1="-507.8125" y1="-191.40625" x2="-457.03125" y2="-191.40625" id="line_278" class="ceiling" />
<line x1="-406.25" y1="-285.15625" x2="-378.90625" y2="-285.15625" id="line_298" class="ceiling" />
<line x1="39.0625" y1="117.1875" x2="97.65625" y2="117.1875" id="line_343" class="ceiling" />
<line x1="-97.65625" y1="-15.625" x2="-97.65625" y2="-66.40625" id="line_344" class="ceiling" />
<line x1="38.0859375" y1="-66.40625" x2="38.0859375" y2="-15.625" id="line_345" class="ceiling" />
<line x1="98.6328125" y1="-50.78125" x2="98.6328125" y2="-101.5625" id="line_363" class="ceiling" />
<line x1="125.0" y1="-218.75" x2="105.46875" y2="-218.75" id="line_394" class="ceiling" />
<line x1="-54.6875" y1="-152.34375" x2="-15.625" y2="-191.40625" id="line_437" class="ceiling" />
<!-- end group: "border_ceiling" -->
</g>
<g id="border_elevation">
<line x1="0.0" y1="-320.3125" x2="-93.75" y2="-406.25" id="line_1" class="elevation" />
<line x1="140.625" y1="-421.875" x2="39.0625" y2="-320.3125" id="line_2" class="elevation" />
<line x1="195.3125" y1="-421.875" x2="214.84375" y2="-421.875" id="line_3" class="elevation" />
<line x1="-328.125" y1="-359.375" x2="-343.75" y2="-343.75" id="line_5" class="elevation" />
<line x1="-406.25" y1="-89.84375" x2="-375.0" y2="-121.09375" id="line_10" class="elevation" />
<line x1="-375.0" y1="-312.5" x2="-347.65625" y2="-339.84375" id="line_14" class="elevation" />
<line x1="-164.55078125" y1="190.91796875" x2="-210.9375" y2="144.53125" id="line_47" class="elevation" />
<line x1="-93.75" y1="261.71875" x2="-128.90625" y2="226.5625" id="line_50" class="elevation" />
<line x1="-15.625" y1="261.71875" x2="-93.75" y2="261.71875" id="line_51" class="elevation" />
<line x1="23.4375" y1="222.65625" x2="-15.625" y2="261.71875" id="line_52" class="elevation" />
<line x1="54.6875" y1="253.90625" x2="82.03125" y2="253.90625" id="line_61" class="elevation" />
<line x1="-222.65625" y1="250.0" x2="-285.15625" y2="187.5" id="line_73" class="elevation" />
<line x1="-187.5" y1="285.15625" x2="-148.4375" y2="324.21875" id="line_74" class="elevation" />
<line x1="226.5625" y1="-136.71875" x2="187.5" y2="-175.78125" id="line_137" class="elevation" />
<line x1="-464.84375" y1="27.34375" x2="-429.6875" y2="-7.8125" id="line_146" class="elevation" />
<line x1="-289.0625" y1="308.59375" x2="-269.53125" y2="289.0625" id="line_189" class="elevation" />
<line x1="-300.78125" y1="296.875" x2="-281.25" y2="277.34375" id="line_192" class="elevation" />
<line x1="-312.5" y1="285.15625" x2="-292.96875" y2="265.625" id="line_195" class="elevation" />
<line x1="-324.21875" y1="273.4375" x2="-304.6875" y2="253.90625" id="line_198" class="elevation" />
<line x1="-335.9375" y1="261.71875" x2="-316.40625" y2="242.1875" id="line_201" class="elevation" />
<line x1="-347.65625" y1="250.0" x2="-328.125" y2="230.46875" id="line_204" class="elevation" />
<line x1="-359.375" y1="238.28125" x2="-339.84375" y2="218.75" id="line_207" class="elevation" />
<line x1="-371.09375" y1="226.5625" x2="-351.5625" y2="207.03125" id="line_210" class="elevation" />
<line x1="-300.78125" y1="-300.78125" x2="-343.75" y2="-343.75" id="line_235" class="elevation" />
<line x1="-300.78125" y1="-238.28125" x2="-300.78125" y2="-300.78125" id="line_236" class="elevation" />
<line x1="-335.9375" y1="-203.125" x2="-300.78125" y2="-238.28125" id="line_237" class="elevation" />
<line x1="-375.0" y1="-203.125" x2="-335.9375" y2="-203.125" id="line_239" class="elevation" />
<line x1="-335.9375" y1="-140.625" x2="-335.9375" y2="-203.125" id="line_255" class="elevation" />
<line x1="-375.0" y1="-121.09375" x2="-335.9375" y2="-121.09375" id="line_256" class="elevation" />
<line x1="-97.65625" y1="-70.3125" x2="-97.65625" y2="-109.375" id="line_259" class="elevation" />
<line x1="-425.78125" y1="-89.84375" x2="-406.25" y2="-89.84375" id="line_268" class="elevation" />
<line x1="-511.71875" y1="-265.625" x2="-492.1875" y2="-246.09375" id="line_290" class="elevation" />
<line x1="-492.1875" y1="-246.09375" x2="-503.90625" y2="-234.375" id="line_291" class="elevation" />
<line x1="-542.96875" y1="-179.6875" x2="-542.96875" y2="-183.59375" id="line_302" class="elevation" />
<line x1="-566.40625" y1="-132.8125" x2="-542.96875" y2="-132.8125" id="line_308" class="elevation" />
<line x1="-542.96875" y1="-132.8125" x2="-542.96875" y2="-148.4375" id="line_309" class="elevation" />
<line x1="-566.40625" y1="-148.4375" x2="-542.96875" y2="-148.4375" id="line_311" class="elevation" />
<line x1="-542.96875" y1="-148.4375" x2="-542.96875" y2="-164.0625" id="line_312" class="elevation" />
<line x1="-566.40625" y1="-164.0625" x2="-542.96875" y2="-164.0625" id="line_314" class="elevation" />
<line x1="-542.96875" y1="-164.0625" x2="-542.96875" y2="-179.6875" id="line_315" class="elevation" />
<line x1="-566.40625" y1="-179.6875" x2="-542.96875" y2="-179.6875" id="line_317" class="elevation" />
<line x1="-566.40625" y1="-195.3125" x2="-542.96875" y2="-195.3125" id="line_320" class="elevation" />
<line x1="-558.59375" y1="-218.75" x2="-539.0625" y2="-199.21875" id="line_322" class="elevation" />
<line x1="-546.875" y1="-230.46875" x2="-527.34375" y2="-210.9375" id="line_325" class="elevation" />
<line x1="-535.15625" y1="-242.1875" x2="-515.625" y2="-222.65625" id="line_326" class="elevation" />
<line x1="-503.90625" y1="-234.375" x2="-515.625" y2="-222.65625" id="line_327" class="elevation" />
<line x1="-523.4375" y1="-253.90625" x2="-503.90625" y2="-234.375" id="line_329" class="elevation" />
<line x1="-472.65625" y1="-50.78125" x2="-507.8125" y2="-15.625" id="line_332" class="elevation" />
<line x1="156.25" y1="-66.40625" x2="117.1875" y2="-105.46875" id="line_370" class="elevation" />
<line x1="167.96875" y1="-78.125" x2="128.90625" y2="-117.1875" id="line_372" class="elevation" />
<line x1="179.6875" y1="-89.84375" x2="140.625" y2="-128.90625" id="line_375" class="elevation" />
<line x1="191.40625" y1="-101.5625" x2="152.34375" y2="-140.625" id="line_378" class="elevation" />
<line x1="203.125" y1="-113.28125" x2="164.0625" y2="-152.34375" id="line_381" class="elevation" />
<line x1="214.84375" y1="-125.0" x2="175.78125" y2="-164.0625" id="line_385" class="elevation" />
<line x1="-215.8203125" y1="-334.47265625" x2="-206.54296875" y2="-338.37890625" id="line_413" class="elevation" />
<line x1="-206.54296875" y1="-338.37890625" x2="-204.1015625" y2="-329.58984375" id="line_414" class="elevation" />
<line x1="-204.1015625" y1="-329.58984375" x2="-212.890625" y2="-326.66015625" id="line_415" class="elevation" />
<line x1="-212.890625" y1="-326.66015625" x2="-215.8203125" y2="-334.47265625" id="line_416" class="elevation" />
<line x1="-215.33203125" y1="-159.1796875" x2="-206.0546875" y2="-157.2265625" id="line_417" class="elevation" />
<line x1="-206.0546875" y1="-157.2265625" x2="-208.49609375" y2="-148.4375" id="line_418" class="elevation" />
<line x1="-208.49609375" y1="-148.4375" x2="-217.28515625" y2="-150.87890625" id="line_419" class="elevation" />
<line x1="-217.28515625" y1="-150.87890625" x2="-215.33203125" y2="-159.1796875" id="line_420" class="elevation" />
<line x1="-335.9375" y1="-140.625" x2="-335.9375" y2="-121.09375" id="line_424" class="elevation" />
<line x1="0.0" y1="-207.03125" x2="0.0" y2="-320.3125" id="line_434" class="elevation" />
<line x1="-97.65625" y1="-109.375" x2="-62.5" y2="-144.53125" id="line_462" class="elevation" />
<line x1="195.3125" y1="-421.875" x2="140.625" y2="-421.875" id="line_470" class="elevation" />
<!-- end group: "border_elevation" -->
</g>
<g id="border_solid">
<line x1="-281.25" y1="-406.25" x2="-203.125" y2="-406.25" id="line_0" class="solid" />
<line x1="-328.125" y1="-359.375" x2="-324.21875" y2="-363.28125" id="line_4" class="solid" />
<line x1="-97.65625" y1="-15.625" x2="-152.34375" y2="-15.625" id="line_6" class="solid" />
<line x1="-152.34375" y1="-15.625" x2="-210.9375" y2="42.96875" id="line_7" class="solid" />
<line x1="-210.9375" y1="42.96875" x2="-210.9375" y2="144.53125" id="line_8" class="solid" />
<line x1="-375.0" y1="-121.09375" x2="-375.0" y2="-171.875" id="line_9" class="solid" />
<line x1="-285.15625" y1="15.625" x2="-316.40625" y2="-15.625" id="line_11" class="solid" />
<line x1="-285.15625" y1="187.5" x2="-285.15625" y2="15.625" id="line_12" class="solid" />
<line x1="-316.40625" y1="-15.625" x2="-406.25" y2="-15.625" id="line_13" class="solid" />
<line x1="-93.75" y1="-406.25" x2="-93.75" y2="-417.96875" id="line_15" class="solid" />
<line x1="-93.75" y1="-417.96875" x2="-117.1875" y2="-441.40625" id="line_16" class="solid" />
<line x1="-117.1875" y1="-441.40625" x2="-253.90625" y2="-441.40625" id="line_17" class="solid" />
<line x1="-253.90625" y1="-441.40625" x2="-281.25" y2="-414.0625" id="line_18" class="solid" />
<line x1="-121.09375" y1="-484.375" x2="-97.65625" y2="-460.9375" id="line_19" class="solid" />
<line x1="7.8125" y1="-355.46875" x2="31.25" y2="-355.46875" id="line_20" class="solid" />
<line x1="31.25" y1="-355.46875" x2="125.0" y2="-449.21875" id="line_21" class="solid" />
<line x1="125.0" y1="-449.21875" x2="140.625" y2="-449.21875" id="line_22" class="solid" />
<line x1="-378.90625" y1="-285.15625" x2="-378.90625" y2="-203.125" id="line_23" class="solid" />
<line x1="-378.90625" y1="-125.0" x2="-406.25" y2="-97.65625" id="line_24" class="solid" />
<line x1="-429.6875" y1="-7.8125" x2="-320.3125" y2="-7.8125" id="line_25" class="solid" />
<line x1="-320.3125" y1="-7.8125" x2="-292.96875" y2="19.53125" id="line_26" class="solid" />
<line x1="-464.84375" y1="27.34375" x2="-507.8125" y2="-15.625" id="line_27" class="solid" />
<line x1="-429.6875" y1="152.34375" x2="-429.6875" y2="62.5" id="line_28" class="solid" />
<line x1="-273.4375" y1="-484.375" x2="-121.09375" y2="-484.375" id="line_29" class="solid" />
<line x1="214.84375" y1="-375.0" x2="97.65625" y2="-257.8125" id="line_30" class="solid" />
<line x1="39.0625" y1="144.53125" x2="50.78125" y2="152.34375" id="line_31" class="solid" />
<line x1="50.78125" y1="167.96875" x2="50.78125" y2="152.34375" id="line_32" class="solid" />
<line x1="85.9375" y1="152.34375" x2="85.9375" y2="167.96875" id="line_33" class="solid" />
<line x1="85.9375" y1="152.34375" x2="97.65625" y2="144.53125" id="line_34" class="solid" />
<line x1="-58.59375" y1="-27.34375" x2="-35.15625" y2="-3.90625" id="line_35" class="solid" />
<line x1="-3.90625" y1="-3.90625" x2="31.25" y2="-3.90625" id="line_36" class="solid" />
<line x1="31.25" y1="-3.90625" x2="31.25" y2="113.28125" id="line_37" class="solid" />
<line x1="-204.58984375" y1="141.6015625" x2="-203.125" y2="50.78125" id="line_41" class="solid" />
<line x1="-203.125" y1="50.78125" x2="-148.4375" y2="-3.90625" id="line_42" class="solid" />
<line x1="-148.4375" y1="-3.90625" x2="-101.5625" y2="-3.90625" id="line_43" class="solid" />
<line x1="-101.5625" y1="-3.90625" x2="-50.78125" y2="46.875" id="line_44" class="solid" />
<line x1="-50.78125" y1="46.875" x2="-42.96875" y2="46.875" id="line_45" class="solid" />
<line x1="-42.96875" y1="46.875" x2="-42.96875" y2="39.0625" id="line_46" class="solid" />
<line x1="19.53125" y1="218.75" x2="23.4375" y2="222.65625" id="line_53" class="solid" />
<line x1="23.4375" y1="222.65625" x2="50.78125" y2="195.3125" id="line_54" class="solid" />
<line x1="50.78125" y1="195.3125" x2="50.78125" y2="167.96875" id="line_55" class="solid" />
<line x1="85.9375" y1="167.96875" x2="85.9375" y2="195.3125" id="line_56" class="solid" />
<line x1="85.9375" y1="195.3125" x2="113.28125" y2="222.65625" id="line_57" class="solid" />
<line x1="74.21875" y1="230.46875" x2="62.5" y2="230.46875" id="line_58" class="solid" />
<line x1="89.84375" y1="246.09375" x2="74.21875" y2="230.46875" id="line_59" class="solid" />
<line x1="82.03125" y1="253.90625" x2="89.84375" y2="246.09375" id="line_60" class="solid" />
<line x1="46.875" y1="246.09375" x2="54.6875" y2="253.90625" id="line_62" class="solid" />
<line x1="62.5" y1="230.46875" x2="46.875" y2="246.09375" id="line_63" class="solid" />
<line x1="-42.96875" y1="39.0625" x2="-93.75" y2="-11.71875" id="line_64" class="solid" />
<line x1="-128.90625" y1="218.75" x2="-195.3125" y2="285.15625" id="line_66" class="solid" />
<line x1="-156.25" y1="191.40625" x2="-160.15625" y2="187.5" id="line_67" class="solid" />
<line x1="-222.65625" y1="257.8125" x2="-156.25" y2="191.40625" id="line_68" class="solid" />
<line x1="187.5" y1="-257.8125" x2="250.0" y2="-320.3125" id="line_69" class="solid" />
<line x1="187.5" y1="-175.78125" x2="187.5" y2="-257.8125" id="line_70" class="solid" />
<line x1="-226.5625" y1="253.90625" x2="-222.65625" y2="257.8125" id="line_71" class="solid" />
<line x1="-292.96875" y1="19.53125" x2="-292.96875" y2="187.5" id="line_72" class="solid" />
<line x1="-15.625" y1="367.1875" x2="-105.46875" y2="367.1875" id="line_75" class="solid" />
<line x1="160.15625" y1="269.53125" x2="160.15625" y2="328.125" id="line_76" class="solid" />
<line x1="-152.34375" y1="328.125" x2="-109.375" y2="371.09375" id="line_77" class="solid" />
<line x1="105.46875" y1="-253.90625" x2="121.09375" y2="-269.53125" id="line_81" class="solid" />
<line x1="121.09375" y1="-269.53125" x2="152.34375" y2="-238.28125" id="line_82" class="solid" />
<line x1="140.625" y1="-226.5625" x2="132.8125" y2="-226.5625" id="line_83" class="solid" />
<line x1="140.625" y1="-179.6875" x2="140.625" y2="-226.5625" id="line_84" class="solid" />
<line x1="179.6875" y1="-179.6875" x2="160.15625" y2="-160.15625" id="line_86" class="solid" />
<line x1="179.6875" y1="-238.28125" x2="179.6875" y2="-179.6875" id="line_87" class="solid" />
<line x1="164.0625" y1="-250.0" x2="132.8125" y2="-281.25" id="line_88" class="solid" />
<line x1="132.8125" y1="-281.25" x2="210.9375" y2="-359.375" id="line_89" class="solid" />
<line x1="210.9375" y1="-359.375" x2="242.1875" y2="-359.375" id="line_90" class="solid" />
<line x1="242.1875" y1="-359.375" x2="257.8125" y2="-343.75" id="line_91" class="solid" />
<line x1="257.8125" y1="-343.75" x2="242.1875" y2="-328.125" id="line_92" class="solid" />
<line x1="164.0625" y1="-238.28125" x2="164.0625" y2="-250.0" id="line_93" class="solid" />
<line x1="152.34375" y1="-238.28125" x2="164.0625" y2="-238.28125" id="line_94" class="solid" />
<line x1="304.6875" y1="-136.71875" x2="226.5625" y2="-136.71875" id="line_95" class="solid" />
<line x1="359.375" y1="-191.40625" x2="304.6875" y2="-136.71875" id="line_96" class="solid" />
<line x1="31.25" y1="167.96875" x2="31.25" y2="144.53125" id="line_97" class="solid" />
<line x1="31.25" y1="144.53125" x2="39.0625" y2="144.53125" id="line_98" class="solid" />
<line x1="31.25" y1="167.96875" x2="31.25" y2="207.03125" id="line_99" class="solid" />
<line x1="50.78125" y1="167.96875" x2="31.25" y2="167.96875" id="line_100" class="solid" />
<line x1="105.46875" y1="167.96875" x2="85.9375" y2="167.96875" id="line_101" class="solid" />
<line x1="105.46875" y1="144.53125" x2="105.46875" y2="167.96875" id="line_102" class="solid" />
<line x1="97.65625" y1="144.53125" x2="105.46875" y2="144.53125" id="line_103" class="solid" />
<line x1="-164.55078125" y1="190.91796875" x2="-128.90625" y2="226.5625" id="line_104" class="solid" />
<line x1="-125.0" y1="222.65625" x2="-128.90625" y2="218.75" id="line_105" class="solid" />
<line x1="-128.90625" y1="226.5625" x2="-125.0" y2="222.65625" id="line_106" class="solid" />
<line x1="-160.15625" y1="187.5" x2="-164.55078125" y2="190.91796875" id="line_108" class="solid" />
<line x1="-214.84375" y1="257.8125" x2="-222.65625" y2="250.0" id="line_109" class="solid" />
<line x1="-195.3125" y1="285.15625" x2="-191.40625" y2="289.0625" id="line_110" class="solid" />
<line x1="-191.40625" y1="289.0625" x2="-187.5" y2="285.15625" id="line_111" class="solid" />
<line x1="-222.65625" y1="250.0" x2="-226.5625" y2="253.90625" id="line_113" class="solid" />
<line x1="-210.9375" y1="144.53125" x2="-204.58984375" y2="141.6015625" id="line_114" class="solid" />
<line x1="-292.96875" y1="187.5" x2="-285.15625" y2="187.5" id="line_115" class="solid" />
<line x1="-105.46875" y1="367.1875" x2="-148.4375" y2="324.21875" id="line_116" class="solid" />
<line x1="-148.4375" y1="324.21875" x2="-152.34375" y2="328.125" id="line_118" class="solid" />
<line x1="-277.34375" y1="269.53125" x2="-347.65625" y2="199.21875" id="line_119" class="solid" />
<line x1="-207.03125" y1="367.1875" x2="-207.03125" y2="339.84375" id="line_120" class="solid" />
<line x1="-167.96875" y1="406.25" x2="-207.03125" y2="367.1875" id="line_121" class="solid" />
<line x1="-109.375" y1="406.25" x2="-167.96875" y2="406.25" id="line_122" class="solid" />
<line x1="-347.65625" y1="199.21875" x2="-355.46875" y2="199.21875" id="line_123" class="solid" />
<line x1="-355.46875" y1="199.21875" x2="-355.46875" y2="203.125" id="line_124" class="solid" />
<line x1="-355.46875" y1="203.125" x2="-351.5625" y2="207.03125" id="line_125" class="solid" />
<line x1="-382.8125" y1="199.21875" x2="-429.6875" y2="152.34375" id="line_127" class="solid" />
<line x1="-382.8125" y1="214.84375" x2="-382.8125" y2="199.21875" id="line_128" class="solid" />
<line x1="-371.09375" y1="226.5625" x2="-382.8125" y2="214.84375" id="line_129" class="solid" />
<line x1="-234.375" y1="316.40625" x2="-242.1875" y2="324.21875" id="line_130" class="solid" />
<line x1="-187.5" y1="285.15625" x2="-195.3125" y2="277.34375" id="line_131" class="solid" />
<line x1="-195.3125" y1="277.34375" x2="-234.375" y2="316.40625" id="line_132" class="solid" />
<line x1="-261.71875" y1="296.875" x2="-253.90625" y2="296.875" id="line_133" class="solid" />
<line x1="-253.90625" y1="296.875" x2="-214.84375" y2="257.8125" id="line_135" class="solid" />
<line x1="113.28125" y1="222.65625" x2="160.15625" y2="269.53125" id="line_136" class="solid" />
<line x1="-109.375" y1="371.09375" x2="-109.375" y2="406.25" id="line_138" class="solid" />
<line x1="-207.03125" y1="339.84375" x2="-277.34375" y2="269.53125" id="line_140" class="solid" />
<line x1="-429.6875" y1="62.5" x2="-464.84375" y2="27.34375" id="line_145" class="solid" />
<line x1="-97.65625" y1="-460.9375" x2="-74.21875" y2="-437.5" id="line_149" class="solid" />
<line x1="-74.21875" y1="-437.5" x2="7.8125" y2="-355.46875" id="line_151" class="solid" />
<line x1="214.84375" y1="-421.875" x2="214.84375" y2="-402.34375" id="line_156" class="solid" />
<line x1="31.25" y1="207.03125" x2="19.53125" y2="218.75" id="line_164" class="solid" />
<line x1="160.15625" y1="328.125" x2="121.09375" y2="367.1875" id="line_165" class="solid" />
<line x1="121.09375" y1="367.1875" x2="15.625" y2="367.1875" id="line_167" class="solid" />
<line x1="15.625" y1="367.1875" x2="-15.625" y2="367.1875" id="line_169" class="solid" />
<line x1="31.25" y1="113.28125" x2="31.25" y2="144.53125" id="line_176" class="solid" />
<line x1="179.6875" y1="-265.625" x2="179.6875" y2="-238.28125" id="line_179" class="solid" />
<line x1="257.8125" y1="-343.75" x2="265.625" y2="-335.9375" id="line_182" class="solid" />
<line x1="242.1875" y1="-328.125" x2="179.6875" y2="-265.625" id="line_183" class="solid" />
<line x1="265.625" y1="-335.9375" x2="250.0" y2="-320.3125" id="line_184" class="solid" />
<line x1="250.0" y1="-320.3125" x2="242.1875" y2="-328.125" id="line_185" class="solid" />
<line x1="-269.53125" y1="289.0625" x2="-261.71875" y2="296.875" id="line_187" class="solid" />
<line x1="-273.4375" y1="324.21875" x2="-289.0625" y2="308.59375" id="line_188" class="solid" />
<line x1="-281.25" y1="277.34375" x2="-269.53125" y2="289.0625" id="line_190" class="solid" />
<line x1="-289.0625" y1="308.59375" x2="-300.78125" y2="296.875" id="line_191" class="solid" />
<line x1="-292.96875" y1="265.625" x2="-281.25" y2="277.34375" id="line_193" class="solid" />
<line x1="-300.78125" y1="296.875" x2="-312.5" y2="285.15625" id="line_194" class="solid" />
<line x1="-304.6875" y1="253.90625" x2="-292.96875" y2="265.625" id="line_196" class="solid" />
<line x1="-312.5" y1="285.15625" x2="-324.21875" y2="273.4375" id="line_197" class="solid" />
<line x1="-316.40625" y1="242.1875" x2="-304.6875" y2="253.90625" id="line_199" class="solid" />
<line x1="-324.21875" y1="273.4375" x2="-335.9375" y2="261.71875" id="line_200" class="solid" />
<line x1="-328.125" y1="230.46875" x2="-316.40625" y2="242.1875" id="line_202" class="solid" />
<line x1="-335.9375" y1="261.71875" x2="-347.65625" y2="250.0" id="line_203" class="solid" />
<line x1="-339.84375" y1="218.75" x2="-328.125" y2="230.46875" id="line_205" class="solid" />
<line x1="-347.65625" y1="250.0" x2="-359.375" y2="238.28125" id="line_206" class="solid" />
<line x1="-351.5625" y1="207.03125" x2="-339.84375" y2="218.75" id="line_208" class="solid" />
<line x1="-359.375" y1="238.28125" x2="-371.09375" y2="226.5625" id="line_209" class="solid" />
<line x1="-242.1875" y1="324.21875" x2="-273.4375" y2="324.21875" id="line_214" class="solid" />
<line x1="-312.5" y1="-445.3125" x2="-304.6875" y2="-453.125" id="line_215" class="solid" />
<line x1="-304.6875" y1="-453.125" x2="-273.4375" y2="-484.375" id="line_217" class="solid" />
<line x1="-318.359375" y1="-443.359375" x2="-281.25" y2="-406.25" id="line_218" class="solid" />
<line x1="273.4375" y1="-335.9375" x2="273.4375" y2="-359.375" id="line_219" class="solid" />
<line x1="265.625" y1="-335.9375" x2="273.4375" y2="-335.9375" id="line_220" class="solid" />
<line x1="320.3125" y1="-367.1875" x2="320.3125" y2="-335.9375" id="line_221" class="solid" />
<line x1="238.28125" y1="-449.21875" x2="253.90625" y2="-433.59375" id="line_222" class="solid" />
<line x1="140.625" y1="-449.21875" x2="238.28125" y2="-449.21875" id="line_223" class="solid" />
<line x1="320.3125" y1="-335.9375" x2="332.03125" y2="-335.9375" id="line_226" class="solid" />
<line x1="332.03125" y1="-335.9375" x2="359.375" y2="-308.59375" id="line_227" class="solid" />
<line x1="359.375" y1="-308.59375" x2="359.375" y2="-191.40625" id="line_228" class="solid" />
<line x1="214.84375" y1="-402.34375" x2="214.84375" y2="-375.0" id="line_229" class="solid" />
<line x1="222.65625" y1="-421.875" x2="214.84375" y2="-421.875" id="line_230" class="solid" />
<line x1="253.90625" y1="-433.59375" x2="320.3125" y2="-367.1875" id="line_231" class="solid" />
<line x1="39.0625" y1="-312.5" x2="39.0625" y2="-320.3125" id="line_233" class="solid" />
<line x1="-58.59375" y1="-74.21875" x2="-58.59375" y2="-27.34375" id="line_234" class="solid" />
<line x1="-375.0" y1="-203.125" x2="-375.0" y2="-312.5" id="line_238" class="solid" />
<line x1="-332.03125" y1="-363.28125" x2="-328.125" y2="-359.375" id="line_242" class="solid" />
<line x1="-343.75" y1="-343.75" x2="-347.65625" y2="-347.65625" id="line_244" class="solid" />
<line x1="-281.25" y1="-414.0625" x2="-332.03125" y2="-363.28125" id="line_245" class="solid" />
<line x1="-359.375" y1="-398.4375" x2="-312.5" y2="-445.3125" id="line_246" class="solid" />
<line x1="-359.375" y1="-359.375" x2="-359.375" y2="-398.4375" id="line_247" class="solid" />
<line x1="-347.65625" y1="-347.65625" x2="-359.375" y2="-359.375" id="line_248" class="solid" />
<line x1="-324.21875" y1="-363.28125" x2="-332.03125" y2="-371.09375" id="line_250" class="solid" />
<line x1="-398.4375" y1="-363.28125" x2="-318.359375" y2="-443.359375" id="line_252" class="solid" />
<line x1="-332.03125" y1="-371.09375" x2="-371.09375" y2="-332.03125" id="line_254" class="solid" />
<line x1="-93.75" y1="-27.34375" x2="-93.75" y2="-70.3125" id="line_257" class="solid" />
<line x1="-93.75" y1="-70.3125" x2="-97.65625" y2="-70.3125" id="line_258" class="solid" />
<line x1="-97.65625" y1="-70.3125" x2="-97.65625" y2="-66.40625" id="line_260" class="solid" />
<line x1="0.0" y1="-207.03125" x2="-15.625" y2="-191.40625" id="line_261" class="solid" />
<line x1="39.0625" y1="-320.3125" x2="35.15625" y2="-320.3125" id="line_263" class="solid" />
<line x1="35.15625" y1="-167.96875" x2="-42.96875" y2="-89.84375" id="line_264" class="solid" />
<line x1="35.15625" y1="-210.9375" x2="35.15625" y2="-167.96875" id="line_266" class="solid" />
<line x1="-457.03125" y1="-121.09375" x2="-425.78125" y2="-89.84375" id="line_269" class="solid" />
<line x1="-457.03125" y1="-191.40625" x2="-457.03125" y2="-121.09375" id="line_270" class="solid" />
<line x1="-406.25" y1="-15.625" x2="-429.6875" y2="-15.625" id="line_271" class="solid" />
<line x1="-429.6875" y1="-15.625" x2="-464.84375" y2="-50.78125" id="line_272" class="solid" />
<line x1="-507.8125" y1="-93.75" x2="-507.8125" y2="-191.40625" id="line_273" class="solid" />
<line x1="-464.84375" y1="-50.78125" x2="-507.8125" y2="-93.75" id="line_274" class="solid" />
<line x1="-457.03125" y1="-210.9375" x2="-457.03125" y2="-191.40625" id="line_276" class="solid" />
<line x1="-507.8125" y1="-191.40625" x2="-507.8125" y2="-214.84375" id="line_277" class="solid" />
<line x1="-406.25" y1="-97.65625" x2="-425.78125" y2="-97.65625" id="line_280" class="solid" />
<line x1="-425.78125" y1="-97.65625" x2="-472.65625" y2="-50.78125" id="line_281" class="solid" />
<line x1="-472.65625" y1="-50.78125" x2="-468.26171875" y2="-46.38671875" id="line_282" class="solid" />
<line x1="-566.40625" y1="-74.21875" x2="-566.40625" y2="-132.8125" id="line_283" class="solid" />
<line x1="-507.8125" y1="-214.84375" x2="-515.625" y2="-222.65625" id="line_284" class="solid" />
<line x1="-515.625" y1="-222.65625" x2="-527.34375" y2="-210.9375" id="line_285" class="solid" />
<line x1="-539.0625" y1="-199.21875" x2="-542.96875" y2="-195.3125" id="line_286" class="solid" />
<line x1="-566.40625" y1="-132.8125" x2="-566.40625" y2="-148.4375" id="line_287" class="solid" />
<line x1="-566.40625" y1="-210.9375" x2="-558.59375" y2="-218.75" id="line_288" class="solid" />
<line x1="-535.15625" y1="-242.1875" x2="-523.4375" y2="-253.90625" id="line_289" class="solid" />
<line x1="-457.03125" y1="-246.09375" x2="-457.03125" y2="-210.9375" id="line_292" class="solid" />
<line x1="-371.09375" y1="-332.03125" x2="-457.03125" y2="-246.09375" id="line_293" class="solid" />
<line x1="-441.40625" y1="-363.28125" x2="-398.4375" y2="-363.28125" id="line_294" class="solid" />
<line x1="-511.71875" y1="-292.96875" x2="-441.40625" y2="-363.28125" id="line_295" class="solid" />
<line x1="-511.71875" y1="-265.625" x2="-511.71875" y2="-292.96875" id="line_296" class="solid" />
<line x1="-378.90625" y1="-171.875" x2="-378.90625" y2="-125.0" id="line_297" class="solid" />
<line x1="-449.21875" y1="-242.1875" x2="-406.25" y2="-285.15625" id="line_299" class="solid" />
<line x1="-449.21875" y1="-187.5" x2="-449.21875" y2="-242.1875" id="line_300" class="solid" />
<line x1="-511.71875" y1="-183.59375" x2="-449.21875" y2="-183.59375" id="line_301" class="solid" />
<line x1="-542.96875" y1="-183.59375" x2="-511.71875" y2="-183.59375" id="line_303" class="solid" />
<line x1="-375.0" y1="-171.875" x2="-378.90625" y2="-171.875" id="line_305" class="solid" />
<line x1="-566.40625" y1="-148.4375" x2="-566.40625" y2="-164.0625" id="line_310" class="solid" />
<line x1="-566.40625" y1="-164.0625" x2="-566.40625" y2="-179.6875" id="line_313" class="solid" />
<line x1="-566.40625" y1="-179.6875" x2="-566.40625" y2="-195.3125" id="line_316" class="solid" />
<line x1="-542.96875" y1="-195.3125" x2="-542.96875" y2="-183.59375" id="line_318" class="solid" />
<line x1="-566.40625" y1="-195.3125" x2="-566.40625" y2="-210.9375" id="line_319" class="solid" />
<line x1="-558.59375" y1="-218.75" x2="-546.875" y2="-230.46875" id="line_321" class="solid" />
<line x1="-527.34375" y1="-210.9375" x2="-539.0625" y2="-199.21875" id="line_323" class="solid" />
<line x1="-546.875" y1="-230.46875" x2="-535.15625" y2="-242.1875" id="line_324" class="solid" />
<line x1="-523.4375" y1="-253.90625" x2="-511.71875" y2="-265.625" id="line_328" class="solid" />
<line x1="-507.8125" y1="-15.625" x2="-566.40625" y2="-74.21875" id="line_331" class="solid" />
<line x1="-449.21875" y1="-183.59375" x2="-449.21875" y2="-187.5" id="line_333" class="solid" />
<line x1="-378.90625" y1="-203.125" x2="-375.0" y2="-203.125" id="line_335" class="solid" />
<line x1="-35.15625" y1="-3.90625" x2="-3.90625" y2="-3.90625" id="line_338" class="solid" />
<line x1="97.65625" y1="-257.8125" x2="98.6328125" y2="-101.5625" id="line_340" class="solid" />
<line x1="39.0625" y1="144.53125" x2="39.0625" y2="117.1875" id="line_341" class="solid" />
<line x1="97.65625" y1="117.1875" x2="97.65625" y2="144.53125" id="line_342" class="solid" />
<line x1="-97.65625" y1="-66.40625" x2="15.625" y2="-66.40625" id="line_346" class="solid" />
<line x1="39.0625" y1="117.1875" x2="38.0859375" y2="-15.625" id="line_347" class="solid" />
<line x1="15.625" y1="-15.625" x2="-97.65625" y2="-15.625" id="line_348" class="solid" />
<line x1="15.625" y1="-66.40625" x2="38.0859375" y2="-66.40625" id="line_349" class="solid" />
<line x1="38.0859375" y1="-15.625" x2="15.625" y2="-15.625" id="line_350" class="solid" />
<line x1="-93.75" y1="-11.71875" x2="-93.75" y2="-27.34375" id="line_352" class="solid" />
<line x1="105.46875" y1="144.53125" x2="105.46875" y2="132.8125" id="line_353" class="solid" />
<line x1="105.46875" y1="132.8125" x2="117.1875" y2="121.09375" id="line_354" class="solid" />
<line x1="117.1875" y1="121.09375" x2="148.4375" y2="121.09375" id="line_355" class="solid" />
<line x1="148.4375" y1="121.09375" x2="160.15625" y2="132.8125" id="line_356" class="solid" />
<line x1="160.15625" y1="132.8125" x2="160.15625" y2="167.96875" id="line_357" class="solid" />
<line x1="160.15625" y1="203.125" x2="125.0" y2="203.125" id="line_358" class="solid" />
<line x1="125.0" y1="203.125" x2="105.46875" y2="183.59375" id="line_359" class="solid" />
<line x1="105.46875" y1="183.59375" x2="105.46875" y2="167.96875" id="line_360" class="solid" />
<line x1="160.15625" y1="167.96875" x2="160.15625" y2="203.125" id="line_361" class="solid" />
<line x1="98.6328125" y1="-101.5625" x2="113.28125" y2="-101.5625" id="line_364" class="solid" />
<line x1="98.6328125" y1="-50.78125" x2="97.65625" y2="117.1875" id="line_365" class="solid" />
<line x1="140.625" y1="-50.78125" x2="98.6328125" y2="-50.78125" id="line_366" class="solid" />
<line x1="113.28125" y1="-101.5625" x2="117.1875" y2="-105.46875" id="line_368" class="solid" />
<line x1="156.25" y1="-66.40625" x2="140.625" y2="-50.78125" id="line_369" class="solid" />
<line x1="117.1875" y1="-105.46875" x2="128.90625" y2="-117.1875" id="line_371" class="solid" />
<line x1="167.96875" y1="-78.125" x2="156.25" y2="-66.40625" id="line_373" class="solid" />
<line x1="128.90625" y1="-117.1875" x2="140.625" y2="-128.90625" id="line_374" class="solid" />
<line x1="179.6875" y1="-89.84375" x2="167.96875" y2="-78.125" id="line_376" class="solid" />
<line x1="140.625" y1="-128.90625" x2="152.34375" y2="-140.625" id="line_377" class="solid" />
<line x1="191.40625" y1="-101.5625" x2="179.6875" y2="-89.84375" id="line_379" class="solid" />
<line x1="152.34375" y1="-140.625" x2="164.0625" y2="-152.34375" id="line_380" class="solid" />
<line x1="203.125" y1="-113.28125" x2="191.40625" y2="-101.5625" id="line_382" class="solid" />
<line x1="175.78125" y1="-164.0625" x2="187.5" y2="-175.78125" id="line_383" class="solid" />
<line x1="226.5625" y1="-136.71875" x2="214.84375" y2="-125.0" id="line_384" class="solid" />
<line x1="164.0625" y1="-152.34375" x2="175.78125" y2="-164.0625" id="line_386" class="solid" />
<line x1="214.84375" y1="-125.0" x2="203.125" y2="-113.28125" id="line_387" class="solid" />
<line x1="38.0859375" y1="-66.40625" x2="39.0625" y2="-253.90625" id="line_388" class="solid" />
<line x1="132.8125" y1="-226.5625" x2="125.0" y2="-218.75" id="line_391" class="solid" />
<line x1="125.0" y1="-218.75" x2="125.0" y2="82.03125" id="line_392" class="solid" />
<line x1="105.46875" y1="-218.75" x2="105.46875" y2="-253.90625" id="line_393" class="solid" />
<line x1="105.682373046875" y1="82.03125" x2="105.46875" y2="-218.75" id="line_395" class="solid" />
<line x1="117.1875" y1="113.28125" x2="105.46875" y2="101.5625" id="line_396" class="solid" />
<line x1="125.0" y1="82.03125" x2="148.4375" y2="93.75" id="line_397" class="solid" />
<line x1="148.4375" y1="113.28125" x2="148.4375" y2="121.09375" id="line_398" class="solid" />
<line x1="117.1875" y1="121.09375" x2="117.1875" y2="113.28125" id="line_399" class="solid" />
<line x1="148.4375" y1="113.28125" x2="117.1875" y2="113.28125" id="line_400" class="solid" />
<line x1="148.4375" y1="93.75" x2="148.4375" y2="113.28125" id="line_401" class="solid" />
<line x1="105.46875" y1="101.5625" x2="105.682373046875" y2="82.03125" id="line_402" class="solid" />
<line x1="136.71875" y1="-164.0625" x2="140.625" y2="-179.6875" id="line_404" class="solid" />
<line x1="160.15625" y1="-160.15625" x2="144.53125" y2="-156.25" id="line_405" class="solid" />
<line x1="144.53125" y1="-156.25" x2="136.71875" y2="-164.0625" id="line_406" class="solid" />
<line x1="-406.25" y1="-285.15625" x2="-398.4375" y2="-296.875" id="line_407" class="solid" />
<line x1="-398.4375" y1="-296.875" x2="-386.71875" y2="-296.875" id="line_408" class="solid" />
<line x1="-386.71875" y1="-296.875" x2="-378.90625" y2="-285.15625" id="line_409" class="solid" />
<line x1="54.6875" y1="253.90625" x2="62.5" y2="242.1875" id="line_410" class="solid" />
<line x1="62.5" y1="242.1875" x2="74.21875" y2="242.1875" id="line_411" class="solid" />
<line x1="74.21875" y1="242.1875" x2="82.03125" y2="253.90625" id="line_412" class="solid" />
<line x1="-390.625" y1="-121.09375" x2="-375.0" y2="-121.09375" id="line_428" class="solid" />
<line x1="-402.34375" y1="-132.8125" x2="-390.625" y2="-121.09375" id="line_429" class="solid" />
<line x1="-402.34375" y1="-300.78125" x2="-402.34375" y2="-132.8125" id="line_430" class="solid" />
<line x1="-375.0" y1="-312.5" x2="-390.625" y2="-312.5" id="line_431" class="solid" />
<line x1="-390.625" y1="-312.5" x2="-402.34375" y2="-300.78125" id="line_432" class="solid" />
<line x1="35.15625" y1="-320.3125" x2="35.15625" y2="-210.9375" id="line_435" class="solid" />
<line x1="-15.625" y1="-191.40625" x2="-11.71875" y2="-187.5" id="line_436" class="solid" />
<line x1="-11.71875" y1="-187.5" x2="3.90625" y2="-203.125" id="line_438" class="solid" />
<line x1="3.90625" y1="-203.125" x2="3.90625" y2="-257.8125" id="line_439" class="solid" />
<line x1="3.90625" y1="-300.78125" x2="15.625" y2="-312.5" id="line_440" class="solid" />
<line x1="15.625" y1="-312.5" x2="39.0625" y2="-312.5" id="line_441" class="solid" />
<line x1="39.0625" y1="-253.90625" x2="31.25" y2="-253.90625" id="line_442" class="solid" />
<line x1="31.25" y1="-253.90625" x2="31.25" y2="-203.125" id="line_443" class="solid" />
<line x1="31.25" y1="-175.78125" x2="7.8125" y2="-152.34375" id="line_444" class="solid" />
<line x1="31.25" y1="-203.125" x2="31.25" y2="-175.78125" id="line_445" class="solid" />
<line x1="3.90625" y1="-257.8125" x2="3.90625" y2="-300.78125" id="line_446" class="solid" />
<line x1="-35.15625" y1="-132.8125" x2="-54.6875" y2="-152.34375" id="line_448" class="solid" />
<line x1="-11.71875" y1="-132.8125" x2="-35.15625" y2="-132.8125" id="line_449" class="solid" />
<line x1="-347.65625" y1="-339.84375" x2="-343.75" y2="-343.75" id="line_450" class="solid" />
<line x1="-390.625" y1="-382.8125" x2="-347.65625" y2="-339.84375" id="line_451" class="solid" />
<line x1="-445.3125" y1="-382.8125" x2="-390.625" y2="-382.8125" id="line_452" class="solid" />
<line x1="-425.78125" y1="-89.84375" x2="-425.78125" y2="-97.65625" id="line_453" class="solid" />
<line x1="-480.46875" y1="-347.65625" x2="-445.3125" y2="-382.8125" id="line_454" class="solid" />
<line x1="-523.4375" y1="-195.3125" x2="-523.4375" y2="-304.6875" id="line_455" class="solid" />
<line x1="-437.5" y1="-109.375" x2="-523.4375" y2="-195.3125" id="line_456" class="solid" />
<line x1="3.90625" y1="-207.03125" x2="0.0" y2="-207.03125" id="line_457" class="solid" />
<line x1="3.90625" y1="-203.125" x2="3.90625" y2="-207.03125" id="line_458" class="solid" />
<line x1="-58.59375" y1="-140.625" x2="3.90625" y2="-203.125" id="line_459" class="solid" />
<line x1="-62.5" y1="-144.53125" x2="-58.59375" y2="-140.625" id="line_460" class="solid" />
<line x1="-54.6875" y1="-152.34375" x2="-62.5" y2="-144.53125" id="line_461" class="solid" />
<line x1="-42.96875" y1="-89.84375" x2="-58.59375" y2="-74.21875" id="line_465" class="solid" />
<line x1="7.8125" y1="-152.34375" x2="-11.71875" y2="-132.8125" id="line_467" class="solid" />
<line x1="222.65625" y1="-390.625" x2="222.65625" y2="-421.875" id="line_472" class="solid" />
<line x1="253.90625" y1="-359.375" x2="222.65625" y2="-390.625" id="line_473" class="solid" />
<line x1="273.4375" y1="-359.375" x2="253.90625" y2="-359.375" id="line_474" class="solid" />
<line x1="-203.125" y1="-406.25" x2="-93.75" y2="-406.25" id="line_478" class="solid" />
<line x1="-523.4375" y1="-304.6875" x2="-480.46875" y2="-347.65625" id="line_489" class="solid" />
<line x1="-425.78125" y1="-97.65625" x2="-437.5" y2="-109.375" id="line_492" class="solid" />
<line x1="-433.59375" y1="-11.71875" x2="-429.6875" y2="-7.8125" id="line_497" class="solid" />
<line x1="-468.26171875" y1="-46.38671875" x2="-433.59375" y2="-11.71875" id="line_498" class="solid" />
<!-- end group: "border_solid" -->
</g>
<!-- end group: "borders" -->
</g>
<g id="poly_teleporter_lines">
<g id="panel_teleporter_lines_p102">
<g id="panel_teleporter_line_group_poly_p102_p105">
<line x1="145.5078125" y1="-165.0390625" x2="-209.8388671875" y2="-332.275390625" id="panel_teleporter_border_p102_p105" class="teleporter_border" />
<use xlink:href="../resources/svg/common.svg#arrow" x="-209.8388671875" y="-332.275390625" id="panel_teleporter_head_p102_p105" class="teleporter_line" transform="rotate(-154.79698061844235 -209.8388671875 -332.275390625)" />
<line x1="145.5078125" y1="-165.0390625" x2="-209.8388671875" y2="-332.275390625" id="panel_teleporter_line_p102_p105" class="teleporter_line" />
<!-- end group: "panel_teleporter_line_group_poly_p102_p105" -->
</g>
<!-- end group: "panel_teleporter_lines_p102" -->
</g>
<g id="panel_teleporter_lines_p103">
<g id="panel_teleporter_line_group_poly_p103_p53">
<line x1="-392.578125" y1="-291.015625" x2="-31.25" y2="210.9375" id="panel_teleporter_border_p103_p53" class="teleporter_border" />
<use xlink:href="../resources/svg/common.svg#arrow" x="-31.25" y="210.9375" id="panel_teleporter_head_p103_p53" class="teleporter_line" transform="rotate(54.25198622370907 -31.25 210.9375)" />
<line x1="-392.578125" y1="-291.015625" x2="-31.25" y2="210.9375" id="panel_teleporter_line_p103_p53" class="teleporter_line" />
<!-- end group: "panel_teleporter_line_group_poly_p103_p53" -->
</g>
<!-- end group: "panel_teleporter_lines_p103" -->
</g>
<g id="panel_teleporter_lines_p104">
<g id="panel_teleporter_line_group_poly_p104_p134">
<line x1="68.359375" y1="248.046875" x2="-461.578369140625" y2="-231.75048828125" id="panel_teleporter_border_p104_p134" class="teleporter_border" />
<use xlink:href="../resources/svg/common.svg#arrow" x="-461.578369140625" y="-231.75048828125" id="panel_teleporter_head_p104_p134" class="teleporter_line" transform="rotate(-137.84279944567746 -461.578369140625 -231.75048828125)" />
<line x1="68.359375" y1="248.046875" x2="-461.578369140625" y2="-231.75048828125" id="panel_teleporter_line_p104_p134" class="teleporter_line" />
<!-- end group: "panel_teleporter_line_group_poly_p104_p134" -->
</g>
<!-- end group: "panel_teleporter_lines_p104" -->
</g>
<!-- end group: "poly_teleporter_lines" -->
</g>
<g id="objects">
<g id="objects_sound">
<use xlink:href="../resources/svg/common.svg#sound" x="70.3125" y="250.0" id="object_0" class="sound sound-15" />
<use xlink:href="../resources/svg/common.svg#sound" x="67.3828125" y="144.53125" id="object_1" class="sound sound-20" />
<use xlink:href="../resources/svg/common.svg#sound" x="-249.0234375" y="100.5859375" id="object_2" class="sound sound-5" />
<use xlink:href="../resources/svg/common.svg#sound" x="66.40625" y="-60.546875" id="object_3" class="sound sound-5" />
<use xlink:href="../resources/svg/common.svg#sound" x="-474.609375" y="-323.2421875" id="object_4" class="sound sound-5" />
<use xlink:href="../resources/svg/common.svg#sound" x="-273.4375" y="-78.125" id="object_5" class="sound sound-5" />
<use xlink:href="../resources/svg/common.svg#sound" x="115.234375" y="362.3046875" id="object_6" class="sound sound-5" />
<use xlink:href="../resources/svg/common.svg#sound" x="-98.6328125" y="-260.7421875" id="object_66" class="sound sound-5" />
<use xlink:href="../resources/svg/common.svg#sound" x="-390.625" y="-290.0390625" id="object_84" class="sound sound-15" />
<use xlink:href="../resources/svg/common.svg#sound" x="-452.1484375" y="-244.140625" id="object_104" class="sound sound-22" />
<!-- end group: "objects_sound" -->
</g>
<g id="objects_item">
<use xlink:href="../resources/svg/common.svg#item" x="323.2421875" y="-169.921875" id="object_14" class="item item-5" transform="rotate(141.328125 323.2421875 -169.921875)" />
<use xlink:href="../resources/svg/common.svg#item" x="-501.953125" y="-290.0390625" id="object_15" class="item item-5" transform="rotate(141.328125 -501.953125 -290.0390625)" />
<use xlink:href="../resources/svg/common.svg#item" x="-526.3671875" y="-175.78125" id="object_16" class="item item-5" transform="rotate(141.328125 -526.3671875 -175.78125)" />
<use xlink:href="../resources/svg/common.svg#item" x="-315.4296875" y="13.671875" id="object_17" class="item item-5" transform="rotate(141.328125 -315.4296875 13.671875)" />
<use xlink:href="../resources/svg/common.svg#item" x="-105.46875" y="8.7890625" id="object_18" class="item item-5" transform="rotate(141.328125 -105.46875 8.7890625)" />
<use xlink:href="../resources/svg/common.svg#item" x="146.484375" y="273.4375" id="object_19" class="item item-5" transform="rotate(141.328125 146.484375 273.4375)" />
<use xlink:href="../resources/svg/common.svg#item" x="150.390625" y="193.359375" id="object_20" class="item item-5" transform="rotate(141.328125 150.390625 193.359375)" />
<use xlink:href="../resources/svg/common.svg#item" x="-164.0625" y="396.484375" id="object_21" class="item item-5" transform="rotate(141.328125 -164.0625 396.484375)" />
<use xlink:href="../resources/svg/common.svg#item" x="-23.4375" y="-58.59375" id="object_22" class="item item-5" transform="rotate(141.328125 -23.4375 -58.59375)" />
<use xlink:href="../resources/svg/common.svg#item" x="128.90625" y="190.4296875" id="object_23" class="item item-3" transform="rotate(140.625 128.90625 190.4296875)" />
<use xlink:href="../resources/svg/common.svg#item" x="-141.6015625" y="6.8359375" id="object_24" class="item item-3" transform="rotate(140.625 -141.6015625 6.8359375)" />
<use xlink:href="../resources/svg/common.svg#item" x="-281.25" y="-447.265625" id="object_25" class="item item-3" transform="rotate(140.625 -281.25 -447.265625)" />
<use xlink:href="../resources/svg/common.svg#item" x="147.4609375" y="-281.25" id="object_26" class="item item-3" transform="rotate(140.625 147.4609375 -281.25)" />
<use xlink:href="../resources/svg/common.svg#item" x="132.8125" y="154.296875" id="object_27" class="item item-9" transform="rotate(139.921875 132.8125 154.296875)" />
<use xlink:href="../resources/svg/common.svg#item" x="142.578125" y="142.578125" id="object_28" class="item item-9" transform="rotate(139.921875 142.578125 142.578125)" />
<use xlink:href="../resources/svg/common.svg#item" x="143.5546875" y="155.2734375" id="object_29" class="item item-9" transform="rotate(139.921875 143.5546875 155.2734375)" />
<use xlink:href="../resources/svg/common.svg#item" x="131.8359375" y="140.625" id="object_30" class="item item-9" transform="rotate(139.921875 131.8359375 140.625)" />
<use xlink:href="../resources/svg/common.svg#item" x="63.4765625" y="358.3984375" id="object_31" class="item item-8" transform="rotate(138.515625 63.4765625 358.3984375)" />
<use xlink:href="../resources/svg/common.svg#item" x="-73.2421875" y="139.16015625" id="object_32" class="item item-8" transform="rotate(138.515625 -73.2421875 139.16015625)" />
<use xlink:href="../resources/svg/common.svg#item" x="-196.2890625" y="364.74609375" id="object_33" class="item item-8" transform="rotate(138.515625 -196.2890625 364.74609375)" />
<use xlink:href="../resources/svg/common.svg#item" x="-344.7265625" y="3.90625" id="object_34" class="item item-8" transform="rotate(138.515625 -344.7265625 3.90625)" />
<use xlink:href="../resources/svg/common.svg#item" x="164.0625" y="-296.875" id="object_35" class="item item-8" transform="rotate(138.515625 164.0625 -296.875)" />
<use xlink:href="../resources/svg/common.svg#item" x="336.9140625" y="-187.5" id="object_36" class="item item-1" transform="rotate(137.8125 336.9140625 -187.5)" />
<use xlink:href="../resources/svg/common.svg#item" x="182.6171875" y="-313.4765625" id="object_37" class="item item-1" transform="rotate(135.703125 182.6171875 -313.4765625)" />
<use xlink:href="../resources/svg/common.svg#item" x="122.0703125" y="-254.8828125" id="object_38" class="item item-15" transform="rotate(135.703125 122.0703125 -254.8828125)" />
<use xlink:href="../resources/svg/common.svg#item" x="303.7109375" y="-154.296875" id="object_39" class="item item-22" transform="rotate(135.0 303.7109375 -154.296875)" />
<use xlink:href="../resources/svg/common.svg#item" x="64.453125" y="-80.078125" id="object_40" class="item item-22" transform="rotate(135.0 64.453125 -80.078125)" />
<use xlink:href="../resources/svg/common.svg#item" x="-76.171875" y="-415.0390625" id="object_41" class="item item-22" transform="rotate(135.0 -76.171875 -415.0390625)" />
<use xlink:href="../resources/svg/common.svg#item" x="-371.09375" y="-109.375" id="object_42" class="item item-22" transform="rotate(135.0 -371.09375 -109.375)" />
<use xlink:href="../resources/svg/common.svg#item" x="-371.09375" y="-359.375" id="object_43" class="item item-22" transform="rotate(135.0 -371.09375 -359.375)" />
<use xlink:href="../resources/svg/common.svg#item" x="-553.7109375" y="-203.125" id="object_44" class="item item-22" transform="rotate(135.0 -553.7109375 -203.125)" />
<use xlink:href="../resources/svg/common.svg#item" x="-308.59375" y="37.109375" id="object_45" class="item item-22" transform="rotate(135.0 -308.59375 37.109375)" />
<use xlink:href="../resources/svg/common.svg#item" x="-144.53125" y="207.03125" id="object_46" class="item item-22" transform="rotate(135.0 -144.53125 207.03125)" />
<use xlink:href="../resources/svg/common.svg#item" x="-182.6171875" y="377.9296875" id="object_47" class="item item-22" transform="rotate(135.0 -182.6171875 377.9296875)" />
<use xlink:href="../resources/svg/common.svg#item" x="147.4609375" y="295.8984375" id="object_48" class="item item-22" transform="rotate(135.0 147.4609375 295.8984375)" />
<use xlink:href="../resources/svg/common.svg#item" x="154.296875" y="174.8046875" id="object_49" class="item item-22" transform="rotate(135.0 154.296875 174.8046875)" />
<use xlink:href="../resources/svg/common.svg#item" x="134.765625" y="176.7578125" id="object_50" class="item item-22" transform="rotate(135.0 134.765625 176.7578125)" />
<use xlink:href="../resources/svg/common.svg#item" x="-51.7578125" y="-60.546875" id="object_51" class="item item-22" transform="rotate(135.0 -51.7578125 -60.546875)" />
<use xlink:href="../resources/svg/common.svg#item" x="-384.765625" y="-255.859375" id="object_52" class="item item-35" transform="rotate(135.0 -384.765625 -255.859375)" />
<use xlink:href="../resources/svg/common.svg#item" x="-385.7421875" y="-243.1640625" id="object_53" class="item item-35" transform="rotate(135.0 -385.7421875 -243.1640625)" />
<use xlink:href="../resources/svg/common.svg#item" x="-385.7421875" y="-230.46875" id="object_54" class="item item-35" transform="rotate(135.0 -385.7421875 -230.46875)" />
<use xlink:href="../resources/svg/common.svg#item" x="-385.7421875" y="-132.8125" id="object_55" class="item item-9" transform="rotate(135.0 -385.7421875 -132.8125)" />
<use xlink:href="../resources/svg/common.svg#item" x="-386.71875" y="-151.3671875" id="object_56" class="item item-9" transform="rotate(135.0 -386.71875 -151.3671875)" />
<use xlink:href="../resources/svg/common.svg#item" x="3.90625" y="-58.59375" id="object_57" class="item item-10" transform="rotate(135.0 3.90625 -58.59375)" />
<use xlink:href="../resources/svg/common.svg#item" x="115.234375" y="61.5234375" id="object_58" class="item item-4" transform="rotate(135.0 115.234375 61.5234375)" />
<use xlink:href="../resources/svg/common.svg#item" x="114.2578125" y="37.109375" id="object_59" class="item item-2" transform="rotate(135.0 114.2578125 37.109375)" />
<use xlink:href="../resources/svg/common.svg#item" x="114.2578125" y="7.8125" id="object_60" class="item item-7" transform="rotate(135.0 114.2578125 7.8125)" />
<use xlink:href="../resources/svg/common.svg#item" x="115.234375" y="-22.4609375" id="object_61" class="item item-6" transform="rotate(135.0 115.234375 -22.4609375)" />
<use xlink:href="../resources/svg/common.svg#item" x="115.234375" y="-47.8515625" id="object_62" class="item item-9" transform="rotate(135.0 115.234375 -47.8515625)" />
<use xlink:href="../resources/svg/common.svg#item" x="114.2578125" y="-112.3046875" id="object_63" class="item item-16" transform="rotate(135.0 114.2578125 -112.3046875)" />
<use xlink:href="../resources/svg/common.svg#item" x="116.2109375" y="-136.71875" id="object_64" class="item item-35" transform="rotate(135.0 116.2109375 -136.71875)" />
<use xlink:href="../resources/svg/common.svg#item" x="114.2578125" y="-160.15625" id="object_65" class="item item-23" transform="rotate(135.0 114.2578125 -160.15625)" />
<use xlink:href="../resources/svg/common.svg#item" x="-71.2890625" y="-104.4921875" id="object_67" class="item item-8" />
<use xlink:href="../resources/svg/common.svg#item" x="-12.6953125" y="-125.9765625" id="object_68" class="item item-9" />
<use xlink:href="../resources/svg/common.svg#item" x="-0.9765625" y="-137.6953125" id="object_69" class="item item-9" />
<use xlink:href="../resources/svg/common.svg#item" x="-362.79296875" y="-137.6953125" id="object_71" class="item item-34" transform="rotate(45.0 -362.79296875 -137.6953125)" />
<use xlink:href="../resources/svg/common.svg#item" x="-363.28125" y="-153.80859375" id="object_72" class="item item-8" transform="rotate(45.0 -363.28125 -153.80859375)" />
<use xlink:href="../resources/svg/common.svg#item" x="-355.95703125" y="-170.41015625" id="object_73" class="item item-26" transform="rotate(45.0 -355.95703125 -170.41015625)" />
<use xlink:href="../resources/svg/common.svg#item" x="-362.79296875" y="-211.9140625" id="object_74" class="item item-23" transform="rotate(45.0 -362.79296875 -211.9140625)" />
<use xlink:href="../resources/svg/common.svg#item" x="-368.1640625" y="-221.6796875" id="object_75" class="item item-23" transform="rotate(45.0 -368.1640625 -221.6796875)" />
<use xlink:href="../resources/svg/common.svg#item" x="-352.05078125" y="-209.47265625" id="object_76" class="item item-23" transform="rotate(45.0 -352.05078125 -209.47265625)" />
<use xlink:href="../resources/svg/common.svg#item" x="-209.9609375" y="-333.0078125" id="object_77" class="item item-9" transform="rotate(45.0 -209.9609375 -333.0078125)" />
<use xlink:href="../resources/svg/common.svg#item" x="-211.9140625" y="-153.3203125" id="object_78" class="item item-9" transform="rotate(45.0 -211.9140625 -153.3203125)" />
<use xlink:href="../resources/svg/common.svg#item" x="19.53125" y="-336.9140625" id="object_79" class="item item-5" transform="rotate(45.0 19.53125 -336.9140625)" />
<use xlink:href="../resources/svg/common.svg#item" x="208.984375" y="-416.50390625" id="object_80" class="item item-35" transform="rotate(45.0 208.984375 -416.50390625)" />
<use xlink:href="../resources/svg/common.svg#item" x="229.00390625" y="-394.04296875" id="object_81" class="item item-5" transform="rotate(45.0 229.00390625 -394.04296875)" />
<use xlink:href="../resources/svg/common.svg#item" x="256.8359375" y="-366.69921875" id="object_82" class="item item-1" transform="rotate(45.0 256.8359375 -366.69921875)" />
<use xlink:href="../resources/svg/common.svg#item" x="242.1875" y="-381.34765625" id="object_83" class="item item-22" transform="rotate(45.0 242.1875 -381.34765625)" />
<use xlink:href="../resources/svg/common.svg#item" x="-499.0234375" y="-291.50390625" id="object_85" class="item item-34" transform="rotate(45.0 -499.0234375 -291.50390625)" />
<use xlink:href="../resources/svg/common.svg#item" x="-499.0234375" y="-270.01953125" id="object_86" class="item item-8" transform="rotate(45.0 -499.0234375 -270.01953125)" />
<use xlink:href="../resources/svg/common.svg#item" x="-500.0" y="-225.09765625" id="object_87" class="item item-5" transform="rotate(45.0 -500.0 -225.09765625)" />
<use xlink:href="../resources/svg/common.svg#item" x="-500.48828125" y="-204.58984375" id="object_88" class="item item-3" transform="rotate(45.0 -500.48828125 -204.58984375)" />
<use xlink:href="../resources/svg/common.svg#item" x="-495.1171875" y="-311.5234375" id="object_89" class="item item-1" transform="rotate(45.0 -495.1171875 -311.5234375)" />
<use xlink:href="../resources/svg/common.svg#item" x="-499.51171875" y="-248.046875" id="object_90" class="item item-22" transform="rotate(45.0 -499.51171875 -248.046875)" />
<use xlink:href="../resources/svg/common.svg#item" x="-489.74609375" y="-185.546875" id="object_91" class="item item-20" transform="rotate(45.0 -489.74609375 -185.546875)" />
<use xlink:href="../resources/svg/common.svg#item" x="-407.71484375" y="-266.6015625" id="object_92" class="item item-35" transform="rotate(45.0 -407.71484375 -266.6015625)" />
<use xlink:href="../resources/svg/common.svg#item" x="-407.71484375" y="-258.7890625" id="object_93" class="item item-35" transform="rotate(45.0 -407.71484375 -258.7890625)" />
<use xlink:href="../resources/svg/common.svg#item" x="-407.71484375" y="-250.0" id="object_94" class="item item-35" transform="rotate(45.0 -407.71484375 -250.0)" />
<use xlink:href="../resources/svg/common.svg#item" x="-407.2265625" y="-232.421875" id="object_95" class="item item-23" transform="rotate(45.0 -407.2265625 -232.421875)" />
<use xlink:href="../resources/svg/common.svg#item" x="-406.73828125" y="-226.5625" id="object_96" class="item item-23" transform="rotate(45.0 -406.73828125 -226.5625)" />
<use xlink:href="../resources/svg/common.svg#item" x="-406.73828125" y="-219.7265625" id="object_97" class="item item-23" transform="rotate(45.0 -406.73828125 -219.7265625)" />
<use xlink:href="../resources/svg/common.svg#item" x="-407.2265625" y="-208.49609375" id="object_98" class="item item-7" transform="rotate(45.0 -407.2265625 -208.49609375)" />
<use xlink:href="../resources/svg/common.svg#item" x="-407.2265625" y="-199.21875" id="object_99" class="item item-7" transform="rotate(45.0 -407.2265625 -199.21875)" />
<use xlink:href="../resources/svg/common.svg#item" x="-407.2265625" y="-291.9921875" id="object_100" class="item item-6" transform="rotate(45.0 -407.2265625 -291.9921875)" />
<use xlink:href="../resources/svg/common.svg#item" x="-407.71484375" y="-282.2265625" id="object_101" class="item item-6" transform="rotate(45.0 -407.71484375 -282.2265625)" />
<use xlink:href="../resources/svg/common.svg#item" x="-407.2265625" y="-182.12890625" id="object_102" class="item item-9" transform="rotate(45.0 -407.2265625 -182.12890625)" />
<use xlink:href="../resources/svg/common.svg#item" x="-406.73828125" y="-172.36328125" id="object_103" class="item item-9" transform="rotate(45.0 -406.73828125 -172.36328125)" />
<!-- end group: "objects_item" -->
</g>
<g id="objects_player">
<use xlink:href="../resources/svg/common.svg#monster" x="-473.6328125" y="-306.640625" id="object_7" class="player" transform="rotate(86.484375 -473.6328125 -306.640625)" />
<use xlink:href="../resources/svg/common.svg#monster" x="-371.09375" y="204.1015625" id="object_8" class="player" transform="rotate(267.890625 -371.09375 204.1015625)" />
<use xlink:href="../resources/svg/common.svg#monster" x="-71.77734375" y="97.65625" id="object_9" class="player" transform="rotate(80.859375 -71.77734375 97.65625)" />
<use xlink:href="../resources/svg/common.svg#monster" x="68.359375" y="221.6796875" id="object_10" class="player" transform="rotate(267.890625 68.359375 221.6796875)" />
<use xlink:href="../resources/svg/common.svg#monster" x="306.640625" y="-308.59375" id="object_11" class="player" transform="rotate(252.421875 306.640625 -308.59375)" />
<use xlink:href="../resources/svg/common.svg#monster" x="-11.71875" y="-41.015625" id="object_12" class="player" transform="rotate(177.890625 -11.71875 -41.015625)" />
<use xlink:href="../resources/svg/common.svg#monster" x="190.4296875" y="-401.3671875" id="object_13" class="player" transform="rotate(142.734375 190.4296875 -401.3671875)" />
<use xlink:href="../resources/svg/common.svg#monster" x="-97.65625" y="-440.4296875" id="object_70" class="player" transform="rotate(45.703125 -97.65625 -440.4296875)" />
<!-- end group: "objects_player" -->
</g>
<!-- end group: "objects" -->
</g>
<g id="panels">
<!-- end group: "panels" -->
</g>
<g id="annotations">
<text x="-171.875" y="380.859375" id="annotation_0" class="annotation">The Coffin</text>
<text x="110.3515625" y="159.1796875" id="annotation_1" class="annotation">A Secret Place!</text>
<text x="117.1875" y="-229.4921875" id="annotation_2" class="annotation">FM was Here</text>
<!-- end group: "annotations" -->
</g>

<script xlink:href="../resources/js/level.js" ></script>
</svg>