<?xml version="1.0" encoding="UTF-8"?>
<!-- generated by map2svg: github.com/fracai/marathon-svg -->
<svg xmlns="http://www.w3.org/2000/svg" xmlns:xlink="http://www.w3.org/1999/xlink" version="1.1"
    viewBox="-500.0 -355.46875 968.75 886.71875">
<link xmlns="http://www.w3.org/1999/xhtml" rel="stylesheet" href="../resources/css/styles.css" type="text/css" />
<style id="dynamic-style" />
<g id="background-grid">
<defs>
<pattern id="grid_minor" width="3.125" height="3.125" patternUnits="userSpaceOnUse">
<path d="M 3.125 0 L 0 0 0 3.125" fill="none" class="grid_minor" />
</pattern>
<pattern id="grid_major" width="31.25" height="31.25" patternUnits="userSpaceOnUse">
<rect width="31.25" height="31.25" fill="url(#grid_minor)"/>
<path d="M 31.25 0 L 0 0 0 31.25" fill="none" class="grid_major" />
</pattern>
</defs>
<rect x="-1000" y="-1000" width="2000" height="2000" fill="url(#grid_major)" />
<line x1="0" y1="1000" x2="0" y2="-1000" class="grid_origin" />
<line x1="1000" y1="0" x2="-1000" y2="0" class="grid_origin" />
<!-- end group: "background-grid" -->
</g>
<g id="polygons">
<polygon points="-375.0,-54.6875 -343.75,-46.875 -351.5625,-7.8125 -382.8125,-15.625" id="poly_137" class="plain" />
<polygon points="-382.8125,-15.625 -351.5625,-7.8125 -351.5625,7.8125 -382.8125,15.625" id="poly_138" class="plain" />
<polygon points="-382.8125,15.625 -351.5625,7.8125 -343.75,46.875 -375.0,54.6875" id="poly_139" class="plain" />
<polygon points="-468.75,250.0 -429.6875,242.1875 -421.875,253.90625 -460.9375,277.34375" id="poly_150" class="plain" />
<polygon points="-421.875,253.90625 -410.15625,261.71875 -437.5,292.96875 -460.9375,277.34375" id="poly_151" class="plain" />
<polygon points="-125.0,375.0 -62.5,312.5 62.5,312.5 125.0,375.0 125.0,437.5 62.5,500.0 -62.5,500.0 -125.0,437.5" id="poly_71" class="plain" />
<polygon points="-367.1875,-93.75 -335.9375,-85.9375 -343.75,-46.875 -375.0,-54.6875" id="poly_136" class="plain" />
<polygon points="-375.0,54.6875 -343.75,46.875 -335.9375,85.9375 -367.1875,93.75" id="poly_140" class="plain" />
<polygon points="-468.75,218.75 -429.6875,226.5625 -429.6875,242.1875 -468.75,250.0" id="poly_149" class="plain" />
<polygon points="-410.15625,261.71875 -394.53125,265.625 -390.625,296.875 -437.5,292.96875" id="poly_152" class="plain" />
<polygon points="-31.25,250.0 31.25,250.0 62.5,312.5 -62.5,312.5" id="poly_69" class="plain" />
<polygon points="-359.375,-125.0 -328.125,-117.1875 -335.9375,-85.9375 -367.1875,-93.75" id="poly_135" class="plain" />
<polygon points="-367.1875,93.75 -335.9375,85.9375 -328.125,117.1875 -359.375,125.0" id="poly_141" class="plain" />
<polygon points="-457.03125,195.3125 -421.875,207.03125 -429.6875,226.5625 -468.75,218.75" id="poly_148" class="plain" />
<polygon points="-394.53125,265.625 -378.90625,257.8125 -359.375,285.15625 -390.625,296.875" id="poly_153" class="plain" />
<polygon points="-125.0,265.625 -109.375,242.1875 -31.25,250.0 -62.5,312.5" id="poly_68" class="plain" />
<polygon points="31.25,250.0 109.375,234.375 125.0,265.625 62.5,312.5" id="poly_70" class="plain" />
<polygon points="-351.5625,-148.4375 -320.3125,-140.625 -328.125,-117.1875 -359.375,-125.0" id="poly_134" class="plain" />
<polygon points="-359.375,125.0 -328.125,117.1875 -320.3125,140.625 -351.5625,148.4375" id="poly_142" class="plain" />
<polygon points="-437.5,171.875 -406.25,160.15625 -382.8125,187.5 -406.25,195.3125" id="poly_146" class="plain" />
<polygon points="-457.03125,195.3125 -437.5,171.875 -406.25,195.3125 -421.875,207.03125" id="poly_147" class="plain" />
<polygon points="-378.90625,257.8125 -367.1875,246.09375 -339.84375,265.625 -359.375,285.15625" id="poly_154" class="plain" />
<polygon points="-367.1875,246.09375 -355.46875,230.46875 -328.125,250.0 -339.84375,265.625" id="poly_155" class="plain" />
<polygon points="-281.25,164.0625 -269.53125,167.96875 -250.0,199.21875 -281.25,195.3125" id="poly_28" class="plain" />
<polygon points="-250.0,-187.5 -195.3125,-191.40625 -199.21875,-164.0625 -250.0,-156.25" id="poly_45" class="plain" />
<polygon points="-281.25,-195.3125 -250.0,-187.5 -250.0,-156.25 -281.25,-164.0625" id="poly_46" class="plain" />
<polygon points="-15.625,-226.5625 15.625,-226.5625 15.625,-218.75 -15.625,-218.75" id="poly_62" class="plain" />
<polygon points="-15.625,-312.5 15.625,-312.5 15.625,-226.5625 -15.625,-226.5625" id="poly_64" class="plain" />
<polygon points="-312.5,-148.4375 -281.25,-164.0625 -273.4375,-148.4375 -304.6875,-140.625" id="poly_72" class="plain" />
<polygon points="-304.6875,132.8125 -273.4375,148.4375 -281.25,164.0625 -312.5,148.4375" id="poly_73" class="plain" />
<polygon points="-343.75,164.0625 -312.5,148.4375 -281.25,164.0625 -281.25,195.3125 -312.5,210.9375 -347.65625,195.3125" id="poly_82" class="plain" />
<polygon points="-343.75,-195.3125 -312.5,-210.9375 -281.25,-195.3125 -281.25,-164.0625 -312.5,-148.4375 -343.75,-164.0625" id="poly_83" class="plain" />
<polygon points="-128.90625,234.375 -109.375,242.1875 -125.0,265.625 -140.625,261.71875" id="poly_92" class="plain" />
<polygon points="109.375,234.375 125.0,226.5625 140.625,257.8125 125.0,265.625" id="poly_93" class="plain" />
<polygon points="-343.75,-164.0625 -312.5,-148.4375 -320.3125,-140.625 -351.5625,-148.4375" id="poly_133" class="plain" />
<polygon points="-351.5625,148.4375 -320.3125,140.625 -312.5,148.4375 -343.75,164.0625" id="poly_143" class="plain" />
<polygon points="-367.1875,156.25 -343.75,164.0625 -347.65625,195.3125 -363.28125,187.5" id="poly_144" class="plain" />
<polygon points="-406.25,160.15625 -367.1875,156.25 -363.28125,187.5 -382.8125,187.5" id="poly_145" class="plain" />
<polygon points="-347.65625,214.84375 -347.65625,195.3125 -312.5,210.9375 -316.40625,230.46875" id="poly_156" class="plain" />
<polygon points="-347.65625,214.84375 -316.40625,230.46875 -328.125,250.0 -355.46875,230.46875" id="poly_157" class="plain" />
<polygon points="-269.53125,167.96875 -207.03125,160.15625 -199.21875,191.40625 -250.0,199.21875" id="poly_27" class="plain" />
<polygon points="-195.3125,-191.40625 -156.25,-187.5 -156.25,-160.15625 -199.21875,-164.0625" id="poly_44" class="plain" />
<polygon points="-39.0625,-210.9375 -15.625,-218.75 15.625,-218.75 39.0625,-210.9375 15.625,-187.5 -15.625,-187.5" id="poly_60" class="plain" />
<polygon points="15.625,-312.5 125.0,-308.59375 70.3125,-210.9375 15.625,-226.5625" id="poly_63" class="plain" />
<polygon points="-125.0,-308.59375 -15.625,-312.5 -15.625,-226.5625 -70.3125,-210.9375" id="poly_65" class="plain" />
<polygon points="-292.96875,-257.8125 -199.21875,-296.875 -234.375,-210.9375 -250.0,-187.5 -281.25,-195.3125 -312.5,-210.9375" id="poly_67" class="plain" />
<polygon points="-304.6875,-140.625 -273.4375,-148.4375 -265.625,-125.0 -296.875,-117.1875" id="poly_74" class="plain" />
<polygon points="-304.6875,132.8125 -296.875,109.375 -265.625,125.0 -273.4375,148.4375" id="poly_75" class="plain" />
<polygon points="-312.5,210.9375 -281.25,195.3125 -273.4375,210.9375 -304.6875,226.5625" id="poly_84" class="plain" />
<polygon points="-226.5625,234.375 -207.03125,222.65625 -199.21875,257.8125 -234.375,265.625" id="poly_88" class="plain" />
<polygon points="-207.03125,222.65625 -171.875,218.75 -171.875,253.90625 -199.21875,257.8125" id="poly_89" class="plain" />
<polygon points="-171.875,218.75 -152.34375,222.65625 -160.15625,253.90625 -171.875,253.90625" id="poly_90" class="plain" />
<polygon points="-152.34375,222.65625 -128.90625,234.375 -140.625,261.71875 -160.15625,253.90625" id="poly_91" class="plain" />
<polygon points="125.0,226.5625 148.4375,218.75 156.25,250.0 140.625,257.8125" id="poly_94" class="plain" />
<polygon points="-207.03125,160.15625 -171.875,152.34375 -164.0625,183.59375 -199.21875,191.40625" id="poly_26" class="plain" />
<polygon points="140.625,148.4375 183.59375,160.15625 171.875,191.40625 136.71875,183.59375" id="poly_31" class="plain" />
<polygon points="-156.25,-187.5 -125.0,-179.6875 -132.8125,-152.34375 -156.25,-160.15625" id="poly_43" class="plain" />
<polygon points="-62.5,-203.125 -39.0625,-210.9375 -15.625,-187.5 -39.0625,-179.6875" id="poly_59" class="plain" />
<polygon points="39.0625,-210.9375 62.5,-203.125 39.0625,-179.6875 15.625,-187.5" id="poly_61" class="plain" />
<polygon points="-199.21875,-296.875 -125.0,-308.59375 -70.3125,-210.9375 -93.75,-175.78125 -234.375,-210.9375" id="poly_66" class="plain" />
<polygon points="-296.875,-117.1875 -265.625,-125.0 -257.8125,-93.75 -289.0625,-85.9375" id="poly_76" class="plain" />
<polygon points="-289.0625,78.125 -257.8125,93.75 -265.625,125.0 -296.875,109.375" id="poly_77" class="plain" />
<polygon points="-304.6875,226.5625 -273.4375,210.9375 -257.8125,226.5625 -289.0625,242.1875" id="poly_85" class="plain" />
<polygon points="-242.1875,234.375 -226.5625,234.375 -234.375,265.625 -265.625,257.8125" id="poly_87" class="plain" />
<polygon points="148.4375,218.75 179.6875,210.9375 187.5,242.1875 156.25,250.0" id="poly_95" class="plain" />
<polygon points="125.0,-308.59375 218.75,-304.6875 234.375,-281.25 238.28125,-226.5625 93.75,-171.875 70.3125,-210.9375" id="poly_118" class="plain" />
<polygon points="-171.875,152.34375 -140.625,140.625 -132.8125,171.875 -164.0625,183.59375" id="poly_25" class="plain" />
<polygon points="117.1875,136.71875 140.625,148.4375 136.71875,183.59375 113.28125,171.875" id="poly_30" class="plain" />
<polygon points="183.59375,160.15625 222.65625,167.96875 214.84375,199.21875 171.875,191.40625" id="poly_32" class="plain" />
<polygon points="-125.0,-179.6875 -105.46875,-167.96875 -117.1875,-140.625 -132.8125,-152.34375" id="poly_42" class="plain" />
<polygon points="-62.5,-203.125 -39.0625,-179.6875 -54.6875,-164.0625 -85.9375,-171.875" id="poly_57" class="plain" />
<polygon points="39.0625,-179.6875 62.5,-203.125 85.9375,-171.875 54.6875,-164.0625" id="poly_58" class="plain" />
<polygon points="-281.25,39.0625 -250.0,54.6875 -257.8125,93.75 -289.0625,78.125" id="poly_78" class="plain" />
<polygon points="-289.0625,-85.9375 -257.8125,-93.75 -250.0,-54.6875 -281.25,-46.875" id="poly_79" class="plain" />
<polygon points="-257.8125,226.5625 -242.1875,234.375 -265.625,257.8125 -289.0625,242.1875" id="poly_86" class="plain" />
<polygon points="179.6875,210.9375 218.75,210.9375 203.125,242.1875 187.5,242.1875" id="poly_96" class="plain" />
<polygon points="218.75,-304.6875 242.1875,-320.3125 242.1875,-289.0625 234.375,-281.25" id="poly_117" class="plain" />
<polygon points="-140.625,140.625 -117.1875,132.8125 -113.28125,164.0625 -132.8125,171.875" id="poly_24" class="plain" />
<polygon points="101.5625,125.0 117.1875,136.71875 113.28125,171.875 97.65625,160.15625" id="poly_29" class="plain" />
<polygon points="222.65625,167.96875 265.625,167.96875 250.0,203.125 214.84375,199.21875" id="poly_33" class="plain" />
<polygon points="-105.46875,-167.96875 -93.75,-156.25 -101.5625,-125.0 -117.1875,-140.625" id="poly_41" class="plain" />
<polygon points="-85.9375,-171.875 -54.6875,-164.0625 -66.40625,-148.4375 -93.75,-156.25" id="poly_55" class="plain" />
<polygon points="54.6875,-164.0625 85.9375,-171.875 93.75,-156.25 62.5,-148.4375" id="poly_56" class="plain" />
<polygon points="-281.25,-46.875 -250.0,-54.6875 -242.1875,0.0 -273.4375,0.0" id="poly_80" class="plain" />
<polygon points="-273.4375,0.0 -242.1875,0.0 -250.0,54.6875 -281.25,39.0625" id="poly_81" class="plain" />
<polygon points="218.75,210.9375 250.0,218.75 234.375,250.0 203.125,242.1875" id="poly_97" class="plain" />
<polygon points="242.1875,-320.3125 277.34375,-324.21875 265.625,-296.875 242.1875,-289.0625" id="poly_116" class="plain" />
<polygon points="-93.75,-156.25 -66.40625,-148.4375 -66.40625,-128.90625 -101.5625,-125.0" id="poly_8" class="plain" />
<polygon points="62.5,-148.4375 93.75,-156.25 101.5625,-125.0 62.5,-128.90625" id="poly_9" class="plain" />
<polygon points="-101.5625,125.0 -62.5,136.71875 -62.5,156.25 -93.75,152.34375" id="poly_10" class="plain" />
<polygon points="62.5,136.71875 101.5625,125.0 97.65625,160.15625 62.5,156.25" id="poly_11" class="plain" />
<polygon points="-117.1875,132.8125 -101.5625,125.0 -93.75,152.34375 -113.28125,164.0625" id="poly_23" class="plain" />
<polygon points="265.625,167.96875 281.25,164.0625 281.25,199.21875 250.0,203.125" id="poly_34" class="plain" />
<polygon points="250.0,218.75 269.53125,230.46875 250.0,261.71875 234.375,250.0" id="poly_98" class="plain" />
<polygon points="277.34375,-324.21875 312.5,-316.40625 296.875,-289.0625 265.625,-296.875" id="poly_115" class="plain" />
<polygon points="281.25,164.0625 343.75,101.5625 343.75,132.8125 343.75,199.21875 281.25,199.21875" id="poly_119" class="plain" />
<polygon points="281.25,-191.40625 343.75,-195.3125 281.25,-121.09375 281.25,-164.0625" id="poly_120" class="plain" />
<polygon points="281.25,-121.09375 343.75,-195.3125 343.75,101.5625 281.25,164.0625 281.25,121.09375 281.25,89.84375 281.25,-89.84375" id="poly_121" class="plain" />
<polygon points="250.0,-125.0 281.25,-121.09375 281.25,-89.84375 253.90625,-93.75" id="poly_122" class="plain" />
<polygon points="253.90625,93.75 281.25,89.84375 281.25,121.09375 257.8125,125.0" id="poly_132" class="plain" />
<polygon points="-66.40625,-148.4375 62.5,-148.4375 62.5,-128.90625 31.25,-128.90625 0.0,-128.90625 -66.40625,-128.90625" id="poly_158" class="plain" />
<polygon points="-62.5,136.71875 -23.4375,136.71875 -23.4375,156.25 -62.5,156.25" id="poly_165" class="plain" />
<polygon points="23.4375,136.71875 62.5,136.71875 62.5,156.25 23.4375,156.25" id="poly_166" class="plain" />
<polygon points="-23.4375,136.71875 23.4375,136.71875 23.4375,156.25 -23.4375,156.25" id="poly_168" class="plain" />
<polygon points="-101.5625,-125.0 -66.40625,-128.90625 -66.40625,-117.1875 -93.75,-93.75" id="poly_5" class="plain" />
<polygon points="-93.75,85.9375 -62.5,117.1875 -62.5,136.71875 -101.5625,125.0" id="poly_7" class="plain" />
<polygon points="62.5,-117.1875 62.5,-128.90625 101.5625,-125.0 93.75,-93.75" id="poly_15" class="plain" />
<polygon points="62.5,117.1875 93.75,85.9375 101.5625,125.0 62.5,136.71875" id="poly_16" class="plain" />
<polygon points="93.75,-156.25 105.46875,-167.96875 117.1875,-140.625 101.5625,-125.0" id="poly_35" class="plain" />
<polygon points="222.65625,-195.3125 281.25,-191.40625 281.25,-164.0625 222.65625,-167.96875" id="poly_40" class="plain" />
<polygon points="-93.75,152.34375 -62.5,156.25 -54.6875,171.875 -85.9375,187.5" id="poly_47" class="plain" />
<polygon points="54.6875,171.875 62.5,156.25 97.65625,160.15625 85.9375,187.5" id="poly_48" class="plain" />
<polygon points="269.53125,230.46875 285.15625,238.28125 277.34375,269.53125 250.0,261.71875" id="poly_99" class="plain" />
<polygon points="343.75,101.5625 363.28125,101.5625 351.5625,132.8125 343.75,132.8125" id="poly_109" class="plain" />
<polygon points="316.40625,-210.9375 351.5625,-210.9375 343.75,-195.3125 281.25,-191.40625" id="poly_110" class="plain" />
<polygon points="312.5,-316.40625 347.65625,-292.96875 320.3125,-273.4375 296.875,-289.0625" id="poly_114" class="plain" />
<polygon points="191.40625,-121.09375 250.0,-125.0 253.90625,-93.75 218.75,-93.75" id="poly_123" class="plain" />
<polygon points="218.75,93.75 253.90625,93.75 257.8125,125.0 210.9375,121.09375" id="poly_131" class="plain" />
<polygon points="0.0,-128.90625 31.25,-128.90625 31.25,-82.03125" id="poly_159" class="plain" />
<polygon points="-93.75,-93.75 -66.40625,-117.1875 -62.5,-93.75 -85.9375,-62.5" id="poly_4" class="plain" />
<polygon points="58.59375,-93.75 62.5,-117.1875 93.75,-93.75 85.9375,-62.5" id="poly_14" class="plain" />
<polygon points="85.9375,62.5 93.75,85.9375 62.5,117.1875 54.6875,93.75" id="poly_17" class="plain" />
<polygon points="-85.9375,62.5 -54.6875,93.75 -62.5,117.1875 -93.75,85.9375" id="poly_21" class="plain" />
<polygon points="105.46875,-167.96875 136.71875,-183.59375 140.625,-156.25 117.1875,-140.625" id="poly_36" class="plain" />
<polygon points="207.03125,-195.3125 222.65625,-195.3125 222.65625,-167.96875 214.84375,-167.96875" id="poly_39" class="plain" />
<polygon points="-85.9375,187.5 -54.6875,171.875 -39.0625,187.5 -54.6875,218.75" id="poly_49" class="plain" />
<polygon points="39.0625,187.5 54.6875,171.875 85.9375,187.5 54.6875,218.75" id="poly_50" class="plain" />
<polygon points="285.15625,238.28125 312.5,242.1875 304.6875,273.4375 277.34375,269.53125" id="poly_100" class="plain" />
<polygon points="363.28125,101.5625 390.625,109.375 375.0,140.625 351.5625,132.8125" id="poly_108" class="plain" />
<polygon points="328.125,-234.375 359.375,-234.375 351.5625,-210.9375 316.40625,-210.9375" id="poly_111" class="plain" />
<polygon points="320.3125,-273.4375 347.65625,-292.96875 359.375,-265.625 328.125,-257.8125" id="poly_113" class="plain" />
<polygon points="191.40625,-121.09375 218.75,-93.75 167.96875,-82.03125 144.53125,-105.46875" id="poly_124" class="plain" />
<polygon points="136.71875,97.65625 175.78125,82.03125 218.75,93.75 210.9375,121.09375" id="poly_130" class="plain" />
<polygon points="-85.9375,-62.5 -62.5,-93.75 -50.78125,-74.21875 -78.125,-46.875" id="poly_3" class="plain" />
<polygon points="50.78125,-74.21875 58.59375,-93.75 85.9375,-62.5 78.125,-46.875" id="poly_13" class="plain" />
<polygon points="78.125,46.875 85.9375,62.5 54.6875,93.75 46.875,78.125" id="poly_18" class="plain" />
<polygon points="-78.125,46.875 -46.875,78.125 -54.6875,93.75 -85.9375,62.5" id="poly_20" class="plain" />
<polygon points="136.71875,-183.59375 167.96875,-191.40625 171.875,-164.0625 140.625,-156.25" id="poly_37" class="plain" />
<polygon points="167.96875,-191.40625 207.03125,-195.3125 214.84375,-167.96875 171.875,-164.0625" id="poly_38" class="plain" />
<polygon points="-39.0625,187.5 -23.4375,195.3125 -23.4375,234.375 -54.6875,218.75" id="poly_51" class="plain" />
<polygon points="23.4375,195.3125 39.0625,187.5 54.6875,218.75 23.4375,234.375" id="poly_52" class="plain" />
<polygon points="312.5,242.1875 335.9375,242.1875 343.75,273.4375 304.6875,273.4375" id="poly_101" class="plain" />
<polygon points="390.625,109.375 417.96875,128.90625 390.625,152.34375 375.0,140.625" id="poly_107" class="plain" />
<polygon points="328.125,-257.8125 359.375,-265.625 359.375,-234.375 328.125,-234.375" id="poly_112" class="plain" />
<polygon points="144.53125,-105.46875 167.96875,-82.03125 132.8125,-58.59375 97.65625,-74.21875" id="poly_125" class="plain" />
<polygon points="93.75,66.40625 144.53125,66.40625 175.78125,82.03125 136.71875,97.65625" id="poly_129" class="plain" />
<polygon points="0.0,-128.90625 31.25,-82.03125 0.0,-82.03125" id="poly_160" class="plain" />
<polygon points="-50.78125,-74.21875 -31.25,-62.5 -62.5,-31.25 -78.125,-46.875" id="poly_2" class="plain" />
<polygon points="62.5,31.25 78.125,46.875 46.875,78.125 31.25,62.5" id="poly_6" class="plain" />
<polygon points="31.25,-62.5 50.78125,-74.21875 78.125,-46.875 62.5,-31.25" id="poly_12" class="plain" />
<polygon points="-62.5,31.25 -31.25,62.5 -46.875,78.125 -78.125,46.875" id="poly_19" class="plain" />
<polygon points="-23.4375,195.3125 23.4375,195.3125 23.4375,234.375 7.8125,238.28125 -7.8125,238.28125 -23.4375,234.375" id="poly_53" class="plain" />
<polygon points="335.9375,242.1875 367.1875,234.375 375.0,265.625 343.75,273.4375" id="poly_102" class="plain" />
<polygon points="390.625,152.34375 417.96875,128.90625 437.5,160.15625 402.34375,167.96875" id="poly_106" class="plain" />
<polygon points="97.65625,-74.21875 132.8125,-58.59375 113.28125,-23.4375 78.125,-27.34375" id="poly_126" class="plain" />
<polygon points="78.125,27.34375 113.28125,23.4375 144.53125,66.40625 93.75,66.40625" id="poly_128" class="plain" />
<polygon points="0.0,-128.90625 0.0,-82.03125 -31.25,-82.03125" id="poly_161" class="plain" />
<polygon points="-62.5,-31.25 -31.25,-62.5 31.25,62.5 -31.25,62.5 -62.5,31.25" id="poly_0" class="hill" />
<polygon points="-31.25,-62.5 31.25,-62.5 62.5,-31.25 62.5,31.25 31.25,62.5" id="poly_1" class="hill" />
<polygon points="367.1875,234.375 390.625,218.75 410.15625,242.1875 375.0,265.625" id="poly_103" class="plain" />
<polygon points="402.34375,167.96875 437.5,160.15625 433.59375,203.125 402.34375,195.3125" id="poly_105" class="plain" />
<polygon points="78.125,-27.34375 113.28125,-23.4375 113.28125,23.4375 78.125,27.34375" id="poly_127" class="plain" />
<polygon points="-31.25,-82.03125 0.0,-82.03125 31.25,-82.03125 31.25,-70.3125 -31.25,-70.3125" id="poly_162" class="plain" />
<polygon points="-7.8125,238.28125 7.8125,238.28125 7.8125,246.09375 -7.8125,246.09375" id="poly_54" class="plain" />
<polygon points="-23.4375,156.25 23.4375,156.25 23.4375,195.3125 -23.4375,195.3125" id="poly_167" class="plain" />
<polygon points="-31.25,62.5 31.25,62.5 23.4375,136.71875 -23.4375,136.71875" id="poly_169" class="plain" />
<polygon points="402.34375,195.3125 433.59375,203.125 410.15625,242.1875 390.625,218.75" id="poly_104" class="plain" />
<polygon points="62.5,-31.25 78.125,-27.34375 78.125,27.34375 62.5,31.25" id="poly_164" class="plain" />
<polygon points="-78.125,-46.875 -62.5,-31.25 -62.5,31.25 -78.125,46.875" id="poly_22" class="plain" />
<polygon points="-31.25,-70.3125 31.25,-70.3125 31.25,-62.5 -31.25,-62.5" id="poly_163" class="plain" />
<!-- end group: "polygons" -->
</g>
<g id="borders">
<g id="border_plain">
<line x1="-31.25" y1="-62.5" x2="31.25" y2="62.5" id="line_29" class="plain" />
<line x1="-93.75" y1="152.34375" x2="-101.5625" y2="125.0" id="line_36" class="plain" />
<line x1="-281.25" y1="195.3125" x2="-281.25" y2="164.0625" id="line_87" class="plain" />
<line x1="281.25" y1="164.0625" x2="281.25" y2="199.21875" id="line_105" class="plain" />
<line x1="167.96875" y1="-191.40625" x2="171.875" y2="-164.0625" id="line_115" class="plain" />
<line x1="-250.0" y1="-156.25" x2="-250.0" y2="-187.5" id="line_138" class="plain" />
<line x1="-281.25" y1="-164.0625" x2="-281.25" y2="-195.3125" id="line_141" class="plain" />
<line x1="-15.625" y1="-226.5625" x2="15.625" y2="-226.5625" id="line_195" class="plain" />
<line x1="-281.25" y1="164.0625" x2="-312.5" y2="148.4375" id="line_218" class="plain" />
<line x1="-312.5" y1="-148.4375" x2="-281.25" y2="-164.0625" id="line_237" class="plain" />
<line x1="-242.1875" y1="0.0" x2="-273.4375" y2="0.0" id="line_266" class="plain" />
<line x1="-343.75" y1="164.0625" x2="-312.5" y2="148.4375" id="line_267" class="plain" />
<line x1="-347.65625" y1="195.3125" x2="-343.75" y2="164.0625" id="line_268" class="plain" />
<line x1="-312.5" y1="210.9375" x2="-347.65625" y2="195.3125" id="line_269" class="plain" />
<line x1="-312.5" y1="-148.4375" x2="-343.75" y2="-164.0625" id="line_272" class="plain" />
<line x1="-207.03125" y1="222.65625" x2="-199.21875" y2="257.8125" id="line_286" class="plain" />
<line x1="-171.875" y1="218.75" x2="-171.875" y2="253.90625" id="line_289" class="plain" />
<line x1="-152.34375" y1="222.65625" x2="-160.15625" y2="253.90625" id="line_292" class="plain" />
<line x1="281.25" y1="164.0625" x2="343.75" y2="101.5625" id="line_375" class="plain" />
<line x1="281.25" y1="-89.84375" x2="281.25" y2="-121.09375" id="line_379" class="plain" />
<line x1="281.25" y1="121.09375" x2="281.25" y2="89.84375" id="line_384" class="plain" />
<line x1="343.75" y1="-195.3125" x2="281.25" y2="-121.09375" id="line_412" class="plain" />
<line x1="-351.5625" y1="-7.8125" x2="-382.8125" y2="-15.625" id="line_426" class="plain" />
<line x1="-351.5625" y1="7.8125" x2="-382.8125" y2="15.625" id="line_429" class="plain" />
<line x1="-363.28125" y1="187.5" x2="-367.1875" y2="156.25" id="line_450" class="plain" />
<line x1="-406.25" y1="195.3125" x2="-437.5" y2="171.875" id="line_454" class="plain" />
<line x1="-421.875" y1="253.90625" x2="-460.9375" y2="277.34375" id="line_465" class="plain" />
<line x1="-316.40625" y1="230.46875" x2="-347.65625" y2="214.84375" id="line_477" class="plain" />
<line x1="-367.1875" y1="246.09375" x2="-339.84375" y2="265.625" id="line_480" class="plain" />
<line x1="-23.4375" y1="136.71875" x2="-23.4375" y2="156.25" id="line_509" class="plain" />
<line x1="23.4375" y1="156.25" x2="23.4375" y2="136.71875" id="line_513" class="plain" />
<!-- end group: "border_plain" -->
</g>
<g id="border_ceiling">
<line x1="31.25" y1="-128.90625" x2="0.0" y2="-128.90625" id="line_487" class="ceiling" />
<!-- end group: "border_ceiling" -->
</g>
<g id="border_elevation">
<line x1="-62.5" y1="-31.25" x2="-31.25" y2="-62.5" id="line_0" class="elevation" />
<line x1="-31.25" y1="-62.5" x2="31.25" y2="-62.5" id="line_1" class="elevation" />
<line x1="31.25" y1="-62.5" x2="62.5" y2="-31.25" id="line_2" class="elevation" />
<line x1="62.5" y1="-31.25" x2="62.5" y2="31.25" id="line_3" class="elevation" />
<line x1="62.5" y1="31.25" x2="31.25" y2="62.5" id="line_4" class="elevation" />
<line x1="31.25" y1="62.5" x2="-31.25" y2="62.5" id="line_5" class="elevation" />
<line x1="-31.25" y1="62.5" x2="-62.5" y2="31.25" id="line_6" class="elevation" />
<line x1="-62.5" y1="31.25" x2="-62.5" y2="-31.25" id="line_7" class="elevation" />
<line x1="-78.125" y1="-46.875" x2="-50.78125" y2="-74.21875" id="line_9" class="elevation" />
<line x1="-62.5" y1="-31.25" x2="-78.125" y2="-46.875" id="line_10" class="elevation" />
<line x1="-85.9375" y1="-62.5" x2="-62.5" y2="-93.75" id="line_12" class="elevation" />
<line x1="-93.75" y1="-93.75" x2="-66.40625" y2="-117.1875" id="line_15" class="elevation" />
<line x1="-101.5625" y1="-125.0" x2="-66.40625" y2="-128.90625" id="line_18" class="elevation" />
<line x1="101.5625" y1="-125.0" x2="62.5" y2="-128.90625" id="line_20" class="elevation" />
<line x1="78.125" y1="46.875" x2="46.875" y2="78.125" id="line_22" class="elevation" />
<line x1="62.5" y1="136.71875" x2="101.5625" y2="125.0" id="line_24" class="elevation" />
<line x1="-93.75" y1="85.9375" x2="-62.5" y2="117.1875" id="line_25" class="elevation" />
<line x1="-62.5" y1="136.71875" x2="-101.5625" y2="125.0" id="line_27" class="elevation" />
<line x1="62.5" y1="-128.90625" x2="62.5" y2="-148.4375" id="line_30" class="elevation" />
<line x1="62.5" y1="-148.4375" x2="93.75" y2="-156.25" id="line_31" class="elevation" />
<line x1="93.75" y1="-156.25" x2="101.5625" y2="-125.0" id="line_32" class="elevation" />
<line x1="-66.40625" y1="-148.4375" x2="-66.40625" y2="-128.90625" id="line_33" class="elevation" />
<line x1="-93.75" y1="-156.25" x2="-66.40625" y2="-148.4375" id="line_34" class="elevation" />
<line x1="-101.5625" y1="-125.0" x2="-93.75" y2="-156.25" id="line_35" class="elevation" />
<line x1="-62.5" y1="156.25" x2="-93.75" y2="152.34375" id="line_37" class="elevation" />
<line x1="-62.5" y1="136.71875" x2="-62.5" y2="156.25" id="line_38" class="elevation" />
<line x1="62.5" y1="156.25" x2="62.5" y2="136.71875" id="line_39" class="elevation" />
<line x1="97.65625" y1="160.15625" x2="62.5" y2="156.25" id="line_40" class="elevation" />
<line x1="101.5625" y1="125.0" x2="97.65625" y2="160.15625" id="line_41" class="elevation" />
<line x1="50.78125" y1="-74.21875" x2="78.125" y2="-46.875" id="line_43" class="elevation" />
<line x1="58.59375" y1="-93.75" x2="85.9375" y2="-62.5" id="line_46" class="elevation" />
<line x1="62.5" y1="-117.1875" x2="93.75" y2="-93.75" id="line_49" class="elevation" />
<line x1="62.5" y1="117.1875" x2="93.75" y2="85.9375" id="line_54" class="elevation" />
<line x1="54.6875" y1="93.75" x2="85.9375" y2="62.5" id="line_57" class="elevation" />
<line x1="-46.875" y1="78.125" x2="-78.125" y2="46.875" id="line_62" class="elevation" />
<line x1="-78.125" y1="46.875" x2="-62.5" y2="31.25" id="line_63" class="elevation" />
<line x1="-54.6875" y1="93.75" x2="-85.9375" y2="62.5" id="line_65" class="elevation" />
<line x1="-113.28125" y1="164.0625" x2="-117.1875" y2="132.8125" id="line_72" class="elevation" />
<line x1="-132.8125" y1="171.875" x2="-140.625" y2="140.625" id="line_75" class="elevation" />
<line x1="-164.0625" y1="183.59375" x2="-171.875" y2="152.34375" id="line_78" class="elevation" />
<line x1="-199.21875" y1="191.40625" x2="-207.03125" y2="160.15625" id="line_82" class="elevation" />
<line x1="-250.0" y1="199.21875" x2="-269.53125" y2="167.96875" id="line_84" class="elevation" />
<line x1="117.1875" y1="136.71875" x2="113.28125" y2="171.875" id="line_90" class="elevation" />
<line x1="140.625" y1="148.4375" x2="136.71875" y2="183.59375" id="line_94" class="elevation" />
<line x1="183.59375" y1="160.15625" x2="171.875" y2="191.40625" id="line_97" class="elevation" />
<line x1="222.65625" y1="167.96875" x2="214.84375" y2="199.21875" id="line_100" class="elevation" />
<line x1="265.625" y1="167.96875" x2="250.0" y2="203.125" id="line_103" class="elevation" />
<line x1="105.46875" y1="-167.96875" x2="117.1875" y2="-140.625" id="line_108" class="elevation" />
<line x1="136.71875" y1="-183.59375" x2="140.625" y2="-156.25" id="line_112" class="elevation" />
<line x1="207.03125" y1="-195.3125" x2="214.84375" y2="-167.96875" id="line_118" class="elevation" />
<line x1="222.65625" y1="-195.3125" x2="222.65625" y2="-167.96875" id="line_121" class="elevation" />
<line x1="281.25" y1="-191.40625" x2="281.25" y2="-164.0625" id="line_123" class="elevation" />
<line x1="-117.1875" y1="-140.625" x2="-105.46875" y2="-167.96875" id="line_126" class="elevation" />
<line x1="-132.8125" y1="-152.34375" x2="-125.0" y2="-179.6875" id="line_130" class="elevation" />
<line x1="-156.25" y1="-160.15625" x2="-156.25" y2="-187.5" id="line_133" class="elevation" />
<line x1="-199.21875" y1="-164.0625" x2="-195.3125" y2="-191.40625" id="line_136" class="elevation" />
<line x1="-281.25" y1="-195.3125" x2="-250.0" y2="-187.5" id="line_140" class="elevation" />
<line x1="-54.6875" y1="171.875" x2="-85.9375" y2="187.5" id="line_144" class="elevation" />
<line x1="85.9375" y1="187.5" x2="54.6875" y2="171.875" id="line_147" class="elevation" />
<line x1="-39.0625" y1="187.5" x2="-54.6875" y2="218.75" id="line_152" class="elevation" />
<line x1="54.6875" y1="218.75" x2="39.0625" y2="187.5" id="line_154" class="elevation" />
<line x1="-23.4375" y1="195.3125" x2="-23.4375" y2="234.375" id="line_158" class="elevation" />
<line x1="23.4375" y1="234.375" x2="23.4375" y2="195.3125" id="line_159" class="elevation" />
<line x1="-23.4375" y1="195.3125" x2="23.4375" y2="195.3125" id="line_161" class="elevation" />
<line x1="7.8125" y1="238.28125" x2="-7.8125" y2="238.28125" id="line_163" class="elevation" />
<line x1="54.6875" y1="-164.0625" x2="85.9375" y2="-171.875" id="line_170" class="elevation" />
<line x1="-85.9375" y1="-171.875" x2="-54.6875" y2="-164.0625" id="line_173" class="elevation" />
<line x1="39.0625" y1="-179.6875" x2="62.5" y2="-203.125" id="line_176" class="elevation" />
<line x1="-62.5" y1="-203.125" x2="-39.0625" y2="-179.6875" id="line_179" class="elevation" />
<line x1="39.0625" y1="-210.9375" x2="15.625" y2="-187.5" id="line_185" class="elevation" />
<line x1="-39.0625" y1="-210.9375" x2="-15.625" y2="-187.5" id="line_186" class="elevation" />
<line x1="-15.625" y1="-218.75" x2="15.625" y2="-218.75" id="line_188" class="elevation" />
<line x1="343.75" y1="-195.3125" x2="281.25" y2="-191.40625" id="line_191" class="elevation" />
<line x1="15.625" y1="-226.5625" x2="15.625" y2="-312.5" id="line_200" class="elevation" />
<line x1="125.0" y1="-308.59375" x2="70.3125" y2="-210.9375" id="line_202" class="elevation" />
<line x1="234.375" y1="-281.25" x2="218.75" y2="-304.6875" id="line_203" class="elevation" />
<line x1="-15.625" y1="-226.5625" x2="-15.625" y2="-312.5" id="line_205" class="elevation" />
<line x1="-70.3125" y1="-210.9375" x2="-125.0" y2="-308.59375" id="line_207" class="elevation" />
<line x1="-234.375" y1="-210.9375" x2="-199.21875" y2="-296.875" id="line_211" class="elevation" />
<line x1="-281.25" y1="-195.3125" x2="-312.5" y2="-210.9375" id="line_214" class="elevation" />
<line x1="-281.25" y1="195.3125" x2="-312.5" y2="210.9375" id="line_219" class="elevation" />
<line x1="62.5" y1="312.5" x2="-62.5" y2="312.5" id="line_224" class="elevation" />
<line x1="-125.0" y1="265.625" x2="-109.375" y2="242.1875" id="line_226" class="elevation" />
<line x1="-31.25" y1="250.0" x2="-62.5" y2="312.5" id="line_227" class="elevation" />
<line x1="31.25" y1="250.0" x2="62.5" y2="312.5" id="line_228" class="elevation" />
<line x1="109.375" y1="234.375" x2="125.0" y2="265.625" id="line_229" class="elevation" />
<line x1="-273.4375" y1="-148.4375" x2="-304.6875" y2="-140.625" id="line_239" class="elevation" />
<line x1="-304.6875" y1="132.8125" x2="-273.4375" y2="148.4375" id="line_242" class="elevation" />
<line x1="-296.875" y1="109.375" x2="-265.625" y2="125.0" id="line_246" class="elevation" />
<line x1="-265.625" y1="-125.0" x2="-296.875" y2="-117.1875" id="line_249" class="elevation" />
<line x1="-257.8125" y1="-93.75" x2="-289.0625" y2="-85.9375" id="line_252" class="elevation" />
<line x1="-289.0625" y1="78.125" x2="-257.8125" y2="93.75" id="line_255" class="elevation" />
<line x1="-250.0" y1="-54.6875" x2="-281.25" y2="-46.875" id="line_258" class="elevation" />
<line x1="-281.25" y1="39.0625" x2="-250.0" y2="54.6875" id="line_261" class="elevation" />
<line x1="-273.4375" y1="210.9375" x2="-304.6875" y2="226.5625" id="line_274" class="elevation" />
<line x1="-257.8125" y1="226.5625" x2="-289.0625" y2="242.1875" id="line_278" class="elevation" />
<line x1="-242.1875" y1="234.375" x2="-265.625" y2="257.8125" id="line_281" class="elevation" />
<line x1="-226.5625" y1="234.375" x2="-234.375" y2="265.625" id="line_283" class="elevation" />
<line x1="-128.90625" y1="234.375" x2="-140.625" y2="261.71875" id="line_296" class="elevation" />
<line x1="125.0" y1="226.5625" x2="140.625" y2="257.8125" id="line_300" class="elevation" />
<line x1="148.4375" y1="218.75" x2="156.25" y2="250.0" id="line_303" class="elevation" />
<line x1="179.6875" y1="210.9375" x2="187.5" y2="242.1875" id="line_307" class="elevation" />
<line x1="218.75" y1="210.9375" x2="203.125" y2="242.1875" id="line_310" class="elevation" />
<line x1="250.0" y1="218.75" x2="234.375" y2="250.0" id="line_312" class="elevation" />
<line x1="269.53125" y1="230.46875" x2="250.0" y2="261.71875" id="line_315" class="elevation" />
<line x1="285.15625" y1="238.28125" x2="277.34375" y2="269.53125" id="line_318" class="elevation" />
<line x1="312.5" y1="242.1875" x2="304.6875" y2="273.4375" id="line_322" class="elevation" />
<line x1="335.9375" y1="242.1875" x2="343.75" y2="273.4375" id="line_325" class="elevation" />
<line x1="367.1875" y1="234.375" x2="375.0" y2="265.625" id="line_328" class="elevation" />
<line x1="390.625" y1="218.75" x2="410.15625" y2="242.1875" id="line_331" class="elevation" />
<line x1="402.34375" y1="195.3125" x2="433.59375" y2="203.125" id="line_333" class="elevation" />
<line x1="402.34375" y1="167.96875" x2="437.5" y2="160.15625" id="line_336" class="elevation" />
<line x1="390.625" y1="152.34375" x2="417.96875" y2="128.90625" id="line_339" class="elevation" />
<line x1="375.0" y1="140.625" x2="390.625" y2="109.375" id="line_342" class="elevation" />
<line x1="351.5625" y1="132.8125" x2="363.28125" y2="101.5625" id="line_345" class="elevation" />
<line x1="343.75" y1="132.8125" x2="343.75" y2="101.5625" id="line_347" class="elevation" />
<line x1="316.40625" y1="-210.9375" x2="351.5625" y2="-210.9375" id="line_352" class="elevation" />
<line x1="328.125" y1="-234.375" x2="359.375" y2="-234.375" id="line_363" class="elevation" />
<line x1="328.125" y1="-257.8125" x2="359.375" y2="-265.625" id="line_365" class="elevation" />
<line x1="320.3125" y1="-273.4375" x2="347.65625" y2="-292.96875" id="line_367" class="elevation" />
<line x1="296.875" y1="-289.0625" x2="312.5" y2="-316.40625" id="line_369" class="elevation" />
<line x1="265.625" y1="-296.875" x2="277.34375" y2="-324.21875" id="line_371" class="elevation" />
<line x1="242.1875" y1="-289.0625" x2="242.1875" y2="-320.3125" id="line_373" class="elevation" />
<line x1="253.90625" y1="-93.75" x2="250.0" y2="-125.0" id="line_378" class="elevation" />
<line x1="253.90625" y1="93.75" x2="257.8125" y2="125.0" id="line_383" class="elevation" />
<line x1="218.75" y1="-93.75" x2="191.40625" y2="-121.09375" id="line_396" class="elevation" />
<line x1="167.96875" y1="-82.03125" x2="144.53125" y2="-105.46875" id="line_398" class="elevation" />
<line x1="132.8125" y1="-58.59375" x2="97.65625" y2="-74.21875" id="line_400" class="elevation" />
<line x1="113.28125" y1="-23.4375" x2="78.125" y2="-27.34375" id="line_402" class="elevation" />
<line x1="78.125" y1="27.34375" x2="78.125" y2="-27.34375" id="line_403" class="elevation" />
<line x1="113.28125" y1="23.4375" x2="78.125" y2="27.34375" id="line_404" class="elevation" />
<line x1="144.53125" y1="66.40625" x2="93.75" y2="66.40625" id="line_406" class="elevation" />
<line x1="175.78125" y1="82.03125" x2="136.71875" y2="97.65625" id="line_408" class="elevation" />
<line x1="218.75" y1="93.75" x2="210.9375" y2="121.09375" id="line_410" class="elevation" />
<line x1="-320.3125" y1="-140.625" x2="-351.5625" y2="-148.4375" id="line_414" class="elevation" />
<line x1="-328.125" y1="-117.1875" x2="-359.375" y2="-125.0" id="line_418" class="elevation" />
<line x1="-335.9375" y1="-85.9375" x2="-367.1875" y2="-93.75" id="line_420" class="elevation" />
<line x1="-343.75" y1="-46.875" x2="-375.0" y2="-54.6875" id="line_423" class="elevation" />
<line x1="-343.75" y1="46.875" x2="-375.0" y2="54.6875" id="line_432" class="elevation" />
<line x1="-335.9375" y1="85.9375" x2="-367.1875" y2="93.75" id="line_435" class="elevation" />
<line x1="-328.125" y1="117.1875" x2="-359.375" y2="125.0" id="line_438" class="elevation" />
<line x1="-320.3125" y1="140.625" x2="-351.5625" y2="148.4375" id="line_444" class="elevation" />
<line x1="-382.8125" y1="187.5" x2="-406.25" y2="160.15625" id="line_452" class="elevation" />
<line x1="-421.875" y1="207.03125" x2="-457.03125" y2="195.3125" id="line_456" class="elevation" />
<line x1="-429.6875" y1="226.5625" x2="-468.75" y2="218.75" id="line_459" class="elevation" />
<line x1="-429.6875" y1="242.1875" x2="-468.75" y2="250.0" id="line_462" class="elevation" />
<line x1="-410.15625" y1="261.71875" x2="-437.5" y2="292.96875" id="line_468" class="elevation" />
<line x1="-394.53125" y1="265.625" x2="-390.625" y2="296.875" id="line_471" class="elevation" />
<line x1="-378.90625" y1="257.8125" x2="-359.375" y2="285.15625" id="line_474" class="elevation" />
<line x1="-355.46875" y1="230.46875" x2="-328.125" y2="250.0" id="line_478" class="elevation" />
<line x1="31.25" y1="-82.03125" x2="0.0" y2="-128.90625" id="line_490" class="elevation" />
<line x1="0.0" y1="-82.03125" x2="0.0" y2="-128.90625" id="line_491" class="elevation" />
<line x1="31.25" y1="-82.03125" x2="0.0" y2="-82.03125" id="line_492" class="elevation" />
<line x1="0.0" y1="-82.03125" x2="-31.25" y2="-82.03125" id="line_494" class="elevation" />
<line x1="31.25" y1="-70.3125" x2="-31.25" y2="-70.3125" id="line_496" class="elevation" />
<line x1="-23.4375" y1="156.25" x2="23.4375" y2="156.25" id="line_506" class="elevation" />
<line x1="-23.4375" y1="136.71875" x2="23.4375" y2="136.71875" id="line_511" class="elevation" />
<!-- end group: "border_elevation" -->
</g>
<g id="border_solid">
<line x1="-50.78125" y1="-74.21875" x2="-31.25" y2="-62.5" id="line_8" class="solid" />
<line x1="-62.5" y1="-93.75" x2="-50.78125" y2="-74.21875" id="line_11" class="solid" />
<line x1="-78.125" y1="-46.875" x2="-85.9375" y2="-62.5" id="line_13" class="solid" />
<line x1="-66.40625" y1="-117.1875" x2="-62.5" y2="-93.75" id="line_14" class="solid" />
<line x1="-85.9375" y1="-62.5" x2="-93.75" y2="-93.75" id="line_16" class="solid" />
<line x1="-93.75" y1="-93.75" x2="-101.5625" y2="-125.0" id="line_17" class="solid" />
<line x1="-66.40625" y1="-128.90625" x2="-66.40625" y2="-117.1875" id="line_19" class="solid" />
<line x1="62.5" y1="31.25" x2="78.125" y2="46.875" id="line_21" class="solid" />
<line x1="46.875" y1="78.125" x2="31.25" y2="62.5" id="line_23" class="solid" />
<line x1="-101.5625" y1="125.0" x2="-93.75" y2="85.9375" id="line_26" class="solid" />
<line x1="-62.5" y1="117.1875" x2="-62.5" y2="136.71875" id="line_28" class="solid" />
<line x1="31.25" y1="-62.5" x2="50.78125" y2="-74.21875" id="line_42" class="solid" />
<line x1="78.125" y1="-46.875" x2="62.5" y2="-31.25" id="line_44" class="solid" />
<line x1="50.78125" y1="-74.21875" x2="58.59375" y2="-93.75" id="line_45" class="solid" />
<line x1="85.9375" y1="-62.5" x2="78.125" y2="-46.875" id="line_47" class="solid" />
<line x1="62.5" y1="-117.1875" x2="62.5" y2="-128.90625" id="line_48" class="solid" />
<line x1="101.5625" y1="-125.0" x2="93.75" y2="-93.75" id="line_50" class="solid" />
<line x1="58.59375" y1="-93.75" x2="62.5" y2="-117.1875" id="line_51" class="solid" />
<line x1="93.75" y1="-93.75" x2="85.9375" y2="-62.5" id="line_52" class="solid" />
<line x1="93.75" y1="85.9375" x2="101.5625" y2="125.0" id="line_53" class="solid" />
<line x1="62.5" y1="136.71875" x2="62.5" y2="117.1875" id="line_55" class="solid" />
<line x1="62.5" y1="117.1875" x2="54.6875" y2="93.75" id="line_56" class="solid" />
<line x1="85.9375" y1="62.5" x2="93.75" y2="85.9375" id="line_58" class="solid" />
<line x1="54.6875" y1="93.75" x2="46.875" y2="78.125" id="line_59" class="solid" />
<line x1="78.125" y1="46.875" x2="85.9375" y2="62.5" id="line_60" class="solid" />
<line x1="-31.25" y1="62.5" x2="-46.875" y2="78.125" id="line_61" class="solid" />
<line x1="-85.9375" y1="62.5" x2="-78.125" y2="46.875" id="line_64" class="solid" />
<line x1="-46.875" y1="78.125" x2="-54.6875" y2="93.75" id="line_66" class="solid" />
<line x1="-93.75" y1="85.9375" x2="-85.9375" y2="62.5" id="line_67" class="solid" />
<line x1="-54.6875" y1="93.75" x2="-62.5" y2="117.1875" id="line_68" class="solid" />
<line x1="-66.40625" y1="-148.4375" x2="62.5" y2="-148.4375" id="line_69" class="solid" />
<line x1="-78.125" y1="46.875" x2="-78.125" y2="-46.875" id="line_70" class="solid" />
<line x1="-117.1875" y1="132.8125" x2="-101.5625" y2="125.0" id="line_71" class="solid" />
<line x1="-93.75" y1="152.34375" x2="-113.28125" y2="164.0625" id="line_73" class="solid" />
<line x1="-140.625" y1="140.625" x2="-117.1875" y2="132.8125" id="line_74" class="solid" />
<line x1="-113.28125" y1="164.0625" x2="-132.8125" y2="171.875" id="line_76" class="solid" />
<line x1="-171.875" y1="152.34375" x2="-140.625" y2="140.625" id="line_77" class="solid" />
<line x1="-132.8125" y1="171.875" x2="-164.0625" y2="183.59375" id="line_79" class="solid" />
<line x1="-207.03125" y1="160.15625" x2="-171.875" y2="152.34375" id="line_80" class="solid" />
<line x1="-164.0625" y1="183.59375" x2="-199.21875" y2="191.40625" id="line_81" class="solid" />
<line x1="-269.53125" y1="167.96875" x2="-207.03125" y2="160.15625" id="line_83" class="solid" />
<line x1="-199.21875" y1="191.40625" x2="-250.0" y2="199.21875" id="line_85" class="solid" />
<line x1="-281.25" y1="164.0625" x2="-269.53125" y2="167.96875" id="line_86" class="solid" />
<line x1="-250.0" y1="199.21875" x2="-281.25" y2="195.3125" id="line_88" class="solid" />
<line x1="101.5625" y1="125.0" x2="117.1875" y2="136.71875" id="line_89" class="solid" />
<line x1="113.28125" y1="171.875" x2="97.65625" y2="160.15625" id="line_91" class="solid" />
<line x1="136.71875" y1="183.59375" x2="113.28125" y2="171.875" id="line_92" class="solid" />
<line x1="117.1875" y1="136.71875" x2="140.625" y2="148.4375" id="line_93" class="solid" />
<line x1="140.625" y1="148.4375" x2="183.59375" y2="160.15625" id="line_95" class="solid" />
<line x1="171.875" y1="191.40625" x2="136.71875" y2="183.59375" id="line_96" class="solid" />
<line x1="183.59375" y1="160.15625" x2="222.65625" y2="167.96875" id="line_98" class="solid" />
<line x1="214.84375" y1="199.21875" x2="171.875" y2="191.40625" id="line_99" class="solid" />
<line x1="222.65625" y1="167.96875" x2="265.625" y2="167.96875" id="line_101" class="solid" />
<line x1="250.0" y1="203.125" x2="214.84375" y2="199.21875" id="line_102" class="solid" />
<line x1="265.625" y1="167.96875" x2="281.25" y2="164.0625" id="line_104" class="solid" />
<line x1="281.25" y1="199.21875" x2="250.0" y2="203.125" id="line_106" class="solid" />
<line x1="117.1875" y1="-140.625" x2="101.5625" y2="-125.0" id="line_107" class="solid" />
<line x1="93.75" y1="-156.25" x2="105.46875" y2="-167.96875" id="line_109" class="solid" />
<line x1="105.46875" y1="-167.96875" x2="136.71875" y2="-183.59375" id="line_110" class="solid" />
<line x1="140.625" y1="-156.25" x2="117.1875" y2="-140.625" id="line_111" class="solid" />
<line x1="171.875" y1="-164.0625" x2="140.625" y2="-156.25" id="line_113" class="solid" />
<line x1="136.71875" y1="-183.59375" x2="167.96875" y2="-191.40625" id="line_114" class="solid" />
<line x1="214.84375" y1="-167.96875" x2="171.875" y2="-164.0625" id="line_116" class="solid" />
<line x1="167.96875" y1="-191.40625" x2="207.03125" y2="-195.3125" id="line_117" class="solid" />
<line x1="222.65625" y1="-167.96875" x2="214.84375" y2="-167.96875" id="line_119" class="solid" />
<line x1="207.03125" y1="-195.3125" x2="222.65625" y2="-195.3125" id="line_120" class="solid" />
<line x1="222.65625" y1="-195.3125" x2="281.25" y2="-191.40625" id="line_122" class="solid" />
<line x1="281.25" y1="-164.0625" x2="222.65625" y2="-167.96875" id="line_124" class="solid" />
<line x1="-101.5625" y1="-125.0" x2="-117.1875" y2="-140.625" id="line_125" class="solid" />
<line x1="-105.46875" y1="-167.96875" x2="-93.75" y2="-156.25" id="line_127" class="solid" />
<line x1="-117.1875" y1="-140.625" x2="-132.8125" y2="-152.34375" id="line_128" class="solid" />
<line x1="-125.0" y1="-179.6875" x2="-105.46875" y2="-167.96875" id="line_129" class="solid" />
<line x1="-132.8125" y1="-152.34375" x2="-156.25" y2="-160.15625" id="line_131" class="solid" />
<line x1="-156.25" y1="-187.5" x2="-125.0" y2="-179.6875" id="line_132" class="solid" />
<line x1="-156.25" y1="-160.15625" x2="-199.21875" y2="-164.0625" id="line_134" class="solid" />
<line x1="-195.3125" y1="-191.40625" x2="-156.25" y2="-187.5" id="line_135" class="solid" />
<line x1="-199.21875" y1="-164.0625" x2="-250.0" y2="-156.25" id="line_137" class="solid" />
<line x1="-250.0" y1="-187.5" x2="-195.3125" y2="-191.40625" id="line_139" class="solid" />
<line x1="-250.0" y1="-156.25" x2="-281.25" y2="-164.0625" id="line_142" class="solid" />
<line x1="-85.9375" y1="187.5" x2="-93.75" y2="152.34375" id="line_143" class="solid" />
<line x1="-62.5" y1="156.25" x2="-54.6875" y2="171.875" id="line_145" class="solid" />
<line x1="54.6875" y1="171.875" x2="62.5" y2="156.25" id="line_146" class="solid" />
<line x1="97.65625" y1="160.15625" x2="85.9375" y2="187.5" id="line_148" class="solid" />
<line x1="39.0625" y1="187.5" x2="54.6875" y2="171.875" id="line_149" class="solid" />
<line x1="-54.6875" y1="171.875" x2="-39.0625" y2="187.5" id="line_150" class="solid" />
<line x1="-54.6875" y1="218.75" x2="-85.9375" y2="187.5" id="line_151" class="solid" />
<line x1="85.9375" y1="187.5" x2="54.6875" y2="218.75" id="line_153" class="solid" />
<line x1="23.4375" y1="195.3125" x2="39.0625" y2="187.5" id="line_155" class="solid" />
<line x1="-39.0625" y1="187.5" x2="-23.4375" y2="195.3125" id="line_156" class="solid" />
<line x1="-23.4375" y1="234.375" x2="-54.6875" y2="218.75" id="line_157" class="solid" />
<line x1="54.6875" y1="218.75" x2="23.4375" y2="234.375" id="line_160" class="solid" />
<line x1="-7.8125" y1="238.28125" x2="-23.4375" y2="234.375" id="line_162" class="solid" />
<line x1="23.4375" y1="234.375" x2="7.8125" y2="238.28125" id="line_164" class="solid" />
<line x1="-7.8125" y1="246.09375" x2="-7.8125" y2="238.28125" id="line_165" class="solid" />
<line x1="7.8125" y1="246.09375" x2="-7.8125" y2="246.09375" id="line_166" class="solid" />
<line x1="7.8125" y1="238.28125" x2="7.8125" y2="246.09375" id="line_167" class="solid" />
<line x1="62.5" y1="-148.4375" x2="54.6875" y2="-164.0625" id="line_168" class="solid" />
<line x1="85.9375" y1="-171.875" x2="93.75" y2="-156.25" id="line_169" class="solid" />
<line x1="-54.6875" y1="-164.0625" x2="-66.40625" y2="-148.4375" id="line_171" class="solid" />
<line x1="-93.75" y1="-156.25" x2="-85.9375" y2="-171.875" id="line_172" class="solid" />
<line x1="54.6875" y1="-164.0625" x2="39.0625" y2="-179.6875" id="line_174" class="solid" />
<line x1="62.5" y1="-203.125" x2="85.9375" y2="-171.875" id="line_175" class="solid" />
<line x1="-85.9375" y1="-171.875" x2="-62.5" y2="-203.125" id="line_177" class="solid" />
<line x1="-39.0625" y1="-179.6875" x2="-54.6875" y2="-164.0625" id="line_178" class="solid" />
<line x1="-15.625" y1="-187.5" x2="-39.0625" y2="-179.6875" id="line_180" class="solid" />
<line x1="39.0625" y1="-179.6875" x2="15.625" y2="-187.5" id="line_181" class="solid" />
<line x1="15.625" y1="-187.5" x2="-15.625" y2="-187.5" id="line_182" class="solid" />
<line x1="-62.5" y1="-203.125" x2="-39.0625" y2="-210.9375" id="line_183" class="solid" />
<line x1="39.0625" y1="-210.9375" x2="62.5" y2="-203.125" id="line_184" class="solid" />
<line x1="-39.0625" y1="-210.9375" x2="-15.625" y2="-218.75" id="line_187" class="solid" />
<line x1="15.625" y1="-218.75" x2="39.0625" y2="-210.9375" id="line_189" class="solid" />
<line x1="281.25" y1="164.0625" x2="281.25" y2="121.09375" id="line_190" class="solid" />
<line x1="343.75" y1="-195.3125" x2="343.75" y2="101.5625" id="line_192" class="solid" />
<line x1="343.75" y1="199.21875" x2="281.25" y2="199.21875" id="line_193" class="solid" />
<line x1="-15.625" y1="-218.75" x2="-15.625" y2="-226.5625" id="line_194" class="solid" />
<line x1="15.625" y1="-226.5625" x2="15.625" y2="-218.75" id="line_196" class="solid" />
<line x1="70.3125" y1="-210.9375" x2="15.625" y2="-226.5625" id="line_197" class="solid" />
<line x1="93.75" y1="-171.875" x2="70.3125" y2="-210.9375" id="line_198" class="solid" />
<line x1="238.28125" y1="-226.5625" x2="93.75" y2="-171.875" id="line_199" class="solid" />
<line x1="15.625" y1="-312.5" x2="125.0" y2="-308.59375" id="line_201" class="solid" />
<line x1="125.0" y1="-308.59375" x2="218.75" y2="-304.6875" id="line_204" class="solid" />
<line x1="-15.625" y1="-312.5" x2="15.625" y2="-312.5" id="line_206" class="solid" />
<line x1="-125.0" y1="-308.59375" x2="-15.625" y2="-312.5" id="line_208" class="solid" />
<line x1="-70.3125" y1="-210.9375" x2="-93.75" y2="-175.78125" id="line_209" class="solid" />
<line x1="-93.75" y1="-175.78125" x2="-234.375" y2="-210.9375" id="line_210" class="solid" />
<line x1="-199.21875" y1="-296.875" x2="-125.0" y2="-308.59375" id="line_212" class="solid" />
<line x1="-234.375" y1="-210.9375" x2="-250.0" y2="-187.5" id="line_213" class="solid" />
<line x1="-312.5" y1="-210.9375" x2="-292.96875" y2="-257.8125" id="line_215" class="solid" />
<line x1="-292.96875" y1="-257.8125" x2="-199.21875" y2="-296.875" id="line_216" class="solid" />
<line x1="-15.625" y1="-226.5625" x2="-70.3125" y2="-210.9375" id="line_217" class="solid" />
<line x1="31.25" y1="250.0" x2="109.375" y2="234.375" id="line_220" class="solid" />
<line x1="-31.25" y1="250.0" x2="31.25" y2="250.0" id="line_221" class="solid" />
<line x1="-109.375" y1="242.1875" x2="-31.25" y2="250.0" id="line_222" class="solid" />
<line x1="125.0" y1="265.625" x2="62.5" y2="312.5" id="line_223" class="solid" />
<line x1="-62.5" y1="312.5" x2="-125.0" y2="265.625" id="line_225" class="solid" />
<line x1="-125.0" y1="375.0" x2="-62.5" y2="312.5" id="line_230" class="solid" />
<line x1="62.5" y1="312.5" x2="125.0" y2="375.0" id="line_231" class="solid" />
<line x1="125.0" y1="375.0" x2="125.0" y2="437.5" id="line_232" class="solid" />
<line x1="125.0" y1="437.5" x2="62.5" y2="500.0" id="line_233" class="solid" />
<line x1="62.5" y1="500.0" x2="-62.5" y2="500.0" id="line_234" class="solid" />
<line x1="-62.5" y1="500.0" x2="-125.0" y2="437.5" id="line_235" class="solid" />
<line x1="-125.0" y1="437.5" x2="-125.0" y2="375.0" id="line_236" class="solid" />
<line x1="-304.6875" y1="-140.625" x2="-312.5" y2="-148.4375" id="line_238" class="solid" />
<line x1="-281.25" y1="-164.0625" x2="-273.4375" y2="-148.4375" id="line_240" class="solid" />
<line x1="-273.4375" y1="148.4375" x2="-281.25" y2="164.0625" id="line_241" class="solid" />
<line x1="-312.5" y1="148.4375" x2="-304.6875" y2="132.8125" id="line_243" class="solid" />
<line x1="-265.625" y1="125.0" x2="-273.4375" y2="148.4375" id="line_244" class="solid" />
<line x1="-304.6875" y1="132.8125" x2="-296.875" y2="109.375" id="line_245" class="solid" />
<line x1="-296.875" y1="-117.1875" x2="-304.6875" y2="-140.625" id="line_247" class="solid" />
<line x1="-273.4375" y1="-148.4375" x2="-265.625" y2="-125.0" id="line_248" class="solid" />
<line x1="-289.0625" y1="-85.9375" x2="-296.875" y2="-117.1875" id="line_250" class="solid" />
<line x1="-265.625" y1="-125.0" x2="-257.8125" y2="-93.75" id="line_251" class="solid" />
<line x1="-296.875" y1="109.375" x2="-289.0625" y2="78.125" id="line_253" class="solid" />
<line x1="-257.8125" y1="93.75" x2="-265.625" y2="125.0" id="line_254" class="solid" />
<line x1="-281.25" y1="-46.875" x2="-289.0625" y2="-85.9375" id="line_256" class="solid" />
<line x1="-257.8125" y1="-93.75" x2="-250.0" y2="-54.6875" id="line_257" class="solid" />
<line x1="-289.0625" y1="78.125" x2="-281.25" y2="39.0625" id="line_259" class="solid" />
<line x1="-250.0" y1="54.6875" x2="-257.8125" y2="93.75" id="line_260" class="solid" />
<line x1="-273.4375" y1="0.0" x2="-281.25" y2="-46.875" id="line_262" class="solid" />
<line x1="-281.25" y1="39.0625" x2="-273.4375" y2="0.0" id="line_263" class="solid" />
<line x1="-242.1875" y1="0.0" x2="-250.0" y2="54.6875" id="line_264" class="solid" />
<line x1="-250.0" y1="-54.6875" x2="-242.1875" y2="0.0" id="line_265" class="solid" />
<line x1="-343.75" y1="-195.3125" x2="-312.5" y2="-210.9375" id="line_270" class="solid" />
<line x1="-343.75" y1="-164.0625" x2="-343.75" y2="-195.3125" id="line_271" class="solid" />
<line x1="-281.25" y1="195.3125" x2="-273.4375" y2="210.9375" id="line_273" class="solid" />
<line x1="-304.6875" y1="226.5625" x2="-312.5" y2="210.9375" id="line_275" class="solid" />
<line x1="-273.4375" y1="210.9375" x2="-257.8125" y2="226.5625" id="line_276" class="solid" />
<line x1="-289.0625" y1="242.1875" x2="-304.6875" y2="226.5625" id="line_277" class="solid" />
<line x1="-257.8125" y1="226.5625" x2="-242.1875" y2="234.375" id="line_279" class="solid" />
<line x1="-265.625" y1="257.8125" x2="-289.0625" y2="242.1875" id="line_280" class="solid" />
<line x1="-234.375" y1="265.625" x2="-265.625" y2="257.8125" id="line_282" class="solid" />
<line x1="-242.1875" y1="234.375" x2="-226.5625" y2="234.375" id="line_284" class="solid" />
<line x1="-199.21875" y1="257.8125" x2="-234.375" y2="265.625" id="line_285" class="solid" />
<line x1="-226.5625" y1="234.375" x2="-207.03125" y2="222.65625" id="line_287" class="solid" />
<line x1="-171.875" y1="253.90625" x2="-199.21875" y2="257.8125" id="line_288" class="solid" />
<line x1="-207.03125" y1="222.65625" x2="-171.875" y2="218.75" id="line_290" class="solid" />
<line x1="-160.15625" y1="253.90625" x2="-171.875" y2="253.90625" id="line_291" class="solid" />
<line x1="-171.875" y1="218.75" x2="-152.34375" y2="222.65625" id="line_293" class="solid" />
<line x1="-152.34375" y1="222.65625" x2="-128.90625" y2="234.375" id="line_294" class="solid" />
<line x1="-140.625" y1="261.71875" x2="-160.15625" y2="253.90625" id="line_295" class="solid" />
<line x1="-128.90625" y1="234.375" x2="-109.375" y2="242.1875" id="line_297" class="solid" />
<line x1="-125.0" y1="265.625" x2="-140.625" y2="261.71875" id="line_298" class="solid" />
<line x1="109.375" y1="234.375" x2="125.0" y2="226.5625" id="line_299" class="solid" />
<line x1="140.625" y1="257.8125" x2="125.0" y2="265.625" id="line_301" class="solid" />
<line x1="125.0" y1="226.5625" x2="148.4375" y2="218.75" id="line_302" class="solid" />
<line x1="156.25" y1="250.0" x2="140.625" y2="257.8125" id="line_304" class="solid" />
<line x1="148.4375" y1="218.75" x2="179.6875" y2="210.9375" id="line_305" class="solid" />
<line x1="187.5" y1="242.1875" x2="156.25" y2="250.0" id="line_306" class="solid" />
<line x1="179.6875" y1="210.9375" x2="218.75" y2="210.9375" id="line_308" class="solid" />
<line x1="203.125" y1="242.1875" x2="187.5" y2="242.1875" id="line_309" class="solid" />
<line x1="234.375" y1="250.0" x2="203.125" y2="242.1875" id="line_311" class="solid" />
<line x1="218.75" y1="210.9375" x2="250.0" y2="218.75" id="line_313" class="solid" />
<line x1="250.0" y1="261.71875" x2="234.375" y2="250.0" id="line_314" class="solid" />
<line x1="250.0" y1="218.75" x2="269.53125" y2="230.46875" id="line_316" class="solid" />
<line x1="277.34375" y1="269.53125" x2="250.0" y2="261.71875" id="line_317" class="solid" />
<line x1="269.53125" y1="230.46875" x2="285.15625" y2="238.28125" id="line_319" class="solid" />
<line x1="285.15625" y1="238.28125" x2="312.5" y2="242.1875" id="line_320" class="solid" />
<line x1="304.6875" y1="273.4375" x2="277.34375" y2="269.53125" id="line_321" class="solid" />
<line x1="312.5" y1="242.1875" x2="335.9375" y2="242.1875" id="line_323" class="solid" />
<line x1="343.75" y1="273.4375" x2="304.6875" y2="273.4375" id="line_324" class="solid" />
<line x1="335.9375" y1="242.1875" x2="367.1875" y2="234.375" id="line_326" class="solid" />
<line x1="375.0" y1="265.625" x2="343.75" y2="273.4375" id="line_327" class="solid" />
<line x1="367.1875" y1="234.375" x2="390.625" y2="218.75" id="line_329" class="solid" />
<line x1="410.15625" y1="242.1875" x2="375.0" y2="265.625" id="line_330" class="solid" />
<line x1="390.625" y1="218.75" x2="402.34375" y2="195.3125" id="line_332" class="solid" />
<line x1="433.59375" y1="203.125" x2="410.15625" y2="242.1875" id="line_334" class="solid" />
<line x1="402.34375" y1="195.3125" x2="402.34375" y2="167.96875" id="line_335" class="solid" />
<line x1="437.5" y1="160.15625" x2="433.59375" y2="203.125" id="line_337" class="solid" />
<line x1="402.34375" y1="167.96875" x2="390.625" y2="152.34375" id="line_338" class="solid" />
<line x1="417.96875" y1="128.90625" x2="437.5" y2="160.15625" id="line_340" class="solid" />
<line x1="390.625" y1="152.34375" x2="375.0" y2="140.625" id="line_341" class="solid" />
<line x1="390.625" y1="109.375" x2="417.96875" y2="128.90625" id="line_343" class="solid" />
<line x1="375.0" y1="140.625" x2="351.5625" y2="132.8125" id="line_344" class="solid" />
<line x1="363.28125" y1="101.5625" x2="390.625" y2="109.375" id="line_346" class="solid" />
<line x1="343.75" y1="101.5625" x2="363.28125" y2="101.5625" id="line_348" class="solid" />
<line x1="343.75" y1="132.8125" x2="343.75" y2="199.21875" id="line_349" class="solid" />
<line x1="351.5625" y1="132.8125" x2="343.75" y2="132.8125" id="line_350" class="solid" />
<line x1="351.5625" y1="-210.9375" x2="343.75" y2="-195.3125" id="line_351" class="solid" />
<line x1="281.25" y1="-191.40625" x2="316.40625" y2="-210.9375" id="line_353" class="solid" />
<line x1="316.40625" y1="-210.9375" x2="328.125" y2="-234.375" id="line_354" class="solid" />
<line x1="328.125" y1="-234.375" x2="328.125" y2="-257.8125" id="line_355" class="solid" />
<line x1="328.125" y1="-257.8125" x2="320.3125" y2="-273.4375" id="line_356" class="solid" />
<line x1="320.3125" y1="-273.4375" x2="296.875" y2="-289.0625" id="line_357" class="solid" />
<line x1="296.875" y1="-289.0625" x2="265.625" y2="-296.875" id="line_358" class="solid" />
<line x1="265.625" y1="-296.875" x2="242.1875" y2="-289.0625" id="line_359" class="solid" />
<line x1="234.375" y1="-281.25" x2="238.28125" y2="-226.5625" id="line_360" class="solid" />
<line x1="242.1875" y1="-289.0625" x2="234.375" y2="-281.25" id="line_361" class="solid" />
<line x1="359.375" y1="-234.375" x2="351.5625" y2="-210.9375" id="line_362" class="solid" />
<line x1="359.375" y1="-265.625" x2="359.375" y2="-234.375" id="line_364" class="solid" />
<line x1="347.65625" y1="-292.96875" x2="359.375" y2="-265.625" id="line_366" class="solid" />
<line x1="312.5" y1="-316.40625" x2="347.65625" y2="-292.96875" id="line_368" class="solid" />
<line x1="277.34375" y1="-324.21875" x2="312.5" y2="-316.40625" id="line_370" class="solid" />
<line x1="242.1875" y1="-320.3125" x2="277.34375" y2="-324.21875" id="line_372" class="solid" />
<line x1="218.75" y1="-304.6875" x2="242.1875" y2="-320.3125" id="line_374" class="solid" />
<line x1="281.25" y1="-121.09375" x2="281.25" y2="-164.0625" id="line_376" class="solid" />
<line x1="250.0" y1="-125.0" x2="281.25" y2="-121.09375" id="line_377" class="solid" />
<line x1="281.25" y1="-89.84375" x2="253.90625" y2="-93.75" id="line_380" class="solid" />
<line x1="281.25" y1="89.84375" x2="281.25" y2="-89.84375" id="line_381" class="solid" />
<line x1="253.90625" y1="93.75" x2="281.25" y2="89.84375" id="line_382" class="solid" />
<line x1="281.25" y1="121.09375" x2="257.8125" y2="125.0" id="line_385" class="solid" />
<line x1="218.75" y1="93.75" x2="253.90625" y2="93.75" id="line_386" class="solid" />
<line x1="253.90625" y1="-93.75" x2="218.75" y2="-93.75" id="line_387" class="solid" />
<line x1="218.75" y1="-93.75" x2="167.96875" y2="-82.03125" id="line_388" class="solid" />
<line x1="175.78125" y1="82.03125" x2="218.75" y2="93.75" id="line_389" class="solid" />
<line x1="167.96875" y1="-82.03125" x2="132.8125" y2="-58.59375" id="line_390" class="solid" />
<line x1="132.8125" y1="-58.59375" x2="113.28125" y2="-23.4375" id="line_391" class="solid" />
<line x1="113.28125" y1="-23.4375" x2="113.28125" y2="23.4375" id="line_392" class="solid" />
<line x1="113.28125" y1="23.4375" x2="144.53125" y2="66.40625" id="line_393" class="solid" />
<line x1="144.53125" y1="66.40625" x2="175.78125" y2="82.03125" id="line_394" class="solid" />
<line x1="191.40625" y1="-121.09375" x2="250.0" y2="-125.0" id="line_395" class="solid" />
<line x1="144.53125" y1="-105.46875" x2="191.40625" y2="-121.09375" id="line_397" class="solid" />
<line x1="97.65625" y1="-74.21875" x2="144.53125" y2="-105.46875" id="line_399" class="solid" />
<line x1="78.125" y1="-27.34375" x2="97.65625" y2="-74.21875" id="line_401" class="solid" />
<line x1="93.75" y1="66.40625" x2="78.125" y2="27.34375" id="line_405" class="solid" />
<line x1="136.71875" y1="97.65625" x2="93.75" y2="66.40625" id="line_407" class="solid" />
<line x1="210.9375" y1="121.09375" x2="136.71875" y2="97.65625" id="line_409" class="solid" />
<line x1="257.8125" y1="125.0" x2="210.9375" y2="121.09375" id="line_411" class="solid" />
<line x1="-312.5" y1="-148.4375" x2="-320.3125" y2="-140.625" id="line_413" class="solid" />
<line x1="-351.5625" y1="-148.4375" x2="-343.75" y2="-164.0625" id="line_415" class="solid" />
<line x1="-320.3125" y1="-140.625" x2="-328.125" y2="-117.1875" id="line_416" class="solid" />
<line x1="-359.375" y1="-125.0" x2="-351.5625" y2="-148.4375" id="line_417" class="solid" />
<line x1="-328.125" y1="-117.1875" x2="-335.9375" y2="-85.9375" id="line_419" class="solid" />
<line x1="-367.1875" y1="-93.75" x2="-359.375" y2="-125.0" id="line_421" class="solid" />
<line x1="-335.9375" y1="-85.9375" x2="-343.75" y2="-46.875" id="line_422" class="solid" />
<line x1="-375.0" y1="-54.6875" x2="-367.1875" y2="-93.75" id="line_424" class="solid" />
<line x1="-343.75" y1="-46.875" x2="-351.5625" y2="-7.8125" id="line_425" class="solid" />
<line x1="-382.8125" y1="-15.625" x2="-375.0" y2="-54.6875" id="line_427" class="solid" />
<line x1="-382.8125" y1="15.625" x2="-382.8125" y2="-15.625" id="line_428" class="solid" />
<line x1="-351.5625" y1="-7.8125" x2="-351.5625" y2="7.8125" id="line_430" class="solid" />
<line x1="-351.5625" y1="7.8125" x2="-343.75" y2="46.875" id="line_431" class="solid" />
<line x1="-375.0" y1="54.6875" x2="-382.8125" y2="15.625" id="line_433" class="solid" />
<line x1="-343.75" y1="46.875" x2="-335.9375" y2="85.9375" id="line_434" class="solid" />
<line x1="-367.1875" y1="93.75" x2="-375.0" y2="54.6875" id="line_436" class="solid" />
<line x1="-335.9375" y1="85.9375" x2="-328.125" y2="117.1875" id="line_437" class="solid" />
<line x1="-359.375" y1="125.0" x2="-367.1875" y2="93.75" id="line_439" class="solid" />
<line x1="-328.125" y1="117.1875" x2="-320.3125" y2="140.625" id="line_440" class="solid" />
<line x1="-320.3125" y1="140.625" x2="-312.5" y2="148.4375" id="line_441" class="solid" />
<line x1="-351.5625" y1="148.4375" x2="-359.375" y2="125.0" id="line_442" class="solid" />
<line x1="-343.75" y1="164.0625" x2="-351.5625" y2="148.4375" id="line_443" class="solid" />
<line x1="-347.65625" y1="195.3125" x2="-363.28125" y2="187.5" id="line_445" class="solid" />
<line x1="-347.65625" y1="214.84375" x2="-347.65625" y2="195.3125" id="line_446" class="solid" />
<line x1="-363.28125" y1="187.5" x2="-382.8125" y2="187.5" id="line_447" class="solid" />
<line x1="-382.8125" y1="187.5" x2="-406.25" y2="195.3125" id="line_448" class="solid" />
<line x1="-367.1875" y1="156.25" x2="-343.75" y2="164.0625" id="line_449" class="solid" />
<line x1="-406.25" y1="160.15625" x2="-367.1875" y2="156.25" id="line_451" class="solid" />
<line x1="-437.5" y1="171.875" x2="-406.25" y2="160.15625" id="line_453" class="solid" />
<line x1="-457.03125" y1="195.3125" x2="-437.5" y2="171.875" id="line_455" class="solid" />
<line x1="-406.25" y1="195.3125" x2="-421.875" y2="207.03125" id="line_457" class="solid" />
<line x1="-468.75" y1="218.75" x2="-457.03125" y2="195.3125" id="line_458" class="solid" />
<line x1="-421.875" y1="207.03125" x2="-429.6875" y2="226.5625" id="line_460" class="solid" />
<line x1="-468.75" y1="250.0" x2="-468.75" y2="218.75" id="line_461" class="solid" />
<line x1="-429.6875" y1="226.5625" x2="-429.6875" y2="242.1875" id="line_463" class="solid" />
<line x1="-460.9375" y1="277.34375" x2="-468.75" y2="250.0" id="line_464" class="solid" />
<line x1="-429.6875" y1="242.1875" x2="-421.875" y2="253.90625" id="line_466" class="solid" />
<line x1="-437.5" y1="292.96875" x2="-460.9375" y2="277.34375" id="line_467" class="solid" />
<line x1="-421.875" y1="253.90625" x2="-410.15625" y2="261.71875" id="line_469" class="solid" />
<line x1="-410.15625" y1="261.71875" x2="-394.53125" y2="265.625" id="line_470" class="solid" />
<line x1="-390.625" y1="296.875" x2="-437.5" y2="292.96875" id="line_472" class="solid" />
<line x1="-359.375" y1="285.15625" x2="-390.625" y2="296.875" id="line_473" class="solid" />
<line x1="-394.53125" y1="265.625" x2="-378.90625" y2="257.8125" id="line_475" class="solid" />
<line x1="-312.5" y1="210.9375" x2="-316.40625" y2="230.46875" id="line_476" class="solid" />
<line x1="-367.1875" y1="246.09375" x2="-355.46875" y2="230.46875" id="line_479" class="solid" />
<line x1="-328.125" y1="250.0" x2="-339.84375" y2="265.625" id="line_481" class="solid" />
<line x1="-378.90625" y1="257.8125" x2="-367.1875" y2="246.09375" id="line_482" class="solid" />
<line x1="-339.84375" y1="265.625" x2="-359.375" y2="285.15625" id="line_483" class="solid" />
<line x1="-355.46875" y1="230.46875" x2="-347.65625" y2="214.84375" id="line_484" class="solid" />
<line x1="-316.40625" y1="230.46875" x2="-328.125" y2="250.0" id="line_485" class="solid" />
<line x1="62.5" y1="-128.90625" x2="31.25" y2="-128.90625" id="line_486" class="solid" />
<line x1="31.25" y1="-128.90625" x2="31.25" y2="-82.03125" id="line_488" class="solid" />
<line x1="0.0" y1="-128.90625" x2="-66.40625" y2="-128.90625" id="line_489" class="solid" />
<line x1="-31.25" y1="-82.03125" x2="0.0" y2="-128.90625" id="line_493" class="solid" />
<line x1="-31.25" y1="-70.3125" x2="-31.25" y2="-82.03125" id="line_495" class="solid" />
<line x1="31.25" y1="-82.03125" x2="31.25" y2="-70.3125" id="line_497" class="solid" />
<line x1="31.25" y1="-70.3125" x2="31.25" y2="-62.5" id="line_498" class="solid" />
<line x1="-31.25" y1="-62.5" x2="-31.25" y2="-70.3125" id="line_499" class="solid" />
<line x1="62.5" y1="-31.25" x2="78.125" y2="-27.34375" id="line_500" class="solid" />
<line x1="78.125" y1="27.34375" x2="62.5" y2="31.25" id="line_501" class="solid" />
<line x1="-23.4375" y1="156.25" x2="-62.5" y2="156.25" id="line_502" class="solid" />
<line x1="23.4375" y1="136.71875" x2="62.5" y2="136.71875" id="line_503" class="solid" />
<line x1="62.5" y1="156.25" x2="23.4375" y2="156.25" id="line_504" class="solid" />
<line x1="23.4375" y1="156.25" x2="23.4375" y2="195.3125" id="line_505" class="solid" />
<line x1="-23.4375" y1="195.3125" x2="-23.4375" y2="156.25" id="line_507" class="solid" />
<line x1="-62.5" y1="136.71875" x2="-23.4375" y2="136.71875" id="line_508" class="solid" />
<line x1="-23.4375" y1="136.71875" x2="-31.25" y2="62.5" id="line_510" class="solid" />
<line x1="31.25" y1="62.5" x2="23.4375" y2="136.71875" id="line_512" class="solid" />
<!-- end group: "border_solid" -->
</g>
<!-- end group: "borders" -->
</g>
<g id="objects">
<g id="objects_item">
<use xlink:href="../resources/svg/common.svg#item" x="-14.6484375" y="0.0" id="object_11" class="item item-27" />
<!-- end group: "objects_item" -->
</g>
<g id="objects_player">
<use xlink:href="../resources/svg/common.svg#monster" x="-449.066162109375" y="234.0087890625" id="object_0" class="player" transform="rotate(63.984375 -449.066162109375 234.0087890625)" />
<use xlink:href="../resources/svg/common.svg#monster" x="-301.025390625" y="-177.978515625" id="object_1" class="player" transform="rotate(140.625 -301.025390625 -177.978515625)" />
<use xlink:href="../resources/svg/common.svg#monster" x="305.419921875" y="250.48828125" id="object_2" class="player" />
<use xlink:href="../resources/svg/common.svg#monster" x="-314.208984375" y="182.373046875" id="object_3" class="player" transform="rotate(300.9375 -314.208984375 182.373046875)" />
<use xlink:href="../resources/svg/common.svg#monster" x="303.22265625" y="-173.583984375" id="object_4" class="player" transform="rotate(172.96875 303.22265625 -173.583984375)" />
<use xlink:href="../resources/svg/common.svg#monster" x="199.951171875" y="-274.658203125" id="object_5" class="player" transform="rotate(315.703125 199.951171875 -274.658203125)" />
<use xlink:href="../resources/svg/common.svg#monster" x="-2.197265625" y="-204.345703125" id="object_6" class="player" transform="rotate(161.71875 -2.197265625 -204.345703125)" />
<use xlink:href="../resources/svg/common.svg#monster" x="2.197265625" y="472.412109375" id="object_7" class="player" transform="rotate(218.671875 2.197265625 472.412109375)" />
<use xlink:href="../resources/svg/common.svg#monster" x="101.5625" y="-0.48828125" id="object_8" class="player" transform="rotate(182.8125 101.5625 -0.48828125)" />
<use xlink:href="../resources/svg/common.svg#monster" x="-105.46875" y="-191.40625" id="object_9" class="player" transform="rotate(213.75 -105.46875 -191.40625)" />
<use xlink:href="../resources/svg/common.svg#monster" x="270.5078125" y="179.6875" id="object_10" class="player" transform="rotate(191.953125 270.5078125 179.6875)" />
<!-- end group: "objects_player" -->
</g>
<!-- end group: "objects" -->
</g>
<g id="panels">
<use xlink:href="../resources/svg/common.svg#panel" x="0.0" y="246.09375" id="side_85" class="panel-shield_refuel" />
<!-- end group: "panels" -->
</g>

<script xlink:href="../resources/js/level.js" ></script>
</svg>