<?xml version="1.0" encoding="UTF-8"?>
<!-- generated by map2svg: github.com/fracai/marathon-svg -->
<svg xmlns="http://www.w3.org/2000/svg" xmlns:xlink="http://www.w3.org/1999/xlink" version="1.1"
    viewBox="-406.25 -562.5 1340.2099609375 939.8193359375">
<link xmlns="http://www.w3.org/1999/xhtml" rel="stylesheet" href="../resources/css/styles.css" type="text/css" />
<style id="dynamic-style" />
<g id="background-grid">
<defs>
<pattern id="grid_minor" width="3.125" height="3.125" patternUnits="userSpaceOnUse">
<path d="M 3.125 0 L 0 0 0 3.125" fill="none" class="grid_minor" />
</pattern>
<pattern id="grid_major" width="31.25" height="31.25" patternUnits="userSpaceOnUse">
<rect width="31.25" height="31.25" fill="url(#grid_minor)"/>
<path d="M 31.25 0 L 0 0 0 31.25" fill="none" class="grid_major" />
</pattern>
</defs>
<rect x="-1000" y="-1000" width="2000" height="2000" fill="url(#grid_major)" />
<line x1="0" y1="1000" x2="0" y2="-1000" class="grid_origin" />
<line x1="1000" y1="0" x2="-1000" y2="0" class="grid_origin" />
<!-- end group: "background-grid" -->
</g>
<g id="polygons">
<polygon points="-149.4140625,47.7294921875 -108.3984375,48.4619140625 -78.7353515625,79.193115234375 -118.2861328125,78.857421875" id="poly_1" class="plain" />
<polygon points="-118.2861328125,251.0986328125 -77.362060546875,251.312255859375 -120.361328125,338.2568359375 -139.6484375,298.4619140625" id="poly_3" class="plain" />
<polygon points="-199.951171875,-187.1337890625 -168.0908203125,-186.767578125 -181.57958984375,-141.11328125 -216.61376953125,-140.9912109375" id="poly_15" class="plain" />
<polygon points="-181.57958984375,-141.11328125 -160.82763671875,-104.79736328125 -191.95556640625,-97.5341796875 -216.61376953125,-140.9912109375" id="poly_16" class="plain" />
<polygon points="-191.95556640625,-97.5341796875 -160.82763671875,-104.79736328125 -161.865234375,-57.06787109375 -197.1435546875,-57.06787109375" id="poly_17" class="plain" />
<polygon points="-345.8251953125,251.5869140625 -295.8984375,235.9619140625 -233.3984375,298.4619140625 -239.68505859375,338.2568359375" id="poly_29" class="plain" />
<polygon points="-233.3984375,298.4619140625 -139.6484375,298.4619140625 -120.361328125,338.2568359375 -239.68505859375,338.2568359375" id="poly_30" class="plain" />
<polygon points="-343.75,171.875 -295.8984375,173.4619140625 -295.8984375,235.9619140625 -345.8251953125,251.5869140625" id="poly_33" class="plain" />
<polygon points="140.625,-62.5 171.875,-62.5 171.875,-46.875 133.85009765625,-51.177978515625" id="poly_44" class="plain" />
<polygon points="133.85009765625,-51.177978515625 171.875,-46.875 172.54638671875,-16.11328125 133.85009765625,-17.059326171875" id="poly_45" class="plain" />
<polygon points="70.86181640625,-41.9921875 95.672607421875,-67.474365234375 133.85009765625,-51.177978515625 133.85009765625,-17.059326171875" id="poly_46" class="plain" />
<polygon points="30.21240234375,-217.529296875 65.460205078125,-217.529296875 95.672607421875,-67.474365234375 70.86181640625,-41.9921875" id="poly_47" class="plain" />
<polygon points="26.9775390625,-457.58056640625 69.488525390625,-457.21435546875 70.49560546875,-419.952392578125 65.460205078125,-217.529296875 30.21240234375,-217.529296875 27.52685546875,-374.6337890625" id="poly_74" class="plain" />
<polygon points="134.1552734375,109.375 172.54638671875,108.7646484375 171.20361328125,154.4189453125 132.598876953125,186.309814453125" id="poly_91" class="plain" />
<polygon points="171.20361328125,154.4189453125 263.671875,155.2734375 227.05078125,184.5703125 132.598876953125,186.309814453125" id="poly_92" class="plain" />
<polygon points="-149.4140625,1.03759765625 -112.3046875,3.5400390625 -108.3984375,48.4619140625 -149.4140625,47.7294921875" id="poly_0" class="plain" />
<polygon points="-195.068359375,-217.8955078125 -168.3349609375,-217.8955078125 -168.0908203125,-186.767578125 -199.951171875,-187.1337890625" id="poly_8" class="plain" />
<polygon points="-192.9931640625,-259.3994140625 -148.37646484375,-249.0234375 -148.4375,-218.75 -168.3349609375,-217.8955078125 -195.068359375,-217.8955078125" id="poly_10" class="plain" />
<polygon points="-163.9404296875,-312.31689453125 -125.0,-312.5 -148.37646484375,-249.0234375 -192.9931640625,-259.3994140625" id="poly_12" class="plain" />
<polygon points="-202.33154296875,-436.82861328125 -160.125732421875,-437.07275390625 -125.0,-375.0 -163.9404296875,-374.57275390625" id="poly_13" class="plain" />
<polygon points="-243.83544921875,-53.955078125 -197.1435546875,-57.06787109375 -161.865234375,-57.06787109375 -139.0380859375,-54.99267578125 -158.75244140625,-13.48876953125 -260.19287109375,-10.25390625" id="poly_18" class="plain" />
<polygon points="140.625,-125.0 171.875,-125.0 171.875,-93.75 140.625,-93.75" id="poly_22" class="plain" />
<polygon points="134.1552734375,77.7587890625 172.54638671875,77.880859375 172.54638671875,108.7646484375 134.1552734375,109.375" id="poly_27" class="plain" />
<polygon points="-343.75,140.625 -296.875,140.625 -295.8984375,173.4619140625 -343.75,171.875" id="poly_32" class="plain" />
<polygon points="-163.9404296875,-374.57275390625 -125.0,-375.0 -125.0,-312.5 -163.9404296875,-312.31689453125" id="poly_35" class="plain" />
<polygon points="-202.33154296875,-499.08447265625 -160.125732421875,-499.51171875 -160.125732421875,-437.07275390625 -202.33154296875,-436.82861328125" id="poly_36" class="plain" />
<polygon points="133.85009765625,-17.059326171875 172.54638671875,-16.11328125 172.54638671875,77.880859375 134.1552734375,77.7587890625" id="poly_43" class="plain" />
<polygon points="26.9775390625,-499.08447265625 69.488525390625,-498.504638671875 69.488525390625,-457.21435546875 26.9775390625,-457.58056640625" id="poly_48" class="plain" />
<polygon points="227.05078125,184.5703125 263.671875,155.2734375 303.22265625,175.78125 265.625,218.75" id="poly_58" class="plain" />
<polygon points="324.21875,16.6015625 354.4921875,50.78125 303.22265625,175.78125 263.671875,155.2734375" id="poly_59" class="plain" />
<polygon points="406.25,0.0 406.25,31.25 354.4921875,50.78125 324.21875,16.6015625" id="poly_61" class="plain" />
<polygon points="265.625,218.75 303.22265625,175.78125 328.125,241.69921875 297.36328125,265.13671875" id="poly_80" class="plain" />
<polygon points="328.125,241.69921875 363.28125,260.7421875 342.7734375,294.43359375 297.36328125,265.13671875" id="poly_81" class="plain" />
<polygon points="342.7734375,294.43359375 363.28125,260.7421875 480.377197265625,301.57470703125 468.841552734375,336.181640625" id="poly_95" class="plain" />
<polygon points="-118.2861328125,78.857421875 -78.7353515625,79.193115234375 -77.81982421875,141.90673828125 -117.1875,125.0" id="poly_98" class="plain" />
<polygon points="140.625,-93.75 171.875,-93.75 187.5,-93.75 203.125,-62.5 171.875,-62.5 140.625,-62.5" id="poly_115" class="plain" />
<polygon points="-117.1875,195.3125 -78.125,187.5 -77.362060546875,251.312255859375 -118.2861328125,251.0986328125" id="poly_118" class="plain" />
<polygon points="-117.1875,125.0 -77.81982421875,141.90673828125 -78.125,187.5 -117.1875,195.3125 -117.1875,171.875" id="poly_121" class="plain" />
<polygon points="-343.75,31.25 -296.875,31.25 -296.875,62.5 -296.875,140.625 -343.75,140.625" id="poly_130" class="plain" />
<polygon points="-139.0380859375,-54.99267578125 -112.060546875,-54.99267578125 -112.3046875,3.5400390625 -149.4140625,1.03759765625 -158.75244140625,-13.48876953125" id="poly_131" class="plain" />
<polygon points="-133.36181640625,172.42431640625 -117.1875,171.875 -117.1875,195.3125 -133.36181640625,195.86181640625" id="poly_4" class="platform" />
<polygon points="-168.3349609375,-217.8955078125 -148.4375,-218.75 -148.4375,-187.5 -168.0908203125,-186.767578125" id="poly_9" class="platform" />
<polygon points="171.875,-125.0 187.5,-125.0 187.5,-93.75 171.875,-93.75" id="poly_23" class="platform" />
<polygon points="111.328125,78.125 134.1552734375,77.7587890625 134.1552734375,109.375 111.328125,109.375" id="poly_28" class="platform" />
<polygon points="-375.0,140.625 -343.75,140.625 -343.75,171.875 -375.0,171.875" id="poly_31" class="platform" />
<polygon points="0.0,-500.0 26.9775390625,-499.08447265625 26.9775390625,-457.58056640625 0.0,-457.58056640625" id="poly_49" class="platform" />
<polygon points="437.5,0.0 437.5,31.25 406.25,31.25 406.25,0.0" id="poly_60" class="platform" />
<polygon points="480.377197265625,301.57470703125 514.984130859375,313.1103515625 500.9765625,346.0693359375 468.841552734375,336.181640625" id="poly_97" class="platform" />
<polygon points="-77.81982421875,141.90673828125 -62.255859375,141.357421875 -62.255859375,187.5 -78.125,187.5" id="poly_120" class="platform" />
<polygon points="-187.80517578125,-527.099609375 -170.166015625,-516.7236328125 -202.33154296875,-499.08447265625" id="poly_41" class="plain" />
<polygon points="-170.166015625,-516.7236328125 -160.125732421875,-499.51171875 -202.33154296875,-499.08447265625" id="poly_42" class="plain" />
<polygon points="-209.5947265625,-527.099609375 -187.80517578125,-527.099609375 -202.33154296875,-499.08447265625" id="poly_40" class="plain" />
<polygon points="-149.4140625,47.7294921875 -118.2861328125,78.857421875 -175.35400390625,78.857421875" id="poly_7" class="plain" />
<polygon points="857.391357421875,-329.89501953125 865.1123046875,-337.46337890625 876.312255859375,-325.927734375 868.83544921875,-318.450927734375" id="poly_69" class="teleporter" />
<polygon points="514.984130859375,313.1103515625 553.131103515625,305.17578125 546.2646484375,344.8486328125 500.9765625,346.0693359375" id="poly_111" class="plain" />
<polygon points="553.131103515625,305.17578125 582.8857421875,324.249267578125 546.2646484375,344.8486328125" id="poly_112" class="plain" />
<polygon points="567.626953125,276.18408203125 595.0927734375,267.02880859375 582.8857421875,324.249267578125 553.131103515625,305.17578125" id="poly_113" class="plain" />
<polygon points="556.640625,251.953125 574.21875,216.796875 595.0927734375,267.02880859375 567.626953125,276.18408203125" id="poly_114" class="plain" />
<polygon points="687.5,-218.75 796.875,-250.0 796.875,-162.59765625 687.5,-187.5" id="poly_133" class="plain" />
<polygon points="729.79736328125,-314.208984375 729.79736328125,-343.75 779.296875,-320.3125 780.487060546875,-288.02490234375" id="poly_64" class="plain" />
<polygon points="697.57080078125,-343.75 729.79736328125,-343.75 729.79736328125,-314.208984375 697.57080078125,-314.208984375" id="poly_65" class="plain" />
<polygon points="653.9306640625,-330.322265625 697.57080078125,-343.75 697.57080078125,-314.208984375 653.9306640625,-300.78125" id="poly_66" class="plain" />
<polygon points="704.498291015625,-84.04541015625 750.0,-78.125 750.0,-46.875 704.498291015625,-50.262451171875" id="poly_67" class="plain" />
<polygon points="653.9306640625,-97.35107421875 704.498291015625,-84.04541015625 704.498291015625,-50.262451171875 654.296875,-62.5" id="poly_68" class="plain" />
<polygon points="704.498291015625,-50.262451171875 750.0,-46.875 745.60546875,27.83203125 703.125,1.46484375" id="poly_87" class="plain" />
<polygon points="750.0,-78.125 796.875,-125.0 796.875,-78.125 750.0,-46.875" id="poly_88" class="plain" />
<polygon points="779.296875,-320.3125 796.875,-312.5 796.875,-281.25 780.487060546875,-288.02490234375" id="poly_56" class="plain" />
<polygon points="796.875,-250.0 845.947265625,-285.64453125 902.7099609375,-235.015869140625 902.34375,-146.484375 845.703125,-126.953125 796.875,-162.59765625" id="poly_57" class="plain" />
<polygon points="857.391357421875,-329.89501953125 868.83544921875,-318.450927734375 845.947265625,-285.64453125 824.70703125,-304.6875" id="poly_63" class="plain" />
<polygon points="796.875,-125.0 796.875,-162.59765625 845.703125,-126.953125 828.826904296875,-91.644287109375 796.875,-78.125" id="poly_134" class="plain" />
<polygon points="796.875,-312.5 824.70703125,-304.6875 845.947265625,-285.64453125 796.875,-250.0 796.875,-281.25" id="poly_135" class="plain" />
<polygon points="-260.19287109375,-10.25390625 -158.75244140625,-13.48876953125 -149.4140625,1.03759765625 -197.1435546875,22.8271484375 -231.99462890625,21.78955078125" id="poly_5" class="plain" />
<polygon points="-197.1435546875,22.8271484375 -149.4140625,1.03759765625 -149.4140625,47.7294921875 -175.35400390625,78.857421875" id="poly_6" class="plain" />
<polygon points="-230.3466796875,-515.68603515625 -209.5947265625,-527.099609375 -202.33154296875,-499.08447265625" id="poly_39" class="plain" />
<polygon points="595.52001953125,-309.50927734375 653.9306640625,-330.322265625 653.9306640625,-300.78125 601.5625,-279.296875" id="poly_53" class="plain" />
<polygon points="604.91943359375,-122.86376953125 653.9306640625,-97.35107421875 654.296875,-62.5 593.75,-93.75" id="poly_54" class="plain" />
<polygon points="595.52001953125,-309.50927734375 601.5625,-279.296875 564.63623046875,-239.013671875 538.4521484375,-249.755859375" id="poly_55" class="plain" />
<polygon points="538.4521484375,-249.755859375 564.63623046875,-239.013671875 564.63623046875,-167.17529296875 538.4521484375,-155.76171875" id="poly_75" class="plain" />
<polygon points="538.4521484375,-155.76171875 564.63623046875,-167.17529296875 604.91943359375,-122.86376953125 593.75,-93.75" id="poly_77" class="plain" />
<polygon points="514.16015625,172.8515625 552.24609375,178.7109375 574.21875,216.796875 556.640625,251.953125" id="poly_83" class="plain" />
<polygon points="578.61328125,76.171875 594.7265625,108.3984375 552.24609375,178.7109375 514.16015625,172.8515625" id="poly_84" class="plain" />
<polygon points="665.0390625,24.90234375 683.59375,58.10546875 594.7265625,108.3984375 578.61328125,76.171875" id="poly_86" class="plain" />
<polygon points="665.0390625,24.90234375 703.125,1.46484375 745.60546875,27.83203125 717.7734375,42.48046875 683.59375,58.10546875" id="poly_90" class="plain" />
<polygon points="-296.875,31.25 -260.19287109375,-10.25390625 -231.99462890625,21.78955078125 -232.666015625,44.677734375 -250.0,62.5 -296.875,62.5" id="poly_99" class="plain" />
<polygon points="-375.0,31.25 -343.75,31.25 -343.75,140.625 -375.0,140.625" id="poly_129" class="plain" />
<polygon points="656.25,-218.75 687.5,-218.75 687.5,-187.5 656.25,-187.5" id="poly_132" class="platform" />
<polygon points="683.59375,58.10546875 717.7734375,42.48046875 726.5625,62.98828125 701.66015625,79.1015625" id="poly_89" class="platform" />
<polygon points="523.4375,-250.0 538.4521484375,-249.755859375 538.4521484375,-155.76171875 523.4375,-156.25" id="poly_127" class="platform" />
<polygon points="-230.3466796875,-515.68603515625 -202.33154296875,-499.08447265625 -233.45947265625,-499.08447265625" id="poly_38" class="plain" />
<polygon points="-148.4375,-218.75 -148.37646484375,-249.0234375 0.0,-250.0 -41.015625,-212.890625 -148.4375,-187.5" id="poly_11" class="plain" />
<polygon points="-233.45947265625,-499.08447265625 -202.33154296875,-499.08447265625 -202.33154296875,-436.82861328125 -292.6025390625,-392.2119140625" id="poly_14" class="plain" />
<polygon points="-41.015625,-212.890625 0.0,-250.0 29.296875,-192.3828125 0.0,-173.828125" id="poly_19" class="plain" />
<polygon points="0.0,-173.828125 29.296875,-192.3828125 29.296875,-121.09375 0.0,-140.625" id="poly_20" class="plain" />
<polygon points="29.296875,-192.3828125 110.65673828125,-193.084716796875 110.65673828125,-121.9482421875 29.296875,-121.09375" id="poly_21" class="plain" />
<polygon points="125.0,-140.625 140.625,-125.0 140.625,-93.75 140.625,-62.5 124.420166015625,-70.86181640625" id="poly_26" class="plain" />
<polygon points="125.0,-265.625 125.0,-140.625 124.420166015625,-70.86181640625 110.65673828125,-121.9482421875 110.65673828125,-193.084716796875" id="poly_34" class="plain" />
<polygon points="85.9375,-339.84375 125.0,-359.375 140.625,-343.75 126.953125,-318.359375" id="poly_70" class="plain" />
<polygon points="85.9375,-339.84375 126.953125,-318.359375 85.9375,-304.6875" id="poly_71" class="plain" />
<polygon points="85.9375,-304.6875 126.953125,-318.359375 162.109375,-291.015625 121.09375,-281.25" id="poly_72" class="plain" />
<polygon points="121.09375,-281.25 162.109375,-291.015625 165.8935546875,-275.87890625 125.0,-265.625" id="poly_73" class="plain" />
<polygon points="-292.6025390625,-392.2119140625 -202.33154296875,-436.82861328125 -163.9404296875,-374.57275390625 -163.9404296875,-312.31689453125 -192.9931640625,-259.3994140625 -281.18896484375,-259.3994140625 -322.69287109375,-259.3994140625" id="poly_76" class="plain" />
<polygon points="406.25,-531.25 468.75,-515.625 468.75,-437.5 406.25,-343.75" id="poly_78" class="plain" />
<polygon points="69.488525390625,-498.504638671875 125.0,-531.25 125.0,-359.375 85.9375,-339.84375 70.49560546875,-419.952392578125 69.488525390625,-457.21435546875" id="poly_79" class="plain" />
<polygon points="281.25,-281.25 281.25,-296.875 305.0537109375,-305.908203125 330.6884765625,-272.5830078125 330.078125,-239.2578125" id="poly_93" class="plain" />
<polygon points="330.078125,-118.1640625 330.6884765625,-85.44921875 306.7626953125,-51.26953125 281.25,-62.5 281.25,-78.125" id="poly_94" class="plain" />
<polygon points="-160.125732421875,-499.51171875 0.0,-500.0 0.0,-457.58056640625 -160.125732421875,-437.07275390625" id="poly_100" class="plain" />
<polygon points="-160.125732421875,-437.07275390625 0.0,-457.58056640625 26.9775390625,-457.58056640625 27.52685546875,-374.6337890625 -125.0,-375.0" id="poly_101" class="plain" />
<polygon points="-125.0,-375.0 27.52685546875,-374.6337890625 0.0,-250.0 -125.0,-312.5" id="poly_102" class="plain" />
<polygon points="-125.0,-312.5 0.0,-250.0 -148.37646484375,-249.0234375" id="poly_103" class="plain" />
<polygon points="125.0,-531.25 218.75,-531.25 218.75,-343.75 140.625,-343.75 125.0,-359.375" id="poly_104" class="plain" />
<polygon points="218.75,-531.25 312.5,-531.25 312.5,-343.75 218.75,-343.75" id="poly_105" class="plain" />
<polygon points="312.5,-531.25 406.25,-531.25 406.25,-343.75 312.5,-343.75" id="poly_106" class="plain" />
<polygon points="125.0,-265.625 165.8935546875,-275.87890625 250.0,-296.875 250.0,-281.25 187.5,-125.0 171.875,-125.0 140.625,-125.0 125.0,-140.625" id="poly_107" class="plain" />
<polygon points="250.0,-281.25 281.25,-281.25 330.078125,-239.2578125 330.078125,-118.1640625 281.25,-78.125 250.0,-78.125 187.5,-125.0" id="poly_108" class="plain" />
<polygon points="187.5,-93.75 187.5,-125.0 250.0,-78.125 250.0,-62.5 203.125,-62.5" id="poly_109" class="plain" />
<polygon points="-78.7353515625,79.193115234375 111.328125,78.125 111.328125,109.375 -62.255859375,141.357421875 -77.81982421875,141.90673828125" id="poly_116" class="plain" />
<polygon points="111.328125,109.375 78.125,187.5 -62.255859375,187.5 -62.255859375,141.357421875" id="poly_117" class="plain" />
<polygon points="-78.125,187.5 -62.255859375,187.5 78.125,187.5 78.125,234.375 -77.362060546875,251.312255859375" id="poly_119" class="plain" />
<polygon points="-322.69287109375,-259.3994140625 -281.18896484375,-259.3994140625 -192.9931640625,-259.3994140625 -195.068359375,-217.8955078125 -199.951171875,-187.1337890625" id="poly_123" class="plain" />
<polygon points="327.2705078125,-314.453125 342.6513671875,-291.3818359375 330.6884765625,-272.5830078125 305.0537109375,-305.908203125" id="poly_24" class="plain" />
<polygon points="306.7626953125,-51.26953125 330.6884765625,-85.44921875 349.4873046875,-70.068359375 329.833984375,-43.5791015625" id="poly_25" class="plain" />
<polygon points="468.75,-515.625 652.34375,-400.390625 544.921875,-359.375 468.75,-437.5" id="poly_62" class="plain" />
<polygon points="-178.5888671875,211.48681640625 -172.42431640625,211.48681640625 -172.42431640625,242.73681640625 -178.5888671875,242.67578125" id="poly_137" class="platform" />
<polygon points="-133.36181640625,125.54931640625 -117.1875,125.0 -117.1875,171.875 -133.36181640625,172.42431640625" id="poly_2" class="plain" />
<polygon points="-172.42431640625,102.11181640625 -133.36181640625,102.11181640625 -133.36181640625,125.54931640625 -133.36181640625,172.42431640625 -133.36181640625,195.86181640625 -133.36181640625,242.73681640625 -172.42431640625,242.73681640625 -172.42431640625,211.48681640625" id="poly_122" class="plain" />
<polygon points="-200.8056640625,211.48681640625 -178.5888671875,211.48681640625 -178.5888671875,242.67578125 -200.8056640625,242.67578125" id="poly_138" class="plain" />
<polygon points="349.4873046875,-70.068359375 362.3046875,-70.068359375 435.05859375,-43.304443359375 329.833984375,-43.5791015625" id="poly_37" class="plain" />
<polygon points="327.2705078125,-314.453125 437.5,-328.125 361.4501953125,-291.3818359375 342.6513671875,-291.3818359375" id="poly_50" class="plain" />
<polygon points="544.921875,-359.375 652.34375,-400.390625 653.9306640625,-330.322265625 595.52001953125,-309.50927734375 531.25,-328.125" id="poly_51" class="plain" />
<polygon points="539.794921875,-43.212890625 593.75,-93.75 654.296875,-62.5 654.296875,-3.90625 539.0625,-7.8125" id="poly_52" class="plain" />
<polygon points="363.28125,260.7421875 514.16015625,172.8515625 556.640625,251.953125 480.377197265625,301.57470703125" id="poly_82" class="plain" />
<polygon points="354.4921875,50.78125 406.25,31.25 437.5,31.25 578.61328125,76.171875 514.16015625,172.8515625 363.28125,260.7421875 328.125,241.69921875 303.22265625,175.78125" id="poly_85" class="plain" />
<polygon points="556.640625,251.953125 514.984130859375,313.1103515625 480.377197265625,301.57470703125" id="poly_96" class="plain" />
<polygon points="683.59375,58.10546875 701.66015625,79.1015625 684.08203125,191.89453125 574.21875,216.796875 552.24609375,178.7109375 594.7265625,108.3984375" id="poly_110" class="plain" />
<polygon points="361.4501953125,-291.3818359375 437.5,-328.125 531.25,-328.125 595.52001953125,-309.50927734375 538.4521484375,-249.755859375 523.4375,-250.0" id="poly_124" class="plain" />
<polygon points="361.4501953125,-291.3818359375 523.4375,-250.0 523.4375,-156.25 435.05859375,-43.304443359375 362.3046875,-70.068359375" id="poly_125" class="plain" />
<polygon points="523.4375,-156.25 538.4521484375,-155.76171875 593.75,-93.75 539.794921875,-43.212890625 435.05859375,-43.304443359375" id="poly_126" class="plain" />
<polygon points="437.5,31.25 437.5,0.0 539.0625,-7.8125 654.296875,-3.90625 665.0390625,24.90234375 578.61328125,76.171875" id="poly_128" class="plain" />
<polygon points="564.63623046875,-239.013671875 656.25,-218.75 656.25,-187.5 564.63623046875,-167.17529296875" id="poly_136" class="plain" />
<!-- end group: "polygons" -->
</g>
<g id="borders">
<g id="border_unconnected">
<line x1="250.0" y1="-296.875" x2="281.25" y2="-296.875" id="line_88" class="unconnected" />
<line x1="281.25" y1="-62.5" x2="250.0" y2="-62.5" id="line_90" class="unconnected" />
<!-- end group: "border_unconnected" -->
</g>
<g id="border_landscape_">
<line x1="349.4873046875" y1="-70.068359375" x2="329.833984375" y2="-43.5791015625" id="line_104" class="landscape_" />
<line x1="327.2705078125" y1="-314.453125" x2="342.6513671875" y2="-291.3818359375" id="line_107" class="landscape_" />
<line x1="544.921875" y1="-359.375" x2="652.34375" y2="-400.390625" id="line_202" class="landscape_" />
<line x1="468.75" y1="-437.5" x2="468.75" y2="-515.625" id="line_244" class="landscape_" />
<!-- end group: "border_landscape_" -->
</g>
<g id="border_plain">
<line x1="-139.0380859375" y1="-54.99267578125" x2="-158.75244140625" y2="-13.48876953125" id="line_2" class="plain" />
<line x1="-149.4140625" y1="1.03759765625" x2="-112.3046875" y2="3.5400390625" id="line_5" class="plain" />
<line x1="-77.81982421875" y1="141.90673828125" x2="-117.1875" y2="125.0" id="line_13" class="plain" />
<line x1="-133.36181640625" y1="172.42431640625" x2="-133.36181640625" y2="125.54931640625" id="line_17" class="plain" />
<line x1="-120.361328125" y1="338.2568359375" x2="-139.6484375" y2="298.4619140625" id="line_21" class="plain" />
<line x1="-117.1875" y1="195.3125" x2="-78.125" y2="187.5" id="line_25" class="plain" />
<line x1="-231.99462890625" y1="21.78955078125" x2="-260.19287109375" y2="-10.25390625" id="line_27" class="plain" />
<line x1="-149.4140625" y1="1.03759765625" x2="-197.1435546875" y2="22.8271484375" id="line_30" class="plain" />
<line x1="-281.18896484375" y1="-259.3994140625" x2="-322.69287109375" y2="-259.3994140625" id="line_36" class="plain" />
<line x1="-195.068359375" y1="-217.8955078125" x2="-168.3349609375" y2="-217.8955078125" id="line_38" class="plain" />
<line x1="-192.9931640625" y1="-259.3994140625" x2="-148.37646484375" y2="-249.0234375" id="line_42" class="plain" />
<line x1="-163.9404296875" y1="-312.31689453125" x2="-125.0" y2="-312.5" id="line_43" class="plain" />
<line x1="-125.0" y1="-375.0" x2="-163.9404296875" y2="-374.57275390625" id="line_45" class="plain" />
<line x1="-202.33154296875" y1="-436.82861328125" x2="-160.125732421875" y2="-437.07275390625" id="line_47" class="plain" />
<line x1="-148.37646484375" y1="-249.0234375" x2="0.0" y2="-250.0" id="line_58" class="plain" />
<line x1="0.0" y1="-250.0" x2="-41.015625" y2="-212.890625" id="line_59" class="plain" />
<line x1="-202.33154296875" y1="-436.82861328125" x2="-292.6025390625" y2="-392.2119140625" id="line_62" class="plain" />
<line x1="-181.57958984375" y1="-141.11328125" x2="-216.61376953125" y2="-140.9912109375" id="line_69" class="plain" />
<line x1="-160.82763671875" y1="-104.79736328125" x2="-191.95556640625" y2="-97.5341796875" id="line_70" class="plain" />
<line x1="29.296875" y1="-192.3828125" x2="0.0" y2="-173.828125" id="line_79" class="plain" />
<line x1="29.296875" y1="-192.3828125" x2="29.296875" y2="-121.09375" id="line_80" class="plain" />
<line x1="110.65673828125" y1="-193.084716796875" x2="110.65673828125" y2="-121.9482421875" id="line_83" class="plain" />
<line x1="165.8935546875" y1="-275.87890625" x2="125.0" y2="-265.625" id="line_94" class="plain" />
<line x1="281.25" y1="-78.125" x2="330.078125" y2="-118.1640625" id="line_96" class="plain" />
<line x1="124.420166015625" y1="-70.86181640625" x2="125.0" y2="-140.625" id="line_110" class="plain" />
<line x1="171.875" y1="-93.75" x2="140.625" y2="-93.75" id="line_111" class="plain" />
<line x1="125.0" y1="-140.625" x2="140.625" y2="-125.0" id="line_118" class="plain" />
<line x1="134.1552734375" y1="77.7587890625" x2="172.54638671875" y2="77.880859375" id="line_127" class="plain" />
<line x1="-233.3984375" y1="298.4619140625" x2="-239.68505859375" y2="338.2568359375" id="line_134" class="plain" />
<line x1="-345.8251953125" y1="251.5869140625" x2="-295.8984375" y2="235.9619140625" id="line_137" class="plain" />
<line x1="-343.75" y1="140.625" x2="-296.875" y2="140.625" id="line_148" class="plain" />
<line x1="-192.9931640625" y1="-259.3994140625" x2="-281.18896484375" y2="-259.3994140625" id="line_152" class="plain" />
<line x1="125.0" y1="-265.625" x2="125.0" y2="-140.625" id="line_153" class="plain" />
<line x1="362.3046875" y1="-70.068359375" x2="435.05859375" y2="-43.304443359375" id="line_157" class="plain" />
<line x1="-170.166015625" y1="-516.7236328125" x2="-202.33154296875" y2="-499.08447265625" id="line_164" class="plain" />
<line x1="30.21240234375" y1="-217.529296875" x2="65.460205078125" y2="-217.529296875" id="line_175" class="plain" />
<line x1="171.875" y1="-46.875" x2="133.85009765625" y2="-51.177978515625" id="line_179" class="plain" />
<line x1="133.85009765625" y1="-17.059326171875" x2="133.85009765625" y2="-51.177978515625" id="line_180" class="plain" />
<line x1="70.86181640625" y1="-41.9921875" x2="95.672607421875" y2="-67.474365234375" id="line_184" class="plain" />
<line x1="437.5" y1="-328.125" x2="361.4501953125" y2="-291.3818359375" id="line_189" class="plain" />
<line x1="595.52001953125" y1="-309.50927734375" x2="531.25" y2="-328.125" id="line_200" class="plain" />
<line x1="539.794921875" y1="-43.212890625" x2="593.75" y2="-93.75" id="line_204" class="plain" />
<line x1="654.296875" y1="-3.90625" x2="539.0625" y2="-7.8125" id="line_206" class="plain" />
<line x1="564.63623046875" y1="-239.013671875" x2="538.4521484375" y2="-249.755859375" id="line_208" class="plain" />
<line x1="601.5625" y1="-279.296875" x2="595.52001953125" y2="-309.50927734375" id="line_209" class="plain" />
<line x1="564.63623046875" y1="-167.17529296875" x2="538.4521484375" y2="-155.76171875" id="line_210" class="plain" />
<line x1="593.75" y1="-93.75" x2="604.91943359375" y2="-122.86376953125" id="line_211" class="plain" />
<line x1="796.875" y1="-312.5" x2="796.875" y2="-281.25" id="line_216" class="plain" />
<line x1="845.947265625" y1="-285.64453125" x2="824.70703125" y2="-304.6875" id="line_220" class="plain" />
<line x1="796.875" y1="-250.0" x2="845.947265625" y2="-285.64453125" id="line_227" class="plain" />
<line x1="845.703125" y1="-126.953125" x2="796.875" y2="-162.59765625" id="line_228" class="plain" />
<line x1="263.671875" y1="155.2734375" x2="303.22265625" y2="175.78125" id="line_229" class="plain" />
<line x1="303.22265625" y1="175.78125" x2="265.625" y2="218.75" id="line_230" class="plain" />
<line x1="324.21875" y1="16.6015625" x2="354.4921875" y2="50.78125" id="line_234" class="plain" />
<line x1="729.79736328125" y1="-314.208984375" x2="729.79736328125" y2="-343.75" id="line_254" class="plain" />
<line x1="697.57080078125" y1="-314.208984375" x2="697.57080078125" y2="-343.75" id="line_256" class="plain" />
<line x1="704.498291015625" y1="-50.262451171875" x2="704.498291015625" y2="-84.04541015625" id="line_261" class="plain" />
<line x1="750.0" y1="-78.125" x2="750.0" y2="-46.875" id="line_262" class="plain" />
<line x1="750.0" y1="-46.875" x2="704.498291015625" y2="-50.262451171875" id="line_263" class="plain" />
<line x1="162.109375" y1="-291.015625" x2="121.09375" y2="-281.25" id="line_269" class="plain" />
<line x1="85.9375" y1="-339.84375" x2="125.0" y2="-359.375" id="line_273" class="plain" />
<line x1="125.0" y1="-359.375" x2="140.625" y2="-343.75" id="line_274" class="plain" />
<line x1="126.953125" y1="-318.359375" x2="85.9375" y2="-304.6875" id="line_276" class="plain" />
<line x1="126.953125" y1="-318.359375" x2="85.9375" y2="-339.84375" id="line_278" class="plain" />
<line x1="330.078125" y1="-239.2578125" x2="281.25" y2="-281.25" id="line_286" class="plain" />
<line x1="406.25" y1="-343.75" x2="406.25" y2="-531.25" id="line_289" class="plain" />
<line x1="125.0" y1="-531.25" x2="125.0" y2="-359.375" id="line_290" class="plain" />
<line x1="328.125" y1="241.69921875" x2="297.36328125" y2="265.13671875" id="line_295" class="plain" />
<line x1="363.28125" y1="260.7421875" x2="342.7734375" y2="294.43359375" id="line_297" class="plain" />
<line x1="514.16015625" y1="172.8515625" x2="552.24609375" y2="178.7109375" id="line_304" class="plain" />
<line x1="578.61328125" y1="76.171875" x2="594.7265625" y2="108.3984375" id="line_306" class="plain" />
<line x1="665.0390625" y1="24.90234375" x2="683.59375" y2="58.10546875" id="line_308" class="plain" />
<line x1="437.5" y1="31.25" x2="578.61328125" y2="76.171875" id="line_309" class="plain" />
<line x1="363.28125" y1="260.7421875" x2="514.16015625" y2="172.8515625" id="line_311" class="plain" />
<line x1="556.640625" y1="251.953125" x2="480.377197265625" y2="301.57470703125" id="line_312" class="plain" />
<line x1="171.20361328125" y1="154.4189453125" x2="132.598876953125" y2="186.309814453125" id="line_330" class="plain" />
<line x1="0.0" y1="-457.58056640625" x2="-160.125732421875" y2="-437.07275390625" id="line_347" class="plain" />
<line x1="0.0" y1="-250.0" x2="-125.0" y2="-312.5" id="line_348" class="plain" />
<line x1="27.52685546875" y1="-374.6337890625" x2="-125.0" y2="-375.0" id="line_349" class="plain" />
<line x1="312.5" y1="-531.25" x2="312.5" y2="-343.75" id="line_356" class="plain" />
<line x1="218.75" y1="-531.25" x2="218.75" y2="-343.75" id="line_357" class="plain" />
<line x1="250.0" y1="-281.25" x2="187.5" y2="-125.0" id="line_358" class="plain" />
<line x1="250.0" y1="-78.125" x2="187.5" y2="-125.0" id="line_359" class="plain" />
<line x1="567.626953125" y1="276.18408203125" x2="595.0927734375" y2="267.02880859375" id="line_367" class="plain" />
<line x1="553.131103515625" y1="305.17578125" x2="582.8857421875" y2="324.249267578125" id="line_368" class="plain" />
<line x1="553.131103515625" y1="305.17578125" x2="546.2646484375" y2="344.8486328125" id="line_369" class="plain" />
<line x1="111.328125" y1="109.375" x2="-62.255859375" y2="141.357421875" id="line_375" class="plain" />
<line x1="78.125" y1="187.5" x2="-62.255859375" y2="187.5" id="line_376" class="plain" />
<line x1="523.4375" y1="-156.25" x2="435.05859375" y2="-43.304443359375" id="line_385" class="plain" />
<line x1="523.4375" y1="-250.0" x2="361.4501953125" y2="-291.3818359375" id="line_386" class="plain" />
<!-- end group: "border_plain" -->
</g>
<g id="border_ceiling">
<line x1="-108.3984375" y1="48.4619140625" x2="-149.4140625" y2="47.7294921875" id="line_7" class="ceiling" />
<line x1="-78.7353515625" y1="79.193115234375" x2="-118.2861328125" y2="78.857421875" id="line_11" class="ceiling" />
<line x1="-118.2861328125" y1="251.0986328125" x2="-77.362060546875" y2="251.312255859375" id="line_19" class="ceiling" />
<line x1="-149.4140625" y1="47.7294921875" x2="-175.35400390625" y2="78.857421875" id="line_31" class="ceiling" />
<line x1="-168.0908203125" y1="-186.767578125" x2="-199.951171875" y2="-187.1337890625" id="line_50" class="ceiling" />
<line x1="-161.865234375" y1="-57.06787109375" x2="-197.1435546875" y2="-57.06787109375" id="line_72" class="ceiling" />
<line x1="140.625" y1="-62.5" x2="171.875" y2="-62.5" id="line_122" class="ceiling" />
<line x1="172.54638671875" y1="108.7646484375" x2="134.1552734375" y2="109.375" id="line_130" class="ceiling" />
<line x1="-295.8984375" y1="173.4619140625" x2="-343.75" y2="171.875" id="line_149" class="ceiling" />
<line x1="69.488525390625" y1="-457.21435546875" x2="26.9775390625" y2="-457.58056640625" id="line_173" class="ceiling" />
<line x1="133.85009765625" y1="-17.059326171875" x2="172.54638671875" y2="-16.11328125" id="line_182" class="ceiling" />
<line x1="653.9306640625" y1="-330.322265625" x2="653.9306640625" y2="-300.78125" id="line_193" class="ceiling" />
<line x1="653.9306640625" y1="-97.35107421875" x2="654.296875" y2="-62.5" id="line_199" class="ceiling" />
<line x1="780.487060546875" y1="-288.02490234375" x2="779.296875" y2="-320.3125" id="line_214" class="ceiling" />
<line x1="796.875" y1="-125.0" x2="796.875" y2="-78.125" id="line_218" class="ceiling" />
<line x1="796.875" y1="-162.59765625" x2="796.875" y2="-250.0" id="line_222" class="ceiling" />
<line x1="227.05078125" y1="184.5703125" x2="263.671875" y2="155.2734375" id="line_231" class="ceiling" />
<line x1="857.391357421875" y1="-329.89501953125" x2="868.83544921875" y2="-318.450927734375" id="line_248" class="ceiling" />
<line x1="574.21875" y1="216.796875" x2="556.640625" y2="251.953125" id="line_302" class="ceiling" />
<line x1="745.60546875" y1="27.83203125" x2="703.125" y2="1.46484375" id="line_316" class="ceiling" />
<!-- end group: "border_ceiling" -->
</g>
<g id="border_elevation">
<line x1="-260.19287109375" y1="-10.25390625" x2="-158.75244140625" y2="-13.48876953125" id="line_1" class="elevation" />
<line x1="-158.75244140625" y1="-13.48876953125" x2="-149.4140625" y2="1.03759765625" id="line_4" class="elevation" />
<line x1="-149.4140625" y1="47.7294921875" x2="-149.4140625" y2="1.03759765625" id="line_6" class="elevation" />
<line x1="-118.2861328125" y1="78.857421875" x2="-149.4140625" y2="47.7294921875" id="line_10" class="elevation" />
<line x1="-117.1875" y1="125.0" x2="-117.1875" y2="171.875" id="line_14" class="elevation" />
<line x1="-195.068359375" y1="-217.8955078125" x2="-192.9931640625" y2="-259.3994140625" id="line_37" class="elevation" />
<line x1="-192.9931640625" y1="-259.3994140625" x2="-163.9404296875" y2="-312.31689453125" id="line_39" class="elevation" />
<line x1="-148.37646484375" y1="-249.0234375" x2="-148.4375" y2="-218.75" id="line_40" class="elevation" />
<line x1="-125.0" y1="-312.5" x2="-148.37646484375" y2="-249.0234375" id="line_41" class="elevation" />
<line x1="-163.9404296875" y1="-312.31689453125" x2="-163.9404296875" y2="-374.57275390625" id="line_44" class="elevation" />
<line x1="-163.9404296875" y1="-374.57275390625" x2="-202.33154296875" y2="-436.82861328125" id="line_46" class="elevation" />
<line x1="-160.125732421875" y1="-437.07275390625" x2="-125.0" y2="-375.0" id="line_48" class="elevation" />
<line x1="-199.951171875" y1="-187.1337890625" x2="-195.068359375" y2="-217.8955078125" id="line_49" class="elevation" />
<line x1="-202.33154296875" y1="-499.08447265625" x2="-202.33154296875" y2="-436.82861328125" id="line_52" class="elevation" />
<line x1="-202.33154296875" y1="-499.08447265625" x2="-160.125732421875" y2="-499.51171875" id="line_53" class="elevation" />
<line x1="-233.45947265625" y1="-499.08447265625" x2="-202.33154296875" y2="-499.08447265625" id="line_64" class="elevation" />
<line x1="306.7626953125" y1="-51.26953125" x2="330.6884765625" y2="-85.44921875" id="line_100" class="elevation" />
<line x1="330.6884765625" y1="-272.5830078125" x2="305.0537109375" y2="-305.908203125" id="line_101" class="elevation" />
<line x1="140.625" y1="-93.75" x2="140.625" y2="-125.0" id="line_114" class="elevation" />
<line x1="140.625" y1="-125.0" x2="171.875" y2="-125.0" id="line_115" class="elevation" />
<line x1="203.125" y1="-62.5" x2="187.5" y2="-93.75" id="line_119" class="elevation" />
<line x1="140.625" y1="-93.75" x2="140.625" y2="-62.5" id="line_121" class="elevation" />
<line x1="-125.0" y1="-375.0" x2="-125.0" y2="-312.5" id="line_154" class="elevation" />
<line x1="-160.125732421875" y1="-499.51171875" x2="-160.125732421875" y2="-437.07275390625" id="line_155" class="elevation" />
<line x1="-187.80517578125" y1="-527.099609375" x2="-202.33154296875" y2="-499.08447265625" id="line_165" class="elevation" />
<line x1="-209.5947265625" y1="-527.099609375" x2="-202.33154296875" y2="-499.08447265625" id="line_166" class="elevation" />
<line x1="-230.3466796875" y1="-515.68603515625" x2="-202.33154296875" y2="-499.08447265625" id="line_167" class="elevation" />
<line x1="69.488525390625" y1="-498.504638671875" x2="69.488525390625" y2="-457.21435546875" id="line_172" class="elevation" />
<line x1="69.488525390625" y1="-457.21435546875" x2="70.49560546875" y2="-419.952392578125" id="line_174" class="elevation" />
<line x1="653.9306640625" y1="-330.322265625" x2="595.52001953125" y2="-309.50927734375" id="line_191" class="elevation" />
<line x1="593.75" y1="-93.75" x2="654.296875" y2="-62.5" id="line_192" class="elevation" />
<line x1="564.63623046875" y1="-239.013671875" x2="564.63623046875" y2="-167.17529296875" id="line_196" class="elevation" />
<line x1="538.4521484375" y1="-249.755859375" x2="595.52001953125" y2="-309.50927734375" id="line_212" class="elevation" />
<line x1="354.4921875" y1="50.78125" x2="303.22265625" y2="175.78125" id="line_235" class="elevation" />
<line x1="406.25" y1="31.25" x2="354.4921875" y2="50.78125" id="line_242" class="elevation" />
<line x1="27.52685546875" y1="-374.6337890625" x2="26.9775390625" y2="-457.58056640625" id="line_281" class="elevation" />
<line x1="593.75" y1="-93.75" x2="538.4521484375" y2="-155.76171875" id="line_288" class="elevation" />
<line x1="303.22265625" y1="175.78125" x2="328.125" y2="241.69921875" id="line_291" class="elevation" />
<line x1="328.125" y1="241.69921875" x2="363.28125" y2="260.7421875" id="line_292" class="elevation" />
<line x1="480.377197265625" y1="301.57470703125" x2="363.28125" y2="260.7421875" id="line_293" class="elevation" />
<line x1="578.61328125" y1="76.171875" x2="665.0390625" y2="24.90234375" id="line_299" class="elevation" />
<line x1="514.16015625" y1="172.8515625" x2="578.61328125" y2="76.171875" id="line_300" class="elevation" />
<line x1="514.16015625" y1="172.8515625" x2="556.640625" y2="251.953125" id="line_301" class="elevation" />
<line x1="552.24609375" y1="178.7109375" x2="574.21875" y2="216.796875" id="line_303" class="elevation" />
<line x1="594.7265625" y1="108.3984375" x2="552.24609375" y2="178.7109375" id="line_305" class="elevation" />
<line x1="683.59375" y1="58.10546875" x2="594.7265625" y2="108.3984375" id="line_307" class="elevation" />
<line x1="-78.7353515625" y1="79.193115234375" x2="-77.81982421875" y2="141.90673828125" id="line_343" class="elevation" />
<line x1="-296.875" y1="62.5" x2="-296.875" y2="31.25" id="line_345" class="elevation" />
<line x1="-78.125" y1="187.5" x2="-77.362060546875" y2="251.312255859375" id="line_377" class="elevation" />
<line x1="-343.75" y1="31.25" x2="-343.75" y2="140.625" id="line_387" class="elevation" />
<!-- end group: "border_elevation" -->
</g>
<g id="border_solid">
<line x1="-260.19287109375" y1="-10.25390625" x2="-243.83544921875" y2="-53.955078125" id="line_0" class="solid" />
<line x1="-139.0380859375" y1="-54.99267578125" x2="-112.060546875" y2="-54.99267578125" id="line_3" class="solid" />
<line x1="-112.3046875" y1="3.5400390625" x2="-108.3984375" y2="48.4619140625" id="line_8" class="solid" />
<line x1="-108.3984375" y1="48.4619140625" x2="-78.7353515625" y2="79.193115234375" id="line_9" class="solid" />
<line x1="-117.1875" y1="125.0" x2="-118.2861328125" y2="78.857421875" id="line_12" class="solid" />
<line x1="-133.36181640625" y1="125.54931640625" x2="-117.1875" y2="125.0" id="line_15" class="solid" />
<line x1="-117.1875" y1="171.875" x2="-133.36181640625" y2="172.42431640625" id="line_16" class="solid" />
<line x1="-118.2861328125" y1="251.0986328125" x2="-117.1875" y2="195.3125" id="line_18" class="solid" />
<line x1="-139.6484375" y1="298.4619140625" x2="-118.2861328125" y2="251.0986328125" id="line_20" class="solid" />
<line x1="-77.362060546875" y1="251.312255859375" x2="-120.361328125" y2="338.2568359375" id="line_22" class="solid" />
<line x1="-117.1875" y1="195.3125" x2="-133.36181640625" y2="195.86181640625" id="line_23" class="solid" />
<line x1="-133.36181640625" y1="195.86181640625" x2="-133.36181640625" y2="172.42431640625" id="line_24" class="solid" />
<line x1="-117.1875" y1="171.875" x2="-117.1875" y2="195.3125" id="line_26" class="solid" />
<line x1="-197.1435546875" y1="22.8271484375" x2="-231.99462890625" y2="21.78955078125" id="line_28" class="solid" />
<line x1="-175.35400390625" y1="78.857421875" x2="-197.1435546875" y2="22.8271484375" id="line_29" class="solid" />
<line x1="111.328125" y1="109.375" x2="111.328125" y2="78.125" id="line_32" class="solid" />
<line x1="78.125" y1="187.5" x2="78.125" y2="234.375" id="line_33" class="solid" />
<line x1="111.328125" y1="109.375" x2="78.125" y2="187.5" id="line_34" class="solid" />
<line x1="-118.2861328125" y1="78.857421875" x2="-175.35400390625" y2="78.857421875" id="line_35" class="solid" />
<line x1="-148.4375" y1="-218.75" x2="-148.4375" y2="-187.5" id="line_51" class="solid" />
<line x1="-168.3349609375" y1="-217.8955078125" x2="-148.4375" y2="-218.75" id="line_54" class="solid" />
<line x1="-148.4375" y1="-187.5" x2="-168.0908203125" y2="-186.767578125" id="line_55" class="solid" />
<line x1="-168.3349609375" y1="-217.8955078125" x2="-168.0908203125" y2="-186.767578125" id="line_56" class="solid" />
<line x1="-41.015625" y1="-212.890625" x2="-148.4375" y2="-187.5" id="line_57" class="solid" />
<line x1="0.0" y1="-457.58056640625" x2="0.0" y2="-500.0" id="line_60" class="solid" />
<line x1="-322.69287109375" y1="-259.3994140625" x2="-292.6025390625" y2="-392.2119140625" id="line_61" class="solid" />
<line x1="-292.6025390625" y1="-392.2119140625" x2="-233.45947265625" y2="-499.08447265625" id="line_63" class="solid" />
<line x1="-216.61376953125" y1="-140.9912109375" x2="-199.951171875" y2="-187.1337890625" id="line_65" class="solid" />
<line x1="-191.95556640625" y1="-97.5341796875" x2="-216.61376953125" y2="-140.9912109375" id="line_66" class="solid" />
<line x1="-181.57958984375" y1="-141.11328125" x2="-160.82763671875" y2="-104.79736328125" id="line_67" class="solid" />
<line x1="-168.0908203125" y1="-186.767578125" x2="-181.57958984375" y2="-141.11328125" id="line_68" class="solid" />
<line x1="-161.865234375" y1="-57.06787109375" x2="-139.0380859375" y2="-54.99267578125" id="line_71" class="solid" />
<line x1="-160.82763671875" y1="-104.79736328125" x2="-161.865234375" y2="-57.06787109375" id="line_73" class="solid" />
<line x1="-243.83544921875" y1="-53.955078125" x2="-197.1435546875" y2="-57.06787109375" id="line_74" class="solid" />
<line x1="-197.1435546875" y1="-57.06787109375" x2="-191.95556640625" y2="-97.5341796875" id="line_75" class="solid" />
<line x1="0.0" y1="-173.828125" x2="-41.015625" y2="-212.890625" id="line_76" class="solid" />
<line x1="0.0" y1="-140.625" x2="0.0" y2="-173.828125" id="line_77" class="solid" />
<line x1="29.296875" y1="-121.09375" x2="0.0" y2="-140.625" id="line_78" class="solid" />
<line x1="0.0" y1="-250.0" x2="29.296875" y2="-192.3828125" id="line_81" class="solid" />
<line x1="29.296875" y1="-192.3828125" x2="110.65673828125" y2="-193.084716796875" id="line_82" class="solid" />
<line x1="110.65673828125" y1="-121.9482421875" x2="29.296875" y2="-121.09375" id="line_84" class="solid" />
<line x1="110.65673828125" y1="-193.084716796875" x2="125.0" y2="-265.625" id="line_85" class="solid" />
<line x1="124.420166015625" y1="-70.86181640625" x2="110.65673828125" y2="-121.9482421875" id="line_86" class="solid" />
<line x1="281.25" y1="-281.25" x2="281.25" y2="-296.875" id="line_87" class="solid" />
<line x1="250.0" y1="-78.125" x2="250.0" y2="-62.5" id="line_89" class="solid" />
<line x1="281.25" y1="-62.5" x2="281.25" y2="-78.125" id="line_91" class="solid" />
<line x1="281.25" y1="-78.125" x2="250.0" y2="-78.125" id="line_92" class="solid" />
<line x1="330.078125" y1="-239.2578125" x2="330.078125" y2="-118.1640625" id="line_93" class="solid" />
<line x1="250.0" y1="-62.5" x2="203.125" y2="-62.5" id="line_95" class="solid" />
<line x1="250.0" y1="-296.875" x2="250.0" y2="-281.25" id="line_97" class="solid" />
<line x1="250.0" y1="-281.25" x2="281.25" y2="-281.25" id="line_98" class="solid" />
<line x1="306.7626953125" y1="-51.26953125" x2="281.25" y2="-62.5" id="line_99" class="solid" />
<line x1="281.25" y1="-296.875" x2="305.0537109375" y2="-305.908203125" id="line_102" class="solid" />
<line x1="329.833984375" y1="-43.5791015625" x2="306.7626953125" y2="-51.26953125" id="line_103" class="solid" />
<line x1="330.6884765625" y1="-85.44921875" x2="349.4873046875" y2="-70.068359375" id="line_105" class="solid" />
<line x1="305.0537109375" y1="-305.908203125" x2="327.2705078125" y2="-314.453125" id="line_106" class="solid" />
<line x1="342.6513671875" y1="-291.3818359375" x2="330.6884765625" y2="-272.5830078125" id="line_108" class="solid" />
<line x1="203.125" y1="-62.5" x2="171.875" y2="-62.5" id="line_109" class="solid" />
<line x1="187.5" y1="-125.0" x2="187.5" y2="-93.75" id="line_112" class="solid" />
<line x1="171.875" y1="-125.0" x2="187.5" y2="-125.0" id="line_113" class="solid" />
<line x1="187.5" y1="-93.75" x2="171.875" y2="-93.75" id="line_116" class="solid" />
<line x1="171.875" y1="-125.0" x2="171.875" y2="-93.75" id="line_117" class="solid" />
<line x1="140.625" y1="-62.5" x2="124.420166015625" y2="-70.86181640625" id="line_120" class="solid" />
<line x1="134.1552734375" y1="109.375" x2="111.328125" y2="109.375" id="line_123" class="solid" />
<line x1="134.1552734375" y1="109.375" x2="134.1552734375" y2="77.7587890625" id="line_124" class="solid" />
<line x1="111.328125" y1="78.125" x2="134.1552734375" y2="77.7587890625" id="line_125" class="solid" />
<line x1="134.1552734375" y1="77.7587890625" x2="133.85009765625" y2="-17.059326171875" id="line_126" class="solid" />
<line x1="171.875" y1="-62.5" x2="171.875" y2="-46.875" id="line_128" class="solid" />
<line x1="172.54638671875" y1="77.880859375" x2="172.54638671875" y2="108.7646484375" id="line_129" class="solid" />
<line x1="-296.875" y1="31.25" x2="-260.19287109375" y2="-10.25390625" id="line_131" class="solid" />
<line x1="-231.99462890625" y1="21.78955078125" x2="-232.666015625" y2="44.677734375" id="line_132" class="solid" />
<line x1="-233.3984375" y1="298.4619140625" x2="-139.6484375" y2="298.4619140625" id="line_133" class="solid" />
<line x1="-120.361328125" y1="338.2568359375" x2="-239.68505859375" y2="338.2568359375" id="line_135" class="solid" />
<line x1="-295.8984375" y1="235.9619140625" x2="-233.3984375" y2="298.4619140625" id="line_136" class="solid" />
<line x1="-239.68505859375" y1="338.2568359375" x2="-345.8251953125" y2="251.5869140625" id="line_138" class="solid" />
<line x1="-343.75" y1="31.25" x2="-296.875" y2="31.25" id="line_139" class="solid" />
<line x1="-345.8251953125" y1="251.5869140625" x2="-343.75" y2="171.875" id="line_140" class="solid" />
<line x1="-232.666015625" y1="44.677734375" x2="-250.0" y2="62.5" id="line_141" class="solid" />
<line x1="-375.0" y1="31.25" x2="-343.75" y2="31.25" id="line_142" class="solid" />
<line x1="-375.0" y1="140.625" x2="-375.0" y2="31.25" id="line_143" class="solid" />
<line x1="-375.0" y1="140.625" x2="-343.75" y2="140.625" id="line_144" class="solid" />
<line x1="-375.0" y1="171.875" x2="-375.0" y2="140.625" id="line_145" class="solid" />
<line x1="-343.75" y1="140.625" x2="-343.75" y2="171.875" id="line_146" class="solid" />
<line x1="-343.75" y1="171.875" x2="-375.0" y2="171.875" id="line_147" class="solid" />
<line x1="-296.875" y1="140.625" x2="-295.8984375" y2="173.4619140625" id="line_150" class="solid" />
<line x1="-295.8984375" y1="173.4619140625" x2="-295.8984375" y2="235.9619140625" id="line_151" class="solid" />
<line x1="435.05859375" y1="-43.304443359375" x2="329.833984375" y2="-43.5791015625" id="line_156" class="solid" />
<line x1="349.4873046875" y1="-70.068359375" x2="362.3046875" y2="-70.068359375" id="line_158" class="solid" />
<line x1="-233.45947265625" y1="-499.08447265625" x2="-230.3466796875" y2="-515.68603515625" id="line_159" class="solid" />
<line x1="-230.3466796875" y1="-515.68603515625" x2="-209.5947265625" y2="-527.099609375" id="line_160" class="solid" />
<line x1="-187.80517578125" y1="-527.099609375" x2="-170.166015625" y2="-516.7236328125" id="line_161" class="solid" />
<line x1="-170.166015625" y1="-516.7236328125" x2="-160.125732421875" y2="-499.51171875" id="line_162" class="solid" />
<line x1="-209.5947265625" y1="-527.099609375" x2="-187.80517578125" y2="-527.099609375" id="line_163" class="solid" />
<line x1="26.9775390625" y1="-457.58056640625" x2="0.0" y2="-457.58056640625" id="line_168" class="solid" />
<line x1="26.9775390625" y1="-457.58056640625" x2="26.9775390625" y2="-499.08447265625" id="line_169" class="solid" />
<line x1="0.0" y1="-500.0" x2="26.9775390625" y2="-499.08447265625" id="line_170" class="solid" />
<line x1="26.9775390625" y1="-499.08447265625" x2="69.488525390625" y2="-498.504638671875" id="line_171" class="solid" />
<line x1="30.21240234375" y1="-217.529296875" x2="27.52685546875" y2="-374.6337890625" id="line_176" class="solid" />
<line x1="133.85009765625" y1="-51.177978515625" x2="140.625" y2="-62.5" id="line_177" class="solid" />
<line x1="171.875" y1="-46.875" x2="172.54638671875" y2="-16.11328125" id="line_178" class="solid" />
<line x1="172.54638671875" y1="-16.11328125" x2="172.54638671875" y2="77.880859375" id="line_181" class="solid" />
<line x1="95.672607421875" y1="-67.474365234375" x2="133.85009765625" y2="-51.177978515625" id="line_183" class="solid" />
<line x1="133.85009765625" y1="-17.059326171875" x2="70.86181640625" y2="-41.9921875" id="line_185" class="solid" />
<line x1="65.460205078125" y1="-217.529296875" x2="95.672607421875" y2="-67.474365234375" id="line_186" class="solid" />
<line x1="70.86181640625" y1="-41.9921875" x2="30.21240234375" y2="-217.529296875" id="line_187" class="solid" />
<line x1="327.2705078125" y1="-314.453125" x2="437.5" y2="-328.125" id="line_188" class="solid" />
<line x1="361.4501953125" y1="-291.3818359375" x2="342.6513671875" y2="-291.3818359375" id="line_190" class="solid" />
<line x1="653.9306640625" y1="-300.78125" x2="601.5625" y2="-279.296875" id="line_194" class="solid" />
<line x1="601.5625" y1="-279.296875" x2="564.63623046875" y2="-239.013671875" id="line_195" class="solid" />
<line x1="564.63623046875" y1="-167.17529296875" x2="604.91943359375" y2="-122.86376953125" id="line_197" class="solid" />
<line x1="604.91943359375" y1="-122.86376953125" x2="653.9306640625" y2="-97.35107421875" id="line_198" class="solid" />
<line x1="531.25" y1="-328.125" x2="544.921875" y2="-359.375" id="line_201" class="solid" />
<line x1="652.34375" y1="-400.390625" x2="653.9306640625" y2="-330.322265625" id="line_203" class="solid" />
<line x1="539.0625" y1="-7.8125" x2="539.794921875" y2="-43.212890625" id="line_205" class="solid" />
<line x1="654.296875" y1="-62.5" x2="654.296875" y2="-3.90625" id="line_207" class="solid" />
<line x1="538.4521484375" y1="-155.76171875" x2="538.4521484375" y2="-249.755859375" id="line_213" class="solid" />
<line x1="796.875" y1="-281.25" x2="780.487060546875" y2="-288.02490234375" id="line_215" class="solid" />
<line x1="779.296875" y1="-320.3125" x2="796.875" y2="-312.5" id="line_217" class="solid" />
<line x1="796.875" y1="-312.5" x2="824.70703125" y2="-304.6875" id="line_219" class="solid" />
<line x1="828.826904296875" y1="-91.644287109375" x2="796.875" y2="-78.125" id="line_221" class="solid" />
<line x1="845.703125" y1="-126.953125" x2="828.826904296875" y2="-91.644287109375" id="line_223" class="solid" />
<line x1="902.34375" y1="-146.484375" x2="845.703125" y2="-126.953125" id="line_224" class="solid" />
<line x1="902.7099609375" y1="-235.015869140625" x2="902.34375" y2="-146.484375" id="line_225" class="solid" />
<line x1="845.947265625" y1="-285.64453125" x2="902.7099609375" y2="-235.015869140625" id="line_226" class="solid" />
<line x1="265.625" y1="218.75" x2="227.05078125" y2="184.5703125" id="line_232" class="solid" />
<line x1="263.671875" y1="155.2734375" x2="324.21875" y2="16.6015625" id="line_233" class="solid" />
<line x1="437.5" y1="0.0" x2="539.0625" y2="-7.8125" id="line_236" class="solid" />
<line x1="437.5" y1="0.0" x2="437.5" y2="31.25" id="line_237" class="solid" />
<line x1="406.25" y1="0.0" x2="437.5" y2="0.0" id="line_238" class="solid" />
<line x1="406.25" y1="31.25" x2="406.25" y2="0.0" id="line_239" class="solid" />
<line x1="437.5" y1="31.25" x2="406.25" y2="31.25" id="line_240" class="solid" />
<line x1="324.21875" y1="16.6015625" x2="406.25" y2="0.0" id="line_241" class="solid" />
<line x1="544.921875" y1="-359.375" x2="468.75" y2="-437.5" id="line_243" class="solid" />
<line x1="468.75" y1="-515.625" x2="652.34375" y2="-400.390625" id="line_245" class="solid" />
<line x1="69.488525390625" y1="-498.504638671875" x2="125.0" y2="-531.25" id="line_246" class="solid" />
<line x1="824.70703125" y1="-304.6875" x2="857.391357421875" y2="-329.89501953125" id="line_247" class="solid" />
<line x1="868.83544921875" y1="-318.450927734375" x2="845.947265625" y2="-285.64453125" id="line_249" class="solid" />
<line x1="697.57080078125" y1="-314.208984375" x2="653.9306640625" y2="-300.78125" id="line_250" class="solid" />
<line x1="729.79736328125" y1="-314.208984375" x2="697.57080078125" y2="-314.208984375" id="line_251" class="solid" />
<line x1="780.487060546875" y1="-288.02490234375" x2="729.79736328125" y2="-314.208984375" id="line_252" class="solid" />
<line x1="729.79736328125" y1="-343.75" x2="779.296875" y2="-320.3125" id="line_253" class="solid" />
<line x1="697.57080078125" y1="-343.75" x2="729.79736328125" y2="-343.75" id="line_255" class="solid" />
<line x1="653.9306640625" y1="-330.322265625" x2="697.57080078125" y2="-343.75" id="line_257" class="solid" />
<line x1="704.498291015625" y1="-84.04541015625" x2="750.0" y2="-78.125" id="line_258" class="solid" />
<line x1="653.9306640625" y1="-97.35107421875" x2="704.498291015625" y2="-84.04541015625" id="line_259" class="solid" />
<line x1="704.498291015625" y1="-50.262451171875" x2="654.296875" y2="-62.5" id="line_260" class="solid" />
<line x1="857.391357421875" y1="-329.89501953125" x2="865.1123046875" y2="-337.46337890625" id="line_264" class="solid" />
<line x1="865.1123046875" y1="-337.46337890625" x2="876.312255859375" y2="-325.927734375" id="line_265" class="solid" />
<line x1="876.312255859375" y1="-325.927734375" x2="868.83544921875" y2="-318.450927734375" id="line_266" class="solid" />
<line x1="165.8935546875" y1="-275.87890625" x2="250.0" y2="-296.875" id="line_267" class="solid" />
<line x1="162.109375" y1="-291.015625" x2="165.8935546875" y2="-275.87890625" id="line_268" class="solid" />
<line x1="125.0" y1="-265.625" x2="121.09375" y2="-281.25" id="line_270" class="solid" />
<line x1="121.09375" y1="-281.25" x2="85.9375" y2="-304.6875" id="line_271" class="solid" />
<line x1="85.9375" y1="-304.6875" x2="85.9375" y2="-339.84375" id="line_272" class="solid" />
<line x1="140.625" y1="-343.75" x2="126.953125" y2="-318.359375" id="line_275" class="solid" />
<line x1="126.953125" y1="-318.359375" x2="162.109375" y2="-291.015625" id="line_277" class="solid" />
<line x1="406.25" y1="-531.25" x2="468.75" y2="-515.625" id="line_279" class="solid" />
<line x1="468.75" y1="-437.5" x2="406.25" y2="-343.75" id="line_280" class="solid" />
<line x1="70.49560546875" y1="-419.952392578125" x2="65.460205078125" y2="-217.529296875" id="line_282" class="solid" />
<line x1="85.9375" y1="-339.84375" x2="70.49560546875" y2="-419.952392578125" id="line_283" class="solid" />
<line x1="362.3046875" y1="-70.068359375" x2="361.4501953125" y2="-291.3818359375" id="line_284" class="solid" />
<line x1="539.794921875" y1="-43.212890625" x2="435.05859375" y2="-43.304443359375" id="line_285" class="solid" />
<line x1="27.52685546875" y1="-374.6337890625" x2="0.0" y2="-250.0" id="line_287" class="solid" />
<line x1="297.36328125" y1="265.13671875" x2="265.625" y2="218.75" id="line_294" class="solid" />
<line x1="342.7734375" y1="294.43359375" x2="297.36328125" y2="265.13671875" id="line_296" class="solid" />
<line x1="480.377197265625" y1="301.57470703125" x2="468.841552734375" y2="336.181640625" id="line_298" class="solid" />
<line x1="654.296875" y1="-3.90625" x2="665.0390625" y2="24.90234375" id="line_310" class="solid" />
<line x1="665.0390625" y1="24.90234375" x2="703.125" y2="1.46484375" id="line_313" class="solid" />
<line x1="703.125" y1="1.46484375" x2="704.498291015625" y2="-50.262451171875" id="line_314" class="solid" />
<line x1="750.0" y1="-46.875" x2="745.60546875" y2="27.83203125" id="line_315" class="solid" />
<line x1="745.60546875" y1="27.83203125" x2="717.7734375" y2="42.48046875" id="line_317" class="solid" />
<line x1="750.0" y1="-78.125" x2="796.875" y2="-125.0" id="line_318" class="solid" />
<line x1="796.875" y1="-78.125" x2="750.0" y2="-46.875" id="line_319" class="solid" />
<line x1="684.08203125" y1="191.89453125" x2="574.21875" y2="216.796875" id="line_320" class="solid" />
<line x1="701.66015625" y1="79.1015625" x2="683.59375" y2="58.10546875" id="line_321" class="solid" />
<line x1="701.66015625" y1="79.1015625" x2="684.08203125" y2="191.89453125" id="line_322" class="solid" />
<line x1="726.5625" y1="62.98828125" x2="701.66015625" y2="79.1015625" id="line_323" class="solid" />
<line x1="683.59375" y1="58.10546875" x2="717.7734375" y2="42.48046875" id="line_324" class="solid" />
<line x1="717.7734375" y1="42.48046875" x2="726.5625" y2="62.98828125" id="line_325" class="solid" />
<line x1="132.598876953125" y1="186.309814453125" x2="134.1552734375" y2="109.375" id="line_326" class="solid" />
<line x1="227.05078125" y1="184.5703125" x2="132.598876953125" y2="186.309814453125" id="line_327" class="solid" />
<line x1="171.20361328125" y1="154.4189453125" x2="263.671875" y2="155.2734375" id="line_328" class="solid" />
<line x1="172.54638671875" y1="108.7646484375" x2="171.20361328125" y2="154.4189453125" id="line_329" class="solid" />
<line x1="330.078125" y1="-118.1640625" x2="330.6884765625" y2="-85.44921875" id="line_331" class="solid" />
<line x1="330.6884765625" y1="-272.5830078125" x2="330.078125" y2="-239.2578125" id="line_332" class="solid" />
<line x1="468.841552734375" y1="336.181640625" x2="342.7734375" y2="294.43359375" id="line_333" class="solid" />
<line x1="556.640625" y1="251.953125" x2="514.984130859375" y2="313.1103515625" id="line_334" class="solid" />
<line x1="514.984130859375" y1="313.1103515625" x2="480.377197265625" y2="301.57470703125" id="line_335" class="solid" />
<line x1="500.9765625" y1="346.0693359375" x2="468.841552734375" y2="336.181640625" id="line_336" class="solid" />
<line x1="514.984130859375" y1="313.1103515625" x2="500.9765625" y2="346.0693359375" id="line_337" class="solid" />
<line x1="-172.42431640625" y1="102.11181640625" x2="-133.36181640625" y2="102.11181640625" id="line_338" class="solid" />
<line x1="-133.36181640625" y1="102.11181640625" x2="-133.36181640625" y2="125.54931640625" id="line_339" class="solid" />
<line x1="-172.42431640625" y1="242.73681640625" x2="-172.42431640625" y2="211.48681640625" id="line_340" class="solid" />
<line x1="-133.36181640625" y1="242.73681640625" x2="-172.42431640625" y2="242.73681640625" id="line_341" class="solid" />
<line x1="-133.36181640625" y1="195.86181640625" x2="-133.36181640625" y2="242.73681640625" id="line_342" class="solid" />
<line x1="-250.0" y1="62.5" x2="-296.875" y2="62.5" id="line_344" class="solid" />
<line x1="-160.125732421875" y1="-499.51171875" x2="0.0" y2="-500.0" id="line_346" class="solid" />
<line x1="312.5" y1="-531.25" x2="406.25" y2="-531.25" id="line_350" class="solid" />
<line x1="218.75" y1="-531.25" x2="312.5" y2="-531.25" id="line_351" class="solid" />
<line x1="125.0" y1="-531.25" x2="218.75" y2="-531.25" id="line_352" class="solid" />
<line x1="406.25" y1="-343.75" x2="312.5" y2="-343.75" id="line_353" class="solid" />
<line x1="312.5" y1="-343.75" x2="218.75" y2="-343.75" id="line_354" class="solid" />
<line x1="218.75" y1="-343.75" x2="140.625" y2="-343.75" id="line_355" class="solid" />
<line x1="595.0927734375" y1="267.02880859375" x2="582.8857421875" y2="324.249267578125" id="line_360" class="solid" />
<line x1="582.8857421875" y1="324.249267578125" x2="546.2646484375" y2="344.8486328125" id="line_361" class="solid" />
<line x1="546.2646484375" y1="344.8486328125" x2="500.9765625" y2="346.0693359375" id="line_362" class="solid" />
<line x1="514.984130859375" y1="313.1103515625" x2="553.131103515625" y2="305.17578125" id="line_363" class="solid" />
<line x1="553.131103515625" y1="305.17578125" x2="567.626953125" y2="276.18408203125" id="line_364" class="solid" />
<line x1="567.626953125" y1="276.18408203125" x2="556.640625" y2="251.953125" id="line_365" class="solid" />
<line x1="574.21875" y1="216.796875" x2="595.0927734375" y2="267.02880859375" id="line_366" class="solid" />
<line x1="-78.7353515625" y1="79.193115234375" x2="111.328125" y2="78.125" id="line_370" class="solid" />
<line x1="-62.255859375" y1="141.357421875" x2="-77.81982421875" y2="141.90673828125" id="line_371" class="solid" />
<line x1="-62.255859375" y1="187.5" x2="-62.255859375" y2="141.357421875" id="line_372" class="solid" />
<line x1="-78.125" y1="187.5" x2="-62.255859375" y2="187.5" id="line_373" class="solid" />
<line x1="-78.125" y1="187.5" x2="-77.81982421875" y2="141.90673828125" id="line_374" class="solid" />
<line x1="78.125" y1="234.375" x2="-77.362060546875" y2="251.312255859375" id="line_378" class="solid" />
<line x1="-172.42431640625" y1="211.48681640625" x2="-172.42431640625" y2="102.11181640625" id="line_379" class="solid" />
<line x1="-199.951171875" y1="-187.1337890625" x2="-322.69287109375" y2="-259.3994140625" id="line_380" class="solid" />
<line x1="437.5" y1="-328.125" x2="531.25" y2="-328.125" id="line_381" class="solid" />
<line x1="538.4521484375" y1="-249.755859375" x2="523.4375" y2="-250.0" id="line_382" class="solid" />
<line x1="523.4375" y1="-250.0" x2="523.4375" y2="-156.25" id="line_383" class="solid" />
<line x1="523.4375" y1="-156.25" x2="538.4521484375" y2="-155.76171875" id="line_384" class="solid" />
<line x1="-296.875" y1="62.5" x2="-296.875" y2="140.625" id="line_388" class="solid" />
<line x1="-112.060546875" y1="-54.99267578125" x2="-112.3046875" y2="3.5400390625" id="line_389" class="solid" />
<line x1="796.875" y1="-250.0" x2="796.875" y2="-281.25" id="line_390" class="solid" />
<line x1="564.63623046875" y1="-239.013671875" x2="656.25" y2="-218.75" id="line_391" class="solid" />
<line x1="656.25" y1="-187.5" x2="564.63623046875" y2="-167.17529296875" id="line_392" class="solid" />
<line x1="656.25" y1="-218.75" x2="687.5" y2="-218.75" id="line_393" class="solid" />
<line x1="796.875" y1="-125.0" x2="796.875" y2="-162.59765625" id="line_394" class="solid" />
<line x1="687.5" y1="-187.5" x2="656.25" y2="-187.5" id="line_395" class="solid" />
<line x1="656.25" y1="-187.5" x2="656.25" y2="-218.75" id="line_396" class="solid" />
<line x1="687.5" y1="-218.75" x2="796.875" y2="-250.0" id="line_397" class="solid" />
<line x1="796.875" y1="-162.59765625" x2="687.5" y2="-187.5" id="line_398" class="solid" />
<line x1="687.5" y1="-218.75" x2="687.5" y2="-187.5" id="line_399" class="solid" />
<line x1="-178.5888671875" y1="211.48681640625" x2="-172.42431640625" y2="211.48681640625" id="line_400" class="solid" />
<line x1="-178.5888671875" y1="242.67578125" x2="-178.5888671875" y2="211.48681640625" id="line_401" class="solid" />
<line x1="-172.42431640625" y1="242.73681640625" x2="-178.5888671875" y2="242.67578125" id="line_402" class="solid" />
<line x1="-200.8056640625" y1="211.48681640625" x2="-178.5888671875" y2="211.48681640625" id="line_403" class="solid" />
<line x1="-200.8056640625" y1="242.67578125" x2="-200.8056640625" y2="211.48681640625" id="line_404" class="solid" />
<line x1="-178.5888671875" y1="242.67578125" x2="-200.8056640625" y2="242.67578125" id="line_405" class="solid" />
<!-- end group: "border_solid" -->
</g>
<!-- end group: "borders" -->
</g>
<g id="poly_teleporter_lines">
<g id="panel_teleporter_lines_p69">
<g id="panel_teleporter_line_group_poly_p69_p76">
<line x1="866.912841796875" y1="-327.911376953125" x2="-231.38427734375" y2="-327.728271484375" id="panel_teleporter_border_p69_p76" class="teleporter_border" />
<use xlink:href="../resources/svg/common.svg#arrow" x="-231.38427734375" y="-327.728271484375" id="panel_teleporter_head_p69_p76" class="teleporter_line" transform="rotate(179.99044778477054 -231.38427734375 -327.728271484375)" />
<line x1="866.912841796875" y1="-327.911376953125" x2="-231.38427734375" y2="-327.728271484375" id="panel_teleporter_line_p69_p76" class="teleporter_line" />
<!-- end group: "panel_teleporter_line_group_poly_p69_p76" -->
</g>
<!-- end group: "panel_teleporter_lines_p69" -->
</g>
<!-- end group: "poly_teleporter_lines" -->
</g>
<g id="objects">
<g id="objects_sound">
<use xlink:href="../resources/svg/common.svg#sound" x="617.1875" y="-300.78125" id="object_48" class="sound sound-5" />
<use xlink:href="../resources/svg/common.svg#sound" x="625.0" y="-94.7265625" id="object_49" class="sound sound-5" />
<use xlink:href="../resources/svg/common.svg#sound" x="652.34375" y="56.640625" id="object_50" class="sound sound-5" />
<use xlink:href="../resources/svg/common.svg#sound" x="280.2734375" y="187.5" id="object_51" class="sound sound-5" />
<use xlink:href="../resources/svg/common.svg#sound" x="153.3203125" y="61.5234375" id="object_52" class="sound sound-5" />
<use xlink:href="../resources/svg/common.svg#sound" x="154.052734375" y="-105.712890625" id="object_53" class="sound sound-5" />
<use xlink:href="../resources/svg/common.svg#sound" x="153.3203125" y="16.6015625" id="object_54" class="sound sound-5" />
<use xlink:href="../resources/svg/common.svg#sound" x="44.921875" y="-472.65625" id="object_55" class="sound sound-5" />
<use xlink:href="../resources/svg/common.svg#sound" x="-180.6640625" y="-225.5859375" id="object_56" class="sound sound-5" />
<use xlink:href="../resources/svg/common.svg#sound" x="-173.828125" y="-28.3203125" id="object_57" class="sound sound-5" />
<use xlink:href="../resources/svg/common.svg#sound" x="-222.65625" y="-30.2734375" id="object_58" class="sound sound-5" />
<use xlink:href="../resources/svg/common.svg#sound" x="-333.984375" y="152.34375" id="object_59" class="sound sound-20" />
<use xlink:href="../resources/svg/common.svg#sound" x="866.2109375" y="-325.1953125" id="object_60" class="sound sound-20" />
<use xlink:href="../resources/svg/common.svg#sound" x="495.1171875" y="144.53125" id="object_61" class="sound sound-5" />
<!-- end group: "objects_sound" -->
</g>
<g id="objects_item">
<use xlink:href="../resources/svg/common.svg#item" x="-291.1376953125" y="-378.2958984375" id="object_0" class="item item-5" />
<use xlink:href="../resources/svg/common.svg#item" x="543.45703125" y="-208.740234375" id="object_1" class="item item-6" />
<use xlink:href="../resources/svg/common.svg#item" x="543.45703125" y="-203.61328125" id="object_2" class="item item-6" />
<use xlink:href="../resources/svg/common.svg#item" x="-291.1376953125" y="-372.802734375" id="object_3" class="item item-6" />
<use xlink:href="../resources/svg/common.svg#item" x="-286.7431640625" y="-381.2255859375" id="object_4" class="item item-6" />
<use xlink:href="../resources/svg/common.svg#item" x="-179.443359375" y="-132.2021484375" id="object_5" class="item item-6" />
<use xlink:href="../resources/svg/common.svg#item" x="-178.7109375" y="-128.5400390625" id="object_6" class="item item-6" />
<use xlink:href="../resources/svg/common.svg#item" x="896.1181640625" y="-157.8369140625" id="object_7" class="item item-1" />
<use xlink:href="../resources/svg/common.svg#item" x="423.583984375" y="146.484375" id="object_8" class="item item-1" />
<use xlink:href="../resources/svg/common.svg#item" x="419.43359375" y="148.681640625" id="object_9" class="item item-2" />
<use xlink:href="../resources/svg/common.svg#item" x="424.072265625" y="143.5546875" id="object_10" class="item item-2" />
<use xlink:href="../resources/svg/common.svg#item" x="427.734375" y="146.97265625" id="object_11" class="item item-2" />
<use xlink:href="../resources/svg/common.svg#item" x="543.0908203125" y="-198.1201171875" id="object_12" class="item item-2" />
<use xlink:href="../resources/svg/common.svg#item" x="542.724609375" y="-213.8671875" id="object_13" class="item item-2" />
<use xlink:href="../resources/svg/common.svg#item" x="891.357421875" y="-157.470703125" id="object_14" class="item item-2" />
<use xlink:href="../resources/svg/common.svg#item" x="895.3857421875" y="-162.9638671875" id="object_15" class="item item-2" />
<use xlink:href="../resources/svg/common.svg#item" x="-175.048828125" y="-124.8779296875" id="object_16" class="item item-3" />
<use xlink:href="../resources/svg/common.svg#item" x="-173.33984375" y="58.9599609375" id="object_17" class="item item-4" />
<use xlink:href="../resources/svg/common.svg#item" x="-170.654296875" y="64.0869140625" id="object_18" class="item item-4" />
<use xlink:href="../resources/svg/common.svg#item" x="427.490234375" y="154.052734375" id="object_19" class="item item-4" />
<use xlink:href="../resources/svg/common.svg#item" x="889.892578125" y="-163.330078125" id="object_20" class="item item-7" />
<use xlink:href="../resources/svg/common.svg#item" x="-284.0576171875" y="-372.6806640625" id="object_21" class="item item-7" />
<use xlink:href="../resources/svg/common.svg#item" x="61.8896484375" y="-298.095703125" id="object_22" class="item item-22" />
<use xlink:href="../resources/svg/common.svg#item" x="339.84375" y="286.7431640625" id="object_23" class="item item-23" />
<use xlink:href="../resources/svg/common.svg#item" x="61.8896484375" y="-302.1240234375" id="object_24" class="item item-23" />
<use xlink:href="../resources/svg/common.svg#item" x="60.791015625" y="-310.546875" id="object_25" class="item item-23" />
<use xlink:href="../resources/svg/common.svg#item" x="60.4248046875" y="-318.9697265625" id="object_26" class="item item-23" />
<use xlink:href="../resources/svg/common.svg#item" x="60.791015625" y="-306.15234375" id="object_27" class="item item-23" />
<use xlink:href="../resources/svg/common.svg#item" x="60.791015625" y="-314.94140625" id="object_28" class="item item-23" />
<use xlink:href="../resources/svg/common.svg#item" x="63.720703125" y="-321.8994140625" id="object_29" class="item item-23" />
<use xlink:href="../resources/svg/common.svg#item" x="329.2236328125" y="281.25" id="object_30" class="item item-23" />
<use xlink:href="../resources/svg/common.svg#item" x="335.8154296875" y="280.8837890625" id="object_31" class="item item-23" />
<use xlink:href="../resources/svg/common.svg#item" x="325.927734375" y="279.4189453125" id="object_32" class="item item-23" />
<use xlink:href="../resources/svg/common.svg#item" x="336.5478515625" y="286.7431640625" id="object_33" class="item item-23" />
<use xlink:href="../resources/svg/common.svg#item" x="339.111328125" y="283.447265625" id="object_34" class="item item-23" />
<use xlink:href="../resources/svg/common.svg#item" x="328.4912109375" y="280.517578125" id="object_35" class="item item-23" />
<use xlink:href="../resources/svg/common.svg#item" x="334.3505859375" y="284.1796875" id="object_36" class="item item-23" />
<use xlink:href="../resources/svg/common.svg#item" x="332.51953125" y="279.052734375" id="object_37" class="item item-22" />
<use xlink:href="../resources/svg/common.svg#item" x="327.392578125" y="277.9541015625" id="object_38" class="item item-23" />
<use xlink:href="../resources/svg/common.svg#item" x="64.8193359375" y="-316.40625" id="object_39" class="item item-23" />
<use xlink:href="../resources/svg/common.svg#item" x="64.8193359375" y="-311.6455078125" id="object_40" class="item item-23" />
<use xlink:href="../resources/svg/common.svg#item" x="64.453125" y="-308.349609375" id="object_41" class="item item-23" />
<use xlink:href="../resources/svg/common.svg#item" x="64.8193359375" y="-305.0537109375" id="object_42" class="item item-23" />
<use xlink:href="../resources/svg/common.svg#item" x="65.185546875" y="-301.025390625" id="object_43" class="item item-23" />
<use xlink:href="../resources/svg/common.svg#item" x="65.5517578125" y="-297.36328125" id="object_44" class="item item-23" />
<use xlink:href="../resources/svg/common.svg#item" x="-173.9501953125" y="-121.58203125" id="object_45" class="item item-4" />
<use xlink:href="../resources/svg/common.svg#item" x="-188.8427734375" y="226.86767578125" id="object_62" class="item item-15" />
<use xlink:href="../resources/svg/common.svg#item" x="-152.9541015625" y="114.07470703125" id="object_63" class="item item-8" />
<use xlink:href="../resources/svg/common.svg#item" x="-364.74609375" y="41.748046875" id="object_64" class="item item-5" />
<use xlink:href="../resources/svg/common.svg#item" x="-369.56787109375" y="37.59765625" id="object_65" class="item item-6" />
<use xlink:href="../resources/svg/common.svg#item" x="-363.58642578125" y="36.31591796875" id="object_66" class="item item-7" />
<use xlink:href="../resources/svg/common.svg#item" x="-370.42236328125" y="42.724609375" id="object_67" class="item item-7" />
<use xlink:href="../resources/svg/common.svg#item" x="-367.00439453125" y="35.888671875" id="object_68" class="item item-6" />
<use xlink:href="../resources/svg/common.svg#item" x="574.249267578125" y="298.004150390625" id="object_69" class="item item-5" />
<use xlink:href="../resources/svg/common.svg#item" x="565.73486328125" y="298.004150390625" id="object_70" class="item item-5" />
<use xlink:href="../resources/svg/common.svg#item" x="571.4111328125" y="305.572509765625" id="object_71" class="item item-7" />
<use xlink:href="../resources/svg/common.svg#item" x="270.56884765625" y="-448.42529296875" id="object_72" class="item item-6" />
<use xlink:href="../resources/svg/common.svg#item" x="277.191162109375" y="-443.695068359375" id="object_73" class="item item-6" />
<use xlink:href="../resources/svg/common.svg#item" x="275.299072265625" y="-452.20947265625" id="object_74" class="item item-7" />
<use xlink:href="../resources/svg/common.svg#item" x="266.78466796875" y="-455.99365234375" id="object_75" class="item item-7" />
<use xlink:href="../resources/svg/common.svg#item" x="265.838623046875" y="-438.96484375" id="object_76" class="item item-5" />
<use xlink:href="../resources/svg/common.svg#item" x="136.23046875" y="175.96435546875" id="object_77" class="item item-6" />
<use xlink:href="../resources/svg/common.svg#item" x="141.90673828125" y="180.694580078125" id="object_78" class="item item-6" />
<use xlink:href="../resources/svg/common.svg#item" x="142.852783203125" y="174.072265625" id="object_79" class="item item-7" />
<use xlink:href="../resources/svg/common.svg#item" x="136.23046875" y="182.586669921875" id="object_80" class="item item-7" />
<use xlink:href="../resources/svg/common.svg#item" x="373.046875" y="-183.59375" id="object_88" class="item item-5" />
<use xlink:href="../resources/svg/common.svg#item" x="-65.4296875" y="238.28125" id="object_89" class="item item-5" />
<use xlink:href="../resources/svg/common.svg#item" x="331.0546875" y="24.4140625" id="object_90" class="item item-5" />
<use xlink:href="../resources/svg/common.svg#item" x="326.171875" y="33.203125" id="object_91" class="item item-6" />
<use xlink:href="../resources/svg/common.svg#item" x="344.7265625" y="20.5078125" id="object_92" class="item item-6" />
<use xlink:href="../resources/svg/common.svg#item" x="338.8671875" y="28.3203125" id="object_93" class="item item-6" />
<use xlink:href="../resources/svg/common.svg#item" x="-286.1328125" y="264.6484375" id="object_94" class="item item-6" />
<use xlink:href="../resources/svg/common.svg#item" x="8.7890625" y="112.3046875" id="object_95" class="item item-6" />
<use xlink:href="../resources/svg/common.svg#item" x="160.15625" y="-6.8359375" id="object_96" class="item item-6" />
<use xlink:href="../resources/svg/common.svg#item" x="563.4765625" y="44.921875" id="object_97" class="item item-6" />
<use xlink:href="../resources/svg/common.svg#item" x="388.671875" y="95.703125" id="object_98" class="item item-6" />
<use xlink:href="../resources/svg/common.svg#item" x="571.2890625" y="240.234375" id="object_99" class="item item-6" />
<use xlink:href="../resources/svg/common.svg#item" x="612.3046875" y="69.3359375" id="object_100" class="item item-6" />
<use xlink:href="../resources/svg/common.svg#item" x="724.609375" y="-3.90625" id="object_101" class="item item-6" />
<use xlink:href="../resources/svg/common.svg#item" x="830.078125" y="-228.515625" id="object_102" class="item item-6" />
<use xlink:href="../resources/svg/common.svg#item" x="636.71875" y="-205.078125" id="object_103" class="item item-6" />
<use xlink:href="../resources/svg/common.svg#item" x="420.8984375" y="-451.171875" id="object_104" class="item item-6" />
<use xlink:href="../resources/svg/common.svg#item" x="166.015625" y="-395.5078125" id="object_105" class="item item-7" />
<use xlink:href="../resources/svg/common.svg#item" x="522.4609375" y="-427.734375" id="object_106" class="item item-7" />
<use xlink:href="../resources/svg/common.svg#item" x="424.8046875" y="-188.4765625" id="object_107" class="item item-7" />
<use xlink:href="../resources/svg/common.svg#item" x="247.0703125" y="-153.3203125" id="object_108" class="item item-7" />
<use xlink:href="../resources/svg/common.svg#item" x="-71.2890625" y="-394.53125" id="object_109" class="item item-7" />
<use xlink:href="../resources/svg/common.svg#item" x="-157.2265625" y="-278.3203125" id="object_110" class="item item-7" />
<use xlink:href="../resources/svg/common.svg#item" x="-160.15625" y="-407.2265625" id="object_111" class="item item-6" />
<use xlink:href="../resources/svg/common.svg#item" x="-77.1484375" y="-436.5234375" id="object_112" class="item item-6" />
<use xlink:href="../resources/svg/common.svg#item" x="477.5390625" y="-283.203125" id="object_113" class="item item-6" />
<use xlink:href="../resources/svg/common.svg#item" x="344.7265625" y="-305.6640625" id="object_114" class="item item-6" />
<!-- end group: "objects_item" -->
</g>
<g id="objects_player">
<use xlink:href="../resources/svg/common.svg#monster" x="199.462890625" y="170.34912109375" id="object_46" class="player" />
<use xlink:href="../resources/svg/common.svg#monster" x="890.2587890625" y="-195.1904296875" id="object_47" class="player" transform="rotate(174.375 890.2587890625 -195.1904296875)" />
<use xlink:href="../resources/svg/common.svg#monster" x="552.001953125" y="207.51953125" id="object_81" class="player" transform="rotate(240.46875 552.001953125 207.51953125)" />
<use xlink:href="../resources/svg/common.svg#monster" x="400.5126953125" y="-352.783203125" id="object_82" class="player" transform="rotate(222.890625 400.5126953125 -352.783203125)" />
<use xlink:href="../resources/svg/common.svg#monster" x="-178.466796875" y="-471.0693359375" id="object_83" class="player" transform="rotate(88.59375 -178.466796875 -471.0693359375)" />
<use xlink:href="../resources/svg/common.svg#monster" x="-319.580078125" y="47.7294921875" id="object_84" class="player" transform="rotate(90.703125 -319.580078125 47.7294921875)" />
<use xlink:href="../resources/svg/common.svg#monster" x="49.8046875" y="-246.9482421875" id="object_85" class="player" transform="rotate(90.703125 49.8046875 -246.9482421875)" />
<use xlink:href="../resources/svg/common.svg#monster" x="232.421875" y="-282.2265625" id="object_86" class="player" transform="rotate(90.703125 232.421875 -282.2265625)" />
<use xlink:href="../resources/svg/common.svg#monster" x="66.40625" y="222.0458984375" id="object_87" class="player" transform="rotate(225.703125 66.40625 222.0458984375)" />
<!-- end group: "objects_player" -->
</g>
<!-- end group: "objects" -->
</g>
<g id="panels">
<!-- end group: "panels" -->
</g>

<script xlink:href="../resources/js/level.js" ></script>
</svg>