<?xml version="1.0" encoding="UTF-8"?>
<svg
    xmlns="http://www.w3.org/2000/svg"
    xmlns:xlink="http://www.w3.org/1999/xlink"
    version="1.1"
    style='display: none!important;'>

<!-- marathon logo -->
<!--
<symbol id='logo' style='overflow: visible;'>
<circle cx="100" cy="100" cy="170" r="55" fill="currentColor" />
<path
    fill="currentColor" 
    d="
        M 103,300
        A 97,97 0 1,0 97,300
        L 97,230
        A 60,60 0 1,1 103,230
        Z
    "
    />
</symbol>
-->

<!-- hollow, outlined circle -->
<symbol id='panel' style='overflow: visible;'>
<!-- outline -->
<circle r=".012" stroke-width=".004" stroke="black" fill="none" pointer-events="visible" />
<!-- ring color -->
<circle r=".012" stroke-width=".002" stroke="currentColor" fill="none" />
</symbol>

<!-- center oriented, tall triangle -->
<symbol id='monster' style='overflow: visible;'>
<polygon points="-.01,.005 .01,0 -.01,-.005" fill="currentColor" stroke="black" stroke-width=".001" />
</symbol>

<!-- tip oriented, tall triangle -->
<symbol id='arrow' style='overflow: visible;'>
<polygon points="-.02,.005 0,0 -.02,-.005" fill="currentColor" stroke="black" stroke-width=".001" />
</symbol>

<!-- solid, outlined square -->
<symbol id='object' style='overflow: visible;'>
<rect width=".005" height=".005" fill="currentColor" stroke="black" stroke-width=".001" />
</symbol>

<!-- solid, outlined circle -->
<symbol id='item' style='overflow: visible;'>
<!-- outline -->
<circle r=".003" fill="black" />
<!-- inner color -->
<circle r=".002" fill="currentColor" />
</symbol>

<!-- center oriented, downward pointing, equilateral triangle -->
<symbol id='unknown' style='overflow: visible;'>
<polygon points="-.005,-.00288675134594813 .005,-.00288675134594813 0,.00866025403784439" fill="currentColor" stroke="black" stroke-width=".001" />
</symbol>

<!-- inward facing equilateral triangles, with a center background circle -->
<symbol id='sound' style='overflow: visible;'>
<circle r=".006" fill="black" />
<circle r=".005" fill="currentColor" />
<polygon points=".011547005383793,-.005 .011547005383793,.005 0,0" fill="currentColor" stroke="black" stroke-width=".001" />
<polygon points="-.011547005383793,-.005 -.011547005383793,.005 0,0" fill="currentColor" stroke="black" stroke-width=".001" />
</symbol>

<!-- center oriented, right pointing, equilateral triangle -->
<symbol id='center_right_triangle' style='overflow: visible;'>
<polygon points="-.00288675134594813,.005 -.00288675134594813,-.005 .00866025403784439,0" fill="currentColor" stroke="black" stroke-width=".001" />
</symbol>

<!-- center oriented, downward pointing, equilateral triangle -->
<symbol id='center_down_triangle' style='overflow: visible;'>
<polygon points=".005,.00288675134594813 -.005,.00288675134594813 0,.00866025403784439" fill="currentColor" stroke="black" stroke-width=".001" />
</symbol>

<!-- hollow, outlined star -->
<symbol id='goal' style='overflow: visible;'>
<!-- outline -->
<polygon points=".000,-.0085 -.006,.0085 .009,-.0035 -.009,-.0035 .006,.0085" fill="none" stroke="black" stroke-width=".003" pointer-events="visible" />
<!-- inner color -->
<polygon points=".000,-.0085 -.006,.0085 .009,-.0035 -.009,-.0035 .006,.0085" fill="none" stroke="currentColor" stroke-width=".001" />
</symbol>

</svg>
