<?xml version="1.0" encoding="UTF-8"?>
<!-- generated by map2svg: github.com/fracai/marathon-svg -->
<svg xmlns="http://www.w3.org/2000/svg" xmlns:xlink="http://www.w3.org/1999/xlink" version="1.1"
    viewBox="-445.3125 -187.5 929.6875 234.375">
<link xmlns="http://www.w3.org/1999/xhtml" rel="stylesheet" href="../resources/css/styles.css" type="text/css" />
<style id="dynamic-style" />
<g id="background-grid">
<defs>
<pattern id="grid_minor" width="3.125" height="3.125" patternUnits="userSpaceOnUse">
<path d="M 3.125 0 L 0 0 0 3.125" fill="none" class="grid_minor" />
</pattern>
<pattern id="grid_major" width="31.25" height="31.25" patternUnits="userSpaceOnUse">
<rect width="31.25" height="31.25" fill="url(#grid_minor)"/>
<path d="M 31.25 0 L 0 0 0 31.25" fill="none" class="grid_major" />
</pattern>
</defs>
<rect x="-1000" y="-1000" width="2000" height="2000" fill="url(#grid_major)" />
<line x1="0" y1="1000" x2="0" y2="-1000" class="grid_origin" />
<line x1="1000" y1="0" x2="-1000" y2="0" class="grid_origin" />
<!-- end group: "background-grid" -->
</g>
<g id="polygons">
<polygon points="-46.875,-15.625 -15.625,-15.625 -7.8125,-15.625 31.25,-15.625 0.0,15.625 -23.4375,15.625" id="poly_0" class="plain" />
<polygon points="85.9375,-148.4375 93.75,-148.4375 109.375,-148.4375 125.0,-148.4375 125.0,-125.0 85.9375,-125.0" id="poly_4" class="plain" />
<polygon points="31.25,-15.625 46.875,-15.625 46.875,15.625 0.0,15.625" id="poly_6" class="plain" />
<polygon points="-46.875,-15.625 -23.4375,15.625 -46.875,15.625" id="poly_7" class="plain" />
<polygon points="-117.1875,-85.9375 -109.375,-85.9375 -109.375,-54.6875 -117.1875,-54.6875" id="poly_10" class="plain" />
<polygon points="-414.0625,-85.9375 -117.1875,-85.9375 -117.1875,-54.6875 -382.8125,-54.6875" id="poly_11" class="plain" />
<polygon points="109.375,-85.9375 117.1875,-85.9375 117.1875,-54.6875 109.375,-54.6875" id="poly_12" class="plain" />
<polygon points="117.1875,-85.9375 453.125,-85.9375 429.6875,-54.6875 117.1875,-54.6875" id="poly_13" class="plain" />
<polygon points="-78.125,-117.1875 78.125,-117.1875 78.125,-23.4375 31.25,-23.4375 -7.8125,-23.4375 -15.625,-23.4375 -46.875,-23.4375 -78.125,-23.4375" id="poly_3" class="plain" />
<polygon points="-109.375,-85.9375 -78.125,-117.1875 -78.125,-23.4375 -109.375,-54.6875" id="poly_8" class="plain" />
<polygon points="78.125,-117.1875 109.375,-85.9375 109.375,-54.6875 78.125,-23.4375" id="poly_9" class="plain" />
<polygon points="-7.8125,-23.4375 31.25,-23.4375 31.25,-15.625 -7.8125,-15.625" id="poly_2" class="plain" />
<polygon points="93.75,-156.25 109.375,-156.25 109.375,-148.4375 93.75,-148.4375" id="poly_5" class="plain" />
<polygon points="-46.875,-23.4375 -15.625,-23.4375 -15.625,-15.625 -46.875,-15.625" id="poly_1" class="platform" />
<!-- end group: "polygons" -->
</g>
<g id="borders">
<g id="border_unconnected">
<line x1="-448.2421875" y1="140.625" x2="-439.453125" y2="246.09375" id="line_50" class="unconnected" />
<line x1="-448.2421875" y1="140.625" x2="-391.11328125" y2="136.23046875" id="line_51" class="unconnected" />
<line x1="-391.11328125" y1="136.23046875" x2="-358.154296875" y2="160.400390625" id="line_52" class="unconnected" />
<line x1="-358.154296875" y1="160.400390625" x2="-351.5625" y2="208.740234375" id="line_53" class="unconnected" />
<line x1="-351.5625" y1="208.740234375" x2="-377.9296875" y2="237.3046875" id="line_54" class="unconnected" />
<line x1="-439.453125" y1="246.09375" x2="-430.6640625" y2="351.5625" id="line_55" class="unconnected" />
<line x1="-377.9296875" y1="237.3046875" x2="-439.453125" y2="246.09375" id="line_56" class="unconnected" />
<line x1="-340.576171875" y1="140.625" x2="-328.61328125" y2="244.0185546875" id="line_57" class="unconnected" />
<line x1="-340.576171875" y1="140.625" x2="-283.447265625" y2="131.8359375" id="line_58" class="unconnected" />
<line x1="-283.447265625" y1="131.8359375" x2="-250.48828125" y2="156.005859375" id="line_59" class="unconnected" />
<line x1="-250.48828125" y1="156.005859375" x2="-241.69921875" y2="195.556640625" id="line_60" class="unconnected" />
<line x1="-241.69921875" y1="195.556640625" x2="-263.671875" y2="232.91015625" id="line_61" class="unconnected" />
<line x1="-328.61328125" y1="244.0185546875" x2="-316.40625" y2="349.365234375" id="line_62" class="unconnected" />
<line x1="-263.671875" y1="232.91015625" x2="-328.61328125" y2="244.0185546875" id="line_63" class="unconnected" />
<line x1="-263.671875" y1="232.91015625" x2="-210.9375" y2="329.58984375" id="line_64" class="unconnected" />
<line x1="-250.48828125" y1="123.046875" x2="-182.31201171875" y2="114.92919921875" id="line_65" class="unconnected" />
<line x1="-195.556640625" y1="331.787109375" x2="-141.326904296875" y2="325.62255859375" id="line_66" class="unconnected" />
<line x1="-182.31201171875" y1="114.92919921875" x2="-120.849609375" y2="107.666015625" id="line_67" class="unconnected" />
<line x1="-141.326904296875" y1="325.62255859375" x2="-79.1015625" y2="318.603515625" id="line_68" class="unconnected" />
<line x1="-182.31201171875" y1="114.92919921875" x2="-141.326904296875" y2="325.62255859375" id="line_69" class="unconnected" />
<line x1="24.169921875" y1="127.44140625" x2="2.197265625" y2="103.271484375" id="line_70" class="unconnected" />
<line x1="2.197265625" y1="103.271484375" x2="-54.931640625" y2="92.28515625" id="line_71" class="unconnected" />
<line x1="-54.931640625" y1="92.28515625" x2="-90.087890625" y2="118.65234375" id="line_72" class="unconnected" />
<line x1="-90.087890625" y1="118.65234375" x2="-96.6796875" y2="171.38671875" id="line_73" class="unconnected" />
<line x1="-96.6796875" y1="171.38671875" x2="-68.115234375" y2="208.740234375" id="line_74" class="unconnected" />
<line x1="-68.115234375" y1="208.740234375" x2="0.0" y2="219.7265625" id="line_75" class="unconnected" />
<line x1="0.0" y1="219.7265625" x2="50.537109375" y2="250.48828125" id="line_76" class="unconnected" />
<line x1="50.537109375" y1="250.48828125" x2="52.734375" y2="287.841796875" id="line_77" class="unconnected" />
<line x1="52.734375" y1="287.841796875" x2="17.578125" y2="318.603515625" id="line_78" class="unconnected" />
<line x1="17.578125" y1="318.603515625" x2="-32.958984375" y2="325.1953125" id="line_79" class="unconnected" />
<line x1="-32.958984375" y1="325.1953125" x2="-63.720703125" y2="303.22265625" id="line_80" class="unconnected" />
<line x1="-358.154296875" y1="443.84765625" x2="-330.718994140625" y2="589.4775390625" id="line_81" class="unconnected" />
<line x1="142.822265625" y1="290.0390625" x2="103.271484375" y2="274.658203125" id="line_82" class="unconnected" />
<line x1="103.271484375" y1="274.658203125" x2="57.12890625" y2="191.162109375" id="line_83" class="unconnected" />
<line x1="57.12890625" y1="191.162109375" x2="50.537109375" y2="114.2578125" id="line_84" class="unconnected" />
<line x1="50.537109375" y1="114.2578125" x2="87.890625" y2="70.3125" id="line_85" class="unconnected" />
<line x1="87.890625" y1="70.3125" x2="162.59765625" y2="96.6796875" id="line_86" class="unconnected" />
<line x1="162.59765625" y1="96.6796875" x2="193.359375" y2="197.75390625" id="line_87" class="unconnected" />
<line x1="193.359375" y1="197.75390625" x2="184.5703125" y2="259.27734375" id="line_88" class="unconnected" />
<line x1="184.5703125" y1="259.27734375" x2="142.822265625" y2="290.0390625" id="line_89" class="unconnected" />
<line x1="243.896484375" y1="279.052734375" x2="193.359375" y2="52.734375" id="line_90" class="unconnected" />
<line x1="193.359375" y1="52.734375" x2="333.984375" y2="279.052734375" id="line_91" class="unconnected" />
<line x1="333.984375" y1="279.052734375" x2="314.208984375" y2="35.15625" id="line_92" class="unconnected" />
<line x1="-358.154296875" y1="443.84765625" x2="-276.85546875" y2="435.05859375" id="line_93" class="unconnected" />
<line x1="-276.85546875" y1="435.05859375" x2="-230.712890625" y2="472.412109375" id="line_94" class="unconnected" />
<line x1="-230.712890625" y1="472.412109375" x2="-217.529296875" y2="549.31640625" id="line_95" class="unconnected" />
<line x1="-217.529296875" y1="549.31640625" x2="-254.8828125" y2="577.880859375" id="line_96" class="unconnected" />
<line x1="-330.718994140625" y1="589.4775390625" x2="-307.6171875" y2="711.9140625" id="line_97" class="unconnected" />
<line x1="-254.8828125" y1="577.880859375" x2="-330.718994140625" y2="589.4775390625" id="line_98" class="unconnected" />
<line x1="-254.8828125" y1="577.880859375" x2="-153.80859375" y2="703.125" id="line_99" class="unconnected" />
<line x1="-215.33203125" y1="435.05859375" x2="-110.77880859375" y2="413.2080078125" id="line_100" class="unconnected" />
<line x1="-136.23046875" y1="681.15234375" x2="-51.788330078125" y2="657.012939453125" id="line_101" class="unconnected" />
<line x1="-110.77880859375" y1="413.2080078125" x2="-15.380859375" y2="393.310546875" id="line_102" class="unconnected" />
<line x1="-51.788330078125" y1="657.012939453125" x2="63.720703125" y2="624.0234375" id="line_103" class="unconnected" />
<line x1="-110.77880859375" y1="413.2080078125" x2="-51.788330078125" y2="657.012939453125" id="line_104" class="unconnected" />
<line x1="32.958984375" y1="454.833984375" x2="57.12890625" y2="558.10546875" id="line_105" class="unconnected" />
<line x1="57.12890625" y1="558.10546875" x2="118.65234375" y2="613.037109375" id="line_106" class="unconnected" />
<line x1="118.65234375" y1="613.037109375" x2="195.556640625" y2="615.234375" id="line_107" class="unconnected" />
<line x1="195.556640625" y1="615.234375" x2="219.7265625" y2="544.921875" id="line_108" class="unconnected" />
<line x1="219.7265625" y1="544.921875" x2="169.189453125" y2="366.943359375" id="line_109" class="unconnected" />
<line x1="169.189453125" y1="366.943359375" x2="83.49609375" y2="344.970703125" id="line_110" class="unconnected" />
<line x1="83.49609375" y1="344.970703125" x2="21.97265625" y2="419.677734375" id="line_111" class="unconnected" />
<line x1="21.97265625" y1="419.677734375" x2="32.958984375" y2="454.833984375" id="line_112" class="unconnected" />
<line x1="235.107421875" y1="353.759765625" x2="349.06005859375" y2="317.626953125" id="line_113" class="unconnected" />
<line x1="349.06005859375" y1="317.626953125" x2="457.03125" y2="283.447265625" id="line_114" class="unconnected" />
<line x1="349.06005859375" y1="317.626953125" x2="441.650390625" y2="692.138671875" id="line_115" class="unconnected" />
<line x1="-398.8037109375" y1="-814.0869140625" x2="-362.548828125" y2="-622.9248046875" id="line_116" class="unconnected" />
<line x1="-362.548828125" y1="-622.9248046875" x2="-398.8037109375" y2="-586.669921875" id="line_117" class="unconnected" />
<line x1="-398.8037109375" y1="-586.669921875" x2="-461.42578125" y2="-580.078125" id="line_118" class="unconnected" />
<line x1="-461.42578125" y1="-580.078125" x2="-484.4970703125" y2="-613.037109375" id="line_119" class="unconnected" />
<line x1="-293.3349609375" y1="-606.4453125" x2="-291.8701171875" y2="-715.2099609375" id="line_120" class="unconnected" />
<line x1="-290.0390625" y1="-847.0458984375" x2="-154.9072265625" y2="-636.1083984375" id="line_121" class="unconnected" />
<line x1="-291.8701171875" y1="-715.2099609375" x2="-290.0390625" y2="-847.0458984375" id="line_122" class="unconnected" />
<line x1="-154.9072265625" y1="-636.1083984375" x2="-291.8701171875" y2="-715.2099609375" id="line_123" class="unconnected" />
<line x1="-207.6416015625" y1="-850.341796875" x2="-112.335205078125" y2="-868.22509765625" id="line_124" class="unconnected" />
<line x1="-135.1318359375" y1="-659.1796875" x2="-62.744140625" y2="-676.08642578125" id="line_125" class="unconnected" />
<line x1="-112.335205078125" y1="-868.22509765625" x2="-49.4384765625" y2="-880.0048828125" id="line_126" class="unconnected" />
<line x1="-62.744140625" y1="-676.08642578125" x2="62.6220703125" y2="-705.322265625" id="line_127" class="unconnected" />
<line x1="-112.335205078125" y1="-868.22509765625" x2="-62.744140625" y2="-676.08642578125" id="line_128" class="unconnected" />
<line x1="42.8466796875" y1="-893.1884765625" x2="82.3974609375" y2="-682.2509765625" id="line_129" class="unconnected" />
<line x1="82.3974609375" y1="-682.2509765625" x2="234.0087890625" y2="-705.322265625" id="line_130" class="unconnected" />
<line x1="-461.42578125" y1="-481.201171875" x2="-440.887451171875" y2="-359.405517578125" id="line_131" class="unconnected" />
<line x1="-461.42578125" y1="-481.201171875" x2="-385.6201171875" y2="-507.568359375" id="line_132" class="unconnected" />
<line x1="-385.6201171875" y1="-507.568359375" x2="-283.447265625" y2="-454.833984375" id="line_133" class="unconnected" />
<line x1="-283.447265625" y1="-454.833984375" x2="-293.3349609375" y2="-411.9873046875" id="line_134" class="unconnected" />
<line x1="-440.887451171875" y1="-359.405517578125" x2="-418.5791015625" y2="-227.4169921875" id="line_135" class="unconnected" />
<line x1="-293.3349609375" y1="-411.9873046875" x2="-440.887451171875" y2="-359.405517578125" id="line_136" class="unconnected" />
<line x1="-293.3349609375" y1="-411.9873046875" x2="-257.080078125" y2="-362.548828125" id="line_137" class="unconnected" />
<line x1="-257.080078125" y1="-362.548828125" x2="-286.7431640625" y2="-283.447265625" id="line_138" class="unconnected" />
<line x1="-286.7431640625" y1="-283.447265625" x2="-418.5791015625" y2="-227.4169921875" id="line_139" class="unconnected" />
<line x1="-250.48828125" y1="-524.0478515625" x2="-227.294921875" y2="-382.904052734375" id="line_140" class="unconnected" />
<line x1="-250.48828125" y1="-524.0478515625" x2="-161.4990234375" y2="-547.119140625" id="line_141" class="unconnected" />
<line x1="-161.4990234375" y1="-547.119140625" x2="-85.693359375" y2="-494.384765625" id="line_142" class="unconnected" />
<line x1="-85.693359375" y1="-494.384765625" x2="-105.46875" y2="-425.1708984375" id="line_143" class="unconnected" />
<line x1="-227.294921875" y1="-382.904052734375" x2="-210.9375" y2="-283.447265625" id="line_144" class="unconnected" />
<line x1="-105.46875" y1="-425.1708984375" x2="-227.294921875" y2="-382.904052734375" id="line_145" class="unconnected" />
<line x1="-105.46875" y1="-425.1708984375" x2="-46.142578125" y2="-332.8857421875" id="line_146" class="unconnected" />
<line x1="-52.734375" y1="-566.89453125" x2="-34.24072265625" y2="-441.009521484375" id="line_147" class="unconnected" />
<line x1="-19.775390625" y1="-342.7734375" x2="125.244140625" y2="-375.732421875" id="line_148" class="unconnected" />
<line x1="-34.24072265625" y1="-441.009521484375" x2="-19.775390625" y2="-342.7734375" id="line_149" class="unconnected" />
<line x1="-34.24072265625" y1="-441.009521484375" x2="32.958984375" y2="-471.3134765625" id="line_150" class="unconnected" />
<line x1="-52.734375" y1="-566.89453125" x2="59.326171875" y2="-603.1494140625" id="line_151" class="unconnected" />
<line x1="158.203125" y1="-375.732421875" x2="162.567138671875" y2="-488.1591796875" id="line_152" class="unconnected" />
<line x1="168.0908203125" y1="-629.5166015625" x2="339.4775390625" y2="-435.05859375" id="line_153" class="unconnected" />
<line x1="162.567138671875" y1="-488.1591796875" x2="168.0908203125" y2="-629.5166015625" id="line_154" class="unconnected" />
<line x1="339.4775390625" y1="-435.05859375" x2="162.567138671875" y2="-488.1591796875" id="line_155" class="unconnected" />
<line x1="329.58984375" y1="-675.6591796875" x2="349.639892578125" y2="-553.77197265625" id="line_156" class="unconnected" />
<line x1="349.639892578125" y1="-553.77197265625" x2="375.732421875" y2="-395.5078125" id="line_157" class="unconnected" />
<line x1="349.639892578125" y1="-553.77197265625" x2="441.650390625" y2="-731.689453125" id="line_158" class="unconnected" />
<line x1="349.639892578125" y1="-553.77197265625" x2="589.9658203125" y2="-398.8037109375" id="line_159" class="unconnected" />
<line x1="622.9248046875" y1="-415.283203125" x2="613.037109375" y2="-326.2939453125" id="line_160" class="unconnected" />
<line x1="286.7431640625" y1="-253.7841796875" x2="263.671875" y2="-210.9375" id="line_161" class="unconnected" />
<line x1="263.671875" y1="-210.9375" x2="273.5595703125" y2="-171.38671875" id="line_162" class="unconnected" />
<line x1="273.5595703125" y1="-171.38671875" x2="309.814453125" y2="-148.3154296875" id="line_163" class="unconnected" />
<line x1="309.814453125" y1="-148.3154296875" x2="342.7734375" y2="-148.3154296875" id="line_164" class="unconnected" />
<line x1="342.7734375" y1="-148.3154296875" x2="372.4365234375" y2="-177.978515625" id="line_165" class="unconnected" />
<line x1="372.4365234375" y1="-177.978515625" x2="355.95703125" y2="-243.896484375" id="line_166" class="unconnected" />
<line x1="355.95703125" y1="-243.896484375" x2="316.40625" y2="-266.9677734375" id="line_167" class="unconnected" />
<line x1="316.40625" y1="-266.9677734375" x2="286.7431640625" y2="-253.7841796875" id="line_168" class="unconnected" />
<line x1="395.5078125" y1="-283.447265625" x2="400.2685546875" y2="-260.711669921875" id="line_169" class="unconnected" />
<line x1="400.2685546875" y1="-260.711669921875" x2="421.875" y2="-158.203125" id="line_170" class="unconnected" />
<line x1="400.2685546875" y1="-260.711669921875" x2="425.1708984375" y2="-299.9267578125" id="line_171" class="unconnected" />
<line x1="425.1708984375" y1="-299.9267578125" x2="461.42578125" y2="-313.1103515625" id="line_172" class="unconnected" />
<line x1="514.16015625" y1="359.2529296875" x2="553.7109375" y2="266.9677734375" id="line_173" class="unconnected" />
<line x1="553.7109375" y1="266.9677734375" x2="645.99609375" y2="237.3046875" id="line_174" class="unconnected" />
<line x1="645.99609375" y1="237.3046875" x2="744.873046875" y2="322.998046875" id="line_175" class="unconnected" />
<line x1="744.873046875" y1="322.998046875" x2="715.2099609375" y2="398.8037109375" id="line_176" class="unconnected" />
<line x1="715.2099609375" y1="398.8037109375" x2="669.0673828125" y2="474.609375" id="line_177" class="unconnected" />
<line x1="669.0673828125" y1="474.609375" x2="685.546875" y2="570.1904296875" id="line_178" class="unconnected" />
<line x1="688.8427734375" y1="649.2919921875" x2="734.9853515625" y2="596.5576171875" id="line_179" class="unconnected" />
<line x1="764.6484375" y1="168.0908203125" x2="833.8623046875" y2="514.16015625" id="line_180" class="unconnected" />
<line x1="820.6787109375" y1="576.7822265625" x2="870.1171875" y2="537.2314453125" id="line_181" class="unconnected" />
<!-- end group: "border_unconnected" -->
</g>
<g id="border_plain">
<line x1="31.25" y1="-15.625" x2="0.0" y2="15.625" id="line_1" class="plain" />
<line x1="-23.4375" y1="15.625" x2="-46.875" y2="-15.625" id="line_3" class="plain" />
<line x1="78.125" y1="-117.1875" x2="78.125" y2="-23.4375" id="line_15" class="plain" />
<line x1="-78.125" y1="-23.4375" x2="-78.125" y2="-117.1875" id="line_16" class="plain" />
<line x1="93.75" y1="-148.4375" x2="93.75" y2="-156.25" id="line_23" class="plain" />
<line x1="109.375" y1="-156.25" x2="109.375" y2="-148.4375" id="line_26" class="plain" />
<line x1="117.1875" y1="-85.9375" x2="117.1875" y2="-54.6875" id="line_39" class="plain" />
<line x1="-117.1875" y1="-54.6875" x2="-117.1875" y2="-85.9375" id="line_45" class="plain" />
<!-- end group: "border_plain" -->
</g>
<g id="border_ceiling">
<line x1="109.375" y1="-85.9375" x2="109.375" y2="-54.6875" id="line_33" class="ceiling" />
<line x1="-109.375" y1="-54.6875" x2="-109.375" y2="-85.9375" id="line_36" class="ceiling" />
<!-- end group: "border_ceiling" -->
</g>
<g id="border_elevation">
<line x1="-7.8125" y1="-15.625" x2="31.25" y2="-15.625" id="line_8" class="elevation" />
<line x1="-7.8125" y1="-23.4375" x2="31.25" y2="-23.4375" id="line_10" class="elevation" />
<line x1="93.75" y1="-148.4375" x2="109.375" y2="-148.4375" id="line_25" class="elevation" />
<!-- end group: "border_elevation" -->
</g>
<g id="border_solid">
<line x1="-46.875" y1="-15.625" x2="-15.625" y2="-15.625" id="line_0" class="solid" />
<line x1="0.0" y1="15.625" x2="-23.4375" y2="15.625" id="line_2" class="solid" />
<line x1="-46.875" y1="-15.625" x2="-46.875" y2="-23.4375" id="line_4" class="solid" />
<line x1="-46.875" y1="-23.4375" x2="-15.625" y2="-23.4375" id="line_5" class="solid" />
<line x1="-15.625" y1="-15.625" x2="-7.8125" y2="-15.625" id="line_6" class="solid" />
<line x1="-15.625" y1="-23.4375" x2="-15.625" y2="-15.625" id="line_7" class="solid" />
<line x1="-7.8125" y1="-15.625" x2="-7.8125" y2="-23.4375" id="line_9" class="solid" />
<line x1="31.25" y1="-23.4375" x2="31.25" y2="-15.625" id="line_11" class="solid" />
<line x1="-7.8125" y1="-23.4375" x2="-15.625" y2="-23.4375" id="line_12" class="solid" />
<line x1="78.125" y1="-23.4375" x2="31.25" y2="-23.4375" id="line_13" class="solid" />
<line x1="-46.875" y1="-23.4375" x2="-78.125" y2="-23.4375" id="line_14" class="solid" />
<line x1="-78.125" y1="-117.1875" x2="78.125" y2="-117.1875" id="line_17" class="solid" />
<line x1="85.9375" y1="-125.0" x2="85.9375" y2="-148.4375" id="line_18" class="solid" />
<line x1="125.0" y1="-125.0" x2="85.9375" y2="-125.0" id="line_19" class="solid" />
<line x1="125.0" y1="-148.4375" x2="125.0" y2="-125.0" id="line_20" class="solid" />
<line x1="109.375" y1="-148.4375" x2="125.0" y2="-148.4375" id="line_21" class="solid" />
<line x1="85.9375" y1="-148.4375" x2="93.75" y2="-148.4375" id="line_22" class="solid" />
<line x1="93.75" y1="-156.25" x2="109.375" y2="-156.25" id="line_24" class="solid" />
<line x1="31.25" y1="-15.625" x2="46.875" y2="-15.625" id="line_27" class="solid" />
<line x1="46.875" y1="-15.625" x2="46.875" y2="15.625" id="line_28" class="solid" />
<line x1="46.875" y1="15.625" x2="0.0" y2="15.625" id="line_29" class="solid" />
<line x1="-46.875" y1="15.625" x2="-46.875" y2="-15.625" id="line_30" class="solid" />
<line x1="-23.4375" y1="15.625" x2="-46.875" y2="15.625" id="line_31" class="solid" />
<line x1="109.375" y1="-54.6875" x2="78.125" y2="-23.4375" id="line_32" class="solid" />
<line x1="78.125" y1="-117.1875" x2="109.375" y2="-85.9375" id="line_34" class="solid" />
<line x1="-109.375" y1="-85.9375" x2="-78.125" y2="-117.1875" id="line_35" class="solid" />
<line x1="-78.125" y1="-23.4375" x2="-109.375" y2="-54.6875" id="line_37" class="solid" />
<line x1="109.375" y1="-85.9375" x2="117.1875" y2="-85.9375" id="line_38" class="solid" />
<line x1="117.1875" y1="-54.6875" x2="109.375" y2="-54.6875" id="line_40" class="solid" />
<line x1="117.1875" y1="-85.9375" x2="453.125" y2="-85.9375" id="line_41" class="solid" />
<line x1="429.6875" y1="-54.6875" x2="117.1875" y2="-54.6875" id="line_42" class="solid" />
<line x1="453.125" y1="-85.9375" x2="429.6875" y2="-54.6875" id="line_43" class="solid" />
<line x1="-109.375" y1="-54.6875" x2="-117.1875" y2="-54.6875" id="line_44" class="solid" />
<line x1="-117.1875" y1="-85.9375" x2="-109.375" y2="-85.9375" id="line_46" class="solid" />
<line x1="-414.0625" y1="-85.9375" x2="-117.1875" y2="-85.9375" id="line_47" class="solid" />
<line x1="-117.1875" y1="-54.6875" x2="-382.8125" y2="-54.6875" id="line_48" class="solid" />
<line x1="-382.8125" y1="-54.6875" x2="-414.0625" y2="-85.9375" id="line_49" class="solid" />
<!-- end group: "border_solid" -->
</g>
<!-- end group: "borders" -->
</g>
<g id="panel_platform_switch_lines">
<g id="panel_platform_switch_lines_s4">
<g id="panel_platform_switch_line_group_poly_s4_p1">
<line x1="101.5625" y1="-156.25" x2="-31.25" y2="-19.53125" id="panel_platform_switch_border_s4_p1" class="platform_switch_border" />
<use xlink:href="../resources/svg/common.svg#arrow" x="-31.25" y="-19.53125" id="panel_platform_switch_head_s4_p1" class="platform_switch_line" transform="rotate(134.169684513742 -31.25 -19.53125)" />
<line x1="101.5625" y1="-156.25" x2="-31.25" y2="-19.53125" id="panel_platform_switch_line_s4_p1" class="platform_switch_line" />
<!-- end group: "panel_platform_switch_line_group_poly_s4_p1" -->
</g>
<!-- end group: "panel_platform_switch_lines_s4" -->
</g>
<!-- end group: "panel_platform_switch_lines" -->
</g>
<g id="objects">
<g id="objects_sound">
<use xlink:href="../resources/svg/common.svg#sound" x="10.92529296875" y="-30.57861328125" id="object_33" class="sound sound-7" />
<!-- end group: "objects_sound" -->
</g>
<g id="objects_object">
<use xlink:href="../resources/svg/common.svg#object" x="129.8828125" y="-70.3125" id="object_20" class="object object-28" />
<use xlink:href="../resources/svg/common.svg#object" x="-127.9296875" y="-71.2890625" id="object_21" class="object object-28" />
<use xlink:href="../resources/svg/common.svg#object" x="27.4658203125" y="-1.64794921875" id="object_22" class="object object-35" />
<use xlink:href="../resources/svg/common.svg#object" x="-20.050048828125" y="10.711669921875" id="object_23" class="object object-35" />
<use xlink:href="../resources/svg/common.svg#object" x="-25.543212890625" y="-8.514404296875" id="object_24" class="object object-35" />
<use xlink:href="../resources/svg/common.svg#object" x="0.274658203125" y="-10.162353515625" id="object_25" class="object object-35" />
<use xlink:href="../resources/svg/common.svg#object" x="19.775390625" y="-21.697998046875" id="object_26" class="object object-35" />
<use xlink:href="../resources/svg/common.svg#object" x="27.4658203125" y="10.43701171875" id="object_27" class="object object-34" />
<use xlink:href="../resources/svg/common.svg#object" x="37.078857421875" y="2.197265625" id="object_28" class="object object-34" />
<use xlink:href="../resources/svg/common.svg#object" x="6.04248046875" y="3.84521484375" id="object_29" class="object object-34" />
<use xlink:href="../resources/svg/common.svg#object" x="-18.951416015625" y="-6.04248046875" id="object_30" class="object object-34" />
<use xlink:href="../resources/svg/common.svg#object" x="-40.6494140625" y="8.23974609375" id="object_31" class="object object-34" />
<use xlink:href="../resources/svg/common.svg#object" x="0.0" y="-19.500732421875" id="object_32" class="object object-34" />
<!-- end group: "objects_object" -->
</g>
<g id="objects_monster">
<use xlink:href="../resources/svg/common.svg#monster" x="-11.1083984375" y="-37.384033203125" id="object_1" class="monster monster-26" transform="rotate(270.0 -11.1083984375 -37.384033203125)" />
<use xlink:href="../resources/svg/common.svg#monster" x="-53.192138671875" y="-38.87939453125" id="object_2" class="monster monster-26" transform="rotate(270.0 -53.192138671875 -38.87939453125)" />
<use xlink:href="../resources/svg/common.svg#monster" x="17.2119140625" y="-106.5673828125" id="object_3" class="monster monster-12" transform="rotate(122.34375 17.2119140625 -106.5673828125)" />
<use xlink:href="../resources/svg/common.svg#monster" x="-49.346923828125" y="-106.38427734375" id="object_4" class="monster monster-12" transform="rotate(60.46875 -49.346923828125 -106.38427734375)" />
<use xlink:href="../resources/svg/common.svg#monster" x="18.85986328125" y="-30.364990234375" id="object_5" class="monster monster-13" transform="rotate(195.46875 18.85986328125 -30.364990234375)" />
<use xlink:href="../resources/svg/common.svg#monster" x="-1.495361328125" y="-85.357666015625" id="object_6" class="monster monster-13" transform="rotate(96.328125 -1.495361328125 -85.357666015625)" />
<use xlink:href="../resources/svg/common.svg#monster" x="61.676025390625" y="-104.30908203125" id="object_7" class="monster monster-14" transform="rotate(155.390625 61.676025390625 -104.30908203125)" />
<use xlink:href="../resources/svg/common.svg#monster" x="-377.471923828125" y="-68.115234375" id="object_15" class="monster monster-8" transform="rotate(347.34375 -377.471923828125 -68.115234375)" />
<use xlink:href="../resources/svg/common.svg#monster" x="-345.306396484375" y="-63.385009765625" id="object_16" class="monster monster-9" transform="rotate(346.640625 -345.306396484375 -63.385009765625)" />
<use xlink:href="../resources/svg/common.svg#monster" x="388.824462890625" y="-72.845458984375" id="object_17" class="monster monster-9" transform="rotate(174.375 388.824462890625 -72.845458984375)" />
<use xlink:href="../resources/svg/common.svg#monster" x="365.17333984375" y="-63.385009765625" id="object_18" class="monster monster-8" transform="rotate(173.671875 365.17333984375 -63.385009765625)" />
<use xlink:href="../resources/svg/common.svg#monster" x="420.989990234375" y="-70.953369140625" id="object_19" class="monster monster-11" transform="rotate(171.5625 420.989990234375 -70.953369140625)" />
<!-- end group: "objects_monster" -->
</g>
<g id="objects_player">
<use xlink:href="../resources/svg/common.svg#monster" x="-34.820556640625" y="-6.40869140625" id="object_0" class="player" />
<use xlink:href="../resources/svg/common.svg#monster" x="-31.18896484375" y="9.3994140625" id="object_8" class="player" transform="rotate(303.75 -31.18896484375 9.3994140625)" />
<use xlink:href="../resources/svg/common.svg#monster" x="-13.671875" y="-5.9814453125" id="object_9" class="player" />
<use xlink:href="../resources/svg/common.svg#monster" x="-5.126953125" y="8.544921875" id="object_10" class="player" transform="rotate(284.765625 -5.126953125 8.544921875)" />
<use xlink:href="../resources/svg/common.svg#monster" x="11.53564453125" y="-6.40869140625" id="object_11" class="player" transform="rotate(241.875 11.53564453125 -6.40869140625)" />
<use xlink:href="../resources/svg/common.svg#monster" x="17.9443359375" y="9.82666015625" id="object_12" class="player" transform="rotate(289.6875 17.9443359375 9.82666015625)" />
<use xlink:href="../resources/svg/common.svg#monster" x="35.888671875" y="-6.8359375" id="object_13" class="player" transform="rotate(172.96875 35.888671875 -6.8359375)" />
<use xlink:href="../resources/svg/common.svg#monster" x="35.888671875" y="8.97216796875" id="object_14" class="player" transform="rotate(234.84375 35.888671875 8.97216796875)" />
<!-- end group: "objects_player" -->
</g>
<!-- end group: "objects" -->
</g>
<g id="panels">
<use xlink:href="../resources/svg/common.svg#panel" x="101.5625" y="-156.25" id="side_4" class="panel-platform_switch" onmouseover="m_over('side_4');" onmouseout="m_out('side_4');" />
<!-- end group: "panels" -->
</g>

<script xlink:href="../resources/js/level.js" ></script>
</svg>