<?xml version="1.0" encoding="UTF-8"?>
<!-- generated by map2svg: github.com/fracai/marathon-svg -->
<svg xmlns="http://www.w3.org/2000/svg" xmlns:xlink="http://www.w3.org/1999/xlink" version="1.1"
    viewBox="-531.25 -406.25 1062.5 937.5">
<link xmlns="http://www.w3.org/1999/xhtml" rel="stylesheet" href="../resources/css/styles.css" type="text/css" />
<style id="dynamic-style" />
<g id="background-grid">
<defs>
<pattern id="grid_minor" width="3.125" height="3.125" patternUnits="userSpaceOnUse">
<path d="M 3.125 0 L 0 0 0 3.125" fill="none" class="grid_minor" />
</pattern>
<pattern id="grid_major" width="31.25" height="31.25" patternUnits="userSpaceOnUse">
<rect width="31.25" height="31.25" fill="url(#grid_minor)"/>
<path d="M 31.25 0 L 0 0 0 31.25" fill="none" class="grid_major" />
</pattern>
</defs>
<rect x="-1000" y="-1000" width="2000" height="2000" fill="url(#grid_major)" />
<line x1="0" y1="1000" x2="0" y2="-1000" class="grid_origin" />
<line x1="1000" y1="0" x2="-1000" y2="0" class="grid_origin" />
<!-- end group: "background-grid" -->
</g>
<g id="polygons">
<polygon points="-62.5,62.5 -31.25,31.25 31.25,31.25 62.5,62.5 62.5,93.75 31.25,125.0 -31.25,125.0 -62.5,93.75" id="poly_20" class="hill" />
<polygon points="158.203125,-173.828125 298.828125,-48.828125 62.5,62.5 31.25,31.25" id="poly_0" class="plain" />
<polygon points="-158.203125,-173.828125 158.203125,-173.828125 31.25,31.25 -31.25,31.25" id="poly_2" class="plain" />
<polygon points="-298.828125,-64.453125 -62.5,62.5 -62.5,93.75 -298.828125,188.4765625" id="poly_3" class="plain" />
<polygon points="-31.25,125.0 31.25,125.0 158.203125,297.8515625 -157.2265625,297.8515625" id="poly_4" class="plain" />
<polygon points="62.5,93.75 62.5,62.5 298.828125,-48.828125 298.828125,189.453125" id="poly_5" class="plain" />
<polygon points="-171.875,-203.125 171.875,-203.125 158.203125,-173.828125 -158.203125,-173.828125" id="poly_8" class="platform" />
<polygon points="-157.2265625,297.8515625 158.203125,297.8515625 171.875,328.125 -171.875,328.125" id="poly_9" class="platform" />
<polygon points="31.25,125.0 62.5,93.75 298.828125,189.453125 158.203125,297.8515625" id="poly_10" class="plain" />
<polygon points="298.828125,-48.828125 328.125,-62.5 328.125,203.125 298.828125,189.453125" id="poly_12" class="platform" />
<polygon points="-328.125,-78.125 -298.828125,-64.453125 -298.828125,188.4765625 -328.125,203.125" id="poly_13" class="platform" />
<polygon points="-298.828125,-64.453125 -158.203125,-173.828125 -31.25,31.25 -62.5,62.5" id="poly_14" class="plain" />
<polygon points="-62.5,93.75 -31.25,125.0 -157.2265625,297.8515625 -298.828125,188.4765625" id="poly_15" class="plain" />
<polygon points="319.82421875,288.57421875 343.75,312.5 312.5,343.75 288.0859375,319.3359375" id="poly_22" class="plain" />
<polygon points="290.0390625,-196.533203125 312.5,-218.75 343.75,-187.5 321.533203125,-165.283203125" id="poly_26" class="plain" />
<polygon points="-343.75,312.5 -323.54736328125,292.266845703125 -291.9921875,323.333740234375 -312.5,343.75" id="poly_38" class="plain" />
<polygon points="-312.5,-218.75 -288.421630859375,-194.39697265625 -319.366455078125,-163.055419921875 -343.75,-187.5" id="poly_40" class="plain" />
<polygon points="312.5,281.25 319.82421875,288.57421875 288.0859375,319.3359375 281.25,312.5" id="poly_21" class="plain" />
<polygon points="281.25,-187.5 290.0390625,-196.533203125 321.533203125,-165.283203125 312.5,-156.25" id="poly_25" class="plain" />
<polygon points="-323.54736328125,292.266845703125 -312.5,281.25 -281.25,312.5 -291.9921875,323.333740234375" id="poly_37" class="plain" />
<polygon points="-288.421630859375,-194.39697265625 -281.25,-187.5 -312.5,-156.25 -319.366455078125,-163.055419921875" id="poly_39" class="plain" />
<polygon points="312.5,-281.25 368.5302734375,-255.9814453125 385.589599609375,-239.715576171875 406.25,-187.5 343.75,-187.5 312.5,-218.75" id="poly_41" class="plain" />
<polygon points="312.5,-281.25 395.721435546875,-316.619873046875 412.445068359375,-299.896240234375 368.5302734375,-255.9814453125" id="poly_42" class="plain" />
<polygon points="450.98876953125,-305.7861328125 500.0,-343.75 500.0,-281.25 406.25,-187.5 385.589599609375,-239.715576171875" id="poly_43" class="plain" />
<polygon points="468.75,-375.0 500.0,-343.75 450.98876953125,-305.7861328125 434.661865234375,-322.113037109375" id="poly_44" class="plain" />
<polygon points="406.25,-375.0 468.75,-375.0 434.661865234375,-322.113037109375 401.611328125,-322.509765625" id="poly_45" class="plain" />
<polygon points="406.25,-375.0 401.611328125,-322.509765625 395.721435546875,-316.619873046875 312.5,-281.25" id="poly_46" class="plain" />
<polygon points="395.721435546875,-316.619873046875 401.611328125,-322.509765625 434.661865234375,-322.113037109375 412.445068359375,-299.896240234375" id="poly_47" class="plain" />
<polygon points="412.445068359375,-299.896240234375 434.661865234375,-322.113037109375 450.98876953125,-305.7861328125 385.589599609375,-239.715576171875 368.5302734375,-255.9814453125" id="poly_48" class="plain" />
<polygon points="-406.25,-375.0 -365.203857421875,-333.953857421875 -386.474609375,-311.187744140625 -402.77099609375,-327.5146484375" id="poly_49" class="plain" />
<polygon points="-468.75,-375.0 -406.25,-375.0 -402.77099609375,-327.5146484375 -435.821533203125,-327.056884765625" id="poly_50" class="plain" />
<polygon points="-500.0,-343.75 -468.75,-375.0 -435.821533203125,-327.056884765625 -452.117919921875,-310.821533203125" id="poly_51" class="plain" />
<polygon points="-500.0,-343.75 -452.117919921875,-310.821533203125 -452.57568359375,-277.77099609375 -500.0,-281.25" id="poly_52" class="plain" />
<polygon points="-402.83203125,-227.935791015625 -353.02734375,-277.679443359375 -312.5,-281.25 -312.5,-218.75 -343.75,-187.5 -406.25,-187.5" id="poly_53" class="plain" />
<polygon points="-368.865966796875,-293.548583984375 -365.203857421875,-333.953857421875 -312.5,-281.25 -353.02734375,-277.679443359375" id="poly_54" class="plain" />
<polygon points="-386.474609375,-311.187744140625 -365.203857421875,-333.953857421875 -368.865966796875,-293.548583984375 -396.728515625,-265.5029296875" id="poly_55" class="plain" />
<polygon points="-408.203125,-299.407958984375 -386.474609375,-311.187744140625 -396.728515625,-265.5029296875 -417.48046875,-244.140625" id="poly_56" class="plain" />
<polygon points="-429.931640625,-288.63525390625 -424.1943359375,-283.203125 -440.0634765625,-266.11328125 -452.57568359375,-277.77099609375" id="poly_57" class="plain" />
<polygon points="-452.117919921875,-310.821533203125 -429.931640625,-299.49951171875 -429.931640625,-288.63525390625 -452.57568359375,-277.77099609375" id="poly_58" class="plain" />
<polygon points="-452.117919921875,-310.821533203125 -435.821533203125,-327.056884765625 -424.49951171875,-304.87060546875 -429.931640625,-299.49951171875" id="poly_59" class="plain" />
<polygon points="-435.821533203125,-327.056884765625 -402.77099609375,-327.5146484375 -413.63525390625,-304.87060546875 -424.49951171875,-304.87060546875" id="poly_60" class="plain" />
<polygon points="-402.77099609375,-327.5146484375 -386.474609375,-311.187744140625 -408.203125,-299.407958984375 -413.63525390625,-304.87060546875" id="poly_61" class="plain" />
<polygon points="-429.931640625,-299.49951171875 -424.49951171875,-304.87060546875 -413.63525390625,-304.87060546875 -408.203125,-299.407958984375 -424.1943359375,-283.203125 -429.931640625,-288.63525390625" id="poly_62" class="plain" />
<polygon points="-396.728515625,-265.5029296875 -368.865966796875,-293.548583984375 -353.02734375,-277.679443359375 -402.83203125,-227.935791015625 -417.48046875,-244.140625" id="poly_63" class="plain" />
<polygon points="-440.0634765625,-266.11328125 -424.1943359375,-283.203125 -408.203125,-299.407958984375 -417.48046875,-244.140625" id="poly_64" class="plain" />
<polygon points="-500.0,-281.25 -452.57568359375,-277.77099609375 -440.0634765625,-266.11328125 -417.48046875,-244.140625 -402.83203125,-227.935791015625 -406.25,-187.5" id="poly_65" class="plain" />
<polygon points="-406.25,312.5 -414.764404296875,361.968994140625 -425.1708984375,372.37548828125 -438.720703125,385.92529296875 -448.66943359375,395.8740234375 -500.0,406.25" id="poly_66" class="plain" />
<polygon points="-406.25,312.5 -343.75,312.5 -383.087158203125,361.968994140625 -414.764404296875,361.968994140625" id="poly_67" class="plain" />
<polygon points="-343.75,312.5 -312.5,343.75 -366.8212890625,378.23486328125 -383.087158203125,361.968994140625" id="poly_68" class="plain" />
<polygon points="-366.8212890625,378.23486328125 -312.5,343.75 -312.5,406.25 -366.39404296875,412.17041015625" id="poly_69" class="plain" />
<polygon points="-366.39404296875,412.17041015625 -312.5,406.25 -406.25,500.0 -398.49853515625,444.27490234375 -388.5498046875,434.326171875 -376.3427734375,422.119140625" id="poly_70" class="plain" />
<polygon points="-432.403564453125,443.817138671875 -398.49853515625,444.27490234375 -406.25,500.0 -468.75,500.0" id="poly_71" class="plain" />
<polygon points="-448.211669921875,428.009033203125 -432.403564453125,443.817138671875 -468.75,500.0 -500.0,468.75" id="poly_72" class="plain" />
<polygon points="-500.0,406.25 -448.66943359375,395.8740234375 -448.211669921875,428.009033203125 -500.0,468.75" id="poly_73" class="plain" />
<polygon points="-404.815673828125,418.060302734375 -392.608642578125,405.853271484375 -376.3427734375,422.119140625 -388.5498046875,434.326171875" id="poly_74" class="plain" />
<polygon points="-410.21728515625,423.4619140625 -404.815673828125,418.060302734375 -388.5498046875,434.326171875 -398.49853515625,444.27490234375" id="poly_75" class="plain" />
<polygon points="-421.539306640625,423.004150390625 -410.21728515625,423.4619140625 -398.49853515625,444.27490234375 -432.403564453125,443.817138671875" id="poly_76" class="plain" />
<polygon points="-448.211669921875,428.009033203125 -427.398681640625,417.144775390625 -421.539306640625,423.004150390625 -432.403564453125,443.817138671875" id="poly_77" class="plain" />
<polygon points="-448.66943359375,395.8740234375 -426.94091796875,406.73828125 -427.398681640625,417.144775390625 -448.211669921875,428.009033203125" id="poly_78" class="plain" />
<polygon points="-438.720703125,385.92529296875 -421.08154296875,389.09912109375 -421.539306640625,401.336669921875 -426.94091796875,406.73828125 -448.66943359375,395.8740234375" id="poly_79" class="plain" />
<polygon points="-425.1708984375,372.37548828125 -421.08154296875,389.09912109375 -438.720703125,385.92529296875" id="poly_80" class="plain" />
<polygon points="-425.1708984375,372.37548828125 -414.764404296875,361.968994140625 -403.4423828125,383.23974609375 -409.332275390625,389.129638671875 -421.08154296875,389.09912109375" id="poly_81" class="plain" />
<polygon points="-414.764404296875,361.968994140625 -383.087158203125,361.968994140625 -393.951416015625,382.781982421875 -403.4423828125,383.23974609375" id="poly_82" class="plain" />
<polygon points="-383.087158203125,361.968994140625 -366.8212890625,378.23486328125 -388.092041015625,388.641357421875 -393.951416015625,382.781982421875" id="poly_83" class="plain" />
<polygon points="-388.092041015625,388.641357421875 -366.8212890625,378.23486328125 -366.39404296875,412.17041015625 -387.63427734375,400.87890625" id="poly_84" class="plain" />
<polygon points="-392.608642578125,405.853271484375 -387.63427734375,400.87890625 -366.39404296875,412.17041015625 -376.3427734375,422.119140625" id="poly_85" class="plain" />
<polygon points="-409.332275390625,389.129638671875 -403.4423828125,383.23974609375 -393.951416015625,382.781982421875 -388.092041015625,388.641357421875 -387.63427734375,400.87890625 -392.608642578125,405.853271484375 -403.9306640625,401.79443359375" id="poly_86" class="plain" />
<polygon points="-408.87451171875,406.73828125 -403.9306640625,401.79443359375 -392.608642578125,405.853271484375 -404.815673828125,418.060302734375" id="poly_87" class="plain" />
<polygon points="-421.539306640625,401.336669921875 -421.08154296875,389.09912109375 -409.332275390625,389.129638671875 -403.9306640625,401.79443359375 -408.87451171875,406.73828125" id="poly_88" class="plain" />
<polygon points="-426.94091796875,406.73828125 -421.539306640625,401.336669921875 -408.87451171875,406.73828125 -404.815673828125,418.060302734375 -410.21728515625,423.4619140625 -421.539306640625,423.004150390625 -427.398681640625,417.144775390625" id="poly_89" class="plain" />
<polygon points="312.5,343.75 343.75,312.5 374.237060546875,370.7275390625 357.97119140625,387.02392578125 312.5,406.25" id="poly_90" class="plain" />
<polygon points="343.75,312.5 406.25,312.5 417.694091796875,358.94775390625 390.106201171875,386.566162109375 374.237060546875,370.7275390625" id="poly_91" class="plain" />
<polygon points="357.97119140625,387.02392578125 373.84033203125,402.862548828125 362.518310546875,414.1845703125 331.451416015625,425.201416015625 312.5,406.25" id="poly_92" class="plain" />
<polygon points="357.97119140625,387.02392578125 374.237060546875,370.7275390625 390.106201171875,386.566162109375 373.84033203125,402.862548828125" id="poly_93" class="plain" />
<polygon points="331.451416015625,425.201416015625 362.518310546875,414.1845703125 379.2724609375,430.908203125 406.25,500.0" id="poly_94" class="plain" />
<polygon points="362.518310546875,414.1845703125 373.84033203125,402.862548828125 390.594482421875,419.586181640625 379.2724609375,430.908203125" id="poly_95" class="plain" />
<polygon points="373.84033203125,402.862548828125 390.106201171875,386.566162109375 406.8603515625,403.289794921875 390.594482421875,419.586181640625" id="poly_96" class="plain" />
<polygon points="390.106201171875,386.566162109375 417.694091796875,358.94775390625 433.990478515625,375.213623046875 418.15185546875,391.998291015625 406.8603515625,403.289794921875" id="poly_97" class="plain" />
<polygon points="406.25,312.5 452.667236328125,358.917236328125 433.990478515625,375.213623046875 417.694091796875,358.94775390625" id="poly_98" class="plain" />
<polygon points="500.0,406.25 500.0,468.75 468.75,500.0 423.64501953125,452.606201171875 439.483642578125,436.767578125" id="poly_99" class="plain" />
<polygon points="390.594482421875,419.586181640625 406.8603515625,403.289794921875 423.583984375,420.013427734375 439.483642578125,436.767578125 423.64501953125,452.606201171875" id="poly_100" class="plain" />
<polygon points="433.990478515625,375.213623046875 452.667236328125,358.917236328125 500.0,406.25 439.483642578125,436.767578125" id="poly_101" class="plain" />
<polygon points="418.15185546875,391.998291015625 433.990478515625,375.213623046875 439.483642578125,436.767578125 423.583984375,420.013427734375" id="poly_102" class="plain" />
<polygon points="406.8603515625,403.289794921875 418.15185546875,391.998291015625 423.583984375,420.013427734375" id="poly_103" class="plain" />
<polygon points="379.2724609375,430.908203125 390.594482421875,419.586181640625 423.64501953125,452.606201171875 468.75,500.0 406.25,500.0" id="poly_104" class="plain" />
<polygon points="-218.75,-250.0 218.75,-250.0 171.875,-203.125 -171.875,-203.125" id="poly_1" class="plain" />
<polygon points="328.125,-62.5 375.0,-93.75 375.0,218.75 328.125,203.125" id="poly_6" class="plain" />
<polygon points="-171.875,328.125 171.875,328.125 218.75,375.0 -218.75,375.0" id="poly_7" class="plain" />
<polygon points="-375.0,-93.75 -328.125,-78.125 -328.125,203.125 -375.0,218.75" id="poly_11" class="plain" />
<polygon points="-312.5,281.25 -375.0,218.75 -328.125,203.125 -171.875,328.125 -218.75,375.0 -281.25,312.5" id="poly_16" class="plain" />
<polygon points="328.125,203.125 375.0,218.75 312.5,281.25 281.25,312.5 218.75,375.0 171.875,328.125" id="poly_17" class="plain" />
<polygon points="171.875,-203.125 218.75,-250.0 281.25,-187.5 312.5,-156.25 375.0,-93.75 328.125,-62.5" id="poly_18" class="plain" />
<polygon points="-281.25,-187.5 -218.75,-250.0 -171.875,-203.125 -328.125,-78.125 -375.0,-93.75 -312.5,-156.25" id="poly_19" class="plain" />
<polygon points="375.0,218.75 391.6015625,234.375 344.7265625,281.25 312.5,281.25" id="poly_23" class="plain" />
<polygon points="375.0,-93.75 394.53125,-76.171875 390.625,203.125 375.0,218.75" id="poly_24" class="plain" />
<polygon points="312.5,-156.25 336.181640625,-146.484375 382.32421875,-112.79296875 375.0,-93.75" id="poly_27" class="plain" />
<polygon points="281.25,312.5 283.203125,351.5625 253.90625,382.8125 218.75,375.0" id="poly_28" class="plain" />
<polygon points="-218.75,375.0 218.75,375.0 224.609375,416.015625 -175.78125,414.0625" id="poly_29" class="plain" />
<polygon points="-279.296875,351.5625 -281.25,312.5 -218.75,375.0 -246.09375,394.53125" id="poly_30" class="plain" />
<polygon points="-376.953125,255.859375 -375.0,218.75 -312.5,281.25 -355.46875,281.25" id="poly_31" class="plain" />
<polygon points="-404.296875,-66.40625 -375.0,-93.75 -375.0,218.75 -404.296875,205.078125" id="poly_32" class="plain" />
<polygon points="-376.953125,-136.71875 -312.5,-156.25 -375.0,-93.75 -394.53125,-121.09375" id="poly_33" class="plain" />
<polygon points="-263.671875,-250.0 -218.75,-250.0 -281.25,-187.5 -279.296875,-226.5625" id="poly_34" class="plain" />
<polygon points="-203.125,-275.390625 191.40625,-281.25 218.75,-250.0 -218.75,-250.0" id="poly_35" class="plain" />
<polygon points="218.75,-250.0 240.234375,-261.71875 281.25,-220.703125 281.25,-187.5" id="poly_36" class="plain" />
<!-- end group: "polygons" -->
</g>
<g id="borders">
<g id="border_landscape_">
<line x1="375.0" y1="218.75" x2="312.5" y2="281.25" id="line_12" class="landscape_" />
<line x1="-218.75" y1="375.0" x2="-281.25" y2="312.5" id="line_13" class="landscape_" />
<line x1="-375.0" y1="-93.75" x2="-312.5" y2="-156.25" id="line_14" class="landscape_" />
<line x1="218.75" y1="-250.0" x2="281.25" y2="-187.5" id="line_24" class="landscape_" />
<line x1="-218.75" y1="-250.0" x2="218.75" y2="-250.0" id="line_40" class="landscape_" />
<line x1="375.0" y1="-93.75" x2="375.0" y2="218.75" id="line_45" class="landscape_" />
<line x1="218.75" y1="375.0" x2="-218.75" y2="375.0" id="line_46" class="landscape_" />
<line x1="-375.0" y1="218.75" x2="-375.0" y2="-93.75" id="line_49" class="landscape_" />
<line x1="-312.5" y1="281.25" x2="-375.0" y2="218.75" id="line_55" class="landscape_" />
<line x1="-281.25" y1="312.5" x2="-312.5" y2="281.25" id="line_56" class="landscape_" />
<line x1="312.5" y1="281.25" x2="281.25" y2="312.5" id="line_67" class="landscape_" />
<line x1="281.25" y1="312.5" x2="218.75" y2="375.0" id="line_69" class="landscape_" />
<line x1="281.25" y1="-187.5" x2="312.5" y2="-156.25" id="line_79" class="landscape_" />
<line x1="312.5" y1="-156.25" x2="375.0" y2="-93.75" id="line_81" class="landscape_" />
<line x1="-281.25" y1="-187.5" x2="-218.75" y2="-250.0" id="line_90" class="landscape_" />
<line x1="-312.5" y1="-156.25" x2="-281.25" y2="-187.5" id="line_92" class="landscape_" />
<!-- end group: "border_landscape_" -->
</g>
<g id="border_plain">
<line x1="218.75" y1="-250.0" x2="171.875" y2="-203.125" id="line_15" class="plain" />
<line x1="-171.875" y1="-203.125" x2="-218.75" y2="-250.0" id="line_16" class="plain" />
<line x1="-375.0" y1="-93.75" x2="-328.125" y2="-78.125" id="line_17" class="plain" />
<line x1="-328.125" y1="203.125" x2="-375.0" y2="218.75" id="line_18" class="plain" />
<line x1="-218.75" y1="375.0" x2="-171.875" y2="328.125" id="line_19" class="plain" />
<line x1="171.875" y1="328.125" x2="218.75" y2="375.0" id="line_20" class="plain" />
<line x1="375.0" y1="218.75" x2="328.125" y2="203.125" id="line_21" class="plain" />
<line x1="328.125" y1="-62.5" x2="375.0" y2="-93.75" id="line_22" class="plain" />
<line x1="-31.25" y1="31.25" x2="-158.203125" y2="-173.828125" id="line_25" class="plain" />
<line x1="31.25" y1="31.25" x2="158.203125" y2="-173.828125" id="line_26" class="plain" />
<line x1="298.828125" y1="-48.828125" x2="62.5" y2="62.5" id="line_27" class="plain" />
<line x1="298.828125" y1="189.453125" x2="62.5" y2="93.75" id="line_28" class="plain" />
<line x1="-157.2265625" y1="297.8515625" x2="-31.25" y2="125.0" id="line_29" class="plain" />
<line x1="-62.5" y1="93.75" x2="-298.828125" y2="188.4765625" id="line_30" class="plain" />
<line x1="-298.828125" y1="-64.453125" x2="-62.5" y2="62.5" id="line_31" class="plain" />
<line x1="31.25" y1="125.0" x2="158.203125" y2="297.8515625" id="line_47" class="plain" />
<line x1="375.0" y1="218.75" x2="391.6015625" y2="234.375" id="line_107" class="plain" />
<line x1="390.625" y1="203.125" x2="375.0" y2="218.75" id="line_108" class="plain" />
<line x1="375.0" y1="-93.75" x2="394.53125" y2="-76.171875" id="line_109" class="plain" />
<line x1="394.53125" y1="-76.171875" x2="390.625" y2="203.125" id="line_110" class="plain" />
<line x1="312.5" y1="-156.25" x2="336.181640625" y2="-146.484375" id="line_115" class="plain" />
<line x1="336.181640625" y1="-146.484375" x2="382.32421875" y2="-112.79296875" id="line_116" class="plain" />
<line x1="382.32421875" y1="-112.79296875" x2="375.0" y2="-93.75" id="line_117" class="plain" />
<line x1="281.25" y1="-220.703125" x2="281.25" y2="-187.5" id="line_118" class="plain" />
<line x1="240.234375" y1="-261.71875" x2="281.25" y2="-220.703125" id="line_119" class="plain" />
<line x1="218.75" y1="-250.0" x2="240.234375" y2="-261.71875" id="line_120" class="plain" />
<line x1="191.40625" y1="-281.25" x2="218.75" y2="-250.0" id="line_121" class="plain" />
<line x1="-203.125" y1="-275.390625" x2="191.40625" y2="-281.25" id="line_122" class="plain" />
<line x1="-218.75" y1="-250.0" x2="-203.125" y2="-275.390625" id="line_123" class="plain" />
<line x1="-263.671875" y1="-250.0" x2="-218.75" y2="-250.0" id="line_124" class="plain" />
<line x1="-279.296875" y1="-226.5625" x2="-263.671875" y2="-250.0" id="line_125" class="plain" />
<line x1="-281.25" y1="-187.5" x2="-279.296875" y2="-226.5625" id="line_126" class="plain" />
<line x1="-376.953125" y1="-136.71875" x2="-312.5" y2="-156.25" id="line_127" class="plain" />
<line x1="-394.53125" y1="-121.09375" x2="-376.953125" y2="-136.71875" id="line_128" class="plain" />
<line x1="-375.0" y1="-93.75" x2="-394.53125" y2="-121.09375" id="line_129" class="plain" />
<line x1="-404.296875" y1="-66.40625" x2="-375.0" y2="-93.75" id="line_130" class="plain" />
<line x1="-404.296875" y1="205.078125" x2="-404.296875" y2="-66.40625" id="line_131" class="plain" />
<line x1="-375.0" y1="218.75" x2="-404.296875" y2="205.078125" id="line_132" class="plain" />
<line x1="-376.953125" y1="255.859375" x2="-375.0" y2="218.75" id="line_133" class="plain" />
<line x1="-355.46875" y1="281.25" x2="-376.953125" y2="255.859375" id="line_134" class="plain" />
<line x1="-312.5" y1="281.25" x2="-355.46875" y2="281.25" id="line_135" class="plain" />
<line x1="-279.296875" y1="351.5625" x2="-281.25" y2="312.5" id="line_136" class="plain" />
<line x1="-246.09375" y1="394.53125" x2="-279.296875" y2="351.5625" id="line_137" class="plain" />
<line x1="-218.75" y1="375.0" x2="-246.09375" y2="394.53125" id="line_138" class="plain" />
<line x1="-175.78125" y1="414.0625" x2="-218.75" y2="375.0" id="line_139" class="plain" />
<line x1="224.609375" y1="416.015625" x2="-175.78125" y2="414.0625" id="line_140" class="plain" />
<line x1="218.75" y1="375.0" x2="224.609375" y2="416.015625" id="line_141" class="plain" />
<line x1="253.90625" y1="382.8125" x2="218.75" y2="375.0" id="line_142" class="plain" />
<line x1="283.203125" y1="351.5625" x2="253.90625" y2="382.8125" id="line_143" class="plain" />
<line x1="281.25" y1="312.5" x2="283.203125" y2="351.5625" id="line_144" class="plain" />
<line x1="368.5302734375" y1="-255.9814453125" x2="385.589599609375" y2="-239.715576171875" id="line_152" class="plain" />
<line x1="385.589599609375" y1="-239.715576171875" x2="450.98876953125" y2="-305.7861328125" id="line_153" class="plain" />
<line x1="412.445068359375" y1="-299.896240234375" x2="368.5302734375" y2="-255.9814453125" id="line_154" class="plain" />
<line x1="450.98876953125" y1="-305.7861328125" x2="434.661865234375" y2="-322.113037109375" id="line_155" class="plain" />
<line x1="434.661865234375" y1="-322.113037109375" x2="401.611328125" y2="-322.509765625" id="line_156" class="plain" />
<line x1="401.611328125" y1="-322.509765625" x2="395.721435546875" y2="-316.619873046875" id="line_157" class="plain" />
<line x1="434.661865234375" y1="-322.113037109375" x2="412.445068359375" y2="-299.896240234375" id="line_158" class="plain" />
<line x1="395.721435546875" y1="-316.619873046875" x2="412.445068359375" y2="-299.896240234375" id="line_159" class="plain" />
<line x1="-440.0634765625" y1="-266.11328125" x2="-452.57568359375" y2="-277.77099609375" id="line_160" class="plain" />
<line x1="-452.117919921875" y1="-310.821533203125" x2="-452.57568359375" y2="-277.77099609375" id="line_161" class="plain" />
<line x1="-435.821533203125" y1="-327.056884765625" x2="-452.117919921875" y2="-310.821533203125" id="line_162" class="plain" />
<line x1="-424.1943359375" y1="-283.203125" x2="-440.0634765625" y2="-266.11328125" id="line_163" class="plain" />
<line x1="-402.77099609375" y1="-327.5146484375" x2="-435.821533203125" y2="-327.056884765625" id="line_164" class="plain" />
<line x1="-386.474609375" y1="-311.187744140625" x2="-402.77099609375" y2="-327.5146484375" id="line_165" class="plain" />
<line x1="-408.203125" y1="-299.407958984375" x2="-413.63525390625" y2="-304.87060546875" id="line_166" class="plain" />
<line x1="-413.63525390625" y1="-304.87060546875" x2="-424.49951171875" y2="-304.87060546875" id="line_167" class="plain" />
<line x1="-429.931640625" y1="-288.63525390625" x2="-424.1943359375" y2="-283.203125" id="line_168" class="plain" />
<line x1="-402.83203125" y1="-227.935791015625" x2="-353.02734375" y2="-277.679443359375" id="line_169" class="plain" />
<line x1="-402.83203125" y1="-227.935791015625" x2="-417.48046875" y2="-244.140625" id="line_170" class="plain" />
<line x1="-353.02734375" y1="-277.679443359375" x2="-368.865966796875" y2="-293.548583984375" id="line_171" class="plain" />
<line x1="-368.865966796875" y1="-293.548583984375" x2="-396.728515625" y2="-265.5029296875" id="line_172" class="plain" />
<line x1="-429.931640625" y1="-299.49951171875" x2="-429.931640625" y2="-288.63525390625" id="line_173" class="plain" />
<line x1="-424.49951171875" y1="-304.87060546875" x2="-429.931640625" y2="-299.49951171875" id="line_174" class="plain" />
<line x1="-417.48046875" y1="-244.140625" x2="-408.203125" y2="-299.407958984375" id="line_175" class="plain" />
<line x1="-396.728515625" y1="-265.5029296875" x2="-386.474609375" y2="-311.187744140625" id="line_176" class="plain" />
<line x1="-398.49853515625" y1="444.27490234375" x2="-388.5498046875" y2="434.326171875" id="line_177" class="plain" />
<line x1="-432.403564453125" y1="443.817138671875" x2="-398.49853515625" y2="444.27490234375" id="line_178" class="plain" />
<line x1="-448.211669921875" y1="428.009033203125" x2="-432.403564453125" y2="443.817138671875" id="line_179" class="plain" />
<line x1="-448.66943359375" y1="395.8740234375" x2="-448.211669921875" y2="428.009033203125" id="line_180" class="plain" />
<line x1="-438.720703125" y1="385.92529296875" x2="-448.66943359375" y2="395.8740234375" id="line_181" class="plain" />
<line x1="-438.720703125" y1="385.92529296875" x2="-421.08154296875" y2="389.09912109375" id="line_182" class="plain" />
<line x1="-425.1708984375" y1="372.37548828125" x2="-421.08154296875" y2="389.09912109375" id="line_183" class="plain" />
<line x1="-414.764404296875" y1="361.968994140625" x2="-425.1708984375" y2="372.37548828125" id="line_184" class="plain" />
<line x1="-383.087158203125" y1="361.968994140625" x2="-414.764404296875" y2="361.968994140625" id="line_185" class="plain" />
<line x1="-366.8212890625" y1="378.23486328125" x2="-383.087158203125" y2="361.968994140625" id="line_186" class="plain" />
<line x1="-366.39404296875" y1="412.17041015625" x2="-366.8212890625" y2="378.23486328125" id="line_187" class="plain" />
<line x1="-376.3427734375" y1="422.119140625" x2="-366.39404296875" y2="412.17041015625" id="line_188" class="plain" />
<line x1="-392.608642578125" y1="405.853271484375" x2="-376.3427734375" y2="422.119140625" id="line_189" class="plain" />
<line x1="-392.608642578125" y1="405.853271484375" x2="-387.63427734375" y2="400.87890625" id="line_190" class="plain" />
<line x1="-387.63427734375" y1="400.87890625" x2="-388.092041015625" y2="388.641357421875" id="line_191" class="plain" />
<line x1="-388.092041015625" y1="388.641357421875" x2="-393.951416015625" y2="382.781982421875" id="line_192" class="plain" />
<line x1="-393.951416015625" y1="382.781982421875" x2="-403.4423828125" y2="383.23974609375" id="line_193" class="plain" />
<line x1="-403.4423828125" y1="383.23974609375" x2="-409.332275390625" y2="389.129638671875" id="line_194" class="plain" />
<line x1="-421.539306640625" y1="401.336669921875" x2="-426.94091796875" y2="406.73828125" id="line_195" class="plain" />
<line x1="-426.94091796875" y1="406.73828125" x2="-427.398681640625" y2="417.144775390625" id="line_196" class="plain" />
<line x1="-427.398681640625" y1="417.144775390625" x2="-421.539306640625" y2="423.004150390625" id="line_197" class="plain" />
<line x1="-421.539306640625" y1="423.004150390625" x2="-410.21728515625" y2="423.4619140625" id="line_198" class="plain" />
<line x1="-410.21728515625" y1="423.4619140625" x2="-404.815673828125" y2="418.060302734375" id="line_199" class="plain" />
<line x1="-388.5498046875" y1="434.326171875" x2="-404.815673828125" y2="418.060302734375" id="line_200" class="plain" />
<line x1="-403.9306640625" y1="401.79443359375" x2="-409.332275390625" y2="389.129638671875" id="line_201" class="plain" />
<line x1="439.483642578125" y1="436.767578125" x2="433.990478515625" y2="375.213623046875" id="line_202" class="plain" />
<line x1="417.694091796875" y1="358.94775390625" x2="433.990478515625" y2="375.213623046875" id="line_203" class="plain" />
<line x1="417.694091796875" y1="358.94775390625" x2="390.106201171875" y2="386.566162109375" id="line_204" class="plain" />
<line x1="390.106201171875" y1="386.566162109375" x2="374.237060546875" y2="370.7275390625" id="line_205" class="plain" />
<line x1="374.237060546875" y1="370.7275390625" x2="357.97119140625" y2="387.02392578125" id="line_206" class="plain" />
<line x1="357.97119140625" y1="387.02392578125" x2="373.84033203125" y2="402.862548828125" id="line_207" class="plain" />
<line x1="373.84033203125" y1="402.862548828125" x2="362.518310546875" y2="414.1845703125" id="line_208" class="plain" />
<line x1="362.518310546875" y1="414.1845703125" x2="379.2724609375" y2="430.908203125" id="line_209" class="plain" />
<line x1="390.594482421875" y1="419.586181640625" x2="379.2724609375" y2="430.908203125" id="line_210" class="plain" />
<line x1="423.64501953125" y1="452.606201171875" x2="390.594482421875" y2="419.586181640625" id="line_211" class="plain" />
<line x1="423.64501953125" y1="452.606201171875" x2="439.483642578125" y2="436.767578125" id="line_212" class="plain" />
<line x1="423.583984375" y1="420.013427734375" x2="418.15185546875" y2="391.998291015625" id="line_213" class="plain" />
<line x1="418.15185546875" y1="391.998291015625" x2="406.8603515625" y2="403.289794921875" id="line_214" class="plain" />
<line x1="406.8603515625" y1="403.289794921875" x2="423.583984375" y2="420.013427734375" id="line_215" class="plain" />
<line x1="-408.87451171875" y1="406.73828125" x2="-421.539306640625" y2="401.336669921875" id="line_216" class="plain" />
<line x1="-408.87451171875" y1="406.73828125" x2="-403.9306640625" y2="401.79443359375" id="line_217" class="plain" />
<line x1="-452.57568359375" y1="-277.77099609375" x2="-429.931640625" y2="-288.63525390625" id="line_218" class="plain" />
<line x1="-452.117919921875" y1="-310.821533203125" x2="-429.931640625" y2="-299.49951171875" id="line_219" class="plain" />
<line x1="-435.821533203125" y1="-327.056884765625" x2="-424.49951171875" y2="-304.87060546875" id="line_220" class="plain" />
<line x1="-402.77099609375" y1="-327.5146484375" x2="-413.63525390625" y2="-304.87060546875" id="line_221" class="plain" />
<line x1="-408.203125" y1="-299.407958984375" x2="-386.474609375" y2="-311.187744140625" id="line_222" class="plain" />
<line x1="-396.728515625" y1="-265.5029296875" x2="-417.48046875" y2="-244.140625" id="line_223" class="plain" />
<line x1="-398.49853515625" y1="444.27490234375" x2="-410.21728515625" y2="423.4619140625" id="line_224" class="plain" />
<line x1="-432.403564453125" y1="443.817138671875" x2="-421.539306640625" y2="423.004150390625" id="line_225" class="plain" />
<line x1="-448.211669921875" y1="428.009033203125" x2="-427.398681640625" y2="417.144775390625" id="line_226" class="plain" />
<line x1="-448.66943359375" y1="395.8740234375" x2="-426.94091796875" y2="406.73828125" id="line_227" class="plain" />
<line x1="-421.08154296875" y1="389.09912109375" x2="-421.539306640625" y2="401.336669921875" id="line_228" class="plain" />
<line x1="-409.332275390625" y1="389.129638671875" x2="-421.08154296875" y2="389.09912109375" id="line_229" class="plain" />
<line x1="-414.764404296875" y1="361.968994140625" x2="-403.4423828125" y2="383.23974609375" id="line_230" class="plain" />
<line x1="-383.087158203125" y1="361.968994140625" x2="-393.951416015625" y2="382.781982421875" id="line_231" class="plain" />
<line x1="-366.8212890625" y1="378.23486328125" x2="-388.092041015625" y2="388.641357421875" id="line_232" class="plain" />
<line x1="-366.39404296875" y1="412.17041015625" x2="-387.63427734375" y2="400.87890625" id="line_233" class="plain" />
<line x1="390.106201171875" y1="386.566162109375" x2="373.84033203125" y2="402.862548828125" id="line_234" class="plain" />
<line x1="373.84033203125" y1="402.862548828125" x2="390.594482421875" y2="419.586181640625" id="line_235" class="plain" />
<line x1="406.8603515625" y1="403.289794921875" x2="390.594482421875" y2="419.586181640625" id="line_236" class="plain" />
<line x1="390.106201171875" y1="386.566162109375" x2="406.8603515625" y2="403.289794921875" id="line_237" class="plain" />
<line x1="433.990478515625" y1="375.213623046875" x2="418.15185546875" y2="391.998291015625" id="line_238" class="plain" />
<line x1="423.583984375" y1="420.013427734375" x2="439.483642578125" y2="436.767578125" id="line_239" class="plain" />
<line x1="401.611328125" y1="-322.509765625" x2="406.25" y2="-375.0" id="line_240" class="plain" />
<line x1="434.661865234375" y1="-322.113037109375" x2="468.75" y2="-375.0" id="line_241" class="plain" />
<line x1="450.98876953125" y1="-305.7861328125" x2="500.0" y2="-343.75" id="line_242" class="plain" />
<line x1="385.589599609375" y1="-239.715576171875" x2="406.25" y2="-187.5" id="line_243" class="plain" />
<line x1="312.5" y1="-281.25" x2="368.5302734375" y2="-255.9814453125" id="line_244" class="plain" />
<line x1="312.5" y1="-281.25" x2="395.721435546875" y2="-316.619873046875" id="line_245" class="plain" />
<line x1="-406.25" y1="-187.5" x2="-402.83203125" y2="-227.935791015625" id="line_246" class="plain" />
<line x1="-353.02734375" y1="-277.679443359375" x2="-312.5" y2="-281.25" id="line_247" class="plain" />
<line x1="-435.821533203125" y1="-327.056884765625" x2="-468.75" y2="-375.0" id="line_248" class="plain" />
<line x1="-452.117919921875" y1="-310.821533203125" x2="-500.0" y2="-343.75" id="line_249" class="plain" />
<line x1="-452.57568359375" y1="-277.77099609375" x2="-500.0" y2="-281.25" id="line_250" class="plain" />
<line x1="-417.48046875" y1="-244.140625" x2="-440.0634765625" y2="-266.11328125" id="line_251" class="plain" />
<line x1="-402.77099609375" y1="-327.5146484375" x2="-406.25" y2="-375.0" id="line_252" class="plain" />
<line x1="-365.203857421875" y1="-333.953857421875" x2="-386.474609375" y2="-311.187744140625" id="line_254" class="plain" />
<line x1="-368.865966796875" y1="-293.548583984375" x2="-365.203857421875" y2="-333.953857421875" id="line_255" class="plain" />
<line x1="-408.203125" y1="-299.407958984375" x2="-424.1943359375" y2="-283.203125" id="line_256" class="plain" />
<line x1="-468.75" y1="500.0" x2="-432.403564453125" y2="443.817138671875" id="line_257" class="plain" />
<line x1="-406.25" y1="500.0" x2="-398.49853515625" y2="444.27490234375" id="line_258" class="plain" />
<line x1="-500.0" y1="468.75" x2="-448.211669921875" y2="428.009033203125" id="line_259" class="plain" />
<line x1="-448.66943359375" y1="395.8740234375" x2="-500.0" y2="406.25" id="line_260" class="plain" />
<line x1="-406.25" y1="312.5" x2="-414.764404296875" y2="361.968994140625" id="line_261" class="plain" />
<line x1="-343.75" y1="312.5" x2="-383.087158203125" y2="361.968994140625" id="line_262" class="plain" />
<line x1="-312.5" y1="343.75" x2="-366.8212890625" y2="378.23486328125" id="line_263" class="plain" />
<line x1="-312.5" y1="406.25" x2="-366.39404296875" y2="412.17041015625" id="line_264" class="plain" />
<line x1="-388.5498046875" y1="434.326171875" x2="-376.3427734375" y2="422.119140625" id="line_265" class="plain" />
<line x1="-404.815673828125" y1="418.060302734375" x2="-392.608642578125" y2="405.853271484375" id="line_266" class="plain" />
<line x1="-404.815673828125" y1="418.060302734375" x2="-408.87451171875" y2="406.73828125" id="line_267" class="plain" />
<line x1="-392.608642578125" y1="405.853271484375" x2="-403.9306640625" y2="401.79443359375" id="line_268" class="plain" />
<line x1="-425.1708984375" y1="372.37548828125" x2="-438.720703125" y2="385.92529296875" id="line_269" class="plain" />
<line x1="357.97119140625" y1="387.02392578125" x2="312.5" y2="406.25" id="line_270" class="plain" />
<line x1="343.75" y1="312.5" x2="374.237060546875" y2="370.7275390625" id="line_271" class="plain" />
<line x1="379.2724609375" y1="430.908203125" x2="406.25" y2="500.0" id="line_272" class="plain" />
<line x1="468.75" y1="500.0" x2="423.64501953125" y2="452.606201171875" id="line_273" class="plain" />
<line x1="439.483642578125" y1="436.767578125" x2="500.0" y2="406.25" id="line_274" class="plain" />
<line x1="406.25" y1="312.5" x2="417.694091796875" y2="358.94775390625" id="line_275" class="plain" />
<line x1="452.667236328125" y1="358.917236328125" x2="433.990478515625" y2="375.213623046875" id="line_277" class="plain" />
<line x1="362.518310546875" y1="414.1845703125" x2="331.451416015625" y2="425.201416015625" id="line_279" class="plain" />
<!-- end group: "border_plain" -->
</g>
<g id="border_ceiling">
<line x1="-312.5" y1="343.75" x2="-343.75" y2="312.5" id="line_65" class="ceiling" />
<line x1="343.75" y1="312.5" x2="312.5" y2="343.75" id="line_71" class="ceiling" />
<line x1="312.5" y1="-218.75" x2="343.75" y2="-187.5" id="line_82" class="ceiling" />
<line x1="-343.75" y1="-187.5" x2="-312.5" y2="-218.75" id="line_94" class="ceiling" />
<line x1="319.82421875" y1="288.57421875" x2="288.0859375" y2="319.3359375" id="line_104" class="ceiling" />
<line x1="290.0390625" y1="-196.533203125" x2="321.533203125" y2="-165.283203125" id="line_114" class="ceiling" />
<line x1="-291.9921875" y1="323.333740234375" x2="-323.54736328125" y2="292.266845703125" id="line_148" class="ceiling" />
<line x1="-319.366455078125" y1="-163.055419921875" x2="-288.421630859375" y2="-194.39697265625" id="line_151" class="ceiling" />
<!-- end group: "border_ceiling" -->
</g>
<g id="border_elevation">
<line x1="-31.25" y1="31.25" x2="-62.5" y2="62.5" id="line_32" class="elevation" />
<line x1="-62.5" y1="62.5" x2="-62.5" y2="93.75" id="line_33" class="elevation" />
<line x1="-62.5" y1="93.75" x2="-31.25" y2="125.0" id="line_34" class="elevation" />
<line x1="-31.25" y1="125.0" x2="31.25" y2="125.0" id="line_35" class="elevation" />
<line x1="31.25" y1="125.0" x2="62.5" y2="93.75" id="line_36" class="elevation" />
<line x1="62.5" y1="93.75" x2="62.5" y2="62.5" id="line_37" class="elevation" />
<line x1="62.5" y1="62.5" x2="31.25" y2="31.25" id="line_38" class="elevation" />
<line x1="31.25" y1="31.25" x2="-31.25" y2="31.25" id="line_39" class="elevation" />
<!-- end group: "border_elevation" -->
</g>
<g id="border_solid">
<line x1="158.203125" y1="-173.828125" x2="298.828125" y2="-48.828125" id="line_0" class="solid" />
<line x1="328.125" y1="-62.5" x2="171.875" y2="-203.125" id="line_1" class="solid" />
<line x1="-171.875" y1="-203.125" x2="-328.125" y2="-78.125" id="line_2" class="solid" />
<line x1="-328.125" y1="-78.125" x2="-328.125" y2="203.125" id="line_3" class="solid" />
<line x1="-328.125" y1="203.125" x2="-171.875" y2="328.125" id="line_4" class="solid" />
<line x1="328.125" y1="203.125" x2="328.125" y2="-62.5" id="line_5" class="solid" />
<line x1="171.875" y1="328.125" x2="328.125" y2="203.125" id="line_6" class="solid" />
<line x1="-171.875" y1="328.125" x2="171.875" y2="328.125" id="line_7" class="solid" />
<line x1="-158.203125" y1="-173.828125" x2="-171.875" y2="-203.125" id="line_8" class="solid" />
<line x1="171.875" y1="-203.125" x2="158.203125" y2="-173.828125" id="line_9" class="solid" />
<line x1="158.203125" y1="297.8515625" x2="171.875" y2="328.125" id="line_10" class="solid" />
<line x1="-171.875" y1="328.125" x2="-157.2265625" y2="297.8515625" id="line_11" class="solid" />
<line x1="171.875" y1="-203.125" x2="-171.875" y2="-203.125" id="line_23" class="solid" />
<line x1="-158.203125" y1="-173.828125" x2="158.203125" y2="-173.828125" id="line_41" class="solid" />
<line x1="-298.828125" y1="188.4765625" x2="-298.828125" y2="-64.453125" id="line_42" class="solid" />
<line x1="158.203125" y1="297.8515625" x2="-157.2265625" y2="297.8515625" id="line_43" class="solid" />
<line x1="298.828125" y1="-48.828125" x2="298.828125" y2="189.453125" id="line_44" class="solid" />
<line x1="298.828125" y1="189.453125" x2="158.203125" y2="297.8515625" id="line_48" class="solid" />
<line x1="328.125" y1="203.125" x2="298.828125" y2="189.453125" id="line_50" class="solid" />
<line x1="298.828125" y1="-48.828125" x2="328.125" y2="-62.5" id="line_51" class="solid" />
<line x1="-328.125" y1="-78.125" x2="-298.828125" y2="-64.453125" id="line_52" class="solid" />
<line x1="-298.828125" y1="188.4765625" x2="-328.125" y2="203.125" id="line_53" class="solid" />
<line x1="-298.828125" y1="-64.453125" x2="-158.203125" y2="-173.828125" id="line_54" class="solid" />
<line x1="-281.25" y1="312.5" x2="-291.9921875" y2="323.333740234375" id="line_57" class="solid" />
<line x1="-406.25" y1="312.5" x2="-343.75" y2="312.5" id="line_58" class="solid" />
<line x1="-500.0" y1="406.25" x2="-406.25" y2="312.5" id="line_59" class="solid" />
<line x1="-500.0" y1="468.75" x2="-500.0" y2="406.25" id="line_60" class="solid" />
<line x1="-468.75" y1="500.0" x2="-500.0" y2="468.75" id="line_61" class="solid" />
<line x1="-406.25" y1="500.0" x2="-468.75" y2="500.0" id="line_62" class="solid" />
<line x1="-312.5" y1="406.25" x2="-406.25" y2="500.0" id="line_63" class="solid" />
<line x1="-312.5" y1="343.75" x2="-312.5" y2="406.25" id="line_64" class="solid" />
<line x1="-157.2265625" y1="297.8515625" x2="-298.828125" y2="188.4765625" id="line_66" class="solid" />
<line x1="312.5" y1="281.25" x2="319.82421875" y2="288.57421875" id="line_68" class="solid" />
<line x1="312.5" y1="343.75" x2="288.0859375" y2="319.3359375" id="line_70" class="solid" />
<line x1="343.75" y1="312.5" x2="406.25" y2="312.5" id="line_72" class="solid" />
<line x1="312.5" y1="406.25" x2="312.5" y2="343.75" id="line_73" class="solid" />
<line x1="406.25" y1="312.5" x2="452.667236328125" y2="358.917236328125" id="line_74" class="solid" />
<line x1="406.25" y1="500.0" x2="331.451416015625" y2="425.201416015625" id="line_75" class="solid" />
<line x1="500.0" y1="406.25" x2="500.0" y2="468.75" id="line_76" class="solid" />
<line x1="500.0" y1="468.75" x2="468.75" y2="500.0" id="line_77" class="solid" />
<line x1="468.75" y1="500.0" x2="406.25" y2="500.0" id="line_78" class="solid" />
<line x1="281.25" y1="-187.5" x2="290.0390625" y2="-196.533203125" id="line_80" class="solid" />
<line x1="312.5" y1="-218.75" x2="312.5" y2="-281.25" id="line_83" class="solid" />
<line x1="406.25" y1="-187.5" x2="343.75" y2="-187.5" id="line_84" class="solid" />
<line x1="500.0" y1="-281.25" x2="406.25" y2="-187.5" id="line_85" class="solid" />
<line x1="312.5" y1="-281.25" x2="406.25" y2="-375.0" id="line_86" class="solid" />
<line x1="406.25" y1="-375.0" x2="468.75" y2="-375.0" id="line_87" class="solid" />
<line x1="468.75" y1="-375.0" x2="500.0" y2="-343.75" id="line_88" class="solid" />
<line x1="500.0" y1="-343.75" x2="500.0" y2="-281.25" id="line_89" class="solid" />
<line x1="-312.5" y1="-218.75" x2="-288.421630859375" y2="-194.39697265625" id="line_91" class="solid" />
<line x1="-312.5" y1="-156.25" x2="-319.366455078125" y2="-163.055419921875" id="line_93" class="solid" />
<line x1="-312.5" y1="-281.25" x2="-312.5" y2="-218.75" id="line_95" class="solid" />
<line x1="-343.75" y1="-187.5" x2="-406.25" y2="-187.5" id="line_96" class="solid" />
<line x1="-406.25" y1="-187.5" x2="-500.0" y2="-281.25" id="line_97" class="solid" />
<line x1="-500.0" y1="-281.25" x2="-500.0" y2="-343.75" id="line_98" class="solid" />
<line x1="-500.0" y1="-343.75" x2="-468.75" y2="-375.0" id="line_99" class="solid" />
<line x1="-406.25" y1="-375.0" x2="-365.203857421875" y2="-333.953857421875" id="line_100" class="solid" />
<line x1="-468.75" y1="-375.0" x2="-406.25" y2="-375.0" id="line_101" class="solid" />
<line x1="319.82421875" y1="288.57421875" x2="343.75" y2="312.5" id="line_102" class="solid" />
<line x1="288.0859375" y1="319.3359375" x2="281.25" y2="312.5" id="line_103" class="solid" />
<line x1="344.7265625" y1="281.25" x2="312.5" y2="281.25" id="line_105" class="solid" />
<line x1="391.6015625" y1="234.375" x2="344.7265625" y2="281.25" id="line_106" class="solid" />
<line x1="290.0390625" y1="-196.533203125" x2="312.5" y2="-218.75" id="line_111" class="solid" />
<line x1="321.533203125" y1="-165.283203125" x2="312.5" y2="-156.25" id="line_112" class="solid" />
<line x1="343.75" y1="-187.5" x2="321.533203125" y2="-165.283203125" id="line_113" class="solid" />
<line x1="-323.54736328125" y1="292.266845703125" x2="-312.5" y2="281.25" id="line_145" class="solid" />
<line x1="-343.75" y1="312.5" x2="-323.54736328125" y2="292.266845703125" id="line_146" class="solid" />
<line x1="-291.9921875" y1="323.333740234375" x2="-312.5" y2="343.75" id="line_147" class="solid" />
<line x1="-288.421630859375" y1="-194.39697265625" x2="-281.25" y2="-187.5" id="line_149" class="solid" />
<line x1="-319.366455078125" y1="-163.055419921875" x2="-343.75" y2="-187.5" id="line_150" class="solid" />
<line x1="-365.203857421875" y1="-333.953857421875" x2="-312.5" y2="-281.25" id="line_253" class="solid" />
<line x1="452.667236328125" y1="358.917236328125" x2="500.0" y2="406.25" id="line_276" class="solid" />
<line x1="331.451416015625" y1="425.201416015625" x2="312.5" y2="406.25" id="line_278" class="solid" />
<!-- end group: "border_solid" -->
</g>
<!-- end group: "borders" -->
</g>
<g id="objects">
<g id="objects_sound">
<use xlink:href="../resources/svg/common.svg#sound" x="313.4765625" y="124.0234375" id="object_32" class="sound sound-0" />
<use xlink:href="../resources/svg/common.svg#sound" x="-65.4296875" y="312.5" id="object_33" class="sound sound-0" />
<use xlink:href="../resources/svg/common.svg#sound" x="-65.4296875" y="-187.744140625" id="object_34" class="sound sound-0" />
<use xlink:href="../resources/svg/common.svg#sound" x="-311.767578125" y="129.638671875" id="object_35" class="sound sound-0" />
<use xlink:href="../resources/svg/common.svg#sound" x="307.6171875" y="305.419921875" id="object_36" class="sound sound-5" />
<use xlink:href="../resources/svg/common.svg#sound" x="301.025390625" y="-177.978515625" id="object_37" class="sound sound-5" />
<use xlink:href="../resources/svg/common.svg#sound" x="-303.22265625" y="303.22265625" id="object_38" class="sound sound-5" />
<use xlink:href="../resources/svg/common.svg#sound" x="-298.828125" y="-175.78125" id="object_39" class="sound sound-5" />
<use xlink:href="../resources/svg/common.svg#sound" x="57.6171875" y="-187.5" id="object_40" class="sound sound-0" />
<use xlink:href="../resources/svg/common.svg#sound" x="314.453125" y="16.6015625" id="object_41" class="sound sound-0" />
<use xlink:href="../resources/svg/common.svg#sound" x="90.8203125" y="311.5234375" id="object_42" class="sound sound-0" />
<use xlink:href="../resources/svg/common.svg#sound" x="-312.5" y="1.953125" id="object_43" class="sound sound-0" />
<!-- end group: "objects_sound" -->
</g>
<g id="objects_item">
<use xlink:href="../resources/svg/common.svg#item" x="-250.0" y="78.125" id="object_8" class="item item-8" transform="rotate(90.0 -250.0 78.125)" />
<use xlink:href="../resources/svg/common.svg#item" x="250.0" y="78.125" id="object_9" class="item item-8" transform="rotate(90.0 250.0 78.125)" />
<use xlink:href="../resources/svg/common.svg#item" x="420.41015625" y="-311.614990234375" id="object_10" class="item item-6" />
<use xlink:href="../resources/svg/common.svg#item" x="436.737060546875" y="-294.525146484375" id="object_11" class="item item-7" />
<use xlink:href="../resources/svg/common.svg#item" x="414.6728515625" y="-287.109375" id="object_12" class="item item-9" />
<use xlink:href="../resources/svg/common.svg#item" x="406.73828125" y="409.423828125" id="object_13" class="item item-6" />
<use xlink:href="../resources/svg/common.svg#item" x="433.28857421875" y="406.890869140625" id="object_14" class="item item-9" />
<use xlink:href="../resources/svg/common.svg#item" x="409.72900390625" y="430.48095703125" id="object_15" class="item item-6" />
<use xlink:href="../resources/svg/common.svg#item" x="-395.263671875" y="393.798828125" id="object_16" class="item item-6" />
<use xlink:href="../resources/svg/common.svg#item" x="-403.50341796875" y="417.236328125" id="object_17" class="item item-9" />
<use xlink:href="../resources/svg/common.svg#item" x="-417.938232421875" y="400.238037109375" id="object_18" class="item item-7" />
<use xlink:href="../resources/svg/common.svg#item" x="-423.126220703125" y="-278.6865234375" id="object_19" class="item item-7" />
<use xlink:href="../resources/svg/common.svg#item" x="-401.4892578125" y="-296.234130859375" id="object_20" class="item item-9" />
<use xlink:href="../resources/svg/common.svg#item" x="-426.544189453125" y="-302.947998046875" id="object_21" class="item item-6" />
<use xlink:href="../resources/svg/common.svg#item" x="31.25" y="52.734375" id="object_22" class="item item-9" />
<use xlink:href="../resources/svg/common.svg#item" x="-19.53125" y="111.328125" id="object_23" class="item item-9" />
<use xlink:href="../resources/svg/common.svg#item" x="-31.25" y="44.921875" id="object_24" class="item item-9" />
<use xlink:href="../resources/svg/common.svg#item" x="-314.453125" y="-191.40625" id="object_25" class="item item-8" />
<use xlink:href="../resources/svg/common.svg#item" x="-316.40625" y="318.359375" id="object_26" class="item item-8" />
<use xlink:href="../resources/svg/common.svg#item" x="316.40625" y="318.359375" id="object_27" class="item item-8" />
<use xlink:href="../resources/svg/common.svg#item" x="316.40625" y="-191.40625" id="object_28" class="item item-8" />
<use xlink:href="../resources/svg/common.svg#item" x="432.525634765625" y="429.779052734375" id="object_29" class="item item-5" />
<use xlink:href="../resources/svg/common.svg#item" x="-397.4609375" y="-274.505615234375" id="object_30" class="item item-5" />
<use xlink:href="../resources/svg/common.svg#item" x="0.9765625" y="78.125" id="object_31" class="item item-27" />
<!-- end group: "objects_item" -->
</g>
<g id="objects_player">
<use xlink:href="../resources/svg/common.svg#monster" x="459.930419921875" y="468.75" id="object_0" class="player" transform="rotate(225.0 459.930419921875 468.75)" />
<use xlink:href="../resources/svg/common.svg#monster" x="468.231201171875" y="-345.88623046875" id="object_1" class="player" transform="rotate(136.40625 468.231201171875 -345.88623046875)" />
<use xlink:href="../resources/svg/common.svg#monster" x="-470.672607421875" y="-349.12109375" id="object_2" class="player" transform="rotate(45.0 -470.672607421875 -349.12109375)" />
<use xlink:href="../resources/svg/common.svg#monster" x="-467.95654296875" y="473.44970703125" id="object_3" class="player" transform="rotate(317.109375 -467.95654296875 473.44970703125)" />
<use xlink:href="../resources/svg/common.svg#monster" x="353.515625" y="60.546875" id="object_4" class="player" transform="rotate(180.0 353.515625 60.546875)" />
<use xlink:href="../resources/svg/common.svg#monster" x="11.71875" y="-226.5625" id="object_5" class="player" transform="rotate(90.0 11.71875 -226.5625)" />
<use xlink:href="../resources/svg/common.svg#monster" x="-353.515625" y="83.984375" id="object_6" class="player" />
<use xlink:href="../resources/svg/common.svg#monster" x="11.71875" y="353.515625" id="object_7" class="player" transform="rotate(270.0 11.71875 353.515625)" />
<!-- end group: "objects_player" -->
</g>
<!-- end group: "objects" -->
</g>
<g id="panels">
<!-- end group: "panels" -->
</g>

<script xlink:href="../resources/js/level.js" ></script>
</svg>