<?xml version="1.0" encoding="UTF-8"?>
<!-- generated by map2svg: github.com/fracai/marathon-svg -->
<svg xmlns="http://www.w3.org/2000/svg" xmlns:xlink="http://www.w3.org/1999/xlink" version="1.1"
    viewBox="125.0 -437.5 781.25 781.25">
<link xmlns="http://www.w3.org/1999/xhtml" rel="stylesheet" href="../resources/css/styles.css" type="text/css" />
<style id="dynamic-style" />
<g id="background-grid">
<defs>
<pattern id="grid_minor" width="3.125" height="3.125" patternUnits="userSpaceOnUse">
<path d="M 3.125 0 L 0 0 0 3.125" fill="none" class="grid_minor" />
</pattern>
<pattern id="grid_major" width="31.25" height="31.25" patternUnits="userSpaceOnUse">
<rect width="31.25" height="31.25" fill="url(#grid_minor)"/>
<path d="M 31.25 0 L 0 0 0 31.25" fill="none" class="grid_major" />
</pattern>
</defs>
<rect x="-1000" y="-1000" width="2000" height="2000" fill="url(#grid_major)" />
<line x1="0" y1="1000" x2="0" y2="-1000" class="grid_origin" />
<line x1="1000" y1="0" x2="-1000" y2="0" class="grid_origin" />
<!-- end group: "background-grid" -->
</g>
<g id="polygons">
<polygon points="250.0,-328.125 500.0,-328.125 531.25,-328.125 781.25,-328.125 734.375,-296.875 531.25,-296.875 500.0,-296.875 296.875,-296.875" id="poly_0" class="plain" />
<polygon points="296.875,-281.25 500.0,-281.25 531.25,-281.25 734.375,-281.25 687.5,-250.0 531.25,-250.0 500.0,-250.0 343.75,-250.0" id="poly_1" class="plain" />
<polygon points="500.0,-343.75 531.25,-343.75 531.25,-328.125 500.0,-328.125" id="poly_2" class="plain" />
<polygon points="500.0,-296.875 531.25,-296.875 531.25,-281.25 500.0,-281.25" id="poly_3" class="plain" />
<polygon points="500.0,-250.0 531.25,-250.0 531.25,-234.375 500.0,-234.375" id="poly_4" class="plain" />
<polygon points="765.625,-265.625 796.875,-312.5 796.875,-62.5 796.875,-31.25 796.875,218.75 765.625,171.875 765.625,-31.25 765.625,-62.5" id="poly_5" class="plain" />
<polygon points="796.875,-62.5 812.5,-62.5 812.5,-31.25 796.875,-31.25" id="poly_6" class="plain" />
<polygon points="750.0,-62.5 765.625,-62.5 765.625,-31.25 750.0,-31.25" id="poly_7" class="plain" />
<polygon points="718.75,-218.75 750.0,-265.625 750.0,-62.5 750.0,-31.25 750.0,171.875 718.75,125.0 718.75,-31.25 718.75,-62.5" id="poly_8" class="plain" />
<polygon points="703.125,-62.5 718.75,-62.5 718.75,-31.25 703.125,-31.25" id="poly_9" class="plain" />
<polygon points="734.375,-296.875 781.25,-328.125 796.875,-312.5 765.625,-265.625 750.0,-265.625 734.375,-281.25" id="poly_11" class="plain" />
<polygon points="687.5,-250.0 734.375,-281.25 750.0,-265.625 718.75,-218.75 703.125,-218.75 687.5,-234.375" id="poly_12" class="plain" />
<polygon points="234.375,-312.5 265.625,-265.625 265.625,-62.5 265.625,-31.25 265.625,171.875 234.375,218.75 234.375,-31.25 234.375,-62.5" id="poly_14" class="plain" />
<polygon points="218.75,-62.5 234.375,-62.5 234.375,-31.25 218.75,-31.25" id="poly_15" class="plain" />
<polygon points="265.625,-62.5 281.25,-62.5 281.25,-31.25 265.625,-31.25" id="poly_16" class="plain" />
<polygon points="281.25,-62.5 281.25,-265.625 312.5,-218.75 312.5,-62.5 312.5,-31.25 312.5,125.0 281.25,171.875 281.25,-31.25" id="poly_17" class="plain" />
<polygon points="312.5,-62.5 328.125,-62.5 328.125,-31.25 312.5,-31.25" id="poly_18" class="plain" />
<polygon points="500.0,140.625 531.25,140.625 531.25,156.25 500.0,156.25" id="poly_19" class="plain" />
<polygon points="343.75,156.25 500.0,156.25 531.25,156.25 687.5,156.25 734.375,187.5 531.25,187.5 500.0,187.5 296.875,187.5" id="poly_20" class="plain" />
<polygon points="296.875,203.125 500.0,203.125 531.25,203.125 734.375,203.125 781.25,234.375 531.25,234.375 500.0,234.375 250.0,234.375" id="poly_21" class="plain" />
<polygon points="500.0,187.5 531.25,187.5 531.25,203.125 500.0,203.125" id="poly_22" class="plain" />
<polygon points="500.0,234.375 531.25,234.375 531.25,250.0 500.0,250.0" id="poly_23" class="plain" />
<polygon points="734.375,203.125 734.375,187.5 750.0,171.875 765.625,171.875 796.875,218.75 781.25,234.375" id="poly_25" class="plain" />
<polygon points="687.5,156.25 687.5,140.625 703.125,125.0 718.75,125.0 750.0,171.875 734.375,187.5" id="poly_26" class="plain" />
<polygon points="265.625,171.875 281.25,171.875 296.875,187.5 296.875,203.125 250.0,234.375 234.375,218.75" id="poly_28" class="plain" />
<polygon points="312.5,125.0 328.125,125.0 343.75,140.625 343.75,156.25 296.875,187.5 281.25,171.875" id="poly_29" class="plain" />
<polygon points="234.375,-312.5 250.0,-328.125 296.875,-296.875 296.875,-281.25 281.25,-265.625 265.625,-265.625" id="poly_30" class="plain" />
<polygon points="281.25,-265.625 296.875,-281.25 343.75,-250.0 343.75,-234.375 328.125,-218.75 312.5,-218.75" id="poly_31" class="plain" />
<polygon points="343.75,-234.375 500.0,-234.375 531.25,-234.375 687.5,-234.375 640.625,-203.125 531.25,-203.125 500.0,-203.125 390.625,-203.125" id="poly_32" class="plain" />
<polygon points="328.125,-218.75 343.75,-234.375 390.625,-203.125 390.625,-187.5 375.0,-171.875 359.375,-171.875" id="poly_33" class="plain" />
<polygon points="328.125,-218.75 359.375,-171.875 359.375,-62.5 359.375,-31.25 359.375,78.125 328.125,125.0 328.125,-31.25 328.125,-62.5" id="poly_34" class="plain" />
<polygon points="359.375,-62.5 375.0,-62.5 375.0,-31.25 359.375,-31.25" id="poly_35" class="plain" />
<polygon points="359.375,78.125 375.0,78.125 390.625,93.75 390.625,109.375 343.75,140.625 328.125,125.0" id="poly_36" class="plain" />
<polygon points="390.625,109.375 500.0,109.375 531.25,109.375 640.625,109.375 687.5,140.625 531.25,140.625 500.0,140.625 343.75,140.625" id="poly_37" class="plain" />
<polygon points="500.0,93.75 531.25,93.75 531.25,109.375 500.0,109.375" id="poly_38" class="plain" />
<polygon points="640.625,93.75 656.25,78.125 671.875,78.125 703.125,125.0 687.5,140.625 640.625,109.375" id="poly_39" class="plain" />
<polygon points="671.875,-31.25 671.875,-62.5 671.875,-171.875 703.125,-218.75 703.125,-62.5 703.125,-31.25 703.125,125.0 671.875,78.125" id="poly_40" class="plain" />
<polygon points="656.25,-62.5 671.875,-62.5 671.875,-31.25 656.25,-31.25" id="poly_41" class="plain" />
<polygon points="640.625,-187.5 640.625,-203.125 687.5,-234.375 703.125,-218.75 671.875,-171.875 656.25,-171.875" id="poly_42" class="plain" />
<polygon points="500.0,-203.125 531.25,-203.125 531.25,-187.5 500.0,-187.5" id="poly_43" class="plain" />
<polygon points="781.25,-343.75 875.0,-406.25 812.5,-312.5 796.875,-312.5 781.25,-328.125" id="poly_10" class="plain" />
<polygon points="156.25,-406.25 250.0,-343.75 250.0,-328.125 234.375,-312.5 218.75,-312.5" id="poly_13" class="plain" />
<polygon points="781.25,250.0 781.25,234.375 796.875,218.75 812.5,218.75 875.0,312.5" id="poly_24" class="plain" />
<polygon points="218.75,218.75 234.375,218.75 250.0,234.375 250.0,250.0 156.25,312.5" id="poly_27" class="plain" />
<polygon points="390.625,-187.5 500.0,-187.5 531.25,-187.5 640.625,-187.5 531.25,-62.5 500.0,-62.5" id="poly_44" class="hill" />
<polygon points="375.0,-171.875 390.625,-187.5 500.0,-62.5 500.0,-31.25 390.625,93.75 375.0,78.125 375.0,-31.25 375.0,-62.5" id="poly_45" class="hill" />
<polygon points="500.0,-31.25 531.25,-31.25 640.625,93.75 531.25,93.75 500.0,93.75 390.625,93.75" id="poly_46" class="hill" />
<polygon points="640.625,-187.5 656.25,-171.875 656.25,-62.5 531.25,-31.25 531.25,-39.0625 531.25,-54.6875 531.25,-62.5" id="poly_48" class="hill" />
<polygon points="531.25,-31.25 656.25,-62.5 656.25,-31.25 656.25,78.125 640.625,93.75" id="poly_49" class="hill" />
<polygon points="812.5,-312.5 875.0,-406.25 875.0,-93.75 812.5,-62.5" id="poly_50" class="plain" />
<polygon points="875.0,-93.75 875.0,0.0 812.5,-31.25 812.5,-62.5" id="poly_51" class="plain" />
<polygon points="812.5,-31.25 875.0,0.0 875.0,312.5 812.5,218.75" id="poly_52" class="plain" />
<polygon points="468.75,-406.25 562.5,-406.25 531.25,-343.75 500.0,-343.75" id="poly_53" class="plain" />
<polygon points="156.25,-406.25 468.75,-406.25 500.0,-343.75 250.0,-343.75" id="poly_54" class="plain" />
<polygon points="562.5,-406.25 875.0,-406.25 781.25,-343.75 531.25,-343.75" id="poly_55" class="plain" />
<polygon points="156.25,-406.25 218.75,-312.5 218.75,-62.5 156.25,-93.75" id="poly_56" class="plain" />
<polygon points="156.25,-93.75 218.75,-62.5 218.75,-31.25 156.25,0.0" id="poly_57" class="plain" />
<polygon points="156.25,0.0 218.75,-31.25 218.75,218.75 156.25,312.5" id="poly_58" class="plain" />
<polygon points="500.0,250.0 531.25,250.0 562.5,312.5 468.75,312.5" id="poly_59" class="plain" />
<polygon points="250.0,250.0 500.0,250.0 468.75,312.5 156.25,312.5" id="poly_60" class="plain" />
<polygon points="531.25,250.0 781.25,250.0 875.0,312.5 562.5,312.5" id="poly_61" class="plain" />
<polygon points="523.4375,-54.6875 531.25,-54.6875 531.25,-39.0625 523.4375,-39.0625" id="poly_47" class="plain" />
<!-- end group: "polygons" -->
</g>
<g id="borders">
<g id="border_plain">
<line x1="781.25" y1="-343.75" x2="875.0" y2="-406.25" id="line_100" class="plain" />
<line x1="156.25" y1="-406.25" x2="250.0" y2="-343.75" id="line_101" class="plain" />
<line x1="500.0" y1="-328.125" x2="531.25" y2="-328.125" id="line_103" class="plain" />
<line x1="296.875" y1="-296.875" x2="250.0" y2="-328.125" id="line_104" class="plain" />
<line x1="781.25" y1="-328.125" x2="734.375" y2="-296.875" id="line_105" class="plain" />
<line x1="531.25" y1="-296.875" x2="500.0" y2="-296.875" id="line_106" class="plain" />
<line x1="500.0" y1="-281.25" x2="531.25" y2="-281.25" id="line_107" class="plain" />
<line x1="531.25" y1="-250.0" x2="500.0" y2="-250.0" id="line_108" class="plain" />
<line x1="531.25" y1="-234.375" x2="500.0" y2="-234.375" id="line_109" class="plain" />
<line x1="734.375" y1="-281.25" x2="687.5" y2="-250.0" id="line_110" class="plain" />
<line x1="343.75" y1="-250.0" x2="296.875" y2="-281.25" id="line_111" class="plain" />
<line x1="875.0" y1="-406.25" x2="812.5" y2="-312.5" id="line_112" class="plain" />
<line x1="796.875" y1="-62.5" x2="796.875" y2="-31.25" id="line_114" class="plain" />
<line x1="812.5" y1="218.75" x2="875.0" y2="312.5" id="line_115" class="plain" />
<line x1="765.625" y1="-31.25" x2="765.625" y2="-62.5" id="line_116" class="plain" />
<line x1="750.0" y1="-31.25" x2="750.0" y2="-62.5" id="line_117" class="plain" />
<line x1="718.75" y1="-31.25" x2="718.75" y2="-62.5" id="line_118" class="plain" />
<line x1="703.125" y1="-31.25" x2="703.125" y2="-62.5" id="line_119" class="plain" />
<line x1="765.625" y1="-265.625" x2="796.875" y2="-312.5" id="line_120" class="plain" />
<line x1="718.75" y1="-218.75" x2="750.0" y2="-265.625" id="line_121" class="plain" />
<line x1="750.0" y1="171.875" x2="718.75" y2="125.0" id="line_122" class="plain" />
<line x1="796.875" y1="218.75" x2="765.625" y2="171.875" id="line_123" class="plain" />
<line x1="750.0" y1="-265.625" x2="734.375" y2="-281.25" id="line_125" class="plain" />
<line x1="703.125" y1="-218.75" x2="687.5" y2="-234.375" id="line_126" class="plain" />
<line x1="218.75" y1="-312.5" x2="156.25" y2="-406.25" id="line_128" class="plain" />
<line x1="156.25" y1="312.5" x2="218.75" y2="218.75" id="line_129" class="plain" />
<line x1="234.375" y1="-31.25" x2="234.375" y2="-62.5" id="line_131" class="plain" />
<line x1="265.625" y1="-62.5" x2="265.625" y2="-31.25" id="line_132" class="plain" />
<line x1="281.25" y1="-62.5" x2="281.25" y2="-31.25" id="line_133" class="plain" />
<line x1="312.5" y1="-62.5" x2="312.5" y2="-31.25" id="line_134" class="plain" />
<line x1="328.125" y1="-62.5" x2="328.125" y2="-31.25" id="line_135" class="plain" />
<line x1="234.375" y1="-312.5" x2="265.625" y2="-265.625" id="line_136" class="plain" />
<line x1="281.25" y1="-265.625" x2="312.5" y2="-218.75" id="line_137" class="plain" />
<line x1="312.5" y1="125.0" x2="281.25" y2="171.875" id="line_138" class="plain" />
<line x1="265.625" y1="171.875" x2="234.375" y2="218.75" id="line_139" class="plain" />
<line x1="343.75" y1="-234.375" x2="328.125" y2="-218.75" id="line_140" class="plain" />
<line x1="296.875" y1="-281.25" x2="281.25" y2="-265.625" id="line_141" class="plain" />
<line x1="250.0" y1="250.0" x2="156.25" y2="312.5" id="line_142" class="plain" />
<line x1="531.25" y1="234.375" x2="500.0" y2="234.375" id="line_144" class="plain" />
<line x1="500.0" y1="203.125" x2="531.25" y2="203.125" id="line_145" class="plain" />
<line x1="531.25" y1="187.5" x2="500.0" y2="187.5" id="line_146" class="plain" />
<line x1="531.25" y1="156.25" x2="500.0" y2="156.25" id="line_147" class="plain" />
<line x1="500.0" y1="140.625" x2="531.25" y2="140.625" id="line_148" class="plain" />
<line x1="875.0" y1="312.5" x2="781.25" y2="250.0" id="line_149" class="plain" />
<line x1="734.375" y1="203.125" x2="781.25" y2="234.375" id="line_150" class="plain" />
<line x1="687.5" y1="156.25" x2="734.375" y2="187.5" id="line_151" class="plain" />
<line x1="250.0" y1="234.375" x2="296.875" y2="203.125" id="line_152" class="plain" />
<line x1="296.875" y1="187.5" x2="343.75" y2="156.25" id="line_153" class="plain" />
<line x1="281.25" y1="171.875" x2="296.875" y2="187.5" id="line_155" class="plain" />
<line x1="328.125" y1="125.0" x2="343.75" y2="140.625" id="line_156" class="plain" />
<line x1="687.5" y1="140.625" x2="703.125" y2="125.0" id="line_157" class="plain" />
<line x1="734.375" y1="187.5" x2="750.0" y2="171.875" id="line_158" class="plain" />
<line x1="687.5" y1="-234.375" x2="640.625" y2="-203.125" id="line_196" class="plain" />
<line x1="531.25" y1="-203.125" x2="500.0" y2="-203.125" id="line_197" class="plain" />
<line x1="359.375" y1="-62.5" x2="359.375" y2="-31.25" id="line_200" class="plain" />
<line x1="359.375" y1="-171.875" x2="328.125" y2="-218.75" id="line_201" class="plain" />
<line x1="359.375" y1="78.125" x2="328.125" y2="125.0" id="line_202" class="plain" />
<line x1="390.625" y1="109.375" x2="343.75" y2="140.625" id="line_203" class="plain" />
<line x1="640.625" y1="109.375" x2="687.5" y2="140.625" id="line_204" class="plain" />
<line x1="671.875" y1="78.125" x2="703.125" y2="125.0" id="line_205" class="plain" />
<line x1="671.875" y1="-171.875" x2="703.125" y2="-218.75" id="line_206" class="plain" />
<line x1="671.875" y1="-31.25" x2="671.875" y2="-62.5" id="line_207" class="plain" />
<line x1="500.0" y1="109.375" x2="531.25" y2="109.375" id="line_211" class="plain" />
<line x1="390.625" y1="-203.125" x2="343.75" y2="-234.375" id="line_214" class="plain" />
<line x1="500.0" y1="-62.5" x2="390.625" y2="-187.5" id="line_216" class="plain" />
<line x1="640.625" y1="-187.5" x2="531.25" y2="-62.5" id="line_217" class="plain" />
<line x1="531.25" y1="-31.25" x2="640.625" y2="93.75" id="line_218" class="plain" />
<line x1="500.0" y1="-31.25" x2="390.625" y2="93.75" id="line_219" class="plain" />
<line x1="656.25" y1="-62.5" x2="531.25" y2="-31.25" id="line_225" class="plain" />
<line x1="875.0" y1="-93.75" x2="812.5" y2="-62.5" id="line_227" class="plain" />
<line x1="875.0" y1="0.0" x2="812.5" y2="-31.25" id="line_229" class="plain" />
<line x1="500.0" y1="-343.75" x2="468.75" y2="-406.25" id="line_231" class="plain" />
<line x1="562.5" y1="-406.25" x2="531.25" y2="-343.75" id="line_233" class="plain" />
<line x1="218.75" y1="-62.5" x2="156.25" y2="-93.75" id="line_235" class="plain" />
<line x1="218.75" y1="-31.25" x2="156.25" y2="0.0" id="line_237" class="plain" />
<line x1="531.25" y1="250.0" x2="562.5" y2="312.5" id="line_239" class="plain" />
<line x1="468.75" y1="312.5" x2="500.0" y2="250.0" id="line_241" class="plain" />
<!-- end group: "border_plain" -->
</g>
<g id="border_ceiling">
<line x1="500.0" y1="-343.75" x2="531.25" y2="-343.75" id="line_102" class="ceiling" />
<line x1="812.5" y1="-62.5" x2="812.5" y2="-31.25" id="line_113" class="ceiling" />
<line x1="796.875" y1="-312.5" x2="781.25" y2="-328.125" id="line_124" class="ceiling" />
<line x1="250.0" y1="-328.125" x2="234.375" y2="-312.5" id="line_127" class="ceiling" />
<line x1="218.75" y1="-31.25" x2="218.75" y2="-62.5" id="line_130" class="ceiling" />
<line x1="531.25" y1="250.0" x2="500.0" y2="250.0" id="line_143" class="ceiling" />
<line x1="234.375" y1="218.75" x2="250.0" y2="234.375" id="line_154" class="ceiling" />
<line x1="781.25" y1="234.375" x2="796.875" y2="218.75" id="line_159" class="ceiling" />
<line x1="531.25" y1="-187.5" x2="500.0" y2="-187.5" id="line_198" class="ceiling" />
<line x1="375.0" y1="-62.5" x2="375.0" y2="-31.25" id="line_199" class="ceiling" />
<line x1="656.25" y1="-31.25" x2="656.25" y2="-62.5" id="line_208" class="ceiling" />
<line x1="640.625" y1="93.75" x2="656.25" y2="78.125" id="line_209" class="ceiling" />
<line x1="500.0" y1="93.75" x2="531.25" y2="93.75" id="line_210" class="ceiling" />
<line x1="375.0" y1="78.125" x2="390.625" y2="93.75" id="line_212" class="ceiling" />
<line x1="390.625" y1="-187.5" x2="375.0" y2="-171.875" id="line_213" class="ceiling" />
<line x1="656.25" y1="-171.875" x2="640.625" y2="-187.5" id="line_215" class="ceiling" />
<!-- end group: "border_ceiling" -->
</g>
<g id="border_elevation">
<line x1="531.25" y1="-54.6875" x2="531.25" y2="-39.0625" id="line_223" class="elevation" />
<!-- end group: "border_elevation" -->
</g>
<g id="border_solid">
<line x1="875.0" y1="-406.25" x2="875.0" y2="-93.75" id="line_0" class="solid" />
<line x1="875.0" y1="312.5" x2="562.5" y2="312.5" id="line_1" class="solid" />
<line x1="156.25" y1="-406.25" x2="468.75" y2="-406.25" id="line_2" class="solid" />
<line x1="156.25" y1="312.5" x2="156.25" y2="0.0" id="line_3" class="solid" />
<line x1="250.0" y1="-343.75" x2="250.0" y2="-328.125" id="line_4" class="solid" />
<line x1="500.0" y1="-343.75" x2="250.0" y2="-343.75" id="line_5" class="solid" />
<line x1="250.0" y1="-328.125" x2="500.0" y2="-328.125" id="line_6" class="solid" />
<line x1="781.25" y1="-343.75" x2="531.25" y2="-343.75" id="line_7" class="solid" />
<line x1="531.25" y1="-343.75" x2="531.25" y2="-328.125" id="line_8" class="solid" />
<line x1="531.25" y1="-328.125" x2="781.25" y2="-328.125" id="line_9" class="solid" />
<line x1="781.25" y1="-328.125" x2="781.25" y2="-343.75" id="line_10" class="solid" />
<line x1="500.0" y1="-328.125" x2="500.0" y2="-343.75" id="line_11" class="solid" />
<line x1="500.0" y1="-296.875" x2="296.875" y2="-296.875" id="line_12" class="solid" />
<line x1="500.0" y1="-281.25" x2="500.0" y2="-296.875" id="line_13" class="solid" />
<line x1="296.875" y1="-281.25" x2="500.0" y2="-281.25" id="line_14" class="solid" />
<line x1="296.875" y1="-296.875" x2="296.875" y2="-281.25" id="line_15" class="solid" />
<line x1="531.25" y1="-296.875" x2="531.25" y2="-281.25" id="line_16" class="solid" />
<line x1="531.25" y1="-281.25" x2="734.375" y2="-281.25" id="line_17" class="solid" />
<line x1="734.375" y1="-281.25" x2="734.375" y2="-296.875" id="line_18" class="solid" />
<line x1="734.375" y1="-296.875" x2="531.25" y2="-296.875" id="line_19" class="solid" />
<line x1="500.0" y1="-234.375" x2="500.0" y2="-250.0" id="line_20" class="solid" />
<line x1="343.75" y1="-234.375" x2="500.0" y2="-234.375" id="line_21" class="solid" />
<line x1="343.75" y1="-250.0" x2="343.75" y2="-234.375" id="line_22" class="solid" />
<line x1="500.0" y1="-250.0" x2="343.75" y2="-250.0" id="line_23" class="solid" />
<line x1="687.5" y1="-250.0" x2="531.25" y2="-250.0" id="line_24" class="solid" />
<line x1="687.5" y1="-234.375" x2="687.5" y2="-250.0" id="line_25" class="solid" />
<line x1="531.25" y1="-234.375" x2="687.5" y2="-234.375" id="line_26" class="solid" />
<line x1="531.25" y1="-250.0" x2="531.25" y2="-234.375" id="line_27" class="solid" />
<line x1="703.125" y1="-218.75" x2="703.125" y2="-62.5" id="line_28" class="solid" />
<line x1="703.125" y1="-62.5" x2="718.75" y2="-62.5" id="line_29" class="solid" />
<line x1="718.75" y1="-62.5" x2="718.75" y2="-218.75" id="line_30" class="solid" />
<line x1="718.75" y1="-218.75" x2="703.125" y2="-218.75" id="line_31" class="solid" />
<line x1="750.0" y1="-265.625" x2="750.0" y2="-62.5" id="line_32" class="solid" />
<line x1="750.0" y1="-62.5" x2="765.625" y2="-62.5" id="line_33" class="solid" />
<line x1="765.625" y1="-62.5" x2="765.625" y2="-265.625" id="line_34" class="solid" />
<line x1="765.625" y1="-265.625" x2="750.0" y2="-265.625" id="line_35" class="solid" />
<line x1="796.875" y1="-312.5" x2="796.875" y2="-62.5" id="line_36" class="solid" />
<line x1="796.875" y1="-62.5" x2="812.5" y2="-62.5" id="line_37" class="solid" />
<line x1="812.5" y1="-62.5" x2="812.5" y2="-312.5" id="line_38" class="solid" />
<line x1="812.5" y1="-312.5" x2="796.875" y2="-312.5" id="line_39" class="solid" />
<line x1="328.125" y1="-62.5" x2="328.125" y2="-218.75" id="line_40" class="solid" />
<line x1="312.5" y1="-62.5" x2="328.125" y2="-62.5" id="line_41" class="solid" />
<line x1="312.5" y1="-218.75" x2="312.5" y2="-62.5" id="line_42" class="solid" />
<line x1="328.125" y1="-218.75" x2="312.5" y2="-218.75" id="line_43" class="solid" />
<line x1="281.25" y1="-62.5" x2="281.25" y2="-265.625" id="line_44" class="solid" />
<line x1="265.625" y1="-62.5" x2="281.25" y2="-62.5" id="line_45" class="solid" />
<line x1="265.625" y1="-265.625" x2="265.625" y2="-62.5" id="line_46" class="solid" />
<line x1="281.25" y1="-265.625" x2="265.625" y2="-265.625" id="line_47" class="solid" />
<line x1="234.375" y1="-62.5" x2="234.375" y2="-312.5" id="line_48" class="solid" />
<line x1="218.75" y1="-62.5" x2="234.375" y2="-62.5" id="line_49" class="solid" />
<line x1="218.75" y1="-312.5" x2="218.75" y2="-62.5" id="line_50" class="solid" />
<line x1="234.375" y1="-312.5" x2="218.75" y2="-312.5" id="line_51" class="solid" />
<line x1="796.875" y1="-31.25" x2="796.875" y2="218.75" id="line_52" class="solid" />
<line x1="796.875" y1="218.75" x2="812.5" y2="218.75" id="line_53" class="solid" />
<line x1="812.5" y1="218.75" x2="812.5" y2="-31.25" id="line_54" class="solid" />
<line x1="812.5" y1="-31.25" x2="796.875" y2="-31.25" id="line_55" class="solid" />
<line x1="765.625" y1="171.875" x2="765.625" y2="-31.25" id="line_56" class="solid" />
<line x1="750.0" y1="171.875" x2="765.625" y2="171.875" id="line_57" class="solid" />
<line x1="750.0" y1="-31.25" x2="750.0" y2="171.875" id="line_58" class="solid" />
<line x1="765.625" y1="-31.25" x2="750.0" y2="-31.25" id="line_59" class="solid" />
<line x1="718.75" y1="125.0" x2="718.75" y2="-31.25" id="line_60" class="solid" />
<line x1="703.125" y1="125.0" x2="718.75" y2="125.0" id="line_61" class="solid" />
<line x1="703.125" y1="-31.25" x2="703.125" y2="125.0" id="line_62" class="solid" />
<line x1="718.75" y1="-31.25" x2="703.125" y2="-31.25" id="line_63" class="solid" />
<line x1="781.25" y1="234.375" x2="531.25" y2="234.375" id="line_64" class="solid" />
<line x1="531.25" y1="234.375" x2="531.25" y2="250.0" id="line_65" class="solid" />
<line x1="531.25" y1="250.0" x2="781.25" y2="250.0" id="line_66" class="solid" />
<line x1="781.25" y1="250.0" x2="781.25" y2="234.375" id="line_67" class="solid" />
<line x1="734.375" y1="203.125" x2="734.375" y2="187.5" id="line_68" class="solid" />
<line x1="734.375" y1="187.5" x2="531.25" y2="187.5" id="line_69" class="solid" />
<line x1="531.25" y1="187.5" x2="531.25" y2="203.125" id="line_70" class="solid" />
<line x1="531.25" y1="203.125" x2="734.375" y2="203.125" id="line_71" class="solid" />
<line x1="687.5" y1="156.25" x2="687.5" y2="140.625" id="line_72" class="solid" />
<line x1="531.25" y1="156.25" x2="687.5" y2="156.25" id="line_73" class="solid" />
<line x1="531.25" y1="140.625" x2="531.25" y2="156.25" id="line_74" class="solid" />
<line x1="687.5" y1="140.625" x2="531.25" y2="140.625" id="line_75" class="solid" />
<line x1="500.0" y1="234.375" x2="250.0" y2="234.375" id="line_76" class="solid" />
<line x1="250.0" y1="234.375" x2="250.0" y2="250.0" id="line_77" class="solid" />
<line x1="250.0" y1="250.0" x2="500.0" y2="250.0" id="line_78" class="solid" />
<line x1="500.0" y1="250.0" x2="500.0" y2="234.375" id="line_79" class="solid" />
<line x1="500.0" y1="187.5" x2="296.875" y2="187.5" id="line_80" class="solid" />
<line x1="296.875" y1="187.5" x2="296.875" y2="203.125" id="line_81" class="solid" />
<line x1="296.875" y1="203.125" x2="500.0" y2="203.125" id="line_82" class="solid" />
<line x1="500.0" y1="203.125" x2="500.0" y2="187.5" id="line_83" class="solid" />
<line x1="500.0" y1="140.625" x2="343.75" y2="140.625" id="line_84" class="solid" />
<line x1="343.75" y1="140.625" x2="343.75" y2="156.25" id="line_85" class="solid" />
<line x1="343.75" y1="156.25" x2="500.0" y2="156.25" id="line_86" class="solid" />
<line x1="500.0" y1="156.25" x2="500.0" y2="140.625" id="line_87" class="solid" />
<line x1="328.125" y1="125.0" x2="328.125" y2="-31.25" id="line_88" class="solid" />
<line x1="312.5" y1="125.0" x2="328.125" y2="125.0" id="line_89" class="solid" />
<line x1="312.5" y1="-31.25" x2="312.5" y2="125.0" id="line_90" class="solid" />
<line x1="328.125" y1="-31.25" x2="312.5" y2="-31.25" id="line_91" class="solid" />
<line x1="281.25" y1="171.875" x2="281.25" y2="-31.25" id="line_92" class="solid" />
<line x1="265.625" y1="171.875" x2="281.25" y2="171.875" id="line_93" class="solid" />
<line x1="265.625" y1="-31.25" x2="265.625" y2="171.875" id="line_94" class="solid" />
<line x1="281.25" y1="-31.25" x2="265.625" y2="-31.25" id="line_95" class="solid" />
<line x1="234.375" y1="218.75" x2="234.375" y2="-31.25" id="line_96" class="solid" />
<line x1="218.75" y1="218.75" x2="234.375" y2="218.75" id="line_97" class="solid" />
<line x1="218.75" y1="-31.25" x2="218.75" y2="218.75" id="line_98" class="solid" />
<line x1="234.375" y1="-31.25" x2="218.75" y2="-31.25" id="line_99" class="solid" />
<line x1="671.875" y1="-62.5" x2="671.875" y2="-171.875" id="line_160" class="solid" />
<line x1="656.25" y1="-62.5" x2="671.875" y2="-62.5" id="line_161" class="solid" />
<line x1="656.25" y1="-171.875" x2="656.25" y2="-62.5" id="line_162" class="solid" />
<line x1="671.875" y1="-171.875" x2="656.25" y2="-171.875" id="line_163" class="solid" />
<line x1="671.875" y1="78.125" x2="671.875" y2="-31.25" id="line_164" class="solid" />
<line x1="656.25" y1="78.125" x2="671.875" y2="78.125" id="line_165" class="solid" />
<line x1="656.25" y1="-31.25" x2="656.25" y2="78.125" id="line_166" class="solid" />
<line x1="671.875" y1="-31.25" x2="656.25" y2="-31.25" id="line_167" class="solid" />
<line x1="640.625" y1="-203.125" x2="531.25" y2="-203.125" id="line_168" class="solid" />
<line x1="640.625" y1="-187.5" x2="640.625" y2="-203.125" id="line_169" class="solid" />
<line x1="531.25" y1="-187.5" x2="640.625" y2="-187.5" id="line_170" class="solid" />
<line x1="531.25" y1="-203.125" x2="531.25" y2="-187.5" id="line_171" class="solid" />
<line x1="500.0" y1="-203.125" x2="390.625" y2="-203.125" id="line_172" class="solid" />
<line x1="390.625" y1="-203.125" x2="390.625" y2="-187.5" id="line_173" class="solid" />
<line x1="390.625" y1="-187.5" x2="500.0" y2="-187.5" id="line_174" class="solid" />
<line x1="500.0" y1="-187.5" x2="500.0" y2="-203.125" id="line_175" class="solid" />
<line x1="375.0" y1="-62.5" x2="375.0" y2="-171.875" id="line_176" class="solid" />
<line x1="359.375" y1="-62.5" x2="375.0" y2="-62.5" id="line_177" class="solid" />
<line x1="359.375" y1="-171.875" x2="359.375" y2="-62.5" id="line_178" class="solid" />
<line x1="375.0" y1="-171.875" x2="359.375" y2="-171.875" id="line_179" class="solid" />
<line x1="359.375" y1="-31.25" x2="359.375" y2="78.125" id="line_180" class="solid" />
<line x1="359.375" y1="78.125" x2="375.0" y2="78.125" id="line_181" class="solid" />
<line x1="375.0" y1="78.125" x2="375.0" y2="-31.25" id="line_182" class="solid" />
<line x1="375.0" y1="-31.25" x2="359.375" y2="-31.25" id="line_183" class="solid" />
<line x1="531.25" y1="93.75" x2="531.25" y2="109.375" id="line_184" class="solid" />
<line x1="531.25" y1="109.375" x2="640.625" y2="109.375" id="line_185" class="solid" />
<line x1="640.625" y1="109.375" x2="640.625" y2="93.75" id="line_186" class="solid" />
<line x1="640.625" y1="93.75" x2="531.25" y2="93.75" id="line_187" class="solid" />
<line x1="500.0" y1="109.375" x2="500.0" y2="93.75" id="line_188" class="solid" />
<line x1="390.625" y1="109.375" x2="500.0" y2="109.375" id="line_189" class="solid" />
<line x1="390.625" y1="93.75" x2="390.625" y2="109.375" id="line_190" class="solid" />
<line x1="500.0" y1="93.75" x2="390.625" y2="93.75" id="line_191" class="solid" />
<line x1="500.0" y1="-62.5" x2="500.0" y2="-31.25" id="line_192" class="solid" />
<line x1="500.0" y1="-31.25" x2="531.25" y2="-31.25" id="line_193" class="solid" />
<line x1="531.25" y1="-31.25" x2="531.25" y2="-39.0625" id="line_194" class="solid" />
<line x1="531.25" y1="-62.5" x2="500.0" y2="-62.5" id="line_195" class="solid" />
<line x1="531.25" y1="-54.6875" x2="531.25" y2="-62.5" id="line_220" class="solid" />
<line x1="523.4375" y1="-54.6875" x2="531.25" y2="-54.6875" id="line_221" class="solid" />
<line x1="523.4375" y1="-39.0625" x2="523.4375" y2="-54.6875" id="line_222" class="solid" />
<line x1="531.25" y1="-39.0625" x2="523.4375" y2="-39.0625" id="line_224" class="solid" />
<line x1="875.0" y1="-93.75" x2="875.0" y2="0.0" id="line_226" class="solid" />
<line x1="875.0" y1="0.0" x2="875.0" y2="312.5" id="line_228" class="solid" />
<line x1="468.75" y1="-406.25" x2="562.5" y2="-406.25" id="line_230" class="solid" />
<line x1="562.5" y1="-406.25" x2="875.0" y2="-406.25" id="line_232" class="solid" />
<line x1="156.25" y1="-93.75" x2="156.25" y2="-406.25" id="line_234" class="solid" />
<line x1="156.25" y1="0.0" x2="156.25" y2="-93.75" id="line_236" class="solid" />
<line x1="562.5" y1="312.5" x2="468.75" y2="312.5" id="line_238" class="solid" />
<line x1="468.75" y1="312.5" x2="156.25" y2="312.5" id="line_240" class="solid" />
<!-- end group: "border_solid" -->
</g>
<!-- end group: "borders" -->
</g>
<g id="objects">
<g id="objects_sound">
<use xlink:href="../resources/svg/common.svg#sound" x="516.6015625" y="-179.6875" id="object_21" class="sound sound-22" />
<use xlink:href="../resources/svg/common.svg#sound" x="386.71875" y="-176.7578125" id="object_22" class="sound sound-22" />
<use xlink:href="../resources/svg/common.svg#sound" x="646.484375" y="-174.8046875" id="object_23" class="sound sound-22" />
<use xlink:href="../resources/svg/common.svg#sound" x="648.4375" y="-46.875" id="object_24" class="sound sound-22" />
<use xlink:href="../resources/svg/common.svg#sound" x="382.8125" y="-44.921875" id="object_25" class="sound sound-22" />
<use xlink:href="../resources/svg/common.svg#sound" x="387.6953125" y="83.984375" id="object_26" class="sound sound-22" />
<use xlink:href="../resources/svg/common.svg#sound" x="516.6015625" y="89.84375" id="object_27" class="sound sound-22" />
<use xlink:href="../resources/svg/common.svg#sound" x="644.53125" y="82.03125" id="object_28" class="sound sound-22" />
<use xlink:href="../resources/svg/common.svg#sound" x="515.625" y="259.765625" id="object_29" class="sound sound-22" />
<use xlink:href="../resources/svg/common.svg#sound" x="238.28125" y="229.4921875" id="object_30" class="sound sound-22" />
<use xlink:href="../resources/svg/common.svg#sound" x="210.9375" y="-45.8984375" id="object_31" class="sound sound-22" />
<use xlink:href="../resources/svg/common.svg#sound" x="237.3046875" y="-324.21875" id="object_32" class="sound sound-22" />
<use xlink:href="../resources/svg/common.svg#sound" x="514.6484375" y="-351.5625" id="object_33" class="sound sound-22" />
<use xlink:href="../resources/svg/common.svg#sound" x="792.96875" y="-323.2421875" id="object_34" class="sound sound-22" />
<use xlink:href="../resources/svg/common.svg#sound" x="821.2890625" y="-46.875" id="object_35" class="sound sound-22" />
<use xlink:href="../resources/svg/common.svg#sound" x="791.9921875" y="227.5390625" id="object_36" class="sound sound-22" />
<use xlink:href="../resources/svg/common.svg#sound" x="525.390625" y="-48.828125" id="object_37" class="sound sound-20" />
<!-- end group: "objects_sound" -->
</g>
<g id="objects_item">
<use xlink:href="../resources/svg/common.svg#item" x="734.43603515625" y="17.303466796875" id="object_4" class="item item-1" />
<use xlink:href="../resources/svg/common.svg#item" x="594.085693359375" y="126.89208984375" id="object_5" class="item item-1" transform="rotate(90.0 594.085693359375 126.89208984375)" />
<use xlink:href="../resources/svg/common.svg#item" x="251.861572265625" y="-136.505126953125" id="object_6" class="item item-3" />
<use xlink:href="../resources/svg/common.svg#item" x="615.234375" y="221.099853515625" id="object_7" class="item item-3" />
<use xlink:href="../resources/svg/common.svg#item" x="440.277099609375" y="-217.254638671875" id="object_8" class="item item-3" />
<use xlink:href="../resources/svg/common.svg#item" x="782.501220703125" y="63.446044921875" id="object_9" class="item item-5" />
<use xlink:href="../resources/svg/common.svg#item" x="296.08154296875" y="30.76171875" id="object_10" class="item item-1" />
<use xlink:href="../resources/svg/common.svg#item" x="515.2587890625" y="-155.731201171875" id="object_11" class="item item-8" transform="rotate(90.0 515.2587890625 -155.731201171875)" />
<use xlink:href="../resources/svg/common.svg#item" x="519.10400390625" y="59.600830078125" id="object_12" class="item item-1" />
<use xlink:href="../resources/svg/common.svg#item" x="351.5625" y="-374.0234375" id="object_13" class="item item-1" transform="rotate(270.0 351.5625 -374.0234375)" />
<use xlink:href="../resources/svg/common.svg#item" x="187.5" y="111.328125" id="object_14" class="item item-1" />
<use xlink:href="../resources/svg/common.svg#item" x="687.5" y="281.25" id="object_15" class="item item-5" transform="rotate(90.0 687.5 281.25)" />
<use xlink:href="../resources/svg/common.svg#item" x="844.7265625" y="-194.3359375" id="object_16" class="item item-3" />
<use xlink:href="../resources/svg/common.svg#item" x="542.96875" y="-46.875" id="object_20" class="item item-27" />
<!-- end group: "objects_item" -->
</g>
<g id="objects_player">
<use xlink:href="../resources/svg/common.svg#monster" x="405.670166015625" y="-311.46240234375" id="object_0" class="player" transform="rotate(180.0 405.670166015625 -311.46240234375)" />
<use xlink:href="../resources/svg/common.svg#monster" x="596.00830078125" y="174.957275390625" id="object_1" class="player" />
<use xlink:href="../resources/svg/common.svg#monster" x="342.22412109375" y="-101.898193359375" id="object_2" class="player" transform="rotate(268.59375 342.22412109375 -101.898193359375)" />
<use xlink:href="../resources/svg/common.svg#monster" x="784.423828125" y="-78.826904296875" id="object_3" class="player" transform="rotate(90.0 784.423828125 -78.826904296875)" />
<use xlink:href="../resources/svg/common.svg#monster" x="680.6640625" y="-375.9765625" id="object_17" class="player" transform="rotate(180.0 680.6640625 -375.9765625)" />
<use xlink:href="../resources/svg/common.svg#monster" x="349.609375" y="280.2734375" id="object_18" class="player" />
<use xlink:href="../resources/svg/common.svg#monster" x="689.453125" y="-89.84375" id="object_19" class="player" transform="rotate(270.0 689.453125 -89.84375)" />
<!-- end group: "objects_player" -->
</g>
<!-- end group: "objects" -->
</g>
<g id="panels">
<use xlink:href="../resources/svg/common.svg#panel" x="523.4375" y="-46.875" id="side_80" class="panel-shield_refuel" />
<!-- end group: "panels" -->
</g>

<script xlink:href="../resources/js/level.js" ></script>
</svg>