<?xml version="1.0" encoding="UTF-8"?>
<!-- generated by map2svg: github.com/fracai/marathon-svg -->
<svg xmlns="http://www.w3.org/2000/svg" xmlns:xlink="http://www.w3.org/1999/xlink" version="1.1"
    viewBox="-125.0 -281.25 781.25 656.25">
<link xmlns="http://www.w3.org/1999/xhtml" rel="stylesheet" href="../resources/css/styles.css" type="text/css" />
<style id="dynamic-style" />
<g id="background-grid">
<defs>
<pattern id="grid_minor" width="3.125" height="3.125" patternUnits="userSpaceOnUse">
<path d="M 3.125 0 L 0 0 0 3.125" fill="none" class="grid_minor" />
</pattern>
<pattern id="grid_major" width="31.25" height="31.25" patternUnits="userSpaceOnUse">
<rect width="31.25" height="31.25" fill="url(#grid_minor)"/>
<path d="M 31.25 0 L 0 0 0 31.25" fill="none" class="grid_major" />
</pattern>
</defs>
<rect x="-1000" y="-1000" width="2000" height="2000" fill="url(#grid_major)" />
<line x1="0" y1="1000" x2="0" y2="-1000" class="grid_origin" />
<line x1="1000" y1="0" x2="-1000" y2="0" class="grid_origin" />
<!-- end group: "background-grid" -->
</g>
<g id="polygons">
<polygon points="531.25,0.0 593.75,-31.25 593.75,125.0 531.25,93.75" id="poly_0" class="plain" />
<polygon points="531.25,125.0 593.75,156.25 562.5,187.5 468.75,281.25 437.5,312.5 406.25,250.0" id="poly_1" class="plain" />
<polygon points="531.25,-31.25 593.75,-62.5 593.75,-31.25 531.25,0.0" id="poly_2" class="plain" />
<polygon points="531.25,125.0 531.25,93.75 593.75,125.0 593.75,156.25" id="poly_3" class="plain" />
<polygon points="406.25,-156.25 437.5,-218.75 468.75,-187.5 562.5,-93.75 593.75,-62.5 531.25,-31.25" id="poly_4" class="plain" />
<polygon points="312.5,-218.75 437.5,-218.75 406.25,-156.25 343.75,-156.25" id="poly_5" class="plain" />
<polygon points="281.25,-187.5 312.5,-218.75 343.75,-156.25 312.5,-125.0" id="poly_6" class="plain" />
<polygon points="281.25,-187.5 312.5,-125.0 312.5,0.0 281.25,-31.25" id="poly_7" class="plain" />
<polygon points="218.75,0.0 250.0,-31.25 281.25,-31.25 312.5,0.0 281.25,31.25 250.0,31.25" id="poly_8" class="plain" />
<polygon points="218.75,0.0 250.0,31.25 250.0,93.75 218.75,109.375" id="poly_9" class="plain" />
<polygon points="281.25,31.25 312.5,0.0 312.5,140.625 281.25,93.75" id="poly_11" class="plain" />
<polygon points="281.25,156.25 312.5,140.625 312.5,218.75 281.25,281.25" id="poly_12" class="plain" />
<polygon points="218.75,109.375 250.0,93.75 281.25,93.75 312.5,140.625 281.25,156.25 250.0,156.25" id="poly_13" class="plain" />
<polygon points="312.5,218.75 375.0,218.75 406.25,250.0 437.5,312.5 312.5,312.5 281.25,281.25" id="poly_14" class="plain" />
<polygon points="250.0,281.25 281.25,281.25 312.5,312.5 218.75,312.5" id="poly_15" class="plain" />
<polygon points="218.75,-125.0 250.0,-187.5 250.0,-31.25 218.75,0.0" id="poly_16" class="plain" />
<polygon points="218.75,-218.75 250.0,-187.5 218.75,-125.0 187.5,-156.25" id="poly_17" class="plain" />
<polygon points="218.75,-218.75 312.5,-218.75 281.25,-187.5 250.0,-187.5" id="poly_18" class="plain" />
<polygon points="93.75,-218.75 218.75,-218.75 187.5,-156.25 125.0,-156.25" id="poly_19" class="plain" />
<polygon points="62.5,-187.5 93.75,-218.75 125.0,-156.25 0.0,-31.25 -62.5,-62.5 -31.25,-93.75" id="poly_20" class="plain" />
<polygon points="-31.25,187.5 -62.5,156.25 0.0,125.0 125.0,250.0 93.75,312.5 62.5,281.25" id="poly_21" class="plain" />
<polygon points="125.0,250.0 156.25,218.75 218.75,218.75 250.0,281.25 218.75,312.5 93.75,312.5" id="poly_22" class="plain" />
<polygon points="218.75,109.375 250.0,156.25 250.0,281.25 218.75,218.75" id="poly_23" class="plain" />
<polygon points="593.75,-31.25 625.0,-31.25 625.0,125.0 593.75,125.0" id="poly_30" class="platform" />
<polygon points="-93.75,-31.25 -62.5,-31.25 -62.5,125.0 -93.75,125.0" id="poly_39" class="platform" />
<polygon points="-62.5,-31.25 -62.5,-62.5 0.0,-31.25 0.0,0.0 0.0,93.75 0.0,125.0 -62.5,156.25 -62.5,125.0" id="poly_68" class="plain" />
<polygon points="523.4375,0.0 531.25,0.0 531.25,93.75 523.4375,93.75" id="poly_60" class="plain" />
<polygon points="0.0,0.0 7.8125,0.0 7.8125,93.75 0.0,93.75" id="poly_69" class="plain" />
<polygon points="515.625,0.0 523.4375,0.0 523.4375,93.75 515.625,93.75" id="poly_61" class="plain" />
<polygon points="7.8125,0.0 15.625,0.0 15.625,93.75 7.8125,93.75" id="poly_70" class="plain" />
<polygon points="507.8125,0.0 515.625,0.0 515.625,93.75 507.8125,93.75" id="poly_62" class="plain" />
<polygon points="15.625,0.0 23.4375,0.0 23.4375,93.75 15.625,93.75" id="poly_72" class="plain" />
<polygon points="500.0,0.0 507.8125,0.0 507.8125,93.75 500.0,93.75" id="poly_63" class="plain" />
<polygon points="23.4375,0.0 31.25,0.0 31.25,93.75 23.4375,93.75" id="poly_73" class="plain" />
<polygon points="78.125,-46.875 78.125,109.375 31.25,93.75 31.25,0.0" id="poly_51" class="plain" />
<polygon points="453.125,-46.875 500.0,0.0 500.0,93.75 453.125,109.375" id="poly_59" class="plain" />
<polygon points="156.25,0.0 187.5,-31.25 218.75,0.0 218.75,109.375 187.5,93.75 156.25,62.5" id="poly_48" class="plain" />
<polygon points="187.5,-93.75 218.75,-125.0 218.75,0.0 187.5,-31.25" id="poly_49" class="plain" />
<polygon points="156.25,-125.0 125.0,-156.25 187.5,-156.25 218.75,-125.0 187.5,-93.75" id="poly_50" class="plain" />
<polygon points="187.5,156.25 187.5,93.75 218.75,109.375 218.75,218.75" id="poly_52" class="plain" />
<polygon points="156.25,187.5 187.5,156.25 218.75,218.75 156.25,218.75" id="poly_53" class="plain" />
<polygon points="312.5,140.625 343.75,156.25 375.0,187.5 375.0,218.75 312.5,218.75" id="poly_54" class="plain" />
<polygon points="312.5,0.0 343.75,93.75 343.75,156.25 312.5,140.625" id="poly_55" class="plain" />
<polygon points="312.5,0.0 343.75,-31.25 375.0,0.0 375.0,62.5 343.75,93.75" id="poly_56" class="plain" />
<polygon points="312.5,-125.0 343.75,-93.75 343.75,-31.25 312.5,0.0" id="poly_57" class="plain" />
<polygon points="312.5,-125.0 343.75,-156.25 406.25,-156.25 375.0,-125.0 343.75,-93.75" id="poly_58" class="plain" />
<polygon points="531.25,-31.25 531.25,0.0 523.4375,0.0 515.625,0.0 507.8125,0.0 500.0,0.0" id="poly_64" class="plain" />
<polygon points="453.125,-46.875 375.0,-125.0 406.25,-156.25 531.25,-31.25 500.0,0.0" id="poly_65" class="plain" />
<polygon points="500.0,93.75 507.8125,93.75 515.625,93.75 523.4375,93.75 531.25,93.75 531.25,125.0" id="poly_66" class="plain" />
<polygon points="500.0,93.75 531.25,125.0 406.25,250.0 375.0,218.75 375.0,187.5 453.125,109.375" id="poly_67" class="plain" />
<polygon points="0.0,93.75 7.8125,93.75 15.625,93.75 23.4375,93.75 31.25,93.75 0.0,125.0" id="poly_71" class="plain" />
<polygon points="0.0,-31.25 31.25,0.0 23.4375,0.0 15.625,0.0 7.8125,0.0 0.0,0.0" id="poly_74" class="plain" />
<polygon points="0.0,-31.25 125.0,-156.25 156.25,-125.0 78.125,-46.875 31.25,0.0" id="poly_75" class="plain" />
<polygon points="31.25,93.75 78.125,109.375 156.25,187.5 156.25,218.75 125.0,250.0 0.0,125.0" id="poly_76" class="plain" />
<polygon points="250.0,31.25 281.25,31.25 281.25,93.75 250.0,93.75" id="poly_10" class="hill" />
<polygon points="93.75,312.5 218.75,312.5 312.5,312.5 437.5,312.5 468.75,343.75 93.75,343.75" id="poly_24" class="plain" />
<polygon points="437.5,312.5 468.75,281.25 500.0,312.5 468.75,343.75" id="poly_25" class="plain" />
<polygon points="500.0,312.5 562.5,281.25 593.75,312.5 562.5,343.75 468.75,343.75" id="poly_26" class="plain" />
<polygon points="593.75,218.75 625.0,187.5 625.0,281.25 593.75,312.5 562.5,281.25" id="poly_27" class="plain" />
<polygon points="562.5,187.5 593.75,156.25 625.0,187.5 593.75,218.75" id="poly_28" class="plain" />
<polygon points="593.75,125.0 625.0,125.0 625.0,187.5 593.75,156.25" id="poly_29" class="plain" />
<polygon points="-93.75,-93.75 -62.5,-125.0 -31.25,-93.75 -62.5,-62.5" id="poly_31" class="plain" />
<polygon points="-93.75,-187.5 -31.25,-250.0 -31.25,-187.5 -62.5,-125.0 -93.75,-93.75" id="poly_32" class="plain" />
<polygon points="-31.25,-250.0 93.75,-250.0 31.25,-218.75 -31.25,-187.5" id="poly_33" class="plain" />
<polygon points="31.25,-218.75 93.75,-250.0 93.75,-218.75 62.5,-187.5" id="poly_34" class="plain" />
<polygon points="31.25,312.5 62.5,281.25 93.75,312.5 93.75,343.75" id="poly_35" class="plain" />
<polygon points="-62.5,312.5 -31.25,281.25 31.25,312.5 93.75,343.75 -31.25,343.75" id="poly_36" class="plain" />
<polygon points="-93.75,187.5 -62.5,218.75 -31.25,281.25 -62.5,312.5 -93.75,281.25" id="poly_37" class="plain" />
<polygon points="-93.75,125.0 -62.5,125.0 -62.5,156.25 -93.75,187.5" id="poly_38" class="plain" />
<polygon points="-93.75,-93.75 -62.5,-62.5 -62.5,-31.25 -93.75,-31.25" id="poly_40" class="plain" />
<polygon points="93.75,-250.0 468.75,-250.0 437.5,-218.75 312.5,-218.75 218.75,-218.75 93.75,-218.75" id="poly_41" class="plain" />
<polygon points="468.75,-250.0 500.0,-218.75 468.75,-187.5 437.5,-218.75" id="poly_42" class="plain" />
<polygon points="468.75,-250.0 562.5,-250.0 593.75,-218.75 562.5,-187.5 500.0,-218.75" id="poly_43" class="plain" />
<polygon points="593.75,-218.75 625.0,-187.5 625.0,-93.75 593.75,-125.0 562.5,-187.5" id="poly_44" class="plain" />
<polygon points="593.75,-125.0 625.0,-93.75 593.75,-62.5 562.5,-93.75" id="poly_45" class="plain" />
<polygon points="593.75,-62.5 625.0,-93.75 625.0,-31.25 593.75,-31.25" id="poly_46" class="plain" />
<polygon points="-93.75,187.5 -62.5,156.25 -31.25,187.5 -62.5,218.75" id="poly_47" class="plain" />
<!-- end group: "polygons" -->
</g>
<g id="borders">
<g id="border_plain">
<line x1="531.25" y1="0.0" x2="593.75" y2="-31.25" id="line_108" class="plain" />
<line x1="531.25" y1="-31.25" x2="593.75" y2="-62.5" id="line_109" class="plain" />
<line x1="531.25" y1="125.0" x2="593.75" y2="156.25" id="line_110" class="plain" />
<line x1="593.75" y1="125.0" x2="531.25" y2="93.75" id="line_111" class="plain" />
<line x1="437.5" y1="312.5" x2="406.25" y2="250.0" id="line_112" class="plain" />
<line x1="312.5" y1="312.5" x2="281.25" y2="281.25" id="line_114" class="plain" />
<line x1="218.75" y1="312.5" x2="250.0" y2="281.25" id="line_116" class="plain" />
<line x1="218.75" y1="-218.75" x2="250.0" y2="-187.5" id="line_118" class="plain" />
<line x1="281.25" y1="-187.5" x2="312.5" y2="-218.75" id="line_120" class="plain" />
<line x1="312.5" y1="-125.0" x2="281.25" y2="-187.5" id="line_121" class="plain" />
<line x1="343.75" y1="-156.25" x2="312.5" y2="-218.75" id="line_122" class="plain" />
<line x1="406.25" y1="-156.25" x2="437.5" y2="-218.75" id="line_123" class="plain" />
<line x1="312.5" y1="218.75" x2="281.25" y2="281.25" id="line_124" class="plain" />
<line x1="281.25" y1="156.25" x2="312.5" y2="140.625" id="line_126" class="plain" />
<line x1="312.5" y1="140.625" x2="281.25" y2="93.75" id="line_127" class="plain" />
<line x1="250.0" y1="93.75" x2="218.75" y2="109.375" id="line_129" class="plain" />
<line x1="250.0" y1="156.25" x2="218.75" y2="109.375" id="line_130" class="plain" />
<line x1="250.0" y1="31.25" x2="218.75" y2="0.0" id="line_132" class="plain" />
<line x1="218.75" y1="0.0" x2="250.0" y2="-31.25" id="line_133" class="plain" />
<line x1="312.5" y1="0.0" x2="281.25" y2="-31.25" id="line_135" class="plain" />
<line x1="312.5" y1="0.0" x2="281.25" y2="31.25" id="line_136" class="plain" />
<line x1="218.75" y1="218.75" x2="250.0" y2="281.25" id="line_137" class="plain" />
<line x1="125.0" y1="250.0" x2="93.75" y2="312.5" id="line_138" class="plain" />
<line x1="-62.5" y1="156.25" x2="0.0" y2="125.0" id="line_139" class="plain" />
<line x1="0.0" y1="-31.25" x2="-62.5" y2="-62.5" id="line_140" class="plain" />
<line x1="125.0" y1="-156.25" x2="93.75" y2="-218.75" id="line_141" class="plain" />
<line x1="187.5" y1="-156.25" x2="218.75" y2="-218.75" id="line_142" class="plain" />
<line x1="218.75" y1="-125.0" x2="250.0" y2="-187.5" id="line_143" class="plain" />
<line x1="562.5" y1="281.25" x2="593.75" y2="312.5" id="line_145" class="plain" />
<line x1="500.0" y1="312.5" x2="468.75" y2="343.75" id="line_147" class="plain" />
<line x1="593.75" y1="218.75" x2="625.0" y2="187.5" id="line_149" class="plain" />
<line x1="593.75" y1="156.25" x2="625.0" y2="187.5" id="line_150" class="plain" />
<line x1="437.5" y1="312.5" x2="468.75" y2="343.75" id="line_151" class="plain" />
<line x1="93.75" y1="343.75" x2="93.75" y2="312.5" id="line_152" class="plain" />
<line x1="93.75" y1="343.75" x2="31.25" y2="312.5" id="line_154" class="plain" />
<line x1="-62.5" y1="312.5" x2="-31.25" y2="281.25" id="line_156" class="plain" />
<line x1="-93.75" y1="187.5" x2="-62.5" y2="218.75" id="line_158" class="plain" />
<line x1="-62.5" y1="156.25" x2="-93.75" y2="187.5" id="line_159" class="plain" />
<line x1="-62.5" y1="-62.5" x2="-93.75" y2="-93.75" id="line_161" class="plain" />
<line x1="-93.75" y1="-93.75" x2="-62.5" y2="-125.0" id="line_162" class="plain" />
<line x1="-31.25" y1="-250.0" x2="-31.25" y2="-187.5" id="line_163" class="plain" />
<line x1="93.75" y1="-250.0" x2="31.25" y2="-218.75" id="line_164" class="plain" />
<line x1="93.75" y1="-250.0" x2="93.75" y2="-218.75" id="line_165" class="plain" />
<line x1="468.75" y1="-250.0" x2="437.5" y2="-218.75" id="line_168" class="plain" />
<line x1="468.75" y1="-250.0" x2="500.0" y2="-218.75" id="line_169" class="plain" />
<line x1="593.75" y1="-218.75" x2="562.5" y2="-187.5" id="line_171" class="plain" />
<line x1="625.0" y1="-93.75" x2="593.75" y2="-125.0" id="line_173" class="plain" />
<line x1="625.0" y1="-93.75" x2="593.75" y2="-62.5" id="line_174" class="plain" />
<line x1="312.5" y1="0.0" x2="343.75" y2="-31.25" id="line_175" class="plain" />
<line x1="312.5" y1="-125.0" x2="343.75" y2="-93.75" id="line_176" class="plain" />
<line x1="406.25" y1="-156.25" x2="375.0" y2="-125.0" id="line_177" class="plain" />
<line x1="375.0" y1="187.5" x2="375.0" y2="218.75" id="line_178" class="plain" />
<line x1="312.5" y1="140.625" x2="343.75" y2="156.25" id="line_179" class="plain" />
<line x1="312.5" y1="0.0" x2="343.75" y2="93.75" id="line_180" class="plain" />
<line x1="218.75" y1="109.375" x2="187.5" y2="93.75" id="line_181" class="plain" />
<line x1="218.75" y1="218.75" x2="187.5" y2="156.25" id="line_182" class="plain" />
<line x1="156.25" y1="218.75" x2="156.25" y2="187.5" id="line_183" class="plain" />
<line x1="156.25" y1="-125.0" x2="125.0" y2="-156.25" id="line_186" class="plain" />
<line x1="187.5" y1="-93.75" x2="218.75" y2="-125.0" id="line_187" class="plain" />
<line x1="187.5" y1="-31.25" x2="218.75" y2="0.0" id="line_188" class="plain" />
<line x1="500.0" y1="0.0" x2="531.25" y2="-31.25" id="line_200" class="plain" />
<line x1="531.25" y1="125.0" x2="500.0" y2="93.75" id="line_201" class="plain" />
<line x1="31.25" y1="93.75" x2="0.0" y2="125.0" id="line_206" class="plain" />
<line x1="0.0" y1="-31.25" x2="31.25" y2="0.0" id="line_207" class="plain" />
<!-- end group: "border_plain" -->
</g>
<g id="border_elevation">
<line x1="-62.5" y1="-62.5" x2="-62.5" y2="-31.25" id="line_0" class="elevation" />
<line x1="-62.5" y1="125.0" x2="-62.5" y2="156.25" id="line_4" class="elevation" />
<line x1="-31.25" y1="187.5" x2="-62.5" y2="156.25" id="line_12" class="elevation" />
<line x1="93.75" y1="312.5" x2="62.5" y2="281.25" id="line_13" class="elevation" />
<line x1="468.75" y1="281.25" x2="437.5" y2="312.5" id="line_23" class="elevation" />
<line x1="593.75" y1="156.25" x2="562.5" y2="187.5" id="line_24" class="elevation" />
<line x1="593.75" y1="125.0" x2="593.75" y2="156.25" id="line_25" class="elevation" />
<line x1="437.5" y1="312.5" x2="312.5" y2="312.5" id="line_27" class="elevation" />
<line x1="593.75" y1="-62.5" x2="593.75" y2="-31.25" id="line_31" class="elevation" />
<line x1="562.5" y1="-93.75" x2="593.75" y2="-62.5" id="line_32" class="elevation" />
<line x1="437.5" y1="-218.75" x2="468.75" y2="-187.5" id="line_41" class="elevation" />
<line x1="312.5" y1="-218.75" x2="437.5" y2="-218.75" id="line_42" class="elevation" />
<line x1="62.5" y1="-187.5" x2="93.75" y2="-218.75" id="line_43" class="elevation" />
<line x1="-62.5" y1="-62.5" x2="-31.25" y2="-93.75" id="line_45" class="elevation" />
<line x1="125.0" y1="-156.25" x2="0.0" y2="-31.25" id="line_52" class="elevation" />
<line x1="0.0" y1="-31.25" x2="0.0" y2="0.0" id="line_53" class="elevation" />
<line x1="0.0" y1="93.75" x2="0.0" y2="125.0" id="line_54" class="elevation" />
<line x1="7.8125" y1="93.75" x2="0.0" y2="93.75" id="line_55" class="elevation" />
<line x1="31.25" y1="93.75" x2="31.25" y2="0.0" id="line_56" class="elevation" />
<line x1="0.0" y1="125.0" x2="125.0" y2="250.0" id="line_57" class="elevation" />
<line x1="125.0" y1="250.0" x2="156.25" y2="218.75" id="line_58" class="elevation" />
<line x1="156.25" y1="218.75" x2="218.75" y2="218.75" id="line_59" class="elevation" />
<line x1="218.75" y1="218.75" x2="218.75" y2="109.375" id="line_60" class="elevation" />
<line x1="218.75" y1="-125.0" x2="187.5" y2="-156.25" id="line_61" class="elevation" />
<line x1="187.5" y1="-156.25" x2="125.0" y2="-156.25" id="line_62" class="elevation" />
<line x1="312.5" y1="-125.0" x2="312.5" y2="0.0" id="line_73" class="elevation" />
<line x1="250.0" y1="31.25" x2="250.0" y2="93.75" id="line_82" class="elevation" />
<line x1="281.25" y1="93.75" x2="250.0" y2="93.75" id="line_83" class="elevation" />
<line x1="281.25" y1="31.25" x2="281.25" y2="93.75" id="line_84" class="elevation" />
<line x1="281.25" y1="31.25" x2="250.0" y2="31.25" id="line_85" class="elevation" />
<line x1="343.75" y1="-156.25" x2="312.5" y2="-125.0" id="line_86" class="elevation" />
<line x1="406.25" y1="-156.25" x2="343.75" y2="-156.25" id="line_87" class="elevation" />
<line x1="531.25" y1="-31.25" x2="406.25" y2="-156.25" id="line_88" class="elevation" />
<line x1="531.25" y1="0.0" x2="531.25" y2="-31.25" id="line_89" class="elevation" />
<line x1="523.4375" y1="0.0" x2="531.25" y2="0.0" id="line_90" class="elevation" />
<line x1="500.0" y1="0.0" x2="500.0" y2="93.75" id="line_91" class="elevation" />
<line x1="507.8125" y1="93.75" x2="500.0" y2="93.75" id="line_92" class="elevation" />
<line x1="531.25" y1="93.75" x2="531.25" y2="0.0" id="line_93" class="elevation" />
<line x1="531.25" y1="125.0" x2="531.25" y2="93.75" id="line_94" class="elevation" />
<line x1="406.25" y1="250.0" x2="531.25" y2="125.0" id="line_95" class="elevation" />
<line x1="375.0" y1="218.75" x2="406.25" y2="250.0" id="line_96" class="elevation" />
<line x1="312.5" y1="218.75" x2="375.0" y2="218.75" id="line_97" class="elevation" />
<line x1="312.5" y1="312.5" x2="218.75" y2="312.5" id="line_113" class="elevation" />
<line x1="218.75" y1="312.5" x2="93.75" y2="312.5" id="line_115" class="elevation" />
<line x1="93.75" y1="-218.75" x2="218.75" y2="-218.75" id="line_117" class="elevation" />
<line x1="218.75" y1="-218.75" x2="312.5" y2="-218.75" id="line_119" class="elevation" />
<line x1="312.5" y1="140.625" x2="312.5" y2="218.75" id="line_125" class="elevation" />
<line x1="218.75" y1="109.375" x2="218.75" y2="0.0" id="line_128" class="elevation" />
<line x1="218.75" y1="0.0" x2="218.75" y2="-125.0" id="line_131" class="elevation" />
<line x1="312.5" y1="0.0" x2="312.5" y2="140.625" id="line_134" class="elevation" />
<line x1="78.125" y1="109.375" x2="31.25" y2="93.75" id="line_184" class="elevation" />
<line x1="31.25" y1="0.0" x2="78.125" y2="-46.875" id="line_185" class="elevation" />
<line x1="500.0" y1="93.75" x2="453.125" y2="109.375" id="line_189" class="elevation" />
<line x1="453.125" y1="-46.875" x2="500.0" y2="0.0" id="line_190" class="elevation" />
<line x1="515.625" y1="0.0" x2="523.4375" y2="0.0" id="line_191" class="elevation" />
<line x1="531.25" y1="93.75" x2="523.4375" y2="93.75" id="line_192" class="elevation" />
<line x1="523.4375" y1="93.75" x2="523.4375" y2="0.0" id="line_193" class="elevation" />
<line x1="507.8125" y1="0.0" x2="515.625" y2="0.0" id="line_194" class="elevation" />
<line x1="523.4375" y1="93.75" x2="515.625" y2="93.75" id="line_195" class="elevation" />
<line x1="515.625" y1="93.75" x2="515.625" y2="0.0" id="line_196" class="elevation" />
<line x1="515.625" y1="93.75" x2="507.8125" y2="93.75" id="line_197" class="elevation" />
<line x1="500.0" y1="0.0" x2="507.8125" y2="0.0" id="line_198" class="elevation" />
<line x1="507.8125" y1="93.75" x2="507.8125" y2="0.0" id="line_199" class="elevation" />
<line x1="0.0" y1="0.0" x2="7.8125" y2="0.0" id="line_202" class="elevation" />
<line x1="15.625" y1="93.75" x2="7.8125" y2="93.75" id="line_203" class="elevation" />
<line x1="7.8125" y1="0.0" x2="7.8125" y2="93.75" id="line_204" class="elevation" />
<line x1="0.0" y1="0.0" x2="0.0" y2="93.75" id="line_205" class="elevation" />
<line x1="7.8125" y1="0.0" x2="15.625" y2="0.0" id="line_208" class="elevation" />
<line x1="15.625" y1="0.0" x2="23.4375" y2="0.0" id="line_209" class="elevation" />
<line x1="15.625" y1="0.0" x2="15.625" y2="93.75" id="line_210" class="elevation" />
<line x1="23.4375" y1="0.0" x2="31.25" y2="0.0" id="line_211" class="elevation" />
<line x1="15.625" y1="93.75" x2="23.4375" y2="93.75" id="line_212" class="elevation" />
<line x1="23.4375" y1="93.75" x2="31.25" y2="93.75" id="line_213" class="elevation" />
<line x1="23.4375" y1="0.0" x2="23.4375" y2="93.75" id="line_214" class="elevation" />
<!-- end group: "border_elevation" -->
</g>
<g id="border_solid">
<line x1="-62.5" y1="-31.25" x2="-62.5" y2="125.0" id="line_1" class="solid" />
<line x1="-93.75" y1="-31.25" x2="-62.5" y2="-31.25" id="line_2" class="solid" />
<line x1="-93.75" y1="125.0" x2="-93.75" y2="-31.25" id="line_3" class="solid" />
<line x1="-93.75" y1="125.0" x2="-62.5" y2="125.0" id="line_5" class="solid" />
<line x1="-93.75" y1="187.5" x2="-93.75" y2="125.0" id="line_6" class="solid" />
<line x1="-31.25" y1="187.5" x2="-62.5" y2="218.75" id="line_7" class="solid" />
<line x1="-62.5" y1="218.75" x2="-31.25" y2="281.25" id="line_8" class="solid" />
<line x1="-31.25" y1="281.25" x2="31.25" y2="312.5" id="line_9" class="solid" />
<line x1="31.25" y1="312.5" x2="62.5" y2="281.25" id="line_10" class="solid" />
<line x1="62.5" y1="281.25" x2="-31.25" y2="187.5" id="line_11" class="solid" />
<line x1="-62.5" y1="312.5" x2="-93.75" y2="281.25" id="line_14" class="solid" />
<line x1="93.75" y1="343.75" x2="-31.25" y2="343.75" id="line_15" class="solid" />
<line x1="593.75" y1="312.5" x2="562.5" y2="343.75" id="line_16" class="solid" />
<line x1="625.0" y1="187.5" x2="625.0" y2="281.25" id="line_17" class="solid" />
<line x1="500.0" y1="312.5" x2="562.5" y2="281.25" id="line_18" class="solid" />
<line x1="562.5" y1="281.25" x2="593.75" y2="218.75" id="line_19" class="solid" />
<line x1="593.75" y1="218.75" x2="562.5" y2="187.5" id="line_20" class="solid" />
<line x1="562.5" y1="187.5" x2="468.75" y2="281.25" id="line_21" class="solid" />
<line x1="468.75" y1="281.25" x2="500.0" y2="312.5" id="line_22" class="solid" />
<line x1="593.75" y1="125.0" x2="625.0" y2="125.0" id="line_26" class="solid" />
<line x1="593.75" y1="-31.25" x2="593.75" y2="125.0" id="line_28" class="solid" />
<line x1="593.75" y1="-31.25" x2="625.0" y2="-31.25" id="line_29" class="solid" />
<line x1="625.0" y1="-31.25" x2="625.0" y2="125.0" id="line_30" class="solid" />
<line x1="562.5" y1="-93.75" x2="593.75" y2="-125.0" id="line_33" class="solid" />
<line x1="593.75" y1="-125.0" x2="562.5" y2="-187.5" id="line_34" class="solid" />
<line x1="562.5" y1="-187.5" x2="500.0" y2="-218.75" id="line_35" class="solid" />
<line x1="500.0" y1="-218.75" x2="468.75" y2="-187.5" id="line_36" class="solid" />
<line x1="468.75" y1="-187.5" x2="562.5" y2="-93.75" id="line_37" class="solid" />
<line x1="625.0" y1="-93.75" x2="625.0" y2="-31.25" id="line_38" class="solid" />
<line x1="593.75" y1="-218.75" x2="625.0" y2="-187.5" id="line_39" class="solid" />
<line x1="468.75" y1="-250.0" x2="562.5" y2="-250.0" id="line_40" class="solid" />
<line x1="31.25" y1="-218.75" x2="-31.25" y2="-187.5" id="line_44" class="solid" />
<line x1="-62.5" y1="-125.0" x2="-31.25" y2="-93.75" id="line_46" class="solid" />
<line x1="-31.25" y1="-187.5" x2="-62.5" y2="-125.0" id="line_47" class="solid" />
<line x1="-31.25" y1="-93.75" x2="62.5" y2="-187.5" id="line_48" class="solid" />
<line x1="-31.25" y1="-250.0" x2="93.75" y2="-250.0" id="line_49" class="solid" />
<line x1="-93.75" y1="-187.5" x2="-31.25" y2="-250.0" id="line_50" class="solid" />
<line x1="-93.75" y1="-93.75" x2="-93.75" y2="-187.5" id="line_51" class="solid" />
<line x1="156.25" y1="-125.0" x2="78.125" y2="-46.875" id="line_63" class="solid" />
<line x1="187.5" y1="-93.75" x2="156.25" y2="-125.0" id="line_64" class="solid" />
<line x1="281.25" y1="-187.5" x2="250.0" y2="-187.5" id="line_65" class="solid" />
<line x1="250.0" y1="-187.5" x2="250.0" y2="-31.25" id="line_66" class="solid" />
<line x1="250.0" y1="-31.25" x2="281.25" y2="-31.25" id="line_67" class="solid" />
<line x1="281.25" y1="-31.25" x2="281.25" y2="-187.5" id="line_68" class="solid" />
<line x1="250.0" y1="156.25" x2="250.0" y2="281.25" id="line_69" class="solid" />
<line x1="250.0" y1="281.25" x2="281.25" y2="281.25" id="line_70" class="solid" />
<line x1="281.25" y1="281.25" x2="281.25" y2="156.25" id="line_71" class="solid" />
<line x1="281.25" y1="156.25" x2="250.0" y2="156.25" id="line_72" class="solid" />
<line x1="187.5" y1="-31.25" x2="187.5" y2="-93.75" id="line_74" class="solid" />
<line x1="156.25" y1="0.0" x2="187.5" y2="-31.25" id="line_75" class="solid" />
<line x1="156.25" y1="62.5" x2="156.25" y2="0.0" id="line_76" class="solid" />
<line x1="187.5" y1="93.75" x2="156.25" y2="62.5" id="line_77" class="solid" />
<line x1="187.5" y1="156.25" x2="187.5" y2="93.75" id="line_78" class="solid" />
<line x1="156.25" y1="187.5" x2="187.5" y2="156.25" id="line_79" class="solid" />
<line x1="78.125" y1="109.375" x2="156.25" y2="187.5" id="line_80" class="solid" />
<line x1="78.125" y1="-46.875" x2="78.125" y2="109.375" id="line_81" class="solid" />
<line x1="343.75" y1="156.25" x2="375.0" y2="187.5" id="line_98" class="solid" />
<line x1="375.0" y1="187.5" x2="453.125" y2="109.375" id="line_99" class="solid" />
<line x1="453.125" y1="109.375" x2="453.125" y2="-46.875" id="line_100" class="solid" />
<line x1="453.125" y1="-46.875" x2="375.0" y2="-125.0" id="line_101" class="solid" />
<line x1="375.0" y1="-125.0" x2="343.75" y2="-93.75" id="line_102" class="solid" />
<line x1="343.75" y1="-93.75" x2="343.75" y2="-31.25" id="line_103" class="solid" />
<line x1="343.75" y1="-31.25" x2="375.0" y2="0.0" id="line_104" class="solid" />
<line x1="375.0" y1="0.0" x2="375.0" y2="62.5" id="line_105" class="solid" />
<line x1="375.0" y1="62.5" x2="343.75" y2="93.75" id="line_106" class="solid" />
<line x1="343.75" y1="93.75" x2="343.75" y2="156.25" id="line_107" class="solid" />
<line x1="625.0" y1="281.25" x2="593.75" y2="312.5" id="line_144" class="solid" />
<line x1="562.5" y1="343.75" x2="468.75" y2="343.75" id="line_146" class="solid" />
<line x1="625.0" y1="125.0" x2="625.0" y2="187.5" id="line_148" class="solid" />
<line x1="468.75" y1="343.75" x2="93.75" y2="343.75" id="line_153" class="solid" />
<line x1="-31.25" y1="343.75" x2="-62.5" y2="312.5" id="line_155" class="solid" />
<line x1="-93.75" y1="281.25" x2="-93.75" y2="187.5" id="line_157" class="solid" />
<line x1="-93.75" y1="-31.25" x2="-93.75" y2="-93.75" id="line_160" class="solid" />
<line x1="62.5" y1="-187.5" x2="31.25" y2="-218.75" id="line_166" class="solid" />
<line x1="93.75" y1="-250.0" x2="468.75" y2="-250.0" id="line_167" class="solid" />
<line x1="562.5" y1="-250.0" x2="593.75" y2="-218.75" id="line_170" class="solid" />
<line x1="625.0" y1="-187.5" x2="625.0" y2="-93.75" id="line_172" class="solid" />
<!-- end group: "border_solid" -->
</g>
<!-- end group: "borders" -->
</g>
<g id="objects">
<g id="objects_sound">
<use xlink:href="../resources/svg/common.svg#sound" x="611.328125" y="47.8515625" id="object_52" class="sound sound-5" />
<use xlink:href="../resources/svg/common.svg#sound" x="-76.171875" y="45.8984375" id="object_53" class="sound sound-5" />
<!-- end group: "objects_sound" -->
</g>
<g id="objects_item">
<use xlink:href="../resources/svg/common.svg#item" x="263.671875" y="60.546875" id="object_1" class="item item-8" transform="rotate(329.765625 263.671875 60.546875)" />
<use xlink:href="../resources/svg/common.svg#item" x="263.671875" y="80.078125" id="object_2" class="item item-9" transform="rotate(329.765625 263.671875 80.078125)" />
<use xlink:href="../resources/svg/common.svg#item" x="263.671875" y="41.015625" id="object_3" class="item item-9" transform="rotate(329.765625 263.671875 41.015625)" />
<use xlink:href="../resources/svg/common.svg#item" x="265.625" y="37.109375" id="object_4" class="item item-10" transform="rotate(329.765625 265.625 37.109375)" />
<use xlink:href="../resources/svg/common.svg#item" x="232.421875" y="-80.078125" id="object_5" class="item item-3" transform="rotate(329.765625 232.421875 -80.078125)" />
<use xlink:href="../resources/svg/common.svg#item" x="296.875" y="175.78125" id="object_6" class="item item-3" transform="rotate(329.765625 296.875 175.78125)" />
<use xlink:href="../resources/svg/common.svg#item" x="234.375" y="175.78125" id="object_7" class="item item-1" transform="rotate(329.765625 234.375 175.78125)" />
<use xlink:href="../resources/svg/common.svg#item" x="294.921875" y="-87.890625" id="object_8" class="item item-1" transform="rotate(329.765625 294.921875 -87.890625)" />
<use xlink:href="../resources/svg/common.svg#item" x="167.96875" y="29.296875" id="object_9" class="item item-5" transform="rotate(329.765625 167.96875 29.296875)" />
<use xlink:href="../resources/svg/common.svg#item" x="367.1875" y="27.34375" id="object_10" class="item item-5" transform="rotate(329.765625 367.1875 27.34375)" />
<use xlink:href="../resources/svg/common.svg#item" x="265.625" y="328.125" id="object_11" class="item item-2" transform="rotate(329.765625 265.625 328.125)" />
<use xlink:href="../resources/svg/common.svg#item" x="263.671875" y="-236.328125" id="object_12" class="item item-2" transform="rotate(329.765625 263.671875 -236.328125)" />
<use xlink:href="../resources/svg/common.svg#item" x="-48.828125" y="-207.03125" id="object_13" class="item item-6" transform="rotate(329.765625 -48.828125 -207.03125)" />
<use xlink:href="../resources/svg/common.svg#item" x="582.03125" y="291.015625" id="object_14" class="item item-6" transform="rotate(329.765625 582.03125 291.015625)" />
<use xlink:href="../resources/svg/common.svg#item" x="-46.875" y="304.6875" id="object_15" class="item item-7" transform="rotate(329.765625 -46.875 304.6875)" />
<use xlink:href="../resources/svg/common.svg#item" x="580.078125" y="-205.078125" id="object_16" class="item item-7" transform="rotate(329.765625 580.078125 -205.078125)" />
<use xlink:href="../resources/svg/common.svg#item" x="54.6875" y="41.015625" id="object_17" class="item item-6" transform="rotate(329.765625 54.6875 41.015625)" />
<use xlink:href="../resources/svg/common.svg#item" x="474.609375" y="44.921875" id="object_18" class="item item-6" transform="rotate(329.765625 474.609375 44.921875)" />
<use xlink:href="../resources/svg/common.svg#item" x="162.109375" y="232.421875" id="object_19" class="item item-4" transform="rotate(329.765625 162.109375 232.421875)" />
<use xlink:href="../resources/svg/common.svg#item" x="441.40625" y="-195.3125" id="object_20" class="item item-4" transform="rotate(329.765625 441.40625 -195.3125)" />
<use xlink:href="../resources/svg/common.svg#item" x="-42.96875" y="-68.359375" id="object_21" class="item item-4" transform="rotate(329.765625 -42.96875 -68.359375)" />
<use xlink:href="../resources/svg/common.svg#item" x="574.21875" y="160.15625" id="object_22" class="item item-4" transform="rotate(329.765625 574.21875 160.15625)" />
<use xlink:href="../resources/svg/common.svg#item" x="-42.96875" y="128.90625" id="object_23" class="item item-2" transform="rotate(329.765625 -42.96875 128.90625)" />
<use xlink:href="../resources/svg/common.svg#item" x="353.515625" y="267.578125" id="object_24" class="item item-2" transform="rotate(329.765625 353.515625 267.578125)" />
<use xlink:href="../resources/svg/common.svg#item" x="-52.734375" y="269.53125" id="object_25" class="item item-2" transform="rotate(329.765625 -52.734375 269.53125)" />
<use xlink:href="../resources/svg/common.svg#item" x="544.921875" y="-212.890625" id="object_26" class="item item-2" transform="rotate(329.765625 544.921875 -212.890625)" />
<use xlink:href="../resources/svg/common.svg#item" x="335.9375" y="23.4375" id="object_27" class="item item-7" transform="rotate(329.765625 335.9375 23.4375)" />
<use xlink:href="../resources/svg/common.svg#item" x="193.359375" y="31.25" id="object_28" class="item item-7" transform="rotate(329.765625 193.359375 31.25)" />
<use xlink:href="../resources/svg/common.svg#item" x="269.53125" y="60.546875" id="object_34" class="item item-27" />
<use xlink:href="../resources/svg/common.svg#item" x="255.859375" y="327.1484375" id="object_35" class="item item-22" />
<use xlink:href="../resources/svg/common.svg#item" x="253.90625" y="-237.3046875" id="object_36" class="item item-22" />
<use xlink:href="../resources/svg/common.svg#item" x="40.0390625" y="41.9921875" id="object_37" class="item item-22" />
<use xlink:href="../resources/svg/common.svg#item" x="485.3515625" y="43.9453125" id="object_38" class="item item-22" />
<use xlink:href="../resources/svg/common.svg#item" x="272.4609375" y="71.2890625" id="object_39" class="item item-23" />
<use xlink:href="../resources/svg/common.svg#item" x="271.484375" y="81.0546875" id="object_40" class="item item-23" />
<use xlink:href="../resources/svg/common.svg#item" x="270.5078125" y="51.7578125" id="object_41" class="item item-23" />
<use xlink:href="../resources/svg/common.svg#item" x="274.4140625" y="42.96875" id="object_42" class="item item-23" />
<use xlink:href="../resources/svg/common.svg#item" x="275.390625" y="36.1328125" id="object_43" class="item item-23" />
<use xlink:href="../resources/svg/common.svg#item" x="256.8359375" y="36.1328125" id="object_44" class="item item-23" />
<use xlink:href="../resources/svg/common.svg#item" x="256.8359375" y="45.8984375" id="object_45" class="item item-23" />
<use xlink:href="../resources/svg/common.svg#item" x="256.8359375" y="54.6875" id="object_46" class="item item-23" />
<use xlink:href="../resources/svg/common.svg#item" x="255.859375" y="66.40625" id="object_47" class="item item-23" />
<use xlink:href="../resources/svg/common.svg#item" x="256.8359375" y="80.078125" id="object_48" class="item item-23" />
<use xlink:href="../resources/svg/common.svg#item" x="256.8359375" y="87.890625" id="object_49" class="item item-23" />
<use xlink:href="../resources/svg/common.svg#item" x="267.578125" y="88.8671875" id="object_50" class="item item-23" />
<use xlink:href="../resources/svg/common.svg#item" x="274.4140625" y="89.84375" id="object_51" class="item item-23" />
<!-- end group: "objects_item" -->
</g>
<g id="objects_player">
<use xlink:href="../resources/svg/common.svg#monster" x="464.84375" y="-52.734375" id="object_0" class="player" transform="rotate(329.765625 464.84375 -52.734375)" />
<use xlink:href="../resources/svg/common.svg#monster" x="99.609375" y="158.203125" id="object_29" class="player" transform="rotate(137.109375 99.609375 158.203125)" />
<use xlink:href="../resources/svg/common.svg#monster" x="80.078125" y="-70.3125" id="object_30" class="player" transform="rotate(241.171875 80.078125 -70.3125)" />
<use xlink:href="../resources/svg/common.svg#monster" x="433.59375" y="181.640625" id="object_31" class="player" transform="rotate(37.265625 433.59375 181.640625)" />
<use xlink:href="../resources/svg/common.svg#monster" x="279.296875" y="-234.375" id="object_32" class="player" transform="rotate(90.0 279.296875 -234.375)" />
<use xlink:href="../resources/svg/common.svg#monster" x="279.296875" y="333.984375" id="object_33" class="player" transform="rotate(270.0 279.296875 333.984375)" />
<!-- end group: "objects_player" -->
</g>
<!-- end group: "objects" -->
</g>
<g id="panels">
<!-- end group: "panels" -->
</g>

<script xlink:href="../resources/js/level.js" ></script>
</svg>