<?xml version="1.0" encoding="UTF-8"?>
<!-- generated by map2svg: github.com/fracai/marathon-svg -->
<svg xmlns="http://www.w3.org/2000/svg" xmlns:xlink="http://www.w3.org/1999/xlink" version="1.1"
    viewBox="-62.5 -62.5 468.75 390.625">
<link xmlns="http://www.w3.org/1999/xhtml" rel="stylesheet" href="../resources/css/styles.css" type="text/css" />
<style id="dynamic-style" />
<g id="background-grid">
<defs>
<pattern id="grid_minor" width="3.125" height="3.125" patternUnits="userSpaceOnUse">
<path d="M 3.125 0 L 0 0 0 3.125" fill="none" class="grid_minor" />
</pattern>
<pattern id="grid_major" width="31.25" height="31.25" patternUnits="userSpaceOnUse">
<rect width="31.25" height="31.25" fill="url(#grid_minor)"/>
<path d="M 31.25 0 L 0 0 0 31.25" fill="none" class="grid_major" />
</pattern>
</defs>
<rect x="-1000" y="-1000" width="2000" height="2000" fill="url(#grid_major)" />
<line x1="0" y1="1000" x2="0" y2="-1000" class="grid_origin" />
<line x1="1000" y1="0" x2="-1000" y2="0" class="grid_origin" />
<!-- end group: "background-grid" -->
</g>
<g id="polygons">
<polygon points="93.75,140.625 140.625,140.625 203.125,140.625 250.0,140.625 250.0,203.125 218.75,203.125 125.0,203.125 93.75,203.125" id="poly_0" class="plain" />
<polygon points="140.625,109.375 203.125,109.375 203.125,140.625 140.625,140.625" id="poly_1" class="plain" />
<polygon points="93.75,62.5 125.0,62.5 218.75,62.5 250.0,62.5 250.0,109.375 203.125,109.375 140.625,109.375 93.75,109.375" id="poly_2" class="plain" />
<polygon points="93.75,15.625 125.0,15.625 218.75,15.625 250.0,15.625 250.0,31.25 218.75,31.25 125.0,31.25 93.75,31.25" id="poly_3" class="platform" />
<polygon points="125.0,0.0 218.75,0.0 218.75,15.625 125.0,15.625" id="poly_4" class="platform" />
<polygon points="93.75,234.375 125.0,234.375 218.75,234.375 250.0,234.375 250.0,250.0 218.75,250.0 125.0,250.0 93.75,250.0" id="poly_5" class="platform" />
<polygon points="125.0,250.0 218.75,250.0 218.75,265.625 125.0,265.625" id="poly_6" class="platform" />
<polygon points="125.0,46.875 125.0,31.25 218.75,31.25 218.75,46.875 218.75,62.5 125.0,62.5" id="poly_16" class="plain" />
<polygon points="125.0,203.125 218.75,203.125 218.75,218.75 218.75,234.375 125.0,234.375 125.0,218.75" id="poly_29" class="plain" />
<polygon points="62.5,109.375 70.3125,109.375 70.3125,140.625 62.5,140.625" id="poly_40" class="platform" />
<polygon points="273.4375,109.375 281.25,109.375 281.25,140.625 273.4375,140.625" id="poly_43" class="platform" />
<polygon points="250.0,234.375 281.25,203.125 343.75,203.125 343.75,250.0 250.0,250.0" id="poly_8" class="plain" />
<polygon points="281.25,140.625 281.25,109.375 281.25,62.5 343.75,62.5 343.75,203.125 281.25,203.125" id="poly_9" class="plain" />
<polygon points="250.0,31.25 250.0,15.625 343.75,15.625 343.75,62.5 281.25,62.5" id="poly_10" class="plain" />
<polygon points="0.0,203.125 62.5,203.125 93.75,234.375 93.75,250.0 0.0,250.0" id="poly_11" class="plain" />
<polygon points="0.0,62.5 62.5,62.5 62.5,109.375 62.5,140.625 62.5,203.125 0.0,203.125" id="poly_12" class="plain" />
<polygon points="0.0,15.625 93.75,15.625 93.75,31.25 62.5,62.5 0.0,62.5" id="poly_13" class="plain" />
<polygon points="70.3125,109.375 78.125,109.375 78.125,140.625 70.3125,140.625" id="poly_41" class="plain" />
<polygon points="265.625,109.375 273.4375,109.375 273.4375,140.625 265.625,140.625" id="poly_42" class="plain" />
<polygon points="203.125,109.375 250.0,109.375 265.625,109.375 265.625,140.625 250.0,140.625 203.125,140.625" id="poly_14" class="plain" />
<polygon points="78.125,109.375 93.75,109.375 140.625,109.375 140.625,140.625 93.75,140.625 78.125,140.625" id="poly_15" class="plain" />
<polygon points="70.3125,7.8125 78.125,15.625 62.5,31.25 54.6875,23.4375" id="poly_19" class="platform" />
<polygon points="273.4375,7.8125 289.0625,23.4375 281.25,31.25 265.625,15.625" id="poly_21" class="platform" />
<polygon points="265.625,250.0 281.25,234.375 289.0625,242.1875 273.4375,257.8125" id="poly_25" class="platform" />
<polygon points="54.6875,242.1875 62.5,234.375 78.125,250.0 70.3125,257.8125" id="poly_33" class="platform" />
<polygon points="70.3125,265.625 125.0,265.625 218.75,265.625 273.4375,265.625 343.75,296.875 0.0,296.875" id="poly_7" class="plain" />
<polygon points="62.5,31.25 78.125,15.625 109.375,46.875 93.75,62.5" id="poly_18" class="plain" />
<polygon points="0.0,-31.25 343.75,-31.25 273.4375,0.0 218.75,0.0 125.0,0.0 70.3125,0.0" id="poly_20" class="plain" />
<polygon points="234.375,46.875 265.625,15.625 281.25,31.25 250.0,62.5" id="poly_22" class="plain" />
<polygon points="250.0,203.125 281.25,234.375 265.625,250.0 234.375,218.75" id="poly_24" class="plain" />
<polygon points="273.4375,0.0 343.75,-31.25 296.875,23.4375 289.0625,23.4375 273.4375,7.8125" id="poly_26" class="plain" />
<polygon points="273.4375,257.8125 289.0625,242.1875 296.875,242.1875 343.75,296.875 273.4375,265.625" id="poly_27" class="plain" />
<polygon points="0.0,-31.25 70.3125,0.0 70.3125,7.8125 54.6875,23.4375 46.875,23.4375" id="poly_31" class="plain" />
<polygon points="46.875,242.1875 54.6875,242.1875 70.3125,257.8125 70.3125,265.625 0.0,296.875" id="poly_32" class="plain" />
<polygon points="93.75,203.125 109.375,218.75 78.125,250.0 62.5,234.375" id="poly_34" class="plain" />
<polygon points="343.75,-31.25 343.75,46.875 296.875,70.3125 296.875,23.4375" id="poly_35" class="plain" />
<polygon points="296.875,242.1875 296.875,179.6875 343.75,203.125 343.75,296.875" id="poly_36" class="plain" />
<polygon points="296.875,179.6875 296.875,164.0625 343.75,140.625 375.0,140.625 375.0,203.125 343.75,203.125" id="poly_37" class="plain" />
<polygon points="296.875,85.9375 343.75,109.375 343.75,140.625 296.875,164.0625" id="poly_38" class="plain" />
<polygon points="296.875,70.3125 343.75,46.875 375.0,46.875 375.0,109.375 343.75,109.375 296.875,85.9375" id="poly_39" class="plain" />
<polygon points="0.0,-31.25 46.875,23.4375 46.875,70.3125 0.0,46.875" id="poly_44" class="plain" />
<polygon points="-31.25,46.875 0.0,46.875 46.875,70.3125 46.875,85.9375 0.0,109.375 -31.25,109.375" id="poly_45" class="plain" />
<polygon points="-31.25,140.625 0.0,140.625 46.875,164.0625 46.875,179.6875 0.0,203.125 -31.25,203.125" id="poly_46" class="plain" />
<polygon points="0.0,203.125 46.875,179.6875 46.875,242.1875 0.0,296.875" id="poly_47" class="plain" />
<polygon points="0.0,109.375 46.875,85.9375 46.875,164.0625 0.0,140.625" id="poly_48" class="plain" />
<polygon points="109.375,46.875 125.0,46.875 125.0,62.5 93.75,62.5" id="poly_17" class="plain" />
<polygon points="218.75,46.875 234.375,46.875 250.0,62.5 218.75,62.5" id="poly_23" class="plain" />
<polygon points="218.75,203.125 250.0,203.125 234.375,218.75 218.75,218.75" id="poly_28" class="plain" />
<polygon points="93.75,203.125 125.0,203.125 125.0,218.75 109.375,218.75" id="poly_30" class="plain" />
<!-- end group: "polygons" -->
</g>
<g id="borders">
<g id="border_plain">
<line x1="343.75" y1="-31.25" x2="273.4375" y2="0.0" id="line_10" class="plain" />
<line x1="0.0" y1="296.875" x2="70.3125" y2="265.625" id="line_39" class="plain" />
<line x1="273.4375" y1="265.625" x2="343.75" y2="296.875" id="line_41" class="plain" />
<line x1="281.25" y1="62.5" x2="343.75" y2="62.5" id="line_62" class="plain" />
<line x1="281.25" y1="203.125" x2="343.75" y2="203.125" id="line_64" class="plain" />
<line x1="140.625" y1="140.625" x2="203.125" y2="140.625" id="line_65" class="plain" />
<line x1="140.625" y1="109.375" x2="203.125" y2="109.375" id="line_66" class="plain" />
<line x1="125.0" y1="62.5" x2="218.75" y2="62.5" id="line_67" class="plain" />
<line x1="218.75" y1="203.125" x2="125.0" y2="203.125" id="line_68" class="plain" />
<line x1="0.0" y1="62.5" x2="62.5" y2="62.5" id="line_71" class="plain" />
<line x1="0.0" y1="203.125" x2="62.5" y2="203.125" id="line_73" class="plain" />
<line x1="70.3125" y1="0.0" x2="0.0" y2="-31.25" id="line_101" class="plain" />
<line x1="343.75" y1="-31.25" x2="296.875" y2="23.4375" id="line_104" class="plain" />
<line x1="296.875" y1="242.1875" x2="343.75" y2="296.875" id="line_121" class="plain" />
<line x1="46.875" y1="23.4375" x2="0.0" y2="-31.25" id="line_123" class="plain" />
<line x1="0.0" y1="296.875" x2="46.875" y2="242.1875" id="line_128" class="plain" />
<line x1="343.75" y1="46.875" x2="296.875" y2="70.3125" id="line_143" class="plain" />
<line x1="296.875" y1="85.9375" x2="343.75" y2="109.375" id="line_145" class="plain" />
<line x1="296.875" y1="164.0625" x2="343.75" y2="140.625" id="line_147" class="plain" />
<line x1="296.875" y1="179.6875" x2="343.75" y2="203.125" id="line_149" class="plain" />
<line x1="46.875" y1="70.3125" x2="0.0" y2="46.875" id="line_171" class="plain" />
<line x1="46.875" y1="85.9375" x2="0.0" y2="109.375" id="line_173" class="plain" />
<line x1="0.0" y1="140.625" x2="46.875" y2="164.0625" id="line_175" class="plain" />
<line x1="46.875" y1="179.6875" x2="0.0" y2="203.125" id="line_177" class="plain" />
<!-- end group: "border_plain" -->
</g>
<g id="border_ceiling">
<line x1="78.125" y1="140.625" x2="78.125" y2="109.375" id="line_74" class="ceiling" />
<line x1="265.625" y1="109.375" x2="265.625" y2="140.625" id="line_76" class="ceiling" />
<line x1="93.75" y1="62.5" x2="109.375" y2="46.875" id="line_83" class="ceiling" />
<line x1="250.0" y1="62.5" x2="234.375" y2="46.875" id="line_102" class="ceiling" />
<line x1="109.375" y1="218.75" x2="93.75" y2="203.125" id="line_108" class="ceiling" />
<line x1="234.375" y1="218.75" x2="250.0" y2="203.125" id="line_112" class="ceiling" />
<!-- end group: "border_ceiling" -->
</g>
<g id="border_elevation">
<line x1="93.75" y1="62.5" x2="125.0" y2="62.5" id="line_12" class="elevation" />
<line x1="140.625" y1="109.375" x2="93.75" y2="109.375" id="line_14" class="elevation" />
<line x1="140.625" y1="140.625" x2="140.625" y2="109.375" id="line_15" class="elevation" />
<line x1="93.75" y1="140.625" x2="140.625" y2="140.625" id="line_16" class="elevation" />
<line x1="125.0" y1="203.125" x2="93.75" y2="203.125" id="line_18" class="elevation" />
<line x1="250.0" y1="203.125" x2="218.75" y2="203.125" id="line_25" class="elevation" />
<line x1="203.125" y1="140.625" x2="250.0" y2="140.625" id="line_27" class="elevation" />
<line x1="203.125" y1="109.375" x2="203.125" y2="140.625" id="line_28" class="elevation" />
<line x1="250.0" y1="109.375" x2="203.125" y2="109.375" id="line_29" class="elevation" />
<line x1="218.75" y1="62.5" x2="250.0" y2="62.5" id="line_31" class="elevation" />
<line x1="125.0" y1="62.5" x2="125.0" y2="46.875" id="line_78" class="elevation" />
<line x1="218.75" y1="46.875" x2="218.75" y2="62.5" id="line_80" class="elevation" />
<line x1="125.0" y1="218.75" x2="125.0" y2="203.125" id="line_106" class="elevation" />
<line x1="218.75" y1="218.75" x2="218.75" y2="203.125" id="line_109" class="elevation" />
<!-- end group: "border_elevation" -->
</g>
<g id="border_solid">
<line x1="125.0" y1="0.0" x2="218.75" y2="0.0" id="line_0" class="solid" />
<line x1="218.75" y1="0.0" x2="218.75" y2="15.625" id="line_1" class="solid" />
<line x1="125.0" y1="15.625" x2="218.75" y2="15.625" id="line_2" class="solid" />
<line x1="125.0" y1="15.625" x2="125.0" y2="0.0" id="line_3" class="solid" />
<line x1="93.75" y1="15.625" x2="125.0" y2="15.625" id="line_4" class="solid" />
<line x1="93.75" y1="31.25" x2="93.75" y2="15.625" id="line_5" class="solid" />
<line x1="125.0" y1="31.25" x2="93.75" y2="31.25" id="line_6" class="solid" />
<line x1="250.0" y1="15.625" x2="250.0" y2="31.25" id="line_7" class="solid" />
<line x1="218.75" y1="15.625" x2="250.0" y2="15.625" id="line_8" class="solid" />
<line x1="273.4375" y1="0.0" x2="218.75" y2="0.0" id="line_9" class="solid" />
<line x1="218.75" y1="31.25" x2="125.0" y2="31.25" id="line_11" class="solid" />
<line x1="93.75" y1="109.375" x2="93.75" y2="62.5" id="line_13" class="solid" />
<line x1="93.75" y1="203.125" x2="93.75" y2="140.625" id="line_17" class="solid" />
<line x1="125.0" y1="234.375" x2="125.0" y2="218.75" id="line_19" class="solid" />
<line x1="93.75" y1="234.375" x2="125.0" y2="234.375" id="line_20" class="solid" />
<line x1="93.75" y1="250.0" x2="93.75" y2="234.375" id="line_21" class="solid" />
<line x1="125.0" y1="250.0" x2="93.75" y2="250.0" id="line_22" class="solid" />
<line x1="250.0" y1="234.375" x2="250.0" y2="250.0" id="line_23" class="solid" />
<line x1="218.75" y1="234.375" x2="250.0" y2="234.375" id="line_24" class="solid" />
<line x1="250.0" y1="140.625" x2="250.0" y2="203.125" id="line_26" class="solid" />
<line x1="250.0" y1="62.5" x2="250.0" y2="109.375" id="line_30" class="solid" />
<line x1="250.0" y1="31.25" x2="218.75" y2="31.25" id="line_32" class="solid" />
<line x1="218.75" y1="250.0" x2="125.0" y2="250.0" id="line_33" class="solid" />
<line x1="125.0" y1="265.625" x2="125.0" y2="250.0" id="line_34" class="solid" />
<line x1="218.75" y1="265.625" x2="125.0" y2="265.625" id="line_35" class="solid" />
<line x1="250.0" y1="250.0" x2="218.75" y2="250.0" id="line_36" class="solid" />
<line x1="218.75" y1="250.0" x2="218.75" y2="265.625" id="line_37" class="solid" />
<line x1="70.3125" y1="265.625" x2="125.0" y2="265.625" id="line_38" class="solid" />
<line x1="343.75" y1="296.875" x2="0.0" y2="296.875" id="line_40" class="solid" />
<line x1="218.75" y1="265.625" x2="273.4375" y2="265.625" id="line_42" class="solid" />
<line x1="265.625" y1="140.625" x2="250.0" y2="140.625" id="line_43" class="solid" />
<line x1="281.25" y1="140.625" x2="281.25" y2="109.375" id="line_44" class="solid" />
<line x1="93.75" y1="140.625" x2="78.125" y2="140.625" id="line_45" class="solid" />
<line x1="62.5" y1="109.375" x2="62.5" y2="140.625" id="line_46" class="solid" />
<line x1="93.75" y1="250.0" x2="0.0" y2="250.0" id="line_47" class="solid" />
<line x1="0.0" y1="250.0" x2="0.0" y2="203.125" id="line_48" class="solid" />
<line x1="0.0" y1="15.625" x2="93.75" y2="15.625" id="line_49" class="solid" />
<line x1="93.75" y1="31.25" x2="62.5" y2="62.5" id="line_50" class="solid" />
<line x1="62.5" y1="62.5" x2="62.5" y2="109.375" id="line_51" class="solid" />
<line x1="62.5" y1="140.625" x2="62.5" y2="203.125" id="line_52" class="solid" />
<line x1="62.5" y1="203.125" x2="93.75" y2="234.375" id="line_53" class="solid" />
<line x1="250.0" y1="15.625" x2="343.75" y2="15.625" id="line_54" class="solid" />
<line x1="343.75" y1="15.625" x2="343.75" y2="62.5" id="line_55" class="solid" />
<line x1="343.75" y1="250.0" x2="250.0" y2="250.0" id="line_56" class="solid" />
<line x1="250.0" y1="234.375" x2="281.25" y2="203.125" id="line_57" class="solid" />
<line x1="281.25" y1="203.125" x2="281.25" y2="140.625" id="line_58" class="solid" />
<line x1="281.25" y1="109.375" x2="281.25" y2="62.5" id="line_59" class="solid" />
<line x1="281.25" y1="62.5" x2="250.0" y2="31.25" id="line_60" class="solid" />
<line x1="343.75" y1="62.5" x2="343.75" y2="203.125" id="line_61" class="solid" />
<line x1="343.75" y1="203.125" x2="343.75" y2="250.0" id="line_63" class="solid" />
<line x1="125.0" y1="234.375" x2="218.75" y2="234.375" id="line_69" class="solid" />
<line x1="0.0" y1="62.5" x2="0.0" y2="15.625" id="line_70" class="solid" />
<line x1="0.0" y1="203.125" x2="0.0" y2="62.5" id="line_72" class="solid" />
<line x1="78.125" y1="109.375" x2="93.75" y2="109.375" id="line_75" class="solid" />
<line x1="250.0" y1="109.375" x2="265.625" y2="109.375" id="line_77" class="solid" />
<line x1="125.0" y1="46.875" x2="125.0" y2="31.25" id="line_79" class="solid" />
<line x1="218.75" y1="31.25" x2="218.75" y2="46.875" id="line_81" class="solid" />
<line x1="109.375" y1="46.875" x2="125.0" y2="46.875" id="line_82" class="solid" />
<line x1="78.125" y1="15.625" x2="109.375" y2="46.875" id="line_84" class="solid" />
<line x1="93.75" y1="62.5" x2="62.5" y2="31.25" id="line_85" class="solid" />
<line x1="70.3125" y1="0.0" x2="70.3125" y2="7.8125" id="line_86" class="solid" />
<line x1="54.6875" y1="23.4375" x2="70.3125" y2="7.8125" id="line_87" class="solid" />
<line x1="62.5" y1="31.25" x2="54.6875" y2="23.4375" id="line_88" class="solid" />
<line x1="70.3125" y1="7.8125" x2="78.125" y2="15.625" id="line_89" class="solid" />
<line x1="62.5" y1="31.25" x2="78.125" y2="15.625" id="line_90" class="solid" />
<line x1="125.0" y1="0.0" x2="70.3125" y2="0.0" id="line_91" class="solid" />
<line x1="218.75" y1="46.875" x2="234.375" y2="46.875" id="line_92" class="solid" />
<line x1="234.375" y1="46.875" x2="265.625" y2="15.625" id="line_93" class="solid" />
<line x1="281.25" y1="31.25" x2="250.0" y2="62.5" id="line_94" class="solid" />
<line x1="273.4375" y1="7.8125" x2="273.4375" y2="0.0" id="line_95" class="solid" />
<line x1="273.4375" y1="7.8125" x2="289.0625" y2="23.4375" id="line_96" class="solid" />
<line x1="289.0625" y1="23.4375" x2="281.25" y2="31.25" id="line_97" class="solid" />
<line x1="265.625" y1="15.625" x2="273.4375" y2="7.8125" id="line_98" class="solid" />
<line x1="281.25" y1="31.25" x2="265.625" y2="15.625" id="line_99" class="solid" />
<line x1="0.0" y1="-31.25" x2="343.75" y2="-31.25" id="line_100" class="solid" />
<line x1="296.875" y1="23.4375" x2="289.0625" y2="23.4375" id="line_103" class="solid" />
<line x1="296.875" y1="242.1875" x2="296.875" y2="179.6875" id="line_105" class="solid" />
<line x1="125.0" y1="218.75" x2="109.375" y2="218.75" id="line_107" class="solid" />
<line x1="218.75" y1="218.75" x2="218.75" y2="234.375" id="line_110" class="solid" />
<line x1="234.375" y1="218.75" x2="218.75" y2="218.75" id="line_111" class="solid" />
<line x1="265.625" y1="250.0" x2="234.375" y2="218.75" id="line_113" class="solid" />
<line x1="250.0" y1="203.125" x2="281.25" y2="234.375" id="line_114" class="solid" />
<line x1="281.25" y1="234.375" x2="289.0625" y2="242.1875" id="line_115" class="solid" />
<line x1="273.4375" y1="257.8125" x2="265.625" y2="250.0" id="line_116" class="solid" />
<line x1="281.25" y1="234.375" x2="265.625" y2="250.0" id="line_117" class="solid" />
<line x1="273.4375" y1="265.625" x2="273.4375" y2="257.8125" id="line_118" class="solid" />
<line x1="289.0625" y1="242.1875" x2="273.4375" y2="257.8125" id="line_119" class="solid" />
<line x1="289.0625" y1="242.1875" x2="296.875" y2="242.1875" id="line_120" class="solid" />
<line x1="54.6875" y1="23.4375" x2="46.875" y2="23.4375" id="line_122" class="solid" />
<line x1="109.375" y1="218.75" x2="78.125" y2="250.0" id="line_124" class="solid" />
<line x1="70.3125" y1="257.8125" x2="70.3125" y2="265.625" id="line_125" class="solid" />
<line x1="62.5" y1="234.375" x2="93.75" y2="203.125" id="line_126" class="solid" />
<line x1="46.875" y1="242.1875" x2="54.6875" y2="242.1875" id="line_127" class="solid" />
<line x1="54.6875" y1="242.1875" x2="70.3125" y2="257.8125" id="line_129" class="solid" />
<line x1="54.6875" y1="242.1875" x2="62.5" y2="234.375" id="line_130" class="solid" />
<line x1="78.125" y1="250.0" x2="70.3125" y2="257.8125" id="line_131" class="solid" />
<line x1="62.5" y1="234.375" x2="78.125" y2="250.0" id="line_132" class="solid" />
<line x1="343.75" y1="203.125" x2="343.75" y2="296.875" id="line_133" class="solid" />
<line x1="375.0" y1="203.125" x2="343.75" y2="203.125" id="line_134" class="solid" />
<line x1="375.0" y1="140.625" x2="375.0" y2="203.125" id="line_135" class="solid" />
<line x1="343.75" y1="140.625" x2="375.0" y2="140.625" id="line_136" class="solid" />
<line x1="343.75" y1="109.375" x2="343.75" y2="140.625" id="line_137" class="solid" />
<line x1="375.0" y1="109.375" x2="343.75" y2="109.375" id="line_138" class="solid" />
<line x1="375.0" y1="46.875" x2="375.0" y2="109.375" id="line_139" class="solid" />
<line x1="343.75" y1="46.875" x2="375.0" y2="46.875" id="line_140" class="solid" />
<line x1="343.75" y1="-31.25" x2="343.75" y2="46.875" id="line_141" class="solid" />
<line x1="296.875" y1="70.3125" x2="296.875" y2="23.4375" id="line_142" class="solid" />
<line x1="296.875" y1="85.9375" x2="296.875" y2="70.3125" id="line_144" class="solid" />
<line x1="296.875" y1="164.0625" x2="296.875" y2="85.9375" id="line_146" class="solid" />
<line x1="296.875" y1="179.6875" x2="296.875" y2="164.0625" id="line_148" class="solid" />
<line x1="62.5" y1="109.375" x2="70.3125" y2="109.375" id="line_150" class="solid" />
<line x1="70.3125" y1="109.375" x2="70.3125" y2="140.625" id="line_151" class="solid" />
<line x1="70.3125" y1="140.625" x2="62.5" y2="140.625" id="line_152" class="solid" />
<line x1="78.125" y1="140.625" x2="70.3125" y2="140.625" id="line_153" class="solid" />
<line x1="70.3125" y1="109.375" x2="78.125" y2="109.375" id="line_154" class="solid" />
<line x1="265.625" y1="109.375" x2="273.4375" y2="109.375" id="line_155" class="solid" />
<line x1="273.4375" y1="109.375" x2="273.4375" y2="140.625" id="line_156" class="solid" />
<line x1="273.4375" y1="140.625" x2="265.625" y2="140.625" id="line_157" class="solid" />
<line x1="281.25" y1="140.625" x2="273.4375" y2="140.625" id="line_158" class="solid" />
<line x1="273.4375" y1="109.375" x2="281.25" y2="109.375" id="line_159" class="solid" />
<line x1="0.0" y1="46.875" x2="0.0" y2="-31.25" id="line_160" class="solid" />
<line x1="-31.25" y1="46.875" x2="0.0" y2="46.875" id="line_161" class="solid" />
<line x1="-31.25" y1="109.375" x2="-31.25" y2="46.875" id="line_162" class="solid" />
<line x1="0.0" y1="109.375" x2="-31.25" y2="109.375" id="line_163" class="solid" />
<line x1="0.0" y1="140.625" x2="0.0" y2="109.375" id="line_164" class="solid" />
<line x1="-31.25" y1="140.625" x2="0.0" y2="140.625" id="line_165" class="solid" />
<line x1="-31.25" y1="203.125" x2="-31.25" y2="140.625" id="line_166" class="solid" />
<line x1="0.0" y1="203.125" x2="-31.25" y2="203.125" id="line_167" class="solid" />
<line x1="0.0" y1="296.875" x2="0.0" y2="203.125" id="line_168" class="solid" />
<line x1="46.875" y1="179.6875" x2="46.875" y2="242.1875" id="line_169" class="solid" />
<line x1="46.875" y1="23.4375" x2="46.875" y2="70.3125" id="line_170" class="solid" />
<line x1="46.875" y1="70.3125" x2="46.875" y2="85.9375" id="line_172" class="solid" />
<line x1="46.875" y1="85.9375" x2="46.875" y2="164.0625" id="line_174" class="solid" />
<line x1="46.875" y1="164.0625" x2="46.875" y2="179.6875" id="line_176" class="solid" />
<!-- end group: "border_solid" -->
</g>
<!-- end group: "borders" -->
</g>
<g id="poly_platform_on_lines">
<g id="panel_platform_on_lines_p9">
<g id="panel_platform_on_line_group_poly_p9_p43">
<line x1="302.06298828125" y1="130.18798828125" x2="277.34375" y2="125.0" id="panel_platform_on_border_p9_p43" class="platform_on_border" />
<use xlink:href="../resources/svg/common.svg#arrow" x="277.34375" y="125.0" id="panel_platform_on_head_p9_p43" class="platform_on_line" transform="rotate(-168.14699583225598 277.34375 125.0)" />
<line x1="302.06298828125" y1="130.18798828125" x2="277.34375" y2="125.0" id="panel_platform_on_line_p9_p43" class="platform_on_line" />
<!-- end group: "panel_platform_on_line_group_poly_p9_p43" -->
</g>
<!-- end group: "panel_platform_on_lines_p9" -->
</g>
<g id="panel_platform_on_lines_p12">
<g id="panel_platform_on_line_group_poly_p12_p40">
<line x1="41.656494140625" y1="130.18798828125" x2="66.40625" y2="125.0" id="panel_platform_on_border_p12_p40" class="platform_on_border" />
<use xlink:href="../resources/svg/common.svg#arrow" x="66.40625" y="125.0" id="panel_platform_on_head_p12_p40" class="platform_on_line" transform="rotate(-11.838801571809668 66.40625 125.0)" />
<line x1="41.656494140625" y1="130.18798828125" x2="66.40625" y2="125.0" id="panel_platform_on_line_p12_p40" class="platform_on_line" />
<!-- end group: "panel_platform_on_line_group_poly_p12_p40" -->
</g>
<!-- end group: "panel_platform_on_lines_p12" -->
</g>
<g id="panel_platform_on_lines_p14">
<g id="panel_platform_on_line_group_poly_p14_p43">
<line x1="239.56298828125" y1="125.0" x2="277.34375" y2="125.0" id="panel_platform_on_border_p14_p43" class="platform_on_border" />
<use xlink:href="../resources/svg/common.svg#arrow" x="277.34375" y="125.0" id="panel_platform_on_head_p14_p43" class="platform_on_line" transform="rotate(0.0 277.34375 125.0)" />
<line x1="239.56298828125" y1="125.0" x2="277.34375" y2="125.0" id="panel_platform_on_line_p14_p43" class="platform_on_line" />
<!-- end group: "panel_platform_on_line_group_poly_p14_p43" -->
</g>
<!-- end group: "panel_platform_on_lines_p14" -->
</g>
<g id="panel_platform_on_lines_p15">
<g id="panel_platform_on_line_group_poly_p15_p40">
<line x1="104.156494140625" y1="125.0" x2="66.40625" y2="125.0" id="panel_platform_on_border_p15_p40" class="platform_on_border" />
<use xlink:href="../resources/svg/common.svg#arrow" x="66.40625" y="125.0" id="panel_platform_on_head_p15_p40" class="platform_on_line" transform="rotate(180.0 66.40625 125.0)" />
<line x1="104.156494140625" y1="125.0" x2="66.40625" y2="125.0" id="panel_platform_on_line_p15_p40" class="platform_on_line" />
<!-- end group: "panel_platform_on_line_group_poly_p15_p40" -->
</g>
<!-- end group: "panel_platform_on_lines_p15" -->
</g>
<!-- end group: "poly_platform_on_lines" -->
</g>
<g id="objects">
<g id="objects_unknown">
<use xlink:href="../resources/svg/common.svg#unknown" x="367.1875" y="171.875" id="object_58" class="unknown" />
<!-- end group: "objects_unknown" -->
</g>
<g id="objects_sound">
<use xlink:href="../resources/svg/common.svg#sound" x="170.8984375" y="243.1640625" id="object_76" class="sound sound-5" />
<use xlink:href="../resources/svg/common.svg#sound" x="172.8515625" y="258.7890625" id="object_77" class="sound sound-5" />
<use xlink:href="../resources/svg/common.svg#sound" x="172.8515625" y="24.4140625" id="object_78" class="sound sound-5" />
<use xlink:href="../resources/svg/common.svg#sound" x="172.8515625" y="6.8359375" id="object_79" class="sound sound-5" />
<use xlink:href="../resources/svg/common.svg#sound" x="277.34375" y="19.53125" id="object_80" class="sound sound-5" />
<use xlink:href="../resources/svg/common.svg#sound" x="277.34375" y="247.0703125" id="object_81" class="sound sound-5" />
<use xlink:href="../resources/svg/common.svg#sound" x="64.453125" y="246.09375" id="object_82" class="sound sound-5" />
<use xlink:href="../resources/svg/common.svg#sound" x="67.3828125" y="19.53125" id="object_83" class="sound sound-5" />
<use xlink:href="../resources/svg/common.svg#sound" x="65.36865234375" y="124.32861328125" id="object_84" class="sound sound-5" />
<use xlink:href="../resources/svg/common.svg#sound" x="278.13720703125" y="124.32861328125" id="object_85" class="sound sound-5" />
<use xlink:href="../resources/svg/common.svg#sound" x="370.849609375" y="195.892333984375" id="object_86" class="sound sound-18" />
<use xlink:href="../resources/svg/common.svg#sound" x="369.354248046875" y="52.337646484375" id="object_87" class="sound sound-18" />
<use xlink:href="../resources/svg/common.svg#sound" x="-26.91650390625" y="49.346923828125" id="object_88" class="sound sound-18" />
<use xlink:href="../resources/svg/common.svg#sound" x="-25.421142578125" y="195.892333984375" id="object_89" class="sound sound-18" />
<!-- end group: "objects_sound" -->
</g>
<g id="objects_object">
<use xlink:href="../resources/svg/common.svg#object" x="361.328125" y="170.8984375" id="object_90" class="object object-7" />
<use xlink:href="../resources/svg/common.svg#object" x="361.328125" y="72.265625" id="object_91" class="object object-7" />
<use xlink:href="../resources/svg/common.svg#object" x="-9.765625" y="77.1484375" id="object_92" class="object object-7" />
<use xlink:href="../resources/svg/common.svg#object" x="-7.8125" y="171.875" id="object_93" class="object object-7" />
<!-- end group: "objects_object" -->
</g>
<g id="objects_item">
<use xlink:href="../resources/svg/common.svg#item" x="109.375" y="85.9375" id="object_9" class="item item-5" />
<use xlink:href="../resources/svg/common.svg#item" x="232.421875" y="179.6875" id="object_10" class="item item-5" />
<use xlink:href="../resources/svg/common.svg#item" x="233.3984375" y="83.0078125" id="object_11" class="item item-3" />
<use xlink:href="../resources/svg/common.svg#item" x="107.421875" y="190.4296875" id="object_12" class="item item-1" />
<use xlink:href="../resources/svg/common.svg#item" x="228.515625" y="209.9609375" id="object_13" class="item item-9" />
<use xlink:href="../resources/svg/common.svg#item" x="114.2578125" y="210.9375" id="object_14" class="item item-9" />
<use xlink:href="../resources/svg/common.svg#item" x="228.515625" y="54.6875" id="object_15" class="item item-6" />
<use xlink:href="../resources/svg/common.svg#item" x="115.234375" y="55.6640625" id="object_16" class="item item-6" />
<use xlink:href="../resources/svg/common.svg#item" x="-14.6484375" y="58.59375" id="object_17" class="item item-6" />
<use xlink:href="../resources/svg/common.svg#item" x="-13.671875" y="99.609375" id="object_18" class="item item-6" />
<use xlink:href="../resources/svg/common.svg#item" x="-11.71875" y="147.4609375" id="object_19" class="item item-6" />
<use xlink:href="../resources/svg/common.svg#item" x="-14.6484375" y="195.3125" id="object_20" class="item item-6" />
<use xlink:href="../resources/svg/common.svg#item" x="357.421875" y="200.1953125" id="object_21" class="item item-6" />
<use xlink:href="../resources/svg/common.svg#item" x="357.421875" y="153.3203125" id="object_22" class="item item-6" />
<use xlink:href="../resources/svg/common.svg#item" x="360.3515625" y="101.5625" id="object_23" class="item item-6" />
<use xlink:href="../resources/svg/common.svg#item" x="358.3984375" y="54.6875" id="object_24" class="item item-6" />
<use xlink:href="../resources/svg/common.svg#item" x="356.4453125" y="171.875" id="object_25" class="item item-3" />
<use xlink:href="../resources/svg/common.svg#item" x="357.421875" y="79.1015625" id="object_26" class="item item-3" />
<use xlink:href="../resources/svg/common.svg#item" x="-15.625" y="78.125" id="object_27" class="item item-3" />
<use xlink:href="../resources/svg/common.svg#item" x="-12.6953125" y="166.9921875" id="object_28" class="item item-3" />
<use xlink:href="../resources/svg/common.svg#item" x="96.6796875" y="-14.6484375" id="object_29" class="item item-3" />
<use xlink:href="../resources/svg/common.svg#item" x="241.2109375" y="-12.6953125" id="object_30" class="item item-3" />
<use xlink:href="../resources/svg/common.svg#item" x="231.4453125" y="285.15625" id="object_31" class="item item-3" />
<use xlink:href="../resources/svg/common.svg#item" x="79.1015625" y="282.2265625" id="object_32" class="item item-3" />
<use xlink:href="../resources/svg/common.svg#item" x="317.3828125" y="216.796875" id="object_33" class="item item-2" />
<use xlink:href="../resources/svg/common.svg#item" x="322.265625" y="178.7109375" id="object_34" class="item item-2" />
<use xlink:href="../resources/svg/common.svg#item" x="322.265625" y="123.046875" id="object_35" class="item item-2" />
<use xlink:href="../resources/svg/common.svg#item" x="322.265625" y="76.171875" id="object_36" class="item item-2" />
<use xlink:href="../resources/svg/common.svg#item" x="321.2890625" y="45.8984375" id="object_37" class="item item-2" />
<use xlink:href="../resources/svg/common.svg#item" x="25.390625" y="31.25" id="object_38" class="item item-2" />
<use xlink:href="../resources/svg/common.svg#item" x="24.4140625" y="78.125" id="object_39" class="item item-2" />
<use xlink:href="../resources/svg/common.svg#item" x="21.484375" y="131.8359375" id="object_40" class="item item-2" />
<use xlink:href="../resources/svg/common.svg#item" x="20.5078125" y="200.1953125" id="object_41" class="item item-2" />
<use xlink:href="../resources/svg/common.svg#item" x="13.671875" y="241.2109375" id="object_42" class="item item-2" />
<use xlink:href="../resources/svg/common.svg#item" x="28.3203125" y="273.4375" id="object_43" class="item item-2" />
<use xlink:href="../resources/svg/common.svg#item" x="173.828125" y="165.0390625" id="object_44" class="item item-2" />
<use xlink:href="../resources/svg/common.svg#item" x="172.8515625" y="128.90625" id="object_45" class="item item-10" />
<use xlink:href="../resources/svg/common.svg#item" x="173.828125" y="83.984375" id="object_46" class="item item-2" />
<use xlink:href="../resources/svg/common.svg#item" x="176.7578125" y="182.6171875" id="object_47" class="item item-2" />
<use xlink:href="../resources/svg/common.svg#item" x="174.8046875" y="148.4375" id="object_48" class="item item-2" />
<use xlink:href="../resources/svg/common.svg#item" x="177.734375" y="97.65625" id="object_49" class="item item-2" />
<use xlink:href="../resources/svg/common.svg#item" x="174.8046875" y="114.2578125" id="object_50" class="item item-2" />
<use xlink:href="../resources/svg/common.svg#item" x="164.0625" y="118.1640625" id="object_51" class="item item-16" />
<use xlink:href="../resources/svg/common.svg#item" x="181.640625" y="125.0" id="object_52" class="item item-16" />
<use xlink:href="../resources/svg/common.svg#item" x="324.21875" y="-12.6953125" id="object_53" class="item item-1" />
<use xlink:href="../resources/svg/common.svg#item" x="19.53125" y="282.2265625" id="object_54" class="item item-1" />
<use xlink:href="../resources/svg/common.svg#item" x="24.4140625" y="-1.953125" id="object_55" class="item item-1" />
<use xlink:href="../resources/svg/common.svg#item" x="320.3125" y="283.203125" id="object_56" class="item item-1" />
<use xlink:href="../resources/svg/common.svg#item" x="366.2109375" y="79.1015625" id="object_57" class="item item-8" />
<use xlink:href="../resources/svg/common.svg#item" x="-24.4140625" y="170.8984375" id="object_59" class="item item-8" />
<use xlink:href="../resources/svg/common.svg#item" x="-22.4609375" y="78.125" id="object_60" class="item item-8" />
<use xlink:href="../resources/svg/common.svg#item" x="172.8515625" y="121.09375" id="object_61" class="item item-27" />
<use xlink:href="../resources/svg/common.svg#item" x="52.734375" y="125.9765625" id="object_62" class="item item-5" />
<use xlink:href="../resources/svg/common.svg#item" x="288.0859375" y="124.0234375" id="object_63" class="item item-5" />
<use xlink:href="../resources/svg/common.svg#item" x="16.6015625" y="126.953125" id="object_64" class="item item-3" />
<use xlink:href="../resources/svg/common.svg#item" x="325.1953125" y="123.046875" id="object_65" class="item item-15" />
<use xlink:href="../resources/svg/common.svg#item" x="35.15625" y="125.9765625" id="object_66" class="item item-15" />
<use xlink:href="../resources/svg/common.svg#item" x="306.640625" y="124.0234375" id="object_67" class="item item-15" />
<use xlink:href="../resources/svg/common.svg#item" x="25.390625" y="70.3125" id="object_68" class="item item-4" />
<use xlink:href="../resources/svg/common.svg#item" x="31.25" y="227.5390625" id="object_69" class="item item-4" />
<use xlink:href="../resources/svg/common.svg#item" x="310.546875" y="229.4921875" id="object_70" class="item item-4" />
<use xlink:href="../resources/svg/common.svg#item" x="311.5234375" y="41.015625" id="object_71" class="item item-4" />
<use xlink:href="../resources/svg/common.svg#item" x="312.5" y="82.03125" id="object_72" class="item item-6" />
<use xlink:href="../resources/svg/common.svg#item" x="312.5" y="188.4765625" id="object_73" class="item item-6" />
<use xlink:href="../resources/svg/common.svg#item" x="23.4375" y="191.40625" id="object_74" class="item item-6" />
<use xlink:href="../resources/svg/common.svg#item" x="29.296875" y="92.7734375" id="object_75" class="item item-6" />
<!-- end group: "objects_item" -->
</g>
<g id="objects_player">
<use xlink:href="../resources/svg/common.svg#monster" x="218.75" y="82.03125" id="object_0" class="player" />
<use xlink:href="../resources/svg/common.svg#monster" x="94.7265625" y="223.6328125" id="object_1" class="player" transform="rotate(309.375 94.7265625 223.6328125)" />
<use xlink:href="../resources/svg/common.svg#monster" x="251.953125" y="221.6796875" id="object_2" class="player" transform="rotate(227.8125 251.953125 221.6796875)" />
<use xlink:href="../resources/svg/common.svg#monster" x="89.84375" y="44.921875" id="object_3" class="player" transform="rotate(42.890625 89.84375 44.921875)" />
<use xlink:href="../resources/svg/common.svg#monster" x="254.8828125" y="44.921875" id="object_4" class="player" transform="rotate(133.59375 254.8828125 44.921875)" />
<use xlink:href="../resources/svg/common.svg#monster" x="87.890625" y="125.0" id="object_5" class="player" />
<use xlink:href="../resources/svg/common.svg#monster" x="252.9296875" y="125.0" id="object_6" class="player" transform="rotate(178.59375 252.9296875 125.0)" />
<use xlink:href="../resources/svg/common.svg#monster" x="173.828125" y="-20.5078125" id="object_7" class="player" transform="rotate(88.59375 173.828125 -20.5078125)" />
<use xlink:href="../resources/svg/common.svg#monster" x="170.8984375" y="285.15625" id="object_8" class="player" transform="rotate(270.703125 170.8984375 285.15625)" />
<!-- end group: "objects_player" -->
</g>
<!-- end group: "objects" -->
</g>
<g id="panels">
<!-- end group: "panels" -->
</g>

<script xlink:href="../resources/js/level.js" ></script>
</svg>