<?xml version="1.0" encoding="UTF-8"?>
<!-- generated by map2svg: github.com/fracai/marathon-svg -->
<svg xmlns="http://www.w3.org/2000/svg" xmlns:xlink="http://www.w3.org/1999/xlink" version="1.1"
    viewBox="-453.125 -625.0 734.375 828.125">
<link xmlns="http://www.w3.org/1999/xhtml" rel="stylesheet" href="../resources/css/styles.css" type="text/css" />
<style id="dynamic-style" />
<g id="background-grid">
<defs>
<pattern id="grid_minor" width="3.125" height="3.125" patternUnits="userSpaceOnUse">
<path d="M 3.125 0 L 0 0 0 3.125" fill="none" class="grid_minor" />
</pattern>
<pattern id="grid_major" width="31.25" height="31.25" patternUnits="userSpaceOnUse">
<rect width="31.25" height="31.25" fill="url(#grid_minor)"/>
<path d="M 31.25 0 L 0 0 0 31.25" fill="none" class="grid_major" />
</pattern>
</defs>
<rect x="-1000" y="-1000" width="2000" height="2000" fill="url(#grid_major)" />
<line x1="0" y1="1000" x2="0" y2="-1000" class="grid_origin" />
<line x1="1000" y1="0" x2="-1000" y2="0" class="grid_origin" />
<!-- end group: "background-grid" -->
</g>
<g id="polygons">
<polygon points="78.125,-125.0 109.375,-93.75 78.125,-62.5 62.5,-78.125" id="poly_12" class="plain" />
<polygon points="15.625,-93.75 46.875,-125.0 78.125,-125.0 62.5,-78.125 31.25,-78.125" id="poly_11" class="platform" />
<polygon points="78.125,-62.5 109.375,-93.75 156.25,-46.875 125.0,-15.625" id="poly_14" class="plain" />
<polygon points="78.125,31.25 93.75,125.0 93.75,140.625 -31.25,140.625" id="poly_1" class="plain" />
<polygon points="31.25,-15.625 78.125,31.25 -31.25,140.625 -54.6875,117.1875" id="poly_4" class="plain" />
<polygon points="-31.25,-46.875 31.25,-15.625 -54.6875,117.1875" id="poly_5" class="plain" />
<polygon points="-148.4375,-7.8125 -78.125,-46.875 -31.25,-46.875 -54.6875,117.1875" id="poly_6" class="plain" />
<polygon points="-187.5,31.25 -148.4375,-7.8125 -54.6875,117.1875 -78.125,140.625 -203.125,140.625 -203.125,125.0" id="poly_7" class="plain" />
<polygon points="-78.125,140.625 -54.6875,117.1875 -31.25,140.625 -46.875,156.25 -62.5,156.25" id="poly_2" class="secret_platform" />
<polygon points="78.125,-62.5 125.0,-15.625 78.125,31.25 31.25,-15.625" id="poly_13" class="plain" />
<polygon points="-359.375,-484.375 -312.5,-531.25 -218.75,-468.75 -281.25,-406.25" id="poly_18" class="plain" />
<polygon points="-312.5,-531.25 -156.25,-531.25 -187.5,-468.75 -218.75,-468.75" id="poly_19" class="plain" />
<polygon points="-156.25,-531.25 -78.125,-531.25 -93.75,-468.75 -187.5,-468.75" id="poly_20" class="plain" />
<polygon points="62.5,-562.5 78.125,-593.75 125.0,-546.875 78.125,-546.875" id="poly_28" class="plain" />
<polygon points="-359.375,-484.375 -281.25,-406.25 -281.25,-250.0 -359.375,-218.75" id="poly_29" class="plain" />
<polygon points="-359.375,-218.75 -281.25,-250.0 -203.125,-250.0 -156.25,-250.0 -78.125,-187.5 -265.625,-187.5 -281.25,-187.5" id="poly_30" class="plain" />
<polygon points="-359.375,-218.75 -281.25,-187.5 -281.25,-140.625 -359.375,-140.625" id="poly_31" class="plain" />
<polygon points="-359.375,-140.625 -281.25,-140.625 -148.4375,-7.8125 -187.5,31.25" id="poly_32" class="plain" />
<polygon points="-156.25,-250.0 0.0,-250.0 -31.25,-187.5 -78.125,-187.5" id="poly_33" class="plain" />
<polygon points="-93.75,-437.5 62.5,-437.5 -140.625,-343.75 -156.25,-343.75 -156.25,-375.0" id="poly_37" class="plain" />
<polygon points="-93.75,-468.75 -78.125,-531.25 62.5,-468.75 62.5,-437.5 -93.75,-437.5" id="poly_38" class="plain" />
<polygon points="62.5,-437.5 156.25,-343.75 187.5,-265.625 -140.625,-265.625 -140.625,-343.75" id="poly_39" class="plain" />
<polygon points="0.0,-250.0 187.5,-250.0 171.875,-187.5 -31.25,-187.5" id="poly_40" class="plain" />
<polygon points="187.5,-171.875 250.0,-140.625 156.25,-46.875 109.375,-93.75" id="poly_41" class="plain" />
<polygon points="171.875,-187.5 187.5,-250.0 250.0,-265.625 250.0,-140.625 187.5,-171.875" id="poly_42" class="plain" />
<polygon points="187.5,-265.625 250.0,-265.625 187.5,-250.0" id="poly_43" class="plain" />
<polygon points="156.25,-343.75 187.5,-343.75 250.0,-265.625 187.5,-265.625" id="poly_44" class="plain" />
<polygon points="187.5,-343.75 187.5,-390.625 250.0,-421.875 250.0,-265.625" id="poly_45" class="plain" />
<polygon points="109.375,-468.75 78.125,-531.25 78.125,-546.875 125.0,-546.875 250.0,-421.875 187.5,-390.625" id="poly_46" class="plain" />
<polygon points="-78.125,-531.25 78.125,-531.25 109.375,-468.75 62.5,-468.75" id="poly_47" class="plain" />
<polygon points="-78.125,-187.5 -31.25,-187.5 -31.25,-46.875 -78.125,-46.875 -78.125,-78.155517578125" id="poly_50" class="plain" />
<polygon points="31.25,-593.75 78.125,-593.75 62.5,-562.5 31.25,-562.5" id="poly_27" class="plain" />
<polygon points="15.625,-593.75 31.25,-593.75 31.25,-562.5 15.625,-562.5" id="poly_26" class="plain" />
<polygon points="0.0,-593.75 15.625,-593.75 15.625,-562.5 0.0,-562.5" id="poly_25" class="plain" />
<polygon points="-15.625,-593.75 0.0,-593.75 0.0,-562.5 -15.625,-562.5" id="poly_24" class="plain" />
<polygon points="-31.25,-593.75 -15.625,-593.75 -15.625,-562.5 -31.25,-562.5" id="poly_23" class="plain" />
<polygon points="-46.875,-593.75 -31.25,-593.75 -31.25,-562.5 -46.875,-562.5" id="poly_22" class="plain" />
<polygon points="-203.125,-406.25 -156.25,-375.0 -156.25,-343.75 -156.25,-250.0 -203.125,-250.0" id="poly_34" class="hill" />
<polygon points="-187.5,-437.5 -93.75,-437.5 -156.25,-375.0 -203.125,-406.25" id="poly_35" class="hill" />
<polygon points="-187.5,-468.75 -93.75,-468.75 -93.75,-437.5 -187.5,-437.5" id="poly_36" class="hill" />
<polygon points="-93.75,-171.875 -78.125,-187.5 -78.125,-78.155517578125 -93.75,-78.125" id="poly_48" class="plain" />
<polygon points="-265.625,-187.5 -78.125,-187.5 -93.75,-171.875 -257.8125,-171.875" id="poly_49" class="plain" />
<polygon points="-156.25,-562.5 -148.4375,-593.75 -46.875,-593.75 -46.875,-562.5 -78.125,-531.25 -156.25,-531.25" id="poly_21" class="plain" />
<polygon points="-351.5625,-593.75 -148.4375,-593.75 -156.25,-562.5 -312.5,-562.5" id="poly_51" class="plain" />
<polygon points="-351.5625,-593.75 -312.5,-562.5 -375.0,-500.0 -421.875,-523.4375" id="poly_52" class="plain" />
<polygon points="93.75,125.0 101.5625,125.0 101.5625,140.625 93.75,140.625" id="poly_0" class="plain" />
<polygon points="-210.9375,125.0 -203.125,125.0 -203.125,140.625 -210.9375,140.625" id="poly_8" class="plain" />
<polygon points="-31.25,-46.875 -15.625,-62.5 31.25,-46.875 31.25,-15.625" id="poly_9" class="plain" />
<polygon points="15.625,-93.75 31.25,-78.125 31.25,-46.875 -15.625,-62.5" id="poly_10" class="plain" />
<polygon points="62.5,-140.625 78.125,-156.25 93.75,-140.625 78.125,-125.0 46.875,-125.0" id="poly_15" class="plain" />
<polygon points="62.5,-171.875 78.125,-171.875 78.125,-156.25 62.5,-140.625" id="poly_16" class="plain" />
<polygon points="-31.25,-187.5 171.875,-187.5 156.25,-171.875 78.125,-171.875 62.5,-171.875 -15.625,-171.875" id="poly_17" class="plain" />
<polygon points="-421.875,-523.4375 -375.0,-500.0 -375.0,-484.375 -421.875,-468.75" id="poly_54" class="plain" />
<polygon points="-375.0,-484.375 -359.375,-484.375 -359.375,-218.75 -390.625,-218.75 -421.875,-250.0 -421.875,-468.75" id="poly_53" class="plain" />
<polygon points="-62.5,156.25 -46.875,156.25 -46.875,171.875 -62.5,171.875" id="poly_3" class="plain" />
<!-- end group: "polygons" -->
</g>
<g id="borders">
<g id="border_plain">
<line x1="-31.25" y1="-187.5" x2="-78.125" y2="-187.5" id="line_26" class="plain" />
<line x1="-15.625" y1="-62.5" x2="31.25" y2="-46.875" id="line_28" class="plain" />
<line x1="62.5" y1="-171.875" x2="78.125" y2="-171.875" id="line_54" class="plain" />
<line x1="125.0" y1="-546.875" x2="78.125" y2="-546.875" id="line_78" class="plain" />
<line x1="-187.5" y1="-437.5" x2="-93.75" y2="-437.5" id="line_110" class="plain" />
<line x1="-203.125" y1="-406.25" x2="-156.25" y2="-375.0" id="line_111" class="plain" />
<line x1="-54.6875" y1="117.1875" x2="-148.4375" y2="-7.8125" id="line_117" class="plain" />
<line x1="-54.6875" y1="117.1875" x2="-31.25" y2="-46.875" id="line_118" class="plain" />
<line x1="-31.25" y1="140.625" x2="78.125" y2="31.25" id="line_119" class="plain" />
<line x1="-54.6875" y1="117.1875" x2="31.25" y2="-15.625" id="line_120" class="plain" />
<line x1="62.5" y1="-140.625" x2="78.125" y2="-156.25" id="line_121" class="plain" />
<line x1="-281.25" y1="-140.625" x2="-359.375" y2="-140.625" id="line_122" class="plain" />
<line x1="-281.25" y1="-406.25" x2="-359.375" y2="-484.375" id="line_124" class="plain" />
<line x1="-312.5" y1="-531.25" x2="-218.75" y2="-468.75" id="line_126" class="plain" />
<line x1="-156.25" y1="-531.25" x2="-187.5" y2="-468.75" id="line_127" class="plain" />
<line x1="-78.125" y1="-531.25" x2="-93.75" y2="-468.75" id="line_128" class="plain" />
<line x1="62.5" y1="-437.5" x2="-140.625" y2="-343.75" id="line_136" class="plain" />
<line x1="-93.75" y1="-437.5" x2="62.5" y2="-437.5" id="line_137" class="plain" />
<line x1="-78.125" y1="-531.25" x2="62.5" y2="-468.75" id="line_138" class="plain" />
<line x1="109.375" y1="-468.75" x2="78.125" y2="-531.25" id="line_139" class="plain" />
<line x1="187.5" y1="-390.625" x2="250.0" y2="-421.875" id="line_140" class="plain" />
<line x1="156.25" y1="-343.75" x2="187.5" y2="-265.625" id="line_141" class="plain" />
<line x1="187.5" y1="-265.625" x2="250.0" y2="-265.625" id="line_143" class="plain" />
<line x1="187.5" y1="-343.75" x2="250.0" y2="-265.625" id="line_144" class="plain" />
<line x1="187.5" y1="-171.875" x2="250.0" y2="-140.625" id="line_145" class="plain" />
<line x1="187.5" y1="-250.0" x2="171.875" y2="-187.5" id="line_146" class="plain" />
<line x1="187.5" y1="-250.0" x2="250.0" y2="-265.625" id="line_147" class="plain" />
<line x1="-156.25" y1="-250.0" x2="-78.125" y2="-187.5" id="line_148" class="plain" />
<line x1="0.0" y1="-250.0" x2="-31.25" y2="-187.5" id="line_150" class="plain" />
<line x1="-281.25" y1="-187.5" x2="-359.375" y2="-218.75" id="line_152" class="plain" />
<line x1="-281.25" y1="-250.0" x2="-359.375" y2="-218.75" id="line_153" class="plain" />
<line x1="-93.75" y1="-171.875" x2="-78.125" y2="-187.5" id="line_158" class="plain" />
<!-- end group: "border_plain" -->
</g>
<g id="border_ceiling">
<line x1="109.375" y1="-93.75" x2="78.125" y2="-62.5" id="line_36" class="ceiling" />
<!-- end group: "border_ceiling" -->
</g>
<g id="border_elevation">
<line x1="-78.125" y1="-46.875" x2="-31.25" y2="-46.875" id="line_8" class="elevation" />
<line x1="-31.25" y1="-46.875" x2="31.25" y2="-15.625" id="line_9" class="elevation" />
<line x1="31.25" y1="-15.625" x2="78.125" y2="31.25" id="line_10" class="elevation" />
<line x1="93.75" y1="140.625" x2="93.75" y2="125.0" id="line_14" class="elevation" />
<line x1="-203.125" y1="140.625" x2="-203.125" y2="125.0" id="line_18" class="elevation" />
<line x1="-187.5" y1="31.25" x2="-148.4375" y2="-7.8125" id="line_23" class="elevation" />
<line x1="78.125" y1="-62.5" x2="125.0" y2="-15.625" id="line_32" class="elevation" />
<line x1="109.375" y1="-93.75" x2="156.25" y2="-46.875" id="line_35" class="elevation" />
<line x1="-78.125" y1="-187.5" x2="-265.625" y2="-187.5" id="line_63" class="elevation" />
<line x1="-31.25" y1="-187.5" x2="171.875" y2="-187.5" id="line_65" class="elevation" />
<line x1="31.25" y1="-593.75" x2="31.25" y2="-562.5" id="line_79" class="elevation" />
<line x1="15.625" y1="-593.75" x2="15.625" y2="-562.5" id="line_81" class="elevation" />
<line x1="0.0" y1="-593.75" x2="0.0" y2="-562.5" id="line_84" class="elevation" />
<line x1="-15.625" y1="-593.75" x2="-15.625" y2="-562.5" id="line_87" class="elevation" />
<line x1="-31.25" y1="-593.75" x2="-31.25" y2="-562.5" id="line_90" class="elevation" />
<line x1="-46.875" y1="-593.75" x2="-46.875" y2="-562.5" id="line_93" class="elevation" />
<line x1="-156.25" y1="-531.25" x2="-78.125" y2="-531.25" id="line_96" class="elevation" />
<line x1="-156.25" y1="-562.5" x2="-148.4375" y2="-593.75" id="line_98" class="elevation" />
<line x1="-93.75" y1="-468.75" x2="-187.5" y2="-468.75" id="line_105" class="elevation" />
<line x1="-93.75" y1="-468.75" x2="-93.75" y2="-437.5" id="line_107" class="elevation" />
<line x1="-93.75" y1="-437.5" x2="-156.25" y2="-375.0" id="line_108" class="elevation" />
<line x1="-156.25" y1="-375.0" x2="-156.25" y2="-343.75" id="line_109" class="elevation" />
<line x1="-203.125" y1="-250.0" x2="-156.25" y2="-250.0" id="line_123" class="elevation" />
<line x1="-359.375" y1="-218.75" x2="-359.375" y2="-484.375" id="line_125" class="elevation" />
<line x1="78.125" y1="-593.75" x2="62.5" y2="-562.5" id="line_135" class="elevation" />
<line x1="-78.125" y1="-187.5" x2="-78.125" y2="-78.155517578125" id="line_154" class="elevation" />
<line x1="-421.875" y1="-468.75" x2="-375.0" y2="-484.375" id="line_169" class="elevation" />
<line x1="-312.5" y1="-562.5" x2="-351.5625" y2="-593.75" id="line_170" class="elevation" />
<line x1="-375.0" y1="-500.0" x2="-421.875" y2="-523.4375" id="line_171" class="elevation" />
<!-- end group: "border_elevation" -->
</g>
<g id="border_solid">
<line x1="-46.875" y1="156.25" x2="-62.5" y2="156.25" id="line_0" class="solid" />
<line x1="-46.875" y1="156.25" x2="-46.875" y2="171.875" id="line_1" class="solid" />
<line x1="-46.875" y1="171.875" x2="-62.5" y2="171.875" id="line_2" class="solid" />
<line x1="-62.5" y1="171.875" x2="-62.5" y2="156.25" id="line_3" class="solid" />
<line x1="-31.25" y1="140.625" x2="-46.875" y2="156.25" id="line_4" class="solid" />
<line x1="-54.6875" y1="117.1875" x2="-31.25" y2="140.625" id="line_5" class="solid" />
<line x1="-78.125" y1="140.625" x2="-54.6875" y2="117.1875" id="line_6" class="solid" />
<line x1="-62.5" y1="156.25" x2="-78.125" y2="140.625" id="line_7" class="solid" />
<line x1="78.125" y1="31.25" x2="93.75" y2="125.0" id="line_11" class="solid" />
<line x1="101.5625" y1="140.625" x2="93.75" y2="140.625" id="line_12" class="solid" />
<line x1="101.5625" y1="125.0" x2="101.5625" y2="140.625" id="line_13" class="solid" />
<line x1="93.75" y1="125.0" x2="101.5625" y2="125.0" id="line_15" class="solid" />
<line x1="93.75" y1="140.625" x2="-31.25" y2="140.625" id="line_16" class="solid" />
<line x1="-78.125" y1="140.625" x2="-203.125" y2="140.625" id="line_17" class="solid" />
<line x1="-210.9375" y1="125.0" x2="-203.125" y2="125.0" id="line_19" class="solid" />
<line x1="-210.9375" y1="140.625" x2="-210.9375" y2="125.0" id="line_20" class="solid" />
<line x1="-203.125" y1="140.625" x2="-210.9375" y2="140.625" id="line_21" class="solid" />
<line x1="-203.125" y1="125.0" x2="-187.5" y2="31.25" id="line_22" class="solid" />
<line x1="-148.4375" y1="-7.8125" x2="-78.125" y2="-46.875" id="line_24" class="solid" />
<line x1="-31.25" y1="-187.5" x2="-31.25" y2="-46.875" id="line_25" class="solid" />
<line x1="-31.25" y1="-46.875" x2="-15.625" y2="-62.5" id="line_27" class="solid" />
<line x1="31.25" y1="-46.875" x2="31.25" y2="-15.625" id="line_29" class="solid" />
<line x1="-15.625" y1="-62.5" x2="15.625" y2="-93.75" id="line_30" class="solid" />
<line x1="31.25" y1="-15.625" x2="78.125" y2="-62.5" id="line_31" class="solid" />
<line x1="125.0" y1="-15.625" x2="78.125" y2="31.25" id="line_33" class="solid" />
<line x1="156.25" y1="-46.875" x2="125.0" y2="-15.625" id="line_34" class="solid" />
<line x1="109.375" y1="-93.75" x2="187.5" y2="-171.875" id="line_37" class="solid" />
<line x1="250.0" y1="-140.625" x2="156.25" y2="-46.875" id="line_38" class="solid" />
<line x1="78.125" y1="-62.5" x2="62.5" y2="-78.125" id="line_39" class="solid" />
<line x1="78.125" y1="-125.0" x2="109.375" y2="-93.75" id="line_40" class="solid" />
<line x1="78.125" y1="-125.0" x2="62.5" y2="-78.125" id="line_41" class="solid" />
<line x1="62.5" y1="-78.125" x2="31.25" y2="-78.125" id="line_42" class="solid" />
<line x1="15.625" y1="-93.75" x2="31.25" y2="-78.125" id="line_43" class="solid" />
<line x1="31.25" y1="-78.125" x2="31.25" y2="-46.875" id="line_44" class="solid" />
<line x1="15.625" y1="-93.75" x2="46.875" y2="-125.0" id="line_45" class="solid" />
<line x1="46.875" y1="-125.0" x2="78.125" y2="-125.0" id="line_46" class="solid" />
<line x1="46.875" y1="-125.0" x2="62.5" y2="-140.625" id="line_47" class="solid" />
<line x1="93.75" y1="-140.625" x2="78.125" y2="-125.0" id="line_48" class="solid" />
<line x1="78.125" y1="-156.25" x2="93.75" y2="-140.625" id="line_49" class="solid" />
<line x1="62.5" y1="-140.625" x2="62.5" y2="-171.875" id="line_50" class="solid" />
<line x1="78.125" y1="-171.875" x2="78.125" y2="-156.25" id="line_51" class="solid" />
<line x1="62.5" y1="-171.875" x2="-15.625" y2="-171.875" id="line_52" class="solid" />
<line x1="-15.625" y1="-171.875" x2="-31.25" y2="-187.5" id="line_53" class="solid" />
<line x1="156.25" y1="-171.875" x2="78.125" y2="-171.875" id="line_55" class="solid" />
<line x1="171.875" y1="-187.5" x2="156.25" y2="-171.875" id="line_56" class="solid" />
<line x1="187.5" y1="-171.875" x2="171.875" y2="-187.5" id="line_57" class="solid" />
<line x1="-93.75" y1="-171.875" x2="-257.8125" y2="-171.875" id="line_58" class="solid" />
<line x1="-257.8125" y1="-171.875" x2="-265.625" y2="-187.5" id="line_59" class="solid" />
<line x1="-281.25" y1="-140.625" x2="-148.4375" y2="-7.8125" id="line_60" class="solid" />
<line x1="-265.625" y1="-187.5" x2="-281.25" y2="-187.5" id="line_61" class="solid" />
<line x1="-281.25" y1="-187.5" x2="-281.25" y2="-140.625" id="line_62" class="solid" />
<line x1="-187.5" y1="31.25" x2="-359.375" y2="-140.625" id="line_64" class="solid" />
<line x1="250.0" y1="-265.625" x2="250.0" y2="-140.625" id="line_66" class="solid" />
<line x1="-156.25" y1="-250.0" x2="0.0" y2="-250.0" id="line_67" class="solid" />
<line x1="187.5" y1="-250.0" x2="187.5" y2="-265.625" id="line_68" class="solid" />
<line x1="-281.25" y1="-250.0" x2="-203.125" y2="-250.0" id="line_69" class="solid" />
<line x1="-203.125" y1="-250.0" x2="-203.125" y2="-406.25" id="line_70" class="solid" />
<line x1="-156.25" y1="-343.75" x2="-156.25" y2="-250.0" id="line_71" class="solid" />
<line x1="-203.125" y1="-406.25" x2="-187.5" y2="-437.5" id="line_72" class="solid" />
<line x1="187.5" y1="-265.625" x2="-140.625" y2="-265.625" id="line_73" class="solid" />
<line x1="-140.625" y1="-265.625" x2="-140.625" y2="-343.75" id="line_74" class="solid" />
<line x1="-140.625" y1="-343.75" x2="-156.25" y2="-343.75" id="line_75" class="solid" />
<line x1="187.5" y1="-390.625" x2="109.375" y2="-468.75" id="line_76" class="solid" />
<line x1="125.0" y1="-546.875" x2="250.0" y2="-421.875" id="line_77" class="solid" />
<line x1="15.625" y1="-593.75" x2="31.25" y2="-593.75" id="line_80" class="solid" />
<line x1="31.25" y1="-562.5" x2="15.625" y2="-562.5" id="line_82" class="solid" />
<line x1="0.0" y1="-593.75" x2="15.625" y2="-593.75" id="line_83" class="solid" />
<line x1="15.625" y1="-562.5" x2="0.0" y2="-562.5" id="line_85" class="solid" />
<line x1="-15.625" y1="-593.75" x2="0.0" y2="-593.75" id="line_86" class="solid" />
<line x1="0.0" y1="-562.5" x2="-15.625" y2="-562.5" id="line_88" class="solid" />
<line x1="-31.25" y1="-593.75" x2="-15.625" y2="-593.75" id="line_89" class="solid" />
<line x1="-15.625" y1="-562.5" x2="-31.25" y2="-562.5" id="line_91" class="solid" />
<line x1="-46.875" y1="-593.75" x2="-31.25" y2="-593.75" id="line_92" class="solid" />
<line x1="-31.25" y1="-562.5" x2="-46.875" y2="-562.5" id="line_94" class="solid" />
<line x1="-46.875" y1="-562.5" x2="-78.125" y2="-531.25" id="line_95" class="solid" />
<line x1="-156.25" y1="-531.25" x2="-156.25" y2="-562.5" id="line_97" class="solid" />
<line x1="-148.4375" y1="-593.75" x2="-46.875" y2="-593.75" id="line_99" class="solid" />
<line x1="-359.375" y1="-484.375" x2="-312.5" y2="-531.25" id="line_100" class="solid" />
<line x1="-312.5" y1="-531.25" x2="-156.25" y2="-531.25" id="line_101" class="solid" />
<line x1="-281.25" y1="-406.25" x2="-281.25" y2="-250.0" id="line_102" class="solid" />
<line x1="-218.75" y1="-468.75" x2="-281.25" y2="-406.25" id="line_103" class="solid" />
<line x1="-187.5" y1="-468.75" x2="-218.75" y2="-468.75" id="line_104" class="solid" />
<line x1="-187.5" y1="-437.5" x2="-187.5" y2="-468.75" id="line_106" class="solid" />
<line x1="109.375" y1="-468.75" x2="62.5" y2="-468.75" id="line_112" class="solid" />
<line x1="62.5" y1="-468.75" x2="62.5" y2="-437.5" id="line_113" class="solid" />
<line x1="62.5" y1="-437.5" x2="156.25" y2="-343.75" id="line_114" class="solid" />
<line x1="156.25" y1="-343.75" x2="187.5" y2="-343.75" id="line_115" class="solid" />
<line x1="187.5" y1="-343.75" x2="187.5" y2="-390.625" id="line_116" class="solid" />
<line x1="-78.125" y1="-531.25" x2="78.125" y2="-531.25" id="line_129" class="solid" />
<line x1="78.125" y1="-531.25" x2="78.125" y2="-546.875" id="line_130" class="solid" />
<line x1="62.5" y1="-562.5" x2="31.25" y2="-562.5" id="line_131" class="solid" />
<line x1="78.125" y1="-546.875" x2="62.5" y2="-562.5" id="line_132" class="solid" />
<line x1="78.125" y1="-593.75" x2="125.0" y2="-546.875" id="line_133" class="solid" />
<line x1="31.25" y1="-593.75" x2="78.125" y2="-593.75" id="line_134" class="solid" />
<line x1="250.0" y1="-421.875" x2="250.0" y2="-265.625" id="line_142" class="solid" />
<line x1="0.0" y1="-250.0" x2="187.5" y2="-250.0" id="line_149" class="solid" />
<line x1="-359.375" y1="-140.625" x2="-359.375" y2="-218.75" id="line_151" class="solid" />
<line x1="-93.75" y1="-78.125" x2="-93.75" y2="-171.875" id="line_155" class="solid" />
<line x1="-78.125" y1="-46.875" x2="-78.125" y2="-78.155517578125" id="line_156" class="solid" />
<line x1="-78.125" y1="-78.155517578125" x2="-93.75" y2="-78.125" id="line_157" class="solid" />
<line x1="-351.5625" y1="-593.75" x2="-148.4375" y2="-593.75" id="line_159" class="solid" />
<line x1="-156.25" y1="-562.5" x2="-312.5" y2="-562.5" id="line_160" class="solid" />
<line x1="-421.875" y1="-523.4375" x2="-351.5625" y2="-593.75" id="line_161" class="solid" />
<line x1="-312.5" y1="-562.5" x2="-375.0" y2="-500.0" id="line_162" class="solid" />
<line x1="-359.375" y1="-218.75" x2="-390.625" y2="-218.75" id="line_163" class="solid" />
<line x1="-390.625" y1="-218.75" x2="-421.875" y2="-250.0" id="line_164" class="solid" />
<line x1="-421.875" y1="-250.0" x2="-421.875" y2="-468.75" id="line_165" class="solid" />
<line x1="-375.0" y1="-500.0" x2="-375.0" y2="-484.375" id="line_166" class="solid" />
<line x1="-375.0" y1="-484.375" x2="-359.375" y2="-484.375" id="line_167" class="solid" />
<line x1="-421.875" y1="-468.75" x2="-421.875" y2="-523.4375" id="line_168" class="solid" />
<!-- end group: "border_solid" -->
</g>
<!-- end group: "borders" -->
</g>
<g id="panel_platform_switch_lines">
<g id="panel_platform_switch_lines_s13">
<g id="panel_platform_switch_line_group_poly_s13_p2">
<line x1="101.5625" y1="132.8125" x2="-54.6875" y2="142.181396484375" id="panel_platform_switch_border_s13_p2" class="platform_switch_border" />
<use xlink:href="../resources/svg/common.svg#arrow" x="-54.6875" y="142.181396484375" id="panel_platform_switch_head_s13_p2" class="platform_switch_line" transform="rotate(176.56859973082658 -54.6875 142.181396484375)" />
<line x1="101.5625" y1="132.8125" x2="-54.6875" y2="142.181396484375" id="panel_platform_switch_line_s13_p2" class="platform_switch_line" />
<!-- end group: "panel_platform_switch_line_group_poly_s13_p2" -->
</g>
<!-- end group: "panel_platform_switch_lines_s13" -->
</g>
<g id="panel_platform_switch_lines_s138">
<g id="panel_platform_switch_line_group_poly_s138_p2">
<line x1="-210.9375" y1="132.8125" x2="-54.6875" y2="142.181396484375" id="panel_platform_switch_border_s138_p2" class="platform_switch_border" />
<use xlink:href="../resources/svg/common.svg#arrow" x="-54.6875" y="142.181396484375" id="panel_platform_switch_head_s138_p2" class="platform_switch_line" transform="rotate(3.4314002691734387 -54.6875 142.181396484375)" />
<line x1="-210.9375" y1="132.8125" x2="-54.6875" y2="142.181396484375" id="panel_platform_switch_line_s138_p2" class="platform_switch_line" />
<!-- end group: "panel_platform_switch_line_group_poly_s138_p2" -->
</g>
<!-- end group: "panel_platform_switch_lines_s138" -->
</g>
<!-- end group: "panel_platform_switch_lines" -->
</g>
<g id="objects">
<g id="objects_sound">
<use xlink:href="../resources/svg/common.svg#sound" x="47.8515625" y="-98.6328125" id="object_20" class="sound sound-0" />
<use xlink:href="../resources/svg/common.svg#sound" x="-54.6875" y="134.765625" id="object_21" class="sound sound-20" />
<use xlink:href="../resources/svg/common.svg#sound" x="-418.9453125" y="-250.9765625" id="object_22" class="sound sound-20" />
<use xlink:href="../resources/svg/common.svg#sound" x="97.65625" y="132.8125" id="object_23" class="sound sound-20" />
<use xlink:href="../resources/svg/common.svg#sound" x="-208.0078125" y="132.8125" id="object_24" class="sound sound-20" />
<!-- end group: "objects_sound" -->
</g>
<g id="objects_item">
<use xlink:href="../resources/svg/common.svg#item" x="-54.19921875" y="140.625" id="object_1" class="item item-5" transform="rotate(270.703125 -54.19921875 140.625)" />
<use xlink:href="../resources/svg/common.svg#item" x="-87.34130859375" y="-87.34130859375" id="object_2" class="item item-8" />
<use xlink:href="../resources/svg/common.svg#item" x="153.25927734375" y="-179.62646484375" id="object_3" class="item item-8" />
<use xlink:href="../resources/svg/common.svg#item" x="-179.62646484375" y="-382.32421875" id="object_4" class="item item-3" />
<use xlink:href="../resources/svg/common.svg#item" x="0.0" y="-37.90283203125" id="object_5" class="item item-3" />
<use xlink:href="../resources/svg/common.svg#item" x="-63.17138671875" y="142.27294921875" id="object_6" class="item item-22" />
<use xlink:href="../resources/svg/common.svg#item" x="-125.244140625" y="-275.20751953125" id="object_7" class="item item-5" />
<use xlink:href="../resources/svg/common.svg#item" x="-374.08447265625" y="-225.76904296875" id="object_8" class="item item-5" />
<use xlink:href="../resources/svg/common.svg#item" x="-57.67822265625" y="87.34130859375" id="object_9" class="item item-5" />
<use xlink:href="../resources/svg/common.svg#item" x="-411.9873046875" y="-253.7841796875" id="object_10" class="item item-19" />
<use xlink:href="../resources/svg/common.svg#item" x="-18.12744140625" y="-351.01318359375" id="object_11" class="item item-10" />
<use xlink:href="../resources/svg/common.svg#item" x="-56.0302734375" y="70.86181640625" id="object_12" class="item item-11" />
<use xlink:href="../resources/svg/common.svg#item" x="-250.48828125" y="-177.978515625" id="object_13" class="item item-1" />
<use xlink:href="../resources/svg/common.svg#item" x="-56.0302734375" y="-215.88134765625" id="object_14" class="item item-1" />
<use xlink:href="../resources/svg/common.svg#item" x="-242.24853515625" y="-578.43017578125" id="object_15" class="item item-1" />
<use xlink:href="../resources/svg/common.svg#item" x="-367.49267578125" y="-472.96142578125" id="object_16" class="item item-3" />
<use xlink:href="../resources/svg/common.svg#item" x="-90.63720703125" y="-177.978515625" id="object_17" class="item item-3" />
<use xlink:href="../resources/svg/common.svg#item" x="-9.8876953125" y="-179.62646484375" id="object_18" class="item item-3" />
<use xlink:href="../resources/svg/common.svg#item" x="-39.55078125" y="140.07568359375" id="object_19" class="item item-22" />
<use xlink:href="../resources/svg/common.svg#item" x="-47.8515625" y="-217.7734375" id="object_33" class="item item-27" />
<!-- end group: "objects_item" -->
</g>
<g id="objects_player">
<use xlink:href="../resources/svg/common.svg#monster" x="-73.2421875" y="7.32421875" id="object_0" class="player" transform="rotate(88.59375 -73.2421875 7.32421875)" />
<use xlink:href="../resources/svg/common.svg#monster" x="-388.671875" y="-311.5234375" id="object_25" class="player" />
<use xlink:href="../resources/svg/common.svg#monster" x="-111.328125" y="-561.5234375" id="object_26" class="player" transform="rotate(88.59375 -111.328125 -561.5234375)" />
<use xlink:href="../resources/svg/common.svg#monster" x="-11.71875" y="-393.5546875" id="object_27" class="player" transform="rotate(39.375 -11.71875 -393.5546875)" />
<use xlink:href="../resources/svg/common.svg#monster" x="220.703125" y="-201.171875" id="object_28" class="player" transform="rotate(173.671875 220.703125 -201.171875)" />
<use xlink:href="../resources/svg/common.svg#monster" x="78.125" y="-211.9140625" id="object_29" class="player" />
<use xlink:href="../resources/svg/common.svg#monster" x="201.171875" y="-424.8046875" id="object_30" class="player" transform="rotate(72.421875 201.171875 -424.8046875)" />
<use xlink:href="../resources/svg/common.svg#monster" x="-144.53125" y="98.6328125" id="object_31" class="player" transform="rotate(2.8125 -144.53125 98.6328125)" />
<use xlink:href="../resources/svg/common.svg#monster" x="41.9921875" y="74.21875" id="object_32" class="player" transform="rotate(173.671875 41.9921875 74.21875)" />
<!-- end group: "objects_player" -->
</g>
<!-- end group: "objects" -->
</g>
<g id="panels">
<use xlink:href="../resources/svg/common.svg#panel" x="-54.6875" y="171.875" id="side_12" class="panel-double_shield_refuel" />
<use xlink:href="../resources/svg/common.svg#panel" x="101.5625" y="132.8125" id="side_13" class="panel-platform_switch" onmouseover="m_over('side_13');" onmouseout="m_out('side_13');" />
<use xlink:href="../resources/svg/common.svg#panel" x="-210.9375" y="132.8125" id="side_138" class="panel-platform_switch" onmouseover="m_over('side_138');" onmouseout="m_out('side_138');" />
<!-- end group: "panels" -->
</g>

<script xlink:href="../resources/js/level.js" ></script>
</svg>