<?xml version="1.0" encoding="UTF-8"?>
<!-- generated by map2svg: github.com/fracai/marathon-svg -->
<svg xmlns="http://www.w3.org/2000/svg" xmlns:xlink="http://www.w3.org/1999/xlink" version="1.1"
    viewBox="-343.75 -285.5224609375 687.5 571.10595703125">
<link xmlns="http://www.w3.org/1999/xhtml" rel="stylesheet" href="../resources/css/styles.css" type="text/css" />
<style id="dynamic-style" />
<g id="background-grid">
<defs>
<pattern id="grid_minor" width="3.125" height="3.125" patternUnits="userSpaceOnUse">
<path d="M 3.125 0 L 0 0 0 3.125" fill="none" class="grid_minor" />
</pattern>
<pattern id="grid_major" width="31.25" height="31.25" patternUnits="userSpaceOnUse">
<rect width="31.25" height="31.25" fill="url(#grid_minor)"/>
<path d="M 31.25 0 L 0 0 0 31.25" fill="none" class="grid_major" />
</pattern>
</defs>
<rect x="-1000" y="-1000" width="2000" height="2000" fill="url(#grid_major)" />
<line x1="0" y1="1000" x2="0" y2="-1000" class="grid_origin" />
<line x1="1000" y1="0" x2="-1000" y2="0" class="grid_origin" />
<!-- end group: "background-grid" -->
</g>
<g id="polygons">
<polygon points="-281.25,-31.25 -156.25,-31.25 -156.25,0.0 -281.25,0.0" id="poly_43" class="lava" />
<polygon points="156.25,-31.25 281.25,-31.25 281.25,0.0 156.25,0.0" id="poly_45" class="lava" />
<polygon points="-312.5,-31.25 -281.25,-31.25 -281.25,0.0 -312.5,0.0" id="poly_44" class="lava" />
<polygon points="281.25,-31.25 312.5,-31.25 312.5,0.0 281.25,0.0" id="poly_46" class="lava" />
<polygon points="31.25,-62.5 62.5,-62.5 62.5,-31.25" id="poly_0" class="lava" />
<polygon points="-62.5,-62.5 -31.25,-62.5 -62.5,-31.25" id="poly_1" class="lava" />
<polygon points="-62.5,31.25 -31.25,62.5 -62.5,62.5" id="poly_2" class="lava" />
<polygon points="62.5,31.25 62.5,62.5 31.25,62.5" id="poly_4" class="lava" />
<polygon points="-93.75,-125.0 93.75,-125.0 93.75,-93.75 62.5,-62.5 31.25,-62.5 -31.25,-62.5 -62.5,-62.5 -93.75,-93.75" id="poly_9" class="lava" />
<polygon points="62.5,-62.5 93.75,-93.75 93.75,93.75 62.5,62.5 62.5,31.25 62.5,-31.25" id="poly_10" class="lava" />
<polygon points="-93.75,93.75 -62.5,62.5 -31.25,62.5 31.25,62.5 62.5,62.5 93.75,93.75 93.75,125.0 -93.75,125.0" id="poly_11" class="lava" />
<polygon points="-93.75,-93.75 -62.5,-62.5 -62.5,-31.25 -62.5,31.25 -62.5,62.5 -93.75,93.75" id="poly_12" class="lava" />
<polygon points="93.75,-93.75 125.0,-93.75 156.25,-31.25 156.25,0.0 125.0,93.75 93.75,93.75" id="poly_13" class="lava" />
<polygon points="-125.0,-93.75 -93.75,-93.75 -93.75,93.75 -125.0,93.75 -156.25,0.0 -156.25,-31.25" id="poly_17" class="lava" />
<polygon points="-62.5,-31.25 -31.25,-62.5 31.25,-62.5 62.5,-31.25 62.5,31.25 31.25,62.5 -31.25,62.5 -62.5,31.25" id="poly_3" class="hill" />
<polygon points="-281.25,-93.75 -250.0,-93.75 -250.0,-62.5 -281.25,-62.5" id="poly_30" class="plain" />
<polygon points="-281.25,-93.75 -281.25,-62.5 -312.5,-62.5" id="poly_31" class="plain" />
<polygon points="-312.5,-62.5 -281.25,-62.5 -281.25,-31.25 -312.5,-31.25" id="poly_32" class="plain" />
<polygon points="-312.5,0.0 -281.25,0.0 -281.25,31.25 -312.5,31.25" id="poly_33" class="plain" />
<polygon points="-312.5,31.25 -281.25,31.25 -281.25,62.5" id="poly_34" class="plain" />
<polygon points="-281.25,31.25 -250.0,31.25 -250.0,62.5 -281.25,62.5" id="poly_35" class="plain" />
<polygon points="281.25,-93.75 312.5,-62.5 281.25,-62.5" id="poly_36" class="plain" />
<polygon points="281.25,-62.5 312.5,-62.5 312.5,-31.25 281.25,-31.25" id="poly_37" class="plain" />
<polygon points="281.25,31.25 312.5,31.25 281.25,62.5" id="poly_38" class="plain" />
<polygon points="281.25,0.0 312.5,0.0 312.5,31.25 281.25,31.25" id="poly_39" class="plain" />
<polygon points="250.0,31.25 281.25,31.25 281.25,62.5 250.0,62.5" id="poly_40" class="plain" />
<polygon points="250.0,-93.75 281.25,-93.75 281.25,-62.5 250.0,-62.5" id="poly_41" class="plain" />
<polygon points="-31.25,-250.0 -7.2021484375,-250.0 8.1787109375,-250.0 31.25,-250.0 31.25,-218.75 -31.25,-218.75" id="poly_57" class="plain" />
<polygon points="31.463623046875,250.06103515625 7.415771484375,250.06103515625 -7.965087890625,250.06103515625 -31.25,250.0 -31.25,218.75 31.25,218.75" id="poly_58" class="plain" />
<polygon points="93.75,-125.0 125.0,-125.0 125.0,-93.75 93.75,-93.75" id="poly_5" class="plain" />
<polygon points="-125.0,-125.0 -93.75,-125.0 -93.75,-93.75 -125.0,-93.75" id="poly_6" class="plain" />
<polygon points="-125.0,93.75 -93.75,93.75 -93.75,125.0 -125.0,125.0" id="poly_7" class="plain" />
<polygon points="93.75,93.75 125.0,93.75 125.0,125.0 93.75,125.0" id="poly_8" class="plain" />
<polygon points="125.0,-125.0 156.25,-156.25 156.25,-125.0 156.25,-31.25 125.0,-93.75" id="poly_14" class="plain" />
<polygon points="-156.25,-156.25 156.25,-156.25 125.0,-125.0 93.75,-125.0 -93.75,-125.0 -125.0,-125.0" id="poly_15" class="plain" />
<polygon points="-156.25,-125.0 -156.25,-156.25 -125.0,-125.0 -125.0,-93.75 -156.25,-31.25" id="poly_16" class="plain" />
<polygon points="-156.25,0.0 -125.0,93.75 -125.0,125.0 -156.25,156.25 -156.25,125.0" id="poly_18" class="plain" />
<polygon points="-125.0,125.0 -93.75,125.0 93.75,125.0 125.0,125.0 156.25,156.25 -156.25,156.25" id="poly_19" class="plain" />
<polygon points="125.0,93.75 156.25,0.0 156.25,125.0 156.25,156.25 125.0,125.0" id="poly_20" class="plain" />
<polygon points="162.109375,125.0 187.5,125.0 187.5,156.25 162.109375,156.25" id="poly_22" class="plain" />
<polygon points="164.0625,-156.25 187.5,-156.25 187.5,-125.0 164.0625,-125.0" id="poly_24" class="plain" />
<polygon points="-187.5,-156.25 -162.109375,-156.25 -162.109375,-125.0 -187.5,-125.0" id="poly_25" class="plain" />
<polygon points="-187.5,125.0 -163.0859375,125.0 -163.0859375,156.25 -187.5,156.25" id="poly_27" class="plain" />
<polygon points="-187.5,-125.0 -187.5,125.0 -250.0,31.25 -250.0,-62.5" id="poly_29" class="plain" />
<polygon points="187.5,-125.0 250.0,-62.5 250.0,31.25 187.5,125.0" id="poly_42" class="plain" />
<polygon points="-250.0,-187.5 -195.3125,-171.875 -187.5,-156.25 -187.5,-125.0 -250.0,-62.5 -250.0,-93.75" id="poly_47" class="plain" />
<polygon points="187.5,-125.0 187.5,-156.25 195.3125,-171.875 250.0,-187.5 250.0,-93.75 250.0,-62.5" id="poly_48" class="plain" />
<polygon points="187.5,-187.5 187.5,-218.75 250.0,-187.5 195.3125,-171.875" id="poly_49" class="plain" />
<polygon points="-187.5,-218.75 -31.25,-218.75 31.25,-218.75 187.5,-218.75 187.5,-187.5 -187.5,-187.5" id="poly_50" class="plain" />
<polygon points="-187.5,-218.75 -187.5,-187.5 -195.3125,-171.875 -250.0,-187.5" id="poly_51" class="plain" />
<polygon points="187.5,187.5 195.3125,171.875 250.0,187.5 187.5,218.75" id="poly_52" class="plain" />
<polygon points="250.0,31.25 250.0,62.5 250.0,187.5 195.3125,171.875 187.5,156.25 187.5,125.0" id="poly_53" class="plain" />
<polygon points="-250.0,62.5 -250.0,31.25 -187.5,125.0 -187.5,156.25 -195.3125,171.875 -250.0,187.5" id="poly_54" class="plain" />
<polygon points="-250.0,187.5 -195.3125,171.875 -187.5,187.5 -187.5,218.75" id="poly_55" class="plain" />
<polygon points="-187.5,187.5 187.5,187.5 187.5,218.75 31.25,218.75 -31.25,218.75 -187.5,218.75" id="poly_60" class="plain" />
<polygon points="-7.2021484375,-254.2724609375 8.1787109375,-254.2724609375 8.1787109375,-250.0 -7.2021484375,-250.0" id="poly_56" class="plain" />
<polygon points="7.415771484375,254.33349609375 -7.965087890625,254.33349609375 -7.965087890625,250.06103515625 7.415771484375,250.06103515625" id="poly_59" class="plain" />
<polygon points="156.25,125.0 162.109375,125.0 162.109375,156.25 156.25,156.25" id="poly_21" class="platform" />
<polygon points="156.25,-156.25 164.0625,-156.25 164.0625,-125.0 156.25,-125.0" id="poly_23" class="platform" />
<polygon points="-162.109375,-156.25 -156.25,-156.25 -156.25,-125.0 -162.109375,-125.0" id="poly_26" class="platform" />
<polygon points="-163.0859375,125.0 -156.25,125.0 -156.25,156.25 -163.0859375,156.25" id="poly_28" class="platform" />
<!-- end group: "polygons" -->
</g>
<g id="borders">
<g id="border_plain">
<line x1="93.75" y1="-125.0" x2="125.0" y2="-125.0" id="line_22" class="plain" />
<line x1="125.0" y1="-125.0" x2="125.0" y2="-93.75" id="line_23" class="plain" />
<line x1="-125.0" y1="-125.0" x2="-93.75" y2="-125.0" id="line_24" class="plain" />
<line x1="-125.0" y1="-93.75" x2="-125.0" y2="-125.0" id="line_25" class="plain" />
<line x1="125.0" y1="125.0" x2="93.75" y2="125.0" id="line_26" class="plain" />
<line x1="125.0" y1="93.75" x2="125.0" y2="125.0" id="line_27" class="plain" />
<line x1="-93.75" y1="125.0" x2="-125.0" y2="125.0" id="line_29" class="plain" />
<line x1="-125.0" y1="125.0" x2="-125.0" y2="93.75" id="line_30" class="plain" />
<line x1="-62.5" y1="-62.5" x2="-93.75" y2="-93.75" id="line_33" class="plain" />
<line x1="93.75" y1="-93.75" x2="62.5" y2="-62.5" id="line_34" class="plain" />
<line x1="93.75" y1="93.75" x2="62.5" y2="62.5" id="line_35" class="plain" />
<line x1="93.75" y1="-93.75" x2="93.75" y2="93.75" id="line_36" class="plain" />
<line x1="-93.75" y1="93.75" x2="-62.5" y2="62.5" id="line_37" class="plain" />
<line x1="-93.75" y1="93.75" x2="-93.75" y2="-93.75" id="line_39" class="plain" />
<line x1="125.0" y1="125.0" x2="156.25" y2="156.25" id="line_62" class="plain" />
<line x1="125.0" y1="-125.0" x2="156.25" y2="-156.25" id="line_63" class="plain" />
<line x1="-125.0" y1="-125.0" x2="-156.25" y2="-156.25" id="line_64" class="plain" />
<line x1="-125.0" y1="125.0" x2="-156.25" y2="156.25" id="line_65" class="plain" />
<line x1="187.5" y1="-156.25" x2="187.5" y2="-125.0" id="line_67" class="plain" />
<line x1="-187.5" y1="-125.0" x2="-187.5" y2="-156.25" id="line_70" class="plain" />
<line x1="187.5" y1="125.0" x2="187.5" y2="156.25" id="line_73" class="plain" />
<line x1="-187.5" y1="156.25" x2="-187.5" y2="125.0" id="line_76" class="plain" />
<line x1="-250.0" y1="-187.5" x2="-195.3125" y2="-171.875" id="line_90" class="plain" />
<line x1="-281.25" y1="-62.5" x2="-281.25" y2="-93.75" id="line_110" class="plain" />
<line x1="-281.25" y1="-62.5" x2="-312.5" y2="-62.5" id="line_111" class="plain" />
<line x1="-281.25" y1="31.25" x2="-312.5" y2="31.25" id="line_112" class="plain" />
<line x1="-281.25" y1="31.25" x2="-281.25" y2="62.5" id="line_113" class="plain" />
<line x1="-187.5" y1="125.0" x2="-250.0" y2="31.25" id="line_114" class="plain" />
<line x1="-250.0" y1="-62.5" x2="-187.5" y2="-125.0" id="line_115" class="plain" />
<line x1="195.3125" y1="171.875" x2="250.0" y2="187.5" id="line_117" class="plain" />
<line x1="281.25" y1="-62.5" x2="281.25" y2="-93.75" id="line_136" class="plain" />
<line x1="312.5" y1="-62.5" x2="281.25" y2="-62.5" id="line_137" class="plain" />
<line x1="281.25" y1="31.25" x2="312.5" y2="31.25" id="line_138" class="plain" />
<line x1="281.25" y1="62.5" x2="281.25" y2="31.25" id="line_139" class="plain" />
<line x1="187.5" y1="-125.0" x2="250.0" y2="-62.5" id="line_140" class="plain" />
<line x1="250.0" y1="31.25" x2="187.5" y2="125.0" id="line_141" class="plain" />
<line x1="195.3125" y1="-171.875" x2="250.0" y2="-187.5" id="line_144" class="plain" />
<line x1="-187.5" y1="-187.5" x2="-187.5" y2="-218.75" id="line_156" class="plain" />
<line x1="187.5" y1="-187.5" x2="187.5" y2="-218.75" id="line_157" class="plain" />
<line x1="-195.3125" y1="171.875" x2="-250.0" y2="187.5" id="line_162" class="plain" />
<line x1="187.5" y1="218.75" x2="187.5" y2="187.5" id="line_165" class="plain" />
<line x1="-187.5" y1="187.5" x2="-187.5" y2="218.75" id="line_166" class="plain" />
<!-- end group: "border_plain" -->
</g>
<g id="border_ceiling">
<line x1="-156.25" y1="0.0" x2="-156.25" y2="-31.25" id="line_56" class="ceiling" />
<line x1="156.25" y1="-31.25" x2="156.25" y2="0.0" id="line_57" class="ceiling" />
<line x1="-250.0" y1="-93.75" x2="-250.0" y2="-62.5" id="line_100" class="ceiling" />
<line x1="-250.0" y1="31.25" x2="-250.0" y2="62.5" id="line_104" class="ceiling" />
<line x1="250.0" y1="-62.5" x2="250.0" y2="-93.75" id="line_122" class="ceiling" />
<line x1="250.0" y1="62.5" x2="250.0" y2="31.25" id="line_130" class="ceiling" />
<line x1="-31.25" y1="-218.75" x2="31.25" y2="-218.75" id="line_154" class="ceiling" />
<line x1="-31.25" y1="218.75" x2="31.25" y2="218.75" id="line_174" class="ceiling" />
<!-- end group: "border_ceiling" -->
</g>
<g id="border_elevation">
<line x1="-31.25" y1="-62.5" x2="31.25" y2="-62.5" id="line_0" class="elevation" />
<line x1="62.5" y1="-31.25" x2="62.5" y2="31.25" id="line_2" class="elevation" />
<line x1="31.25" y1="62.5" x2="-31.25" y2="62.5" id="line_4" class="elevation" />
<line x1="-62.5" y1="31.25" x2="-62.5" y2="-31.25" id="line_6" class="elevation" />
<line x1="93.75" y1="125.0" x2="93.75" y2="93.75" id="line_16" class="elevation" />
<line x1="93.75" y1="93.75" x2="125.0" y2="93.75" id="line_17" class="elevation" />
<line x1="93.75" y1="-93.75" x2="93.75" y2="-125.0" id="line_18" class="elevation" />
<line x1="125.0" y1="-93.75" x2="93.75" y2="-93.75" id="line_19" class="elevation" />
<line x1="-93.75" y1="-125.0" x2="-93.75" y2="-93.75" id="line_20" class="elevation" />
<line x1="-93.75" y1="-93.75" x2="-125.0" y2="-93.75" id="line_21" class="elevation" />
<line x1="-93.75" y1="93.75" x2="-93.75" y2="125.0" id="line_28" class="elevation" />
<line x1="-125.0" y1="93.75" x2="-93.75" y2="93.75" id="line_31" class="elevation" />
<line x1="-93.75" y1="-125.0" x2="93.75" y2="-125.0" id="line_32" class="elevation" />
<line x1="93.75" y1="125.0" x2="-93.75" y2="125.0" id="line_38" class="elevation" />
<line x1="-125.0" y1="-93.75" x2="-156.25" y2="-31.25" id="line_58" class="elevation" />
<line x1="-125.0" y1="93.75" x2="-156.25" y2="0.0" id="line_59" class="elevation" />
<line x1="125.0" y1="-93.75" x2="156.25" y2="-31.25" id="line_60" class="elevation" />
<line x1="156.25" y1="0.0" x2="125.0" y2="93.75" id="line_61" class="elevation" />
<line x1="8.1787109375" y1="-250.0" x2="-7.2021484375" y2="-250.0" id="line_168" class="elevation" />
<line x1="-7.965087890625" y1="250.06103515625" x2="7.415771484375" y2="250.06103515625" id="line_178" class="elevation" />
<!-- end group: "border_elevation" -->
</g>
<g id="border_solid">
<line x1="62.5" y1="-31.25" x2="31.25" y2="-62.5" id="line_1" class="solid" />
<line x1="62.5" y1="31.25" x2="31.25" y2="62.5" id="line_3" class="solid" />
<line x1="-62.5" y1="31.25" x2="-31.25" y2="62.5" id="line_5" class="solid" />
<line x1="-31.25" y1="-62.5" x2="-62.5" y2="-31.25" id="line_7" class="solid" />
<line x1="31.25" y1="-62.5" x2="62.5" y2="-62.5" id="line_8" class="solid" />
<line x1="62.5" y1="-62.5" x2="62.5" y2="-31.25" id="line_9" class="solid" />
<line x1="62.5" y1="31.25" x2="62.5" y2="62.5" id="line_10" class="solid" />
<line x1="62.5" y1="62.5" x2="31.25" y2="62.5" id="line_11" class="solid" />
<line x1="-31.25" y1="62.5" x2="-62.5" y2="62.5" id="line_12" class="solid" />
<line x1="-62.5" y1="62.5" x2="-62.5" y2="31.25" id="line_13" class="solid" />
<line x1="-62.5" y1="-31.25" x2="-62.5" y2="-62.5" id="line_14" class="solid" />
<line x1="-62.5" y1="-62.5" x2="-31.25" y2="-62.5" id="line_15" class="solid" />
<line x1="-156.25" y1="-156.25" x2="156.25" y2="-156.25" id="line_40" class="solid" />
<line x1="-156.25" y1="-125.0" x2="-156.25" y2="-156.25" id="line_41" class="solid" />
<line x1="156.25" y1="-156.25" x2="156.25" y2="-125.0" id="line_42" class="solid" />
<line x1="156.25" y1="156.25" x2="-156.25" y2="156.25" id="line_43" class="solid" />
<line x1="156.25" y1="125.0" x2="156.25" y2="156.25" id="line_44" class="solid" />
<line x1="-156.25" y1="156.25" x2="-156.25" y2="125.0" id="line_45" class="solid" />
<line x1="-156.25" y1="-31.25" x2="-156.25" y2="-125.0" id="line_46" class="solid" />
<line x1="-156.25" y1="125.0" x2="-156.25" y2="0.0" id="line_47" class="solid" />
<line x1="156.25" y1="-125.0" x2="156.25" y2="-31.25" id="line_48" class="solid" />
<line x1="156.25" y1="0.0" x2="156.25" y2="125.0" id="line_49" class="solid" />
<line x1="156.25" y1="-31.25" x2="281.25" y2="-31.25" id="line_50" class="solid" />
<line x1="312.5" y1="-31.25" x2="312.5" y2="0.0" id="line_51" class="solid" />
<line x1="281.25" y1="0.0" x2="312.5" y2="0.0" id="line_52" class="solid" />
<line x1="-281.25" y1="-31.25" x2="-156.25" y2="-31.25" id="line_53" class="solid" />
<line x1="-312.5" y1="0.0" x2="-312.5" y2="-31.25" id="line_54" class="solid" />
<line x1="-312.5" y1="0.0" x2="-281.25" y2="0.0" id="line_55" class="solid" />
<line x1="156.25" y1="-156.25" x2="164.0625" y2="-156.25" id="line_66" class="solid" />
<line x1="187.5" y1="-125.0" x2="164.0625" y2="-125.0" id="line_68" class="solid" />
<line x1="-162.109375" y1="-156.25" x2="-156.25" y2="-156.25" id="line_69" class="solid" />
<line x1="-162.109375" y1="-125.0" x2="-187.5" y2="-125.0" id="line_71" class="solid" />
<line x1="156.25" y1="125.0" x2="162.109375" y2="125.0" id="line_72" class="solid" />
<line x1="187.5" y1="156.25" x2="162.109375" y2="156.25" id="line_74" class="solid" />
<line x1="-163.0859375" y1="125.0" x2="-156.25" y2="125.0" id="line_75" class="solid" />
<line x1="-163.0859375" y1="156.25" x2="-187.5" y2="156.25" id="line_77" class="solid" />
<line x1="162.109375" y1="125.0" x2="187.5" y2="125.0" id="line_78" class="solid" />
<line x1="162.109375" y1="156.25" x2="156.25" y2="156.25" id="line_79" class="solid" />
<line x1="162.109375" y1="125.0" x2="162.109375" y2="156.25" id="line_80" class="solid" />
<line x1="164.0625" y1="-156.25" x2="187.5" y2="-156.25" id="line_81" class="solid" />
<line x1="164.0625" y1="-125.0" x2="156.25" y2="-125.0" id="line_82" class="solid" />
<line x1="164.0625" y1="-156.25" x2="164.0625" y2="-125.0" id="line_83" class="solid" />
<line x1="-187.5" y1="-156.25" x2="-162.109375" y2="-156.25" id="line_84" class="solid" />
<line x1="-156.25" y1="-125.0" x2="-162.109375" y2="-125.0" id="line_85" class="solid" />
<line x1="-162.109375" y1="-156.25" x2="-162.109375" y2="-125.0" id="line_86" class="solid" />
<line x1="-187.5" y1="125.0" x2="-163.0859375" y2="125.0" id="line_87" class="solid" />
<line x1="-156.25" y1="156.25" x2="-163.0859375" y2="156.25" id="line_88" class="solid" />
<line x1="-163.0859375" y1="125.0" x2="-163.0859375" y2="156.25" id="line_89" class="solid" />
<line x1="-187.5" y1="156.25" x2="-195.3125" y2="171.875" id="line_91" class="solid" />
<line x1="-250.0" y1="-93.75" x2="-250.0" y2="-187.5" id="line_92" class="solid" />
<line x1="-187.5" y1="-125.0" x2="-187.5" y2="125.0" id="line_93" class="solid" />
<line x1="-281.25" y1="-31.25" x2="-312.5" y2="-31.25" id="line_94" class="solid" />
<line x1="-281.25" y1="-62.5" x2="-281.25" y2="-31.25" id="line_95" class="solid" />
<line x1="-250.0" y1="31.25" x2="-250.0" y2="-62.5" id="line_96" class="solid" />
<line x1="-250.0" y1="-62.5" x2="-281.25" y2="-62.5" id="line_97" class="solid" />
<line x1="-312.5" y1="-31.25" x2="-312.5" y2="-62.5" id="line_98" class="solid" />
<line x1="-312.5" y1="-62.5" x2="-281.25" y2="-93.75" id="line_99" class="solid" />
<line x1="-281.25" y1="-93.75" x2="-250.0" y2="-93.75" id="line_101" class="solid" />
<line x1="-156.25" y1="0.0" x2="-281.25" y2="0.0" id="line_102" class="solid" />
<line x1="-281.25" y1="0.0" x2="-281.25" y2="31.25" id="line_103" class="solid" />
<line x1="-281.25" y1="31.25" x2="-250.0" y2="31.25" id="line_105" class="solid" />
<line x1="-312.5" y1="31.25" x2="-312.5" y2="0.0" id="line_106" class="solid" />
<line x1="-281.25" y1="62.5" x2="-312.5" y2="31.25" id="line_107" class="solid" />
<line x1="-250.0" y1="187.5" x2="-250.0" y2="62.5" id="line_108" class="solid" />
<line x1="-250.0" y1="62.5" x2="-281.25" y2="62.5" id="line_109" class="solid" />
<line x1="187.5" y1="-156.25" x2="195.3125" y2="-171.875" id="line_116" class="solid" />
<line x1="250.0" y1="-187.5" x2="250.0" y2="-93.75" id="line_118" class="solid" />
<line x1="187.5" y1="125.0" x2="187.5" y2="-125.0" id="line_119" class="solid" />
<line x1="312.5" y1="-62.5" x2="312.5" y2="-31.25" id="line_120" class="solid" />
<line x1="281.25" y1="-93.75" x2="312.5" y2="-62.5" id="line_121" class="solid" />
<line x1="250.0" y1="-93.75" x2="281.25" y2="-93.75" id="line_123" class="solid" />
<line x1="312.5" y1="-31.25" x2="281.25" y2="-31.25" id="line_124" class="solid" />
<line x1="281.25" y1="-31.25" x2="281.25" y2="-62.5" id="line_125" class="solid" />
<line x1="250.0" y1="-62.5" x2="250.0" y2="31.25" id="line_126" class="solid" />
<line x1="281.25" y1="-62.5" x2="250.0" y2="-62.5" id="line_127" class="solid" />
<line x1="281.25" y1="0.0" x2="156.25" y2="0.0" id="line_128" class="solid" />
<line x1="281.25" y1="31.25" x2="281.25" y2="0.0" id="line_129" class="solid" />
<line x1="250.0" y1="31.25" x2="281.25" y2="31.25" id="line_131" class="solid" />
<line x1="312.5" y1="0.0" x2="312.5" y2="31.25" id="line_132" class="solid" />
<line x1="312.5" y1="31.25" x2="281.25" y2="62.5" id="line_133" class="solid" />
<line x1="250.0" y1="62.5" x2="250.0" y2="187.5" id="line_134" class="solid" />
<line x1="281.25" y1="62.5" x2="250.0" y2="62.5" id="line_135" class="solid" />
<line x1="-281.25" y1="0.0" x2="-281.25" y2="-31.25" id="line_142" class="solid" />
<line x1="281.25" y1="-31.25" x2="281.25" y2="0.0" id="line_143" class="solid" />
<line x1="195.3125" y1="-171.875" x2="187.5" y2="-187.5" id="line_145" class="solid" />
<line x1="187.5" y1="-218.75" x2="250.0" y2="-187.5" id="line_146" class="solid" />
<line x1="31.25" y1="-218.75" x2="187.5" y2="-218.75" id="line_147" class="solid" />
<line x1="187.5" y1="-187.5" x2="-187.5" y2="-187.5" id="line_148" class="solid" />
<line x1="-195.3125" y1="-171.875" x2="-187.5" y2="-156.25" id="line_149" class="solid" />
<line x1="-187.5" y1="-187.5" x2="-195.3125" y2="-171.875" id="line_150" class="solid" />
<line x1="-250.0" y1="-187.5" x2="-187.5" y2="-218.75" id="line_151" class="solid" />
<line x1="-187.5" y1="-218.75" x2="-31.25" y2="-218.75" id="line_152" class="solid" />
<line x1="-31.25" y1="-218.75" x2="-31.25" y2="-250.0" id="line_153" class="solid" />
<line x1="31.25" y1="-250.0" x2="31.25" y2="-218.75" id="line_155" class="solid" />
<line x1="250.0" y1="187.5" x2="187.5" y2="218.75" id="line_158" class="solid" />
<line x1="195.3125" y1="171.875" x2="187.5" y2="156.25" id="line_159" class="solid" />
<line x1="187.5" y1="187.5" x2="195.3125" y2="171.875" id="line_160" class="solid" />
<line x1="-187.5" y1="187.5" x2="187.5" y2="187.5" id="line_161" class="solid" />
<line x1="-195.3125" y1="171.875" x2="-187.5" y2="187.5" id="line_163" class="solid" />
<line x1="-187.5" y1="218.75" x2="-250.0" y2="187.5" id="line_164" class="solid" />
<line x1="-31.25" y1="-250.0" x2="-7.2021484375" y2="-250.0" id="line_167" class="solid" />
<line x1="8.1787109375" y1="-250.0" x2="31.25" y2="-250.0" id="line_169" class="solid" />
<line x1="-7.2021484375" y1="-250.0" x2="-7.2021484375" y2="-254.2724609375" id="line_170" class="solid" />
<line x1="-7.2021484375" y1="-254.2724609375" x2="8.1787109375" y2="-254.2724609375" id="line_171" class="solid" />
<line x1="8.1787109375" y1="-254.2724609375" x2="8.1787109375" y2="-250.0" id="line_172" class="solid" />
<line x1="31.25" y1="218.75" x2="31.463623046875" y2="250.06103515625" id="line_173" class="solid" />
<line x1="31.463623046875" y1="250.06103515625" x2="7.415771484375" y2="250.06103515625" id="line_175" class="solid" />
<line x1="-31.25" y1="250.0" x2="-31.25" y2="218.75" id="line_176" class="solid" />
<line x1="-7.965087890625" y1="250.06103515625" x2="-31.25" y2="250.0" id="line_177" class="solid" />
<line x1="7.415771484375" y1="250.06103515625" x2="7.415771484375" y2="254.33349609375" id="line_179" class="solid" />
<line x1="-7.965087890625" y1="254.33349609375" x2="-7.965087890625" y2="250.06103515625" id="line_180" class="solid" />
<line x1="7.415771484375" y1="254.33349609375" x2="-7.965087890625" y2="254.33349609375" id="line_181" class="solid" />
<line x1="187.5" y1="218.75" x2="31.25" y2="218.75" id="line_182" class="solid" />
<line x1="-31.25" y1="218.75" x2="-187.5" y2="218.75" id="line_183" class="solid" />
<!-- end group: "border_solid" -->
</g>
<!-- end group: "borders" -->
</g>
<g id="objects">
<g id="objects_sound">
<use xlink:href="../resources/svg/common.svg#sound" x="-1.739501953125" y="-95.21484375" id="object_8" class="sound sound-2" />
<use xlink:href="../resources/svg/common.svg#sound" x="-51.7578125" y="52.734375" id="object_18" class="sound sound-5" />
<use xlink:href="../resources/svg/common.svg#sound" x="-53.7109375" y="-53.7109375" id="object_19" class="sound sound-5" />
<use xlink:href="../resources/svg/common.svg#sound" x="50.78125" y="-52.734375" id="object_20" class="sound sound-5" />
<use xlink:href="../resources/svg/common.svg#sound" x="52.734375" y="49.8046875" id="object_21" class="sound sound-5" />
<use xlink:href="../resources/svg/common.svg#sound" x="159.1796875" y="140.625" id="object_22" class="sound sound-5" />
<use xlink:href="../resources/svg/common.svg#sound" x="-159.1796875" y="140.625" id="object_23" class="sound sound-5" />
<use xlink:href="../resources/svg/common.svg#sound" x="-158.203125" y="-139.6484375" id="object_24" class="sound sound-5" />
<use xlink:href="../resources/svg/common.svg#sound" x="160.7666015625" y="-140.19775390625" id="object_25" class="sound sound-5" />
<use xlink:href="../resources/svg/common.svg#sound" x="297.8515625" y="-14.6484375" id="object_26" class="sound sound-5" />
<use xlink:href="../resources/svg/common.svg#sound" x="-296.875" y="-15.625" id="object_27" class="sound sound-5" />
<use xlink:href="../resources/svg/common.svg#sound" x="78.826904296875" y="-77.545166015625" id="object_28" class="sound sound-2" />
<use xlink:href="../resources/svg/common.svg#sound" x="78.18603515625" y="-1.28173828125" id="object_29" class="sound sound-2" />
<use xlink:href="../resources/svg/common.svg#sound" x="77.545166015625" y="76.904296875" id="object_30" class="sound sound-2" />
<use xlink:href="../resources/svg/common.svg#sound" x="1.922607421875" y="99.334716796875" id="object_31" class="sound sound-2" />
<use xlink:href="../resources/svg/common.svg#sound" x="-108.94775390625" y="-11.53564453125" id="object_32" class="sound sound-2" />
<use xlink:href="../resources/svg/common.svg#sound" x="-78.18603515625" y="78.826904296875" id="object_33" class="sound sound-2" />
<use xlink:href="../resources/svg/common.svg#sound" x="-78.18603515625" y="-77.545166015625" id="object_34" class="sound sound-2" />
<use xlink:href="../resources/svg/common.svg#sound" x="-0.946044921875" y="-251.64794921875" id="object_35" class="sound sound-20" />
<use xlink:href="../resources/svg/common.svg#sound" x="-0.946044921875" y="251.64794921875" id="object_36" class="sound sound-20" />
<use xlink:href="../resources/svg/common.svg#sound" x="-301.7578125" y="-16.6015625" id="object_37" class="sound sound-2" />
<use xlink:href="../resources/svg/common.svg#sound" x="302.734375" y="-16.6015625" id="object_38" class="sound sound-2" />
<!-- end group: "objects_sound" -->
</g>
<g id="objects_object">
<use xlink:href="../resources/svg/common.svg#object" x="218.26171875" y="-177.24609375" id="object_39" class="object object-6" />
<use xlink:href="../resources/svg/common.svg#object" x="218.26171875" y="-93.75" id="object_40" class="object object-6" />
<use xlink:href="../resources/svg/common.svg#object" x="218.26171875" y="79.1015625" id="object_41" class="object object-6" />
<use xlink:href="../resources/svg/common.svg#object" x="218.26171875" y="178.7109375" id="object_42" class="object object-6" />
<use xlink:href="../resources/svg/common.svg#object" x="1.46484375" y="-202.1484375" id="object_43" class="object object-6" />
<use xlink:href="../resources/svg/common.svg#object" x="93.75" y="-202.1484375" id="object_44" class="object object-6" />
<use xlink:href="../resources/svg/common.svg#object" x="-95.21484375" y="-202.1484375" id="object_45" class="object object-6" />
<use xlink:href="../resources/svg/common.svg#object" x="-218.26171875" y="-178.7109375" id="object_46" class="object object-6" />
<use xlink:href="../resources/svg/common.svg#object" x="-218.26171875" y="-95.21484375" id="object_47" class="object object-6" />
<use xlink:href="../resources/svg/common.svg#object" x="-218.26171875" y="77.63671875" id="object_48" class="object object-6" />
<use xlink:href="../resources/svg/common.svg#object" x="-218.26171875" y="177.24609375" id="object_49" class="object object-6" />
<use xlink:href="../resources/svg/common.svg#object" x="0.0" y="202.1484375" id="object_50" class="object object-6" />
<use xlink:href="../resources/svg/common.svg#object" x="93.75" y="202.1484375" id="object_51" class="object object-6" />
<use xlink:href="../resources/svg/common.svg#object" x="-93.75" y="202.1484375" id="object_52" class="object object-6" />
<use xlink:href="../resources/svg/common.svg#object" x="218.26171875" y="-14.6484375" id="object_53" class="object object-6" />
<use xlink:href="../resources/svg/common.svg#object" x="-216.796875" y="-13.18359375" id="object_54" class="object object-6" />
<!-- end group: "objects_object" -->
</g>
<g id="objects_item">
<use xlink:href="../resources/svg/common.svg#item" x="171.38671875" y="-16.11328125" id="object_2" class="item item-5" transform="rotate(270.703125 171.38671875 -16.11328125)" />
<use xlink:href="../resources/svg/common.svg#item" x="-171.38671875" y="-16.11328125" id="object_3" class="item item-5" transform="rotate(270.703125 -171.38671875 -16.11328125)" />
<use xlink:href="../resources/svg/common.svg#item" x="-4.39453125" y="-112.79296875" id="object_4" class="item item-8" />
<use xlink:href="../resources/svg/common.svg#item" x="0.0" y="115.72265625" id="object_5" class="item item-15" />
<use xlink:href="../resources/svg/common.svg#item" x="108.3984375" y="-108.3984375" id="object_6" class="item item-3" />
<use xlink:href="../resources/svg/common.svg#item" x="-109.86328125" y="-108.3984375" id="object_7" class="item item-1" />
<use xlink:href="../resources/svg/common.svg#item" x="288.57421875" y="41.015625" id="object_9" class="item item-1" />
<use xlink:href="../resources/svg/common.svg#item" x="-291.50390625" y="41.015625" id="object_10" class="item item-3" />
<use xlink:href="../resources/svg/common.svg#item" x="1.953125" y="4.8828125" id="object_17" class="item item-27" />
<!-- end group: "objects_item" -->
</g>
<g id="objects_player">
<use xlink:href="../resources/svg/common.svg#monster" x="156.3720703125" y="-202.5146484375" id="object_0" class="player" />
<use xlink:href="../resources/svg/common.svg#monster" x="-157.65380859375" y="-201.23291015625" id="object_1" class="player" transform="rotate(178.59375 -157.65380859375 -201.23291015625)" />
<use xlink:href="../resources/svg/common.svg#monster" x="169.921875" y="203.61328125" id="object_11" class="player" />
<use xlink:href="../resources/svg/common.svg#monster" x="-172.8515625" y="203.61328125" id="object_12" class="player" transform="rotate(178.59375 -172.8515625 203.61328125)" />
<use xlink:href="../resources/svg/common.svg#monster" x="297.36328125" y="-46.875" id="object_13" class="player" transform="rotate(270.703125 297.36328125 -46.875)" />
<use xlink:href="../resources/svg/common.svg#monster" x="295.8984375" y="17.578125" id="object_14" class="player" transform="rotate(88.59375 295.8984375 17.578125)" />
<use xlink:href="../resources/svg/common.svg#monster" x="-295.8984375" y="-48.33984375" id="object_15" class="player" transform="rotate(270.703125 -295.8984375 -48.33984375)" />
<use xlink:href="../resources/svg/common.svg#monster" x="-295.8984375" y="14.6484375" id="object_16" class="player" transform="rotate(88.59375 -295.8984375 14.6484375)" />
<!-- end group: "objects_player" -->
</g>
<!-- end group: "objects" -->
</g>
<g id="panels">
<use xlink:href="../resources/svg/common.svg#panel" x="0.48828125" y="-254.2724609375" id="side_121" class="panel-triple_shield_refuel" />
<use xlink:href="../resources/svg/common.svg#panel" x="-0.274658203125" y="254.33349609375" id="side_132" class="panel-triple_shield_refuel" />
<!-- end group: "panels" -->
</g>

<script xlink:href="../resources/js/level.js" ></script>
</svg>