<?xml version="1.0" encoding="UTF-8"?>
<!-- generated by map2svg: github.com/fracai/marathon-svg -->
<svg xmlns="http://www.w3.org/2000/svg" xmlns:xlink="http://www.w3.org/1999/xlink" version="1.1"
    viewBox="-500.0 -531.25 1014.6484375 1062.5">
<link xmlns="http://www.w3.org/1999/xhtml" rel="stylesheet" href="../resources/css/styles.css" type="text/css" />
<style id="dynamic-style" />
<g id="background-grid">
<defs>
<pattern id="grid_minor" width="3.125" height="3.125" patternUnits="userSpaceOnUse">
<path d="M 3.125 0 L 0 0 0 3.125" fill="none" class="grid_minor" />
</pattern>
<pattern id="grid_major" width="31.25" height="31.25" patternUnits="userSpaceOnUse">
<rect width="31.25" height="31.25" fill="url(#grid_minor)"/>
<path d="M 31.25 0 L 0 0 0 31.25" fill="none" class="grid_major" />
</pattern>
</defs>
<rect x="-1000" y="-1000" width="2000" height="2000" fill="url(#grid_major)" />
<line x1="0" y1="1000" x2="0" y2="-1000" class="grid_origin" />
<line x1="1000" y1="0" x2="-1000" y2="0" class="grid_origin" />
<!-- end group: "background-grid" -->
</g>
<g id="polygons">
<polygon points="234.375,-70.3125 265.625,-70.3125 265.625,-46.875 257.8125,-39.0625 242.1875,-39.0625 234.375,-46.875" id="poly_73" class="plain" />
<polygon points="-265.625,-70.3125 -234.375,-70.3125 -234.375,-46.875 -242.1875,-39.0625 -257.8125,-39.0625 -265.625,-46.875" id="poly_76" class="plain" />
<polygon points="-31.25,-109.375 -31.25,-156.25 31.25,-156.25 31.25,-109.375 31.25,-62.5 -31.25,-62.5" id="poly_0" class="plain" />
<polygon points="-62.5,-31.25 -31.25,-62.5 31.25,-62.5 62.5,-31.25 62.5,31.25 31.25,62.5 -31.25,62.5 -62.5,31.25" id="poly_1" class="hill" />
<polygon points="-31.25,62.5 31.25,62.5 31.25,109.375 31.25,156.25 -31.25,156.25 -31.25,109.375" id="poly_2" class="plain" />
<polygon points="31.25,109.375 78.125,109.375 93.75,156.25 31.25,156.25" id="poly_3" class="plain" />
<polygon points="78.125,109.375 109.375,93.75 156.25,125.0 93.75,156.25" id="poly_4" class="plain" />
<polygon points="125.0,62.5 187.5,62.5 156.25,125.0 109.375,93.75" id="poly_5" class="plain" />
<polygon points="125.0,31.25 187.5,31.25 187.5,62.5 125.0,62.5" id="poly_6" class="plain" />
<polygon points="125.0,-62.5 187.5,-62.5 187.5,-31.25 125.0,-31.25" id="poly_7" class="plain" />
<polygon points="109.375,-93.75 156.25,-125.0 187.5,-62.5 125.0,-62.5" id="poly_8" class="plain" />
<polygon points="93.75,-156.25 156.25,-125.0 109.375,-93.75 78.125,-109.375" id="poly_9" class="plain" />
<polygon points="31.25,-156.25 93.75,-156.25 78.125,-109.375 31.25,-109.375" id="poly_10" class="plain" />
<polygon points="-93.75,-156.25 -31.25,-156.25 -31.25,-109.375 -78.125,-109.375" id="poly_11" class="plain" />
<polygon points="-156.25,-125.0 -93.75,-156.25 -78.125,-109.375 -109.375,-93.75" id="poly_12" class="plain" />
<polygon points="-156.25,-125.0 -109.375,-93.75 -125.0,-62.5 -187.5,-62.5" id="poly_13" class="plain" />
<polygon points="-187.5,-62.5 -125.0,-62.5 -125.0,-31.25 -187.5,-31.25" id="poly_14" class="plain" />
<polygon points="-187.5,31.25 -125.0,31.25 -125.0,62.5 -187.5,62.5" id="poly_15" class="plain" />
<polygon points="-187.5,62.5 -125.0,62.5 -109.375,93.75 -156.25,125.0" id="poly_16" class="plain" />
<polygon points="-109.375,93.75 -78.125,109.375 -93.75,156.25 -156.25,125.0" id="poly_17" class="plain" />
<polygon points="-78.125,109.375 -31.25,109.375 -31.25,156.25 -93.75,156.25" id="poly_18" class="plain" />
<polygon points="-187.5,-187.5 -125.0,-218.75 -93.75,-156.25 -156.25,-125.0" id="poly_19" class="plain" />
<polygon points="125.0,-218.75 187.5,-187.5 156.25,-125.0 93.75,-156.25" id="poly_20" class="plain" />
<polygon points="156.25,-281.25 234.375,-234.375 187.5,-187.5 125.0,-218.75" id="poly_21" class="plain" />
<polygon points="187.5,-187.5 234.375,-234.375 281.25,-140.625 218.75,-125.0" id="poly_22" class="plain" />
<polygon points="-234.375,-234.375 -156.25,-281.25 -125.0,-218.75 -187.5,-187.5" id="poly_23" class="plain" />
<polygon points="-234.375,-234.375 -187.5,-187.5 -218.75,-125.0 -281.25,-140.625" id="poly_24" class="plain" />
<polygon points="218.75,125.0 281.25,140.625 234.375,234.375 187.5,187.5" id="poly_25" class="plain" />
<polygon points="125.0,218.75 187.5,187.5 234.375,234.375 156.25,281.25" id="poly_26" class="plain" />
<polygon points="-125.0,218.75 125.0,218.75 156.25,281.25 31.25,281.25 -31.25,281.25 -156.25,281.25" id="poly_27" class="plain" />
<polygon points="-187.5,187.5 -125.0,218.75 -156.25,281.25 -234.375,234.375" id="poly_28" class="plain" />
<polygon points="-281.25,140.625 -218.75,125.0 -187.5,187.5 -234.375,234.375" id="poly_29" class="plain" />
<polygon points="187.5,-343.75 281.25,-437.5 406.25,-250.0 281.25,-250.0" id="poly_30" class="plain" />
<polygon points="-250.0,-437.5 -187.5,-343.75 -281.25,-250.0 -406.25,-250.0" id="poly_31" class="plain" />
<polygon points="-406.25,-250.0 -281.25,-250.0 -312.5,-187.5" id="poly_32" class="plain" />
<polygon points="281.25,-250.0 406.25,-250.0 312.5,-187.5" id="poly_33" class="plain" />
<polygon points="-406.25,-250.0 -312.5,-187.5 -312.5,-31.25 -312.5,31.25 -312.5,187.5 -406.25,218.75" id="poly_34" class="plain" />
<polygon points="312.5,31.25 312.5,-31.25 312.5,-187.5 406.25,-250.0 406.25,218.75 312.5,187.5" id="poly_35" class="plain" />
<polygon points="-406.25,218.75 -312.5,187.5 -281.25,250.0" id="poly_36" class="plain" />
<polygon points="-406.25,218.75 -281.25,250.0 -187.5,343.75 -250.0,437.5" id="poly_37" class="plain" />
<polygon points="187.5,343.75 281.25,250.0 406.25,218.75 250.0,437.5" id="poly_38" class="plain" />
<polygon points="312.5,187.5 406.25,218.75 281.25,250.0" id="poly_39" class="plain" />
<polygon points="-31.25,281.25 31.25,281.25 31.25,343.75 -31.25,343.75" id="poly_40" class="plain" />
<polygon points="-156.25,125.0 -93.75,156.25 -125.0,218.75 -187.5,187.5" id="poly_41" class="plain" />
<polygon points="93.75,156.25 156.25,125.0 187.5,187.5 125.0,218.75" id="poly_42" class="plain" />
<polygon points="-31.25,-343.75 31.25,-343.75 31.25,-281.25 -31.25,-281.25" id="poly_43" class="plain" />
<polygon points="-156.25,-281.25 -31.25,-281.25 31.25,-281.25 156.25,-281.25 125.0,-218.75 -125.0,-218.75" id="poly_44" class="plain" />
<polygon points="218.75,31.25 281.25,31.25 281.25,140.625 218.75,125.0" id="poly_45" class="plain" />
<polygon points="187.5,-31.25 312.5,-31.25 312.5,31.25 281.25,31.25 218.75,31.25 187.5,31.25" id="poly_46" class="plain" />
<polygon points="62.5,-31.25 125.0,-31.25 187.5,-31.25 187.5,31.25 125.0,31.25 62.5,31.25" id="poly_47" class="plain" />
<polygon points="-312.5,-31.25 -187.5,-31.25 -187.5,31.25 -218.75,31.25 -281.25,31.25 -312.5,31.25" id="poly_48" class="plain" />
<polygon points="-187.5,-31.25 -125.0,-31.25 -62.5,-31.25 -62.5,31.25 -125.0,31.25 -187.5,31.25" id="poly_49" class="plain" />
<polygon points="-281.25,31.25 -218.75,31.25 -218.75,125.0 -281.25,140.625" id="poly_50" class="plain" />
<polygon points="-187.5,343.75 -31.25,343.75 31.25,343.75 187.5,343.75 250.0,437.5 31.25,437.5 -31.25,437.5 -250.0,437.5" id="poly_59" class="plain" />
<polygon points="-250.0,-437.5 -31.25,-437.5 31.25,-437.5 281.25,-437.5 187.5,-343.75 31.25,-343.75 -31.25,-343.75 -187.5,-343.75" id="poly_70" class="plain" />
<polygon points="218.75,-125.0 281.25,-140.625 281.25,-78.125 265.625,-78.125 234.375,-78.125 218.75,-78.125" id="poly_71" class="plain" />
<polygon points="-281.25,-140.625 -218.75,-125.0 -218.75,-78.125 -234.375,-78.125 -265.625,-78.125 -281.25,-78.125" id="poly_74" class="plain" />
<polygon points="-31.25,437.5 31.25,437.5 31.25,453.125 -31.25,453.125" id="poly_53" class="plain" />
<polygon points="-31.25,-453.125 31.25,-453.125 31.25,-437.5 -31.25,-437.5" id="poly_65" class="plain" />
<polygon points="-31.25,453.125 31.25,453.125 31.25,468.75 -31.25,468.75" id="poly_54" class="plain" />
<polygon points="-31.25,-468.75 31.25,-468.75 31.25,-453.125 -31.25,-453.125" id="poly_64" class="plain" />
<polygon points="-31.25,468.75 31.25,468.75 31.25,484.375 -31.25,484.375" id="poly_55" class="plain" />
<polygon points="-31.25,-484.375 31.25,-484.375 31.25,-468.75 -31.25,-468.75" id="poly_63" class="plain" />
<polygon points="-31.25,484.375 31.25,484.375 31.25,500.0 -31.25,500.0" id="poly_56" class="plain" />
<polygon points="-31.25,-500.0 31.25,-500.0 31.25,-484.375 -31.25,-484.375" id="poly_62" class="plain" />
<polygon points="234.375,-78.125 265.625,-78.125 265.625,-70.3125 234.375,-70.3125" id="poly_72" class="platform" />
<polygon points="-265.625,-78.125 -234.375,-78.125 -234.375,-70.3125 -265.625,-70.3125" id="poly_75" class="platform" />
<polygon points="-468.75,250.0 -406.25,218.75 -250.0,437.5 -281.25,500.0" id="poly_51" class="plain" />
<polygon points="406.25,218.75 468.75,250.0 312.5,500.0 250.0,437.5" id="poly_52" class="plain" />
<polygon points="-250.0,437.5 -31.25,437.5 -31.25,453.125 -31.25,468.75 -31.25,484.375 -31.25,500.0 -281.25,500.0" id="poly_57" class="plain" />
<polygon points="31.25,453.125 31.25,437.5 250.0,437.5 312.5,500.0 31.25,500.0 31.25,484.375 31.25,468.75" id="poly_58" class="plain" />
<polygon points="408.447265625,214.9658203125 421.875,192.2607421875 483.3984375,224.12109375 471.13037109375,245.758056640625" id="poly_61" class="plain" />
<polygon points="-281.25,-500.0 -31.25,-500.0 -31.25,-484.375 -31.25,-468.75 -31.25,-453.125 -31.25,-437.5 -250.0,-437.5" id="poly_66" class="plain" />
<polygon points="31.25,-468.75 31.25,-484.375 31.25,-500.0 312.5,-500.0 281.25,-437.5 31.25,-437.5 31.25,-453.125" id="poly_67" class="plain" />
<polygon points="-281.25,-500.0 -250.0,-437.5 -406.25,-250.0 -468.75,-281.25" id="poly_68" class="plain" />
<polygon points="281.25,-437.5 312.5,-500.0 466.796875,-282.2265625 406.25,-250.0" id="poly_69" class="plain" />
<polygon points="406.25,218.75 408.447265625,214.9658203125 471.13037109375,245.758056640625 468.75,250.0" id="poly_60" class="platform" />
<!-- end group: "polygons" -->
</g>
<g id="borders">
<g id="border_plain">
<line x1="31.25" y1="-62.5" x2="-31.25" y2="-62.5" id="line_0" class="plain" />
<line x1="62.5" y1="-31.25" x2="62.5" y2="31.25" id="line_2" class="plain" />
<line x1="31.25" y1="62.5" x2="-31.25" y2="62.5" id="line_4" class="plain" />
<line x1="-62.5" y1="31.25" x2="-62.5" y2="-31.25" id="line_6" class="plain" />
<line x1="-125.0" y1="-31.25" x2="-187.5" y2="-31.25" id="line_12" class="plain" />
<line x1="-156.25" y1="-125.0" x2="-93.75" y2="-156.25" id="line_18" class="plain" />
<line x1="-31.25" y1="-109.375" x2="-31.25" y2="-156.25" id="line_24" class="plain" />
<line x1="31.25" y1="-156.25" x2="31.25" y2="-109.375" id="line_26" class="plain" />
<line x1="187.5" y1="-31.25" x2="125.0" y2="-31.25" id="line_31" class="plain" />
<line x1="93.75" y1="-156.25" x2="156.25" y2="-125.0" id="line_33" class="plain" />
<line x1="125.0" y1="31.25" x2="187.5" y2="31.25" id="line_37" class="plain" />
<line x1="156.25" y1="125.0" x2="93.75" y2="156.25" id="line_42" class="plain" />
<line x1="31.25" y1="109.375" x2="31.25" y2="156.25" id="line_47" class="plain" />
<line x1="-31.25" y1="156.25" x2="-31.25" y2="109.375" id="line_50" class="plain" />
<line x1="-187.5" y1="31.25" x2="-125.0" y2="31.25" id="line_55" class="plain" />
<line x1="-93.75" y1="156.25" x2="-156.25" y2="125.0" id="line_57" class="plain" />
<line x1="-312.5" y1="-31.25" x2="-312.5" y2="31.25" id="line_61" class="plain" />
<line x1="312.5" y1="31.25" x2="312.5" y2="-31.25" id="line_62" class="plain" />
<line x1="109.375" y1="-93.75" x2="156.25" y2="-125.0" id="line_63" class="plain" />
<line x1="109.375" y1="93.75" x2="156.25" y2="125.0" id="line_64" class="plain" />
<line x1="78.125" y1="-109.375" x2="93.75" y2="-156.25" id="line_65" class="plain" />
<line x1="78.125" y1="109.375" x2="93.75" y2="156.25" id="line_66" class="plain" />
<line x1="-78.125" y1="-109.375" x2="-93.75" y2="-156.25" id="line_67" class="plain" />
<line x1="-109.375" y1="-93.75" x2="-156.25" y2="-125.0" id="line_68" class="plain" />
<line x1="125.0" y1="-62.5" x2="187.5" y2="-62.5" id="line_69" class="plain" />
<line x1="125.0" y1="62.5" x2="187.5" y2="62.5" id="line_70" class="plain" />
<line x1="-125.0" y1="-62.5" x2="-187.5" y2="-62.5" id="line_71" class="plain" />
<line x1="-109.375" y1="93.75" x2="-156.25" y2="125.0" id="line_72" class="plain" />
<line x1="-78.125" y1="109.375" x2="-93.75" y2="156.25" id="line_73" class="plain" />
<line x1="-125.0" y1="62.5" x2="-187.5" y2="62.5" id="line_74" class="plain" />
<line x1="125.0" y1="218.75" x2="187.5" y2="187.5" id="line_83" class="plain" />
<line x1="-187.5" y1="187.5" x2="-125.0" y2="218.75" id="line_84" class="plain" />
<line x1="125.0" y1="-218.75" x2="187.5" y2="-187.5" id="line_85" class="plain" />
<line x1="-187.5" y1="-187.5" x2="-125.0" y2="-218.75" id="line_86" class="plain" />
<line x1="-218.75" y1="-125.0" x2="-281.25" y2="-140.625" id="line_101" class="plain" />
<line x1="-187.5" y1="-187.5" x2="-234.375" y2="-234.375" id="line_102" class="plain" />
<line x1="-156.25" y1="-281.25" x2="-125.0" y2="-218.75" id="line_103" class="plain" />
<line x1="125.0" y1="-218.75" x2="156.25" y2="-281.25" id="line_104" class="plain" />
<line x1="234.375" y1="-234.375" x2="187.5" y2="-187.5" id="line_105" class="plain" />
<line x1="281.25" y1="-140.625" x2="218.75" y2="-125.0" id="line_106" class="plain" />
<line x1="31.25" y1="-281.25" x2="-31.25" y2="-281.25" id="line_107" class="plain" />
<line x1="156.25" y1="281.25" x2="125.0" y2="218.75" id="line_112" class="plain" />
<line x1="-156.25" y1="281.25" x2="-125.0" y2="218.75" id="line_113" class="plain" />
<line x1="-234.375" y1="234.375" x2="-187.5" y2="187.5" id="line_117" class="plain" />
<line x1="234.375" y1="234.375" x2="187.5" y2="187.5" id="line_118" class="plain" />
<line x1="187.5" y1="-343.75" x2="281.25" y2="-437.5" id="line_122" class="plain" />
<line x1="-250.0" y1="-437.5" x2="-187.5" y2="-343.75" id="line_133" class="plain" />
<line x1="31.25" y1="281.25" x2="-31.25" y2="281.25" id="line_145" class="plain" />
<line x1="31.25" y1="343.75" x2="-31.25" y2="343.75" id="line_149" class="plain" />
<line x1="250.0" y1="437.5" x2="187.5" y2="343.75" id="line_151" class="plain" />
<line x1="-187.5" y1="343.75" x2="-250.0" y2="437.5" id="line_152" class="plain" />
<line x1="218.75" y1="125.0" x2="281.25" y2="140.625" id="line_153" class="plain" />
<line x1="-281.25" y1="140.625" x2="-218.75" y2="125.0" id="line_154" class="plain" />
<line x1="406.25" y1="-250.0" x2="312.5" y2="-187.5" id="line_155" class="plain" />
<line x1="-312.5" y1="-187.5" x2="-406.25" y2="-250.0" id="line_156" class="plain" />
<line x1="406.25" y1="-250.0" x2="281.25" y2="-250.0" id="line_157" class="plain" />
<line x1="-281.25" y1="-250.0" x2="-406.25" y2="-250.0" id="line_158" class="plain" />
<line x1="406.25" y1="218.75" x2="312.5" y2="187.5" id="line_159" class="plain" />
<line x1="-312.5" y1="187.5" x2="-406.25" y2="218.75" id="line_160" class="plain" />
<line x1="281.25" y1="250.0" x2="406.25" y2="218.75" id="line_161" class="plain" />
<line x1="-281.25" y1="250.0" x2="-406.25" y2="218.75" id="line_162" class="plain" />
<line x1="-31.25" y1="-343.75" x2="31.25" y2="-343.75" id="line_163" class="plain" />
<line x1="218.75" y1="31.25" x2="281.25" y2="31.25" id="line_168" class="plain" />
<line x1="187.5" y1="31.25" x2="187.5" y2="-31.25" id="line_172" class="plain" />
<line x1="-187.5" y1="-31.25" x2="-187.5" y2="31.25" id="line_173" class="plain" />
<line x1="-218.75" y1="31.25" x2="-281.25" y2="31.25" id="line_176" class="plain" />
<line x1="-250.0" y1="437.5" x2="-281.25" y2="500.0" id="line_182" class="plain" />
<line x1="312.5" y1="500.0" x2="250.0" y2="437.5" id="line_183" class="plain" />
<line x1="-250.0" y1="-437.5" x2="-281.25" y2="-500.0" id="line_203" class="plain" />
<line x1="312.5" y1="-500.0" x2="281.25" y2="-437.5" id="line_205" class="plain" />
<!-- end group: "border_plain" -->
</g>
<g id="border_elevation">
<line x1="-31.25" y1="-437.5" x2="-250.0" y2="-437.5" id="line_123" class="elevation" />
<line x1="-406.25" y1="-250.0" x2="-250.0" y2="-437.5" id="line_125" class="elevation" />
<line x1="281.25" y1="-437.5" x2="406.25" y2="-250.0" id="line_129" class="elevation" />
<line x1="-250.0" y1="437.5" x2="-406.25" y2="218.75" id="line_140" class="elevation" />
<line x1="-250.0" y1="437.5" x2="-31.25" y2="437.5" id="line_141" class="elevation" />
<line x1="406.25" y1="218.75" x2="250.0" y2="437.5" id="line_144" class="elevation" />
<line x1="-31.25" y1="437.5" x2="31.25" y2="437.5" id="line_184" class="elevation" />
<line x1="31.25" y1="437.5" x2="250.0" y2="437.5" id="line_185" class="elevation" />
<line x1="-31.25" y1="453.125" x2="-31.25" y2="437.5" id="line_190" class="elevation" />
<line x1="31.25" y1="453.125" x2="-31.25" y2="453.125" id="line_191" class="elevation" />
<line x1="31.25" y1="437.5" x2="31.25" y2="453.125" id="line_192" class="elevation" />
<line x1="-31.25" y1="468.75" x2="-31.25" y2="453.125" id="line_193" class="elevation" />
<line x1="31.25" y1="468.75" x2="-31.25" y2="468.75" id="line_194" class="elevation" />
<line x1="31.25" y1="453.125" x2="31.25" y2="468.75" id="line_195" class="elevation" />
<line x1="31.25" y1="468.75" x2="31.25" y2="484.375" id="line_196" class="elevation" />
<line x1="31.25" y1="484.375" x2="-31.25" y2="484.375" id="line_197" class="elevation" />
<line x1="-31.25" y1="484.375" x2="-31.25" y2="468.75" id="line_198" class="elevation" />
<line x1="-31.25" y1="500.0" x2="-31.25" y2="484.375" id="line_200" class="elevation" />
<line x1="31.25" y1="484.375" x2="31.25" y2="500.0" id="line_202" class="elevation" />
<line x1="31.25" y1="-437.5" x2="-31.25" y2="-437.5" id="line_213" class="elevation" />
<line x1="-31.25" y1="-437.5" x2="-31.25" y2="-453.125" id="line_214" class="elevation" />
<line x1="31.25" y1="-453.125" x2="-31.25" y2="-453.125" id="line_215" class="elevation" />
<line x1="281.25" y1="-437.5" x2="31.25" y2="-437.5" id="line_216" class="elevation" />
<line x1="31.25" y1="-453.125" x2="31.25" y2="-437.5" id="line_217" class="elevation" />
<line x1="-31.25" y1="-453.125" x2="-31.25" y2="-468.75" id="line_218" class="elevation" />
<line x1="31.25" y1="-468.75" x2="-31.25" y2="-468.75" id="line_219" class="elevation" />
<line x1="31.25" y1="-468.75" x2="31.25" y2="-453.125" id="line_220" class="elevation" />
<line x1="31.25" y1="-484.375" x2="31.25" y2="-468.75" id="line_221" class="elevation" />
<line x1="31.25" y1="-484.375" x2="-31.25" y2="-484.375" id="line_222" class="elevation" />
<line x1="-31.25" y1="-468.75" x2="-31.25" y2="-484.375" id="line_223" class="elevation" />
<line x1="-31.25" y1="-484.375" x2="-31.25" y2="-500.0" id="line_225" class="elevation" />
<line x1="31.25" y1="-500.0" x2="31.25" y2="-484.375" id="line_227" class="elevation" />
<!-- end group: "border_elevation" -->
</g>
<g id="border_solid">
<line x1="31.25" y1="-62.5" x2="62.5" y2="-31.25" id="line_1" class="solid" />
<line x1="62.5" y1="31.25" x2="31.25" y2="62.5" id="line_3" class="solid" />
<line x1="-31.25" y1="62.5" x2="-62.5" y2="31.25" id="line_5" class="solid" />
<line x1="-62.5" y1="-31.25" x2="-31.25" y2="-62.5" id="line_7" class="solid" />
<line x1="-125.0" y1="-31.25" x2="-62.5" y2="-31.25" id="line_8" class="solid" />
<line x1="-62.5" y1="31.25" x2="-125.0" y2="31.25" id="line_9" class="solid" />
<line x1="125.0" y1="31.25" x2="62.5" y2="31.25" id="line_10" class="solid" />
<line x1="62.5" y1="-31.25" x2="125.0" y2="-31.25" id="line_11" class="solid" />
<line x1="-125.0" y1="-62.5" x2="-125.0" y2="-31.25" id="line_13" class="solid" />
<line x1="-312.5" y1="-31.25" x2="-187.5" y2="-31.25" id="line_14" class="solid" />
<line x1="-187.5" y1="-31.25" x2="-187.5" y2="-62.5" id="line_15" class="solid" />
<line x1="-109.375" y1="-93.75" x2="-125.0" y2="-62.5" id="line_16" class="solid" />
<line x1="-187.5" y1="-62.5" x2="-156.25" y2="-125.0" id="line_17" class="solid" />
<line x1="-78.125" y1="-109.375" x2="-109.375" y2="-93.75" id="line_19" class="solid" />
<line x1="-31.25" y1="-109.375" x2="-78.125" y2="-109.375" id="line_20" class="solid" />
<line x1="-93.75" y1="-156.25" x2="-31.25" y2="-156.25" id="line_21" class="solid" />
<line x1="-31.25" y1="-62.5" x2="-31.25" y2="-109.375" id="line_22" class="solid" />
<line x1="31.25" y1="-109.375" x2="31.25" y2="-62.5" id="line_23" class="solid" />
<line x1="-31.25" y1="-156.25" x2="31.25" y2="-156.25" id="line_25" class="solid" />
<line x1="31.25" y1="-156.25" x2="93.75" y2="-156.25" id="line_27" class="solid" />
<line x1="78.125" y1="-109.375" x2="31.25" y2="-109.375" id="line_28" class="solid" />
<line x1="109.375" y1="-93.75" x2="78.125" y2="-109.375" id="line_29" class="solid" />
<line x1="125.0" y1="-62.5" x2="109.375" y2="-93.75" id="line_30" class="solid" />
<line x1="125.0" y1="-31.25" x2="125.0" y2="-62.5" id="line_32" class="solid" />
<line x1="156.25" y1="-125.0" x2="187.5" y2="-62.5" id="line_34" class="solid" />
<line x1="187.5" y1="-31.25" x2="312.5" y2="-31.25" id="line_35" class="solid" />
<line x1="187.5" y1="-62.5" x2="187.5" y2="-31.25" id="line_36" class="solid" />
<line x1="125.0" y1="62.5" x2="125.0" y2="31.25" id="line_38" class="solid" />
<line x1="187.5" y1="31.25" x2="187.5" y2="62.5" id="line_39" class="solid" />
<line x1="187.5" y1="62.5" x2="156.25" y2="125.0" id="line_40" class="solid" />
<line x1="109.375" y1="93.75" x2="125.0" y2="62.5" id="line_41" class="solid" />
<line x1="78.125" y1="109.375" x2="109.375" y2="93.75" id="line_43" class="solid" />
<line x1="31.25" y1="109.375" x2="78.125" y2="109.375" id="line_44" class="solid" />
<line x1="93.75" y1="156.25" x2="31.25" y2="156.25" id="line_45" class="solid" />
<line x1="31.25" y1="62.5" x2="31.25" y2="109.375" id="line_46" class="solid" />
<line x1="-31.25" y1="109.375" x2="-31.25" y2="62.5" id="line_48" class="solid" />
<line x1="31.25" y1="156.25" x2="-31.25" y2="156.25" id="line_49" class="solid" />
<line x1="-78.125" y1="109.375" x2="-31.25" y2="109.375" id="line_51" class="solid" />
<line x1="-31.25" y1="156.25" x2="-93.75" y2="156.25" id="line_52" class="solid" />
<line x1="-109.375" y1="93.75" x2="-78.125" y2="109.375" id="line_53" class="solid" />
<line x1="-125.0" y1="62.5" x2="-109.375" y2="93.75" id="line_54" class="solid" />
<line x1="-125.0" y1="31.25" x2="-125.0" y2="62.5" id="line_56" class="solid" />
<line x1="-156.25" y1="125.0" x2="-187.5" y2="62.5" id="line_58" class="solid" />
<line x1="-187.5" y1="31.25" x2="-218.75" y2="31.25" id="line_59" class="solid" />
<line x1="-187.5" y1="62.5" x2="-187.5" y2="31.25" id="line_60" class="solid" />
<line x1="93.75" y1="-156.25" x2="125.0" y2="-218.75" id="line_75" class="solid" />
<line x1="187.5" y1="-187.5" x2="156.25" y2="-125.0" id="line_76" class="solid" />
<line x1="-125.0" y1="-218.75" x2="-93.75" y2="-156.25" id="line_77" class="solid" />
<line x1="-156.25" y1="-125.0" x2="-187.5" y2="-187.5" id="line_78" class="solid" />
<line x1="156.25" y1="125.0" x2="187.5" y2="187.5" id="line_79" class="solid" />
<line x1="125.0" y1="218.75" x2="93.75" y2="156.25" id="line_80" class="solid" />
<line x1="-93.75" y1="156.25" x2="-125.0" y2="218.75" id="line_81" class="solid" />
<line x1="-187.5" y1="187.5" x2="-156.25" y2="125.0" id="line_82" class="solid" />
<line x1="125.0" y1="-218.75" x2="-125.0" y2="-218.75" id="line_87" class="solid" />
<line x1="-156.25" y1="-281.25" x2="-31.25" y2="-281.25" id="line_88" class="solid" />
<line x1="156.25" y1="-281.25" x2="234.375" y2="-234.375" id="line_89" class="solid" />
<line x1="-234.375" y1="-234.375" x2="-156.25" y2="-281.25" id="line_90" class="solid" />
<line x1="-281.25" y1="-140.625" x2="-234.375" y2="-234.375" id="line_91" class="solid" />
<line x1="-281.25" y1="-78.125" x2="-281.25" y2="-140.625" id="line_92" class="solid" />
<line x1="-218.75" y1="-78.125" x2="-234.375" y2="-78.125" id="line_93" class="solid" />
<line x1="-187.5" y1="-187.5" x2="-218.75" y2="-125.0" id="line_94" class="solid" />
<line x1="-218.75" y1="-125.0" x2="-218.75" y2="-78.125" id="line_95" class="solid" />
<line x1="218.75" y1="-125.0" x2="187.5" y2="-187.5" id="line_96" class="solid" />
<line x1="234.375" y1="-234.375" x2="281.25" y2="-140.625" id="line_97" class="solid" />
<line x1="281.25" y1="-140.625" x2="281.25" y2="-78.125" id="line_98" class="solid" />
<line x1="218.75" y1="-78.125" x2="218.75" y2="-125.0" id="line_99" class="solid" />
<line x1="281.25" y1="-78.125" x2="265.625" y2="-78.125" id="line_100" class="solid" />
<line x1="31.25" y1="-281.25" x2="156.25" y2="-281.25" id="line_108" class="solid" />
<line x1="187.5" y1="187.5" x2="218.75" y2="125.0" id="line_109" class="solid" />
<line x1="-125.0" y1="218.75" x2="125.0" y2="218.75" id="line_110" class="solid" />
<line x1="-31.25" y1="281.25" x2="-156.25" y2="281.25" id="line_111" class="solid" />
<line x1="234.375" y1="234.375" x2="156.25" y2="281.25" id="line_114" class="solid" />
<line x1="281.25" y1="140.625" x2="234.375" y2="234.375" id="line_115" class="solid" />
<line x1="-156.25" y1="281.25" x2="-234.375" y2="234.375" id="line_116" class="solid" />
<line x1="-234.375" y1="234.375" x2="-281.25" y2="140.625" id="line_119" class="solid" />
<line x1="-218.75" y1="125.0" x2="-187.5" y2="187.5" id="line_120" class="solid" />
<line x1="187.5" y1="-343.75" x2="31.25" y2="-343.75" id="line_121" class="solid" />
<line x1="-187.5" y1="-343.75" x2="-281.25" y2="-250.0" id="line_124" class="solid" />
<line x1="-281.25" y1="-250.0" x2="-312.5" y2="-187.5" id="line_126" class="solid" />
<line x1="-312.5" y1="-187.5" x2="-312.5" y2="-31.25" id="line_127" class="solid" />
<line x1="-406.25" y1="218.75" x2="-406.25" y2="-250.0" id="line_128" class="solid" />
<line x1="281.25" y1="-250.0" x2="187.5" y2="-343.75" id="line_130" class="solid" />
<line x1="312.5" y1="-187.5" x2="281.25" y2="-250.0" id="line_131" class="solid" />
<line x1="312.5" y1="-31.25" x2="312.5" y2="-187.5" id="line_132" class="solid" />
<line x1="406.25" y1="-250.0" x2="406.25" y2="218.75" id="line_134" class="solid" />
<line x1="312.5" y1="187.5" x2="312.5" y2="31.25" id="line_135" class="solid" />
<line x1="-312.5" y1="31.25" x2="-312.5" y2="187.5" id="line_136" class="solid" />
<line x1="-312.5" y1="187.5" x2="-281.25" y2="250.0" id="line_137" class="solid" />
<line x1="-281.25" y1="250.0" x2="-187.5" y2="343.75" id="line_138" class="solid" />
<line x1="-187.5" y1="343.75" x2="-31.25" y2="343.75" id="line_139" class="solid" />
<line x1="187.5" y1="343.75" x2="281.25" y2="250.0" id="line_142" class="solid" />
<line x1="281.25" y1="250.0" x2="312.5" y2="187.5" id="line_143" class="solid" />
<line x1="156.25" y1="281.25" x2="31.25" y2="281.25" id="line_146" class="solid" />
<line x1="31.25" y1="343.75" x2="187.5" y2="343.75" id="line_147" class="solid" />
<line x1="31.25" y1="281.25" x2="31.25" y2="343.75" id="line_148" class="solid" />
<line x1="-31.25" y1="343.75" x2="-31.25" y2="281.25" id="line_150" class="solid" />
<line x1="-31.25" y1="-343.75" x2="-187.5" y2="-343.75" id="line_164" class="solid" />
<line x1="-31.25" y1="-281.25" x2="-31.25" y2="-343.75" id="line_165" class="solid" />
<line x1="31.25" y1="-343.75" x2="31.25" y2="-281.25" id="line_166" class="solid" />
<line x1="218.75" y1="31.25" x2="187.5" y2="31.25" id="line_167" class="solid" />
<line x1="218.75" y1="125.0" x2="218.75" y2="31.25" id="line_169" class="solid" />
<line x1="312.5" y1="31.25" x2="281.25" y2="31.25" id="line_170" class="solid" />
<line x1="281.25" y1="31.25" x2="281.25" y2="140.625" id="line_171" class="solid" />
<line x1="-281.25" y1="31.25" x2="-312.5" y2="31.25" id="line_174" class="solid" />
<line x1="-281.25" y1="140.625" x2="-281.25" y2="31.25" id="line_175" class="solid" />
<line x1="-218.75" y1="31.25" x2="-218.75" y2="125.0" id="line_177" class="solid" />
<line x1="406.25" y1="218.75" x2="468.75" y2="250.0" id="line_178" class="solid" />
<line x1="468.75" y1="250.0" x2="312.5" y2="500.0" id="line_179" class="solid" />
<line x1="-281.25" y1="500.0" x2="-468.75" y2="250.0" id="line_180" class="solid" />
<line x1="-468.75" y1="250.0" x2="-406.25" y2="218.75" id="line_181" class="solid" />
<line x1="-31.25" y1="500.0" x2="-281.25" y2="500.0" id="line_186" class="solid" />
<line x1="406.25" y1="218.75" x2="408.447265625" y2="214.9658203125" id="line_187" class="solid" />
<line x1="421.875" y1="192.2607421875" x2="483.3984375" y2="224.12109375" id="line_188" class="solid" />
<line x1="483.3984375" y1="224.12109375" x2="471.13037109375" y2="245.758056640625" id="line_189" class="solid" />
<line x1="31.25" y1="500.0" x2="-31.25" y2="500.0" id="line_199" class="solid" />
<line x1="312.5" y1="500.0" x2="31.25" y2="500.0" id="line_201" class="solid" />
<line x1="-281.25" y1="-500.0" x2="-31.25" y2="-500.0" id="line_204" class="solid" />
<line x1="-468.75" y1="-281.25" x2="-281.25" y2="-500.0" id="line_206" class="solid" />
<line x1="-406.25" y1="-250.0" x2="-468.75" y2="-281.25" id="line_207" class="solid" />
<line x1="312.5" y1="-500.0" x2="466.796875" y2="-282.2265625" id="line_208" class="solid" />
<line x1="466.796875" y1="-282.2265625" x2="406.25" y2="-250.0" id="line_209" class="solid" />
<line x1="471.13037109375" y1="245.758056640625" x2="468.75" y2="250.0" id="line_210" class="solid" />
<line x1="408.447265625" y1="214.9658203125" x2="421.875" y2="192.2607421875" id="line_211" class="solid" />
<line x1="408.447265625" y1="214.9658203125" x2="471.13037109375" y2="245.758056640625" id="line_212" class="solid" />
<line x1="-31.25" y1="-500.0" x2="31.25" y2="-500.0" id="line_224" class="solid" />
<line x1="31.25" y1="-500.0" x2="312.5" y2="-500.0" id="line_226" class="solid" />
<line x1="234.375" y1="-78.125" x2="218.75" y2="-78.125" id="line_228" class="solid" />
<line x1="234.375" y1="-70.3125" x2="234.375" y2="-78.125" id="line_229" class="solid" />
<line x1="265.625" y1="-70.3125" x2="234.375" y2="-70.3125" id="line_230" class="solid" />
<line x1="265.625" y1="-78.125" x2="234.375" y2="-78.125" id="line_231" class="solid" />
<line x1="265.625" y1="-78.125" x2="265.625" y2="-70.3125" id="line_232" class="solid" />
<line x1="234.375" y1="-46.875" x2="234.375" y2="-70.3125" id="line_233" class="solid" />
<line x1="265.625" y1="-70.3125" x2="265.625" y2="-46.875" id="line_234" class="solid" />
<line x1="265.625" y1="-46.875" x2="257.8125" y2="-39.0625" id="line_235" class="solid" />
<line x1="257.8125" y1="-39.0625" x2="242.1875" y2="-39.0625" id="line_236" class="solid" />
<line x1="242.1875" y1="-39.0625" x2="234.375" y2="-46.875" id="line_237" class="solid" />
<line x1="-265.625" y1="-78.125" x2="-281.25" y2="-78.125" id="line_238" class="solid" />
<line x1="-265.625" y1="-70.3125" x2="-265.625" y2="-78.125" id="line_239" class="solid" />
<line x1="-234.375" y1="-70.3125" x2="-265.625" y2="-70.3125" id="line_240" class="solid" />
<line x1="-234.375" y1="-78.125" x2="-265.625" y2="-78.125" id="line_241" class="solid" />
<line x1="-234.375" y1="-78.125" x2="-234.375" y2="-70.3125" id="line_242" class="solid" />
<line x1="-265.625" y1="-46.875" x2="-265.625" y2="-70.3125" id="line_243" class="solid" />
<line x1="-234.375" y1="-70.3125" x2="-234.375" y2="-46.875" id="line_244" class="solid" />
<line x1="-234.375" y1="-46.875" x2="-242.1875" y2="-39.0625" id="line_245" class="solid" />
<line x1="-257.8125" y1="-39.0625" x2="-265.625" y2="-46.875" id="line_246" class="solid" />
<line x1="-242.1875" y1="-39.0625" x2="-257.8125" y2="-39.0625" id="line_247" class="solid" />
<!-- end group: "border_solid" -->
</g>
<!-- end group: "borders" -->
</g>
<g id="objects">
<g id="objects_sound">
<use xlink:href="../resources/svg/common.svg#sound" x="437.92724609375" y="231.5673828125" id="object_44" class="sound sound-0" />
<use xlink:href="../resources/svg/common.svg#sound" x="250.0" y="-75.1953125" id="object_45" class="sound sound-0" />
<use xlink:href="../resources/svg/common.svg#sound" x="-250.9765625" y="-75.1953125" id="object_46" class="sound sound-0" />
<!-- end group: "objects_sound" -->
</g>
<g id="objects_item">
<use xlink:href="../resources/svg/common.svg#item" x="0.0" y="-310.1806640625" id="object_7" class="item item-6" />
<use xlink:href="../resources/svg/common.svg#item" x="2.5634765625" y="315.3076171875" id="object_8" class="item item-6" />
<use xlink:href="../resources/svg/common.svg#item" x="-151.2451171875" y="-2.5634765625" id="object_9" class="item item-6" />
<use xlink:href="../resources/svg/common.svg#item" x="253.7841796875" y="-1.28173828125" id="object_10" class="item item-6" />
<use xlink:href="../resources/svg/common.svg#item" x="1.28173828125" y="134.58251953125" id="object_11" class="item item-7" />
<use xlink:href="../resources/svg/common.svg#item" x="8.97216796875" y="-133.30078125" id="object_12" class="item item-7" />
<use xlink:href="../resources/svg/common.svg#item" x="293.51806640625" y="302.490234375" id="object_13" class="item item-7" />
<use xlink:href="../resources/svg/common.svg#item" x="-283.26416015625" y="316.58935546875" id="object_14" class="item item-7" />
<use xlink:href="../resources/svg/common.svg#item" x="-231.99462890625" y="169.189453125" id="object_15" class="item item-9" />
<use xlink:href="../resources/svg/common.svg#item" x="234.55810546875" y="170.47119140625" id="object_16" class="item item-9" />
<use xlink:href="../resources/svg/common.svg#item" x="-447.265625" y="-285.15625" id="object_17" class="item item-5" transform="rotate(270.0 -447.265625 -285.15625)" />
<use xlink:href="../resources/svg/common.svg#item" x="445.3125" y="-285.15625" id="object_18" class="item item-5" transform="rotate(270.0 445.3125 -285.15625)" />
<use xlink:href="../resources/svg/common.svg#item" x="-359.375" y="0.0" id="object_19" class="item item-1" transform="rotate(270.0 -359.375 0.0)" />
<use xlink:href="../resources/svg/common.svg#item" x="359.375" y="0.0" id="object_20" class="item item-1" transform="rotate(270.0 359.375 0.0)" />
<use xlink:href="../resources/svg/common.svg#item" x="1.953125" y="-390.625" id="object_21" class="item item-1" />
<use xlink:href="../resources/svg/common.svg#item" x="-3.90625" y="392.578125" id="object_22" class="item item-1" />
<use xlink:href="../resources/svg/common.svg#item" x="248.016357421875" y="-56.396484375" id="object_23" class="item item-8" />
<use xlink:href="../resources/svg/common.svg#item" x="446.044921875" y="219.17724609375" id="object_24" class="item item-15" transform="rotate(44.296875 446.044921875 219.17724609375)" />
<use xlink:href="../resources/svg/common.svg#item" x="0.0" y="236.328125" id="object_25" class="item item-5" transform="rotate(180.0 0.0 236.328125)" />
<use xlink:href="../resources/svg/common.svg#item" x="-1.953125" y="-234.375" id="object_26" class="item item-5" />
<use xlink:href="../resources/svg/common.svg#item" x="-249.93896484375" y="-55.11474609375" id="object_27" class="item item-22" />
<use xlink:href="../resources/svg/common.svg#item" x="52.642822265625" y="450.62255859375" id="object_28" class="item item-23" />
<use xlink:href="../resources/svg/common.svg#item" x="50.537109375" y="480.1025390625" id="object_29" class="item item-23" />
<use xlink:href="../resources/svg/common.svg#item" x="77.911376953125" y="482.208251953125" id="object_30" class="item item-23" />
<use xlink:href="../resources/svg/common.svg#item" x="77.911376953125" y="448.516845703125" id="object_31" class="item item-23" />
<use xlink:href="../resources/svg/common.svg#item" x="-54.74853515625" y="480.1025390625" id="object_32" class="item item-23" />
<use xlink:href="../resources/svg/common.svg#item" x="-50.537109375" y="446.4111328125" id="object_33" class="item item-23" />
<use xlink:href="../resources/svg/common.svg#item" x="-75.8056640625" y="446.4111328125" id="object_34" class="item item-23" />
<use xlink:href="../resources/svg/common.svg#item" x="-75.8056640625" y="477.996826171875" id="object_35" class="item item-23" />
<use xlink:href="../resources/svg/common.svg#item" x="46.32568359375" y="-448.516845703125" id="object_36" class="item item-23" />
<use xlink:href="../resources/svg/common.svg#item" x="46.32568359375" y="-480.1025390625" id="object_37" class="item item-23" />
<use xlink:href="../resources/svg/common.svg#item" x="71.59423828125" y="-482.208251953125" id="object_38" class="item item-23" />
<use xlink:href="../resources/svg/common.svg#item" x="71.59423828125" y="-450.62255859375" id="object_39" class="item item-23" />
<use xlink:href="../resources/svg/common.svg#item" x="-54.74853515625" y="-450.62255859375" id="object_40" class="item item-23" />
<use xlink:href="../resources/svg/common.svg#item" x="-52.642822265625" y="-482.208251953125" id="object_41" class="item item-23" />
<use xlink:href="../resources/svg/common.svg#item" x="-82.122802734375" y="-480.1025390625" id="object_42" class="item item-23" />
<use xlink:href="../resources/svg/common.svg#item" x="-80.01708984375" y="-448.516845703125" id="object_43" class="item item-23" />
<use xlink:href="../resources/svg/common.svg#item" x="0.0" y="0.9765625" id="object_47" class="item item-27" />
<!-- end group: "objects_item" -->
</g>
<g id="objects_player">
<use xlink:href="../resources/svg/common.svg#monster" x="-7.8125" y="0.0" id="object_0" class="player" />
<use xlink:href="../resources/svg/common.svg#monster" x="-139.70947265625" y="169.189453125" id="object_1" class="player" transform="rotate(90.0 -139.70947265625 169.189453125)" />
<use xlink:href="../resources/svg/common.svg#monster" x="142.27294921875" y="171.7529296875" id="object_2" class="player" transform="rotate(90.0 142.27294921875 171.7529296875)" />
<use xlink:href="../resources/svg/common.svg#monster" x="249.93896484375" y="66.650390625" id="object_3" class="player" transform="rotate(270.0 249.93896484375 66.650390625)" />
<use xlink:href="../resources/svg/common.svg#monster" x="-249.93896484375" y="66.650390625" id="object_4" class="player" transform="rotate(270.0 -249.93896484375 66.650390625)" />
<use xlink:href="../resources/svg/common.svg#monster" x="143.5546875" y="-171.7529296875" id="object_5" class="player" transform="rotate(270.0 143.5546875 -171.7529296875)" />
<use xlink:href="../resources/svg/common.svg#monster" x="-137.14599609375" y="-171.7529296875" id="object_6" class="player" transform="rotate(270.0 -137.14599609375 -171.7529296875)" />
<!-- end group: "objects_player" -->
</g>
<!-- end group: "objects" -->
</g>
<g id="panels">
<!-- end group: "panels" -->
</g>

<script xlink:href="../resources/js/level.js" ></script>
</svg>