<?xml version="1.0" encoding="UTF-8"?>
<!-- generated by map2svg: github.com/fracai/marathon-svg -->
<svg xmlns="http://www.w3.org/2000/svg" xmlns:xlink="http://www.w3.org/1999/xlink" version="1.1"
    viewBox="-281.25 -156.25 750.0 625.0">
<link xmlns="http://www.w3.org/1999/xhtml" rel="stylesheet" href="../resources/css/styles.css" type="text/css" />
<style id="dynamic-style" />
<g id="background-grid">
<defs>
<pattern id="grid_minor" width="3.125" height="3.125" patternUnits="userSpaceOnUse">
<path d="M 3.125 0 L 0 0 0 3.125" fill="none" class="grid_minor" />
</pattern>
<pattern id="grid_major" width="31.25" height="31.25" patternUnits="userSpaceOnUse">
<rect width="31.25" height="31.25" fill="url(#grid_minor)"/>
<path d="M 31.25 0 L 0 0 0 31.25" fill="none" class="grid_major" />
</pattern>
</defs>
<rect x="-1000" y="-1000" width="2000" height="2000" fill="url(#grid_major)" />
<line x1="0" y1="1000" x2="0" y2="-1000" class="grid_origin" />
<line x1="1000" y1="0" x2="-1000" y2="0" class="grid_origin" />
<!-- end group: "background-grid" -->
</g>
<g id="polygons">
<polygon points="156.25,406.25 187.5,406.25 187.5,437.5 156.25,437.5" id="poly_14" class="teleporter" />
<polygon points="406.25,156.25 437.5,156.25 437.5,187.5 406.25,187.5" id="poly_22" class="teleporter" />
<polygon points="296.875,-62.5 406.25,46.875 250.0,140.625 203.125,93.75" id="poly_0" class="plain" />
<polygon points="203.125,250.0 250.0,203.125 406.25,296.875 296.875,406.25" id="poly_1" class="plain" />
<polygon points="-62.5,296.875 93.75,203.125 140.625,250.0 46.875,406.25" id="poly_2" class="plain" />
<polygon points="46.875,-62.5 140.625,93.75 93.75,140.625 -62.5,46.875" id="poly_3" class="plain" />
<polygon points="140.625,250.0 203.125,250.0 296.875,406.25 187.5,406.25 156.25,406.25 46.875,406.25" id="poly_13" class="plain" />
<polygon points="46.875,-62.5 156.25,-62.5 187.5,-62.5 296.875,-62.5 203.125,93.75 140.625,93.75" id="poly_15" class="plain" />
<polygon points="-62.5,187.5 -62.5,156.25 -62.5,46.875 93.75,140.625 93.75,203.125 -62.5,296.875" id="poly_18" class="plain" />
<polygon points="250.0,140.625 406.25,46.875 406.25,156.25 406.25,187.5 406.25,296.875 250.0,203.125" id="poly_21" class="plain" />
<polygon points="140.625,93.75 156.25,125.0 125.0,156.25 93.75,140.625" id="poly_4" class="platform" />
<polygon points="140.625,93.75 203.125,93.75 187.5,125.0 156.25,125.0" id="poly_5" class="hill" />
<polygon points="187.5,125.0 203.125,93.75 250.0,140.625 218.75,156.25" id="poly_6" class="platform" />
<polygon points="218.75,156.25 250.0,140.625 250.0,203.125 218.75,187.5" id="poly_7" class="hill" />
<polygon points="218.75,187.5 250.0,203.125 203.125,250.0 187.5,218.75" id="poly_8" class="platform" />
<polygon points="156.25,218.75 187.5,218.75 203.125,250.0 140.625,250.0" id="poly_9" class="hill" />
<polygon points="93.75,203.125 125.0,187.5 156.25,218.75 140.625,250.0" id="poly_10" class="platform" />
<polygon points="93.75,140.625 125.0,156.25 125.0,187.5 93.75,203.125" id="poly_11" class="hill" />
<polygon points="125.0,156.25 156.25,125.0 187.5,125.0 218.75,156.25 218.75,187.5 187.5,218.75 156.25,218.75 125.0,187.5" id="poly_12" class="hill" />
<polygon points="-125.0,218.75 -93.75,218.75 -93.75,234.375 -125.0,234.375" id="poly_23" class="platform" />
<polygon points="125.0,-125.0 218.75,-125.0 218.75,-93.75 187.5,-93.75 156.25,-93.75 125.0,-93.75" id="poly_16" class="plain" />
<polygon points="156.25,-93.75 187.5,-93.75 187.5,-62.5 156.25,-62.5" id="poly_17" class="plain" />
<polygon points="-93.75,156.25 -62.5,156.25 -62.5,187.5 -93.75,187.5" id="poly_19" class="plain" />
<polygon points="-125.0,125.0 -93.75,125.0 -93.75,156.25 -93.75,187.5 -93.75,218.75 -125.0,218.75" id="poly_20" class="plain" />
<polygon points="-125.0,234.375 -93.75,234.375 -93.75,406.25 -125.0,265.625" id="poly_24" class="plain" />
<polygon points="-250.0,265.625 -125.0,265.625 -93.75,406.25 -250.0,406.25" id="poly_25" class="plain" />
<!-- end group: "polygons" -->
</g>
<g id="borders">
<g id="border_plain">
<line x1="187.5" y1="125.0" x2="156.25" y2="125.0" id="line_0" class="plain" />
<line x1="218.75" y1="187.5" x2="218.75" y2="156.25" id="line_2" class="plain" />
<line x1="156.25" y1="218.75" x2="187.5" y2="218.75" id="line_4" class="plain" />
<line x1="125.0" y1="156.25" x2="125.0" y2="187.5" id="line_6" class="plain" />
<line x1="46.875" y1="-62.5" x2="140.625" y2="93.75" id="line_32" class="plain" />
<line x1="203.125" y1="93.75" x2="296.875" y2="-62.5" id="line_33" class="plain" />
<line x1="406.25" y1="46.875" x2="250.0" y2="140.625" id="line_34" class="plain" />
<line x1="250.0" y1="203.125" x2="406.25" y2="296.875" id="line_35" class="plain" />
<line x1="296.875" y1="406.25" x2="203.125" y2="250.0" id="line_36" class="plain" />
<line x1="140.625" y1="250.0" x2="46.875" y2="406.25" id="line_37" class="plain" />
<line x1="-62.5" y1="296.875" x2="93.75" y2="203.125" id="line_38" class="plain" />
<line x1="93.75" y1="140.625" x2="-62.5" y2="46.875" id="line_39" class="plain" />
<line x1="187.5" y1="-93.75" x2="156.25" y2="-93.75" id="line_54" class="plain" />
<line x1="-93.75" y1="187.5" x2="-93.75" y2="156.25" id="line_69" class="plain" />
<line x1="-93.75" y1="406.25" x2="-125.0" y2="265.625" id="line_78" class="plain" />
<!-- end group: "border_plain" -->
</g>
<g id="border_ceiling">
<line x1="187.5" y1="406.25" x2="156.25" y2="406.25" id="line_42" class="ceiling" />
<line x1="406.25" y1="156.25" x2="406.25" y2="187.5" id="line_55" class="ceiling" />
<!-- end group: "border_ceiling" -->
</g>
<g id="border_elevation">
<line x1="203.125" y1="250.0" x2="140.625" y2="250.0" id="line_17" class="elevation" />
<line x1="250.0" y1="140.625" x2="250.0" y2="203.125" id="line_19" class="elevation" />
<line x1="140.625" y1="93.75" x2="203.125" y2="93.75" id="line_21" class="elevation" />
<line x1="93.75" y1="203.125" x2="93.75" y2="140.625" id="line_23" class="elevation" />
<line x1="156.25" y1="-62.5" x2="187.5" y2="-62.5" id="line_45" class="elevation" />
<line x1="-62.5" y1="187.5" x2="-62.5" y2="156.25" id="line_67" class="elevation" />
<!-- end group: "border_elevation" -->
</g>
<g id="border_solid">
<line x1="218.75" y1="156.25" x2="187.5" y2="125.0" id="line_1" class="solid" />
<line x1="187.5" y1="218.75" x2="218.75" y2="187.5" id="line_3" class="solid" />
<line x1="125.0" y1="187.5" x2="156.25" y2="218.75" id="line_5" class="solid" />
<line x1="156.25" y1="125.0" x2="125.0" y2="156.25" id="line_7" class="solid" />
<line x1="140.625" y1="93.75" x2="156.25" y2="125.0" id="line_8" class="solid" />
<line x1="125.0" y1="156.25" x2="93.75" y2="140.625" id="line_9" class="solid" />
<line x1="203.125" y1="93.75" x2="187.5" y2="125.0" id="line_10" class="solid" />
<line x1="250.0" y1="140.625" x2="218.75" y2="156.25" id="line_11" class="solid" />
<line x1="250.0" y1="203.125" x2="218.75" y2="187.5" id="line_12" class="solid" />
<line x1="203.125" y1="250.0" x2="187.5" y2="218.75" id="line_13" class="solid" />
<line x1="140.625" y1="250.0" x2="156.25" y2="218.75" id="line_14" class="solid" />
<line x1="93.75" y1="203.125" x2="125.0" y2="187.5" id="line_15" class="solid" />
<line x1="93.75" y1="203.125" x2="140.625" y2="250.0" id="line_16" class="solid" />
<line x1="203.125" y1="250.0" x2="250.0" y2="203.125" id="line_18" class="solid" />
<line x1="250.0" y1="140.625" x2="203.125" y2="93.75" id="line_20" class="solid" />
<line x1="140.625" y1="93.75" x2="93.75" y2="140.625" id="line_22" class="solid" />
<line x1="296.875" y1="406.25" x2="187.5" y2="406.25" id="line_24" class="solid" />
<line x1="46.875" y1="-62.5" x2="156.25" y2="-62.5" id="line_25" class="solid" />
<line x1="406.25" y1="46.875" x2="406.25" y2="156.25" id="line_26" class="solid" />
<line x1="406.25" y1="296.875" x2="296.875" y2="406.25" id="line_27" class="solid" />
<line x1="296.875" y1="-62.5" x2="406.25" y2="46.875" id="line_28" class="solid" />
<line x1="-62.5" y1="296.875" x2="-62.5" y2="187.5" id="line_29" class="solid" />
<line x1="46.875" y1="406.25" x2="-62.5" y2="296.875" id="line_30" class="solid" />
<line x1="-62.5" y1="46.875" x2="46.875" y2="-62.5" id="line_31" class="solid" />
<line x1="156.25" y1="406.25" x2="46.875" y2="406.25" id="line_40" class="solid" />
<line x1="156.25" y1="437.5" x2="156.25" y2="406.25" id="line_41" class="solid" />
<line x1="187.5" y1="406.25" x2="187.5" y2="437.5" id="line_43" class="solid" />
<line x1="187.5" y1="437.5" x2="156.25" y2="437.5" id="line_44" class="solid" />
<line x1="156.25" y1="-62.5" x2="156.25" y2="-93.75" id="line_46" class="solid" />
<line x1="156.25" y1="-93.75" x2="125.0" y2="-93.75" id="line_47" class="solid" />
<line x1="125.0" y1="-93.75" x2="125.0" y2="-125.0" id="line_48" class="solid" />
<line x1="125.0" y1="-125.0" x2="218.75" y2="-125.0" id="line_49" class="solid" />
<line x1="218.75" y1="-125.0" x2="218.75" y2="-93.75" id="line_50" class="solid" />
<line x1="218.75" y1="-93.75" x2="187.5" y2="-93.75" id="line_51" class="solid" />
<line x1="187.5" y1="-62.5" x2="296.875" y2="-62.5" id="line_52" class="solid" />
<line x1="187.5" y1="-93.75" x2="187.5" y2="-62.5" id="line_53" class="solid" />
<line x1="406.25" y1="156.25" x2="437.5" y2="156.25" id="line_56" class="solid" />
<line x1="437.5" y1="156.25" x2="437.5" y2="187.5" id="line_57" class="solid" />
<line x1="406.25" y1="187.5" x2="406.25" y2="296.875" id="line_58" class="solid" />
<line x1="437.5" y1="187.5" x2="406.25" y2="187.5" id="line_59" class="solid" />
<line x1="-62.5" y1="156.25" x2="-62.5" y2="46.875" id="line_60" class="solid" />
<line x1="-93.75" y1="156.25" x2="-62.5" y2="156.25" id="line_61" class="solid" />
<line x1="-93.75" y1="125.0" x2="-93.75" y2="156.25" id="line_62" class="solid" />
<line x1="-125.0" y1="125.0" x2="-93.75" y2="125.0" id="line_63" class="solid" />
<line x1="-125.0" y1="218.75" x2="-125.0" y2="125.0" id="line_64" class="solid" />
<line x1="-93.75" y1="218.75" x2="-125.0" y2="218.75" id="line_65" class="solid" />
<line x1="-93.75" y1="187.5" x2="-93.75" y2="218.75" id="line_66" class="solid" />
<line x1="-62.5" y1="187.5" x2="-93.75" y2="187.5" id="line_68" class="solid" />
<line x1="-125.0" y1="234.375" x2="-125.0" y2="218.75" id="line_70" class="solid" />
<line x1="-93.75" y1="234.375" x2="-125.0" y2="234.375" id="line_71" class="solid" />
<line x1="-93.75" y1="218.75" x2="-93.75" y2="234.375" id="line_72" class="solid" />
<line x1="-93.75" y1="234.375" x2="-93.75" y2="406.25" id="line_73" class="solid" />
<line x1="-125.0" y1="265.625" x2="-125.0" y2="234.375" id="line_74" class="solid" />
<line x1="-250.0" y1="265.625" x2="-125.0" y2="265.625" id="line_75" class="solid" />
<line x1="-250.0" y1="406.25" x2="-250.0" y2="265.625" id="line_76" class="solid" />
<line x1="-93.75" y1="406.25" x2="-250.0" y2="406.25" id="line_77" class="solid" />
<!-- end group: "border_solid" -->
</g>
<!-- end group: "borders" -->
</g>
<g id="poly_teleporter_lines">
<g id="panel_teleporter_lines_p14">
<g id="panel_teleporter_line_group_poly_p14_p16">
<line x1="171.875" y1="421.875" x2="171.875" y2="-104.156494140625" id="panel_teleporter_border_p14_p16" class="teleporter_border" />
<use xlink:href="../resources/svg/common.svg#arrow" x="171.875" y="-104.156494140625" id="panel_teleporter_head_p14_p16" class="teleporter_line" transform="rotate(-90.0 171.875 -104.156494140625)" />
<line x1="171.875" y1="421.875" x2="171.875" y2="-104.156494140625" id="panel_teleporter_line_p14_p16" class="teleporter_line" />
<!-- end group: "panel_teleporter_line_group_poly_p14_p16" -->
</g>
<!-- end group: "panel_teleporter_lines_p14" -->
</g>
<g id="panel_teleporter_lines_p22">
<g id="panel_teleporter_line_group_poly_p22_p20">
<line x1="421.875" y1="171.875" x2="-104.156494140625" y2="171.875" id="panel_teleporter_border_p22_p20" class="teleporter_border" />
<use xlink:href="../resources/svg/common.svg#arrow" x="-104.156494140625" y="171.875" id="panel_teleporter_head_p22_p20" class="teleporter_line" transform="rotate(180.0 -104.156494140625 171.875)" />
<line x1="421.875" y1="171.875" x2="-104.156494140625" y2="171.875" id="panel_teleporter_line_p22_p20" class="teleporter_line" />
<!-- end group: "panel_teleporter_line_group_poly_p22_p20" -->
</g>
<!-- end group: "panel_teleporter_lines_p22" -->
</g>
<!-- end group: "poly_teleporter_lines" -->
</g>
<g id="objects">
<g id="objects_sound">
<use xlink:href="../resources/svg/common.svg#sound" x="129.8828125" y="216.796875" id="object_61" class="sound sound-0" />
<use xlink:href="../resources/svg/common.svg#sound" x="215.8203125" y="215.8203125" id="object_62" class="sound sound-0" />
<use xlink:href="../resources/svg/common.svg#sound" x="216.796875" y="128.90625" id="object_63" class="sound sound-0" />
<use xlink:href="../resources/svg/common.svg#sound" x="128.90625" y="129.8828125" id="object_64" class="sound sound-0" />
<use xlink:href="../resources/svg/common.svg#sound" x="170.8984375" y="-75.1953125" id="object_65" class="sound sound-8" />
<use xlink:href="../resources/svg/common.svg#sound" x="-81.0546875" y="170.8984375" id="object_66" class="sound sound-20" />
<!-- end group: "objects_sound" -->
</g>
<g id="objects_item">
<use xlink:href="../resources/svg/common.svg#item" x="302.734375" y="290.0390625" id="object_8" class="item item-5" />
<use xlink:href="../resources/svg/common.svg#item" x="283.203125" y="54.6875" id="object_9" class="item item-5" />
<use xlink:href="../resources/svg/common.svg#item" x="51.7578125" y="51.7578125" id="object_10" class="item item-5" />
<use xlink:href="../resources/svg/common.svg#item" x="53.7109375" y="295.8984375" id="object_11" class="item item-5" />
<use xlink:href="../resources/svg/common.svg#item" x="-108.3984375" y="140.625" id="object_12" class="item item-8" />
<use xlink:href="../resources/svg/common.svg#item" x="202.1484375" y="-112.79296875" id="object_13" class="item item-22" />
<use xlink:href="../resources/svg/common.svg#item" x="190.4296875" y="172.8515625" id="object_14" class="item item-22" />
<use xlink:href="../resources/svg/common.svg#item" x="358.88671875" y="174.31640625" id="object_15" class="item item-3" />
<use xlink:href="../resources/svg/common.svg#item" x="147.94921875" y="172.8515625" id="object_16" class="item item-3" />
<use xlink:href="../resources/svg/common.svg#item" x="-8.7890625" y="194.82421875" id="object_17" class="item item-22" />
<use xlink:href="../resources/svg/common.svg#item" x="197.75390625" y="342.7734375" id="object_18" class="item item-22" />
<use xlink:href="../resources/svg/common.svg#item" x="218.26171875" y="8.7890625" id="object_19" class="item item-8" />
<use xlink:href="../resources/svg/common.svg#item" x="235.83984375" y="171.38671875" id="object_20" class="item item-23" />
<use xlink:href="../resources/svg/common.svg#item" x="168.45703125" y="108.3984375" id="object_21" class="item item-23" />
<use xlink:href="../resources/svg/common.svg#item" x="106.93359375" y="172.8515625" id="object_22" class="item item-23" />
<use xlink:href="../resources/svg/common.svg#item" x="171.38671875" y="235.83984375" id="object_23" class="item item-23" />
<use xlink:href="../resources/svg/common.svg#item" x="418.9453125" y="172.8515625" id="object_24" class="item item-9" />
<use xlink:href="../resources/svg/common.svg#item" x="171.38671875" y="420.41015625" id="object_25" class="item item-9" />
<use xlink:href="../resources/svg/common.svg#item" x="-14.6484375" y="127.44140625" id="object_26" class="item item-7" />
<use xlink:href="../resources/svg/common.svg#item" x="123.046875" y="-8.7890625" id="object_27" class="item item-7" />
<use xlink:href="../resources/svg/common.svg#item" x="319.3359375" y="336.9140625" id="object_28" class="item item-7" />
<use xlink:href="../resources/svg/common.svg#item" x="54.19921875" y="329.58984375" id="object_29" class="item item-6" />
<use xlink:href="../resources/svg/common.svg#item" x="325.1953125" y="43.9453125" id="object_30" class="item item-6" />
<use xlink:href="../resources/svg/common.svg#item" x="33.69140625" y="7.32421875" id="object_31" class="item item-6" />
<use xlink:href="../resources/svg/common.svg#item" x="246.09375" y="377.9296875" id="object_32" class="item item-6" />
<use xlink:href="../resources/svg/common.svg#item" x="-140.625" y="342.7734375" id="object_33" class="item item-23" />
<use xlink:href="../resources/svg/common.svg#item" x="-159.1796875" y="341.796875" id="object_34" class="item item-23" />
<use xlink:href="../resources/svg/common.svg#item" x="-166.015625" y="325.1953125" id="object_35" class="item item-23" />
<use xlink:href="../resources/svg/common.svg#item" x="-155.2734375" y="315.4296875" id="object_36" class="item item-23" />
<use xlink:href="../resources/svg/common.svg#item" x="-141.6015625" y="323.2421875" id="object_37" class="item item-23" />
<use xlink:href="../resources/svg/common.svg#item" x="-206.0546875" y="355.46875" id="object_38" class="item item-6" />
<use xlink:href="../resources/svg/common.svg#item" x="-243.1640625" y="272.4609375" id="object_39" class="item item-11" />
<use xlink:href="../resources/svg/common.svg#item" x="153.3203125" y="191.40625" id="object_40" class="item item-6" />
<use xlink:href="../resources/svg/common.svg#item" x="173.828125" y="142.578125" id="object_41" class="item item-7" />
<use xlink:href="../resources/svg/common.svg#item" x="155.2734375" y="152.34375" id="object_42" class="item item-7" />
<use xlink:href="../resources/svg/common.svg#item" x="195.3125" y="194.3359375" id="object_43" class="item item-4" />
<use xlink:href="../resources/svg/common.svg#item" x="188.4765625" y="154.296875" id="object_44" class="item item-9" />
<use xlink:href="../resources/svg/common.svg#item" x="-70.3125" y="170.8984375" id="object_45" class="item item-6" />
<use xlink:href="../resources/svg/common.svg#item" x="118.1640625" y="376.953125" id="object_46" class="item item-6" />
<use xlink:href="../resources/svg/common.svg#item" x="193.359375" y="291.015625" id="object_47" class="item item-6" />
<use xlink:href="../resources/svg/common.svg#item" x="86.9140625" y="87.890625" id="object_48" class="item item-6" />
<use xlink:href="../resources/svg/common.svg#item" x="33.203125" y="213.8671875" id="object_49" class="item item-6" />
<use xlink:href="../resources/svg/common.svg#item" x="289.0625" y="85.9375" id="object_50" class="item item-6" />
<use xlink:href="../resources/svg/common.svg#item" x="316.40625" y="199.21875" id="object_51" class="item item-6" />
<use xlink:href="../resources/svg/common.svg#item" x="253.90625" y="296.875" id="object_52" class="item item-7" />
<use xlink:href="../resources/svg/common.svg#item" x="160.15625" y="62.5" id="object_53" class="item item-7" />
<use xlink:href="../resources/svg/common.svg#item" x="96.6796875" y="102.5390625" id="object_54" class="item item-7" />
<use xlink:href="../resources/svg/common.svg#item" x="-10.7421875" y="237.3046875" id="object_55" class="item item-7" />
<use xlink:href="../resources/svg/common.svg#item" x="76.171875" y="281.25" id="object_56" class="item item-7" />
<use xlink:href="../resources/svg/common.svg#item" x="164.0625" y="330.078125" id="object_57" class="item item-7" />
<use xlink:href="../resources/svg/common.svg#item" x="252.9296875" y="309.5703125" id="object_58" class="item item-7" />
<use xlink:href="../resources/svg/common.svg#item" x="298.828125" y="171.875" id="object_59" class="item item-7" />
<use xlink:href="../resources/svg/common.svg#item" x="262.6953125" y="95.703125" id="object_60" class="item item-7" />
<!-- end group: "objects_item" -->
</g>
<g id="objects_player">
<use xlink:href="../resources/svg/common.svg#monster" x="168.9453125" y="167.96875" id="object_0" class="player" transform="rotate(90.703125 168.9453125 167.96875)" />
<use xlink:href="../resources/svg/common.svg#monster" x="168.9453125" y="7.8125" id="object_1" class="player" />
<use xlink:href="../resources/svg/common.svg#monster" x="330.078125" y="176.7578125" id="object_2" class="player" transform="rotate(183.515625 330.078125 176.7578125)" />
<use xlink:href="../resources/svg/common.svg#monster" x="171.875" y="343.75" id="object_3" class="player" transform="rotate(266.484375 171.875 343.75)" />
<use xlink:href="../resources/svg/common.svg#monster" x="12.6953125" y="167.96875" id="object_4" class="player" />
<use xlink:href="../resources/svg/common.svg#monster" x="171.875" y="-110.3515625" id="object_5" class="player" transform="rotate(88.59375 171.875 -110.3515625)" />
<use xlink:href="../resources/svg/common.svg#monster" x="-111.328125" y="171.875" id="object_6" class="player" transform="rotate(2.8125 -111.328125 171.875)" />
<use xlink:href="../resources/svg/common.svg#monster" x="171.875" y="190.4296875" id="object_7" class="player" transform="rotate(270.703125 171.875 190.4296875)" />
<!-- end group: "objects_player" -->
</g>
<!-- end group: "objects" -->
</g>
<g id="panels">
<!-- end group: "panels" -->
</g>

<script xlink:href="../resources/js/level.js" ></script>
</svg>