<?xml version="1.0" encoding="UTF-8"?>
<!-- generated by map2svg: github.com/fracai/marathon-svg -->
<svg xmlns="http://www.w3.org/2000/svg" xmlns:xlink="http://www.w3.org/1999/xlink" version="1.1"
    viewBox="-468.75 -468.75 562.5 531.25">
<link xmlns="http://www.w3.org/1999/xhtml" rel="stylesheet" href="../resources/css/styles.css" type="text/css" />
<style id="dynamic-style" />
<g id="background-grid">
<defs>
<pattern id="grid_minor" width="3.125" height="3.125" patternUnits="userSpaceOnUse">
<path d="M 3.125 0 L 0 0 0 3.125" fill="none" class="grid_minor" />
</pattern>
<pattern id="grid_major" width="31.25" height="31.25" patternUnits="userSpaceOnUse">
<rect width="31.25" height="31.25" fill="url(#grid_minor)"/>
<path d="M 31.25 0 L 0 0 0 31.25" fill="none" class="grid_major" />
</pattern>
</defs>
<rect x="-1000" y="-1000" width="2000" height="2000" fill="url(#grid_major)" />
<line x1="0" y1="1000" x2="0" y2="-1000" class="grid_origin" />
<line x1="1000" y1="0" x2="-1000" y2="0" class="grid_origin" />
<!-- end group: "background-grid" -->
</g>
<g id="polygons">
<polygon points="-156.25,-265.625 -109.375,-265.625 -140.625,-234.375 -156.25,-234.375" id="poly_7" class="plain" />
<polygon points="-140.625,-234.375 -109.375,-265.625 -109.375,-218.75 -140.625,-218.75" id="poly_8" class="plain" />
<polygon points="-140.625,-171.875 -140.625,-187.5 -109.375,-187.5 -109.375,-171.875 -109.375,-140.625" id="poly_12" class="plain" />
<polygon points="-156.25,-171.875 -140.625,-171.875 -109.375,-140.625 -140.625,-140.625 -156.25,-140.625" id="poly_13" class="plain" />
<polygon points="-140.625,-140.625 -109.375,-140.625 -109.375,-109.375 -140.625,-109.375" id="poly_14" class="plain" />
<polygon points="-109.375,-171.875 -78.125,-171.875 -78.125,-140.625 -109.375,-140.625" id="poly_15" class="plain" />
<polygon points="-296.875,-171.875 -218.75,-171.875 -250.0,-140.625 -296.875,-140.625" id="poly_23" class="plain" />
<polygon points="-250.0,-140.625 -218.75,-171.875 -218.75,-109.375 -250.0,-109.375" id="poly_24" class="plain" />
<polygon points="-296.875,-265.625 -250.0,-265.625 -218.75,-234.375 -250.0,-234.375 -296.875,-234.375" id="poly_25" class="plain" />
<polygon points="-250.0,-265.625 -250.0,-296.875 -218.75,-296.875 -218.75,-265.625 -218.75,-234.375" id="poly_26" class="plain" />
<polygon points="-218.75,-265.625 -187.5,-265.625 -187.5,-234.375 -218.75,-234.375" id="poly_27" class="plain" />
<polygon points="-250.0,-234.375 -218.75,-234.375 -218.75,-218.75 -250.0,-218.75" id="poly_28" class="plain" />
<polygon points="-250.0,-437.5 -62.5,-437.5 -156.25,-375.0 -187.5,-375.0" id="poly_0" class="plain" />
<polygon points="-312.5,-437.5 -250.0,-437.5 -187.5,-375.0 -296.875,-375.0" id="poly_1" class="plain" />
<polygon points="-62.5,-437.5 -31.25,-406.25 -31.25,-375.0 -78.125,-375.0 -156.25,-375.0" id="poly_2" class="plain" />
<polygon points="-343.75,-406.25 -312.5,-437.5 -296.875,-375.0 -343.75,-343.75" id="poly_3" class="plain" />
<polygon points="-187.5,-375.0 -156.25,-375.0 -156.25,-265.625 -187.5,-265.625" id="poly_4" class="plain" />
<polygon points="-187.5,-265.625 -156.25,-265.625 -156.25,-234.375 -187.5,-234.375" id="poly_5" class="plain" />
<polygon points="-187.5,-234.375 -156.25,-234.375 -156.25,-171.875 -156.25,-140.625 -156.25,-31.25 -187.5,-31.25" id="poly_6" class="plain" />
<polygon points="-78.125,-375.0 -31.25,-375.0 -31.25,-171.875 -78.125,-171.875" id="poly_9" class="plain" />
<polygon points="-78.125,-171.875 -31.25,-171.875 -31.25,-140.625 -78.125,-140.625" id="poly_10" class="plain" />
<polygon points="-78.125,-140.625 -31.25,-140.625 -31.25,-31.25 -78.125,-31.25" id="poly_11" class="plain" />
<polygon points="-375.0,-187.5 -375.0,-109.375 -375.0,-62.5 -406.25,-62.5 -437.5,-93.75" id="poly_16" class="plain" />
<polygon points="-437.5,-312.5 -375.0,-218.75 -375.0,-187.5 -437.5,-93.75" id="poly_17" class="plain" />
<polygon points="-437.5,-312.5 -406.25,-343.75 -375.0,-343.75 -375.0,-296.875 -375.0,-218.75" id="poly_18" class="plain" />
<polygon points="-343.75,-31.25 -296.875,-31.25 -312.5,31.25 -343.75,0.0" id="poly_19" class="plain" />
<polygon points="-296.875,-31.25 -187.5,-31.25 -234.375,31.25 -312.5,31.25" id="poly_20" class="plain" />
<polygon points="-187.5,-31.25 -156.25,-31.25 -62.5,31.25 -234.375,31.25" id="poly_21" class="plain" />
<polygon points="-156.25,-31.25 -78.125,-31.25 -31.25,-31.25 -31.25,0.0 -62.5,31.25" id="poly_22" class="plain" />
<polygon points="-250.0,-343.75 -218.75,-343.75 -218.75,-296.875 -250.0,-296.875" id="poly_29" class="plain" />
<polygon points="-218.75,-343.75 0.0,-343.75 0.0,-296.875 -218.75,-296.875" id="poly_30" class="plain" />
<polygon points="-250.0,-218.75 -218.75,-218.75 -218.75,-187.5 -250.0,-187.5" id="poly_31" class="plain" />
<polygon points="-218.75,-218.75 -140.625,-218.75 -140.625,-187.5 -218.75,-187.5" id="poly_32" class="plain" />
<polygon points="-140.625,-218.75 -109.375,-218.75 -109.375,-187.5 -140.625,-187.5" id="poly_33" class="plain" />
<polygon points="-109.375,-218.75 0.0,-218.75 0.0,-187.5 -109.375,-187.5" id="poly_34" class="plain" />
<polygon points="-250.0,-109.375 -218.75,-109.375 -218.75,-62.5 -250.0,-62.5" id="poly_35" class="plain" />
<polygon points="-218.75,-109.375 -140.625,-109.375 -140.625,-62.5 -218.75,-62.5" id="poly_36" class="plain" />
<polygon points="-140.625,-109.375 -109.375,-109.375 -109.375,-62.5 -140.625,-62.5" id="poly_37" class="plain" />
<polygon points="-375.0,-109.375 -250.0,-109.375 -250.0,-62.5 -375.0,-62.5" id="poly_38" class="plain" />
<polygon points="-109.375,-109.375 0.0,-109.375 0.0,-62.5 -109.375,-62.5" id="poly_39" class="plain" />
<polygon points="0.0,-109.375 0.0,-187.5 62.5,-93.75 31.25,-62.5 0.0,-62.5" id="poly_40" class="plain" />
<polygon points="0.0,-218.75 0.0,-296.875 62.5,-312.5 62.5,-93.75 0.0,-187.5" id="poly_41" class="plain" />
<polygon points="0.0,-343.75 31.25,-343.75 62.5,-312.5 0.0,-296.875" id="poly_42" class="plain" />
<polygon points="-375.0,-343.75 -250.0,-343.75 -250.0,-296.875 -375.0,-296.875" id="poly_43" class="plain" />
<polygon points="-375.0,-218.75 -250.0,-218.75 -250.0,-187.5 -375.0,-187.5" id="poly_44" class="plain" />
<polygon points="-343.75,-343.75 -296.875,-375.0 -296.875,-265.625 -343.75,-265.625" id="poly_45" class="plain" />
<polygon points="-343.75,-265.625 -296.875,-265.625 -296.875,-234.375 -343.75,-234.375" id="poly_46" class="plain" />
<polygon points="-343.75,-234.375 -296.875,-234.375 -296.875,-171.875 -343.75,-171.875" id="poly_47" class="plain" />
<polygon points="-343.75,-171.875 -296.875,-171.875 -296.875,-140.625 -343.75,-140.625" id="poly_48" class="plain" />
<polygon points="-343.75,-140.625 -296.875,-140.625 -296.875,-31.25 -343.75,-31.25" id="poly_49" class="plain" />
<!-- end group: "polygons" -->
</g>
<g id="borders">
<g id="border_plain">
<line x1="-296.875" y1="-375.0" x2="-343.75" y2="-343.75" id="line_6" class="plain" />
<line x1="-156.25" y1="-375.0" x2="-187.5" y2="-375.0" id="line_7" class="plain" />
<line x1="-31.25" y1="-375.0" x2="-78.125" y2="-375.0" id="line_8" class="plain" />
<line x1="-31.25" y1="-31.25" x2="-78.125" y2="-31.25" id="line_9" class="plain" />
<line x1="-156.25" y1="-31.25" x2="-187.5" y2="-31.25" id="line_10" class="plain" />
<line x1="-343.75" y1="-31.25" x2="-296.875" y2="-31.25" id="line_11" class="plain" />
<line x1="-218.75" y1="-171.875" x2="-250.0" y2="-140.625" id="line_94" class="plain" />
<line x1="-109.375" y1="-265.625" x2="-140.625" y2="-234.375" id="line_95" class="plain" />
<line x1="0.0" y1="-343.75" x2="0.0" y2="-296.875" id="line_96" class="plain" />
<line x1="0.0" y1="-296.875" x2="62.5" y2="-312.5" id="line_97" class="plain" />
<line x1="0.0" y1="-218.75" x2="0.0" y2="-187.5" id="line_98" class="plain" />
<line x1="0.0" y1="-187.5" x2="62.5" y2="-93.75" id="line_99" class="plain" />
<line x1="0.0" y1="-109.375" x2="0.0" y2="-62.5" id="line_100" class="plain" />
<line x1="-375.0" y1="-109.375" x2="-375.0" y2="-62.5" id="line_101" class="plain" />
<line x1="-375.0" y1="-218.75" x2="-375.0" y2="-187.5" id="line_102" class="plain" />
<line x1="-375.0" y1="-343.75" x2="-375.0" y2="-296.875" id="line_103" class="plain" />
<line x1="-437.5" y1="-312.5" x2="-375.0" y2="-218.75" id="line_104" class="plain" />
<line x1="-437.5" y1="-93.75" x2="-375.0" y2="-187.5" id="line_105" class="plain" />
<line x1="-187.5" y1="-31.25" x2="-234.375" y2="31.25" id="line_107" class="plain" />
<line x1="-156.25" y1="-31.25" x2="-62.5" y2="31.25" id="line_108" class="plain" />
<line x1="-296.875" y1="-31.25" x2="-312.5" y2="31.25" id="line_109" class="plain" />
<line x1="-62.5" y1="-437.5" x2="-156.25" y2="-375.0" id="line_110" class="plain" />
<line x1="-187.5" y1="-375.0" x2="-250.0" y2="-437.5" id="line_112" class="plain" />
<line x1="-296.875" y1="-375.0" x2="-312.5" y2="-437.5" id="line_113" class="plain" />
<line x1="-156.25" y1="-265.625" x2="-187.5" y2="-265.625" id="line_114" class="plain" />
<line x1="-156.25" y1="-234.375" x2="-187.5" y2="-234.375" id="line_115" class="plain" />
<line x1="-31.25" y1="-171.875" x2="-78.125" y2="-171.875" id="line_117" class="plain" />
<line x1="-31.25" y1="-140.625" x2="-78.125" y2="-140.625" id="line_119" class="plain" />
<line x1="-109.375" y1="-140.625" x2="-140.625" y2="-171.875" id="line_120" class="plain" />
<line x1="-109.375" y1="-171.875" x2="-109.375" y2="-140.625" id="line_121" class="plain" />
<line x1="-109.375" y1="-140.625" x2="-140.625" y2="-140.625" id="line_122" class="plain" />
<line x1="-218.75" y1="-234.375" x2="-250.0" y2="-234.375" id="line_123" class="plain" />
<line x1="-218.75" y1="-265.625" x2="-218.75" y2="-234.375" id="line_124" class="plain" />
<line x1="-250.0" y1="-265.625" x2="-218.75" y2="-234.375" id="line_125" class="plain" />
<line x1="-250.0" y1="-187.5" x2="-250.0" y2="-218.75" id="line_127" class="plain" />
<line x1="-218.75" y1="-218.75" x2="-218.75" y2="-187.5" id="line_129" class="plain" />
<line x1="-140.625" y1="-218.75" x2="-140.625" y2="-187.5" id="line_130" class="plain" />
<line x1="-109.375" y1="-218.75" x2="-109.375" y2="-187.5" id="line_131" class="plain" />
<line x1="-218.75" y1="-343.75" x2="-218.75" y2="-296.875" id="line_133" class="plain" />
<line x1="-250.0" y1="-296.875" x2="-250.0" y2="-343.75" id="line_135" class="plain" />
<line x1="-250.0" y1="-62.5" x2="-250.0" y2="-109.375" id="line_137" class="plain" />
<line x1="-218.75" y1="-109.375" x2="-218.75" y2="-62.5" id="line_139" class="plain" />
<line x1="-140.625" y1="-109.375" x2="-140.625" y2="-62.5" id="line_141" class="plain" />
<line x1="-109.375" y1="-109.375" x2="-109.375" y2="-62.5" id="line_143" class="plain" />
<line x1="-296.875" y1="-265.625" x2="-343.75" y2="-265.625" id="line_145" class="plain" />
<line x1="-296.875" y1="-234.375" x2="-343.75" y2="-234.375" id="line_147" class="plain" />
<line x1="-296.875" y1="-171.875" x2="-343.75" y2="-171.875" id="line_149" class="plain" />
<line x1="-296.875" y1="-140.625" x2="-343.75" y2="-140.625" id="line_151" class="plain" />
<!-- end group: "border_plain" -->
</g>
<g id="border_ceiling">
<line x1="-109.375" y1="-109.375" x2="-140.625" y2="-109.375" id="line_50" class="ceiling" />
<line x1="-156.25" y1="-171.875" x2="-156.25" y2="-140.625" id="line_54" class="ceiling" />
<line x1="-140.625" y1="-187.5" x2="-109.375" y2="-187.5" id="line_58" class="ceiling" />
<line x1="-78.125" y1="-140.625" x2="-78.125" y2="-171.875" id="line_60" class="ceiling" />
<line x1="-187.5" y1="-234.375" x2="-187.5" y2="-265.625" id="line_62" class="ceiling" />
<line x1="-250.0" y1="-296.875" x2="-218.75" y2="-296.875" id="line_68" class="ceiling" />
<line x1="-296.875" y1="-234.375" x2="-296.875" y2="-265.625" id="line_72" class="ceiling" />
<line x1="-218.75" y1="-218.75" x2="-250.0" y2="-218.75" id="line_76" class="ceiling" />
<line x1="-109.375" y1="-218.75" x2="-140.625" y2="-218.75" id="line_80" class="ceiling" />
<line x1="-156.25" y1="-265.625" x2="-156.25" y2="-234.375" id="line_84" class="ceiling" />
<line x1="-296.875" y1="-140.625" x2="-296.875" y2="-171.875" id="line_86" class="ceiling" />
<line x1="-218.75" y1="-109.375" x2="-250.0" y2="-109.375" id="line_90" class="ceiling" />
<!-- end group: "border_ceiling" -->
</g>
<g id="border_solid">
<line x1="-343.75" y1="-31.25" x2="-343.75" y2="-140.625" id="line_0" class="solid" />
<line x1="-296.875" y1="-375.0" x2="-296.875" y2="-265.625" id="line_1" class="solid" />
<line x1="-187.5" y1="-265.625" x2="-187.5" y2="-375.0" id="line_2" class="solid" />
<line x1="-156.25" y1="-375.0" x2="-156.25" y2="-265.625" id="line_3" class="solid" />
<line x1="-78.125" y1="-171.875" x2="-78.125" y2="-375.0" id="line_4" class="solid" />
<line x1="-31.25" y1="-375.0" x2="-31.25" y2="-171.875" id="line_5" class="solid" />
<line x1="-78.125" y1="-375.0" x2="-156.25" y2="-375.0" id="line_12" class="solid" />
<line x1="-187.5" y1="-375.0" x2="-296.875" y2="-375.0" id="line_13" class="solid" />
<line x1="-31.25" y1="-406.25" x2="-31.25" y2="-375.0" id="line_14" class="solid" />
<line x1="-62.5" y1="-437.5" x2="-31.25" y2="-406.25" id="line_15" class="solid" />
<line x1="-250.0" y1="-437.5" x2="-62.5" y2="-437.5" id="line_16" class="solid" />
<line x1="-343.75" y1="-406.25" x2="-312.5" y2="-437.5" id="line_17" class="solid" />
<line x1="-343.75" y1="-343.75" x2="-343.75" y2="-406.25" id="line_18" class="solid" />
<line x1="-375.0" y1="-343.75" x2="-250.0" y2="-343.75" id="line_19" class="solid" />
<line x1="0.0" y1="-296.875" x2="-218.75" y2="-296.875" id="line_20" class="solid" />
<line x1="-375.0" y1="-218.75" x2="-250.0" y2="-218.75" id="line_21" class="solid" />
<line x1="0.0" y1="-187.5" x2="-109.375" y2="-187.5" id="line_22" class="solid" />
<line x1="-375.0" y1="-109.375" x2="-250.0" y2="-109.375" id="line_23" class="solid" />
<line x1="0.0" y1="-62.5" x2="-109.375" y2="-62.5" id="line_24" class="solid" />
<line x1="-375.0" y1="-62.5" x2="-406.25" y2="-62.5" id="line_25" class="solid" />
<line x1="-406.25" y1="-62.5" x2="-437.5" y2="-93.75" id="line_26" class="solid" />
<line x1="-437.5" y1="-93.75" x2="-437.5" y2="-312.5" id="line_27" class="solid" />
<line x1="-437.5" y1="-312.5" x2="-406.25" y2="-343.75" id="line_28" class="solid" />
<line x1="-406.25" y1="-343.75" x2="-375.0" y2="-343.75" id="line_29" class="solid" />
<line x1="-375.0" y1="-296.875" x2="-375.0" y2="-218.75" id="line_30" class="solid" />
<line x1="-375.0" y1="-187.5" x2="-375.0" y2="-109.375" id="line_31" class="solid" />
<line x1="31.25" y1="-62.5" x2="0.0" y2="-62.5" id="line_32" class="solid" />
<line x1="62.5" y1="-93.75" x2="31.25" y2="-62.5" id="line_33" class="solid" />
<line x1="62.5" y1="-312.5" x2="62.5" y2="-93.75" id="line_34" class="solid" />
<line x1="31.25" y1="-343.75" x2="62.5" y2="-312.5" id="line_35" class="solid" />
<line x1="0.0" y1="-343.75" x2="31.25" y2="-343.75" id="line_36" class="solid" />
<line x1="0.0" y1="-218.75" x2="0.0" y2="-296.875" id="line_37" class="solid" />
<line x1="0.0" y1="-109.375" x2="0.0" y2="-187.5" id="line_38" class="solid" />
<line x1="-31.25" y1="-31.25" x2="-31.25" y2="0.0" id="line_39" class="solid" />
<line x1="-31.25" y1="0.0" x2="-62.5" y2="31.25" id="line_40" class="solid" />
<line x1="-62.5" y1="31.25" x2="-234.375" y2="31.25" id="line_41" class="solid" />
<line x1="-312.5" y1="31.25" x2="-343.75" y2="0.0" id="line_42" class="solid" />
<line x1="-343.75" y1="0.0" x2="-343.75" y2="-31.25" id="line_43" class="solid" />
<line x1="-296.875" y1="-31.25" x2="-187.5" y2="-31.25" id="line_44" class="solid" />
<line x1="-156.25" y1="-31.25" x2="-78.125" y2="-31.25" id="line_45" class="solid" />
<line x1="-78.125" y1="-31.25" x2="-78.125" y2="-140.625" id="line_46" class="solid" />
<line x1="-78.125" y1="-140.625" x2="-109.375" y2="-140.625" id="line_47" class="solid" />
<line x1="-109.375" y1="-109.375" x2="0.0" y2="-109.375" id="line_48" class="solid" />
<line x1="-109.375" y1="-140.625" x2="-109.375" y2="-109.375" id="line_49" class="solid" />
<line x1="-140.625" y1="-109.375" x2="-140.625" y2="-140.625" id="line_51" class="solid" />
<line x1="-156.25" y1="-140.625" x2="-156.25" y2="-31.25" id="line_52" class="solid" />
<line x1="-140.625" y1="-140.625" x2="-156.25" y2="-140.625" id="line_53" class="solid" />
<line x1="-156.25" y1="-171.875" x2="-140.625" y2="-171.875" id="line_55" class="solid" />
<line x1="-140.625" y1="-187.5" x2="-218.75" y2="-187.5" id="line_56" class="solid" />
<line x1="-140.625" y1="-171.875" x2="-140.625" y2="-187.5" id="line_57" class="solid" />
<line x1="-109.375" y1="-187.5" x2="-109.375" y2="-171.875" id="line_59" class="solid" />
<line x1="-109.375" y1="-171.875" x2="-78.125" y2="-171.875" id="line_61" class="solid" />
<line x1="-218.75" y1="-265.625" x2="-187.5" y2="-265.625" id="line_63" class="solid" />
<line x1="-187.5" y1="-31.25" x2="-187.5" y2="-234.375" id="line_64" class="solid" />
<line x1="-187.5" y1="-234.375" x2="-218.75" y2="-234.375" id="line_65" class="solid" />
<line x1="-218.75" y1="-218.75" x2="-140.625" y2="-218.75" id="line_66" class="solid" />
<line x1="-218.75" y1="-234.375" x2="-218.75" y2="-218.75" id="line_67" class="solid" />
<line x1="-218.75" y1="-296.875" x2="-218.75" y2="-265.625" id="line_69" class="solid" />
<line x1="-250.0" y1="-296.875" x2="-375.0" y2="-296.875" id="line_70" class="solid" />
<line x1="-250.0" y1="-265.625" x2="-250.0" y2="-296.875" id="line_71" class="solid" />
<line x1="-296.875" y1="-265.625" x2="-250.0" y2="-265.625" id="line_73" class="solid" />
<line x1="-296.875" y1="-234.375" x2="-296.875" y2="-171.875" id="line_74" class="solid" />
<line x1="-250.0" y1="-234.375" x2="-296.875" y2="-234.375" id="line_75" class="solid" />
<line x1="-250.0" y1="-218.75" x2="-250.0" y2="-234.375" id="line_77" class="solid" />
<line x1="-156.25" y1="-234.375" x2="-156.25" y2="-171.875" id="line_78" class="solid" />
<line x1="-140.625" y1="-234.375" x2="-156.25" y2="-234.375" id="line_79" class="solid" />
<line x1="-140.625" y1="-218.75" x2="-140.625" y2="-234.375" id="line_81" class="solid" />
<line x1="-109.375" y1="-218.75" x2="0.0" y2="-218.75" id="line_82" class="solid" />
<line x1="-109.375" y1="-265.625" x2="-109.375" y2="-218.75" id="line_83" class="solid" />
<line x1="-156.25" y1="-265.625" x2="-109.375" y2="-265.625" id="line_85" class="solid" />
<line x1="-296.875" y1="-171.875" x2="-218.75" y2="-171.875" id="line_87" class="solid" />
<line x1="-296.875" y1="-140.625" x2="-296.875" y2="-31.25" id="line_88" class="solid" />
<line x1="-250.0" y1="-140.625" x2="-296.875" y2="-140.625" id="line_89" class="solid" />
<line x1="-250.0" y1="-109.375" x2="-250.0" y2="-140.625" id="line_91" class="solid" />
<line x1="-218.75" y1="-109.375" x2="-140.625" y2="-109.375" id="line_92" class="solid" />
<line x1="-218.75" y1="-171.875" x2="-218.75" y2="-109.375" id="line_93" class="solid" />
<line x1="-234.375" y1="31.25" x2="-312.5" y2="31.25" id="line_106" class="solid" />
<line x1="-312.5" y1="-437.5" x2="-250.0" y2="-437.5" id="line_111" class="solid" />
<line x1="-31.25" y1="-171.875" x2="-31.25" y2="-140.625" id="line_116" class="solid" />
<line x1="-31.25" y1="-140.625" x2="-31.25" y2="-31.25" id="line_118" class="solid" />
<line x1="-250.0" y1="-187.5" x2="-375.0" y2="-187.5" id="line_126" class="solid" />
<line x1="-218.75" y1="-187.5" x2="-250.0" y2="-187.5" id="line_128" class="solid" />
<line x1="-218.75" y1="-343.75" x2="0.0" y2="-343.75" id="line_132" class="solid" />
<line x1="-250.0" y1="-343.75" x2="-218.75" y2="-343.75" id="line_134" class="solid" />
<line x1="-250.0" y1="-62.5" x2="-375.0" y2="-62.5" id="line_136" class="solid" />
<line x1="-218.75" y1="-62.5" x2="-250.0" y2="-62.5" id="line_138" class="solid" />
<line x1="-140.625" y1="-62.5" x2="-218.75" y2="-62.5" id="line_140" class="solid" />
<line x1="-109.375" y1="-62.5" x2="-140.625" y2="-62.5" id="line_142" class="solid" />
<line x1="-343.75" y1="-265.625" x2="-343.75" y2="-343.75" id="line_144" class="solid" />
<line x1="-343.75" y1="-234.375" x2="-343.75" y2="-265.625" id="line_146" class="solid" />
<line x1="-343.75" y1="-171.875" x2="-343.75" y2="-234.375" id="line_148" class="solid" />
<line x1="-343.75" y1="-140.625" x2="-343.75" y2="-171.875" id="line_150" class="solid" />
<!-- end group: "border_solid" -->
</g>
<!-- end group: "borders" -->
</g>
<g id="objects">
<g id="objects_item">
<use xlink:href="../resources/svg/common.svg#item" x="-208.0078125" y="2.9296875" id="object_0" class="item item-5" transform="rotate(69.609375 -208.0078125 2.9296875)" />
<use xlink:href="../resources/svg/common.svg#item" x="-186.03515625" y="-407.2265625" id="object_1" class="item item-5" transform="rotate(69.609375 -186.03515625 -407.2265625)" />
<use xlink:href="../resources/svg/common.svg#item" x="-417.48046875" y="-203.61328125" id="object_2" class="item item-5" transform="rotate(69.609375 -417.48046875 -203.61328125)" />
<use xlink:href="../resources/svg/common.svg#item" x="33.69140625" y="-200.68359375" id="object_3" class="item item-5" transform="rotate(69.609375 33.69140625 -200.68359375)" />
<use xlink:href="../resources/svg/common.svg#item" x="-199.21875" y="-202.1484375" id="object_4" class="item item-3" transform="rotate(69.609375 -199.21875 -202.1484375)" />
<use xlink:href="../resources/svg/common.svg#item" x="-168.45703125" y="-169.921875" id="object_5" class="item item-3" transform="rotate(69.609375 -168.45703125 -169.921875)" />
<use xlink:href="../resources/svg/common.svg#item" x="-54.19921875" y="-243.1640625" id="object_6" class="item item-3" transform="rotate(69.609375 -54.19921875 -243.1640625)" />
<use xlink:href="../resources/svg/common.svg#item" x="-134.765625" y="-316.40625" id="object_7" class="item item-3" transform="rotate(69.609375 -134.765625 -316.40625)" />
<use xlink:href="../resources/svg/common.svg#item" x="-320.80078125" y="-161.1328125" id="object_8" class="item item-15" transform="rotate(69.609375 -320.80078125 -161.1328125)" />
<use xlink:href="../resources/svg/common.svg#item" x="-121.58203125" y="-80.56640625" id="object_9" class="item item-8" transform="rotate(69.609375 -121.58203125 -80.56640625)" />
<use xlink:href="../resources/svg/common.svg#item" x="-323.2421875" y="-248.046875" id="object_24" class="item item-1" />
<use xlink:href="../resources/svg/common.svg#item" x="-59.5703125" y="-152.34375" id="object_25" class="item item-1" />
<use xlink:href="../resources/svg/common.svg#item" x="-149.4140625" y="-204.1015625" id="object_26" class="item item-27" />
<!-- end group: "objects_item" -->
</g>
<g id="objects_player">
<use xlink:href="../resources/svg/common.svg#monster" x="-405.76171875" y="-80.56640625" id="object_10" class="player" transform="rotate(331.875 -405.76171875 -80.56640625)" />
<use xlink:href="../resources/svg/common.svg#monster" x="-410.15625" y="-317.87109375" id="object_11" class="player" transform="rotate(44.296875 -410.15625 -317.87109375)" />
<use xlink:href="../resources/svg/common.svg#monster" x="-317.87109375" y="-411.62109375" id="object_12" class="player" transform="rotate(42.890625 -317.87109375 -411.62109375)" />
<use xlink:href="../resources/svg/common.svg#monster" x="-58.59375" y="-414.55078125" id="object_13" class="player" transform="rotate(129.375 -58.59375 -414.55078125)" />
<use xlink:href="../resources/svg/common.svg#monster" x="23.4375" y="-325.1953125" id="object_14" class="player" transform="rotate(139.21875 23.4375 -325.1953125)" />
<use xlink:href="../resources/svg/common.svg#monster" x="33.69140625" y="-84.9609375" id="object_15" class="player" transform="rotate(214.453125 33.69140625 -84.9609375)" />
<use xlink:href="../resources/svg/common.svg#monster" x="-58.59375" y="4.39453125" id="object_16" class="player" transform="rotate(209.53125 -58.59375 4.39453125)" />
<use xlink:href="../resources/svg/common.svg#monster" x="-319.3359375" y="5.859375" id="object_17" class="player" transform="rotate(314.296875 -319.3359375 5.859375)" />
<use xlink:href="../resources/svg/common.svg#monster" x="-253.41796875" y="-156.73828125" id="object_18" class="player" transform="rotate(176.484375 -253.41796875 -156.73828125)" />
<use xlink:href="../resources/svg/common.svg#monster" x="-232.91015625" y="-266.6015625" id="object_19" class="player" transform="rotate(260.15625 -232.91015625 -266.6015625)" />
<use xlink:href="../resources/svg/common.svg#monster" x="-125.9765625" y="-232.91015625" id="object_20" class="player" transform="rotate(65.390625 -125.9765625 -232.91015625)" />
<use xlink:href="../resources/svg/common.svg#monster" x="-93.75" y="-158.203125" id="object_21" class="player" transform="rotate(1.40625 -93.75 -158.203125)" />
<use xlink:href="../resources/svg/common.svg#monster" x="-101.07421875" y="-319.3359375" id="object_22" class="player" transform="rotate(180.0 -101.07421875 -319.3359375)" />
<use xlink:href="../resources/svg/common.svg#monster" x="-57.12890625" y="-127.44140625" id="object_23" class="player" transform="rotate(272.8125 -57.12890625 -127.44140625)" />
<!-- end group: "objects_player" -->
</g>
<!-- end group: "objects" -->
</g>
<g id="panels">
<!-- end group: "panels" -->
</g>

<script xlink:href="../resources/js/level.js" ></script>
</svg>